<?xml version="1.0" encoding="utf-8"?>
<!-- Generator: Adobe Illustrator 16.0.0, SVG Export Plug-In . SVG Version: 6.00 Build 0)  -->
<!DOCTYPE svg PUBLIC "-//W3C//DTD SVG 1.1//EN" "http://www.w3.org/Graphics/SVG/1.1/DTD/svg11.dtd">
<svg version="1.1" id="Layer_1" xmlns="http://www.w3.org/2000/svg" xmlns:xlink="http://www.w3.org/1999/xlink" x="0px" y="0px"
	 width="400px" height="400px" viewBox="0 0 400 400" enable-background="new 0 0 400 400" xml:space="preserve">
<g>
	<path fill-rule="evenodd" clip-rule="evenodd" fill="#E4D0AA" d="M177.789,380.325c65.6,0,119.095-7.485,119.095-16.663
		c0-9.18-53.495-16.655-119.095-16.655c-65.612,0-119.108,7.476-119.108,16.655C58.681,372.84,112.177,380.325,177.789,380.325
		L177.789,380.325z"/>
	<path fill-rule="evenodd" clip-rule="evenodd" fill="#321A1B" d="M392.841,176.248c-0.676-2.857-1.89-5.656-3.172-8.28
		c-0.337-0.665-0.711-1.329-1.131-1.983c-0.479-1.341-1.026-2.67-1.574-4c-1.411-3.406-2.939-6.823-4.841-9.983
		c-3.871-6.437-8.874-11.919-14.519-16.829c-11.29-9.807-24.095-17.796-37.762-23.837c-13.773-6.1-28.235-10.216-43.186-12.105
		c-15.523-1.972-31.278-1.948-46.802-0.117c-3.954,0.466-7.896,1.143-11.802,1.902c-2.508,0.489-5.132,1.072-7.593,1.936
		c-1.015-1.925-2.181-3.744-3.382-5.4c-4.115-5.702-8.607-10.892-14.403-14.962c-2.88-2.018-6.054-3.58-9.364-4.782
		c-3.511-1.271-7.207-1.772-10.904-2.157c-7.965-0.816-16.339-0.735-24.141,1.213c-9.039,2.262-16.176,8.933-21.354,16.409
		c-2.611,3.79-4.921,8.105-6.507,12.642c-1.249-0.711-3.103-0.42-4.479-0.408c-1.923,0.035-3.836,0.093-5.749,0.303
		c-2.554,0.292-4.979,0.852-7.313,1.75c-0.839,0.07-1.667,0.164-2.506,0.269c-7.698,0.957-15.149,3.009-22.415,5.691
		c-7.126,2.624-14.018,6.018-20.654,9.715c-5.866,3.277-11.557,6.869-16.933,10.893C28.092,150.813,9.653,174.93,6.353,203.211
		c-1.375,11.885,0.466,24.13,5.47,34.986c2.529,5.482,5.982,10.426,9.854,15.033c1.889,2.264,3.907,4.386,6.053,6.403
		c1.05,0.991,2.227,1.819,3.311,2.717c0.642,0.536,1.283,1.085,1.983,1.528c0.292,0.186,0.618,0.338,0.968,0.467
		c2.507,4,7.499,6.32,11.965,7.51c6.134,1.645,12.677,1.248,18.485-1.305c2.962-1.297,5.842-3.5,7.207-6.497
		c1.504-3.312,1.236-6.929-0.594-10.065c-3.943-6.705-13.389-8.337-20.444-6.996c-2.181,0.42-4.222,1.539-5.54,3.346
		c-0.245,0.338-0.501,0.561-0.816,0.84c-0.49,0.421-0.758,0.91-1.144,1.399c-0.07,0.094-0.14,0.176-0.221,0.257
		c-0.023-1.679,0.221-3.381,0.513-5.003c0.455-2.496,1.015-4.897,1.796-7.313c1.54-4.711,3.732-9.282,6.345-13.517
		c2.6-4.209,5.563-7.79,9.364-11.16c1.62-1.447,3.032-2.473,5.108-3.721c1.13-0.688,2.263-1.354,3.499-1.842
		c1.469-0.584,3.254-0.922,4.466-1.983c2.134,6.228,4.817,12.269,7.744,18.158c7.674,15.5,16.736,30.253,25.844,44.935
		c2.601,4.211,5.224,8.281,8.338,12.141c1.995,2.461,4.071,4.898,6.216,7.254c-0.676,0.338-1.317,0.725-1.947,1.108
		c-2.833,1.808-5.249,4.198-7.347,6.811c-4.327,5.411-7.347,11.755-8.536,18.603c-1.307,7.439-0.77,15.242,1.248,22.518
		c0.711,2.579,1.644,5.074,2.763,7.499c-1.107-0.431-2.239-0.792-3.394-1.071c-3.58-0.852-7.498-0.701-10.951,0.594
		c-2.798,1.051-5.574,2.683-7.149,5.295c-1.807,3.01-0.536,6.647,2.042,8.724c4.746,3.802,11.616,3.521,17.342,3.055
		c1.445-0.116,2.879-0.186,4.325-0.396c1.354-0.198,3.092-0.408,4.257-1.177c1.236-0.793,2.275-1.761,2.893-2.905
		c0.699-0.012,1.446-0.383,1.714-1.119c2.355-6.438,5.504-12.455,10.017-17.645c4.596-5.283,10.124-9.995,16.526-12.888
		c6.321-2.855,13.097-3.895,19.779-3.941c8.49-0.07,16.991-0.537,25.494-0.431c4.466,0.046,8.92,0.84,12.875,2.623
		c4.257,1.936,7.791,4.49,11.104,7.581c3.463,3.219,6.473,6.916,9.014,10.903c1.317,2.041,2.531,4.258,3.348,6.544
		c0.84,2.321,1.096,4.734,1.854,7.056c0.362,1.107,1.517,1.41,2.367,0.897c0,0.012,0.012,0.012,0.012,0.022
		c1.376,1.459,3.487,1.983,5.376,2.426c3.953,0.91,8.082,1.155,12.129,1.307c3.767,0.141,7.92-0.478,11.418-1.912
		c2.717-1.108,4.816-2.671,5.982-5.447c1.12-2.658-0.198-5.923-2.111-7.825c-3.348-3.3-9.154-4.093-13.633-3.883
		c-2.146,0.104-4.104,0.595-6.029,1.295c0.676-1.179,1.318-2.379,1.912-3.604c3.395-7.045,5.318-14.87,4.922-22.707
		c-0.408-8.023-3.452-15.441-8.725-21.494c-2.005-2.297-4.348-4.279-6.809-6.064c-0.502-0.372-1.051-0.699-1.6-0.979
		c0.433-0.514,0.863-1.038,1.285-1.552c2.552-3.147,4.92-6.449,7.123-9.854c4.422-6.812,8.177-14.078,12.014-21.237
		c7.906-14.754,15.51-29.984,20.596-45.962c2.46-7.708,4.291-15.745,5.854-23.698c0.175-0.863,0.326-1.727,0.489-2.601
		c1.107-0.432,2.217-0.851,3.324-1.318c1.598-0.665,3.184-1.388,4.805-2.018c3.441-1.329,6.975-2.368,10.543-3.3
		c7.521-1.948,15.301-3.289,23.045-4.035c8.466-0.817,16.84-0.432,25.307,0.35c3.966,0.361,8,1.038,11.791,2.297
		c0.896,0.304,1.807,0.409,2.682,0.735c0.874,0.337,1.727,0.7,2.59,1.049c0.535,0.222,1.061,0.455,1.573,0.7
		c-2.402,1.843-3.581,5.983-4.197,8.548c-0.887,3.697-0.957,7.557-0.328,11.289c0.526,3.079,2.042,6.146,4.304,8.316
		c2.695,2.6,6.264,3.241,9.844,2.705c3.428-0.513,6.683-2.683,9.131-5.016c2.59-2.472,4.351-5.563,5.716-8.816
		C394.836,190.254,394.415,182.966,392.841,176.248L392.841,176.248z"/>
	<path fill-rule="evenodd" clip-rule="evenodd" fill="#F9BF9B" d="M180.903,258.339c-1.517-1.108-4.758-1.469-6.193-0.175
		c-0.745,0.676-0.432,1.784,0.303,2.297c1.062,0.759,2.59,0.315,3.814,0.678c1.085,0.338,0.897,1.889,0.338,2.601
		c-1.528,1.971-4.665,2.273-6.612,0.874c-1.645-1.166-1.505-3.755-1.12-5.469c0.466-2.123,1.727-4.62,3.627-5.797
		c0.77-0.479,0.255-1.889-0.641-1.527c-3.23,1.305-5.12,4.314-5.739,7.65c-0.606,3.265,0.246,7.148,3.545,8.595
		c3.802,1.69,8.887-0.058,10.472-3.978C183.562,261.979,182.652,259.634,180.903,258.339L180.903,258.339z"/>
	<path fill-rule="evenodd" clip-rule="evenodd" fill="#F9BF9B" d="M250.572,214.896c-2.401,1.48-5.106,2.59-7.743,3.58
		c-2.857,1.063-5.831,1.844-8.84,2.392c-2.857,0.513-5.797,0.735-8.7,0.759c-1.47,0.011-2.927-0.105-4.396-0.176
		c-1.342-0.047-2.742-0.338-4.036,0.082c-0.548,0.186-0.874,0.967-0.362,1.388c2.089,1.761,5.797,1.608,8.386,1.645
		c3.184,0.034,6.333-0.315,9.446-0.922c3.113-0.618,6.136-1.551,9.051-2.821c2.926-1.272,5.423-3.01,7.859-5.063
		C251.728,215.352,251.098,214.57,250.572,214.896L250.572,214.896z"/>
	<path fill-rule="evenodd" clip-rule="evenodd" fill="#F9BF9B" d="M126.568,223.34c-2.262-1.096-5.329-0.734-7.79-0.898
		c-2.974-0.186-5.901-0.605-8.83-1.189c-5.667-1.142-11.149-3.147-15.253-7.347c-0.49-0.513-1.26,0.257-0.77,0.782
		c4.034,4.35,9.353,7.113,15.009,8.711c2.928,0.828,6.029,1.189,9.05,1.48c2.636,0.246,6.11,0.864,8.583-0.326
		C127.023,224.332,127.023,223.563,126.568,223.34L126.568,223.34z"/>
	<path fill-rule="evenodd" clip-rule="evenodd" fill="#F9BF9B" d="M237.605,302.469L237.605,302.469
		c1.737,2.285,3.114,4.619,4.139,7.033c-1.551,0.023-3.124,0.209-4.618,0.407c-4.209,0.584-8.233,1.937-12.013,3.86
		c-3.124,1.598-5.981,3.768-8.595,6.11c-0.874,0.793-2.074,1.925-3.031,3.196c-0.584-0.408-1.168-0.805-1.772-1.189
		c-2.497-1.61-5.121-2.857-7.839-3.814c0.549-0.816,1.297-1.504,1.983-2.191c2.507-2.496,4.945-4.991,7.769-7.148
		c2.973-2.275,6.203-4.246,9.526-5.937c3.231-1.645,6.683-2.799,10.054-4.105c0.223-0.082,0.455-0.163,0.677-0.233
		C235.296,299.764,236.647,301.222,237.605,302.469L237.605,302.469z M213.229,180.05L213.229,180.05
		c-4.723,3.009-9.399,4.782-14.764,6.449c-3.045,0.945-6.145,1.761-9.259,2.415c-1.412,0.303-2.835,0.571-4.269,0.792
		c-0.116-0.046-0.257-0.093-0.385-0.116c-4.268-0.77-8.711-0.373-13.014-0.326c-3.803,0.035-7.581-0.105-11.349-0.513
		c-5.189-0.549-12.513-2.333-17.446-4.49c-2.917-1.283-5.68-2.846-8.233-4.735c-0.875-0.641-1.855-1.504-2.812-2.461
		c0.467-1.341,0.921-2.683,1.458-4c1.214-2.974,2.776-5.832,4.538-8.513c3.51-5.354,8.128-9.971,13.47-13.471
		c5.645-3.674,11.745-5.679,18.484-5.656c6.846,0.024,13.599,2.193,19.663,5.225c1.773,0.886,3.546,1.866,5.26,2.927
		c0.223,0.781,0.934,1.12,1.575,1.003c3.615,2.391,6.986,5.177,9.76,8.385c2.218,2.554,3.873,5.644,5.063,8.793
		c0.618,1.644,1.143,3.254,1.551,4.957C212.788,177.823,212.964,178.954,213.229,180.05L213.229,180.05z M43.521,255.902
		L43.521,255.902c0.362-0.199,0.712-0.422,1.074-0.677c0.723-0.491,1.644-0.735,2.401-1.225c0.606-0.374,1.656-0.501,2.345-0.724
		c0.723-0.245,1.656-0.35,2.437-0.478c2.858-0.491,6.287,0.431,8.678,1.574c1.469,0.688,2.565,1.411,3.533,2.354
		c0,0,0.478,0.549,0.501,0.538c0.152,0.222,0.304,0.454,0.443,0.698c0.035,0.049,0.209,0.455,0.269,0.572
		c0.07,0.223,0.128,0.443,0.186,0.677c0.012,0.022,0.012,0.047,0.022,0.069c0,0.047,0,0.117,0,0.199
		c0.013,0.093-0.022,0.548-0.011,0.618c-0.047,0.198-0.094,0.384-0.152,0.571c-0.012,0.059-0.023,0.104-0.034,0.139
		c-0.036,0.048-0.058,0.105-0.094,0.175c-0.536,1.073-1.131,1.552-2.297,2.288c-0.548,0.348-1.12,0.651-1.704,0.932
		c-0.046,0.023-0.465,0.199-0.571,0.257c-0.233,0.082-0.466,0.175-0.711,0.257c-1.178,0.407-2.415,0.699-3.663,0.908
		c-0.07,0-0.629,0.083-0.665,0.095c-0.35,0.034-0.687,0.058-1.037,0.069c-0.688,0.047-1.388,0.047-2.076,0.047
		c-1.574-0.035-2.497-0.163-3.593-0.361c-1.363-0.256-2.705-0.643-4.022-1.108c-0.315-0.116-0.641-0.245-0.956-0.372
		c0.571,0.232-0.455-0.223-0.455-0.223c-0.607-0.291-1.213-0.595-1.819-0.91c-1.19-0.605-2.217-1.434-3.37-2.087
		c-0.048-0.023-0.094-0.058-0.141-0.082c0.443-0.442,0.862-0.909,1.307-1.294C40.628,258.27,42.494,257.313,43.521,255.902
		L43.521,255.902z M386.986,187.036L386.986,187.036c-0.022,0.735-0.081,1.47-0.163,2.205c0.036-0.443-0.128,0.583-0.128,0.606
		c-0.093,0.478-0.221,0.957-0.338,1.423c-0.187,0.723-0.42,1.435-0.677,2.146c-0.327,0.921-0.314,0.852-0.664,1.575
		c-0.326,0.688-0.689,1.353-1.074,2.017c-0.197,0.327-0.408,0.642-0.606,0.956c-0.068,0.105-0.664,0.921-0.604,0.863
		c-0.456,0.572-0.957,1.097-1.459,1.609c-0.268,0.257-0.548,0.513-0.828,0.758c-0.104,0.094-0.174,0.152-0.222,0.199
		c-0.059,0.034-0.116,0.08-0.222,0.151c-1.457,1.073-2.426,1.493-3.918,1.912c-0.012,0-0.816,0.128-0.734,0.141
		c-0.28,0.022-0.549,0.011-0.828,0.011c-0.059,0-0.118,0-0.164,0c-0.047-0.011-0.104-0.023-0.175-0.035
		c-0.314-0.069-0.618-0.162-0.91-0.268c0.816,0.279-0.967-0.723-0.652-0.408c-0.211-0.176-0.397-0.35-0.596-0.536
		c-0.081-0.083-0.617-0.746-0.595-0.677c-1.585-2.263-1.889-4.595-1.935-7.382c-0.07-3.313,0.676-6.543,2.169-9.563
		c0.594-1.202,0.921-2.146,0.91-3.336c0.21-0.07,0.396-0.198,0.559-0.35c0.164-0.036,0.327-0.07,0.479-0.105
		c1.061-0.302,2.146-0.501,3.194-0.828c1.878-0.583,3.559-1.609,5.132-2.764c1.166-0.84,2.448-1.948,3.533-3.208
		c0.677,2.695,1.166,5.423,1.389,8.023C386.986,183.793,387.045,185.415,386.986,187.036L386.986,187.036z M325.235,167.292
		L325.235,167.292c-8.362,0.676-16.573,2.227-24.643,4.502c-3.686,1.026-7.254,2.344-10.719,3.941
		c-2.459,1.143-4.968,2.601-7.055,4.443c0.116-0.758,0.232-1.515,0.349-2.274c0.491-3.137,0.876-6.368,0.27-9.517
		c-0.257-1.399-2.682-1.085-2.497,0.338c0.42,3.196-0.127,6.554-0.814,9.668c-0.77,3.522-1.786,6.985-2.765,10.438
		c-2.331,8.152-4.805,16.257-7.813,24.188c-2.939,7.756-6.613,15.289-10.309,22.707c-3.709,7.44-7.663,14.775-11.664,22.076
		c-3.428,6.227-6.811,12.503-10.74,18.426c-0.105,0.163-0.223,0.326-0.327,0.49c-1.294,0.664-2.542,1.447-3.767,2.182
		c-1.901,1.131-3.872,2.133-5.901,3.043c-4.081,1.818-8.362,3.184-12.688,4.304c-4.537,1.179-9.142,2.192-13.738,3.136
		c-2.273,0.469-4.57,0.713-6.903,0.666c-1.259-0.022-2.507-0.07-3.686,0.222c-1.376-1.796-3.37-3.231-5.528-4.104
		c-3.103-1.249-6.437-1.656-9.761-1.365c-2.287,0.186-4.433,0.828-6.497,1.843c-1.061,0.514-2.239,1.247-3.102,2.181
		c-0.549,0.396-1.05,0.816-1.517,1.225c-4.338-0.666-8.701-1.189-13.015-1.994c-4.792-0.897-9.505-2.123-14.204-3.416
		c-4.583-1.249-8.619-3.5-12.852-5.599c-1.26-0.63-2.706-1.131-4.06-1.751c-1.423-1.841-2.775-3.73-4.012-5.714
		c-4.583-7.334-9.236-14.624-13.808-21.972c-8.864-14.252-18.006-28.631-24-44.375c-1.552-4.069-2.998-8.151-4.397-12.28
		c-0.653-1.913-1.329-3.826-1.889-5.784c-0.584-2.053-1.365-4.328-1.329-6.473c0.011-0.968-1.377-0.921-1.482,0
		c-0.21,1.89-0.373,3.569-0.164,5.47c0.222,1.994,0.736,3.942,1.237,5.878c0.898,3.475,1.76,6.951,2.729,10.402
		c-1.609-0.081-2.974,0.49-4.513,1.096c-1.69,0.654-3.347,1.4-4.863,2.392c-1.167,0.747-2.297,1.516-3.406,2.321
		c-0.606-0.863-1.353-1.669-1.948-2.355c-1.644-1.902-3.58-3.558-5.504-5.167c-3.895-3.23-8.082-5.878-12.77-7.825
		c-4.7-1.971-10.018-3.008-15.114-2.694c-2.391,0.141-4.724,0.642-7.103,0.934c0.304-0.968,0.619-1.936,0.946-2.893
		c4.245-12.175,12.105-23.802,21.074-33.354c9.493-10.099,19.639-17.423,31.615-24.339c9.459-5.47,18.975-9.878,29.319-13.143
		c4.957-1.575,10.112-2.881,15.277-3.569c2.602-0.338,5.202-0.607,7.813-0.77c1.284-0.082,2.567-0.105,3.837-0.093
		c0.607,0,1.189-0.012,1.773-0.035c-0.292,1.889-0.442,3.779-0.408,5.656c-1.667,0.629-3.09,1.808-4.442,3.056
		c-1.996,1.843-3.721,4.35-4.77,6.846c-1.307,3.125-1.436,6.367-0.642,9.644c0.373,1.563,1.002,3.032,1.633,4.501
		c0.501,1.155,0.922,2.531,1.795,3.464c-1.119,2.565-1.83,5.376-2.425,8.059c-0.84,3.825-1.072,7.697-0.512,11.569
		c1.038,7.254,5.201,13.657,10.659,18.426c10.298,8.968,24.585,12.059,37.903,12.351c2.74,0.07,5.504,0.034,8.245-0.128
		c0.361-0.023,0.735-0.046,1.12-0.07c0.979,0.209,1.983,0.338,3.056,0.396c2.158,0.105,4.292-0.035,6.437-0.222
		c3.755-0.338,7.406-1.213,11.044-2.169c6.11-1.609,12.129-3.849,17.645-6.951c5.505-3.09,10.66-7.371,13.773-12.922
		c4.07-7.266,3.953-15.383,2.18-23.29c-0.348-1.54-0.756-3.056-1.188-4.572c-0.27-0.92-0.642-1.714-1.062-2.484
		c0.677-0.665,1.108-1.645,1.48-2.461c0.618-1.364,1.108-2.775,1.446-4.233c0.643-2.752,1.003-5.831,0.443-8.618
		c-0.56-2.881-2.448-5.166-4.559-7.115c-1.109-1.026-2.287-2.005-3.488-2.915c-0.396-0.303-0.817-0.629-1.26-0.933
		c0.164-0.222,0.292-0.479,0.361-0.781c0.863-3.721,0.197-7.522-1.225-11.08c2.426-0.187,4.852-0.524,7.242-0.782
		c3.896-0.418,7.803-0.641,11.721-0.851c7.953-0.442,15.955-0.419,23.908-0.081c14.836,0.653,29.238,2.577,43.477,6.974
		c6.006,1.866,11.86,4.07,17.553,6.625c0.034,0.058,0.068,0.117,0.104,0.186c1.226,2.31,2.286,4.711,3.208,7.173
		c1.808,4.816,3.079,9.924,3.593,15.044c0.513,5.027,0.209,10.111-1.062,14.998c-1.132,4.315-3.512,8.023-5.424,11.965
		C325.853,167.245,325.55,167.256,325.235,167.292L325.235,167.292z M148.015,319.647L148.015,319.647
		c-2.239,0.909-4.397,1.971-6.484,3.161c-0.303-0.525-0.687-0.99-1.061-1.471c-0.991-1.258-2.076-2.437-3.196-3.58
		c-2.263-2.309-4.875-4.291-7.603-6.028c-2.683-1.716-5.586-3.091-8.596-4.128c-1.539-0.537-3.09-0.875-4.699-1.086
		c-0.293-0.046-0.596-0.094-0.899-0.14c0.642-1.026,1.318-2.029,2.064-3.021c1.458-1.947,3.685-4.164,5.598-5.621
		c0.443-0.338,0.909-0.641,1.387-0.933c2.684,0.758,5.295,2.693,7.523,4.069c3.137,1.947,5.901,4.304,8.642,6.765
		c2.939,2.636,6.134,5.004,8.921,7.813c0.84,0.863,1.54,1.843,2.158,2.869C150.511,318.703,149.251,319.146,148.015,319.647
		L148.015,319.647z"/>
	<path fill-rule="evenodd" clip-rule="evenodd" fill="#F9F6EA" d="M223.318,111.417L223.318,111.417c0,0,47.22-7.499,72.727-3.358
		c-10.286-2.216-20.69-3.336-31.325-3.802c-7.953-0.338-15.955-0.361-23.908,0.081c-3.918,0.21-7.825,0.433-11.721,0.851
		c-2.391,0.258-4.816,0.596-7.242,0.782C222.548,107.744,223.073,109.575,223.318,111.417L223.318,111.417z M303.882,109.983
		c0.757,0.268,1.504,0.478,2.239,0.63C305.374,110.391,304.628,110.181,303.882,109.983L303.882,109.983z M38.974,154.894
		c0,0,58.147-39.337,89.052-36.223l0.175-0.478c-0.011-1.749,0.129-3.499,0.408-5.248c-0.583,0.023-1.166,0.035-1.773,0.035
		c-1.271-0.012-2.553,0.011-3.837,0.093c-2.611,0.163-5.212,0.431-7.813,0.77c-5.165,0.688-10.32,1.994-15.277,3.569
		c-10.344,3.265-19.86,7.673-29.319,13.143C58.612,137.471,48.466,144.795,38.974,154.894L38.974,154.894z"/>
	<path fill-rule="evenodd" clip-rule="evenodd" fill="#CB736F" d="M237.605,302.469L237.605,302.469
		c1.737,2.285,3.114,4.619,4.139,7.033c-1.551,0.023-3.124,0.209-4.618,0.407c-1.818,0.257-3.604,0.653-5.34,1.177
		c-3.08-3.275-6.986-5.492-11.068-6.996c0.805-0.443,1.62-0.875,2.437-1.294c3.231-1.645,6.683-2.799,10.054-4.105
		c0.223-0.082,0.455-0.163,0.677-0.233C235.296,299.764,236.647,301.222,237.605,302.469L237.605,302.469z M62.764,255.703
		c-1.667,1.785-4.409,3.266-8.922,3.5c-5.411,0.268-9.33,0.174-12.234-1.494c0.723-0.548,1.424-1.119,1.913-1.807l0,0
		c0.362-0.199,0.712-0.422,1.074-0.677c0.723-0.491,1.644-0.735,2.401-1.225c0.606-0.374,1.656-0.501,2.345-0.724
		c0.723-0.245,1.656-0.35,2.437-0.478c2.858-0.491,6.287,0.431,8.678,1.574C61.342,254.793,62.087,255.214,62.764,255.703
		L62.764,255.703z M48.419,198.033c5.505-7.918,12.361-14.496,20.048-17.657l0,0c-0.047,0.093-0.082,0.199-0.094,0.315
		c-0.21,1.89-0.373,3.569-0.164,5.47c0.222,1.994,0.736,3.942,1.237,5.878c0.898,3.475,1.76,6.951,2.729,10.402
		c-1.609-0.081-2.974,0.49-4.513,1.096c-1.69,0.654-3.347,1.4-4.863,2.392c-1.167,0.747-2.297,1.516-3.406,2.321
		c-0.606-0.863-1.353-1.669-1.948-2.355c-1.644-1.902-3.58-3.558-5.504-5.167C50.798,199.783,49.621,198.873,48.419,198.033
		L48.419,198.033z M207.726,165.355c-5.178,9.738-13.505,18.357-26.602,23.838c1.155,0.07,2.298,0.198,3.429,0.396
		c0.128,0.023,0.269,0.07,0.385,0.116c1.434-0.221,2.857-0.489,4.269-0.792c3.114-0.654,6.214-1.47,9.259-2.415
		c5.364-1.667,10.041-3.44,14.764-6.449l0,0c-0.266-1.096-0.441-2.227-0.71-3.335c-0.408-1.703-0.933-3.313-1.551-4.957
		C210.128,169.542,209.067,167.35,207.726,165.355L207.726,165.355z M371.44,201.672c0.187-0.047,12.619-3.954,8.048-22.718l0,0
		c-0.853,0.467-1.738,0.875-2.683,1.167c-1.049,0.326-2.134,0.525-3.194,0.828c-0.152,0.036-0.315,0.07-0.479,0.105
		c-0.163,0.151-0.349,0.28-0.559,0.35c0.011,1.189-0.316,2.134-0.91,3.336c-1.493,3.02-2.239,6.25-2.169,9.563
		c0.046,2.787,0.35,5.119,1.935,7.382C371.429,201.672,371.429,201.672,371.44,201.672L371.44,201.672z M331.334,156.143
		c-16.793-1.119-34.985,1.842-49.296,11.359l0,0c0.607-0.082,1.271,0.187,1.399,0.886c0.606,3.149,0.222,6.379-0.27,9.517
		c-0.116,0.759-0.232,1.516-0.349,2.274c2.087-1.843,4.596-3.301,7.055-4.443c3.465-1.598,7.033-2.915,10.719-3.941
		c8.069-2.275,16.28-3.826,24.643-4.502l0,0c0.314-0.035,0.617-0.047,0.933-0.07C327.953,163.548,330.133,160.084,331.334,156.143
		L331.334,156.143z M281.059,169.857c-6.24,14.589-42.008,92.738-101.556,115.049c1.633,0.221,3.242,0.629,4.794,1.26
		c2.158,0.873,4.151,2.309,5.528,4.104c1.178-0.292,2.426-0.244,3.686-0.222c2.333,0.047,4.63-0.197,6.903-0.666
		c4.597-0.943,9.201-1.957,13.738-3.136c4.326-1.12,8.607-2.485,12.688-4.304c2.029-0.91,4-1.912,5.901-3.043
		c1.225-0.734,2.473-1.518,3.767-2.182c0.104-0.164,0.222-0.327,0.327-0.49c3.93-5.923,7.313-12.199,10.74-18.426
		c4.001-7.301,7.955-14.636,11.664-22.076c3.695-7.418,7.369-14.951,10.309-22.707c3.009-7.931,5.482-16.036,7.813-24.188
		c0.979-3.452,1.995-6.916,2.765-10.438C280.731,175.642,281.233,172.703,281.059,169.857L281.059,169.857z M134.137,314.924
		c2.788-2.075,6.158-3.545,9.796-4.524c1.948,1.633,3.895,3.255,5.68,5.05c0.84,0.863,1.54,1.843,2.158,2.869
		c-1.26,0.385-2.519,0.827-3.756,1.329l0,0c-2.239,0.909-4.397,1.971-6.484,3.161c-0.303-0.525-0.687-0.99-1.061-1.471
		c-0.991-1.258-2.076-2.437-3.196-3.58C136.294,316.755,135.233,315.812,134.137,314.924L134.137,314.924z"/>
	<path fill-rule="evenodd" clip-rule="evenodd" fill="#F9BF9B" d="M260.404,353.294L260.404,353.294L260.404,353.294
		c-0.013,0.047-0.022,0.08-0.022,0.105c0,0,0,0,0,0.011C260.382,353.374,260.392,353.328,260.404,353.294L260.404,353.294z"/>
	<path fill-rule="evenodd" clip-rule="evenodd" fill="#F9BF9B" d="M260.358,353.516L260.358,353.516
		C260.334,353.712,260.3,353.854,260.358,353.516L260.358,353.516z"/>
	<path fill-rule="evenodd" clip-rule="evenodd" fill="#EB5E2B" d="M191.34,292.988L191.34,292.988
		c1.039,0.128,2.076,0.222,3.102,0.279c2.274,0.117,4.642-0.268,6.87-0.642c4.769-0.805,9.598-1.726,14.284-2.915
		c4.34-1.108,8.572-2.565,12.7-4.326c0.923-0.398,1.845-0.828,2.753-1.272c-0.047,0.058-0.092,0.116-0.139,0.176
		c-1.098,1.329-2.239,2.624-3.418,3.884c-1.212,1.295-2.426,2.459-3.311,3.965c-0.223,0.081-0.444,0.163-0.666,0.244
		c-2.135,0.781-4.326,1.436-6.461,2.264c-2.123,0.814-4.21,1.667-6.391,2.332c-4.176,1.283-8.502,2.006-12.852,2.449
		c-2.345,0.232-4.677,0.396-7.009,0.723c-0.14,0.023-0.28,0.035-0.432,0.059c0.176-0.281,0.338-0.561,0.49-0.852
		C191.981,297.128,192.016,294.947,191.34,292.988L191.34,292.988z M36.932,256.986L36.932,256.986
		c-0.315,0.327-0.665,0.688-0.979,1.072c-1.365-1.807-2.916-3.439-4.432-5.189c-0.886-1.015-1.726-2.006-2.542-2.974
		c0.955-0.466,1.877-1.038,2.53-1.272c2.589-0.955,5.458-0.792,8.129-1.281c0.046,0,0.093-0.012,0.14-0.035
		c0.011,0.14,0.023,0.268,0.046,0.408c0.245,1.982,0.747,3.884,1.259,5.809C39.533,254.304,38.063,255.82,36.932,256.986
		L36.932,256.986z M367.266,174.301L367.266,174.301c0.069-0.047,0.14-0.094,0.21-0.128c1.015-0.606,2.019-1.178,2.986-1.866
		c1.958-1.399,3.51-3.079,4.898-5.026c1.363-1.924,2.787-4.455,3.544-7.056c1.179,1.982,2.24,4.047,3.255,6.123
		c0.572,1.154,1.095,2.332,1.655,3.499c-0.233,0.432-0.489,0.863-0.769,1.283c-1.003,1.493-2.427,2.81-3.85,3.884
		c-1.389,1.038-2.798,1.773-4.432,2.344c-0.641,0.209-1.259,0.489-1.877,0.781c-1.295-1.213-2.671-2.075-4.199-3.008
		C368.222,174.837,367.745,174.569,367.266,174.301L367.266,174.301z M207.842,96.374L207.842,96.374
		c2.415,2.869,4.571,6.146,6.776,9.295c2.228,3.183,4.234,6.787,4.07,10.787c-0.035,0.804,0.35,1.4,0.887,1.761
		c0.897,0.875,2.076,1.516,3.031,2.309c1.365,1.119,2.496,2.332,3.453,3.802c1.504,2.298,1.795,4.711,1.725,7.394
		c-0.07,2.542-0.629,5.259-1.619,7.604c-0.352,0.828-0.934,1.598-1.227,2.449c-0.221,0.245-0.36,0.571-0.36,0.957
		c0,0.91-0.14,1.796-0.129,2.706c0.013,1.014,0.211,1.994,0.386,2.985c0.36,1.924,0.641,3.872,0.828,5.82
		c0.338,3.743,0.268,7.522-0.725,11.161c-0.43,1.609-1.025,3.091-1.795,4.56c-0.326,0.63-0.699,1.225-1.084,1.819
		c-0.187,0.292-0.398,0.572-0.595,0.864c-0.142,0.198-0.27,0.384-0.409,0.571c0.199-0.256,0.164-0.221-0.093,0.117
		c-1.563,1.958-3.394,3.615-5.167,4.944c-0.257-1.843-0.77-3.697-1.224-5.47c0.326-0.198,0.583-0.513,0.652-0.944
		c0.665-3.802,0.466-7.733,0.269-11.558c-0.198-4.059-0.561-8.129-1.107-12.152c-1.098-7.907-2.928-15.709-4.934-23.43
		c-1.937-7.394-3.674-14.846-5.738-22.217c-1.038-3.696-2.193-7.371-3.51-10.998c-0.42-1.166-0.888-2.309-1.377-3.452
		C202.174,90.355,205.173,93.212,207.842,96.374L207.842,96.374z M131.653,119.243L131.653,119.243
		c1.959-10.193,6.566-20.374,13.995-27.628c-1.236,2.496-2.273,5.108-3.207,7.744c-2.333,6.612-3.79,13.481-5.563,20.257
		c-2.17,8.257-4.094,16.56-5.376,25.015c-1.307,8.561-1.738,17.039-1.353,25.692c0.046,1.015,0.105,1.959,0.361,2.939
		c0,0.012,0,0.012,0,0.012c-0.221,0.605-0.419,1.224-0.618,1.831c-0.501-0.583-0.968-1.167-1.365-1.727
		c-4.28-6.006-5.528-13.505-4.56-20.734c0.386-2.858,1.19-5.634,1.563-8.491c0.094-0.747-0.454-1.167-1.084-1.225
		c-0.093-0.222-0.199-0.455-0.292-0.677c-0.594-1.294-1.166-2.6-1.667-3.941c-1.073-2.799-1.271-5.493-0.281-8.339
		c1.261-3.686,4.456-7.313,7.791-9.47C130.743,120.549,131.478,120.165,131.653,119.243L131.653,119.243z M165.917,82.11
		L165.917,82.11c4.047-0.431,8.129-0.431,12.188-0.198c1.131,0.059,2.262,0.14,3.393,0.245c-0.022,0.712-0.022,1.4-0.058,1.959
		c-0.14,2.087-0.466,4.316-1.294,6.251c-1.318,3.056-4.012,5.785-7.441,6.216c-3.743,0.455-6.951-2.239-8.781-5.248
		c-1.528-2.52-2.286-5.517-2.788-8.444C162.651,82.542,164.237,82.285,165.917,82.11L165.917,82.11z M252.987,350.377
		L252.987,350.377c0.279,0.023,0.571,0.046,0.852,0.082c0.059,0,0.325,0.035,0.479,0.058c0.536,0.082,1.062,0.176,1.586,0.292
		c0.582,0.128,1.166,0.292,1.737,0.467c0.244,0.082,0.478,0.163,0.711,0.257c-0.467-0.175,0.478,0.245,0.595,0.303
		c0.245,0.13,0.479,0.269,0.711,0.42c0.024,0.013,0.048,0.035,0.07,0.048c0.023,0.011,0.047,0.034,0.07,0.059
		c0.104,0.092,0.199,0.186,0.292,0.291c-0.082-0.094,0.046,0.081,0.163,0.233c0.035,0.092,0.081,0.196,0.105,0.279
		c0.012,0.022,0.012,0.035,0.023,0.047c0,0.012,0,0.023,0,0.034c0,0.048,0,0.105-0.012,0.176c0,0.012-0.012,0.012-0.012,0.035
		c-0.024,0.034-0.07,0.093-0.117,0.152c-0.116,0.128-0.244,0.255-0.373,0.371l-0.012,0.012c-0.023,0.024-0.047,0.036-0.082,0.059
		c-0.209,0.141-0.432,0.268-0.641,0.397c-0.232,0.128-0.467,0.245-0.713,0.361c-0.046,0.022-0.08,0.035-0.115,0.059
		c-0.023,0.011-0.059,0.022-0.105,0.034c-0.607,0.246-1.236,0.432-1.866,0.618c-1.072,0.304-2.17,0.524-3.265,0.7
		c-0.176,0.034-0.35,0.059-0.514,0.082c-0.129,0.022-0.303,0.046-0.373,0.046c-0.477,0.059-0.969,0.105-1.445,0.152
		c-3.209,0.256-6.52,0.128-9.739,0.022c-1.715-0.059-3.44-0.141-5.154-0.269c0.222-0.176,0.432-0.36,0.652-0.547
		c1.026-0.876,1.971-1.912,2.857-2.975c1.832-0.607,3.661-1.213,5.493-1.809C247.505,350.063,250.247,350.156,252.987,350.377
		L252.987,350.377z M112.375,357.387L112.375,357.387c-1.773,0.56-3.732,0.466-5.867,0.537c-2.168,0.058-4.303,0.222-6.472,0.15
		c-2.111-0.081-4.595-0.396-6.205-1.165c-0.886-0.42-1.26-0.643-1.713-1.307c-0.07-0.129-0.118-0.21-0.141-0.256
		c0.046-0.118,0.127-0.34,0.175-0.408c0.222-0.386,0.91-0.935,1.609-1.389c1.05-0.664,1.727-0.933,2.566-1.225
		c2.577-0.873,5.248-0.815,7.873-0.128c1.353,0.35,2.636,0.885,3.883,1.505c1.667,0.84,3.103,1.935,5.015,1.632
		c0.022,0.022,0.046,0.059,0.058,0.081c0.35,0.454,0.712,0.91,1.073,1.342C113.623,357.025,112.97,357.201,112.375,357.387
		L112.375,357.387z M160.645,298.656L160.645,298.656c0.035,0.104,0.082,0.221,0.116,0.326c-0.5-0.035-1.014-0.071-1.527-0.116
		c-2.123-0.199-4.28-0.304-6.391-0.678c-4.396-0.792-8.642-2.507-12.828-4.012c-3.172-1.131-6.403-2.099-9.494-3.452
		c-0.035-0.082-0.081-0.163-0.14-0.233c-0.152-0.407-0.385-0.792-0.665-1.142c-2.321-2.928-4.968-5.621-7.428-8.443
		c3.767,1.971,7.3,4.337,11.3,5.854c8.805,3.359,18.135,4.828,27.383,6.344C160.167,294.807,160.004,296.743,160.645,298.656
		L160.645,298.656z"/>
	<path fill-rule="evenodd" clip-rule="evenodd" fill="#BE361A" d="M191.34,292.988L191.34,292.988
		c1.039,0.128,2.076,0.222,3.102,0.279c2.274,0.117,4.642-0.268,6.87-0.642c4.769-0.805,9.598-1.726,14.284-2.915
		c4.34-1.108,8.572-2.565,12.7-4.326c0.923-0.398,1.845-0.828,2.753-1.272c-0.047,0.058-0.092,0.116-0.139,0.176
		c-1.098,1.329-2.239,2.624-3.418,3.884c-1.212,1.295-2.426,2.459-3.311,3.965c-0.223,0.081-0.444,0.163-0.666,0.244
		c-2.135,0.781-4.326,1.436-6.461,2.264c-2.123,0.814-4.21,1.667-6.391,2.332c-4.176,1.283-8.502,2.006-12.852,2.449
		c-2.345,0.232-4.677,0.396-7.009,0.723c-0.14,0.023-0.28,0.035-0.432,0.059c0.176-0.281,0.338-0.561,0.49-0.852
		C191.981,297.128,192.016,294.947,191.34,292.988L191.34,292.988z M38.798,255.156c-1.271-1.715-2.262-4.095-3.08-7.359
		c1.319-0.129,2.637-0.223,3.92-0.455c0.046,0,0.093-0.012,0.14-0.035c0.011,0.14,0.023,0.268,0.046,0.408
		c0.245,1.982,0.747,3.884,1.259,5.809C40.279,253.92,39.509,254.524,38.798,255.156L38.798,255.156z M211.819,101.633
		c0,0,6.368,22.018,2.297,44.713c0.094,0.595,0.175,1.202,0.27,1.808c0.547,4.023,0.909,8.093,1.107,12.152
		c0.197,3.825,0.396,7.755-0.269,11.558c-0.069,0.431-0.326,0.746-0.652,0.944c0.454,1.773,0.967,3.627,1.224,5.47
		c1.773-1.33,3.604-2.986,5.167-4.944c0.257-0.338,0.292-0.374,0.093-0.117c0.14-0.187,0.268-0.373,0.409-0.571
		c0.196-0.292,0.408-0.571,0.595-0.864c0.385-0.594,0.758-1.189,1.084-1.819c0.77-1.469,1.365-2.951,1.795-4.56
		c0.992-3.639,1.063-7.417,0.725-11.161c-0.188-1.948-0.468-3.896-0.828-5.82c-0.175-0.991-0.373-1.971-0.386-2.985
		c-0.011-0.91,0.129-1.796,0.129-2.706c0-0.385,0.14-0.711,0.36-0.957c0.293-0.851,0.875-1.621,1.227-2.449
		c0.99-2.345,1.549-5.062,1.619-7.604c0.07-2.683-0.221-5.096-1.725-7.394c-0.957-1.47-2.088-2.683-3.453-3.802
		c-0.955-0.793-2.134-1.435-3.031-2.309c-0.537-0.361-0.922-0.957-0.887-1.761c0.164-4-1.843-7.604-4.07-10.787
		C213.685,104.327,212.753,102.974,211.819,101.633L211.819,101.633z M378.171,175.724c-1.144-1.994-2.847-3.918-5.027-5.75
		c-0.816,0.851-1.69,1.621-2.682,2.332c-0.968,0.688-1.972,1.26-2.986,1.866c-0.07,0.035-0.141,0.082-0.21,0.128l0,0
		c0.479,0.268,0.956,0.536,1.423,0.828c1.528,0.933,2.904,1.795,4.199,3.008c0.618-0.292,1.236-0.572,1.877-0.781
		C375.989,176.924,377.098,176.4,378.171,175.724L378.171,175.724z"/>
	<path fill-rule="evenodd" clip-rule="evenodd" fill="#F9F6EA" d="M167.946,291.508L167.946,291.508
		c1.388-0.841,2.646-1.365,3.662-2.684c0.023-0.035,0.047-0.07,0.059-0.104c0.805-0.151,1.633-0.257,2.448-0.327
		c2.579-0.211,5.202,0.094,7.687,0.84c2.286,0.688,4.514,1.947,5.691,4.082c1.248,2.25,0.221,4.596-1.481,6.215
		c-3.837,3.675-10.565,4.516-15.488,3.08c-2.751-0.805-5.515-2.811-6.332-5.68C163.491,294.457,166.162,292.59,167.946,291.508
		L167.946,291.508z"/>
	<path fill-rule="evenodd" clip-rule="evenodd" fill="#4C62AB" d="M155.747,84.652L155.747,84.652
		c-0.361,0.957-0.699,1.913-1.037,2.799c-0.968,2.496-1.727,5.062-2.414,7.638c-1.341,5.062-2.006,10.065-2.146,15.29
		c-0.012,0.477,0.666,0.443,0.723,0c0.642-4.945,2.135-9.937,3.755-14.648c0.816-2.392,1.773-4.724,2.74-7.067
		c0.736-1.785,1.738-3.522,2.52-5.307c0.269,3.371,0.899,6.683,2.52,9.716c2.028,3.789,5.924,6.624,10.297,6.682
		c4.397,0.046,8.141-3.266,10.182-6.881c1.05-1.854,1.599-3.907,1.924-5.983c1.097,1.901,2.029,3.872,2.974,5.843
		c1.072,2.216,1.878,4.513,2.764,6.811c0.897,2.344,1.981,4.711,2.531,7.172c0.104,0.42,0.699,0.233,0.64-0.175
		c-0.349-2.554-0.359-5.097-0.839-7.651c-0.478-2.507-1.317-4.968-2.227-7.359c-0.921-2.413-2.146-4.7-3.453-6.916
		c-0.28-0.478-0.629-1.143-1.037-1.831c0.886,0.164,1.773,0.362,2.647,0.595c2.157,0.572,4.222,1.376,6.17,2.379
		c0.139,0.397,0.292,0.782,0.441,1.178c0.689,1.773,1.308,3.569,1.925,5.365c1.214,3.487,2.229,7.032,3.161,10.589
		c1.937,7.406,3.405,14.917,5.05,22.381c1.681,7.638,3.567,15.23,4.652,22.985c0.538,3.826,0.829,7.697,1.074,11.546
		c0.104,1.691,0.116,3.405,0.15,5.108c-0.431-0.723-0.874-1.435-1.341-2.1c-3.219-4.688-7.861-8.537-12.665-11.674
		c0.128-2.974,0.012-6.029-0.128-8.945c-0.093-1.819-0.408-3.603-0.734-5.375c-0.351-1.925-0.945-3.791-1.294-5.703
		c-0.106-0.607-1.144-0.618-1.237,0c-0.269,1.761-0.432,3.289-0.198,5.061c0.234,1.831,0.513,3.663,0.652,5.504
		c0.188,2.52,0,5.074-0.057,7.604c-5.856-3.439-12.339-5.994-19.057-7.044c-6.799-1.049-13.411-0.198-19.65,2.717
		c-1.949,0.921-3.826,1.971-5.622,3.149c-0.862-4.886-0.559-9.948-0.046-14.857c0.07-0.724-0.991-0.77-1.201-0.164
		c-1.773,5.062-1.807,11.207-0.794,16.433c-4.011,2.938-7.557,6.507-10.542,10.507c-1.702,2.274-3.171,4.723-4.432,7.266
		c-0.011-0.035-0.011-0.059-0.011-0.093c-0.07-2.263-0.116-4.513-0.105-6.776c0.035-4.303,0.478-8.595,1.026-12.875
		c1.096-8.502,2.881-16.923,4.852-25.261c2.775-11.767,5.154-23.978,11.325-34.451C152.003,86.53,153.846,85.48,155.747,84.652
		L155.747,84.652z M200.19,316.966L200.19,316.966c-3.077-0.746-6.249-1.154-9.502-1.226c-4.281-0.104-8.561,0.094-12.841,0.234
		c-4.187,0.139-8.385,0.081-12.572,0.209c-3.439,0.105-6.846,0.501-10.181,1.26c-0.816-1.424-1.796-2.764-2.892-3.977
		c-2.822-3.137-6.449-5.668-9.692-8.35c-3.021-2.508-6.099-4.828-9.516-6.777c-1.82-1.025-3.779-2.273-5.843-3.055
		c0.222-0.129,0.432-0.256,0.653-0.396c0.666-0.082,1.306-0.361,1.807-0.816c2.753,1.295,5.656,2.273,8.479,3.371
		c4.502,1.773,8.922,3.672,13.704,4.582c2.286,0.433,4.618,0.514,6.938,0.619c1.295,0.07,2.927,0.257,4.385,0.058
		c3.348,3.464,8.841,4.874,13.482,4.502c2.834-0.222,5.972-1.003,8.666-2.45c1.632,0.421,3.487,0.083,5.12-0.116
		c2.473-0.303,4.945-0.56,7.429-0.793c4.746-0.466,9.457-1.248,14.029-2.623c4.303-1.282,8.524-3.091,12.676-4.841
		c0.584,0.572,1.424,0.828,2.403,0.433c1.073-0.444,1.982-0.828,2.869-1.575c0.269,0.152,0.536,0.314,0.804,0.49
		c0.141,0.093,0.281,0.199,0.42,0.291c0.035,0.023,0.07,0.06,0.129,0.105c0.35,0.292,0.7,0.572,1.061,0.863
		c-0.711-0.035-1.422-0.047-2.133,0.046c-1.867,0.245-3.639,0.712-5.423,1.306c-3.546,1.189-6.905,2.975-10.019,5.027
		c-3.066,2.029-5.947,4.351-8.571,6.915c-1.179,1.155-2.274,2.403-3.417,3.591C201.894,314.656,200.798,315.775,200.19,316.966
		L200.19,316.966z M132.819,329.012L132.819,329.012c-6.998,6.11-12.759,13.972-15.383,22.882c-0.676-1.329-1.353-2.646-2.017-3.988
		c-1.516-3.009-2.635-6.123-3.463-9.389c-1.563-6.156-2.309-12.688-1.354-19.009c0.549-3.557,1.598-6.857,3.126-9.959
		c0.583,0.059,1.167,0.104,1.725,0.162c1.494,0.175,2.905,0.479,4.339,0.922c2.775,0.852,5.388,2.146,7.872,3.639
		c2.565,1.54,4.899,3.381,7.125,5.352c1.084,0.969,2.123,2.006,3.103,3.069c0.454,0.501,0.886,1.015,1.329,1.515
		C136.982,325.654,134.837,327.251,132.819,329.012L132.819,329.012z M243.015,313.175L243.015,313.175
		c0.596,2.192,0.922,4.468,0.98,6.847c0.176,6.308-1.271,12.735-3.918,18.461c-1.457,3.171-3.313,6.134-5.283,9.015
		c-0.49,0.734-1.003,1.446-1.527,2.146c-0.175-0.806-0.386-1.574-0.606-2.309c-1.12-3.711-3.3-7.15-5.47-10.322
		c-3.254-4.769-7.23-9.027-11.803-12.549c0.992-0.933,2.054-1.819,3.137-2.636c2.463-1.854,5.063-3.638,7.813-5.038
		c3.232-1.655,6.754-2.706,10.334-3.265c1.808-0.281,3.673-0.351,5.493-0.373C242.456,313.142,242.736,313.152,243.015,313.175
		L243.015,313.175z M45.702,223.597L45.702,223.597c-2.962,5.026-4.968,10.415-5.75,16.212c-0.198,1.516-0.327,3.066-0.327,4.617
		c-0.116-0.022-0.244-0.035-0.384-0.035c-2.822,0.141-5.796,0.607-8.478,1.516c-1.248,0.432-2.321,1.19-3.405,1.925
		c-0.012,0.012-0.036,0.024-0.058,0.036c-0.701-0.889-1.388-1.762-2.03-2.66c-4.163-5.761-7.253-11.521-9.155-18.006
		c-0.478-1.656-0.863-3.336-1.189-5.027c-0.396-2.018-0.524-3.055-0.7-4.734c-0.361-3.383-0.408-6.799-0.245-10.205
		c0.187-3.662,0.49-5.726,1.225-9.306c0.257-1.248,0.548-2.484,0.876-3.721c0.594-0.023,1.189,0,1.771-0.011
		c2.415-0.07,4.793-0.549,7.207-0.571c4.432-0.047,8.992,1.271,13.004,3.078c3.965,1.785,7.534,4.257,10.8,7.103
		c1.679,1.469,3.3,2.984,4.757,4.665c0.631,0.746,1.189,1.539,1.715,2.354c0.092,0.152,0.186,0.305,0.279,0.467
		C51.696,214.827,48.384,219.072,45.702,223.597L45.702,223.597z M364.864,172.971L364.864,172.971
		c-0.561-0.314-1.12-0.629-1.703-0.863c-3.814-1.586-7.697-2.74-11.755-3.557c-6.858-1.365-13.764-1.807-20.713-1.574
		c4.968-7.826,6.671-17.504,5.621-26.718c-0.617-5.493-2.1-10.787-4.222-15.884c-0.643-1.539-1.341-3.056-2.1-4.537
		c6.109,2.962,12.047,6.32,17.82,10.111c6.158,4.023,11.406,8.094,16.84,13.05c2.718,2.483,5.354,4.98,7.732,7.802
		c1.236,1.47,2.402,3.067,3.521,4.724c-0.291,1.516-0.513,3.032-1.026,4.524c-0.699,2.029-1.749,3.931-2.95,5.704
		c-1.154,1.691-2.683,3.09-4.245,4.42C366.927,170.825,365.609,171.852,364.864,172.971L364.864,172.971z"/>
	<path fill-rule="evenodd" clip-rule="evenodd" fill="#353485" d="M211.144,157.635c0.046,0.723,0.092,1.445,0.14,2.169
		c0.104,1.691,0.116,3.405,0.15,5.108c-0.431-0.723-0.874-1.435-1.341-2.1c-0.221-0.314-0.442-0.629-0.664-0.933
		C210.06,160.48,210.63,159.069,211.144,157.635L211.144,157.635z M35.089,244.834c-0.186-1.003-0.362-2.076-0.524-3.219
		c-1.458-10.018,3.125-26.449,11.545-40.06c0.944,0.722,1.854,1.469,2.753,2.251c1.679,1.469,3.3,2.984,4.757,4.665
		c0.631,0.746,1.189,1.539,1.715,2.354c0.092,0.152,0.186,0.305,0.279,0.467c-3.918,3.534-7.23,7.779-9.913,12.304l0,0
		c-2.962,5.026-4.968,10.415-5.75,16.212c-0.198,1.516-0.327,3.066-0.327,4.617c-0.116-0.022-0.244-0.035-0.384-0.035
		C37.876,244.461,36.476,244.601,35.089,244.834L35.089,244.834z M370.24,167.804c-8.222-5.574-20.969-9.854-35.022-11.324
		c-0.98,3.698-2.472,7.254-4.524,10.497c6.949-0.233,13.854,0.209,20.713,1.574c4.058,0.817,7.94,1.971,11.755,3.557
		c0.583,0.233,1.143,0.549,1.703,0.863l0,0c0.745-1.119,2.063-2.146,2.821-2.798C368.573,169.414,369.447,168.645,370.24,167.804
		L370.24,167.804z M210.419,301.629c1.727,0.233,3.546,0.549,5.389,0.992c2.776-1.739,5.727-3.242,8.841-4.281
		c1.784-0.594,3.556-1.061,5.423-1.306c0.711-0.093,1.422-0.081,2.133-0.046c-0.36-0.291-0.711-0.571-1.061-0.863
		c-0.059-0.046-0.094-0.082-0.129-0.105c-0.139-0.092-0.279-0.198-0.42-0.291c-0.268-0.176-0.535-0.338-0.804-0.49
		c-0.887,0.747-1.796,1.131-2.869,1.575c-0.979,0.396-1.819,0.14-2.403-0.433c-4.151,1.75-8.373,3.559-12.676,4.841
		C211.364,301.361,210.898,301.502,210.419,301.629L210.419,301.629z M234.095,314.015c4.781,7.208,5.982,18.368-0.828,35.629
		c0.524-0.7,1.037-1.412,1.527-2.146c1.971-2.881,3.826-5.844,5.283-9.015c2.647-5.726,4.094-12.153,3.918-18.461
		c-0.059-2.379-0.385-4.654-0.98-6.847l0,0c-0.278-0.022-0.559-0.033-0.85-0.022c-1.82,0.022-3.686,0.092-5.493,0.373
		C235.81,313.654,234.958,313.815,234.095,314.015L234.095,314.015z M117.436,351.894c0,0,1.481-15.848,12.165-32.222
		c0.618-0.946,1.317-1.808,2.099-2.625c1.061,0.828,2.087,1.69,3.09,2.576c1.084,0.969,2.123,2.006,3.103,3.069
		c0.454,0.501,0.886,1.015,1.329,1.515c-2.239,1.447-4.385,3.044-6.402,4.805l0,0C125.821,335.122,120.061,342.983,117.436,351.894
		L117.436,351.894z M148.003,309.525c13.867-2.31,29.459,1.539,29.844,6.449c-4.187,0.139-8.385,0.081-12.572,0.209
		c-3.439,0.105-6.846,0.501-10.181,1.26c-0.816-1.424-1.796-2.764-2.892-3.977C150.93,312.055,149.496,310.762,148.003,309.525
		L148.003,309.525z"/>
	<path fill-rule="evenodd" clip-rule="evenodd" fill="#F9BF9B" d="M188.879,167.117c-3.008-2.274-6.274-4.268-9.563-6.146
		c-3.58-2.029-7.253-3.09-11.312-1.936c-3.347,0.956-6.216,3.113-8.957,5.155c-1.364,1.014-2.799,1.912-4.175,2.904
		c-1.399,1.015-2.414,2.169-3.324,3.639c-0.233,0.361,0.246,0.898,0.619,0.618c2.449-1.819,5.354-2.904,7.883-4.594
		c2.659-1.773,5.237-3.79,8.305-4.828c0.792-0.28,1.62-0.455,2.459-0.525c1.108-0.093,1.913,0.443,2.857,0.91
		c1.54,0.758,3.009,1.668,4.479,2.554c1.516,0.909,2.997,1.878,4.479,2.846c1.609,1.038,3.136,1.854,4.921,2.555
		c0.712,0.279,1.585-0.176,1.947-0.794C190.022,168.586,189.626,167.677,188.879,167.117L188.879,167.117z"/>
	<path fill-rule="evenodd" clip-rule="evenodd" fill="#F9BF9B" d="M223.599,135.232c0.42,0.385,1.119,0.221,1.282-0.35
		c0.56-1.937-0.362-3.803-0.991-5.622c-0.314-0.933-0.676-1.855-0.932-2.811c-0.212-0.828-0.398-1.656-0.969-2.309
		c-0.292-0.338-0.758-0.233-1.063,0c-1.563,1.201-0.56,4.058-0.14,5.586C221.312,131.675,222.082,133.833,223.599,135.232
		L223.599,135.232z"/>
	<path fill-rule="evenodd" clip-rule="evenodd" fill="#F9BF9B" d="M125.169,134.823c0.267,0.21,0.548,0.28,0.862,0.117
		c1.119-0.594,0.967-2.693,1.119-3.755c0.116-0.875,0.339-1.714,0.571-2.554c0.176-0.641,0.618-1.236,0.735-1.866
		c0.07-0.408-0.175-0.863-0.642-0.84c-1.608,0.058-2.285,2.438-2.599,3.685C124.912,130.8,123.98,133.879,125.169,134.823
		L125.169,134.823z"/>
	<path fill-rule="evenodd" clip-rule="evenodd" fill="#F9BF9B" d="M168.413,132.34L168.413,132.34c0.302-0.7,0.652-1.388,1.001-2.1
		c0.374-0.735,0.875-1.481,1.552-1.994c0.932-0.699,1.795,0.012,2.449,0.688c1.108,1.144,4.117,5.68,2.099,7.01
		c-0.979,0.641-2.554,0.443-3.65,0.361c-1.084-0.07-2.775-0.07-3.58-0.909C167.689,134.777,168.295,133.074,168.413,132.34
		L168.413,132.34z"/>
	<path fill-rule="evenodd" clip-rule="evenodd" fill="#F9BF9B" d="M166.395,138.089c2.146,1.75,5.75,1.645,8.315,1.236
		c7.312-1.178,3.686-10.03-0.268-12.98c-1.925-1.423-4.046-0.77-5.47,0.84c-0.408-0.234-0.921-0.246-1.283,0.151
		c-0.757,0.828-1.923,2.822-2.099,4.49c-0.373,0.829-0.455,1.808-0.56,2.659C164.878,135.827,165.334,137.238,166.395,138.089
		L166.395,138.089z"/>
	<polygon fill-rule="evenodd" clip-rule="evenodd" fill="#F9BF9B" points="194.01,119.872 194.01,119.872 194.01,119.872 
		194,119.872 194,119.872 194.01,119.872 	"/>
	<path fill-rule="evenodd" clip-rule="evenodd" fill="#F9BF9B" d="M194.01,119.85L194.01,119.85c0,0,0,0,0,0.011
		c0-0.011,0-0.011-0.011-0.011C194.116,119.383,194.116,119.383,194.01,119.85L194.01,119.85z"/>
	<path fill-rule="evenodd" clip-rule="evenodd" fill="#F9BF9B" d="M191.527,128.363c3.243,1.038,6.589-1.05,8.374-3.627
		c1.877-2.717,1.993-5.621,0.712-8.583c-1.248-2.904-4.852-4.537-7.814-3.487c-0.711,0.257-1.353,0.618-1.936,1.084
		c-0.082,0.012-0.174,0.035-0.268,0.058c-1.33,0.338-2.321,1.4-3.09,2.473c-1.377,1.924-1.575,4.362-1.155,6.613
		C186.85,125.575,189.019,127.547,191.527,128.363L191.527,128.363z"/>
	<path fill-rule="evenodd" clip-rule="evenodd" fill="#F9BF9B" d="M151.957,121.4L151.957,121.4
		c-0.034,0.058-0.092,0.152-0.15,0.221c0,0.012-0.012,0.012-0.012,0.023c-0.012-0.011,0-0.023,0-0.046
		c-0.012-0.036-0.012-0.07-0.012-0.105C151.84,121.458,151.898,121.435,151.957,121.4L151.957,121.4z"/>
	<path fill-rule="evenodd" clip-rule="evenodd" fill="#F9BF9B" d="M152.073,120.875L152.073,120.875
		C151.98,120.701,152.015,120.748,152.073,120.875L152.073,120.875z"/>
	<path fill-rule="evenodd" clip-rule="evenodd" fill="#F9BF9B" d="M152.097,120.875L152.097,120.875
		C151.98,120.351,152.073,120.607,152.097,120.875L152.097,120.875z"/>
	<polygon fill-rule="evenodd" clip-rule="evenodd" fill="#F9BF9B" points="152.33,121.272 152.33,121.272 152.33,121.272 
		152.33,121.272 152.33,121.272 	"/>
	<path fill-rule="evenodd" clip-rule="evenodd" fill="#F9BF9B" d="M152.377,121.319L152.377,121.319c0,0.011,0,0.011,0,0.011
		V121.319L152.377,121.319L152.377,121.319z"/>
	<path fill-rule="evenodd" clip-rule="evenodd" fill="#F9BF9B" d="M152.097,121.028L152.097,121.028
		c-0.104-0.117-0.069-0.094,0-0.012C152.097,121.016,152.097,121.016,152.097,121.028L152.097,121.028z"/>
	<path fill-rule="evenodd" clip-rule="evenodd" fill="#F9BF9B" d="M151.876,128.666c2.531-0.268,4.466-1.585,5.877-3.673
		c2.612-3.872,0.793-9.097-3.673-10.38c-2.264-0.653-4.327-0.023-6.169,1.155c-0.957,0.245-1.795,0.805-2.555,1.598
		c-2.297,2.379-2.053,6.088-0.082,8.548C146.767,127.768,149.484,128.922,151.876,128.666L151.876,128.666z"/>
	<path fill="#321A1B" d="M151.876,128.666c2.531-0.268,4.466-1.585,5.877-3.673c2.612-3.872,0.793-9.097-3.673-10.38
		c-2.264-0.653-4.327-0.023-6.169,1.155c-0.957,0.245-1.795,0.805-2.555,1.598c-2.297,2.379-2.053,6.088-0.082,8.548
		C146.767,127.768,149.484,128.922,151.876,128.666L151.876,128.666z M152.097,121.028L152.097,121.028
		c-0.104-0.117-0.069-0.094,0-0.012C152.097,121.016,152.097,121.016,152.097,121.028L152.097,121.028z M152.377,121.319
		L152.377,121.319c0,0.011,0,0.011,0,0.011V121.319L152.377,121.319L152.377,121.319z M152.33,121.272L152.33,121.272
		L152.33,121.272L152.33,121.272L152.33,121.272L152.33,121.272z M152.097,120.875L152.097,120.875
		C151.98,120.351,152.073,120.607,152.097,120.875L152.097,120.875z M152.073,120.875L152.073,120.875
		C151.98,120.701,152.015,120.748,152.073,120.875L152.073,120.875z M151.957,121.4L151.957,121.4
		c-0.034,0.058-0.092,0.152-0.15,0.221c0,0.012-0.012,0.012-0.012,0.023c-0.012-0.011,0-0.023,0-0.046
		c-0.012-0.036-0.012-0.07-0.012-0.105C151.84,121.458,151.898,121.435,151.957,121.4L151.957,121.4z"/>
	<path fill="#321A1B" d="M191.527,128.363c3.243,1.038,6.589-1.05,8.374-3.627c1.877-2.717,1.993-5.621,0.712-8.583
		c-1.248-2.904-4.852-4.537-7.814-3.487c-0.711,0.257-1.353,0.618-1.936,1.084c-0.082,0.012-0.174,0.035-0.268,0.058
		c-1.33,0.338-2.321,1.4-3.09,2.473c-1.377,1.924-1.575,4.362-1.155,6.613C186.85,125.575,189.019,127.547,191.527,128.363
		L191.527,128.363z M194.01,119.85L194.01,119.85c0,0,0,0,0,0.011c0-0.011,0-0.011-0.011-0.011
		C194.116,119.383,194.116,119.383,194.01,119.85L194.01,119.85z M194.01,119.872L194.01,119.872L194.01,119.872H194l0,0H194.01
		L194.01,119.872z"/>
	<path fill="#321A1B" d="M166.395,138.089c2.146,1.75,5.75,1.645,8.315,1.236c7.312-1.178,3.686-10.03-0.268-12.98
		c-1.925-1.423-4.046-0.77-5.47,0.84c-0.408-0.234-0.921-0.246-1.283,0.151c-0.757,0.828-1.923,2.822-2.099,4.49
		c-0.373,0.829-0.455,1.808-0.56,2.659C164.878,135.827,165.334,137.238,166.395,138.089L166.395,138.089z M168.413,132.34
		L168.413,132.34c0.302-0.7,0.652-1.388,1.001-2.1c0.374-0.735,0.875-1.481,1.552-1.994c0.932-0.699,1.795,0.012,2.449,0.688
		c1.108,1.144,4.117,5.68,2.099,7.01c-0.979,0.641-2.554,0.443-3.65,0.361c-1.084-0.07-2.775-0.07-3.58-0.909
		C167.689,134.777,168.295,133.074,168.413,132.34L168.413,132.34z"/>
	<path fill="#321A1B" d="M125.169,134.823c0.267,0.21,0.548,0.28,0.862,0.117c1.119-0.594,0.967-2.693,1.119-3.755
		c0.116-0.875,0.339-1.714,0.571-2.554c0.176-0.641,0.618-1.236,0.735-1.866c0.07-0.408-0.175-0.863-0.642-0.84
		c-1.608,0.058-2.285,2.438-2.599,3.685C124.912,130.8,123.98,133.879,125.169,134.823L125.169,134.823z"/>
	<path fill="#321A1B" d="M223.599,135.232c0.42,0.385,1.119,0.221,1.282-0.35c0.56-1.937-0.362-3.803-0.991-5.622
		c-0.314-0.933-0.676-1.855-0.932-2.811c-0.212-0.828-0.398-1.656-0.969-2.309c-0.292-0.338-0.758-0.233-1.063,0
		c-1.563,1.201-0.56,4.058-0.14,5.586C221.312,131.675,222.082,133.833,223.599,135.232L223.599,135.232z"/>
	<path fill="#321A1B" d="M188.879,167.117c-3.008-2.274-6.274-4.268-9.563-6.146c-3.58-2.029-7.253-3.09-11.312-1.936
		c-3.347,0.956-6.216,3.113-8.957,5.155c-1.364,1.014-2.799,1.912-4.175,2.904c-1.399,1.015-2.414,2.169-3.324,3.639
		c-0.233,0.361,0.246,0.898,0.619,0.618c2.449-1.819,5.354-2.904,7.883-4.594c2.659-1.773,5.237-3.79,8.305-4.828
		c0.792-0.28,1.62-0.455,2.459-0.525c1.108-0.093,1.913,0.443,2.857,0.91c1.54,0.758,3.009,1.668,4.479,2.554
		c1.516,0.909,2.997,1.878,4.479,2.846c1.609,1.038,3.136,1.854,4.921,2.555c0.712,0.279,1.585-0.176,1.947-0.794
		C190.022,168.586,189.626,167.677,188.879,167.117L188.879,167.117z"/>
	<path fill="#321A1B" d="M392.841,176.248c-0.676-2.857-1.89-5.656-3.172-8.28c-0.337-0.665-0.711-1.329-1.131-1.983
		c-0.479-1.341-1.026-2.67-1.574-4c-1.411-3.406-2.939-6.823-4.841-9.983c-3.871-6.437-8.874-11.919-14.519-16.829
		c-11.29-9.807-24.095-17.796-37.762-23.837c-13.773-6.1-28.235-10.216-43.186-12.105c-15.523-1.972-31.278-1.948-46.802-0.117
		c-3.954,0.466-7.896,1.143-11.802,1.902c-2.508,0.489-5.132,1.072-7.593,1.936c-1.015-1.925-2.181-3.744-3.382-5.4
		c-4.115-5.702-8.607-10.892-14.403-14.962c-2.88-2.018-6.054-3.58-9.364-4.782c-3.511-1.271-7.207-1.772-10.904-2.157
		c-7.965-0.816-16.339-0.735-24.141,1.213c-9.039,2.262-16.176,8.933-21.354,16.409c-2.611,3.79-4.921,8.105-6.507,12.642
		c-1.249-0.711-3.103-0.42-4.479-0.408c-1.923,0.035-3.836,0.093-5.749,0.303c-2.554,0.292-4.979,0.852-7.313,1.75
		c-0.839,0.07-1.667,0.164-2.506,0.269c-7.698,0.957-15.149,3.009-22.415,5.691c-7.126,2.624-14.018,6.018-20.654,9.715
		c-5.866,3.277-11.557,6.869-16.933,10.893C28.092,150.813,9.653,174.93,6.353,203.211c-1.375,11.885,0.466,24.13,5.47,34.986
		c2.529,5.482,5.982,10.426,9.854,15.033c1.889,2.264,3.907,4.386,6.053,6.403c1.037,0.991,2.227,1.819,3.311,2.717
		c0.642,0.536,1.283,1.085,1.983,1.528c0.292,0.186,0.618,0.338,0.968,0.467c2.507,4,7.499,6.32,11.965,7.51
		c6.134,1.645,12.677,1.248,18.485-1.305c2.962-1.297,5.842-3.5,7.207-6.497c1.504-3.312,1.236-6.929-0.594-10.065
		c-3.943-6.705-13.389-8.337-20.444-6.996c-2.181,0.42-4.222,1.539-5.54,3.346c-0.245,0.338-0.501,0.561-0.816,0.84
		c-0.49,0.421-0.758,0.91-1.144,1.399c-0.07,0.094-0.14,0.176-0.221,0.257c-0.023-1.679,0.221-3.381,0.513-5.003
		c0.455-2.496,1.015-4.897,1.796-7.313c1.54-4.711,3.732-9.282,6.345-13.517c2.6-4.209,5.563-7.79,9.364-11.16
		c1.62-1.447,3.032-2.473,5.108-3.721c1.13-0.688,2.263-1.354,3.499-1.842c1.469-0.584,3.254-0.922,4.466-1.983
		c2.134,6.228,4.817,12.269,7.744,18.158c7.674,15.5,16.736,30.253,25.844,44.935c2.601,4.211,5.224,8.281,8.338,12.141
		c1.995,2.461,4.071,4.898,6.216,7.254c-0.676,0.338-1.317,0.725-1.947,1.108c-2.833,1.808-5.249,4.198-7.347,6.811
		c-4.327,5.411-7.347,11.755-8.536,18.603c-1.307,7.439-0.77,15.242,1.248,22.518c0.711,2.579,1.644,5.074,2.763,7.499
		c-1.107-0.431-2.239-0.792-3.394-1.071c-3.58-0.852-7.498-0.701-10.951,0.594c-2.798,1.051-5.574,2.683-7.149,5.295
		c-1.807,3.01-0.536,6.647,2.042,8.724c4.746,3.802,11.616,3.521,17.342,3.055c1.445-0.116,2.879-0.186,4.325-0.396
		c1.354-0.198,3.092-0.408,4.257-1.177c1.236-0.793,2.275-1.761,2.893-2.905c0.699-0.012,1.446-0.383,1.714-1.119
		c2.355-6.438,5.504-12.455,10.017-17.645c4.596-5.283,10.124-9.995,16.526-12.888c6.321-2.855,13.097-3.895,19.779-3.941
		c8.49-0.07,16.991-0.537,25.494-0.431c4.466,0.046,8.92,0.84,12.875,2.623c4.257,1.936,7.791,4.49,11.104,7.581
		c3.463,3.219,6.473,6.916,9.014,10.903c1.317,2.041,2.531,4.258,3.348,6.544c0.84,2.321,1.096,4.734,1.854,7.056
		c0.362,1.107,1.517,1.41,2.367,0.897c0,0.012,0.012,0.012,0.012,0.022c1.376,1.459,3.487,1.983,5.376,2.426
		c3.953,0.91,8.082,1.155,12.129,1.307c3.767,0.141,7.92-0.478,11.418-1.912c2.717-1.108,4.816-2.671,5.982-5.447
		c1.12-2.658-0.198-5.923-2.111-7.825c-3.348-3.3-9.154-4.093-13.633-3.883c-2.146,0.104-4.104,0.595-6.029,1.295
		c0.676-1.179,1.318-2.379,1.912-3.604c3.395-7.045,5.318-14.87,4.922-22.707c-0.408-8.023-3.452-15.441-8.725-21.494
		c-2.005-2.297-4.348-4.279-6.809-6.064c-0.502-0.372-1.051-0.699-1.6-0.979c0.433-0.514,0.863-1.038,1.285-1.552
		c2.552-3.147,4.92-6.449,7.123-9.854c4.422-6.812,8.177-14.078,12.014-21.237c7.906-14.754,15.51-29.984,20.596-45.962
		c2.46-7.708,4.291-15.745,5.854-23.698c0.175-0.863,0.326-1.727,0.489-2.601c1.107-0.432,2.217-0.851,3.324-1.318
		c1.598-0.665,3.184-1.388,4.805-2.018c3.441-1.329,6.975-2.368,10.543-3.3c7.521-1.948,15.301-3.289,23.045-4.035
		c8.466-0.817,16.84-0.432,25.307,0.35c3.966,0.361,8,1.038,11.791,2.297c0.896,0.304,1.807,0.409,2.682,0.735
		c0.874,0.337,1.727,0.7,2.59,1.049c0.535,0.222,1.061,0.455,1.573,0.7c-2.402,1.843-3.581,5.983-4.197,8.548
		c-0.887,3.697-0.957,7.557-0.328,11.289c0.526,3.079,2.042,6.146,4.304,8.316c2.695,2.6,6.264,3.241,9.844,2.705
		c3.428-0.513,6.683-2.683,9.131-5.016c2.59-2.472,4.351-5.563,5.716-8.816C394.836,190.254,394.415,182.966,392.841,176.248
		L392.841,176.248z M207.842,96.374L207.842,96.374c2.415,2.869,4.571,6.146,6.776,9.295c2.228,3.183,4.234,6.787,4.07,10.787
		c-0.035,0.804,0.35,1.4,0.887,1.761c0.897,0.875,2.076,1.516,3.031,2.309c1.365,1.119,2.496,2.332,3.453,3.802
		c1.504,2.298,1.795,4.711,1.725,7.394c-0.07,2.542-0.629,5.259-1.619,7.604c-0.352,0.828-0.934,1.598-1.227,2.449
		c-0.221,0.245-0.36,0.571-0.36,0.957c0,0.91-0.14,1.796-0.129,2.706c0.013,1.014,0.211,1.994,0.386,2.985
		c0.36,1.924,0.641,3.872,0.828,5.82c0.338,3.743,0.268,7.522-0.725,11.161c-0.43,1.609-1.025,3.091-1.795,4.56
		c-0.326,0.63-0.699,1.225-1.084,1.819c-0.187,0.292-0.398,0.572-0.595,0.864c-0.142,0.198-0.27,0.384-0.409,0.571
		c0.199-0.256,0.164-0.221-0.093,0.117c-1.563,1.958-3.394,3.615-5.167,4.944c-0.257-1.843-0.77-3.697-1.224-5.47
		c0.326-0.198,0.583-0.513,0.652-0.944c0.665-3.802,0.466-7.733,0.269-11.558c-0.198-4.059-0.561-8.129-1.107-12.152
		c-1.098-7.907-2.928-15.709-4.934-23.43c-1.937-7.394-3.674-14.846-5.738-22.217c-1.038-3.696-2.193-7.371-3.51-10.998
		c-0.42-1.166-0.888-2.309-1.377-3.452C202.174,90.355,205.173,93.212,207.842,96.374L207.842,96.374z M213.229,180.05
		L213.229,180.05c-4.723,3.009-9.399,4.782-14.764,6.449c-3.045,0.945-6.145,1.761-9.259,2.415
		c-1.412,0.303-2.835,0.571-4.269,0.792c-0.116-0.046-0.257-0.093-0.385-0.116c-4.268-0.77-8.711-0.373-13.014-0.326
		c-3.803,0.035-7.581-0.105-11.349-0.513c-5.189-0.549-12.513-2.333-17.446-4.49c-2.917-1.283-5.68-2.846-8.233-4.735
		c-0.875-0.641-1.855-1.504-2.812-2.461c0.467-1.341,0.921-2.683,1.458-4c1.214-2.974,2.776-5.832,4.538-8.513
		c3.51-5.354,8.128-9.971,13.47-13.471c5.645-3.674,11.745-5.679,18.484-5.656c6.846,0.024,13.599,2.193,19.663,5.225
		c1.773,0.886,3.546,1.866,5.26,2.927c0.223,0.781,0.934,1.12,1.575,1.003c3.615,2.391,6.986,5.177,9.76,8.385
		c2.218,2.554,3.873,5.644,5.063,8.793c0.618,1.644,1.143,3.254,1.551,4.957C212.788,177.823,212.964,178.954,213.229,180.05
		L213.229,180.05z M165.917,82.11L165.917,82.11c4.047-0.431,8.129-0.431,12.188-0.198c1.131,0.059,2.262,0.14,3.393,0.245
		c-0.022,0.712-0.022,1.4-0.058,1.959c-0.14,2.087-0.466,4.316-1.294,6.251c-1.318,3.056-4.012,5.785-7.441,6.216
		c-3.743,0.455-6.951-2.239-8.781-5.248c-1.528-2.52-2.286-5.517-2.788-8.444C162.651,82.542,164.237,82.285,165.917,82.11
		L165.917,82.11z M155.747,84.652L155.747,84.652c-0.361,0.957-0.699,1.913-1.037,2.799c-0.968,2.496-1.727,5.062-2.414,7.638
		c-1.341,5.062-2.006,10.065-2.146,15.29c-0.012,0.477,0.666,0.443,0.723,0c0.642-4.945,2.135-9.937,3.755-14.648
		c0.816-2.392,1.773-4.724,2.74-7.067c0.736-1.785,1.738-3.522,2.52-5.307c0.269,3.371,0.899,6.683,2.52,9.716
		c2.028,3.789,5.924,6.624,10.297,6.682c4.397,0.046,8.141-3.266,10.182-6.881c1.05-1.854,1.599-3.907,1.924-5.983
		c1.097,1.901,2.029,3.872,2.974,5.843c1.072,2.216,1.878,4.513,2.764,6.811c0.897,2.344,1.981,4.711,2.531,7.172
		c0.104,0.42,0.699,0.233,0.64-0.175c-0.349-2.554-0.359-5.097-0.839-7.651c-0.478-2.507-1.317-4.968-2.227-7.359
		c-0.921-2.413-2.146-4.7-3.453-6.916c-0.28-0.478-0.629-1.143-1.037-1.831c0.886,0.164,1.773,0.362,2.647,0.595
		c2.157,0.572,4.222,1.376,6.17,2.379c0.139,0.397,0.292,0.782,0.441,1.178c0.689,1.773,1.308,3.569,1.925,5.365
		c1.214,3.487,2.229,7.032,3.161,10.589c1.937,7.406,3.405,14.917,5.05,22.381c1.681,7.638,3.567,15.23,4.652,22.985
		c0.538,3.826,0.829,7.697,1.074,11.546c0.104,1.691,0.116,3.405,0.15,5.108c-0.431-0.723-0.874-1.435-1.341-2.1
		c-3.219-4.688-7.861-8.537-12.665-11.674c0.128-2.974,0.012-6.029-0.128-8.945c-0.093-1.819-0.408-3.603-0.734-5.375
		c-0.351-1.925-0.945-3.791-1.294-5.703c-0.106-0.607-1.144-0.618-1.237,0c-0.269,1.761-0.432,3.289-0.198,5.061
		c0.234,1.831,0.513,3.663,0.652,5.504c0.188,2.52,0,5.074-0.057,7.604c-5.856-3.439-12.339-5.994-19.057-7.044
		c-6.799-1.049-13.411-0.198-19.65,2.717c-1.949,0.921-3.826,1.971-5.622,3.149c-0.862-4.886-0.559-9.948-0.046-14.857
		c0.07-0.724-0.991-0.77-1.201-0.164c-1.773,5.062-1.807,11.207-0.794,16.433c-4.011,2.938-7.557,6.507-10.542,10.507
		c-1.702,2.274-3.171,4.723-4.432,7.266c-0.011-0.035-0.011-0.059-0.011-0.093c-0.07-2.263-0.116-4.513-0.105-6.776
		c0.035-4.303,0.478-8.595,1.026-12.875c1.096-8.502,2.881-16.923,4.852-25.261c2.775-11.767,5.154-23.978,11.325-34.451
		C152.003,86.53,153.846,85.48,155.747,84.652L155.747,84.652z M131.653,119.243L131.653,119.243
		c1.959-10.193,6.566-20.374,13.995-27.628c-1.236,2.496-2.273,5.108-3.207,7.744c-2.333,6.612-3.79,13.481-5.563,20.257
		c-2.17,8.257-4.094,16.56-5.376,25.015c-1.307,8.561-1.738,17.039-1.353,25.692c0.046,1.015,0.105,1.959,0.361,2.939
		c0,0.012,0,0.012,0,0.012c-0.221,0.605-0.419,1.224-0.618,1.831c-0.501-0.583-0.968-1.167-1.365-1.727
		c-4.28-6.006-5.528-13.505-4.56-20.734c0.386-2.858,1.19-5.634,1.563-8.491c0.094-0.747-0.454-1.167-1.084-1.225
		c-0.093-0.222-0.199-0.455-0.292-0.677c-0.594-1.294-1.166-2.6-1.667-3.941c-1.073-2.799-1.271-5.493-0.281-8.339
		c1.261-3.686,4.456-7.313,7.791-9.47C130.743,120.549,131.478,120.165,131.653,119.243L131.653,119.243z M36.932,256.986
		L36.932,256.986c-0.315,0.327-0.665,0.688-0.979,1.072c-1.365-1.807-2.916-3.439-4.432-5.189c-0.886-1.015-1.726-2.006-2.542-2.974
		c0.955-0.466,1.877-1.038,2.53-1.272c2.589-0.955,5.458-0.792,8.129-1.281c0.046,0,0.093-0.012,0.14-0.035
		c0.011,0.14,0.023,0.268,0.046,0.408c0.245,1.982,0.747,3.884,1.259,5.809C39.533,254.304,38.063,255.82,36.932,256.986
		L36.932,256.986z M43.521,255.902L43.521,255.902c0.362-0.199,0.712-0.422,1.074-0.677c0.723-0.491,1.644-0.735,2.401-1.225
		c0.606-0.374,1.656-0.501,2.345-0.724c0.723-0.245,1.656-0.35,2.437-0.478c2.858-0.491,6.287,0.431,8.678,1.574
		c1.469,0.688,2.565,1.411,3.533,2.354c0,0,0.478,0.549,0.501,0.538c0.152,0.222,0.304,0.454,0.443,0.698
		c0.035,0.049,0.209,0.455,0.269,0.572c0.07,0.223,0.128,0.443,0.186,0.677c0.012,0.022,0.012,0.047,0.022,0.069
		c0,0.047,0,0.117,0,0.199c0.013,0.093-0.022,0.548-0.011,0.618c-0.047,0.198-0.094,0.384-0.152,0.571
		c-0.012,0.059-0.023,0.104-0.034,0.139c-0.036,0.048-0.058,0.105-0.094,0.175c-0.536,1.073-1.131,1.552-2.297,2.288
		c-0.548,0.348-1.12,0.651-1.704,0.932c-0.046,0.023-0.465,0.199-0.571,0.257c-0.233,0.082-0.466,0.175-0.711,0.257
		c-1.178,0.407-2.415,0.699-3.663,0.908c-0.07,0-0.629,0.083-0.665,0.095c-0.35,0.034-0.687,0.058-1.037,0.069
		c-0.688,0.047-1.388,0.047-2.076,0.047c-1.574-0.035-2.497-0.163-3.593-0.361c-1.363-0.256-2.705-0.643-4.022-1.108
		c-0.315-0.116-0.641-0.245-0.956-0.372c0.571,0.232-0.455-0.223-0.455-0.223c-0.607-0.291-1.213-0.595-1.819-0.91
		c-1.19-0.605-2.217-1.434-3.37-2.087c-0.048-0.023-0.094-0.058-0.141-0.082c0.443-0.442,0.862-0.909,1.307-1.294
		C40.628,258.27,42.494,257.313,43.521,255.902L43.521,255.902z M45.702,223.597L45.702,223.597
		c-2.962,5.026-4.968,10.415-5.75,16.212c-0.198,1.516-0.327,3.066-0.327,4.617c-0.116-0.022-0.244-0.035-0.384-0.035
		c-2.822,0.141-5.796,0.607-8.478,1.516c-1.248,0.432-2.321,1.19-3.405,1.925c-0.012,0.012-0.036,0.024-0.058,0.036
		c-0.701-0.889-1.388-1.762-2.03-2.66c-4.163-5.761-7.253-11.521-9.155-18.006c-0.478-1.656-0.863-3.336-1.189-5.027
		c-0.396-2.018-0.524-3.055-0.7-4.734c-0.361-3.383-0.408-6.799-0.245-10.205c0.187-3.662,0.49-5.726,1.225-9.306
		c0.257-1.248,0.548-2.484,0.876-3.721c0.594-0.023,1.189,0,1.771-0.011c2.415-0.07,4.793-0.549,7.207-0.571
		c4.432-0.047,8.992,1.271,13.004,3.078c3.965,1.785,7.534,4.257,10.8,7.103c1.679,1.469,3.3,2.984,4.757,4.665
		c0.631,0.746,1.189,1.539,1.715,2.354c0.092,0.152,0.186,0.305,0.279,0.467C51.696,214.827,48.384,219.072,45.702,223.597
		L45.702,223.597z M112.375,357.387L112.375,357.387c-1.773,0.56-3.732,0.466-5.867,0.537c-2.168,0.058-4.303,0.222-6.472,0.15
		c-2.111-0.081-4.595-0.396-6.205-1.165c-0.886-0.42-1.26-0.643-1.713-1.307c-0.07-0.129-0.118-0.21-0.141-0.256
		c0.046-0.118,0.127-0.34,0.175-0.408c0.222-0.386,0.91-0.935,1.609-1.389c1.05-0.664,1.727-0.933,2.566-1.225
		c2.577-0.873,5.248-0.815,7.873-0.128c1.353,0.35,2.636,0.885,3.883,1.505c1.667,0.84,3.103,1.935,5.015,1.632
		c0.022,0.022,0.046,0.059,0.058,0.081c0.35,0.454,0.712,0.91,1.073,1.342C113.623,357.025,112.97,357.201,112.375,357.387
		L112.375,357.387z M132.819,329.012L132.819,329.012c-6.998,6.11-12.759,13.972-15.383,22.882
		c-0.676-1.329-1.353-2.646-2.017-3.988c-1.516-3.009-2.635-6.123-3.463-9.389c-1.563-6.156-2.309-12.688-1.354-19.009
		c0.549-3.557,1.598-6.857,3.126-9.959c0.583,0.059,1.167,0.104,1.725,0.162c1.494,0.175,2.905,0.479,4.339,0.922
		c2.775,0.852,5.388,2.146,7.872,3.639c2.565,1.54,4.899,3.381,7.125,5.352c1.084,0.969,2.123,2.006,3.103,3.069
		c0.454,0.501,0.886,1.015,1.329,1.515C136.982,325.654,134.837,327.251,132.819,329.012L132.819,329.012z M148.015,319.647
		L148.015,319.647c-2.239,0.909-4.397,1.971-6.484,3.161c-0.303-0.525-0.687-0.99-1.061-1.471c-0.991-1.258-2.076-2.437-3.196-3.58
		c-2.263-2.309-4.875-4.291-7.603-6.028c-2.683-1.716-5.586-3.091-8.596-4.128c-1.539-0.537-3.09-0.875-4.699-1.086
		c-0.293-0.046-0.596-0.094-0.899-0.14c0.642-1.026,1.318-2.029,2.064-3.021c1.458-1.947,3.685-4.164,5.598-5.621
		c0.443-0.338,0.909-0.641,1.387-0.933c2.684,0.758,5.295,2.693,7.523,4.069c3.137,1.947,5.901,4.304,8.642,6.765
		c2.939,2.636,6.134,5.004,8.921,7.813c0.84,0.863,1.54,1.843,2.158,2.869C150.511,318.703,149.251,319.146,148.015,319.647
		L148.015,319.647z M160.645,298.656L160.645,298.656c0.035,0.104,0.082,0.221,0.116,0.326c-0.5-0.035-1.014-0.071-1.527-0.116
		c-2.123-0.199-4.28-0.304-6.391-0.678c-4.396-0.792-8.642-2.507-12.828-4.012c-3.172-1.131-6.403-2.099-9.494-3.452
		c-0.035-0.082-0.081-0.163-0.14-0.233c-0.152-0.407-0.385-0.792-0.665-1.142c-2.321-2.928-4.968-5.621-7.428-8.443
		c3.767,1.971,7.3,4.337,11.3,5.854c8.805,3.359,18.135,4.828,27.383,6.344C160.167,294.807,160.004,296.743,160.645,298.656
		L160.645,298.656z M200.19,316.966L200.19,316.966c-3.077-0.746-6.249-1.154-9.502-1.226c-4.281-0.104-8.561,0.094-12.841,0.234
		c-4.187,0.139-8.385,0.081-12.572,0.209c-3.439,0.105-6.846,0.501-10.181,1.26c-0.816-1.424-1.796-2.764-2.892-3.977
		c-2.822-3.137-6.449-5.668-9.692-8.35c-3.021-2.508-6.099-4.828-9.516-6.777c-1.82-1.025-3.779-2.273-5.843-3.055
		c0.222-0.129,0.432-0.256,0.653-0.396c0.666-0.082,1.306-0.361,1.807-0.816c2.753,1.295,5.656,2.273,8.479,3.371
		c4.502,1.773,8.922,3.672,13.704,4.582c2.286,0.433,4.618,0.514,6.938,0.619c1.295,0.07,2.927,0.257,4.385,0.058
		c3.348,3.464,8.841,4.874,13.482,4.502c2.834-0.222,5.972-1.003,8.666-2.45c1.632,0.421,3.487,0.083,5.12-0.116
		c2.473-0.303,4.945-0.56,7.429-0.793c4.746-0.466,9.457-1.248,14.029-2.623c4.303-1.282,8.524-3.091,12.676-4.841
		c0.584,0.572,1.424,0.828,2.403,0.433c1.073-0.444,1.982-0.828,2.869-1.575c0.269,0.152,0.536,0.314,0.804,0.49
		c0.141,0.093,0.281,0.199,0.42,0.291c0.035,0.023,0.07,0.06,0.129,0.105c0.35,0.292,0.7,0.572,1.061,0.863
		c-0.711-0.035-1.422-0.047-2.133,0.046c-1.867,0.245-3.639,0.712-5.423,1.306c-3.546,1.189-6.905,2.975-10.019,5.027
		c-3.066,2.029-5.947,4.351-8.571,6.915c-1.179,1.155-2.274,2.403-3.417,3.591C201.894,314.656,200.798,315.775,200.19,316.966
		L200.19,316.966z M167.946,291.508L167.946,291.508c1.388-0.841,2.646-1.365,3.662-2.684c0.023-0.035,0.047-0.07,0.059-0.104
		c0.805-0.151,1.633-0.257,2.448-0.327c2.579-0.211,5.202,0.094,7.687,0.84c2.286,0.688,4.514,1.947,5.691,4.082
		c1.248,2.25,0.221,4.596-1.481,6.215c-3.837,3.675-10.565,4.516-15.488,3.08c-2.751-0.805-5.515-2.811-6.332-5.68
		C163.491,294.457,166.162,292.59,167.946,291.508L167.946,291.508z M191.34,292.988L191.34,292.988
		c1.039,0.128,2.076,0.222,3.102,0.279c2.274,0.117,4.642-0.268,6.87-0.642c4.769-0.805,9.598-1.726,14.284-2.915
		c4.34-1.108,8.572-2.565,12.7-4.326c0.923-0.398,1.845-0.828,2.753-1.272c-0.047,0.058-0.092,0.116-0.139,0.176
		c-1.098,1.329-2.239,2.624-3.418,3.884c-1.212,1.295-2.426,2.459-3.311,3.965c-0.223,0.081-0.444,0.163-0.666,0.244
		c-2.135,0.781-4.326,1.436-6.461,2.264c-2.123,0.814-4.21,1.667-6.391,2.332c-4.176,1.283-8.502,2.006-12.852,2.449
		c-2.345,0.232-4.677,0.396-7.009,0.723c-0.14,0.023-0.28,0.035-0.432,0.059c0.176-0.281,0.338-0.561,0.49-0.852
		C191.981,297.128,192.016,294.947,191.34,292.988L191.34,292.988z M260.358,353.516L260.358,353.516
		C260.334,353.712,260.3,353.854,260.358,353.516L260.358,353.516z M260.404,353.294L260.404,353.294L260.404,353.294
		c-0.013,0.047-0.022,0.08-0.022,0.105c0,0,0,0,0,0.011C260.382,353.374,260.392,353.328,260.404,353.294L260.404,353.294z
		 M252.987,350.377L252.987,350.377c0.279,0.023,0.571,0.046,0.852,0.082c0.059,0,0.325,0.035,0.479,0.058
		c0.536,0.082,1.062,0.176,1.586,0.292c0.582,0.128,1.166,0.292,1.737,0.467c0.244,0.082,0.478,0.163,0.711,0.257
		c-0.467-0.175,0.478,0.245,0.595,0.303c0.245,0.13,0.479,0.269,0.711,0.42c0.024,0.013,0.048,0.035,0.07,0.048
		c0.023,0.011,0.047,0.034,0.07,0.059c0.104,0.092,0.199,0.186,0.292,0.291c-0.082-0.094,0.046,0.081,0.163,0.233
		c0.035,0.092,0.081,0.196,0.105,0.279c0.012,0.022,0.012,0.035,0.023,0.047c0,0.012,0,0.023,0,0.034c0,0.048,0,0.105-0.012,0.176
		c0,0.012-0.012,0.012-0.012,0.035c-0.024,0.034-0.07,0.093-0.117,0.152c-0.116,0.128-0.244,0.255-0.373,0.371l-0.012,0.012
		c-0.023,0.024-0.047,0.036-0.082,0.059c-0.209,0.141-0.432,0.268-0.641,0.397c-0.232,0.128-0.467,0.245-0.713,0.361
		c-0.046,0.022-0.08,0.035-0.115,0.059c-0.023,0.011-0.059,0.022-0.105,0.034c-0.607,0.246-1.236,0.432-1.866,0.618
		c-1.072,0.304-2.17,0.524-3.265,0.7c-0.176,0.034-0.35,0.059-0.514,0.082c-0.129,0.022-0.303,0.046-0.373,0.046
		c-0.477,0.059-0.969,0.105-1.445,0.152c-3.209,0.256-6.52,0.128-9.739,0.022c-1.715-0.059-3.44-0.141-5.154-0.269
		c0.222-0.176,0.432-0.36,0.652-0.547c1.026-0.876,1.971-1.912,2.857-2.975c1.832-0.607,3.661-1.213,5.493-1.809
		C247.505,350.063,250.247,350.156,252.987,350.377L252.987,350.377z M243.015,313.175L243.015,313.175
		c0.596,2.192,0.922,4.468,0.98,6.847c0.176,6.308-1.271,12.735-3.918,18.461c-1.457,3.171-3.313,6.134-5.283,9.015
		c-0.49,0.734-1.003,1.446-1.527,2.146c-0.175-0.806-0.386-1.574-0.606-2.309c-1.12-3.711-3.3-7.15-5.47-10.322
		c-3.254-4.769-7.23-9.027-11.803-12.549c0.992-0.933,2.054-1.819,3.137-2.636c2.463-1.854,5.063-3.638,7.813-5.038
		c3.232-1.655,6.754-2.706,10.334-3.265c1.808-0.281,3.673-0.351,5.493-0.373C242.456,313.142,242.736,313.152,243.015,313.175
		L243.015,313.175z M237.605,302.469L237.605,302.469c1.737,2.285,3.114,4.619,4.139,7.033c-1.551,0.023-3.124,0.209-4.618,0.407
		c-4.209,0.584-8.233,1.937-12.013,3.86c-3.124,1.598-5.981,3.768-8.595,6.11c-0.874,0.793-2.074,1.925-3.031,3.196
		c-0.584-0.408-1.168-0.805-1.772-1.189c-2.497-1.61-5.121-2.857-7.839-3.814c0.549-0.816,1.297-1.504,1.983-2.191
		c2.507-2.496,4.945-4.991,7.769-7.148c2.973-2.275,6.203-4.246,9.526-5.937c3.231-1.645,6.683-2.799,10.054-4.105
		c0.223-0.082,0.455-0.163,0.677-0.233C235.296,299.764,236.647,301.222,237.605,302.469L237.605,302.469z M325.235,167.292
		L325.235,167.292c-8.362,0.676-16.573,2.227-24.643,4.489c-3.686,1.039-7.254,2.356-10.719,3.954
		c-2.459,1.143-4.968,2.601-7.055,4.443c0.116-0.758,0.232-1.515,0.349-2.274c0.491-3.137,0.876-6.368,0.27-9.517
		c-0.257-1.399-2.682-1.085-2.497,0.338c0.42,3.196-0.127,6.554-0.814,9.668c-0.77,3.522-1.786,6.985-2.765,10.438
		c-2.331,8.152-4.805,16.257-7.813,24.188c-2.939,7.756-6.613,15.289-10.309,22.707c-3.709,7.44-7.663,14.775-11.664,22.076
		c-3.428,6.227-6.811,12.503-10.74,18.426c-0.105,0.163-0.223,0.326-0.327,0.49c-1.294,0.664-2.542,1.447-3.767,2.182
		c-1.901,1.131-3.872,2.133-5.901,3.043c-4.081,1.818-8.362,3.184-12.688,4.304c-4.537,1.179-9.142,2.192-13.738,3.136
		c-2.273,0.469-4.57,0.713-6.903,0.666c-1.259-0.022-2.507-0.07-3.686,0.222c-1.376-1.796-3.37-3.231-5.528-4.104
		c-3.103-1.249-6.437-1.656-9.761-1.365c-2.287,0.186-4.433,0.828-6.497,1.843c-1.061,0.514-2.239,1.247-3.102,2.181
		c-0.549,0.396-1.05,0.816-1.517,1.225c-4.338-0.666-8.701-1.189-13.015-1.994c-4.792-0.897-9.505-2.123-14.204-3.416
		c-4.583-1.249-8.619-3.5-12.852-5.599c-1.26-0.63-2.706-1.131-4.06-1.751c-1.423-1.841-2.775-3.73-4.012-5.714
		c-4.583-7.334-9.236-14.624-13.808-21.972c-8.864-14.252-18.006-28.631-24-44.375c-1.552-4.069-2.998-8.151-4.397-12.28
		c-0.653-1.913-1.329-3.826-1.889-5.784c-0.584-2.053-1.365-4.328-1.329-6.473c0.011-0.968-1.377-0.921-1.482,0
		c-0.21,1.89-0.373,3.569-0.164,5.47c0.222,1.994,0.736,3.942,1.237,5.878c0.898,3.475,1.76,6.951,2.729,10.402
		c-1.609-0.081-2.974,0.49-4.513,1.096c-1.69,0.654-3.347,1.4-4.863,2.392c-1.167,0.747-2.297,1.516-3.406,2.321
		c-0.606-0.863-1.353-1.669-1.948-2.355c-1.644-1.902-3.58-3.558-5.504-5.167c-3.895-3.23-8.082-5.878-12.77-7.825
		c-4.7-1.971-10.018-3.008-15.114-2.694c-2.391,0.141-4.724,0.642-7.103,0.934c0.304-0.968,0.619-1.936,0.946-2.893
		c4.245-12.175,12.105-23.802,21.074-33.354c9.493-10.099,19.639-17.423,31.615-24.339c9.459-5.47,18.975-9.878,29.319-13.143
		c4.957-1.575,10.112-2.881,15.277-3.569c2.602-0.338,5.202-0.607,7.813-0.77c1.284-0.082,2.567-0.105,3.837-0.093
		c0.607,0,1.189-0.012,1.773-0.035c-0.292,1.889-0.442,3.779-0.408,5.656c-1.667,0.629-3.09,1.808-4.442,3.056
		c-1.996,1.843-3.721,4.35-4.77,6.846c-1.307,3.125-1.436,6.367-0.642,9.644c0.373,1.563,1.002,3.032,1.633,4.501
		c0.501,1.155,0.922,2.531,1.795,3.464c-1.119,2.565-1.83,5.376-2.425,8.059c-0.84,3.825-1.072,7.697-0.512,11.569
		c1.038,7.254,5.201,13.657,10.659,18.426c10.298,8.968,24.585,12.059,37.903,12.351c2.74,0.07,5.504,0.034,8.245-0.128
		c0.361-0.023,0.735-0.046,1.12-0.07c0.979,0.209,1.983,0.338,3.056,0.396c2.158,0.105,4.292-0.035,6.437-0.222
		c3.755-0.338,7.406-1.213,11.044-2.169c6.11-1.609,12.129-3.849,17.645-6.951c5.505-3.09,10.66-7.371,13.773-12.922
		c4.07-7.266,3.953-15.383,2.18-23.29c-0.348-1.54-0.756-3.056-1.188-4.572c-0.27-0.92-0.642-1.714-1.062-2.484
		c0.677-0.665,1.108-1.645,1.48-2.461c0.618-1.364,1.108-2.775,1.446-4.233c0.643-2.752,1.003-5.831,0.443-8.618
		c-0.56-2.881-2.448-5.166-4.559-7.115c-1.109-1.026-2.287-2.005-3.488-2.915c-0.396-0.303-0.817-0.629-1.26-0.933
		c0.164-0.222,0.292-0.479,0.361-0.781c0.863-3.721,0.197-7.522-1.225-11.08c2.426-0.187,4.852-0.524,7.242-0.782
		c3.896-0.418,7.803-0.641,11.721-0.851c7.953-0.442,15.955-0.419,23.908-0.081c14.836,0.653,29.238,2.577,43.477,6.974
		c6.006,1.866,11.86,4.07,17.553,6.625c0.034,0.058,0.068,0.117,0.104,0.186c1.226,2.31,2.286,4.711,3.208,7.173
		c1.808,4.816,3.079,9.924,3.593,15.044c0.513,5.027,0.209,10.111-1.062,14.998c-1.132,4.315-3.512,8.023-5.424,11.965
		C325.853,167.245,325.55,167.256,325.235,167.292L325.235,167.292z M364.864,172.971L364.864,172.971
		c-0.561-0.314-1.12-0.629-1.703-0.874c-3.814-1.575-7.697-2.729-11.755-3.546c-6.858-1.365-13.764-1.807-20.713-1.574
		c4.968-7.826,6.671-17.504,5.621-26.718c-0.617-5.493-2.1-10.787-4.222-15.884c-0.643-1.539-1.341-3.056-2.1-4.537
		c6.109,2.962,12.047,6.32,17.82,10.111c6.158,4.023,11.406,8.094,16.84,13.05c2.718,2.483,5.354,4.98,7.732,7.802
		c1.236,1.47,2.402,3.067,3.521,4.724c-0.291,1.516-0.513,3.032-1.026,4.524c-0.699,2.029-1.749,3.931-2.95,5.704
		c-1.154,1.691-2.683,3.09-4.245,4.42C366.927,170.825,365.609,171.852,364.864,172.971L364.864,172.971z M367.266,174.301
		L367.266,174.301c0.069-0.047,0.14-0.094,0.21-0.128c1.015-0.606,2.019-1.178,2.986-1.866c1.958-1.399,3.51-3.079,4.898-5.026
		c1.363-1.924,2.787-4.455,3.544-7.056c1.179,1.982,2.24,4.047,3.255,6.123c0.572,1.154,1.095,2.332,1.655,3.499
		c-0.233,0.432-0.489,0.863-0.769,1.283c-1.003,1.493-2.427,2.81-3.85,3.884c-1.389,1.038-2.798,1.773-4.432,2.344
		c-0.641,0.209-1.259,0.489-1.877,0.781c-1.295-1.213-2.671-2.075-4.199-3.008C368.222,174.837,367.745,174.569,367.266,174.301
		L367.266,174.301z M386.986,187.036L386.986,187.036c-0.022,0.735-0.081,1.47-0.163,2.205c0.036-0.443-0.128,0.583-0.128,0.606
		c-0.093,0.478-0.221,0.957-0.338,1.423c-0.187,0.723-0.42,1.435-0.677,2.146c-0.327,0.921-0.314,0.852-0.664,1.575
		c-0.326,0.688-0.689,1.353-1.074,2.017c-0.197,0.327-0.408,0.642-0.606,0.956c-0.068,0.105-0.664,0.921-0.604,0.863
		c-0.456,0.572-0.957,1.097-1.459,1.609c-0.268,0.257-0.548,0.513-0.828,0.758c-0.104,0.094-0.174,0.152-0.222,0.199
		c-0.059,0.034-0.116,0.08-0.222,0.151c-1.457,1.073-2.426,1.493-3.918,1.912c-0.012,0-0.816,0.128-0.734,0.141
		c-0.28,0.022-0.549,0.011-0.828,0.011c-0.059,0-0.118,0-0.164,0c-0.047-0.011-0.104-0.023-0.175-0.035
		c-0.314-0.069-0.618-0.162-0.91-0.268c0.816,0.279-0.967-0.723-0.652-0.408c-0.211-0.176-0.397-0.35-0.596-0.536
		c-0.081-0.083-0.617-0.746-0.595-0.677c-1.585-2.263-1.889-4.595-1.935-7.382c-0.07-3.313,0.676-6.543,2.169-9.563
		c0.594-1.202,0.921-2.146,0.91-3.336c0.21-0.07,0.396-0.198,0.559-0.35c0.164-0.036,0.327-0.07,0.479-0.105
		c1.061-0.302,2.146-0.501,3.194-0.828c1.878-0.583,3.559-1.609,5.132-2.764c1.166-0.84,2.448-1.948,3.533-3.208
		c0.677,2.695,1.166,5.423,1.389,8.023C386.986,183.793,387.045,185.415,386.986,187.036L386.986,187.036z"/>
	<path fill="#321A1B" d="M126.568,223.34c-2.262-1.096-5.329-0.734-7.79-0.898c-2.974-0.186-5.901-0.605-8.83-1.189
		c-5.667-1.142-11.149-3.147-15.253-7.347c-0.49-0.513-1.26,0.257-0.77,0.782c4.034,4.35,9.353,7.113,15.009,8.711
		c2.928,0.828,6.029,1.189,9.05,1.48c2.636,0.246,6.11,0.864,8.583-0.326C127.023,224.332,127.023,223.563,126.568,223.34
		L126.568,223.34z"/>
	<path fill="#321A1B" d="M250.572,214.896c-2.401,1.48-5.106,2.59-7.743,3.58c-2.857,1.063-5.831,1.844-8.84,2.392
		c-2.857,0.513-5.797,0.735-8.7,0.759c-1.47,0.011-2.927-0.105-4.396-0.176c-1.342-0.047-2.742-0.338-4.036,0.082
		c-0.548,0.186-0.874,0.967-0.362,1.388c2.089,1.761,5.797,1.608,8.386,1.645c3.184,0.034,6.333-0.315,9.446-0.922
		c3.113-0.618,6.136-1.551,9.051-2.821c2.926-1.272,5.423-3.01,7.859-5.063C251.728,215.352,251.098,214.57,250.572,214.896
		L250.572,214.896z"/>
	<path fill="#321A1B" d="M180.903,258.339c-1.517-1.108-4.758-1.469-6.193-0.175c-0.745,0.676-0.432,1.784,0.303,2.297
		c1.062,0.759,2.59,0.315,3.814,0.678c1.085,0.338,0.897,1.889,0.338,2.601c-1.528,1.971-4.665,2.273-6.612,0.874
		c-1.645-1.166-1.505-3.755-1.12-5.469c0.466-2.123,1.727-4.62,3.627-5.797c0.77-0.479,0.255-1.889-0.641-1.527
		c-3.23,1.305-5.12,4.314-5.739,7.65c-0.606,3.265,0.246,7.148,3.545,8.595c3.802,1.69,8.887-0.058,10.472-3.978
		C183.562,261.979,182.652,259.622,180.903,258.339L180.903,258.339z"/>
</g>
</svg>
