<?xml version="1.0" encoding="utf-8"?>
<!-- Generator: Adobe Illustrator 16.0.0, SVG Export Plug-In . SVG Version: 6.00 Build 0)  -->
<!DOCTYPE svg PUBLIC "-//W3C//DTD SVG 1.1//EN" "http://www.w3.org/Graphics/SVG/1.1/DTD/svg11.dtd">
<svg version="1.1" id="Layer_1" xmlns="http://www.w3.org/2000/svg" xmlns:xlink="http://www.w3.org/1999/xlink" x="0px" y="0px"
	 width="400px" height="400px" viewBox="0 0 400 400" enable-background="new 0 0 400 400" xml:space="preserve">
<g>
	<path fill-rule="evenodd" clip-rule="evenodd" fill="#E4D0AA" d="M199.998,386.813c79.781,0,144.843-9.102,144.843-20.264
		s-65.062-20.263-144.843-20.263c-79.769,0-144.831,9.101-144.831,20.263S120.229,386.813,199.998,386.813L199.998,386.813z"/>
	<path fill-rule="evenodd" clip-rule="evenodd" fill="#321A1B" d="M392.084,121.834c-0.851-15.126-7.828-29.092-17.175-40.749
		c-5.088-6.347-11.04-11.867-17.474-16.83c-3.259-2.531-6.654-4.83-10.198-6.928c-1.729-1.025-3.507-1.964-5.299-2.877
		c-0.629-0.321-1.282-0.63-1.938-0.914c-0.283-0.16-0.579-0.32-0.89-0.481c-1.839-0.901-3.679-1.778-5.581-2.531
		c-3.852-1.532-7.654-2.605-11.778-3.125c-6.915-0.864-14.189-0.247-20.449,2.964c-6.828,3.506-11.533,10.756-10.335,18.511
		c1.11,7.112,8.347,12.113,14.99,13.261c4.507,0.765,9.373,0.11,13.632-1.432c3.26-1.186,7.385-3.31,9.57-6.433
		c0.63,1.148,1.247,2.296,1.777,3.495c1.532,3.506,2.471,7.322,2.359,11.149c-0.05,1.791-0.396,3.495-0.987,5.186
		c-0.013,0.038-0.235,0.605-0.26,0.667c-0.111,0.234-0.222,0.481-0.334,0.716c-0.358,0.716-0.754,1.419-1.172,2.099
		c-0.174,0.284-0.372,0.568-0.557,0.851c-0.037,0.05-0.296,0.408-0.383,0.52c-0.356,0.457-0.752,0.889-1.148,1.321
		c-0.457,0.494-0.949,0.951-1.445,1.395c-0.259,0.235-0.518,0.445-0.778,0.667c-0.049,0.038-0.086,0.063-0.11,0.087
		c-0.147,0.111-0.283,0.21-0.433,0.321c-1.11,0.791-2.296,1.483-3.506,2.099c-0.31,0.16-0.618,0.31-0.927,0.458
		c-0.062,0.023-0.395,0.172-0.555,0.247c-0.666,0.258-1.346,0.505-2.026,0.741c-1.334,0.432-2.703,0.777-4.087,1.049
		c-0.346,0.075-0.691,0.125-1.036,0.186c-0.1,0.024-0.532,0.086-0.667,0.099c-0.692,0.086-1.385,0.161-2.074,0.222
		c-1.396,0.111-2.804,0.123-4.212,0.086c-0.691-0.025-1.395-0.074-2.086-0.147c-0.21-0.012-0.421-0.038-0.63-0.062
		c0.037,0-0.827-0.124-0.988-0.148c-3.321-0.568-6.531-1.741-9.656-3.012c-1.753-0.717-4.063-1.753-6.051-2.606
		c-0.185-0.074-0.383-0.16-0.568-0.235c0.186-2.321,0.297-4.618,0.112-6.939c-0.358-4.717-0.977-9.422-1.804-14.089
		c-0.765-4.323-1.691-8.631-2.481-12.966c-0.778-4.248-1.629-8.47-2.827-12.62c-2.311-7.976-6.372-14.903-12.102-20.893
		c-5.285-5.519-11.817-10.533-18.807-13.669c-5.768-2.592-11.805-4.038-18.114-4.334c-1.224-0.049-2.481,0-3.729,0.112
		c-2.629-0.593-5.939,0.196-8.272,0.58c-4.014,0.654-7.99,1.803-11.817,3.161c-6.371,2.26-12.619,5.001-18.114,8.989
		c-5.446,3.952-10.139,8.829-13.572,14.633c-1.852,3.124-3.235,6.507-4.111,10.026c-0.543,2.125-0.815,4.36-0.865,6.557
		c-0.024,1.075,0.013,2.372,0.272,3.569c-0.692,0.926-1.272,1.864-1.742,2.593c-2.037,3.162-3.58,6.595-4.383,10.273
		c-0.815,3.779-0.877,7.792,0.457,11.447c0.271,0.741,0.63,1.47,1.062,2.161c-1.173-0.296-2.383-0.506-3.568-0.704
		c-4.075-0.654-8.273-0.555-12.386-0.346c-3.914,0.21-7.791,0.729-11.681,1c-4.334,0.309-8.655,0.679-12.978,1.124
		c-17.559,1.839-34.994,5.224-51.208,12.447c-12.94,5.779-24.98,13.694-35.476,23.227c-10.224,9.273-19.066,20.522-24.585,33.229
		c-5.68,13.101-7.545,27.265-4.877,41.341c2.877,15.151,11.137,28.92,21.189,40.402c5.445,6.225,11.582,11.817,17.966,17.067
		c3.322,2.729,6.729,5.346,10.162,7.938c1.705,1.272,3.409,2.53,5.125,3.791c1.766,1.285,3.568,2.197,5.569,3.051
		c0.568,0.246,1.148,0.394,1.717,0.419c3.605,1.568,7.384,2.482,11.297,2.902c7.879,0.864,17.338-2.26,22.512-8.396
		c2.543-3.025,4.136-6.718,4.124-10.706c0-4.148-2.05-8.025-4.952-10.89c-2.716-2.681-6.359-4.522-10.088-5.25
		c-4.186-0.814-7.989-0.087-11.706,1.951c-3.964,2.16-7.125,6.051-9.718,9.755c-0.679-1.37-1.42-2.716-2.026-4.124
		c-1.124-2.581-1.864-5.433-2.494-8.175c-1.197-5.235-1.432-11.225-0.592-16.054c0.235-1.307,0.543-2.604,0.925-3.877
		c0.186-0.627,0.408-1.26,0.63-1.875c0.086-0.261,0.185-0.508,0.284-0.754c-0.037,0.11,0.333-0.753,0.371-0.84
		c0.555-1.197,1.21-2.346,1.914-3.456c0.309-0.482,0.63-0.951,0.975-1.408c0.013-0.013,0.371-0.472,0.408-0.519
		c0.284-0.346,0.556-0.692,0.852-1.039c0.889-1.036,1.876-1.988,2.915-2.889c0.197-0.173,0.395-0.334,0.605-0.493
		c0.012-0.012,0.518-0.408,0.555-0.432c0.68-0.495,1.396-0.964,2.124-1.396c3.087-1.89,6.569-3.248,10.175-3.902
		c0.605-0.11,1.21-0.186,1.803-0.332c2.038,6.79,4.433,13.482,6.866,20.138c2.864,7.843,6.136,15.473,10.1,22.832
		c3.829,7.113,8.373,13.856,13.077,20.4c4.038,5.63,8.323,11.05,12.175,16.806c1.951,2.901,3.89,5.815,6.001,8.605
		c1.408,1.878,2.89,4.051,4.742,5.631c-0.025,0.198-0.038,0.408-0.063,0.63c0.05-0.407-0.172,0.766-0.21,0.903
		c-0.147,0.604-0.308,1.22-0.456,1.826c-0.593,2.358-1.42,3.938-2.742,6.136c-0.629,1.05-1.333,2.088-2.037,3.088
		c-0.692,0.975-0.889,1.21-1.815,2.284c-1.42,1.631-3.025,3.113-4.42,4.075c-2.149,1.494-4.076,2.346-6.237,3.1
		c-2.469,0.864-5.013,1.382-7.582,1.827c-0.926,0.148-1.865,0.261-3.223,0.371c-1.247,0.112-2.506,0.134-3.753,0.197
		c-1.42,0.074-2.828,0.174-4.248,0.197c-1.383,0.038-2.729-0.1-4,0.334c-0.272-0.147-0.568-0.285-0.89-0.395
		c-1.396-0.507-3.013-0.581-4.482-0.618c-3.137-0.075-6.211,0.643-9.076,1.876c-5.248,2.273-9.792,6.656-10.323,12.571
		c-0.284,3.136,1.79,5.667,4.532,6.815c3.259,1.359,7.075,0.878,10.323-0.247c3.444-1.173,6.544-3.346,9.26-5.74
		c0.692-0.605,1.358-1.272,1.976-2.002c0.395,0.988,0.828,1.939,1.259,2.854c1.68,3.506,3.865,6.642,6.989,8.999
		c6.755,5.089,15.708,7.361,24.054,7.374c8.41,0.023,16.646-2.371,24.314-5.631c7.52-3.198,14.917-7.039,21.362-12.09
		c1.507-1.185,2.902-2.432,4.187-3.853c0.406-0.433,0.765-0.902,1.11-1.371c1.05-0.232,2.113-0.554,3.137-0.813
		c1.84-0.471,4.124-0.841,5.791-1.063c4.333-0.579,8.718-0.962,13.076-1.258c8.94-0.619,17.979-0.471,26.883,0.592
		c7.531,0.889,15.016,2.692,22.115,5.371c1.567,0.594,2.383,0.925,3.729,1.531c1.569,0.692,3.1,1.445,4.619,2.248
		c2.741,1.443,5.667,3.247,7.965,5.05c2.099,1.654,3.975,3.544,5.74,5.556c1.521,1.718,2.742,3.928,4.002,5.965
		c0.321,0.52,0.802,0.889,1.346,1.075c0,0.408,0.099,0.813,0.309,1.233c1.161,2.371,4.21,2.729,6.532,2.952
		c2.371,0.222,4.767,0.321,7.162,0.246c3.766-0.123,7.57-0.69,11.262-1.494c5.965-1.297,12.73-4.493,13.596-11.224
		c0.84-6.669-6.657-9.273-11.88-9.966c-6.716-0.888-13.892,1.827-19.437,5.62c0.026-0.111,0.063-0.223,0.1-0.334
		c1.037-3.729,1.247-7.596,0.975-11.447c-0.518-6.988-3.024-14.016-6.951-19.806c-4.112-6.039-9.607-10.533-15.621-14.583
		c-3.148-2.11-6.432-3.879-9.952-5.286c-1.063-0.419-2.284-0.852-3.494-1.098c0.346-0.396,0.68-0.792,1.014-1.199
		c1.579-1.913,3.11-3.877,4.629-5.841c2.718-3.531,5.323-7.136,7.854-10.791c5.037-7.286,9.458-15.053,13.582-22.868
		c4.162-7.867,7.916-15.941,11.311-24.167c3.112-7.556,6.348-15.138,8.743-22.954c0.777,0.284,1.581,0.48,2.383,0.631
		c2.309,0.407,4.644,0.555,6.978,0.442c4.371-0.196,8.68-1.233,12.805-2.643c7.261-2.481,14.273-5.988,20.831-9.977
		c12.139-7.384,22.992-17.078,31.03-28.845C388.369,149.469,392.876,135.712,392.084,121.834L392.084,121.834z"/>
	<path fill-rule="evenodd" clip-rule="evenodd" fill="#F9BF9B" d="M226.83,252.688c-1.814-1.162-5.248-1.125-6.322,0.975
		c-0.433,0.841-0.036,1.717,0.827,2.038c1.187,0.433,2.471-0.31,3.582,0.26c0.9,0.456,0.32,1.643-0.039,2.271
		c-1.258,2.197-4.024,2.518-6.26,1.877c-2.419-0.68-3.938-2.643-3.259-5.124c0.666-2.47,2.926-5.064,4.901-6.594
		c0.654-0.508-0.062-1.483-0.753-1.31c-4.051,1.037-7.52,4.531-7.928,8.791c-0.432,4.605,3.655,7.792,7.865,8.287
		c4.236,0.493,8.706-1.891,9.632-6.274C229.522,255.786,228.608,253.811,226.83,252.688L226.83,252.688z"/>
	<path fill-rule="evenodd" clip-rule="evenodd" fill="#F9BF9B" d="M291.165,205.826c-2.606,1.16-5.496,1.802-8.287,2.396
		c-2.79,0.592-5.618,1.012-8.47,1.147c-2.729,0.137-5.471,0.024-8.188-0.283c-1.506-0.173-3-0.372-4.494-0.543
		c-1.396-0.161-2.988-0.594-4.347-0.161c-0.668,0.221-0.853,0.987-0.396,1.508c0.926,1.049,2.494,1.417,3.791,1.839
		c1.593,0.507,3.297,0.853,4.951,1.062c3.051,0.37,6.1,0.482,9.163,0.234c3-0.247,5.977-0.789,8.828-1.729
		c2.977-0.962,5.655-2.418,8.471-3.729C293.374,207.022,292.337,205.294,291.165,205.826L291.165,205.826z"/>
	<path fill-rule="evenodd" clip-rule="evenodd" fill="#F9BF9B" d="M172.475,208.048c-2.445-0.086-4.878,0.322-7.286,0.742
		c-2.767,0.479-5.569,0.789-8.372,0.961c-5.581,0.36-11.237,0.089-16.67-1.222c-3.815-0.925-7.644-2.531-11.175-4.198
		c-3.384-1.606-7.421-3.84-9.014-7.407c-0.371-0.853-1.791-0.248-1.482,0.629c2.828,8.161,12.682,10.867,19.979,13.521
		c2.643,0.952,5.667,1.26,8.446,1.555c2.963,0.31,5.939,0.335,8.915,0.211c2.938-0.11,5.854-0.444,8.755-0.876
		c2.877-0.421,5.742-1.001,8.298-2.457C173.561,209.098,173.24,208.073,172.475,208.048L172.475,208.048z"/>
	<path fill-rule="evenodd" clip-rule="evenodd" fill="#4C62AB" d="M281.508,313.637L281.508,313.637
		c3.248,5.138,5.051,10.236,5.976,16.423c0.149,0.914,0.111,0.619,0.21,1.556c0.075,0.729,0.124,1.471,0.174,2.211
		c0.099,1.853-0.024,3.68-0.16,5.52c-0.124,1.643-0.494,3.234-0.742,4.854c-2.173-3.272-5.234-6.112-8.124-8.385
		c-5.421-4.273-11.483-7.446-17.843-10.089c-3.581-1.493-7.261-2.715-11.003-3.703c2.334-5.138,4.891-10.324,8.73-14.46
		c1.778-1.914,4.088-3.26,6.496-4.224c1.469-0.569,3.432-0.901,5.075-1.592C274.618,305.24,278.631,309.106,281.508,313.637
		L281.508,313.637z M208.691,26.988L208.691,26.988c1.507-0.568,3.024-1.125,4.557-1.656c-0.173,1.137-0.311,2.261-0.495,3.397
		c-0.395,2.407-0.753,4.804-1,7.223c-0.271,2.568-0.555,5.125-0.777,7.692c-0.111,1.285-0.209,2.569-0.272,3.853
		c-0.086,1.531,0.075,2.556,0.581,4c0.198,0.568,0.951,0.568,1.148,0c0.444-1.234,0.715-2.136,0.766-3.458
		c0.062-1.284,0.147-2.568,0.259-3.84c0.197-2.568,0.494-5.137,0.767-7.693c0.271-2.568,0.592-5.112,0.975-7.668
		c0.185-1.259,0.531-2.853,0.494-4.322c0.321-0.111,0.642-0.21,0.963-0.321c0.42,1.482,0.777,2.976,1.271,4.446
		c0.766,2.234,1.618,4.433,2.668,6.544c2.123,4.273,5.594,8.001,10.336,9.199c4.495,1.136,8.902-0.876,11.854-4.248
		c1.852-2.124,2.964-4.654,3.976-7.26c0.445-1.136,0.827-2.297,1.21-3.446c0.901,1.716,1.568,3.581,2.323,5.384
		c2.209,5.347,4.642,10.595,6.419,16.114c0.224,0.705,1.335,0.408,1.125-0.309c-0.927-3.185-1.421-6.421-2.261-9.62
		c-0.729-2.716-1.642-5.37-2.419-8.075c-0.075-0.259-0.161-0.531-0.235-0.79c0.999,0.741,1.964,1.494,2.901,2.272
		c2.161,1.802,4.126,3.654,5.903,5.605c1.506,3.655,2.803,7.396,3.84,11.213c1.915,6.964,3.186,14.064,4.532,21.164
		c1.482,7.916,2.605,15.904,3.074,23.943c0.223,3.989,0.234,7.99,0.074,11.979c-0.074,2-0.247,4-0.445,6
		c-0.135,1.346-0.357,2.704-0.396,4.075c-0.147,0.185-0.283,0.369-0.433,0.555c-0.048-0.752-0.109-1.494-0.171-2.198
		c-0.321-3.791-1.137-7.582-2.606-11.101c-1.58-3.778-3.729-7.285-6.322-10.422c-0.049-0.444-0.148-0.852-0.198-1.099
		c-0.419-1.79-0.716-3.531-0.876-5.371c-0.148-1.778-0.233-3.582-0.568-5.347c-0.196-1.025-0.494-2.037-0.777-3.038
		c-0.283-1.049-0.877-1.938-1.235-2.952c-0.308-0.901-1.643-0.765-1.666,0.223c-0.013,0.877-0.111,1.717-0.074,2.606
		c0.036,0.975,0.396,1.999,0.581,2.963c0.332,1.815,0.407,3.705,0.566,5.544c0.063,0.728,0.137,1.457,0.223,2.186
		c-0.987-0.926-2.025-1.816-3.1-2.655c-5.545-4.334-12.063-7.446-19.09-8.298c-7.175-0.877-14.101,0.951-20.164,4.804
		c-1.742,1.111-3.42,2.334-5.026,3.617c-0.061-0.703-0.148-1.357-0.173-1.814c-0.086-2.347,0.013-4.729,0.234-7.064
		c0.05-0.505-0.728-0.84-1.05-0.431c-1.506,1.876-1.493,4.297-1.481,6.618c0,1.311,0.073,2.619,0.124,3.928
		c0,0.209,0.013,0.457,0.038,0.716c-4.978,4.409-9.274,9.595-13.078,15.041c-2.865,4.111-5.321,8.532-7.618,12.977
		c-0.568,1.111-1.099,2.26-1.618,3.396c-0.013-0.506-0.024-1.014-0.038-1.531c-0.061-2.174-0.024-4.347,0.05-6.52
		c0.137-4.569,0.506-9.112,0.865-13.669c0.703-8.916,1.321-17.793,3.025-26.598c1.667-8.655,3.864-17.299,6.519-25.708
		c2.038-6.434,4.458-12.719,6.989-18.955C205.728,28.149,207.209,27.556,208.691,26.988L208.691,26.988z M38.831,239.116
		L38.831,239.116c-7.322-7.769-13.57-16.646-17.682-26.488c1.715,1.038,3.47,2.027,5.322,2.891c4.581,2.149,9.396,2.952,14.41,3.322
		c5.099,0.382,10.434,0.531,15.533,0.099c1.902-0.147,3.754-0.569,5.545-1.235c-0.038,0.1-0.075,0.21-0.111,0.31
		c-2.803,9.285-1.556,19.251,2.248,28.03c-2.223,1.197-3.829,3.666-4.915,5.827c-0.666,1.322-1.136,2.706-1.494,4.138
		c-0.013,0.024-0.013,0.062-0.025,0.088c-0.705-0.558-1.42-1.138-2.187-1.743C49.611,249.623,43.992,244.599,38.831,239.116
		L38.831,239.116z M366.747,81.554L366.747,81.554c4.334,5.372,7.94,11.434,10.768,17.745c0.593,1.321,1.1,2.593,1.74,4.285
		c0.705,1.803,1.334,3.643,1.902,5.482c0.519,1.692,0.987,3.396,1.383,5.125c0.186,0.827,0.358,1.679,0.507,2.518
		c0.073,0.421,0.147,0.84,0.21,1.26c0.024,0.186,0.049,0.371,0.086,0.556c-0.013-0.025,0,0.111,0.037,0.407
		c0.049,0.334,0.075,0.667,0.111,1.014c-1.519-2.113-3.174-4.163-4.938-6.04c-4.175-4.433-9.09-8.101-14.535-10.792
		c-5.347-2.642-10.94-4.124-16.83-4.926c-2.717-0.383-5.693-0.643-8.509-0.272c1.458-3.989,1.816-8.347,1.025-12.756
		c-0.667-3.68-2.247-7.21-4.137-10.421c0.223-0.889,0.618-1.729,1.248-2.495c1.308-1.58,3.247-2.606,5.11-3.383
		c2.026-0.84,4.2-1.334,6.372-1.458c1.087-0.062,2.198-0.012,3.273,0.062c0.443,0.037,1.122,0.235,1.802,0.309
		C358.214,71.96,362.721,76.565,366.747,81.554L366.747,81.554z M210.95,318.737L210.95,318.737
		c-4.901,0.309-9.829,0.778-14.668,1.567c-2.31,0.384-4.507,0.976-6.681,1.854c-0.322,0.135-0.654,0.271-0.988,0.418
		c-0.457-0.049-0.95,0.087-1.432,0.446c-0.334,0.248-0.667,0.493-1.014,0.728c-0.616-1.11-1.407-2.173-2.049-3.11
		c-1.32-1.964-2.803-3.879-4.433-5.596c-3.272-3.457-7.211-6.321-11.273-8.766c-3.705-2.235-7.829-4.372-12.077-5.335
		c-1.371-0.31-3.31-0.654-5.236-0.679c0.062-0.581,0.086-1.174,0.074-1.766c0.532,0.196,1.05,0.394,1.581,0.579
		c4.939,1.729,10.113,2.272,15.25,3.052c6.743,1.035,13.509,2.159,20.313,2.642c3.322,0.234,6.643,0.234,9.966,0.135
		c1.728-0.049,3.443-0.172,5.16-0.333c0.864-0.074,1.766-0.11,2.605-0.296c1.568,0.938,3.407,1.494,5.111,1.877
		c4.965,1.099,10.731,1.32,15.522-0.593c2.68-1.063,5.742-2.938,7.754-5.384c1.075-0.16,2.148-0.482,3.187-0.777
		c2.901-0.853,5.519-2.248,8.162-3.68c0.433-0.234,0.864-0.471,1.296-0.705c-1.432,1.421-2.704,2.988-3.939,4.618
		c-2.223,2.965-4.087,6.261-5.692,9.595c-0.767,1.593-1.444,3.234-2.036,4.891c-0.531,1.457-1.235,3.383-1.037,5.039
		C226.595,318.318,218.705,318.256,210.95,318.737L210.95,318.737z M145.21,343.939L145.21,343.939
		c-6.964,1.407-14.781,1.038-21.523-1.877c-1.914-0.827-3.767-1.814-5.544-2.889c-1.68-1.001-2.445-1.644-3.766-3.052
		c-2-2.136-3.408-5.099-5.075-7.729c0.691,0.075,1.346,0.124,1.951,0.16c2.803,0.199,5.631-0.012,8.422-0.358
		c6.137-0.777,12.347-2.641,17.472-6.222c3.68-2.557,6.829-6.025,9.262-9.842c1.062,0.593,2.148,1.124,3.173,1.777
		c3.173,2,6.014,4.581,8.409,7.459c2.112,2.506,4.001,5.074,5.224,8.137c0.617,1.568,1.074,3.21,1.458,4.853
		c0.16,0.692,0.234,1.545,0.406,2.347C158.706,339.853,152.372,342.495,145.21,343.939L145.21,343.939z"/>
	<path fill-rule="evenodd" clip-rule="evenodd" fill="#353485" d="M286.965,344.199c-2.173-3.272-5.234-6.112-8.124-8.385
		c-5.421-4.273-11.483-7.446-17.843-10.089c-3.581-1.493-7.261-2.715-11.003-3.703c1.705-3.755,3.532-7.521,5.879-10.893
		C277.148,318.218,286.965,344.199,286.965,344.199L286.965,344.199z M237.352,309.452c-11.929,1.086-20.906,5.79-26.079,9.26
		c7.654-0.456,15.423-0.383,23.104,0.446c-0.198-1.656,0.506-3.582,1.037-5.039C235.98,312.538,236.622,310.969,237.352,309.452
		L237.352,309.452z M352.472,67.625c0,0,12.374,16.361,13.694,36.625c4.593,2.556,8.768,5.816,12.387,9.656
		c1.765,1.877,3.42,3.927,4.938,6.04c-0.036-0.347-0.063-0.68-0.111-1.014c-0.037-0.296-0.05-0.433-0.037-0.407
		c-0.037-0.185-0.062-0.37-0.086-0.556c-0.063-0.42-0.137-0.839-0.21-1.26c-0.148-0.839-0.321-1.691-0.507-2.518
		c-0.396-1.729-0.864-3.433-1.383-5.125c-0.568-1.839-1.197-3.679-1.902-5.482c-0.641-1.692-1.147-2.963-1.74-4.285
		c-2.827-6.311-6.434-12.373-10.768-17.745l0,0c-4.026-4.989-8.533-9.594-13.374-13.78
		C353.065,67.736,352.757,67.674,352.472,67.625L352.472,67.625z M186.971,110.782c0.716,2.038,1.495,4.026,2.372,5.927
		c-0.296,0.556-0.581,1.111-0.877,1.667c-0.568,1.111-1.099,2.26-1.618,3.396c-0.013-0.506-0.024-1.014-0.038-1.531
		c-0.061-2.174-0.024-4.347,0.05-6.52C186.885,112.732,186.921,111.758,186.971,110.782L186.971,110.782z M48.647,219.197
		c2.853,14.722,6.989,24.524,11.472,30.971c1.012-1.643,2.321-3.235,3.976-4.124c-3.804-8.779-5.05-18.745-2.248-28.03
		c0.037-0.1,0.074-0.21,0.111-0.31c-1.791,0.666-3.643,1.088-5.545,1.235C53.871,219.161,51.253,219.235,48.647,219.197
		L48.647,219.197z M110.277,328.491c0,0,18.819,18.14,41.75-3.581c1.692-1.592,3.419-3.074,5.186-4.456
		c-2.222-2.508-4.803-4.768-7.631-6.546c-1.025-0.653-2.111-1.185-3.173-1.777c-2.433,3.816-5.582,7.285-9.262,9.842
		c-5.125,3.581-11.335,5.444-17.472,6.222c-2.791,0.347-5.619,0.558-8.422,0.358C110.944,328.541,110.61,328.517,110.277,328.491
		L110.277,328.491z M174.265,310.217c5.434-2.444,10.669-4.162,15.288-5.372c-0.409-0.012-0.816-0.049-1.236-0.073
		c-6.804-0.482-13.57-1.606-20.313-2.642c-5.136-0.779-10.311-1.322-15.25-3.052c-0.531-0.186-1.049-0.383-1.581-0.579
		c0.012,0.592-0.013,1.185-0.074,1.766c1.926,0.024,3.865,0.369,5.236,0.679c4.248,0.963,8.372,3.1,12.077,5.335
		C170.413,307.487,172.387,308.796,174.265,310.217L174.265,310.217z"/>
	<path fill-rule="evenodd" clip-rule="evenodd" fill="#F9BF9B" d="M383.343,131.54L383.343,131.54
		c-0.013,0.037-0.013,0.074-0.013,0.111c-0.013,0.073-0.024,0.185-0.049,0.346c-0.063,0.395-0.136,0.79-0.197,1.172
		c-0.298,1.705-0.68,3.372-1.125,5.039c-0.406,1.532-0.901,3.038-1.432,4.532c-0.271,0.74-0.556,1.481-0.852,2.223
		c-0.037,0.086-0.062,0.148-0.086,0.209c-0.026,0.063-0.063,0.136-0.101,0.247c-0.222,0.482-0.432,0.963-0.653,1.445
		c-1.408,3.038-3.075,5.939-4.891,8.742c-0.89,1.359-1.827,2.68-2.803,3.977c-0.013,0.012-0.357,0.468-0.457,0.605
		c-0.21,0.258-0.42,0.531-0.629,0.791c-0.606,0.741-1.224,1.469-1.84,2.197c-2.248,2.605-4.669,5.075-7.188,7.409
		c-1.222,1.136-2.481,2.222-3.754,3.297c-1.593,1.333-2.37,1.938-3.728,2.951c-2.779,2.075-5.669,3.988-8.633,5.792
		c-5.754,3.495-11.891,6.544-17.979,8.729c-1.729,0.63-3.506,1.161-5.298,1.605c-1.938,0.494-3.543,0.753-5.235,0.877
		c-0.814,0.062-1.63,0.074-2.458,0.074c-0.481,0-0.975-0.037-1.456-0.062c0.099,0-1.234-0.124-0.927-0.075
		c-0.938-0.123-1.876-0.296-2.802-0.493c-0.013,0-0.038,0-0.05,0c2.062-8.854,3.049-17.892,2.74-27.03
		c-0.049-1.358-1.975-1.321-2.099,0c-0.852,9.792-3.247,19.251-6.52,28.438c-0.383,0.494-0.604,1.087-0.629,1.717
		c-2.198,5.952-4.755,11.793-7.484,17.535c-3.741,7.853-7.297,15.768-11.212,23.547c-3.963,7.891-8.271,15.609-12.978,23.091
		c-3.037,4.815-6.248,9.509-9.606,14.103c-0.211,0.283-0.42,0.555-0.631,0.839c-1.752-0.383-3.05,1.297-4.136,2.445
		c-1.927,2.037-4.903,3.321-7.311,4.705c-2.568,1.481-5.148,2.964-7.815,4.26c-1.347,0.667-2.742,1.209-4.175,1.68
		c-0.741,0.233-1.543,0.369-2.333,0.542c-2.704-3.149-7.372-4.087-11.509-4.099c-2.494-0.013-4.939,0.433-7.396,0.766
		c-1.285,0.172-2.37,0.679-3.506,1.173c-2.348,0.049-4.656,1.556-6.447,3.506c-0.136-0.073-0.284-0.111-0.432-0.111
		c-0.1-0.061-0.84-0.061-0.938-0.049c-0.703,0.025-1.396,0.087-2.099,0.1c-1.396,0.011-2.803-0.123-4.199-0.211
		c-2.852-0.172-5.705-0.186-8.557-0.309c-5.927-0.246-11.83-1.048-17.695-1.865c-5.877-0.826-11.668-1.975-17.485-3.122
		c-2.581-0.508-5.186-0.939-7.754-1.533c-1.124-0.259-2.26-0.604-3.408-0.937c-1.63-2.359-3.198-4.766-4.828-7.138
		c-4.593-6.668-9.853-12.854-14.497-19.511c-4.617-6.618-8.903-13.521-12.682-20.658c-3.877-7.298-6.828-14.991-10.05-22.596
		c-2.729-6.423-5.384-12.881-7.582-19.511c-2.124-6.372-4.038-13.077-5.038-19.732c-0.123-0.791-1.309-0.556-1.346,0.173
		c-0.173,4.111,0,8.112,0.593,12.187c0.445,3.063,1.136,6.101,1.926,9.113c-1.124,0.05-2.248,0.297-3.26,0.52
		c-2.296,0.506-4.47,1.432-6.618,2.357c-3.1,1.335-5.878,3.211-8.446,5.397c-3.013,2.568-5.396,5.766-7.162,9.284
		c-0.976,0.508-1.927,1.261-2.705,1.631c-1.839,0.89-3.901,1.346-5.914,1.52c-5.002,0.432-10.151,0.396-15.152,0.11
		c-4.619-0.26-9.002-1.075-13.225-2.978c-2.52-1.135-4.89-2.457-7.359-3.604c-0.878-2.471-1.618-4.977-2.211-7.558
		c-0.37-1.642-0.667-3.298-0.913-4.963c-0.013-0.051-0.025-0.1-0.025-0.137c-0.013-0.074-0.024-0.197-0.049-0.396
		c-0.05-0.407-0.087-0.827-0.136-1.235c-0.086-0.95-0.161-1.9-0.21-2.852c-0.186-3.347-0.062-6.705,0.295-10.039
		c0.038-0.284,0.075-0.568,0.1-0.853c0,0.038,0.11-0.715,0.123-0.777c0.112-0.791,0.259-1.569,0.408-2.346
		c0.309-1.68,0.716-3.346,1.16-5.001c0.42-1.531,0.902-3.037,1.42-4.53c0.259-0.754,0.543-1.496,0.828-2.235
		c0.135-0.371,0.284-0.742,0.432-1.112c0.061-0.148,0.135-0.308,0.198-0.457c0-0.012,0.061-0.137,0.16-0.371
		c5.545-12.781,13.72-22.771,24.042-31.994c1.259-1.124,2.544-2.21,3.84-3.286c1.605-1.322,2.433-1.964,3.804-2.976
		c2.815-2.112,5.729-4.087,8.705-5.962c2.951-1.866,5.976-3.594,9.076-5.225c1.457-0.766,2.951-1.506,4.445-2.222
		c0.741-0.358,1.482-0.704,2.235-1.038c0.371-0.172,0.742-0.345,1.124-0.506c0.124-0.061,1.161-0.506,1.025-0.457
		c15.929-6.52,33.229-9.804,50.22-11.829c3.902-0.471,7.829-0.766,11.718-1.309c3.272-0.458,6.421-0.951,9.694-1.272
		c3.531-0.333,7.063-0.371,10.607-0.321c1.74,0.012,3.457,0.309,5.186,0.358c0.715,0.012,1.457,0.085,2.149,0.246
		c0.418,0.099,0.863,0.137,1.32,0.149c0,0.087,0,0.186,0,0.271c-0.062,1.642-0.099,3.285-0.099,4.915
		c-0.012,3.346,0.296,6.656,0.827,9.965c0.284,1.84,0.704,3.619,1.247,5.372c0.79,6.68,3.568,13.348,9.014,17.447
		c6.249,4.706,14.67,6.087,22.14,7.681c15.991,3.408,33.143,3.791,48.911-0.964c5.828-1.753,11.509-4.223,16.398-7.878
		c4.841-3.618,8.879-8.075,11.966-13.261c1.778-3.001,3.235-6.372,4.209-9.868c1.149,0.496,2.334,1.015,3.459,1.495
		c3.481,1.482,7.014,2.914,10.729,3.742c6.187,1.37,12.721,1.222,18.844-0.42c5.928-1.568,11.646-4.692,15.769-9.274
		c1.111-1.235,2.087-2.556,2.902-3.951c3.358-0.457,6.754-0.235,10.211,0.333c5.335,0.876,10.472,2.296,15.338,4.704
		c4.84,2.396,9.421,5.532,13.162,9.422c2.037,2.123,3.829,4.519,5.495,6.94c0.938,1.345,1.74,2.791,2.63,4.173
		c-0.025,0.592-0.049,1.184-0.099,1.777C383.516,129.947,383.44,130.736,383.343,131.54L383.343,131.54z M265.999,298.499
		L265.999,298.499c-0.815,0.32-1.581,0.653-2.261,0.926c-2.864,1.148-5.42,2.729-7.569,4.964c-2.458,2.544-4.235,5.828-5.853,8.94
		c-1.309,2.53-2.543,5.187-3.334,7.939c-2.938-0.68-5.902-1.235-8.903-1.654c0.494-1.063,0.68-2.26,1.014-3.408
		c0.456-1.532,1.086-3.001,1.753-4.446c1.407-3.099,3.147-6.05,5.062-8.865c1.632-2.396,3.372-4.681,5.569-6.606
		c1.111-0.963,2.334-1.815,3.619-2.507c0.432-0.233,0.863-0.443,1.296-0.642c1.445,0.74,2.913,1.407,4.358,2.16
		C262.555,296.239,264.307,297.325,265.999,298.499L265.999,298.499z M177.611,329.664L177.611,329.664
		c-2.778,1.816-5.668,3.495-8.607,5.052c-0.038-0.21-0.086-0.42-0.123-0.618c-0.346-1.667-0.815-3.308-1.433-4.902
		c-1.234-3.247-3.025-6.136-5.26-8.779c-2.383-2.841-5.038-5.396-8.076-7.521c-1.556-1.074-3.198-2.037-4.915-2.788
		c-0.432-0.187-0.864-0.359-1.296-0.521c0.013-0.037,0.024-0.062,0.037-0.086c1.012-1.889,1.876-3.902,2.469-5.977
		c1.853-0.062,3.681,0.223,5.471,0.679c3.828,0.964,7.471,2.976,10.816,5.014c3.706,2.235,7.163,4.902,10.188,8
		c1.445,1.471,2.692,3.15,3.865,4.829c0.654,0.938,1.247,1.902,1.828,2.877c0.16,0.285,0.321,0.593,0.482,0.891
		c-0.137,0.098-0.284,0.196-0.421,0.295C180.97,327.319,179.34,328.529,177.611,329.664L177.611,329.664z M75.505,257.65
		L75.505,257.65c2.321-2.531,4.359-5.1,7.482-6.692c0.654-0.334,1.395-0.519,2.112-0.691c0.357-0.099,0.717-0.16,1.074-0.234
		c-0.357,0.074,0.717-0.061,0.717-0.061c0.802-0.063,1.605-0.039,2.407,0c0.408,0.023,0.815,0.023,1.222,0.048
		c0.222,0.013,0.458,0.023,0.68,0.051c0.062,0.012,0.124,0.023,0.209,0.036c0.792,0.135,1.581,0.356,2.347,0.617
		c0.037,0.013,0.63,0.248,0.741,0.284c0.284,0.135,0.567,0.283,0.839,0.432c1.667,0.89,2.173,1.358,3.532,2.952
		c-0.482-0.557,0.357,0.567,0.357,0.567c0.198,0.31,0.359,0.642,0.531,0.975c-0.223-0.419,0.186,0.568,0.21,0.631
		c0.123,0.384,0.186,0.766,0.26,1.147c-0.173-0.949-0.013,0.235,0,0.384c0.012,0.272-0.013,0.542-0.026,0.828
		c0.013-0.372-0.086,0.505-0.111,0.641c-0.099,0.445-0.234,0.864-0.395,1.284c0.185-0.531-0.21,0.445-0.26,0.544
		c-0.186,0.345-0.395,0.666-0.592,1.001c-0.025,0.036-0.396,0.53-0.458,0.617c-0.197,0.234-0.407,0.469-0.617,0.69
		c-0.284,0.297-0.581,0.567-0.876,0.852c-0.025,0.014-0.581,0.458-0.63,0.507c-0.668,0.481-1.383,0.89-2.1,1.284
		c-3.173,1.741-6.792,2.581-10.261,2.642c-4,0.075-7.014-0.469-10.916-1.592c-0.481-0.136-0.963-0.283-1.432-0.457
		c-0.074-0.074-0.148-0.147-0.235-0.222c0.062-0.544,0.087-1.024,0.111-1.297c0.222-2.358,0.655-4.742,1.408-7.002
		c0.173,0.037,0.358,0,0.507-0.086C74.097,258.503,74.887,258.33,75.505,257.65L75.505,257.65z M321.429,70.638L321.429,70.638
		c-0.074,0.074-0.123,0.123-0.161,0.161c-0.049,0.025-0.098,0.062-0.159,0.112c-0.297,0.221-0.617,0.418-0.927,0.617
		c-0.654,0.408-1.358,0.765-2.062,1.099c0.159-0.086-0.617,0.247-0.68,0.26c-0.357,0.136-0.716,0.246-1.073,0.37
		c-0.718,0.222-1.457,0.407-2.186,0.581c-0.617,0.147-1.248,0.258-1.877,0.356c0.259-0.049-0.557,0.063-0.667,0.076
		c-0.457,0.049-0.928,0.074-1.396,0.098c-2.963,0.136-5.298-0.506-7.78-2.075c-0.036-0.025-0.58-0.407-0.617-0.419
		c-0.211-0.186-0.42-0.358-0.63-0.544c-0.271-0.247-0.518-0.518-0.765-0.778c-0.037-0.049-0.384-0.468-0.444-0.543
		c-0.285-0.407-0.531-0.826-0.767-1.271c0.05,0.062-0.223-0.531-0.259-0.629c-0.124-0.357-0.21-0.716-0.285-1.086
		c0.088,0.382-0.061-0.47-0.061-0.606c-0.025-0.357,0-0.716,0.012-1.074c0-0.049,0.012-0.087,0.012-0.123
		c0.013-0.063,0.037-0.148,0.063-0.285c0.073-0.37,0.186-0.74,0.295-1.111c0,0,0.272-0.642,0.297-0.728
		c0.161-0.322,0.333-0.643,0.52-0.963c0.592-1.025,0.79-1.234,1.333-1.852c0.506-0.594,1.074-1.136,1.654-1.655
		c0,0,0.543-0.432,0.594-0.481c0.259-0.186,0.518-0.359,0.777-0.531c0.643-0.432,1.333-0.791,2.025-1.148
		c0.345-0.173,0.69-0.32,1.049-0.481c-0.506,0.222,0.79-0.272,0.915-0.321c3.222-1.124,5.951-1.617,9.112-1.766
		c3.691-0.173,7.459,0.1,11.125,0.506c1.803,0.198,3.556,0.557,5.298,0.988c-0.038,0.012-0.074,0.037-0.099,0.05
		c-2.309,0.987-4.322,2.234-6.05,4.063c-1.544,1.618-2.435,3.63-2.632,5.852c-0.049,0.531-0.036,1.148,0.063,1.779
		c-0.198,0.136-0.396,0.271-0.593,0.444C323.344,68.527,322.503,69.688,321.429,70.638L321.429,70.638z"/>
	<path fill-rule="evenodd" clip-rule="evenodd" fill="#CB736F" d="M383.343,131.54L383.343,131.54
		c-0.013,0.037-0.013,0.074-0.013,0.111c-0.013,0.073-0.024,0.185-0.049,0.346c-0.063,0.395-0.136,0.79-0.197,1.172
		c-0.298,1.705-0.68,3.372-1.125,5.039c-0.406,1.532-0.901,3.038-1.432,4.532c-0.271,0.74-0.556,1.481-0.852,2.223
		c-0.037,0.086-0.062,0.148-0.086,0.209c-0.026,0.063-0.063,0.136-0.101,0.247c-0.222,0.482-0.432,0.963-0.653,1.445
		c-1.408,3.038-3.075,5.939-4.891,8.742c-0.89,1.359-1.827,2.68-2.803,3.977c-0.013,0.012-0.357,0.468-0.457,0.605
		c-0.21,0.258-0.42,0.531-0.629,0.791c-0.606,0.741-1.224,1.469-1.84,2.197c-2.248,2.605-4.669,5.075-7.188,7.409
		c-1.222,1.136-2.481,2.222-3.754,3.297c-1.593,1.333-2.37,1.938-3.728,2.951c-2.779,2.075-5.669,3.988-8.633,5.792
		c-5.754,3.495-11.891,6.544-17.979,8.729c-1.729,0.63-3.506,1.161-5.298,1.605c-1.938,0.494-3.543,0.753-5.235,0.877
		c-0.814,0.062-1.63,0.074-2.458,0.074c-0.481,0-0.975-0.037-1.456-0.062c0.099,0-1.234-0.124-0.927-0.075
		c-0.938-0.123-1.876-0.296-2.802-0.493c-0.013,0-0.038,0-0.05,0c2.062-8.854,3.049-17.892,2.74-27.03
		c-0.024-0.679-0.531-1.013-1.036-1.013l0,0c43.392-14.322,55.38-36.624,55.851-56.282c3.395,2.038,6.557,4.47,9.285,7.298
		c2.037,2.123,3.829,4.519,5.495,6.94c0.938,1.345,1.74,2.791,2.63,4.173c-0.025,0.592-0.049,1.184-0.099,1.777
		C383.516,129.947,383.44,130.736,383.343,131.54L383.343,131.54z M205.319,290.397c-0.023,0-0.048-0.013-0.086-0.013
		c-0.1-0.061-0.84-0.061-0.938-0.049c-0.703,0.025-1.396,0.087-2.099,0.1c-1.396,0.011-2.803-0.123-4.199-0.211
		c-2.852-0.172-5.705-0.186-8.557-0.309c-5.927-0.246-11.83-1.048-17.695-1.865c-5.877-0.826-11.668-1.975-17.485-3.122
		c-2.581-0.508-5.186-0.939-7.754-1.533c-1.124-0.259-2.26-0.604-3.408-0.937c-1.63-2.359-3.198-4.766-4.828-7.138
		c-4.593-6.668-9.853-12.854-14.497-19.511c-4.617-6.618-8.903-13.521-12.682-20.658c-3.877-7.298-6.828-14.991-10.05-22.596
		c-2.729-6.423-5.384-12.881-7.582-19.511c-2.124-6.372-4.038-13.077-5.038-19.732C124.156,263.851,199.653,288.645,205.319,290.397
		L205.319,290.397z M87.075,173.659c-0.173,4.05,0,8.002,0.593,12.014c0.445,3.063,1.136,6.101,1.926,9.113
		c-1.124,0.05-2.248,0.297-3.26,0.52c-2.296,0.506-4.47,1.432-6.618,2.357c-3.1,1.335-5.878,3.211-8.446,5.397
		c-3.013,2.568-5.396,5.766-7.162,9.284c-0.976,0.508-1.927,1.261-2.705,1.631c-1.839,0.89-3.901,1.346-5.914,1.52
		c-2.421,0.209-4.878,0.309-7.347,0.319C45.178,186.773,79.765,175.671,87.075,173.659L87.075,173.659z M252.07,310.093
		c-1.087-0.223-2.198-0.406-3.335-0.53c-2.296-0.259-4.507-0.358-6.644-0.346c-0.444,0.84-0.863,1.679-1.246,2.543
		c-0.667,1.445-1.297,2.914-1.753,4.446c-0.334,1.148-0.52,2.346-1.014,3.408c3.001,0.419,5.965,0.975,8.903,1.654
		c0.791-2.753,2.025-5.409,3.334-7.939C250.872,312.255,251.452,311.167,252.07,310.093L252.07,310.093z M72.257,260.454
		c2.235,0.852,4.358,1.209,6.26,1.247c6.322,0.111,10.94-7.198,13.126-11.558c-0.074-0.012-0.16-0.024-0.235-0.037
		c-0.085-0.013-0.147-0.024-0.209-0.036c-0.222-0.027-0.458-0.038-0.68-0.051c-0.407-0.024-0.814-0.024-1.222-0.048
		c-0.802-0.039-1.605-0.063-2.407,0c0,0-1.074,0.135-0.717,0.061c-0.357,0.074-0.717,0.136-1.074,0.234
		c-0.717,0.173-1.458,0.357-2.112,0.691c-3.124,1.593-5.161,4.161-7.482,6.692l0,0c-0.618,0.68-1.408,0.853-2.161,0.68
		c-0.149,0.086-0.334,0.123-0.507,0.086C72.615,259.083,72.418,259.764,72.257,260.454L72.257,260.454z M160.225,318.206
		c3.47-2.457,7.001-4.532,10.509-6.298c-1.297-0.961-2.656-1.852-4.039-2.691c-3.345-2.038-6.989-4.05-10.816-5.014
		c-1.79-0.456-3.618-0.74-5.471-0.679c-0.593,2.074-1.457,4.088-2.469,5.977c-0.013,0.024-0.024,0.049-0.037,0.086
		c0.432,0.161,0.864,0.334,1.296,0.521c1.716,0.751,3.358,1.714,4.915,2.788C156.347,314.452,158.36,316.242,160.225,318.206
		L160.225,318.206z"/>
	<path fill-rule="evenodd" clip-rule="evenodd" fill="#FFFFFF" d="M281.742,118.624c1.407-2.619,2.581-5.472,3.395-8.423
		c1.149,0.496,2.334,1.015,3.459,1.495c3.481,1.482,7.014,2.914,10.729,3.742c6.187,1.37,12.721,1.222,18.844-0.42
		c5.928-1.568,11.646-4.692,15.769-9.274c0.742-0.828,1.433-1.705,2.038-2.594C326.678,128.539,281.742,118.624,281.742,118.624
		L281.742,118.624z"/>
	<path fill-rule="evenodd" clip-rule="evenodd" fill="#FFFFFF" d="M53.019,125.908c2.815-2.112,5.729-4.087,8.705-5.962
		c2.951-1.866,5.976-3.594,9.076-5.225c1.457-0.766,2.951-1.506,4.445-2.222c0.741-0.358,1.482-0.704,2.235-1.038
		c0.371-0.172,0.742-0.345,1.124-0.506c0.124-0.061,1.161-0.506,1.025-0.457c15.929-6.52,33.229-9.804,50.22-11.829
		c3.902-0.471,7.829-0.766,11.718-1.309c3.272-0.458,6.421-0.951,9.694-1.272c3.531-0.333,7.063-0.371,10.607-0.321
		c1.74,0.012,3.457,0.309,5.186,0.358c0.715,0.012,1.457,0.085,2.149,0.246c0.418,0.099,0.863,0.137,1.32,0.149
		c0,0.087,0,0.186,0,0.271c-0.062,1.642-0.099,3.285-0.099,4.915c0,0.123,0,0.259,0,0.382
		C157.509,102.102,94.348,103.374,53.019,125.908L53.019,125.908z"/>
	<path fill-rule="evenodd" clip-rule="evenodd" fill="#F9F6EA" d="M207.937,292.423L207.937,292.423
		c0.334-0.396,0.73-0.777,1.149-1.137c0.024,0,0.063-0.012,0.087-0.012c0.519-0.1,1.013-0.222,1.53-0.309
		c1.025-0.172,1.927-0.457,2.989-0.443c1.827,0.013,3.679-0.076,5.507-0.148c3.063-0.125,6.187-0.321,9.114,0.728
		c1.072,0.384,1.925,1.198,2.48,2.161c0.235,0.395,0.296,0.717,0.309,0.976c0.014,0.024-0.037,0.47-0.024,0.542
		c-0.074,0.26-0.21,0.693-0.159,0.606c-0.977,2.161-3.263,3.518-5.496,4.644c-2.161,1.073-3.569,1.248-5.915,1.406
		c-2.68,0.186-5.358,0.322-8.039,0.013c-0.852-0.086-1.814-0.271-2.728-0.58c-0.161-0.346-0.433-0.655-0.791-0.827
		c-0.494-0.247-0.963-0.37-1.445-0.42c-0.197-0.186-0.383-0.383-0.543-0.605C204.505,297.029,206.617,293.917,207.937,292.423
		L207.937,292.423z"/>
	<path fill-rule="evenodd" clip-rule="evenodd" fill="#F9BF9B" d="M264.628,126.329L264.628,126.329
		c-0.259,0.197-0.53,0.383-0.79,0.58c-0.766,0.542-1.544,1.049-2.347,1.543c-3.124,1.926-5.939,3.062-9.312,4.198
		c-7.68,2.605-15.002,3.593-22.966,3.84c-11.237,0.347-22.449-0.926-33.302-3.383c-3.655-0.828-7.434-1.778-10.669-3.691
		c1.209-2.075,2.198-4.334,3.383-6.384c1.84-3.173,3.705-6.347,5.692-9.422c4.001-6.174,8.52-12.026,13.842-17.102
		c5.014-4.779,11.113-9.311,17.831-11.286c6.37-1.866,13.224-0.828,19.164,1.938c7.125,3.321,13.236,9.014,17.411,15.646
		c2.358,3.753,4,7.927,4.927,12.248c0.444,2.063,0.654,4.163,0.716,6.262c0.012,0.629,0.012,1.259-0.012,1.877
		c-0.951,0.925-1.939,1.827-2.976,2.666C265.208,125.873,264.764,126.217,264.628,126.329L264.628,126.329z"/>
	<path fill-rule="evenodd" clip-rule="evenodd" fill="#EB5E2B" d="M236.573,24.061L236.573,24.061
		c2.63,0.668,5.173,1.631,7.618,2.791c-0.357,1.136-0.729,2.26-1.123,3.384c-0.765,2.173-1.594,4.372-2.853,6.31
		c-2,3.05-5.432,4.877-9.063,4.013c-4.025-0.963-6.595-4.606-8.496-8.015c-0.963-1.741-1.754-3.557-2.52-5.372
		c-0.506-1.197-1.086-2.358-1.678-3.519c0.284-0.086,0.556-0.173,0.84-0.248c1.395-0.396,2.765-0.827,4.111-1.309
		c0.68,0.013,1.346,0.038,2.024,0.087C229.201,22.406,232.918,23.136,236.573,24.061L236.573,24.061z M328.121,65.317
		L328.121,65.317c0.286-1.508,1.384-2.841,2.632-3.68c1.605-1.086,3.296-1.952,5.11-2.593c1.384-0.481,3.187-0.654,4.385-1.52
		c0.148,0.038,0.296,0.087,0.444,0.125c1,0.777,2,1.567,3,2.321c1.31,0.988,2.606,1.988,3.878,3.012
		c-2.729,0.248-5.359,1.013-7.866,2.137c-2.557,1.161-5.149,3.419-6.372,6.087C331.839,69.008,330.135,66.897,328.121,65.317
		L328.121,65.317z M251.625,287.769L251.625,287.769c-0.099,0.11-0.185,0.21-0.259,0.282c-1.815,1.977-4.569,3.174-6.902,4.396
		c-2.422,1.261-4.743,2.543-7.348,3.396c-0.196,0.073-0.406,0.136-0.618,0.186c0.235-1.172,0.185-2.419-0.234-3.716
		c1.644-0.408,3.31-1.174,4.619-1.741c2.729-1.187,5.296-2.644,7.877-4.1c1.864-1.051,3.742-2.112,5.52-3.298
		C253.132,284.583,252.059,286.063,251.625,287.769L251.625,287.769z M99.423,329.986L99.423,329.986
		c-1.852,1.914-4.025,3.383-6.396,4.593c-2.112,1.086-4.297,1.804-6.693,1.606c-0.37-0.024-0.79-0.198-1.135-0.322
		c0.172,0.062,0.172,0.038-0.024-0.062c0.024,0-0.272-0.234-0.384-0.321c-0.024-0.037-0.062-0.099-0.098-0.184
		c-0.05-0.186-0.099-0.371-0.124-0.544c0.1,0.456,0.038-0.21,0.025-0.384c0.024,0.063,0.172-0.716,0.209-0.853
		c0.099-0.369,0.197-0.591,0.333-0.889c0.42-0.876,0.963-1.617,1.618-2.321c1.457-1.568,3.359-2.791,5.322-3.604
		c2-0.827,4.211-1.372,6.372-1.531c1.185-0.099,2.346,0,3.531,0.074c0.135,0,0.259,0,0.395,0.012
		c0.198,0.32,0.445,0.631,0.716,0.889c0,0.013,0,0.013,0,0.024c0,0.063,0.013,0.112,0.013,0.174
		C101.756,327.43,100.583,328.775,99.423,329.986L99.423,329.986z M305.315,342.321L305.315,342.321
		c1.63-0.468,3.284-0.765,4.975-0.877c0.816-0.061,1.656-0.086,2.471-0.012c0.197,0.012,0.396,0.037,0.594,0.063
		c-0.075,0,0.529,0.086,0.554,0.086c1.187,0.198,2.359,0.519,3.494,0.938c-0.023,0,0.891,0.456,1.198,0.653
		c0.26,0.149,0.63,0.594,0.716,0.729c0.051,0.075,0.089,0.124,0.112,0.161c0.012,0.025,0.012,0.063,0.038,0.1
		c0.012,0.061,0.048,0.297,0.072,0.432c-0.012,0.186-0.036,0.469-0.012,0.433c-0.049,0.246-0.122,0.494-0.198,0.741
		c-0.013,0.05-0.024,0.099-0.036,0.123c-0.024,0.049-0.063,0.11-0.098,0.197c-0.025,0.049-0.298,0.433-0.322,0.482
		c-0.147,0.173-0.296,0.334-0.457,0.48c-0.037,0.036-0.494,0.396-0.481,0.396c-2.185,1.544-4.261,2.049-7.137,2.692
		c-0.617,0.135-1.235,0.246-1.865,0.357c-0.198,0.025-0.396,0.062-0.593,0.088c-0.123,0.012-0.297,0.036-0.357,0.049
		c-2.211,0.259-4.384,0.566-6.62,0.642c-2.197,0.073-4.407,0.013-6.604-0.124c-1.236-0.073-2.655-0.247-3.977-0.122
		c0.333-0.273,0.667-0.569,1.014-0.878c1.297-1.124,2.629-2.235,4.024-3.235C298.709,344.865,301.918,343.31,305.315,342.321
		L305.315,342.321z M202.615,295.571L202.615,295.571c-0.444,1.421-0.457,2.94-0.062,4.347c-1.247,0.112-2.506,0.197-3.752,0.26
		c-3.138,0.161-6.285,0.186-9.422,0.05c-6.446-0.285-12.83-1.372-19.213-2.224c-4.989-0.666-10.04-0.901-14.991-1.825
		c-1.062-0.2-2.136-0.434-3.198-0.719c-0.025-0.184-0.049-0.37-0.111-0.567c-0.296-1.013-0.604-1.89-1.247-2.753
		c-0.655-0.902-1.383-1.704-2.124-2.532c-0.605-0.703-1.186-1.407-1.741-2.111c2.124,0.543,4.273,0.964,6.421,1.372
		c6.186,1.195,12.323,2.396,18.571,3.246c6.248,0.865,12.46,1.47,18.77,1.482c3.025,0.013,6.039-0.124,9.064-0.197
		c1.408-0.036,2.802-0.137,4.185-0.335C203.258,293.917,202.863,294.769,202.615,295.571L202.615,295.571z M71.504,257.54
		L71.504,257.54c-0.124,0.086-0.223,0.21-0.284,0.382c-0.876,2.162-1.939,4.212-2.643,6.447c-1.506-1.175-3.05-2.285-4.581-3.434
		c-1.617-1.198-3.025-2.272-4.432-3.359c0.11-0.223,0.21-0.433,0.308-0.642c0.519-1.101,0.963-2.21,1.544-3.272
		c0.581-1.075,1.272-2.061,2.074-2.962c0.593-0.681,1.296-1.198,1.988-1.743c0.543,1.063,1.136,2.112,1.753,3.126
		C68.441,254.083,69.726,256.046,71.504,257.54L71.504,257.54z M169.833,77.764L169.833,77.764c0.678-2.927,1.963-5.545,3.531-8.077
		c0.715-1.149,1.469-2.247,2.382-3.248c1.211-1.333,2.803-2.111,2.865-4.136c0.013-0.766-0.444-1.642-1.147-1.988
		c-0.223-0.111-0.458-0.197-0.692-0.259c0.259-1.506,0.605-2.976,1.05-4.458c0.864-2.877,2.086-5.483,3.655-8.174
		c1.506-2.593,2.902-4.396,4.889-6.544c2-2.161,4.273-4.113,6.397-5.644c2.568-1.852,5.247-3.433,8.001-4.816
		c-0.642,1.248-1.222,2.532-1.778,3.83c-1.692,3.975-3.16,8.063-4.556,12.162c-2.927,8.533-5.297,17.25-7.038,26.117
		c-1.742,8.878-2.606,17.954-3.076,26.981c-0.246,4.543-0.396,9.113-0.531,13.657c-0.061,2.186-0.074,4.358-0.025,6.531
		c0.025,1.086,0.086,2.162,0.186,3.236c0.037,0.53,0.098,1.062,0.16,1.592c0.074,0.68,0.482,1.198,0.654,1.853
		c0.013,0.013,0.013,0.038,0.025,0.062c-0.31,0.691-0.618,1.383-0.89,2.099c-0.654-0.469-1.272-0.976-1.853-1.557
		c-2.506-2.469-3.914-5.642-5.296-8.815c-0.47-2.346-0.803-4.742-1.062-7.101c-0.322-3.1-0.396-6.235-0.372-9.359
		c0.025-1.63,0.087-3.273,0.161-4.915c0.086-1.914,0.396-3.605-1.358-4.853c-0.21-0.147-0.481-0.234-0.766-0.271
		c-0.469-0.643-1.025-1.235-1.58-1.791c-1.013-1.025-1.656-2.185-2.051-3.543C168.918,83.567,169.177,80.529,169.833,77.764
		L169.833,77.764z M272.877,62.835L272.877,62.835c0.951,4.223,1.653,8.495,2.444,12.742c1.001,5.372,2.112,10.62,2.667,15.954
		c0.309,2.889,0.495,5.78,0.927,8.668c0.049,0.309,0.098,0.618,0.147,0.938c-0.099,0.049-0.186,0.099-0.283,0.148
		c-1.013,0.63-1.655,1.927-1.261,3.124c0.175,0.543,0.42,1.025,0.716,1.457c-0.086,0.371-0.171,0.729-0.271,1.086
		c-0.469,1.792-1.1,3.521-1.864,5.175c0.136-1.087,0.26-2.174,0.37-3.273c0.407-4.148,0.407-8.347,0.272-12.521
		c-0.285-8.198-1.506-16.325-3.013-24.375c-1.372-7.273-2.804-14.534-5.174-21.56c-0.198-0.581-0.396-1.174-0.606-1.754
		c0.507,0.914,0.988,1.853,1.433,2.828C270.79,54.475,272.013,59.044,272.877,62.835L272.877,62.835z"/>
	<path fill-rule="evenodd" clip-rule="evenodd" fill="#BE361A" d="M182.043,46.461c0,0-3.556,29.017,2.187,54.603
		c-0.186,4.026-0.322,8.075-0.445,12.102c-0.061,2.186-0.074,4.358-0.025,6.531c0.025,1.086,0.086,2.162,0.186,3.236
		c0.037,0.53,0.098,1.062,0.16,1.592c0.074,0.68,0.482,1.198,0.654,1.853c0.013,0.013,0.013,0.038,0.025,0.062
		c-0.31,0.691-0.618,1.383-0.89,2.099c-0.654-0.469-1.272-0.976-1.853-1.557c-2.506-2.469-3.914-5.642-5.296-8.815
		c-0.47-2.346-0.803-4.742-1.062-7.101c-0.322-3.1-0.396-6.235-0.372-9.359c0.025-1.63,0.087-3.273,0.161-4.915
		c0.086-1.914,0.396-3.605-1.358-4.853c-0.21-0.147-0.481-0.234-0.766-0.271c-0.469-0.643-1.025-1.235-1.58-1.791
		c-1.013-1.025-1.656-2.185-2.051-3.543c-0.802-2.766-0.543-5.804,0.112-8.569l0,0c0.678-2.927,1.963-5.545,3.531-8.077
		c0.715-1.149,1.469-2.247,2.382-3.248c1.211-1.333,2.803-2.111,2.865-4.136c0.013-0.766-0.444-1.642-1.147-1.988
		c-0.223-0.111-0.458-0.197-0.692-0.259c0.259-1.506,0.605-2.976,1.05-4.458c0.864-2.877,2.086-5.483,3.655-8.174
		C181.663,47.09,181.858,46.77,182.043,46.461L182.043,46.461z M62.008,252.661c2.802,3.396,5.692,5.619,8.47,7.002
		c0.247-0.566,0.495-1.147,0.741-1.741c0.062-0.172,0.161-0.296,0.284-0.382l0,0c-1.778-1.494-3.063-3.457-4.272-5.457
		c-0.617-1.014-1.21-2.063-1.753-3.126c-0.692,0.545-1.395,1.063-1.988,1.743C62.947,251.315,62.44,251.971,62.008,252.661
		L62.008,252.661z M202.615,295.571L202.615,295.571c-0.444,1.421-0.457,2.94-0.062,4.347c-1.247,0.112-2.506,0.197-3.752,0.26
		c-3.138,0.161-6.285,0.186-9.422,0.05c-6.446-0.285-12.83-1.372-19.213-2.224c-4.989-0.666-10.04-0.901-14.991-1.825
		c-1.062-0.2-2.136-0.434-3.198-0.719c-0.025-0.184-0.049-0.37-0.111-0.567c-0.296-1.013-0.604-1.89-1.247-2.753
		c-0.655-0.902-1.383-1.704-2.124-2.532c-0.605-0.703-1.186-1.407-1.741-2.111c2.124,0.543,4.273,0.964,6.421,1.372
		c6.186,1.195,12.323,2.396,18.571,3.246c6.248,0.865,12.46,1.47,18.77,1.482c3.025,0.013,6.039-0.124,9.064-0.197
		c1.408-0.036,2.802-0.137,4.185-0.335C203.258,293.917,202.863,294.769,202.615,295.571L202.615,295.571z"/>
	<path fill-rule="evenodd" clip-rule="evenodd" fill="#F9BF9B" d="M246.649,109.437c-0.112-0.248-0.297-0.445-0.531-0.556
		c-1.593-0.778-2.952-0.506-4.667-0.408c-1.692,0.111-3.384,0.075-5.063-0.037c-3.556-0.235-6.988-1.223-10.286-2.52
		c-2.593-1.012-4.952-2.494-7.187-4.124c-1-0.717-1.952-1.52-2.814-2.396c-0.816-0.827-1.138-1.79-1.755-2.729
		c-0.222-0.347-0.679-0.52-1.061-0.42c-0.149-0.308-0.495-0.531-0.865-0.408c-3.087,1.038-4.087,5.286-5.087,7.99
		c-1.347,3.631-2.877,7.174-3.581,11.014c-0.643,3.556-0.272,7.249,1.605,10.41c1.668,2.803,4.494,4.865,7.495,6.062
		c7.481,2.989,14.719-0.11,21.064-4.222c5.804-3.754,11.881-8.237,14.312-15.003C248.687,110.795,247.761,109.746,246.649,109.437
		L246.649,109.437z"/>
	<path fill-rule="evenodd" clip-rule="evenodd" fill="#F9BF9B" d="M202.048,60.5c-1.247,2.284-1.271,5.112-0.593,7.569
		c0.703,2.531,2.371,4.953,4.742,6.162c3.382,1.741,7.112,0.901,9.978-1.408c2.84-2.272,4.444-6.137,3.716-9.743
		c-0.691-3.396-3.52-5.668-6.729-6.556c-2.681-0.729-5.408-0.408-7.718,0.988C203.998,57.957,202.764,59.192,202.048,60.5
		L202.048,60.5z"/>
	<path fill-rule="evenodd" clip-rule="evenodd" fill="#F9BF9B" d="M256.207,63.094L256.207,63.094
		c-0.137,0.506-0.21,0.79-0.063,0.037C256.157,63.131,256.182,63.119,256.207,63.094L256.207,63.094z"/>
	<path fill-rule="evenodd" clip-rule="evenodd" fill="#F9BF9B" d="M256.317,72.775c2.321,0.864,5.112,0.951,7.26-0.445
		c2.236-1.469,3.162-3.753,3.458-6.322c0.446-4.001-2.222-9.335-6.557-9.917c-2.716-0.37-5.186,0.495-7.236,2.187
		c-0.456,0.148-0.9,0.357-1.296,0.654c-1.729,1.271-2.864,3.259-2.582,5.469C249.834,68.231,252.761,71.429,256.317,72.775
		L256.317,72.775z"/>
	<path fill="#321A1B" d="M256.317,72.775c2.321,0.864,5.112,0.951,7.26-0.445c2.236-1.469,3.162-3.753,3.458-6.322
		c0.446-4.001-2.222-9.335-6.557-9.917c-2.716-0.37-5.186,0.495-7.236,2.187c-0.456,0.148-0.9,0.357-1.296,0.654
		c-1.729,1.271-2.864,3.259-2.582,5.469C249.834,68.231,252.761,71.429,256.317,72.775L256.317,72.775z M256.207,63.094
		L256.207,63.094c-0.137,0.506-0.21,0.79-0.063,0.037C256.157,63.131,256.182,63.119,256.207,63.094L256.207,63.094z"/>
	<path fill="#321A1B" d="M202.048,60.5c-1.247,2.284-1.271,5.112-0.593,7.569c0.703,2.531,2.371,4.953,4.742,6.162
		c3.382,1.741,7.112,0.901,9.978-1.408c2.84-2.272,4.444-6.137,3.716-9.743c-0.691-3.396-3.52-5.668-6.729-6.556
		c-2.681-0.729-5.408-0.408-7.718,0.988C203.998,57.957,202.764,59.192,202.048,60.5L202.048,60.5z"/>
	<path fill="#321A1B" d="M246.649,109.437c-0.112-0.248-0.297-0.445-0.531-0.556c-1.593-0.778-2.952-0.506-4.667-0.408
		c-1.692,0.111-3.384,0.075-5.063-0.037c-3.556-0.235-6.988-1.223-10.286-2.52c-2.593-1.012-4.952-2.494-7.187-4.124
		c-1-0.717-1.952-1.52-2.814-2.396c-0.816-0.827-1.138-1.79-1.755-2.729c-0.222-0.347-0.679-0.52-1.061-0.42
		c-0.149-0.308-0.495-0.531-0.865-0.408c-3.087,1.038-4.087,5.286-5.087,7.99c-1.347,3.631-2.877,7.174-3.581,11.014
		c-0.643,3.556-0.272,7.249,1.605,10.41c1.668,2.803,4.494,4.865,7.495,6.062c7.481,2.989,14.719-0.11,21.064-4.222
		c5.804-3.754,11.881-8.237,14.312-15.003C248.687,110.795,247.761,109.746,246.649,109.437L246.649,109.437z M223.533,108.077
		L223.533,108.077c3.532,1.853,7.421,3.187,11.372,3.767c1.136,0.174,2.298,0.285,3.445,0.347c-0.333,0.16-0.679,0.295-1.024,0.432
		c-1.803,0.654-3.619,1.062-5.52,1.37c-3.372,0.557-6.989,0.618-10.237-0.555c-2.841-1.025-4.741-3.422-6.075-6.001
		c-0.69-1.346-1.234-2.865-1.395-4.371c-0.087-0.753-0.013-1.371,0.136-1.964c0.568,0.63,1.186,1.198,1.667,1.63
		C218.175,104.819,220.793,106.658,223.533,108.077L223.533,108.077z M209.072,123.525L209.072,123.525
		c-0.604-0.875-0.999-1.827-1.245-2.815c0.691,0.024,1.37,0.248,2.012,0.47c1.569,0.542,2.853,1.604,4.025,2.741
		c0.951,0.913,1.693,1.963,2.322,3.136c0.185,0.345,0.333,0.729,0.481,1.111c-0.543-0.086-1.075-0.222-1.617-0.382
		C212.704,127.057,210.48,125.539,209.072,123.525L209.072,123.525z"/>
	<path fill="#321A1B" d="M175.178,84.802c0.704-2.137,0.519-4.396,0.828-6.644c0.136-1.062,0.296-2.112,0.481-3.173
		c0.186-1,0.408-2.001-0.198-2.902c-0.247-0.371-0.79-0.605-1.198-0.308c-1.679,1.16-1.592,4.161-1.839,6.013
		c-0.309,2.42-0.556,5.076,0.802,7.162C174.351,85.407,175.005,85.321,175.178,84.802L175.178,84.802z"/>
	<path fill="#321A1B" d="M392.084,121.834c-0.851-15.126-7.828-29.092-17.175-40.749c-5.088-6.347-11.04-11.867-17.474-16.83
		c-3.259-2.531-6.654-4.83-10.198-6.928c-1.729-1.025-3.507-1.964-5.299-2.877c-0.629-0.321-1.282-0.63-1.938-0.914
		c-0.283-0.16-0.579-0.32-0.89-0.481c-1.839-0.901-3.679-1.778-5.581-2.531c-3.852-1.532-7.654-2.605-11.778-3.125
		c-6.915-0.864-14.189-0.247-20.449,2.964c-6.828,3.506-11.533,10.756-10.335,18.511c1.11,7.112,8.347,12.113,14.99,13.261
		c4.507,0.765,9.373,0.11,13.632-1.432c3.26-1.186,7.385-3.31,9.57-6.433c0.63,1.148,1.247,2.296,1.777,3.495
		c1.532,3.506,2.471,7.322,2.359,11.149c-0.05,1.791-0.396,3.495-0.987,5.186c-0.013,0.038-0.235,0.605-0.26,0.667
		c-0.111,0.234-0.222,0.481-0.334,0.716c-0.358,0.716-0.754,1.419-1.172,2.099c-0.174,0.284-0.372,0.568-0.557,0.851
		c-0.037,0.05-0.296,0.408-0.383,0.52c-0.356,0.457-0.752,0.889-1.148,1.321c-0.457,0.494-0.949,0.951-1.445,1.395
		c-0.259,0.235-0.518,0.445-0.778,0.667c-0.049,0.038-0.086,0.063-0.11,0.087c-0.147,0.111-0.283,0.21-0.433,0.321
		c-1.11,0.791-2.296,1.483-3.506,2.099c-0.31,0.16-0.618,0.31-0.927,0.458c-0.062,0.023-0.395,0.172-0.555,0.247
		c-0.666,0.258-1.346,0.505-2.026,0.741c-1.334,0.432-2.703,0.777-4.087,1.049c-0.346,0.075-0.691,0.125-1.036,0.186
		c-0.1,0.024-0.532,0.086-0.667,0.099c-0.692,0.086-1.385,0.161-2.074,0.222c-1.396,0.111-2.804,0.123-4.212,0.086
		c-0.691-0.025-1.395-0.074-2.086-0.147c-0.21-0.012-0.421-0.038-0.63-0.062c0.037,0-0.827-0.124-0.988-0.148
		c-3.321-0.568-6.531-1.741-9.656-3.012c-1.753-0.717-4.063-1.753-6.051-2.606c-0.185-0.074-0.383-0.16-0.568-0.235
		c0.186-2.321,0.297-4.618,0.112-6.939c-0.358-4.717-0.977-9.422-1.804-14.089c-0.765-4.323-1.691-8.631-2.481-12.966
		c-0.778-4.248-1.629-8.47-2.827-12.62c-2.311-7.976-6.372-14.903-12.102-20.893c-5.285-5.519-11.817-10.533-18.807-13.669
		c-5.768-2.592-11.805-4.038-18.114-4.334c-1.224-0.049-2.481,0-3.729,0.112c-2.629-0.593-5.939,0.196-8.272,0.58
		c-4.014,0.654-7.99,1.803-11.817,3.161c-6.371,2.26-12.619,5.001-18.114,8.989c-5.446,3.952-10.139,8.829-13.572,14.633
		c-1.852,3.124-3.235,6.507-4.111,10.026c-0.543,2.125-0.815,4.36-0.865,6.557c-0.024,1.075,0.013,2.372,0.272,3.569
		c-0.692,0.926-1.272,1.864-1.742,2.593c-2.037,3.162-3.58,6.595-4.383,10.273c-0.815,3.779-0.877,7.792,0.457,11.447
		c0.271,0.741,0.63,1.47,1.062,2.161c-1.173-0.296-2.383-0.506-3.568-0.704c-4.075-0.654-8.273-0.555-12.386-0.346
		c-3.914,0.21-7.791,0.729-11.681,1c-4.334,0.309-8.655,0.679-12.978,1.124c-17.559,1.839-34.994,5.224-51.208,12.447
		c-12.94,5.779-24.98,13.694-35.476,23.227c-10.224,9.273-19.066,20.522-24.585,33.229c-5.68,13.101-7.545,27.265-4.877,41.341
		c2.877,15.151,11.137,28.92,21.189,40.402c5.445,6.225,11.582,11.817,17.966,17.067c3.322,2.729,6.729,5.346,10.162,7.938
		c1.705,1.272,3.409,2.53,5.125,3.791c1.766,1.285,3.568,2.197,5.569,3.051c0.568,0.246,1.148,0.394,1.717,0.419
		c3.605,1.568,7.384,2.482,11.297,2.902c7.879,0.864,17.338-2.26,22.512-8.396c2.543-3.025,4.136-6.718,4.124-10.706
		c0-4.148-2.05-8.025-4.952-10.89c-2.716-2.681-6.359-4.522-10.088-5.25c-4.186-0.814-7.989-0.087-11.706,1.951
		c-3.964,2.16-7.125,6.051-9.718,9.755c-0.679-1.37-1.42-2.716-2.026-4.124c-1.124-2.581-1.864-5.433-2.494-8.175
		c-1.197-5.235-1.432-11.225-0.592-16.054c0.235-1.307,0.543-2.604,0.925-3.877c0.186-0.627,0.408-1.26,0.63-1.875
		c0.086-0.261,0.185-0.508,0.284-0.754c-0.037,0.11,0.333-0.753,0.371-0.84c0.555-1.197,1.21-2.346,1.914-3.456
		c0.309-0.482,0.63-0.951,0.975-1.408c0.013-0.013,0.371-0.472,0.408-0.519c0.284-0.346,0.556-0.692,0.852-1.039
		c0.889-1.036,1.876-1.988,2.915-2.889c0.197-0.173,0.395-0.334,0.605-0.493c0.012-0.012,0.518-0.408,0.555-0.432
		c0.68-0.495,1.396-0.964,2.124-1.396c3.087-1.89,6.569-3.248,10.175-3.902c0.605-0.11,1.21-0.186,1.803-0.332
		c2.038,6.79,4.433,13.482,6.866,20.138c2.864,7.843,6.136,15.473,10.1,22.832c3.829,7.113,8.373,13.856,13.077,20.4
		c4.038,5.63,8.323,11.05,12.175,16.806c1.951,2.901,3.89,5.815,6.001,8.605c1.408,1.878,2.89,4.051,4.742,5.631
		c-0.025,0.198-0.038,0.408-0.063,0.63c0.05-0.407-0.172,0.766-0.21,0.903c-0.147,0.604-0.308,1.22-0.456,1.826
		c-0.593,2.358-1.42,3.938-2.742,6.136c-0.629,1.05-1.333,2.088-2.037,3.088c-0.692,0.975-0.889,1.21-1.815,2.284
		c-1.42,1.631-3.025,3.113-4.42,4.075c-2.149,1.494-4.076,2.346-6.237,3.1c-2.469,0.864-5.013,1.382-7.582,1.815
		c-0.926,0.16-1.865,0.272-3.223,0.383c-1.247,0.112-2.506,0.134-3.753,0.197c-1.42,0.074-2.828,0.174-4.248,0.197
		c-1.383,0.038-2.729-0.1-4,0.334c-0.272-0.147-0.568-0.285-0.89-0.395c-1.396-0.507-3.013-0.581-4.482-0.618
		c-3.137-0.075-6.211,0.643-9.076,1.876c-5.248,2.273-9.792,6.656-10.323,12.571c-0.284,3.136,1.79,5.667,4.532,6.815
		c3.259,1.359,7.075,0.878,10.323-0.247c3.444-1.173,6.544-3.346,9.26-5.74c0.692-0.605,1.358-1.272,1.976-2.002
		c0.395,0.988,0.828,1.939,1.259,2.854c1.68,3.506,3.865,6.642,6.989,8.999c6.755,5.089,15.708,7.361,24.054,7.374
		c8.41,0.023,16.646-2.371,24.314-5.631c7.52-3.198,14.917-7.039,21.362-12.09c1.507-1.185,2.902-2.432,4.187-3.853
		c0.406-0.433,0.765-0.902,1.11-1.371c1.05-0.232,2.113-0.554,3.137-0.813c1.84-0.471,4.124-0.841,5.791-1.063
		c4.333-0.579,8.718-0.962,13.076-1.258c8.94-0.619,17.979-0.471,26.883,0.592c7.531,0.889,15.016,2.692,22.115,5.371
		c1.567,0.594,2.383,0.925,3.729,1.531c1.569,0.692,3.1,1.445,4.619,2.248c2.741,1.443,5.667,3.247,7.965,5.05
		c2.099,1.654,3.975,3.544,5.74,5.556c1.521,1.718,2.742,3.928,4.002,5.965c0.321,0.52,0.802,0.889,1.346,1.075
		c0,0.408,0.099,0.813,0.309,1.233c1.161,2.371,4.21,2.729,6.532,2.952c2.371,0.222,4.767,0.321,7.162,0.246
		c3.766-0.123,7.57-0.69,11.262-1.494c5.965-1.297,12.73-4.493,13.596-11.224c0.84-6.669-6.657-9.273-11.88-9.966
		c-6.716-0.888-13.892,1.827-19.437,5.62c0.026-0.111,0.063-0.223,0.1-0.334c1.037-3.729,1.247-7.596,0.975-11.447
		c-0.518-6.988-3.024-14.016-6.951-19.806c-4.112-6.039-9.607-10.533-15.621-14.583c-3.148-2.11-6.432-3.879-9.952-5.286
		c-1.063-0.419-2.284-0.852-3.494-1.098c0.346-0.396,0.68-0.792,1.014-1.199c1.579-1.913,3.11-3.877,4.629-5.841
		c2.718-3.531,5.323-7.136,7.854-10.791c5.037-7.286,9.458-15.053,13.582-22.868c4.162-7.867,7.916-15.941,11.311-24.167
		c3.112-7.556,6.348-15.138,8.743-22.954c0.777,0.284,1.581,0.48,2.383,0.631c2.309,0.407,4.644,0.555,6.978,0.442
		c4.371-0.196,8.68-1.233,12.805-2.643c7.261-2.481,14.273-5.988,20.831-9.977c12.139-7.384,22.992-17.078,31.03-28.845
		C388.369,149.469,392.876,135.712,392.084,121.834L392.084,121.834z M366.747,81.554L366.747,81.554
		c4.334,5.372,7.94,11.434,10.768,17.745c0.593,1.321,1.1,2.593,1.74,4.285c0.705,1.803,1.334,3.643,1.902,5.482
		c0.519,1.692,0.987,3.396,1.383,5.125c0.186,0.827,0.358,1.679,0.507,2.518c0.073,0.421,0.147,0.84,0.21,1.26
		c0.024,0.186,0.049,0.371,0.086,0.556c-0.013-0.025,0,0.111,0.037,0.407c0.049,0.334,0.075,0.667,0.111,1.014
		c-1.519-2.113-3.174-4.163-4.938-6.04c-4.175-4.433-9.09-8.101-14.535-10.792c-5.347-2.642-10.94-4.124-16.83-4.926
		c-2.717-0.383-5.693-0.643-8.509-0.272c1.458-3.989,1.816-8.347,1.025-12.756c-0.667-3.68-2.247-7.21-4.137-10.421
		c0.223-0.889,0.618-1.729,1.248-2.495c1.308-1.58,3.247-2.606,5.11-3.383c2.026-0.84,4.2-1.334,6.372-1.458
		c1.087-0.062,2.198-0.012,3.273,0.062c0.443,0.037,1.122,0.235,1.802,0.309C358.214,71.96,362.721,76.565,366.747,81.554
		L366.747,81.554z M321.429,70.638L321.429,70.638c-0.074,0.074-0.123,0.123-0.161,0.161c-0.049,0.025-0.098,0.062-0.159,0.112
		c-0.297,0.221-0.617,0.418-0.927,0.617c-0.654,0.408-1.358,0.765-2.062,1.099c0.159-0.086-0.617,0.247-0.68,0.26
		c-0.357,0.136-0.716,0.246-1.073,0.37c-0.718,0.222-1.457,0.407-2.186,0.581c-0.617,0.147-1.248,0.258-1.877,0.356
		c0.259-0.049-0.557,0.063-0.667,0.076c-0.457,0.049-0.928,0.074-1.396,0.098c-2.963,0.136-5.298-0.506-7.78-2.075
		c-0.036-0.025-0.58-0.407-0.617-0.419c-0.211-0.186-0.42-0.358-0.63-0.544c-0.271-0.247-0.518-0.518-0.765-0.778
		c-0.037-0.049-0.384-0.468-0.444-0.543c-0.285-0.407-0.531-0.826-0.767-1.271c0.05,0.062-0.223-0.531-0.259-0.629
		c-0.124-0.357-0.21-0.716-0.285-1.086c0.088,0.382-0.061-0.47-0.061-0.606c-0.025-0.357,0-0.716,0.012-1.074
		c0-0.049,0.012-0.087,0.012-0.123c0.013-0.063,0.037-0.148,0.063-0.285c0.073-0.37,0.186-0.74,0.295-1.111
		c0,0,0.272-0.642,0.297-0.728c0.161-0.322,0.333-0.643,0.52-0.963c0.592-1.025,0.79-1.234,1.333-1.852
		c0.506-0.594,1.074-1.136,1.654-1.655c0,0,0.543-0.432,0.594-0.481c0.259-0.186,0.518-0.359,0.777-0.531
		c0.643-0.432,1.333-0.791,2.025-1.148c0.345-0.173,0.69-0.32,1.049-0.481c-0.506,0.222,0.79-0.272,0.915-0.321
		c3.222-1.124,5.951-1.617,9.112-1.766c3.691-0.173,7.459,0.1,11.125,0.506c1.803,0.198,3.556,0.557,5.298,0.988
		c-0.038,0.012-0.074,0.037-0.099,0.05c-2.309,0.987-4.322,2.234-6.05,4.063c-1.544,1.618-2.435,3.63-2.632,5.852
		c-0.049,0.531-0.036,1.148,0.063,1.779c-0.198,0.136-0.396,0.271-0.593,0.444C323.344,68.527,322.503,69.688,321.429,70.638
		L321.429,70.638z M328.121,65.317L328.121,65.317c0.286-1.508,1.384-2.841,2.632-3.68c1.605-1.086,3.296-1.952,5.11-2.593
		c1.384-0.481,3.187-0.654,4.385-1.52c0.148,0.038,0.296,0.087,0.444,0.125c1,0.777,2,1.567,3,2.321
		c1.31,0.988,2.606,1.988,3.878,3.012c-2.729,0.248-5.359,1.013-7.866,2.137c-2.557,1.161-5.149,3.419-6.372,6.087
		C331.839,69.008,330.135,66.897,328.121,65.317L328.121,65.317z M272.877,62.835L272.877,62.835
		c0.951,4.223,1.653,8.495,2.444,12.742c1.001,5.372,2.112,10.62,2.667,15.954c0.309,2.889,0.495,5.78,0.927,8.668
		c0.049,0.309,0.098,0.618,0.147,0.938c-0.099,0.049-0.186,0.099-0.283,0.148c-1.013,0.63-1.655,1.927-1.261,3.124
		c0.175,0.543,0.42,1.025,0.716,1.457c-0.086,0.371-0.171,0.729-0.271,1.086c-0.469,1.792-1.1,3.521-1.864,5.175
		c0.136-1.087,0.26-2.174,0.37-3.273c0.407-4.148,0.407-8.347,0.272-12.521c-0.285-8.198-1.506-16.325-3.013-24.375
		c-1.372-7.273-2.804-14.534-5.174-21.56c-0.198-0.581-0.396-1.174-0.606-1.754c0.507,0.914,0.988,1.853,1.433,2.828
		C270.79,54.475,272.013,59.044,272.877,62.835L272.877,62.835z M236.573,24.061L236.573,24.061c2.63,0.668,5.173,1.631,7.618,2.791
		c-0.357,1.136-0.729,2.26-1.123,3.384c-0.765,2.173-1.594,4.372-2.853,6.31c-2,3.05-5.432,4.877-9.063,4.013
		c-4.025-0.963-6.595-4.606-8.496-8.015c-0.963-1.741-1.754-3.557-2.52-5.372c-0.506-1.197-1.086-2.358-1.678-3.519
		c0.284-0.086,0.556-0.173,0.84-0.248c1.395-0.396,2.765-0.827,4.111-1.309c0.68,0.013,1.346,0.038,2.024,0.087
		C229.201,22.406,232.918,23.136,236.573,24.061L236.573,24.061z M208.691,26.988L208.691,26.988
		c1.507-0.568,3.024-1.125,4.557-1.656c-0.173,1.137-0.311,2.261-0.495,3.397c-0.395,2.407-0.753,4.804-1,7.223
		c-0.271,2.568-0.555,5.125-0.777,7.692c-0.111,1.285-0.209,2.569-0.272,3.853c-0.086,1.531,0.075,2.556,0.581,4
		c0.198,0.568,0.951,0.568,1.148,0c0.444-1.234,0.715-2.136,0.766-3.458c0.062-1.284,0.147-2.568,0.259-3.84
		c0.197-2.568,0.494-5.137,0.767-7.693c0.271-2.568,0.592-5.112,0.975-7.668c0.185-1.259,0.531-2.853,0.494-4.322
		c0.321-0.111,0.642-0.21,0.963-0.321c0.42,1.482,0.777,2.976,1.271,4.446c0.766,2.234,1.618,4.433,2.668,6.544
		c2.123,4.273,5.594,8.001,10.336,9.199c4.495,1.136,8.902-0.876,11.854-4.248c1.852-2.124,2.964-4.654,3.976-7.26
		c0.445-1.136,0.827-2.297,1.21-3.446c0.901,1.716,1.568,3.581,2.323,5.384c2.209,5.347,4.642,10.595,6.419,16.114
		c0.224,0.705,1.335,0.408,1.125-0.309c-0.927-3.185-1.421-6.421-2.261-9.62c-0.729-2.716-1.642-5.37-2.419-8.075
		c-0.075-0.259-0.161-0.531-0.235-0.79c0.999,0.741,1.964,1.494,2.901,2.272c2.161,1.802,4.126,3.654,5.903,5.605
		c1.506,3.655,2.803,7.396,3.84,11.213c1.915,6.964,3.186,14.064,4.532,21.164c1.482,7.916,2.605,15.904,3.074,23.943
		c0.223,3.989,0.234,7.99,0.074,11.979c-0.074,2-0.247,4-0.445,6c-0.135,1.346-0.357,2.704-0.396,4.075
		c-0.147,0.185-0.283,0.369-0.433,0.555c-0.048-0.752-0.109-1.494-0.171-2.198c-0.321-3.791-1.137-7.582-2.606-11.101
		c-1.58-3.778-3.729-7.285-6.322-10.422c-0.049-0.444-0.148-0.852-0.198-1.099c-0.419-1.79-0.716-3.531-0.876-5.371
		c-0.148-1.778-0.233-3.582-0.568-5.347c-0.196-1.025-0.494-2.037-0.777-3.038c-0.283-1.049-0.877-1.938-1.235-2.952
		c-0.308-0.901-1.643-0.765-1.666,0.223c-0.013,0.877-0.111,1.717-0.074,2.606c0.036,0.975,0.396,1.999,0.581,2.963
		c0.332,1.815,0.407,3.705,0.566,5.544c0.063,0.728,0.137,1.457,0.223,2.186c-0.987-0.926-2.025-1.816-3.1-2.655
		c-5.545-4.334-12.063-7.446-19.09-8.298c-7.175-0.877-14.101,0.951-20.164,4.804c-1.742,1.111-3.42,2.334-5.026,3.617
		c-0.061-0.703-0.148-1.357-0.173-1.814c-0.086-2.347,0.013-4.729,0.234-7.064c0.05-0.505-0.728-0.84-1.05-0.431
		c-1.506,1.876-1.493,4.297-1.481,6.618c0,1.311,0.073,2.619,0.124,3.928c0,0.209,0.013,0.457,0.038,0.716
		c-4.978,4.409-9.274,9.595-13.078,15.041c-2.865,4.111-5.321,8.532-7.618,12.977c-0.568,1.111-1.099,2.26-1.618,3.396
		c-0.013-0.506-0.024-1.014-0.038-1.531c-0.061-2.174-0.024-4.347,0.05-6.52c0.137-4.569,0.506-9.112,0.865-13.669
		c0.703-8.916,1.321-17.793,3.025-26.598c1.667-8.655,3.864-17.299,6.519-25.708c2.038-6.434,4.458-12.719,6.989-18.955
		C205.728,28.149,207.209,27.556,208.691,26.988L208.691,26.988z M264.628,126.329L264.628,126.329
		c-0.259,0.197-0.53,0.383-0.79,0.58c-0.766,0.542-1.544,1.049-2.347,1.543c-3.124,1.926-5.939,3.062-9.312,4.198
		c-7.68,2.605-15.002,3.593-22.966,3.84c-11.237,0.347-22.449-0.926-33.302-3.383c-3.655-0.828-7.434-1.778-10.669-3.691
		c1.209-2.075,2.198-4.334,3.383-6.384c1.84-3.173,3.705-6.347,5.692-9.422c4.001-6.174,8.52-12.026,13.842-17.102
		c5.014-4.779,11.113-9.311,17.831-11.286c6.37-1.866,13.224-0.828,19.164,1.938c7.125,3.321,13.236,9.014,17.411,15.646
		c2.358,3.753,4,7.927,4.927,12.248c0.444,2.063,0.654,4.163,0.716,6.262c0.012,0.629,0.012,1.259-0.012,1.877
		c-0.951,0.925-1.939,1.827-2.976,2.666C265.208,125.873,264.764,126.217,264.628,126.329L264.628,126.329z M169.833,77.764
		L169.833,77.764c0.678-2.927,1.963-5.545,3.531-8.077c0.715-1.149,1.469-2.247,2.382-3.248c1.211-1.333,2.803-2.111,2.865-4.136
		c0.013-0.766-0.444-1.642-1.147-1.988c-0.223-0.111-0.458-0.197-0.692-0.259c0.259-1.506,0.605-2.976,1.05-4.458
		c0.864-2.877,2.086-5.483,3.655-8.174c1.506-2.593,2.902-4.396,4.889-6.544c2-2.161,4.273-4.113,6.397-5.644
		c2.568-1.852,5.247-3.433,8.001-4.816c-0.642,1.248-1.222,2.532-1.778,3.83c-1.692,3.975-3.16,8.063-4.556,12.162
		c-2.927,8.533-5.297,17.25-7.038,26.117c-1.742,8.878-2.606,17.954-3.076,26.981c-0.246,4.543-0.396,9.113-0.531,13.657
		c-0.061,2.186-0.074,4.358-0.025,6.531c0.025,1.086,0.086,2.162,0.186,3.236c0.037,0.53,0.098,1.062,0.16,1.592
		c0.074,0.68,0.482,1.198,0.654,1.853c0.013,0.013,0.013,0.038,0.025,0.062c-0.31,0.691-0.618,1.383-0.89,2.099
		c-0.654-0.469-1.272-0.976-1.853-1.557c-2.506-2.469-3.914-5.642-5.296-8.815c-0.47-2.346-0.803-4.742-1.062-7.101
		c-0.322-3.1-0.396-6.235-0.372-9.359c0.025-1.63,0.087-3.273,0.161-4.915c0.086-1.914,0.396-3.605-1.358-4.853
		c-0.21-0.147-0.481-0.234-0.766-0.271c-0.469-0.643-1.025-1.235-1.58-1.791c-1.013-1.025-1.656-2.185-2.051-3.543
		C168.918,83.567,169.177,80.529,169.833,77.764L169.833,77.764z M38.831,239.116L38.831,239.116
		c-7.322-7.769-13.57-16.646-17.682-26.488c1.715,1.038,3.47,2.027,5.322,2.891c4.581,2.149,9.396,2.952,14.41,3.322
		c5.099,0.382,10.434,0.531,15.533,0.099c1.902-0.147,3.754-0.569,5.545-1.235c-0.038,0.1-0.075,0.21-0.111,0.31
		c-2.803,9.285-1.556,19.251,2.248,28.03c-2.223,1.197-3.829,3.666-4.915,5.827c-0.666,1.322-1.136,2.706-1.494,4.138
		c-0.013,0.024-0.013,0.062-0.025,0.088c-0.705-0.558-1.42-1.138-2.187-1.743C49.611,249.623,43.992,244.599,38.831,239.116
		L38.831,239.116z M75.505,257.65L75.505,257.65c2.321-2.531,4.359-5.1,7.482-6.692c0.654-0.334,1.395-0.519,2.112-0.691
		c0.357-0.099,0.717-0.16,1.074-0.234c-0.357,0.074,0.703-0.061,0.717-0.061c0.802-0.063,1.605-0.039,2.407,0
		c0.408,0.023,0.815,0.023,1.222,0.048c0.222,0.013,0.458,0.023,0.68,0.051c0.062,0.012,0.124,0.023,0.209,0.036
		c0.792,0.135,1.581,0.356,2.347,0.617c0.037,0.013,0.63,0.248,0.741,0.284c0.284,0.135,0.567,0.283,0.839,0.432
		c1.667,0.89,2.173,1.358,3.532,2.952c-0.482-0.557,0.357,0.567,0.357,0.567c0.198,0.31,0.359,0.642,0.531,0.975
		c-0.223-0.419,0.186,0.568,0.21,0.631c0.123,0.384,0.186,0.766,0.26,1.147c-0.173-0.949-0.013,0.235,0,0.384
		c0.012,0.272-0.013,0.542-0.026,0.828c0.013-0.372-0.086,0.505-0.111,0.641c-0.099,0.445-0.234,0.864-0.395,1.284
		c0.185-0.531-0.21,0.445-0.26,0.544c-0.186,0.345-0.395,0.666-0.592,1.001c-0.025,0.036-0.396,0.53-0.458,0.617
		c-0.197,0.234-0.407,0.469-0.617,0.69c-0.284,0.297-0.581,0.567-0.876,0.852c-0.025,0.014-0.581,0.458-0.63,0.507
		c-0.668,0.481-1.383,0.89-2.1,1.284c-3.173,1.741-6.792,2.581-10.261,2.642c-4,0.075-7.014-0.469-10.916-1.592
		c-0.481-0.136-0.963-0.283-1.432-0.457c-0.074-0.074-0.148-0.147-0.235-0.222c0.062-0.544,0.087-1.024,0.111-1.297
		c0.222-2.358,0.655-4.742,1.408-7.002c0.173,0.037,0.358,0,0.507-0.086C74.097,258.503,74.887,258.33,75.505,257.65L75.505,257.65z
		 M71.504,257.54L71.504,257.54c-0.124,0.086-0.223,0.21-0.284,0.382c-0.876,2.162-1.939,4.212-2.643,6.447
		c-1.506-1.175-3.05-2.285-4.581-3.434c-1.617-1.198-3.025-2.272-4.432-3.359c0.11-0.223,0.21-0.433,0.308-0.642
		c0.519-1.101,0.963-2.21,1.544-3.272c0.581-1.075,1.272-2.061,2.074-2.962c0.593-0.681,1.296-1.198,1.988-1.743
		c0.543,1.063,1.136,2.112,1.753,3.126C68.441,254.083,69.726,256.046,71.504,257.54L71.504,257.54z M207.937,292.423
		L207.937,292.423c0.334-0.396,0.73-0.777,1.149-1.137c0.024,0,0.063-0.012,0.087-0.012c0.519-0.1,1.013-0.222,1.53-0.309
		c1.025-0.172,1.927-0.457,2.989-0.443c1.827,0.013,3.679-0.076,5.507-0.148c3.063-0.125,6.187-0.321,9.114,0.728
		c1.072,0.384,1.925,1.198,2.48,2.161c0.235,0.395,0.296,0.717,0.309,0.976c0.014,0.024-0.037,0.47-0.024,0.542
		c-0.074,0.26-0.21,0.693-0.159,0.606c-0.977,2.161-3.263,3.518-5.496,4.644c-2.161,1.073-3.569,1.248-5.915,1.406
		c-2.68,0.186-5.358,0.322-8.039,0.013c-0.852-0.086-1.814-0.271-2.728-0.58c-0.161-0.346-0.433-0.655-0.791-0.827
		c-0.494-0.247-0.963-0.37-1.445-0.42c-0.197-0.186-0.383-0.383-0.543-0.605C204.505,297.029,206.617,293.917,207.937,292.423
		L207.937,292.423z M251.625,287.769L251.625,287.769c-0.099,0.11-0.185,0.21-0.259,0.282c-1.815,1.977-4.569,3.174-6.902,4.396
		c-2.422,1.261-4.743,2.543-7.348,3.396c-0.196,0.073-0.406,0.136-0.618,0.186c0.235-1.172,0.185-2.419-0.234-3.716
		c1.644-0.408,3.31-1.174,4.619-1.741c2.729-1.187,5.296-2.644,7.877-4.1c1.864-1.051,3.742-2.112,5.52-3.298
		C253.132,284.583,252.059,286.063,251.625,287.769L251.625,287.769z M202.615,295.571L202.615,295.571
		c-0.444,1.421-0.457,2.94-0.062,4.347c-1.247,0.112-2.506,0.197-3.752,0.26c-3.138,0.161-6.285,0.186-9.422,0.05
		c-6.446-0.285-12.83-1.372-19.213-2.224c-4.989-0.666-10.04-0.901-14.991-1.825c-1.062-0.2-2.136-0.434-3.198-0.719
		c-0.025-0.184-0.049-0.37-0.111-0.567c-0.296-1.013-0.604-1.89-1.247-2.753c-0.655-0.902-1.383-1.704-2.124-2.532
		c-0.605-0.703-1.186-1.407-1.741-2.111c2.124,0.543,4.273,0.964,6.421,1.372c6.186,1.195,12.323,2.396,18.571,3.246
		c6.248,0.865,12.46,1.47,18.77,1.482c3.025,0.013,6.039-0.124,9.064-0.197c1.408-0.036,2.802-0.137,4.185-0.335
		C203.258,293.917,202.863,294.769,202.615,295.571L202.615,295.571z M99.423,329.986L99.423,329.986
		c-1.852,1.914-4.025,3.383-6.396,4.593c-2.112,1.086-4.297,1.804-6.693,1.606c-0.37-0.024-0.79-0.198-1.135-0.322
		c0.172,0.062,0.172,0.038-0.024-0.062c0.024,0-0.272-0.234-0.384-0.321c-0.024-0.037-0.062-0.099-0.098-0.184
		c-0.05-0.186-0.099-0.371-0.124-0.544c0.1,0.456,0.038-0.21,0.025-0.384c0.024,0.063,0.172-0.716,0.209-0.853
		c0.099-0.369,0.197-0.591,0.333-0.889c0.42-0.876,0.963-1.617,1.618-2.321c1.457-1.568,3.359-2.791,5.322-3.604
		c2-0.827,4.211-1.372,6.372-1.531c1.185-0.099,2.346,0,3.531,0.074c0.135,0,0.259,0,0.395,0.012
		c0.198,0.32,0.445,0.631,0.716,0.889c0,0.013,0,0.013,0,0.024c0,0.063,0.013,0.112,0.013,0.174
		C101.756,327.43,100.583,328.775,99.423,329.986L99.423,329.986z M145.21,343.939L145.21,343.939
		c-6.964,1.407-14.781,1.038-21.523-1.877c-1.914-0.827-3.767-1.814-5.544-2.889c-1.68-1.001-2.445-1.644-3.766-3.052
		c-2-2.136-3.408-5.099-5.075-7.729c0.691,0.075,1.346,0.124,1.951,0.16c2.803,0.199,5.631-0.012,8.422-0.358
		c6.137-0.777,12.347-2.641,17.472-6.222c3.68-2.557,6.829-6.025,9.262-9.842c1.062,0.593,2.148,1.124,3.173,1.777
		c3.173,2,6.014,4.581,8.409,7.459c2.112,2.506,4.001,5.074,5.224,8.137c0.617,1.568,1.074,3.21,1.458,4.853
		c0.16,0.692,0.234,1.545,0.406,2.347C158.706,339.853,152.372,342.495,145.21,343.939L145.21,343.939z M177.611,329.664
		L177.611,329.664c-2.778,1.816-5.668,3.495-8.607,5.052c-0.038-0.21-0.086-0.42-0.123-0.618c-0.346-1.667-0.815-3.308-1.433-4.902
		c-1.234-3.247-3.025-6.136-5.26-8.779c-2.383-2.841-5.038-5.396-8.076-7.521c-1.556-1.074-3.198-2.037-4.915-2.788
		c-0.432-0.187-0.864-0.359-1.296-0.521c0.013-0.037,0.024-0.062,0.037-0.086c1.012-1.889,1.876-3.902,2.469-5.977
		c1.853-0.062,3.681,0.223,5.471,0.679c3.828,0.964,7.471,2.976,10.816,5.014c3.706,2.235,7.163,4.902,10.188,8
		c1.445,1.471,2.692,3.15,3.865,4.829c0.654,0.938,1.247,1.902,1.828,2.877c0.16,0.285,0.321,0.593,0.482,0.891
		c-0.137,0.098-0.284,0.196-0.421,0.295C180.97,327.319,179.34,328.529,177.611,329.664L177.611,329.664z M210.95,318.737
		L210.95,318.737c-4.901,0.309-9.829,0.778-14.668,1.567c-2.31,0.384-4.507,0.976-6.681,1.854c-0.322,0.135-0.654,0.271-0.988,0.418
		c-0.457-0.049-0.95,0.087-1.432,0.446c-0.334,0.248-0.667,0.493-1.014,0.728c-0.616-1.11-1.407-2.173-2.049-3.11
		c-1.32-1.964-2.803-3.879-4.433-5.596c-3.272-3.457-7.211-6.321-11.273-8.766c-3.705-2.235-7.829-4.372-12.077-5.335
		c-1.371-0.31-3.31-0.654-5.236-0.679c0.062-0.581,0.086-1.174,0.074-1.766c0.532,0.196,1.05,0.394,1.581,0.579
		c4.939,1.729,10.113,2.272,15.25,3.052c6.743,1.035,13.509,2.159,20.313,2.642c3.322,0.234,6.643,0.234,9.966,0.135
		c1.728-0.049,3.443-0.172,5.16-0.333c0.864-0.074,1.766-0.11,2.605-0.296c1.568,0.938,3.407,1.494,5.111,1.877
		c4.965,1.099,10.731,1.32,15.522-0.593c2.68-1.063,5.742-2.938,7.754-5.384c1.075-0.16,2.148-0.482,3.187-0.777
		c2.901-0.853,5.519-2.248,8.162-3.68c0.433-0.234,0.864-0.471,1.296-0.705c-1.432,1.421-2.704,2.988-3.939,4.618
		c-2.223,2.965-4.087,6.261-5.692,9.595c-0.767,1.593-1.444,3.234-2.036,4.891c-0.531,1.457-1.235,3.383-1.037,5.039
		C226.595,318.318,218.705,318.256,210.95,318.737L210.95,318.737z M305.315,342.321L305.315,342.321
		c1.63-0.468,3.284-0.765,4.975-0.877c0.816-0.061,1.656-0.086,2.471-0.012c0.197,0.012,0.396,0.037,0.594,0.063
		c-0.075,0,0.529,0.086,0.554,0.086c1.187,0.198,2.359,0.519,3.494,0.938c-0.023,0,0.891,0.456,1.198,0.653
		c0.26,0.149,0.63,0.594,0.716,0.729c0.051,0.075,0.089,0.124,0.112,0.161c0.012,0.025,0.012,0.063,0.038,0.1
		c0.012,0.061,0.048,0.297,0.072,0.432c-0.012,0.186-0.036,0.469-0.012,0.433c-0.049,0.246-0.122,0.494-0.198,0.741
		c-0.013,0.05-0.024,0.099-0.036,0.123c-0.024,0.049-0.063,0.11-0.098,0.197c-0.025,0.049-0.298,0.433-0.322,0.482
		c-0.147,0.173-0.296,0.334-0.457,0.48c-0.037,0.036-0.494,0.396-0.481,0.396c-2.185,1.544-4.261,2.049-7.137,2.692
		c-0.617,0.135-1.235,0.246-1.865,0.357c-0.198,0.025-0.396,0.062-0.593,0.088c-0.123,0.012-0.297,0.036-0.357,0.049
		c-2.211,0.259-4.384,0.566-6.62,0.642c-2.197,0.073-4.407,0.013-6.604-0.124c-1.236-0.073-2.655-0.247-3.977-0.122
		c0.333-0.273,0.667-0.569,1.014-0.878c1.297-1.124,2.629-2.235,4.024-3.235C298.709,344.865,301.918,343.31,305.315,342.321
		L305.315,342.321z M281.508,313.637L281.508,313.637c3.248,5.138,5.051,10.236,5.976,16.423c0.149,0.914,0.111,0.619,0.21,1.556
		c0.075,0.729,0.124,1.471,0.174,2.211c0.099,1.853-0.024,3.68-0.16,5.52c-0.124,1.643-0.494,3.234-0.742,4.854
		c-2.173-3.272-5.234-6.112-8.124-8.385c-5.421-4.273-11.483-7.446-17.843-10.089c-3.581-1.493-7.261-2.715-11.003-3.703
		c2.334-5.138,4.891-10.324,8.73-14.46c1.778-1.914,4.088-3.26,6.496-4.224c1.469-0.569,3.432-0.901,5.075-1.592
		C274.618,305.24,278.631,309.106,281.508,313.637L281.508,313.637z M265.999,298.499L265.999,298.499
		c-0.815,0.32-1.581,0.653-2.261,0.926c-2.864,1.148-5.42,2.729-7.569,4.964c-2.458,2.544-4.235,5.828-5.853,8.94
		c-1.309,2.53-2.543,5.187-3.334,7.939c-2.938-0.68-5.902-1.235-8.903-1.654c0.494-1.063,0.68-2.26,1.014-3.408
		c0.456-1.532,1.086-3.001,1.753-4.446c1.407-3.099,3.147-6.05,5.062-8.865c1.632-2.396,3.372-4.681,5.569-6.606
		c1.111-0.963,2.334-1.815,3.619-2.507c0.432-0.233,0.863-0.443,1.296-0.642c1.445,0.74,2.913,1.407,4.358,2.16
		C262.555,296.239,264.307,297.325,265.999,298.499L265.999,298.499z M383.343,131.54L383.343,131.54
		c-0.013,0.037-0.013,0.074-0.013,0.111c-0.013,0.073-0.024,0.185-0.049,0.346c-0.063,0.395-0.136,0.79-0.197,1.172
		c-0.298,1.705-0.68,3.372-1.125,5.039c-0.406,1.532-0.901,3.038-1.432,4.532c-0.271,0.74-0.556,1.481-0.852,2.223
		c-0.037,0.086-0.062,0.148-0.086,0.209c-0.026,0.063-0.063,0.136-0.101,0.247c-0.222,0.482-0.432,0.963-0.653,1.445
		c-1.408,3.038-3.075,5.939-4.891,8.742c-0.89,1.359-1.827,2.68-2.803,3.977c-0.013,0.012-0.357,0.468-0.457,0.605
		c-0.21,0.258-0.42,0.531-0.629,0.791c-0.606,0.741-1.224,1.469-1.84,2.197c-2.248,2.605-4.669,5.075-7.188,7.409
		c-1.222,1.136-2.481,2.222-3.754,3.297c-1.593,1.333-2.37,1.938-3.728,2.951c-2.779,2.075-5.669,3.988-8.633,5.792
		c-5.754,3.495-11.891,6.544-17.979,8.729c-1.729,0.63-3.506,1.161-5.298,1.605c-1.938,0.494-3.543,0.753-5.235,0.877
		c-0.814,0.062-1.63,0.074-2.458,0.074c-0.481,0-0.975-0.037-1.456-0.062c0.099,0-1.234-0.124-0.927-0.075
		c-0.938-0.123-1.876-0.296-2.802-0.493c-0.013,0-0.038,0-0.05,0c2.062-8.854,3.049-17.892,2.74-27.03
		c-0.049-1.358-1.975-1.321-2.099,0c-0.852,9.792-3.247,19.251-6.52,28.438c-0.383,0.494-0.604,1.087-0.629,1.717
		c-2.198,5.952-4.755,11.793-7.484,17.535c-3.741,7.853-7.297,15.768-11.212,23.547c-3.963,7.891-8.271,15.609-12.978,23.091
		c-3.037,4.815-6.248,9.509-9.606,14.103c-0.211,0.283-0.42,0.555-0.631,0.839c-1.752-0.383-3.05,1.297-4.136,2.445
		c-1.927,2.037-4.903,3.321-7.311,4.705c-2.568,1.481-5.148,2.964-7.815,4.26c-1.347,0.667-2.742,1.209-4.175,1.68
		c-0.741,0.233-1.543,0.369-2.333,0.542c-2.704-3.149-7.372-4.087-11.509-4.099c-2.494-0.013-4.939,0.433-7.396,0.766
		c-1.285,0.172-2.37,0.679-3.506,1.173c-2.348,0.049-4.656,1.556-6.447,3.506c-0.136-0.073-0.284-0.111-0.432-0.111
		c-0.1-0.061-0.84-0.061-0.938-0.049c-0.703,0.025-1.396,0.087-2.099,0.1c-1.396,0.011-2.803-0.123-4.199-0.211
		c-2.852-0.172-5.705-0.186-8.557-0.309c-5.927-0.246-11.83-1.048-17.695-1.865c-5.877-0.826-11.668-1.975-17.485-3.122
		c-2.581-0.508-5.186-0.939-7.754-1.533c-1.124-0.259-2.26-0.604-3.408-0.937c-1.63-2.359-3.198-4.766-4.828-7.138
		c-4.593-6.668-9.853-12.854-14.497-19.511c-4.617-6.618-8.903-13.521-12.682-20.658c-3.877-7.298-6.828-14.991-10.05-22.596
		c-2.729-6.423-5.384-12.881-7.582-19.511c-2.124-6.372-4.038-13.077-5.038-19.732c-0.123-0.791-1.309-0.556-1.346,0.173
		c-0.173,4.111,0,8.112,0.593,12.187c0.445,3.063,1.136,6.101,1.926,9.113c-1.124,0.05-2.248,0.297-3.26,0.52
		c-2.296,0.506-4.47,1.432-6.618,2.357c-3.1,1.335-5.878,3.211-8.446,5.397c-3.013,2.568-5.396,5.766-7.162,9.284
		c-0.976,0.508-1.927,1.261-2.705,1.631c-1.839,0.89-3.901,1.346-5.914,1.52c-5.002,0.432-10.151,0.396-15.152,0.11
		c-4.619-0.26-9.002-1.075-13.225-2.978c-2.52-1.135-4.89-2.457-7.359-3.604c-0.878-2.471-1.618-4.977-2.211-7.558
		c-0.37-1.642-0.667-3.298-0.913-4.963c-0.013-0.051-0.025-0.1-0.025-0.137c-0.013-0.074-0.024-0.197-0.049-0.396
		c-0.05-0.407-0.087-0.827-0.136-1.235c-0.086-0.95-0.161-1.9-0.21-2.852c-0.186-3.347-0.062-6.705,0.295-10.039
		c0.038-0.284,0.075-0.568,0.1-0.853c0,0.038,0.11-0.715,0.123-0.777c0.112-0.791,0.259-1.569,0.408-2.346
		c0.309-1.68,0.716-3.346,1.16-5.001c0.42-1.531,0.902-3.037,1.42-4.53c0.259-0.754,0.543-1.496,0.828-2.235
		c0.135-0.371,0.284-0.742,0.432-1.112c0.061-0.148,0.135-0.308,0.198-0.457c0-0.012,0.061-0.137,0.16-0.371
		c5.545-12.781,13.72-22.771,24.042-31.994c1.259-1.124,2.544-2.21,3.84-3.286c1.605-1.322,2.433-1.964,3.804-2.976
		c2.815-2.112,5.729-4.087,8.705-5.962c2.951-1.866,5.976-3.594,9.076-5.225c1.457-0.766,2.951-1.506,4.445-2.222
		c0.741-0.358,1.482-0.704,2.235-1.038c0.371-0.172,0.742-0.345,1.124-0.506c0.124-0.061,1.161-0.506,1.025-0.457
		c15.929-6.52,33.229-9.804,50.22-11.829c3.902-0.471,7.829-0.766,11.718-1.309c3.272-0.458,6.421-0.951,9.694-1.272
		c3.531-0.333,7.063-0.371,10.607-0.321c1.74,0.012,3.457,0.309,5.186,0.358c0.715,0.012,1.457,0.085,2.149,0.246
		c0.418,0.099,0.863,0.137,1.32,0.149c0,0.087,0,0.186,0,0.271c-0.062,1.642-0.099,3.285-0.099,4.915
		c-0.012,3.346,0.296,6.656,0.827,9.965c0.284,1.84,0.704,3.619,1.247,5.372c0.79,6.68,3.568,13.348,9.014,17.447
		c6.249,4.706,14.67,6.087,22.14,7.681c15.991,3.408,33.143,3.791,48.911-0.964c5.828-1.753,11.509-4.223,16.398-7.878
		c4.841-3.618,8.879-8.075,11.966-13.261c1.778-3.001,3.235-6.372,4.209-9.868c1.149,0.496,2.334,1.015,3.459,1.495
		c3.481,1.482,7.014,2.914,10.729,3.742c6.187,1.37,12.721,1.222,18.844-0.42c5.928-1.568,11.646-4.692,15.769-9.274
		c1.111-1.235,2.087-2.556,2.902-3.951c3.358-0.457,6.754-0.235,10.211,0.333c5.335,0.876,10.472,2.296,15.338,4.704
		c4.84,2.396,9.421,5.532,13.162,9.422c2.037,2.123,3.829,4.519,5.495,6.94c0.938,1.345,1.74,2.791,2.63,4.173
		c-0.025,0.592-0.049,1.184-0.099,1.777C383.516,129.947,383.44,130.736,383.343,131.54L383.343,131.54z"/>
	<path fill="#321A1B" d="M172.475,208.048c-2.445-0.086-4.878,0.322-7.286,0.742c-2.767,0.479-5.569,0.789-8.372,0.961
		c-5.581,0.36-11.237,0.089-16.67-1.222c-3.815-0.925-7.644-2.531-11.175-4.198c-3.384-1.606-7.421-3.84-9.014-7.407
		c-0.371-0.853-1.791-0.248-1.482,0.629c2.828,8.161,12.682,10.867,19.979,13.521c2.643,0.952,5.667,1.26,8.446,1.555
		c2.963,0.31,5.939,0.335,8.915,0.211c2.938-0.11,5.854-0.444,8.755-0.876c2.877-0.421,5.742-1.001,8.298-2.457
		C173.561,209.098,173.24,208.073,172.475,208.048L172.475,208.048z"/>
	<path fill="#321A1B" d="M291.165,205.826c-2.606,1.16-5.496,1.802-8.287,2.396c-2.79,0.592-5.618,1.012-8.47,1.147
		c-2.729,0.137-5.471,0.024-8.188-0.283c-1.506-0.173-3-0.372-4.494-0.543c-1.396-0.161-2.988-0.594-4.347-0.161
		c-0.668,0.221-0.853,0.987-0.396,1.508c0.926,1.049,2.494,1.417,3.791,1.839c1.593,0.507,3.297,0.853,4.951,1.062
		c3.051,0.37,6.1,0.482,9.163,0.234c3-0.247,5.977-0.789,8.828-1.729c2.977-0.962,5.655-2.418,8.471-3.729
		C293.374,207.022,292.337,205.294,291.165,205.826L291.165,205.826z"/>
	<path fill="#321A1B" d="M226.83,252.688c-1.814-1.162-5.248-1.125-6.322,0.975c-0.433,0.841-0.036,1.717,0.827,2.038
		c1.187,0.433,2.471-0.31,3.582,0.26c0.9,0.456,0.32,1.643-0.039,2.271c-1.258,2.197-4.024,2.518-6.26,1.877
		c-2.419-0.68-3.938-2.643-3.259-5.124c0.666-2.47,2.926-5.064,4.901-6.594c0.654-0.508-0.062-1.483-0.753-1.31
		c-4.051,1.037-7.52,4.531-7.928,8.791c-0.432,4.605,3.655,7.792,7.865,8.287c4.236,0.493,8.706-1.891,9.632-6.274
		C229.522,255.786,228.608,253.811,226.83,252.688L226.83,252.688z"/>
	<path fill-rule="evenodd" clip-rule="evenodd" fill="#C7564A" d="M209.072,123.525L209.072,123.525
		c-0.604-0.875-0.999-1.827-1.245-2.815c0.691,0.024,1.37,0.248,2.012,0.47c1.569,0.542,2.853,1.604,4.025,2.741
		c0.951,0.913,1.693,1.963,2.322,3.136c0.185,0.345,0.333,0.729,0.481,1.111c-0.543-0.086-1.075-0.222-1.617-0.382
		C212.704,127.057,210.48,125.539,209.072,123.525L209.072,123.525z"/>
	<path fill-rule="evenodd" clip-rule="evenodd" fill="#FFFFFF" d="M223.533,108.077L223.533,108.077
		c3.532,1.853,7.421,3.187,11.372,3.767c1.136,0.174,2.298,0.285,3.445,0.347c-0.333,0.16-0.679,0.295-1.024,0.432
		c-1.803,0.654-3.619,1.062-5.52,1.37c-3.372,0.557-6.989,0.618-10.237-0.555c-2.841-1.025-4.741-3.422-6.075-6.001
		c-0.69-1.346-1.234-2.865-1.395-4.371c-0.087-0.753-0.013-1.371,0.136-1.964c0.568,0.63,1.186,1.198,1.667,1.63
		C218.175,104.819,220.793,106.658,223.533,108.077L223.533,108.077z"/>
</g>
</svg>
