<?xml version="1.0" encoding="utf-8"?>
<!-- Generator: Adobe Illustrator 16.0.0, SVG Export Plug-In . SVG Version: 6.00 Build 0)  -->
<!DOCTYPE svg PUBLIC "-//W3C//DTD SVG 1.1//EN" "http://www.w3.org/Graphics/SVG/1.1/DTD/svg11.dtd">
<svg version="1.1" id="Layer_1" xmlns="http://www.w3.org/2000/svg" xmlns:xlink="http://www.w3.org/1999/xlink" x="0px" y="0px"
	 width="400px" height="400px" viewBox="0 0 400 400" enable-background="new 0 0 400 400" xml:space="preserve">
<g>
	<path fill-rule="evenodd" clip-rule="evenodd" fill="#E4D0AA" d="M200.001,395.414c80.281,0,145.751-9.159,145.751-20.392
		c0-11.231-65.47-20.391-145.751-20.391c-80.282,0-145.752,9.159-145.752,20.391C54.249,386.255,119.719,395.414,200.001,395.414
		L200.001,395.414z"/>
	<path fill-rule="evenodd" clip-rule="evenodd" fill="#321A1B" d="M386.918,173.095c-5.777-12.275-14.812-22.9-24.727-32.057
		c-11.046-10.189-23.51-18.986-36.42-26.653c-11.432-6.797-23.421-12.674-35.809-17.508c-6.188-2.41-12.525-4.411-18.949-6.088
		c-3.082-0.795-6.201-1.627-9.346-2.087c-1.727-0.249-3.453-0.485-5.18-0.696c-0.882-0.111-1.752-0.285-2.624-0.148
		c-0.022,0.011-0.048,0.011-0.061,0.011c0.273-2.969-0.051-5.976-0.82-8.859c-0.782-2.908-2.101-5.654-3.951-8.028
		c-0.857-1.092-1.765-2.161-2.832-3.031c-0.548-0.448-1.155-0.957-1.815-1.317c0.448-2.983-0.596-6.226-1.417-9.058
		c-0.955-3.294-2.36-6.487-3.902-9.543c-3.006-6.014-7.517-11.42-12.673-15.731c-5.69-4.771-12.339-7.865-19.521-9.704
		c-8.499-2.187-17.297-2.833-25.994-1.59c-5.666,0.807-11.245,2.77-16.054,5.89c-4.871,3.143-8.946,7.243-12.438,11.84
		c-3.267,4.313-5.964,9.221-8.35,14.079c-1.354,2.759-2.323,5.654-2.709,8.71c-0.161,1.292-0.349,2.672-0.224,3.964
		c0.013,0.112,0.025,0.2,0.038,0.299c-0.349,0.895-0.746,1.776-1.218,2.61c-0.299,0.546-0.584,1.218-0.522,1.851
		c-0.235,0.46-0.446,0.982-0.473,1.454c0,0.062,0,0.124,0,0.186c-1.217,1.082-2.136,2.623-2.895,4.051
		c-1.454,2.722-2.138,5.766-2.299,8.834c-0.174,3.256,0.05,6.81,1.057,10.053c-0.981,0.112-1.976,0.31-2.971,0.461
		c-2.348,0.347-4.659,0.843-6.982,1.341c-4.448,0.957-8.847,2.225-13.208,3.516c-8.114,2.398-16.004,5.679-24.392,7.133
		c-3.454,0.596-7.443,0.583-10.872-0.349c-3.095-0.857-5.12-2.223-7.244-4.695c-0.063-0.063-0.1-0.125-0.149-0.163
		c-0.025-0.05-0.075-0.112-0.125-0.187c-0.224-0.297-0.435-0.621-0.633-0.931c-0.422-0.645-0.783-1.305-1.118-1.988
		c-0.148-0.286-0.286-0.583-0.423-0.882c0.199,0.448-0.211-0.534-0.236-0.596c-0.311-0.846-0.571-1.715-0.808-2.585
		c-0.198-0.758-0.36-1.527-0.497-2.298c-0.062-0.335-0.123-0.67-0.174-1.006c0.088,0.546-0.049-0.56-0.062-0.633
		c-0.175-1.739-0.188-3.491-0.101-5.231c0.175-3.678,0.896-7.58,2.436-11.046c0.833-1.864,1.852-3.654,2.959-5.368
		c0.745-1.143,1.564-2.274,2.297-3.429c0.907,0.708,1.841,1.403,2.747,2.087c1.641,1.255,3.255,2.521,4.996,3.653
		c3.354,2.2,7.019,3.791,11.058,3.988c7.12,0.361,12.922-5.007,14.45-11.717c0.783-3.479,0.684-7.443-0.596-10.785
		c-1.317-3.455-3.592-6.053-6.499-8.251c-5.69-4.3-13.729-5.529-20.626-6.188c-4.797-0.446-9.916,1.33-13.967,3.766
		c-2.05,1.217-3.839,2.771-5.728,4.199c-1.242,0.933-2.572,1.839-3.604,2.982c-4.934,2.151-9.443,5.257-13.668,8.55
		c-5.803,4.523-10.959,9.729-15.532,15.482C16.39,85.148,9.48,98.679,6.871,113.205c-2.571,14.314-0.138,28.541,6.622,41.389
		c6.611,12.562,16.912,22.9,28.394,31.076c6.932,4.958,14.5,8.91,22.391,12.127c4.597,1.864,9.318,3.218,14.164,4.287
		c2.685,0.584,5.405,0.82,8.09,1.33c1.429,0.273,2.87,0.571,4.3,0.808c0.732,0.125,1.552,0.361,2.298,0.361
		c0.236,0,0.473-0.026,0.721-0.063c2.1,7.02,4.535,13.929,7.504,20.652c3.518,7.988,7.891,15.666,12.253,23.222
		c4.361,7.542,9.046,14.886,14.227,21.895c2.734,3.678,5.629,7.268,8.499,10.834c1.776,2.224,3.592,4.571,5.716,6.524
		c-1.764,1.068-3.367,2.435-4.896,3.827c-2.572,2.348-4.957,4.944-7.145,7.652c-2.273,2.821-4.286,5.804-5.716,9.135
		c-1.64,3.838-2.534,7.938-3.33,12.027c-0.82,4.236-1.268,8.522-0.944,12.822c0.336,4.511,1.728,8.797,3.069,13.085
		c0.695,2.236,1.404,4.423,2.286,6.56c-2.522-1.379-5.355-2.447-8.226-2.758c-6.275-0.658-11.779,4.536-11.506,10.884
		c0.148,3.554,2.447,6.289,5.679,7.543c2.733,1.056,5.765,0.771,8.599,0.41c3.218-0.398,6.437-0.46,9.666-0.758
		c1.988-0.199,3.952-0.571,5.803-1.33c0.796-0.323,2.001-0.979,2.572-1.85c0.422-0.337,0.721-0.846,0.746-1.48
		c0.223-7.169,3.218-13.941,7.89-19.309c4.573-5.244,9.22-8.908,15.271-12.153c3.169-1.689,5.344-2.559,8.425-3.665
		c3.145-1.117,6.374-1.999,9.643-2.695c3.665-0.783,5.964-1.081,9.368-1.392c3.393-0.312,6.785-0.386,10.19-0.386
		c3.379,0.012,6.746,0.212,10.102,0.535c3.317,0.31,5.505,0.633,9.096,1.328c3.169,0.621,6.325,1.367,9.393,2.323
		c3.479,1.094,6.001,2.199,9.245,3.978c5.901,3.23,11.045,7.739,14.874,13.183c1.739,2.474,3.291,5.17,4.597,7.903
		c0.534,1.143,0.98,2.163,1.43,3.678c0.397,1.342,0.31,2.225,0.262,3.79c0.011-0.423-0.138,0.496-0.125,0.472
		c-0.024,0.113-0.273,0.459-0.337,0.546c-1.168,1.815,0.996,3.431,2.66,2.759c1.592,1.081,3.628,1.566,5.517,1.827
		c2.956,0.422,5.939,0.634,8.934,0.522c5.816-0.225,12.091-2.04,15.296-7.295c1.504-2.448,1.603-5.616,0.086-8.077
		c-1.714-2.819-4.931-3.852-8.026-4.223c-2.484-0.299-4.969,0.16-7.304,1.031c0.532-1.02,1.041-2.038,1.539-3.069
		c3.614-7.396,6.398-15.209,6.997-23.46c0.533-7.419-1.467-14.897-6.017-20.788c-4.311-5.592-9.891-10.71-16.798-12.711
		c0.708-0.932,1.392-1.901,2.037-2.846c2.335-3.354,4.36-6.896,6.313-10.475c4.049-7.443,8.438-14.636,12.959-21.808
		c4.548-7.193,9.121-14.376,13.134-21.893c4.151-7.778,7.219-15.916,10.414-24.118c0.234-0.596,0.458-1.182,0.681-1.777
		c0.733-0.074,1.443-0.186,2.163-0.385c0.857-0.248,1.777-0.174,2.646-0.286c2.087-0.249,4.176-0.037,6.266,0.149
		c1.589,0.137,2.471,0.336,4.271,0.672c1.778,0.335,3.518,0.807,5.233,1.366c3.13,1.031,5.986,2.448,8.993,4.336
		c2.946,1.852,5.345,3.803,7.829,6.337c2.398,2.461,4.189,4.995,5.928,7.99c1.714,2.957,2.323,4.674,3.144,8.014
		c0.745,3.07,1.255,6.375,1.38,9.52c0.048,1.043,0.035,2.087-0.026,3.13c-0.907-0.696-1.986-1.243-3.181-1.641
		c-3.378-1.13-7.442-0.187-10.586,1.192c-6.834,2.981-12.091,10.228-11.915,17.77c0.16,7.405,5.453,13.009,12.313,15.047
		c6.199,1.84,13.058,0.722,18.962-1.614c4.086-1.627,7.801-3.803,11.057-6.798c1.528-1.403,2.847-3.104,3.69-4.994
		c0.322-0.733,0.598-1.442,0.784-2.174c0.061-0.074,0.137-0.163,0.198-0.237c2.571-3.392,4.2-7.417,5.975-11.281
		c1.854-4.064,3.655-8.177,5.27-12.34c3.143-8.074,5.592-16.438,6.698-25.05C395.355,199.811,392.944,185.907,386.918,173.095
		L386.918,173.095z"/>
	<path fill-rule="evenodd" clip-rule="evenodd" fill="#4C62AB" d="M270.702,338.803L270.702,338.803
		c-1.542,3.467-3.405,6.771-5.07,10.177c-0.584,1.205-1.192,2.397-1.802,3.578c-0.658-2.138-1.577-4.163-2.371-5.715
		c-3.257-6.288-7.368-11.892-12.862-16.415c-2.572-2.111-5.305-3.914-8.151-5.467c3.691-5.866,9.804-10.289,15.993-13.06
		c3.678-1.666,7.691-2.744,11.729-2.982c1.79-0.1,3.604-0.023,5.367,0.272c0.534,1.034,0.823,1.865,1.206,3.169
		c0.261,0.87,0.459,1.752,0.621,2.634c0.175,0.907,0.199,1.294,0.274,2.499C276.082,324.713,273.61,332.291,270.702,338.803
		L270.702,338.803z M28.193,79.632L28.193,79.632c4.212-6.064,9.219-11.594,14.662-16.589c2.956-2.733,6.139-5.144,9.394-7.455
		c2.646,0.138,5.393,2.001,7.244,3.592c1.305,1.105,2.51,2.286,3.603,3.603c0.659,0.795,1.156,1.702,1.716,2.572
		c-0.882,1.131-1.679,2.311-2.424,3.467c-2.049,3.194-3.615,6.785-4.659,10.425c-1.702,5.889-1.54,12.698,0.236,18.674
		c-1.901-0.683-3.877-1.156-5.865-1.478c-4.908-0.758-9.841-0.422-14.712,0.397c-5.082,0.857-10.338,1.901-15.109,3.901
		c-2.336,0.981-4.548,2.174-6.424,3.902c-0.05,0.037-0.087,0.087-0.137,0.124C18.464,95.822,22.912,87.222,28.193,79.632
		L28.193,79.632z M386.023,209.962L386.023,209.962c-0.175,2.647-0.41,4.437-0.819,6.871c-0.522,3.07-1.231,6.103-2.025,9.108
		c-1.577,5.901-3.641,11.668-5.866,17.345c-0.722,1.865-1.479,3.717-2.234,5.556c-0.659-0.819-1.48-1.565-2.152-2.188
		c-1.576-1.466-3.367-2.684-5.305-3.628c-1.926-0.932-3.951-1.515-6.076-1.69c-0.943-0.074-1.801,0.014-2.609,0.236
		c0.224-1.987,0.336-4,0.285-6.014c-0.174-6.747-2.745-13.146-6.635-18.6c-1.291-1.815-2.708-3.53-4.235-5.133
		c0.495-0.621,0.969-1.268,1.453-1.926c1.205-1.628,2.66-3.095,4.149-4.462c3.043-2.808,6.336-5.192,9.99-7.143
		c3.491-1.876,7.221-3.27,11.107-4.052c2.013-0.409,4.039-0.484,6.09-0.434c1.268,0.025,2.521,0.173,3.777,0.409
		c0.136,0.025,0.261,0.05,0.398,0.075c0.086,0.533,0.172,1.068,0.247,1.59c0,0,0.138,1.031,0.149,1.143
		c0.063,0.535,0.112,1.081,0.161,1.616c0.124,1.23,0.2,2.472,0.248,3.703C386.236,204.881,386.185,207.429,386.023,209.962
		L386.023,209.962z M171.67,31.445L171.67,31.445c-0.397,0.919-0.77,1.863-1.105,2.833c-0.981,2.796-1.628,5.754-2.224,8.649
		c-0.585,2.857-0.994,5.739-1.305,8.646c-0.149,1.418-0.248,2.846-0.323,4.275c-0.063,1.243-0.1,2.583,0.621,3.652
		c0.385,0.547,1.105,0.547,1.479,0c0.646-0.944,0.696-2.075,0.759-3.193c0.073-1.416,0.148-2.833,0.273-4.25
		c0.247-2.821,0.67-5.617,1.192-8.386c0.534-2.771,1.217-5.493,2.024-8.189c0.51-1.74,0.982-3.492,1.479-5.219
		c0.522-0.199,1.058-0.385,1.592-0.548c-0.436,1.517,0.049,3.467,0.422,4.846c0.571,2.087,1.677,3.953,3.031,5.629
		c2.672,3.305,7.071,5.395,11.345,4.885c4.126-0.474,7.381-3.318,9.667-6.612c1.193-1.703,2.051-3.652,2.66-5.641
		c0.262-0.894,0.583-2.211,0.548-3.393c0.993,0.224,1.986,0.485,2.969,0.771c0.299,1.043,0.62,2.075,0.919,3.131
		c0.622,2.237,1.081,4.523,1.527,6.796c0.449,2.286,0.834,4.573,1.231,6.873c0.31,1.751,0.285,4.635,1.653,5.927
		c0.31,0.286,0.969,0.298,1.155-0.148c0.746-1.728-0.212-4.125-0.536-5.902c-0.42-2.275-0.832-4.561-1.291-6.834
		c-0.598-2.896-1.181-6.164-2.286-9.096c0.608,0.199,1.229,0.422,1.827,0.646c2.148,0.795,4.521,1.988,6.82,3.343
		c0.635,2.137,1.454,4.237,2.2,6.336c1.341,3.753,2.858,7.431,4.188,11.184c2.72,7.629,4.459,15.63,6.211,23.533
		c1.789,8.026,2.934,16.204,3.916,24.367c0.483,4.013,0.906,8.027,1.267,12.053c0.175,1.937,0.324,3.889,0.534,5.838
		c-2.213-3.143-4.459-6.237-6.97-9.157c-3.108-3.603-6.759-6.648-10.773-9.133c-0.026-0.957-0.149-1.926-0.199-2.846
		c-0.088-1.602-0.174-3.217-0.285-4.821c-0.211-3.243-0.957-6.399-1.703-9.566c-0.162-0.647-1.13-0.374-1.006,0.284
		c0.609,3.069,0.447,6.176,0.558,9.283c0.063,1.604,0.075,3.219,0.112,4.821c0.013,0.448,0,0.907-0.011,1.38
		c-1.231-0.66-2.487-1.28-3.777-1.84c-6.6-2.882-13.781-4.436-21-4.325c-7.046,0.113-13.843,2.312-19.844,5.952
		c-1.591,0.957-3.119,2.014-4.585,3.145c0-0.485,0.012-0.969,0.024-1.454c0.063-1.64,0.175-3.268,0.273-4.909
		c0.1-1.615,0.311-3.255,0.236-4.871c-0.075-1.615-0.224-3.23-0.249-4.845c-0.024-0.97-1.392-0.932-1.478,0
		c-0.138,1.528-0.436,3.006-0.746,4.511c-0.311,1.527-0.373,3.118-0.534,4.658c-0.324,3.007-0.97,6.387-0.547,9.407
		c-5.231,4.647-9.692,10.313-13.382,16.315c-0.174-6.909-0.187-13.78,0.385-20.688c0.708-8.637,1.765-17.247,3.057-25.821
		c1.255-8.226,3.032-16.364,5.542-24.317c0.97-3.057,2-6.1,3.007-9.157c0.385-1.18,0.795-2.41,1.28-3.616
		c1.019-0.832,2.074-1.627,3.155-2.361C168.278,33.184,169.956,32.24,171.67,31.445L171.67,31.445z M209.196,316.274
		L209.196,316.274c-9.083-0.994-18.452-0.844-27.535,0.708c-1.877-2.769-4.586-5.193-7.059-7.279
		c-3.242-2.734-6.771-5.107-10.399-7.282c-3.592-2.149-7.295-4.237-11.208-5.777c-1.877-0.734-3.839-1.243-5.84-1.566
		c-0.808-0.124-1.641-0.186-2.474-0.174c1.329-1.168,2.709-2.274,4.113-3.316c1.354,0.633,2.733,1.204,4.125,1.726
		c3.927,1.466,8.065,2.485,12.152,3.405c3.753,0.845,7.518,1.689,11.382,1.764c1.802,0.052,3.604-0.062,5.406-0.049
		c1.328,0.011,2.683,0.148,4.025,0.162c2.273,5.739,8.735,7.565,14.389,7.392c5.206-0.173,12.039-2.286,14.202-7.469
		c3.355,0.361,6.573-0.31,9.929-0.968c4.162-0.82,8.374-1.031,12.587-1.616c1.169-0.161,2.334-0.347,3.504-0.546
		c-2.138,1.242-4.15,2.709-6.101,4.188c-3.854,2.92-7.754,5.628-11.084,9.182c-2.322,2.461-4.634,5.406-5.964,8.648
		C214.651,316.933,211.917,316.572,209.196,316.274L209.196,316.274z M136.892,347.178L136.892,347.178
		c-1.143,2.509-2.001,5.119-2.474,7.839c-0.098,0.548-0.161,1.084-0.21,1.605c-0.646-1.046-1.23-2.126-1.765-3.231
		c-1.38-2.858-1.913-5.978-2.685-9.034c-0.894-3.529-1.926-7.069-2.212-10.712c-0.285-3.763,0.125-7.616,0.82-11.317
		c0.646-3.442,1.38-6.982,2.609-10.264c0.05-0.112,0.087-0.225,0.137-0.336c5.566,0.782,10.575,2.97,15.222,6.35
		c2.659,1.937,5.045,4.262,7.293,6.647c0.609,0.646,1.193,1.316,1.778,1.986C147.515,331.782,140.743,338.728,136.892,347.178
		L136.892,347.178z"/>
	<path fill-rule="evenodd" clip-rule="evenodd" fill="#353485" d="M61.543,61.067C52.758,68.97,45.8,82.265,54.399,96.89
		c1.204,0.274,2.397,0.609,3.565,1.031c-1.776-5.976-1.938-12.785-0.236-18.674c1.044-3.641,2.61-7.231,4.659-10.425
		c0.745-1.156,1.542-2.336,2.424-3.467c-0.56-0.871-1.057-1.777-1.716-2.572C62.599,62.186,62.077,61.614,61.543,61.067
		L61.543,61.067z"/>
	<path fill-rule="evenodd" clip-rule="evenodd" fill="#353485" d="M202.908,315.778v-0.013c0,0-11.593-10.151-30.032-7.468
		c0.584,0.459,1.168,0.933,1.727,1.405c2.473,2.086,5.182,4.511,7.059,7.279C188.657,315.778,195.838,315.418,202.908,315.778
		L202.908,315.778z M148.161,319.494c-11.282,9.555-17.135,23.558-13.953,37.128c0.049-0.521,0.112-1.058,0.21-1.605
		c0.473-2.72,1.331-5.33,2.474-7.839l0,0c3.852-8.45,10.623-15.396,18.515-20.467c-0.585-0.67-1.169-1.34-1.778-1.986
		C151.901,322.897,150.101,321.108,148.161,319.494L148.161,319.494z"/>
	<path fill-rule="evenodd" clip-rule="evenodd" fill="#353485" d="M270.702,338.803L270.702,338.803
		c-1.492,3.33-3.256,6.511-4.871,9.779c0.472-4.71,0.857-11.606,1.031-21.634c0.112-7.22-1.641-12.799-4.573-17.097
		c1.927-0.497,3.902-0.809,5.878-0.933c1.79-0.1,3.604-0.023,5.367,0.272c0.534,1.034,0.823,1.865,1.206,3.169
		c0.261,0.87,0.459,1.752,0.621,2.634c0.175,0.907,0.199,1.294,0.274,2.499C276.082,324.713,273.61,332.291,270.702,338.803
		L270.702,338.803z M365.322,242.095c2.149-9.704,0.933-22.092-4.435-33.015c-1.057-2.149-2.287-4.3-3.642-6.437
		c-1.131,0.882-2.226,1.814-3.293,2.795c-1.489,1.367-2.944,2.834-4.149,4.462c-0.484,0.658-0.958,1.305-1.453,1.926
		c1.527,1.603,2.944,3.317,4.235,5.133c3.89,5.454,6.461,11.853,6.635,18.6c0.051,2.014-0.062,4.026-0.285,6.014
		c0.809-0.223,1.666-0.311,2.609-0.236C362.838,241.447,364.093,241.697,365.322,242.095L365.322,242.095z M233.922,296.307
		c1.404,0.139,2.834,0.311,4.264,0.548c0.756-0.51,1.526-1.008,2.311-1.467c-1.17,0.199-2.335,0.385-3.504,0.546
		C235.973,296.071,234.953,296.195,233.922,296.307L233.922,296.307z"/>
	<path fill-rule="evenodd" clip-rule="evenodd" fill="#353485" d="M235.129,107.688c-0.896,1.702-1.901,3.393-3.021,5.082
		c1.38,1.79,2.696,3.628,4.001,5.479c-0.21-1.95-0.359-3.901-0.534-5.838C235.438,110.831,235.288,109.254,235.129,107.688
		L235.129,107.688z"/>
	<path fill-rule="evenodd" clip-rule="evenodd" fill="#F9F6EA" d="M209.99,297.028L209.99,297.028
		c-1.118,2.137-3.813,3.044-5.975,3.64c-4.14,1.144-9.967,1.64-13.297-1.641c-1.727-1.703-2.175-4.436-1.703-6.734
		c0.262-1.242,0.846-2.373,1.703-3.305c0.447-0.495,1.031-1.031,1.654-1.502c1.489-0.112,3.006-0.623,4.41-0.97
		c1.801-0.448,3.665-0.672,5.516-0.597c2.672,0.1,5.183,2.001,6.637,4.124C210.265,291.995,211.135,294.815,209.99,297.028
		L209.99,297.028z"/>
	<path fill-rule="evenodd" clip-rule="evenodd" fill="#EB5E2B" d="M230.48,45.648L230.48,45.648
		c2.622,3.218,4.896,6.708,6.722,10.437c0.921,1.876,1.716,3.814,2.424,5.777c0.72,2.013,1.18,4.051,2.373,5.828
		c0.313,0.858,1.055,1.503,1.614,2.249c0.747,1.006,1.441,2.05,1.989,3.168c0.993,2.05,1.516,4.424,1.738,6.673
		c0.226,2.397,0.437,5.106,0.028,7.492c-0.251,1.417-0.672,2.783-1.194,4.126c-0.572,1.478-1.33,2.983-0.809,4.584
		c-0.906,3.48,0.596,7.443,1.343,10.86c0.759,3.418,0.409,7.033-0.597,10.339c-0.982,3.18-2.796,5.888-5.021,8.212
		c-0.147-0.199-0.297-0.41-0.447-0.621c-0.148-0.224-0.299-0.435-0.448-0.658c-0.035-3.914-0.496-7.815-0.844-11.704
		c-0.373-4.213-0.832-8.401-1.343-12.602c-0.993-8.125-2.311-16.202-4.272-24.167c-1.95-7.854-3.988-15.792-6.799-23.385
		c-1.354-3.678-3.055-7.206-4.621-10.797c-0.709-1.627-1.328-3.293-1.965-4.945c0.397,0.261,0.797,0.522,1.183,0.794
		C224.765,39.521,227.872,42.454,230.48,45.648L230.48,45.648z M55.292,53.463L55.292,53.463c1.579-0.125,3.007-1.006,4.288-1.914
		c0.087-0.063,0.186-0.125,0.273-0.186c0.608,0.1,1.218,0.248,1.801,0.386c2.188,0.546,4.188,1.243,5.854,2.819
		c1.565,1.491,2.46,3.442,3.019,5.493c-0.087,0.037-0.174,0.087-0.272,0.136c-1.094,0.671-2.088,1.479-3.021,2.387
		c-0.547-0.784-1.191-1.517-1.764-2.175c-1.354-1.578-2.934-2.97-4.646-4.15c-1.766-1.218-3.791-2.261-5.878-2.56
		C55.058,53.624,55.169,53.538,55.292,53.463L55.292,53.463z M255.444,283.062L255.444,283.062
		c-1.118,1.541-2.275,3.019-3.144,4.647c-0.934,0.371-1.864,0.757-2.835,1.056c-3.925,1.181-8.001,1.89-12.04,2.585
		c-4.211,0.721-8.499,0.856-12.674,1.727c-3.217,0.684-6.373,1.653-9.579,2.338c0.124-2.077-0.36-4.127-1.281-5.991
		c0.162,0,0.323,0.013,0.473,0.013c1.244,0.037,2.486,0.025,3.729-0.013c2.435-0.087,4.87-0.409,7.281-0.707
		c4.982-0.609,9.902-1.467,14.786-2.585c4.597-1.056,9.081-2.398,13.432-4.225c1.342-0.572,2.646-1.18,3.927-1.852
		C256.849,281.073,256.152,282.079,255.444,283.062L255.444,283.062z M186.358,289.225L186.358,289.225
		c-0.958,1.789-1.356,3.864-1.231,5.889c-2.174-0.583-4.647-0.544-6.709-0.645c-1.74-0.087-3.492-0.113-5.207-0.386
		c-1.987-0.323-3.951-0.895-5.902-1.366c-3.926-0.933-7.84-1.889-11.691-3.144c-1.802-0.585-3.542-1.293-5.244-2.126
		c-0.074-0.284-0.187-0.584-0.373-0.882c-2.05-3.281-4.846-6.051-7.38-8.983c4.684,1.939,9.506,3.665,14.239,5.418
		c5.367,1.987,10.822,3.517,16.477,4.424c2.771,0.447,5.542,0.583,8.336,0.732c1.803,0.087,3.542,0.185,5.296,0.049
		C186.742,288.529,186.544,288.877,186.358,289.225L186.358,289.225z M121.783,361.704L121.783,361.704
		c-2.213,0.197-4.399,0.521-6.624,0.384c-0.56-0.037-1.366-0.249-1.95-0.584c0.261,0.123-0.386-0.509-0.386-0.384
		c0-0.014-0.013-0.039-0.025-0.039c-0.024-0.147-0.063-0.335-0.087-0.422c0.013-0.348,0.039-0.894,0-0.695
		c0.075-0.422,0.175-0.834,0.312-1.243c0.149-0.496,0.658-1.28,1.105-1.776c0.534-0.598,0.672-0.621,1.441-0.832
		c0.622-0.175,1.516-0.199,2.249-0.1c3.814,0.509,7.194,2.857,10.972,3.415c0.485,0.759,1.031,1.506,1.628,2.188
		c-0.1,0-0.198,0-0.299,0C127.336,361.667,124.565,361.453,121.783,361.704L121.783,361.704z M284.245,354.099L284.245,354.099
		c-0.347-0.123,0.188,0.175,0.484,0.335c0.038,0.037,0.089,0.088,0.162,0.148c0.025,0.038,0.051,0.05,0.075,0.076
		c0.024,0.036,0.051,0.073,0.087,0.137c0.013,0.035,0.025,0.062,0.038,0.086c0.023,0.063,0.036,0.111,0.048,0.174
		c0,0.038,0.013,0.087,0.013,0.137c0,0.051,0,0.087,0,0.124c0,0.038-0.013,0.075-0.024,0.138c-0.036,0.149-0.086,0.285-0.137,0.435
		c-0.024,0.05-0.062,0.125-0.124,0.235c-0.285,0.561-0.349,0.599-0.795,1.094c-2.561,2.771-7.022,3.268-10.897,3.491
		c-2.324,0.126-4.648,0.014-6.971-0.149c-0.013,0-0.013,0-0.025,0c0.274-0.271,0.548-0.547,0.809-0.818
		c0.248-0.262,0.484-0.51,0.72-0.771c2.561-0.262,4.587-1.753,6.76-3.119c2.039-1.306,4.236-2.226,6.66-2.273
		C282.271,353.539,283.127,353.688,284.245,354.099L284.245,354.099z M358.29,245.809L358.29,245.809
		c0.063-0.359,0.126-0.707,0.188-1.067c2.608-0.336,5.43,0.423,7.664,1.604c1.505,0.782,2.907,1.801,4.176,2.919
		c1.131,0.996,2.002,2.388,3.194,3.292c-0.746,1.742-1.48,3.469-2.039,5.258c-1.479-1.404-3.18-2.572-4.883-3.666
		c-2.386-1.54-6.126-3.802-9.295-3.504c-0.024-0.101-0.037-0.199-0.063-0.286C357.754,248.892,357.992,247.338,358.29,245.809
		L358.29,245.809z M138.817,78.041L138.817,78.041c0.447-1.367,1.106-2.621,1.889-3.828c0.497-0.745,0.982-1.59,1.578-2.324
		c0.46-0.148,0.883-0.471,1.268-0.956c1.329-1.74,2.013-4.274,2.671-6.339c0.796-2.533,1.454-5.117,2.188-7.678
		c0.137-0.484,0.273-0.969,0.422-1.454c1.118-2.125,2.337-4.187,3.628-6.175c2.212-3.367,4.735-6.611,7.58-9.48
		c-0.82,2.298-1.54,4.659-2.348,6.958c-2.883,8.164-4.934,16.637-6.351,25.162c-1.441,8.624-2.708,17.271-3.689,25.944
		c-0.497,4.423-0.945,8.822-0.957,13.284c-0.013,4.335,0.124,8.684,0.273,13.034c0.012,0.448,0.162,0.795,0.397,1.056
		c-0.174,0.335-0.348,0.671-0.509,0.994c-0.188-0.261-0.361-0.522-0.522-0.796c-2.323-3.677-3.604-7.915-3.901-12.337
		c-0.162-2.325-0.037-4.686,0.223-7.008c0.125-1.107,0.349-2.213,0.511-3.318c0.198-1.517,0.235-2.548-0.125-4.015
		c-0.137-0.547-0.796-0.932-1.329-0.782c-3.293-2.895-3.878-8.412-3.951-12.5C137.712,82.936,137.997,80.463,138.817,78.041
		L138.817,78.041z M187.364,27.842L187.364,27.842c4.535-0.174,9.145,0.161,13.656,1.005c-0.226,0.833-0.312,1.752-0.484,2.486
		c-0.386,1.665-1.069,3.218-1.928,4.685c-1.627,2.808-4.188,5.343-7.392,6.188c-3.393,0.896-6.996-0.845-9.356-3.193
		c-1.306-1.304-2.337-2.97-3.021-4.685c-0.323-0.833-0.534-1.702-0.695-2.571c-0.149-0.846-0.087-1.715-0.323-2.535
		C180.865,28.413,184.046,27.966,187.364,27.842L187.364,27.842z"/>
	<path fill-rule="evenodd" clip-rule="evenodd" fill="#BE361A" d="M361.644,251.464c1.095-1.752,2.014-3.741,2.735-5.916
		c-1.863-0.694-3.939-1.056-5.901-0.807c-0.062,0.36-0.125,0.708-0.188,1.067l0,0c-0.298,1.529-0.536,3.083-1.058,4.549
		c0.025,0.087,0.038,0.186,0.063,0.286C358.687,250.507,360.203,250.879,361.644,251.464L361.644,251.464z M255.444,283.062
		L255.444,283.062c-1.118,1.541-2.275,3.019-3.144,4.647c-0.934,0.371-1.864,0.757-2.835,1.056c-3.925,1.181-8.001,1.89-12.04,2.585
		c-4.211,0.721-8.499,0.856-12.674,1.727c-3.217,0.684-6.373,1.653-9.579,2.338c0.124-2.077-0.36-4.127-1.281-5.991
		c0.162,0,0.323,0.013,0.473,0.013c1.244,0.037,2.486,0.025,3.729-0.013c2.435-0.087,4.87-0.409,7.281-0.707
		c4.982-0.609,9.902-1.467,14.786-2.585c4.597-1.056,9.081-2.398,13.432-4.225c1.342-0.572,2.646-1.18,3.927-1.852
		C256.849,281.073,256.152,282.079,255.444,283.062L255.444,283.062z"/>
	<path fill-rule="evenodd" clip-rule="evenodd" fill="#BE361A" d="M239.626,61.862c0.72,2.013,1.18,4.051,2.373,5.828
		c0.313,0.858,1.055,1.503,1.614,2.249c0.747,1.006,1.441,2.05,1.989,3.168c0.993,2.05,1.516,4.424,1.738,6.673
		c0.226,2.397,0.437,5.106,0.028,7.492c-0.251,1.417-0.672,2.783-1.194,4.126c-0.572,1.478-1.33,2.983-0.809,4.584
		c-0.906,3.48,0.596,7.443,1.343,10.86c0.759,3.418,0.409,7.033-0.597,10.339c-0.982,3.18-2.796,5.888-5.021,8.212
		c-0.147-0.199-0.297-0.41-0.447-0.621c-0.148-0.224-0.299-0.435-0.448-0.658c-0.035-3.914-0.496-7.815-0.844-11.704
		c-0.348-3.853-0.759-7.68-1.218-11.52C245.553,80.675,239.626,61.862,239.626,61.862L239.626,61.862z"/>
	<path fill-rule="evenodd" clip-rule="evenodd" fill="#F9BF9B" d="M276.332,205.315c-3.916,1.577-7.63,3.517-11.595,4.921
		c-3.789,1.328-7.765,2.162-11.754,2.583c-4.088,0.437-8.226,0.36-12.326,0.013c-4.312-0.372-8.909-1.466-13.221-0.858
		c-0.782,0.113-0.759,1.22-0.199,1.567c3.678,2.323,8.7,2.832,12.949,3.181c4.409,0.372,8.846,0.335,13.245-0.186
		c8.273-0.994,17.657-3.927,23.532-10.127C277.374,205.974,276.964,205.067,276.332,205.315L276.332,205.315z"/>
	<path fill-rule="evenodd" clip-rule="evenodd" fill="#F9BF9B" d="M158.263,210.484c-1.776-0.073-3.54,0.585-5.292,0.932
		c-1.827,0.362-3.616,0.758-5.468,0.945c-3.964,0.385-7.978,0.175-11.892-0.461c-7.864-1.293-15.32-4.212-22.391-7.854
		c-0.696-0.359-1.516,0.56-0.869,1.132c6.188,5.456,14.238,8.697,22.328,10.114c4.225,0.732,8.536,0.981,12.823,0.62
		c2.013-0.161,4.025-0.496,6.002-0.956c1.901-0.435,4.162-1.254,5.491-2.708C159.618,211.579,159.183,210.522,158.263,210.484
		L158.263,210.484z"/>
	<path fill-rule="evenodd" clip-rule="evenodd" fill="#F9BF9B" d="M200.175,258.423L200.175,258.423
		C200.15,258.385,200.15,258.372,200.175,258.423L200.175,258.423z"/>
	<path fill-rule="evenodd" clip-rule="evenodd" fill="#F9BF9B" d="M198.658,255.278c-0.408,0.298-0.832,0.782-0.757,1.341
		c0.111,0.983,1.043,1.491,1.938,1.715c-0.012,0,0.261,0.113,0.386,0.162c0.025,0.038,0.038,0.062,0.061,0.112
		c0.251,0.422,0.038,1.392-0.186,2.025c-0.819,2.386-3.963,2.273-5.702,1.181c-4.126-2.599,0.347-10.388,4.024-11.009
		c1.106-0.2,0.834-1.989-0.261-1.952c-4.049,0.187-6.957,2.933-8.424,6.586c-1.565,3.951-0.272,8.338,3.665,10.252
		c4.101,2.001,8.822,0.148,10.513-4.017c0.657-1.6,0.584-3.538-0.211-5.067C202.783,254.819,200.323,254.098,198.658,255.278
		L198.658,255.278z"/>
	<path fill-rule="evenodd" clip-rule="evenodd" fill="#F9BF9B" d="M143.552,85.694c0.696-0.906,0.372-2.274,0.36-3.368
		c-0.013-1.34,0.012-2.683-0.025-4.025c-0.024-0.982-1.466-0.97-1.503,0c-0.063,1.342-0.149,2.685-0.261,4.025
		c-0.088,1.107-0.497,2.437,0.211,3.368C142.682,86.141,143.203,86.141,143.552,85.694L143.552,85.694z"/>
	<path fill-rule="evenodd" clip-rule="evenodd" fill="#F9BF9B" d="M182.295,87.148c2.608,0.46,5.317,0.298,7.94,0.05
		c1.826-0.186,3.788-0.534,5.094-1.963c2.969-3.281-0.572-9.021-3.38-11.133c-2.944-2.224-6.101,0.311-7.729,2.783
		c-0.981,1.466-1.665,3.119-2.313,4.759c-0.385,0.994-0.807,2.224-0.832,3.354C180.803,85.906,181.127,86.95,182.295,87.148
		L182.295,87.148z M267.894,301.391L267.894,301.391c0.56,0.57,1.081,1.179,1.604,1.788c0.261,0.311,0.51,0.609,0.759,0.921
		c0.037,0.048,0.063,0.085,0.099,0.123c0.038,0.049,0.099,0.138,0.212,0.298c0.036,0.037,0.074,0.088,0.099,0.136
		c-0.708-0.023-1.417-0.011-2.139,0.013c-4.658,0.187-9.231,1.455-13.468,3.368c-7.145,3.229-13.494,8.648-16.949,15.718
		c-5.418-2.635-11.208-4.422-17.146-5.666c1.541-2.298,3.106-4.547,5.12-6.561c3.182-3.156,6.933-5.554,10.486-8.251
		c3.765-2.857,7.679-5.579,12.363-6.634c2.61-0.598,5.417-0.523,8.077-0.523c1.342,0,3.094,0.25,4.71,0.138
		C264.067,297.688,265.831,299.239,267.894,301.391L267.894,301.391z M168.515,320.339L168.515,320.339
		c-3.306,1.143-6.572,2.607-9.718,4.348c-0.969-0.957-1.95-1.901-2.907-2.87c-2.447-2.436-5.007-4.697-7.827-6.697
		c-4.66-3.316-9.991-5.678-15.631-6.063c0.931-1.64,2.062-3.281,3.018-4.486c2.039-2.572,4.25-5.006,6.624-7.28
		c1.553,0.311,3.132,0.857,4.622,1.244c1.802,0.458,3.516,1.167,5.182,1.986c3.454,1.716,6.623,4.05,9.841,6.151
		c3.057,1.986,5.989,4.138,8.71,6.56c1.366,1.217,2.672,2.522,3.901,3.889c0.349,0.387,0.658,0.796,0.969,1.207
		C173.013,318.896,170.738,319.567,168.515,320.339L168.515,320.339z M336.084,202.482L336.084,202.482
		c-6.646-3.579-13.755-5.331-21.296-5.193c-1.875,0.037-3.952,0.223-5.729,0.894c3.631-10.115,6.611-20.478,7.53-31.213
		c0.075-0.771-1.217-0.945-1.342-0.186c-2.896,17.457-11.468,33.4-18.898,49.229c-3.652,7.767-8.288,15.108-12.896,22.328
		c-4.562,7.157-9.355,14.153-13.918,21.31c-1.652,2.585-3.255,5.196-4.809,7.828c-1.318,2.212-2.461,4.535-3.701,6.797
		c-2.773,1.381-5.692,2.523-8.538,3.604c-4.212,1.615-8.598,2.819-12.984,3.84c-4.684,1.067-9.431,1.887-14.189,2.559
		c-2.399,0.336-4.811,0.634-7.219,0.771c-1.243,0.074-2.485,0.074-3.729,0.062c-1.229-0.012-2.249-0.124-3.379,0.323
		c-1.975-1.951-4.462-3.367-7.082-3.9c-2.398-0.486-4.934-0.111-7.258,0.558c-1.976,0.572-4.312,1.392-5.864,2.847
		c-0.36,0.123-0.722,0.298-1.081,0.533c-2.522,0.075-5.07-0.422-7.556-0.807c-2.771-0.411-5.541-0.56-8.287-1.105
		c-5.418-1.068-10.724-2.572-15.93-4.449c-5.144-1.865-10.251-3.877-15.383-5.79c-2.063-0.772-3.964-1.927-5.853-3.045
		c-1.019-1.279-2.024-2.546-3.031-3.827c-5.344-6.734-10.102-13.929-14.649-21.209c-4.623-7.395-9.245-14.911-13.122-22.727
		c-3.938-7.916-7.095-16.191-9.952-24.554c-2.747-8.027-5.555-16.042-8.227-24.092c-0.311-0.945-1.739-0.56-1.49,0.41
		c2.174,8.275,3.84,16.674,6.101,24.938c-0.721-0.236-1.453-0.459-2.187-0.671c-2.274-0.67-4.498-1.417-6.723-2.224
		c-4.262-1.541-8.648-2.759-12.91-4.337c-3.38-1.242-5.566-2.149-8.747-3.665c-3.082-1.455-6.09-3.07-9.009-4.821
		c-11.557-6.872-22.08-15.929-29.535-27.026c-7.605-11.333-11.395-24.143-10.239-37.812c0.249-2.982,0.732-5.964,1.404-8.921
		c0.782-0.56,1.528-1.181,2.248-1.827c1.79-1.627,3.853-2.82,6.103-3.74c4.484-1.826,9.492-2.56,14.252-3.33
		c4.447-0.708,9.107-1.118,13.593-0.497c2.199,0.298,4.361,0.883,6.449,1.652c1.056,0.386,2.124,0.982,3.218,1.479
		c3.145,5.815,8.201,10.003,14.886,11.619c8.412,2.038,17.222-0.224,25.187-2.982c6.362-2.199,12.612-4.734,18.924-7.045
		c3.243-1.194,6.549-2.286,9.816-3.43c1.728-0.596,3.43-1.217,5.145-1.852c0.832-0.311,1.628-0.596,2.398-0.931
		c0.571,0.943,1.254,1.813,2.038,2.608c0.062,0.051,0.11,0.099,0.173,0.149c-0.447,1.118-0.795,2.236-1.081,3.417
		c-0.634,2.647-0.931,5.369-0.956,8.078c-0.063,5.479,1.242,10.871,3.79,15.716c2.646,5.033,6.784,9.009,11.643,11.891
		c2.92,1.753,6.125,3.095,9.493,3.678c0.41,0.075,0.819,0.137,1.23,0.211c4.783,2.437,10.127,3.716,15.568,4.101
		c3.504,0.249,7.007-0.049,10.523,0.013c3.38,0.063,6.711-0.099,10.091-0.372c13.842-1.107,28.591-3.716,40.319-11.62
		c6.426-4.323,11.756-10.412,13.482-18.116c0.882-4.001,0.621-7.915-0.385-11.853c-0.534-2.063-1.329-4.026-2.087-6.015
		c-0.397-1.069-0.71-2.125-1.093-3.167c1.539-0.783,2.322-2.4,2.969-3.989c0.186-0.436,0.347-0.883,0.51-1.33
		c0.347,0.173,0.695,0.335,1.042,0.409c0.958,0.237,1.928,0.472,2.883,0.733c2.101,0.535,4.176,1.18,6.276,1.714
		c4.076,1.058,8.126,2.287,12.128,3.629c7.976,2.684,15.814,5.852,23.446,9.43c14.898,6.997,29.088,15.594,42.333,25.348
		c5.345,3.927,10.675,8.276,15.782,13.009c2.508,2.336,4.931,4.76,7.269,7.271c1.104,1.192,2.174,2.409,3.229,3.64
		c0.535,0.622,1.045,1.243,1.553,1.864c0.261,0.311,0.512,0.621,0.76,0.932c0.073,0.1,0.694,0.882,0.694,0.895
		c3.976,5.181,7.419,10.772,10.139,16.712c0.646,1.417,0.87,1.963,1.541,3.728c0.599,1.59,1.131,3.206,1.605,4.834
		c0.346,1.144,0.645,2.299,0.917,3.466c-0.77-0.087-1.528-0.124-2.197-0.174c-2.51-0.186-5.034,0-7.507,0.422
		c-4.349,0.733-8.574,2.398-12.426,4.486c-3.9,2.112-7.517,4.809-10.685,7.903c-1.554,1.527-2.907,3.317-4.139,5.119
		c-0.447,0.658-0.896,1.354-1.255,2.088C343.169,206.881,339.764,204.445,336.084,202.482L336.084,202.482z M358.538,269.48
		L358.538,269.48c-5.081,2.349-10.909,3.305-16.042,1.777c-0.334-0.101-0.658-0.212-0.98-0.336
		c-0.063-0.025-0.111-0.037-0.149-0.049c-0.062-0.026-0.137-0.063-0.248-0.124c-0.609-0.287-1.205-0.634-1.765-1.007
		c-0.036-0.013-0.398-0.3-0.51-0.373c-0.198-0.174-0.397-0.359-0.583-0.548c-0.249-0.234-0.473-0.495-0.697-0.745
		c0.437,0.484-0.36-0.547-0.446-0.671c-0.187-0.299-0.35-0.621-0.51-0.934c-0.038-0.073-0.062-0.134-0.089-0.171
		c-0.022-0.063-0.048-0.163-0.111-0.323c-0.123-0.361-0.224-0.733-0.323-1.107c0.026,0.113-0.246-1.256-0.173-0.708
		c-0.236-1.888-0.036-2.907,0.56-4.685c0.286-0.845,1.305-2.598,1.914-3.342c1.118-1.366,2.323-2.397,3.603-3.229
		c2.472-1.616,5.082-2.412,7.915-2.238c0.437,0.024,1.306,0.237,1.938,0.598c0.521,0.286,1.055,0.771,1.527,1.267
		c-0.022,0.212-0.061,0.409-0.134,0.646c-0.289,1.043,0.793,1.591,1.563,1.192c0.46,0.235,1.031,0.336,1.503,0.483
		c0.883,0.3,1.753,0.66,2.61,1.021c1.565,0.67,3.019,1.589,4.461,2.473c1.59,0.98,3.167,2.012,4.609,3.204
		c0.299,0.25,0.583,0.523,0.858,0.809c-0.759,0.707-1.542,1.393-2.313,2.087C364.415,266.387,361.434,268.139,358.538,269.48
		L358.538,269.48z M64.724,48.219L64.724,48.219c1.504-0.895,3.07-1.702,4.735-2.273c1.739-0.584,3.479-0.584,5.293-0.436
		c3.665,0.312,7.318,1.218,10.946,2.113c1.516,0.361,3.008,0.783,4.485,1.33c0.014,0,0.609,0.248,0.685,0.273
		c0.272,0.125,0.533,0.249,0.807,0.384c0.758,0.361,1.504,0.796,2.212,1.256c0.261,0.174,0.509,0.348,0.771,0.534
		c-0.373-0.261,0.397,0.335,0.435,0.373c0.535,0.459,1.02,0.969,1.479,1.491c0.037,0.036,0.074,0.074,0.1,0.112
		c0.037,0.049,0.074,0.111,0.148,0.211c0.199,0.285,0.372,0.583,0.547,0.882c0.187,0.311,0.335,0.62,0.496,0.944
		c-0.335-0.683,0.199,0.608,0.249,0.758c0.112,0.36,0.198,0.722,0.286,1.082c0,0.024,0.1,0.708,0.124,0.757
		c0.075,0.734,0.062,1.479,0.05,2.212c0,0.398-0.025,0.783-0.062,1.18c0,0.05,0,0.099-0.013,0.137
		c-0.013,0.063-0.038,0.173-0.063,0.349c-0.075,0.359-0.162,0.72-0.261,1.067c-0.037,0.112-0.361,1.044-0.312,0.969
		c-0.261,0.559-0.571,1.094-0.906,1.615c-0.038,0.062-0.075,0.124-0.1,0.162c-0.037,0.038-0.074,0.087-0.124,0.137
		c-0.212,0.261-0.447,0.484-0.671,0.721c-0.05,0.05-0.472,0.41-0.496,0.435c-0.188,0.136-0.374,0.26-0.572,0.385
		c-0.273,0.186-0.572,0.336-0.857,0.485c-0.063,0.024-0.1,0.05-0.149,0.062c-0.175,0.074-0.349,0.137-0.534,0.187
		c-0.323,0.112-0.658,0.186-0.994,0.261c-0.087,0.012-0.149,0.037-0.199,0.05c-0.062,0-0.137,0-0.236,0.012
		c-0.721,0.062-1.428,0.037-2.138-0.025c0.324,0.013-0.782-0.148-0.732-0.137c-0.446-0.099-0.869-0.236-1.305-0.373
		c-0.907-0.286-1.776-0.659-2.646-1.056c-2.001-0.932-3.889-2.087-5.84-3.106c-1.429-0.746-2.957-1.553-4.535-2.113
		c-0.063-1.627-0.696-3.354-1.268-4.672c-1.069-2.447-2.708-4.412-4.833-6.001c-1.441-1.105-3.243-1.678-5.021-2.112
		C64.041,48.642,64.376,48.431,64.724,48.219L64.724,48.219z M172.019,140.827L172.019,140.827c-2.361-1.281-5.02-1.827-7.579-2.622
		c-2.858-0.882-5.667-1.962-8.264-3.442c-3.032-1.702-5.79-4.039-7.977-6.722c0.484-0.833,0.981-1.666,1.478-2.498
		c0.349-0.224,0.597-0.571,0.659-1.069c6.262-10.139,14.153-19.658,25-24.913c12.762-6.164,28.617-3.679,40.457,3.367
		c5.232,3.119,9.469,7.332,13.159,12.14c2.087,2.696,3.977,5.541,5.816,8.412c0.993,1.554,1.926,3.292,3.007,4.896
		c-1.368,1.068-2.81,2.025-4.249,2.895c-11.309,6.821-25.461,8.562-38.521,9.48c-5.99,0.411-11.94,1.255-17.955,0.77
		C175.349,141.386,173.684,141.137,172.019,140.827L172.019,140.827z"/>
	<path fill-rule="evenodd" clip-rule="evenodd" fill="#F9F6EA" d="M83.425,115.851L83.425,115.851c0,0,2.448,3.481,25.137-3.751
		c16.203-5.17,25.112-5.803,28.877-5.741c0.087-0.447,0.186-0.882,0.285-1.33c0.286-1.18,0.634-2.298,1.081-3.417
		c-0.063-0.05-0.111-0.098-0.173-0.149c-0.784-0.795-1.467-1.665-2.038-2.608c-0.771,0.335-1.566,0.62-2.398,0.931
		c-1.715,0.635-3.417,1.256-5.145,1.852c-3.268,1.144-6.573,2.236-9.816,3.43c-6.312,2.311-12.562,4.846-18.924,7.045
		C94.942,113.975,89.178,115.615,83.425,115.851L83.425,115.851z M249.344,97.574c0,0,74.315,17.308,118.65,60.797
		c-0.262-0.31-0.522-0.621-0.783-0.932c-1.056-1.23-2.125-2.448-3.229-3.64c-2.338-2.511-4.761-4.935-7.269-7.271
		c-5.107-4.733-10.438-9.082-15.782-13.009c-13.245-9.754-27.435-18.352-42.333-25.348c-7.632-3.578-15.471-6.746-23.446-9.43
		c-4.002-1.342-8.052-2.571-12.128-3.629c-2.101-0.534-4.176-1.18-6.276-1.714c-0.955-0.261-1.925-0.497-2.883-0.733
		c-0.347-0.074-0.695-0.236-1.042-0.409c-0.163,0.447-0.324,0.894-0.51,1.33C251.666,95.174,250.883,96.791,249.344,97.574
		L249.344,97.574z"/>
	<path fill-rule="evenodd" clip-rule="evenodd" fill="#CB736F" d="M19.247,105.936c-1.479,21.273,6.511,55.12,67.508,67.42l0,0
		c-0.36,0.1-0.658,0.436-0.534,0.92c2.174,8.275,3.84,16.674,6.101,24.938c-0.721-0.236-1.453-0.459-2.187-0.671
		c-2.274-0.67-4.498-1.417-6.723-2.224c-4.262-1.541-8.648-2.759-12.91-4.337c-3.38-1.242-5.566-2.149-8.747-3.665
		c-3.082-1.455-6.09-3.07-9.009-4.821c-11.557-6.872-22.08-15.929-29.535-27.026c-7.605-11.333-11.395-24.143-10.239-37.812
		c0.249-2.982,0.732-5.964,1.404-8.921c0.782-0.56,1.528-1.181,2.248-1.827C17.444,107.167,18.315,106.507,19.247,105.936
		L19.247,105.936z"/>
	<path fill-rule="evenodd" clip-rule="evenodd" fill="#CB736F" d="M96.062,66.56c0,0-9.157-10.015-18.241-12.811
		c-1.379-0.422-3.379-0.174-5.691,0.67c0.547,0.783,1.031,1.615,1.43,2.535c0.571,1.318,1.205,3.044,1.268,4.672
		c1.578,0.56,3.106,1.367,4.535,2.113c1.951,1.019,3.839,2.174,5.84,3.106c0.87,0.396,1.739,0.77,2.646,1.056
		c0.436,0.137,0.858,0.274,1.305,0.373c-0.05-0.012,1.057,0.15,0.732,0.137c0.71,0.062,1.417,0.087,2.138,0.025
		c0.1-0.012,0.175-0.012,0.236-0.012c0.05-0.013,0.112-0.038,0.199-0.05c0.336-0.075,0.671-0.149,0.994-0.261
		c0.186-0.049,0.359-0.112,0.534-0.187c0.05-0.012,0.087-0.038,0.149-0.062c0.285-0.149,0.584-0.299,0.857-0.485
		c0.198-0.125,0.385-0.249,0.572-0.385C95.59,66.969,96.012,66.609,96.062,66.56L96.062,66.56z M58.61,102.693
		c0.994,1.142,2.087,2.311,3.293,3.467l0,0c-0.596-0.846-1.155-1.752-1.665-2.685C59.691,103.227,59.145,102.953,58.61,102.693
		L58.61,102.693z"/>
	<path fill-rule="evenodd" clip-rule="evenodd" fill="#CB736F" d="M166.191,309.789c-5.654,1.689-10.799,4.287-15.259,7.53
		c1.728,1.403,3.368,2.919,4.957,4.497c0.957,0.969,1.938,1.913,2.907,2.87c3.146-1.74,6.412-3.205,9.718-4.348l0,0
		c2.224-0.771,4.498-1.442,6.783-2.013c-0.311-0.411-0.62-0.82-0.969-1.207c-1.229-1.366-2.535-2.672-3.901-3.889
		S167.645,310.871,166.191,309.789L166.191,309.789z"/>
	<path fill-rule="evenodd" clip-rule="evenodd" fill="#CB736F" d="M339.962,254.47c3.267,3.344,7.729,5.729,13.357,3.927
		c1.803-0.571,3.429-1.54,4.883-2.82c-0.62-0.26-1.267-0.509-1.901-0.722c-0.472-0.147-1.043-0.248-1.503-0.483
		c-0.771,0.398-1.853-0.149-1.563-1.192c0.073-0.237,0.111-0.435,0.134-0.646c-0.473-0.496-1.006-0.98-1.527-1.267
		c-0.633-0.36-1.502-0.573-1.938-0.598c-2.833-0.174-5.443,0.622-7.915,2.238C341.293,253.353,340.608,253.874,339.962,254.47
		L339.962,254.47z M355.082,199.426c-11.604-16.514-30.18-31.139-38.667-32.929l0,0c0.125,0.113,0.199,0.274,0.174,0.473
		c-0.919,10.735-3.899,21.098-7.53,31.213c1.777-0.671,3.854-0.857,5.729-0.894c7.541-0.138,14.649,1.615,21.296,5.193l0,0
		c3.68,1.963,7.085,4.398,10.128,7.232c0.359-0.734,0.808-1.43,1.255-2.088c1.231-1.802,2.585-3.592,4.139-5.119
		C352.712,201.427,353.878,200.395,355.082,199.426L355.082,199.426z M314.577,170.312c-8.762,17.558-48.721,90.745-114.85,111.133
		c1.392-0.187,2.809-0.187,4.176,0.089c2.62,0.533,5.107,1.949,7.082,3.9c1.13-0.447,2.149-0.335,3.379-0.323
		c1.244,0.013,2.486,0.013,3.729-0.062c2.408-0.137,4.819-0.435,7.219-0.771c4.759-0.672,9.506-1.491,14.189-2.559
		c4.387-1.021,8.772-2.225,12.984-3.84c2.846-1.081,5.765-2.224,8.538-3.604c1.24-2.262,2.383-4.585,3.701-6.797
		c1.554-2.632,3.156-5.243,4.809-7.828c4.563-7.156,9.356-14.152,13.918-21.31c4.608-7.22,9.244-14.562,12.896-22.328
		C303.27,201.252,311.198,186.404,314.577,170.312L314.577,170.312z M244.472,298.208c5.567,1.553,10.874,4.1,14.924,8.15
		c2.957-0.956,6.025-1.563,9.131-1.689c0.722-0.023,1.431-0.036,2.139-0.013c-0.024-0.048-0.063-0.099-0.099-0.136
		c-0.113-0.16-0.174-0.249-0.212-0.298c-0.035-0.038-0.062-0.075-0.099-0.123c-0.249-0.312-0.498-0.61-0.759-0.921
		c-0.522-0.609-1.044-1.218-1.604-1.788l0,0c-2.063-2.151-3.826-3.703-6.174-5.133c-1.616,0.112-3.368-0.138-4.71-0.138
		c-2.66,0-5.467-0.074-8.077,0.523C247.369,296.99,245.889,297.538,244.472,298.208L244.472,298.208z"/>
	<path fill-rule="evenodd" clip-rule="evenodd" fill="#CB736F" d="M229.736,116.088c-7.481,9.667-19.285,18.638-37.65,24.889
		c0.969-0.087,1.938-0.162,2.92-0.225c13.06-0.918,27.212-2.659,38.521-9.48c1.439-0.87,2.881-1.827,4.249-2.895
		c-1.081-1.604-2.014-3.342-3.007-4.896C233.164,120.958,231.512,118.474,229.736,116.088L229.736,116.088z"/>
	<path fill-rule="evenodd" clip-rule="evenodd" fill="#F9BF9B" d="M219.311,72.275c2.074-3.603,0.92-8.461-2.112-11.158
		c-2.808-2.498-6.313-2.472-9.084-0.685c-1.577,0.274-3.231,1.591-4.075,2.734c-1.554,2.113-1.652,5.244-0.956,7.68
		C205.22,78.251,215.631,78.637,219.311,72.275L219.311,72.275z"/>
	<path fill-rule="evenodd" clip-rule="evenodd" fill="#F9BF9B" d="M161.829,62.857c-1.105,0.646-1.9,1.987-2.385,3.068
		c-0.56,1.244-1.02,2.46-0.995,3.841c0.051,1.975,1.081,3.74,2.411,5.131c2.771,2.907,7.48,3.466,10.563,0.771
		c2.919-2.547,3.056-6.624,1.466-9.916c-1.504-3.106-5.442-5.107-8.798-4.174C163.158,61.826,162.414,62.273,161.829,62.857
		L161.829,62.857z"/>
	<path fill="#321A1B" d="M161.829,62.857c-1.105,0.646-1.9,1.987-2.385,3.068c-0.56,1.244-1.02,2.46-0.995,3.841
		c0.051,1.975,1.081,3.74,2.411,5.131c2.771,2.907,7.48,3.466,10.563,0.771c2.919-2.547,3.056-6.624,1.466-9.916
		c-1.504-3.106-5.442-5.107-8.798-4.174C163.158,61.826,162.414,62.273,161.829,62.857L161.829,62.857z"/>
	<path fill="#321A1B" d="M219.311,72.275c2.074-3.603,0.92-8.461-2.112-11.158c-2.808-2.498-6.313-2.472-9.084-0.685
		c-1.577,0.274-3.231,1.591-4.075,2.734c-1.554,2.113-1.652,5.244-0.956,7.68C205.22,78.251,215.631,78.637,219.311,72.275
		L219.311,72.275z"/>
	<path fill="#321A1B" d="M182.295,87.148c2.608,0.46,5.317,0.298,7.94,0.05c1.826-0.186,3.788-0.534,5.094-1.963
		c2.969-3.281-0.572-9.021-3.38-11.133c-2.944-2.224-6.101,0.311-7.729,2.783c-0.981,1.466-1.665,3.119-2.313,4.759
		c-0.385,0.994-0.807,2.224-0.832,3.354C180.803,85.906,181.127,86.95,182.295,87.148L182.295,87.148z M185.227,80.339
		L185.227,80.339c0.646-1.305,2.35-4.871,4.262-4.088c1.168,0.485,1.977,2.038,2.535,3.093c0.435,0.808,1.392,2.759,0.597,3.579
		c-0.671,0.685-2.41,0.548-3.268,0.585c-1.814,0.075-3.629-0.012-5.431,0.025C184.382,82.427,184.755,81.271,185.227,80.339
		L185.227,80.339z"/>
	<path fill="#321A1B" d="M193.664,129.358c4.87-0.286,9.742-0.173,14.601-0.037c2.123,0.063,4.137,0.273,6.226,0.621
		c2.111,0.335,4.199,0.571,6.286,0.013c2.063-0.56,1.181-3.591-0.87-3.168c-0.063,0.012-0.124,0.024-0.174,0.037
		c-0.248-1.739-1.615-3.467-2.473-4.884c-1.205-2-2.087-4.063-2.796-6.287c-0.733-2.286-1.453-4.596-2.026-6.933
		c-0.297-1.167-0.484-2.374-0.644-3.566c-0.15-1.131-0.074-2.423-0.982-3.231c-0.237-0.211-0.521-0.285-0.796-0.223
		c-0.137-0.101-0.286-0.186-0.483-0.224c-1.268-0.272-2.535-0.038-3.803,0.137c-1.604,0.224-3.219,0.422-4.822,0.659
		c-3.106,0.447-6.225,0.919-9.355,1.192c-2.733,0.236-5.505,0.323-8.238,0.372c-2.522,0.05-5.367,0.076-7.804-0.67
		c-0.385-0.597-1.503-0.559-1.789,0.112c-0.994,2.236-0.771,5.094-1.156,7.492c-0.409,2.585-0.956,5.168-1.801,7.643
		c-0.82,2.385-2.001,4.623-3.156,6.846c-1.105,2.113-2.622,4.449-2.933,6.834c-0.149,1.118,1.193,1.9,2.199,1.627
		c1.69,0.101,3.33-0.596,4.959-1.043c2.372-0.658,4.82-1.143,7.243-1.578C183.885,130.24,188.793,129.656,193.664,129.358
		L193.664,129.358z M171.608,129.867L171.608,129.867c-0.819,0.274-1.665,0.559-2.498,0.882c0.672-1.354,1.256-2.796,1.902-4.075
		c1.191-2.386,2.323-4.797,3.192-7.319c0.087-0.248,0.174-0.509,0.249-0.77c0.745-0.111,1.467-0.36,2.187-0.547
		c1.268-0.31,2.51-0.633,3.79-0.856c2.56-0.436,5.393-0.163,7.827-1.094c0.696-0.261,0.709-1.157,0-1.417
		c-2.484-0.932-5.466-0.472-8.025-0.063c-1.504,0.237-3.468,0.572-5.082,1.305c0.335-1.54,0.57-3.118,0.721-4.684
		c0.198-1.964,0.521-4.325,0.148-6.387c1.963,1.093,4.002,1.578,6.338,1.702c2.856,0.162,5.776,0.1,8.646,0
		c3.243-0.099,6.475-0.497,9.68-0.956c1.666-0.237,3.318-0.473,4.983-0.684c0.981-0.111,2.025-0.261,2.982-0.596
		c-0.137,1.503,0.149,3.268,0.272,4.375c0.187,1.789,0.622,3.516,1.106,5.243c-3.517-0.087-7.021-0.299-10.536-0.163
		c-0.97,0.05-0.97,1.455,0,1.517c3.79,0.199,7.529,1.081,11.319,1.404c0.657,2.25,1.478,4.424,2.609,6.486
		c0.497,0.919,1.217,1.739,1.813,2.584c0.226,0.324,0.423,0.646,0.608,0.982c-0.62-0.101-1.242-0.212-1.851-0.324
		c-2.272-0.385-4.523-0.485-6.821-0.56c-4.86-0.161-9.73-0.161-14.588,0.175c-4.809,0.335-9.617,1.118-14.34,2.049
		C175.982,128.513,173.782,129.135,171.608,129.867L171.608,129.867z"/>
	<path fill="#321A1B" d="M143.552,85.694c0.696-0.906,0.372-2.274,0.36-3.368c-0.013-1.34,0.012-2.683-0.025-4.025
		c-0.024-0.982-1.466-0.97-1.503,0c-0.063,1.342-0.149,2.685-0.261,4.025c-0.088,1.107-0.497,2.437,0.211,3.368
		C142.682,86.141,143.203,86.141,143.552,85.694L143.552,85.694z"/>
	<path fill="#321A1B" d="M241.242,79.569c0.148,1.479,0.234,3.081,1.403,4.125c0.373,0.347,0.883,0.173,1.056-0.274
		c0.534-1.379,0.014-2.771-0.285-4.15c-0.372-1.69-0.907-3.367-1.566-4.958c-0.323-0.807-1.526-0.522-1.318,0.361
		C240.906,76.288,241.079,77.916,241.242,79.569L241.242,79.569z"/>
	<path fill="#321A1B" d="M198.658,255.278c-0.408,0.298-0.832,0.782-0.757,1.341c0.111,0.983,1.043,1.491,1.938,1.715
		c-0.012,0,0.261,0.113,0.386,0.162c0.025,0.038,0.038,0.062,0.061,0.112c0.251,0.422,0.038,1.392-0.186,2.025
		c-0.819,2.386-3.963,2.273-5.702,1.181c-4.126-2.599,0.347-10.388,4.024-11.009c1.106-0.2,0.834-1.989-0.261-1.952
		c-4.049,0.187-6.957,2.933-8.424,6.586c-1.565,3.951-0.272,8.338,3.665,10.252c4.101,2.001,8.822,0.148,10.513-4.017
		c0.657-1.6,0.584-3.538-0.211-5.067C202.783,254.819,200.323,254.098,198.658,255.278L198.658,255.278z M200.175,258.423
		L200.175,258.423C200.15,258.385,200.15,258.372,200.175,258.423L200.175,258.423z"/>
	<path fill="#321A1B" d="M158.263,210.484c-1.776-0.073-3.54,0.585-5.292,0.932c-1.827,0.362-3.616,0.758-5.468,0.945
		c-3.964,0.385-7.978,0.175-11.892-0.461c-7.864-1.293-15.32-4.212-22.391-7.854c-0.696-0.359-1.516,0.56-0.869,1.132
		c6.188,5.456,14.238,8.697,22.328,10.114c4.225,0.732,8.536,0.981,12.823,0.62c2.013-0.161,4.025-0.496,6.002-0.956
		c1.901-0.435,4.162-1.254,5.491-2.708C159.618,211.579,159.183,210.522,158.263,210.484L158.263,210.484z"/>
	<path fill="#321A1B" d="M276.332,205.315c-3.916,1.577-7.63,3.517-11.595,4.921c-3.789,1.328-7.765,2.162-11.754,2.583
		c-4.088,0.437-8.226,0.36-12.326,0.013c-4.312-0.372-8.909-1.466-13.221-0.858c-0.782,0.113-0.759,1.22-0.199,1.567
		c3.678,2.323,8.7,2.832,12.949,3.181c4.409,0.372,8.846,0.335,13.245-0.186c8.273-0.994,17.657-3.927,23.532-10.127
		C277.374,205.974,276.964,205.067,276.332,205.315L276.332,205.315z"/>
	<path fill="#321A1B" d="M386.918,173.095c-5.777-12.275-14.812-22.9-24.727-32.057c-11.046-10.189-23.51-18.986-36.42-26.653
		c-11.432-6.797-23.421-12.674-35.809-17.508c-6.188-2.41-12.525-4.411-18.949-6.088c-3.082-0.795-6.201-1.627-9.346-2.087
		c-1.727-0.249-3.453-0.485-5.18-0.696c-0.882-0.111-1.752-0.285-2.624-0.148c-0.022,0.011-0.048,0.011-0.061,0.011
		c0.273-2.969-0.051-5.976-0.82-8.859c-0.782-2.908-2.101-5.654-3.951-8.028c-0.857-1.092-1.765-2.161-2.832-3.031
		c-0.548-0.448-1.155-0.957-1.815-1.317c0.448-2.983-0.596-6.226-1.417-9.058c-0.955-3.294-2.36-6.487-3.902-9.543
		c-3.006-6.014-7.517-11.42-12.673-15.731c-5.69-4.771-12.339-7.865-19.521-9.704c-8.499-2.187-17.297-2.833-25.994-1.59
		c-5.666,0.807-11.245,2.77-16.054,5.89c-4.871,3.143-8.946,7.243-12.438,11.84c-3.267,4.313-5.964,9.221-8.35,14.079
		c-1.354,2.759-2.323,5.654-2.709,8.71c-0.161,1.292-0.349,2.672-0.224,3.964c0.013,0.112,0.025,0.2,0.038,0.299
		c-0.349,0.895-0.746,1.776-1.218,2.61c-0.299,0.546-0.584,1.218-0.522,1.851c-0.235,0.46-0.446,0.982-0.473,1.454
		c0,0.062,0,0.124,0,0.186c-1.217,1.082-2.136,2.623-2.895,4.051c-1.454,2.722-2.138,5.766-2.299,8.834
		c-0.174,3.256,0.05,6.81,1.057,10.053c-0.981,0.112-1.976,0.31-2.971,0.461c-2.348,0.347-4.659,0.843-6.982,1.341
		c-4.448,0.957-8.847,2.225-13.208,3.516c-8.114,2.398-16.004,5.679-24.392,7.133c-3.454,0.596-7.443,0.583-10.872-0.349
		c-3.095-0.857-5.12-2.223-7.244-4.695c-0.063-0.063-0.1-0.125-0.149-0.163c-0.025-0.05-0.075-0.112-0.125-0.187
		c-0.224-0.297-0.435-0.621-0.633-0.931c-0.422-0.645-0.783-1.305-1.118-1.988c-0.148-0.286-0.286-0.583-0.423-0.882
		c0.199,0.448-0.211-0.534-0.236-0.596c-0.311-0.846-0.571-1.715-0.808-2.585c-0.198-0.758-0.36-1.527-0.497-2.298
		c-0.062-0.335-0.123-0.67-0.174-1.006c0.088,0.546-0.049-0.56-0.062-0.633c-0.175-1.739-0.188-3.491-0.101-5.231
		c0.175-3.678,0.896-7.58,2.436-11.046c0.833-1.864,1.852-3.654,2.959-5.368c0.745-1.143,1.564-2.274,2.297-3.429
		c0.907,0.708,1.841,1.403,2.747,2.087c1.641,1.255,3.255,2.521,4.996,3.653c3.354,2.2,7.019,3.791,11.058,3.988
		c7.12,0.361,12.922-5.007,14.45-11.717c0.783-3.479,0.684-7.443-0.596-10.785c-1.317-3.455-3.592-6.053-6.499-8.251
		c-5.69-4.3-13.729-5.529-20.626-6.188c-4.797-0.446-9.916,1.33-13.967,3.766c-2.05,1.217-3.839,2.771-5.728,4.199
		c-1.242,0.933-2.572,1.839-3.604,2.982c-4.934,2.151-9.443,5.257-13.668,8.55c-5.803,4.523-10.959,9.729-15.532,15.482
		C16.39,85.148,9.48,98.679,6.871,113.205c-2.571,14.314-0.138,28.541,6.622,41.389c6.611,12.562,16.912,22.9,28.394,31.076
		c6.932,4.958,14.5,8.91,22.391,12.127c4.597,1.864,9.318,3.218,14.164,4.287c2.685,0.584,5.405,0.82,8.09,1.33
		c1.429,0.273,2.87,0.571,4.3,0.808c0.732,0.125,1.552,0.361,2.298,0.361c0.236,0,0.473-0.026,0.721-0.063
		c2.1,7.02,4.535,13.929,7.504,20.652c3.518,7.988,7.891,15.666,12.253,23.222c4.361,7.542,9.046,14.886,14.227,21.895
		c2.734,3.678,5.629,7.268,8.499,10.834c1.776,2.224,3.592,4.571,5.716,6.524c-1.764,1.068-3.367,2.435-4.896,3.827
		c-2.572,2.348-4.957,4.944-7.145,7.652c-2.273,2.821-4.286,5.804-5.716,9.135c-1.64,3.838-2.534,7.938-3.33,12.027
		c-0.82,4.236-1.268,8.522-0.944,12.822c0.336,4.511,1.728,8.797,3.069,13.085c0.695,2.236,1.404,4.423,2.286,6.56
		c-2.522-1.379-5.355-2.447-8.226-2.758c-6.275-0.658-11.779,4.536-11.506,10.884c0.148,3.554,2.447,6.289,5.679,7.543
		c2.733,1.056,5.765,0.771,8.599,0.41c3.218-0.398,6.437-0.46,9.666-0.758c1.988-0.199,3.952-0.571,5.803-1.33
		c0.796-0.323,2.001-0.979,2.572-1.85c0.422-0.337,0.721-0.846,0.746-1.48c0.223-7.169,3.218-13.941,7.89-19.309
		c4.573-5.244,9.22-8.908,15.271-12.153c3.169-1.689,5.344-2.559,8.425-3.665c3.145-1.117,6.374-1.999,9.643-2.695
		c3.665-0.783,5.964-1.081,9.368-1.392c3.393-0.312,6.785-0.386,10.19-0.386c3.379,0.012,6.746,0.212,10.102,0.535
		c3.317,0.31,5.505,0.633,9.096,1.328c3.169,0.621,6.325,1.367,9.393,2.323c3.479,1.094,6.001,2.199,9.245,3.978
		c5.901,3.23,11.045,7.739,14.874,13.183c1.739,2.474,3.291,5.17,4.597,7.903c0.534,1.143,0.98,2.163,1.43,3.678
		c0.397,1.342,0.31,2.225,0.262,3.79c0.011-0.423-0.138,0.496-0.125,0.472c-0.024,0.113-0.273,0.459-0.337,0.546
		c-1.168,1.815,0.996,3.431,2.66,2.759c1.592,1.081,3.628,1.566,5.517,1.827c2.956,0.422,5.939,0.634,8.934,0.522
		c5.816-0.225,12.091-2.04,15.296-7.295c1.504-2.448,1.603-5.616,0.086-8.077c-1.714-2.819-4.931-3.852-8.026-4.223
		c-2.484-0.299-4.969,0.16-7.304,1.031c0.532-1.02,1.041-2.038,1.539-3.069c3.614-7.396,6.398-15.209,6.997-23.46
		c0.533-7.419-1.467-14.897-6.017-20.788c-4.311-5.592-9.891-10.71-16.798-12.711c0.708-0.932,1.392-1.901,2.037-2.846
		c2.335-3.354,4.36-6.896,6.313-10.475c4.049-7.443,8.438-14.636,12.959-21.808c4.548-7.193,9.121-14.376,13.134-21.893
		c4.151-7.778,7.219-15.916,10.414-24.118c0.234-0.596,0.458-1.182,0.681-1.777c0.733-0.074,1.443-0.186,2.163-0.385
		c0.857-0.248,1.777-0.174,2.646-0.286c2.087-0.249,4.176-0.037,6.266,0.149c1.589,0.137,2.471,0.336,4.271,0.672
		c1.778,0.335,3.518,0.807,5.233,1.366c3.13,1.031,5.986,2.448,8.993,4.336c2.946,1.852,5.345,3.803,7.829,6.337
		c2.398,2.461,4.189,4.995,5.928,7.99c1.714,2.957,2.323,4.674,3.144,8.014c0.745,3.07,1.255,6.375,1.38,9.52
		c0.048,1.043,0.035,2.087-0.026,3.13c-0.907-0.696-1.986-1.243-3.181-1.641c-3.378-1.13-7.442-0.187-10.586,1.192
		c-6.834,2.981-12.091,10.228-11.915,17.77c0.16,7.405,5.453,13.009,12.302,15.047c6.211,1.84,13.069,0.722,18.974-1.614
		c4.086-1.627,7.801-3.803,11.057-6.798c1.528-1.403,2.847-3.104,3.69-4.994c0.322-0.733,0.598-1.442,0.784-2.174
		c0.061-0.074,0.137-0.163,0.198-0.237c2.571-3.392,4.2-7.417,5.975-11.281c1.854-4.064,3.655-8.177,5.27-12.34
		c3.143-8.074,5.592-16.438,6.698-25.05C395.355,199.811,392.944,185.907,386.918,173.095L386.918,173.095z M230.48,45.648
		L230.48,45.648c2.622,3.218,4.896,6.708,6.722,10.437c0.921,1.876,1.716,3.814,2.424,5.777c0.72,2.013,1.18,4.051,2.373,5.828
		c0.313,0.858,1.055,1.503,1.614,2.249c0.747,1.006,1.441,2.05,1.989,3.168c0.993,2.05,1.516,4.424,1.738,6.673
		c0.226,2.397,0.437,5.106,0.028,7.492c-0.251,1.417-0.672,2.783-1.194,4.126c-0.572,1.478-1.33,2.983-0.809,4.584
		c-0.906,3.48,0.596,7.443,1.343,10.86c0.759,3.418,0.409,7.033-0.597,10.339c-0.982,3.18-2.796,5.888-5.021,8.212
		c-0.147-0.199-0.297-0.41-0.447-0.621c-0.148-0.224-0.299-0.435-0.448-0.658c-0.035-3.914-0.496-7.815-0.844-11.704
		c-0.373-4.213-0.832-8.401-1.343-12.602c-0.993-8.125-2.311-16.202-4.272-24.167c-1.95-7.854-3.988-15.792-6.799-23.385
		c-1.354-3.678-3.055-7.206-4.621-10.797c-0.709-1.627-1.328-3.293-1.965-4.945c0.397,0.261,0.797,0.522,1.183,0.794
		C224.765,39.521,227.872,42.454,230.48,45.648L230.48,45.648z M172.019,140.827L172.019,140.827
		c-2.361-1.281-5.02-1.827-7.579-2.622c-2.858-0.882-5.667-1.962-8.264-3.442c-3.032-1.702-5.79-4.039-7.977-6.722
		c0.484-0.833,0.981-1.666,1.478-2.498c0.349-0.224,0.597-0.571,0.659-1.069c6.262-10.139,14.153-19.658,25-24.913
		c12.762-6.164,28.617-3.679,40.457,3.367c5.232,3.119,9.469,7.332,13.159,12.14c2.087,2.696,3.977,5.541,5.816,8.412
		c0.993,1.554,1.926,3.292,3.007,4.896c-1.368,1.068-2.81,2.025-4.249,2.895c-11.309,6.821-25.461,8.562-38.521,9.48
		c-5.99,0.411-11.94,1.255-17.955,0.77C175.349,141.386,173.684,141.137,172.019,140.827L172.019,140.827z M187.364,27.842
		L187.364,27.842c4.535-0.174,9.145,0.161,13.656,1.005c-0.226,0.833-0.312,1.752-0.484,2.486c-0.386,1.665-1.069,3.218-1.928,4.685
		c-1.627,2.808-4.188,5.343-7.392,6.188c-3.393,0.896-6.996-0.845-9.356-3.193c-1.306-1.304-2.337-2.97-3.021-4.685
		c-0.323-0.833-0.534-1.702-0.695-2.571c-0.149-0.846-0.087-1.715-0.323-2.535C180.865,28.413,184.046,27.966,187.364,27.842
		L187.364,27.842z M171.67,31.445L171.67,31.445c-0.397,0.919-0.77,1.863-1.105,2.833c-0.981,2.796-1.628,5.754-2.224,8.649
		c-0.585,2.857-0.994,5.739-1.305,8.646c-0.149,1.418-0.248,2.846-0.323,4.275c-0.063,1.243-0.1,2.583,0.621,3.652
		c0.385,0.547,1.105,0.547,1.479,0c0.646-0.944,0.696-2.075,0.759-3.193c0.073-1.416,0.148-2.833,0.273-4.25
		c0.247-2.821,0.67-5.617,1.192-8.386c0.534-2.771,1.217-5.493,2.024-8.189c0.51-1.74,0.982-3.492,1.479-5.219
		c0.522-0.199,1.058-0.385,1.592-0.548c-0.436,1.517,0.049,3.467,0.422,4.846c0.571,2.087,1.677,3.953,3.031,5.629
		c2.672,3.305,7.071,5.395,11.345,4.885c4.126-0.474,7.381-3.318,9.667-6.612c1.193-1.703,2.051-3.652,2.66-5.641
		c0.262-0.894,0.583-2.211,0.548-3.393c0.993,0.224,1.986,0.485,2.969,0.771c0.299,1.043,0.62,2.075,0.919,3.131
		c0.622,2.237,1.081,4.523,1.527,6.796c0.449,2.286,0.834,4.573,1.231,6.873c0.31,1.751,0.285,4.635,1.653,5.927
		c0.31,0.286,0.969,0.298,1.155-0.148c0.746-1.728-0.212-4.125-0.536-5.902c-0.42-2.275-0.832-4.561-1.291-6.834
		c-0.598-2.896-1.181-6.164-2.286-9.096c0.608,0.199,1.229,0.422,1.827,0.646c2.148,0.795,4.521,1.988,6.82,3.343
		c0.635,2.137,1.454,4.237,2.2,6.336c1.341,3.753,2.858,7.431,4.188,11.184c2.72,7.629,4.459,15.63,6.211,23.533
		c1.789,8.026,2.934,16.204,3.916,24.367c0.483,4.013,0.906,8.027,1.267,12.053c0.175,1.937,0.324,3.889,0.534,5.838
		c-2.213-3.143-4.459-6.237-6.97-9.157c-3.108-3.603-6.759-6.648-10.773-9.133c-0.026-0.957-0.149-1.926-0.199-2.846
		c-0.088-1.602-0.174-3.217-0.285-4.821c-0.211-3.243-0.957-6.399-1.703-9.566c-0.162-0.647-1.13-0.374-1.006,0.284
		c0.609,3.069,0.447,6.176,0.558,9.283c0.063,1.604,0.075,3.219,0.112,4.821c0.013,0.448,0,0.907-0.011,1.38
		c-1.231-0.66-2.487-1.28-3.777-1.84c-6.6-2.882-13.781-4.436-21-4.325c-7.046,0.113-13.843,2.312-19.844,5.952
		c-1.591,0.957-3.119,2.014-4.585,3.145c0-0.485,0.012-0.969,0.024-1.454c0.063-1.64,0.175-3.268,0.273-4.909
		c0.1-1.615,0.311-3.255,0.236-4.871c-0.075-1.615-0.224-3.23-0.249-4.845c-0.024-0.97-1.392-0.932-1.478,0
		c-0.138,1.528-0.436,3.006-0.746,4.511c-0.311,1.527-0.373,3.118-0.534,4.658c-0.324,3.007-0.97,6.387-0.547,9.407
		c-5.231,4.647-9.692,10.313-13.382,16.315c-0.174-6.909-0.187-13.78,0.385-20.688c0.708-8.637,1.765-17.247,3.057-25.821
		c1.255-8.226,3.032-16.364,5.542-24.317c0.97-3.057,2-6.1,3.007-9.157c0.385-1.18,0.795-2.41,1.28-3.616
		c1.019-0.832,2.074-1.627,3.155-2.361C168.278,33.184,169.956,32.24,171.67,31.445L171.67,31.445z M138.817,78.041L138.817,78.041
		c0.447-1.367,1.106-2.621,1.889-3.828c0.497-0.745,0.982-1.59,1.578-2.324c0.46-0.148,0.883-0.471,1.268-0.956
		c1.329-1.74,2.013-4.274,2.671-6.339c0.796-2.533,1.454-5.117,2.188-7.678c0.137-0.484,0.273-0.969,0.422-1.454
		c1.118-2.125,2.337-4.187,3.628-6.175c2.212-3.367,4.735-6.611,7.58-9.48c-0.82,2.298-1.54,4.659-2.348,6.958
		c-2.883,8.164-4.934,16.637-6.351,25.162c-1.441,8.624-2.708,17.271-3.689,25.944c-0.497,4.423-0.945,8.822-0.957,13.284
		c-0.013,4.335,0.124,8.684,0.273,13.034c0.012,0.448,0.162,0.795,0.397,1.056c-0.174,0.335-0.348,0.671-0.509,0.994
		c-0.188-0.261-0.361-0.522-0.522-0.796c-2.323-3.677-3.604-7.915-3.901-12.337c-0.162-2.325-0.037-4.686,0.223-7.008
		c0.125-1.107,0.349-2.213,0.511-3.318c0.198-1.517,0.235-2.548-0.125-4.015c-0.137-0.547-0.796-0.932-1.329-0.782
		c-3.293-2.895-3.878-8.412-3.951-12.5C137.712,82.936,137.997,80.463,138.817,78.041L138.817,78.041z M55.292,53.463L55.292,53.463
		c1.579-0.125,3.007-1.006,4.288-1.914c0.087-0.063,0.186-0.125,0.273-0.186c0.608,0.1,1.218,0.248,1.801,0.386
		c2.188,0.546,4.188,1.243,5.854,2.819c1.565,1.491,2.46,3.442,3.019,5.493c-0.087,0.037-0.174,0.087-0.272,0.136
		c-1.094,0.671-2.088,1.479-3.021,2.387c-0.547-0.784-1.191-1.517-1.764-2.175c-1.354-1.578-2.934-2.97-4.646-4.15
		c-1.766-1.218-3.791-2.261-5.878-2.56C55.058,53.624,55.169,53.538,55.292,53.463L55.292,53.463z M64.724,48.219L64.724,48.219
		c1.504-0.895,3.07-1.702,4.735-2.273c1.739-0.584,3.479-0.584,5.293-0.436c3.665,0.312,7.318,1.218,10.946,2.113
		c1.516,0.361,3.008,0.783,4.485,1.33c0.014,0,0.609,0.248,0.685,0.273c0.272,0.125,0.533,0.249,0.807,0.384
		c0.758,0.361,1.504,0.796,2.212,1.256c0.261,0.174,0.509,0.348,0.771,0.534c-0.373-0.261,0.397,0.335,0.435,0.373
		c0.535,0.459,1.02,0.969,1.479,1.491c0.037,0.036,0.074,0.074,0.1,0.112c0.037,0.049,0.074,0.111,0.148,0.211
		c0.199,0.285,0.372,0.583,0.547,0.882c0.187,0.311,0.335,0.62,0.496,0.944c-0.335-0.683,0.199,0.608,0.249,0.758
		c0.112,0.36,0.198,0.722,0.286,1.082c0,0.024,0.1,0.708,0.124,0.757c0.075,0.734,0.062,1.479,0.05,2.212
		c0,0.398-0.025,0.783-0.062,1.18c0,0.05,0,0.099-0.013,0.137c-0.013,0.063-0.038,0.173-0.063,0.349
		c-0.075,0.359-0.162,0.72-0.261,1.067c-0.037,0.112-0.361,1.044-0.312,0.969c-0.261,0.559-0.571,1.094-0.906,1.615
		c-0.038,0.062-0.075,0.124-0.1,0.162c-0.037,0.038-0.074,0.087-0.124,0.137c-0.212,0.261-0.447,0.484-0.671,0.721
		c-0.05,0.05-0.472,0.41-0.496,0.435c-0.188,0.136-0.374,0.26-0.572,0.385c-0.273,0.186-0.572,0.336-0.857,0.485
		c-0.063,0.024-0.1,0.05-0.149,0.062c-0.175,0.074-0.349,0.137-0.534,0.187c-0.323,0.112-0.658,0.186-0.994,0.261
		c-0.087,0.012-0.149,0.037-0.199,0.05c-0.062,0-0.137,0-0.236,0.012c-0.721,0.062-1.428,0.037-2.138-0.025
		c0.324,0.013-0.782-0.148-0.732-0.137c-0.446-0.099-0.869-0.236-1.305-0.373c-0.907-0.286-1.776-0.659-2.646-1.056
		c-2.001-0.932-3.889-2.087-5.84-3.106c-1.429-0.746-2.957-1.553-4.535-2.113c-0.063-1.627-0.696-3.354-1.268-4.672
		c-1.069-2.447-2.708-4.412-4.833-6.001c-1.441-1.105-3.243-1.678-5.021-2.112C64.041,48.642,64.376,48.431,64.724,48.219
		L64.724,48.219z M28.193,79.632L28.193,79.632c4.212-6.064,9.219-11.594,14.662-16.589c2.956-2.733,6.139-5.144,9.394-7.455
		c2.646,0.138,5.393,2.001,7.244,3.592c1.305,1.105,2.51,2.286,3.603,3.603c0.659,0.795,1.156,1.702,1.716,2.572
		c-0.882,1.131-1.679,2.311-2.424,3.467c-2.049,3.194-3.615,6.785-4.659,10.425c-1.702,5.889-1.54,12.698,0.236,18.674
		c-1.901-0.683-3.877-1.156-5.865-1.478c-4.908-0.758-9.841-0.422-14.712,0.397c-5.082,0.857-10.338,1.901-15.109,3.901
		c-2.336,0.981-4.548,2.174-6.424,3.902c-0.05,0.037-0.087,0.087-0.137,0.124C18.464,95.822,22.912,87.222,28.193,79.632
		L28.193,79.632z M255.444,283.062L255.444,283.062c-1.118,1.541-2.275,3.019-3.144,4.647c-0.934,0.371-1.864,0.757-2.835,1.056
		c-3.925,1.181-8.001,1.89-12.04,2.585c-4.211,0.721-8.499,0.856-12.674,1.727c-3.217,0.684-6.373,1.653-9.579,2.338
		c0.124-2.077-0.36-4.127-1.281-5.991c0.162,0,0.323,0.013,0.473,0.013c1.244,0.037,2.486,0.025,3.729-0.013
		c2.435-0.087,4.87-0.409,7.281-0.707c4.982-0.609,9.902-1.467,14.786-2.585c4.597-1.056,9.081-2.398,13.432-4.225
		c1.342-0.572,2.646-1.18,3.927-1.852C256.849,281.073,256.152,282.079,255.444,283.062L255.444,283.062z M209.99,297.028
		L209.99,297.028c-1.118,2.137-3.813,3.044-5.975,3.64c-4.14,1.144-9.967,1.64-13.297-1.641c-1.727-1.703-2.175-4.436-1.703-6.734
		c0.262-1.242,0.846-2.373,1.703-3.305c0.447-0.495,1.031-1.031,1.654-1.502c1.489-0.112,3.006-0.623,4.41-0.97
		c1.801-0.448,3.665-0.672,5.516-0.597c2.672,0.1,5.183,2.001,6.637,4.124C210.265,291.995,211.135,294.815,209.99,297.028
		L209.99,297.028z M186.358,289.225L186.358,289.225c-0.958,1.789-1.356,3.864-1.231,5.889c-2.174-0.583-4.647-0.544-6.709-0.645
		c-1.74-0.087-3.492-0.113-5.207-0.386c-1.987-0.323-3.951-0.895-5.902-1.366c-3.926-0.933-7.84-1.889-11.691-3.144
		c-1.802-0.585-3.542-1.293-5.244-2.126c-0.074-0.284-0.187-0.584-0.373-0.882c-2.05-3.281-4.846-6.051-7.38-8.983
		c4.684,1.939,9.506,3.665,14.239,5.418c5.367,1.987,10.822,3.517,16.477,4.424c2.771,0.447,5.542,0.583,8.336,0.732
		c1.803,0.087,3.542,0.185,5.296,0.049C186.742,288.529,186.544,288.877,186.358,289.225L186.358,289.225z M121.783,361.704
		L121.783,361.704c-2.213,0.197-4.399,0.508-6.624,0.384c-0.56-0.037-1.366-0.249-1.95-0.584c0.261,0.123-0.386-0.509-0.386-0.384
		c0-0.014-0.013-0.039-0.025-0.039c-0.024-0.147-0.063-0.335-0.087-0.422c0.013-0.348,0.039-0.894,0-0.695
		c0.075-0.422,0.175-0.834,0.312-1.243c0.149-0.496,0.658-1.28,1.105-1.776c0.534-0.598,0.672-0.621,1.441-0.832
		c0.622-0.175,1.516-0.199,2.249-0.1c3.814,0.509,7.194,2.857,10.972,3.415c0.485,0.759,1.031,1.506,1.628,2.188
		c-0.1,0-0.198,0-0.299,0C127.336,361.667,124.565,361.453,121.783,361.704L121.783,361.704z M136.892,347.178L136.892,347.178
		c-1.143,2.509-2.001,5.119-2.474,7.839c-0.098,0.548-0.161,1.084-0.21,1.605c-0.646-1.046-1.23-2.126-1.765-3.231
		c-1.38-2.858-1.913-5.978-2.685-9.034c-0.894-3.529-1.926-7.069-2.212-10.712c-0.285-3.763,0.125-7.616,0.82-11.317
		c0.646-3.442,1.38-6.982,2.609-10.264c0.05-0.112,0.087-0.225,0.137-0.336c5.566,0.782,10.575,2.97,15.222,6.35
		c2.659,1.937,5.045,4.262,7.293,6.647c0.609,0.646,1.193,1.316,1.778,1.986C147.515,331.782,140.743,338.728,136.892,347.178
		L136.892,347.178z M168.515,320.339L168.515,320.339c-3.306,1.143-6.572,2.607-9.718,4.348c-0.969-0.957-1.95-1.901-2.907-2.87
		c-2.447-2.436-5.007-4.697-7.827-6.697c-4.66-3.316-9.991-5.678-15.631-6.063c0.931-1.64,2.062-3.281,3.018-4.486
		c2.039-2.572,4.25-5.006,6.624-7.28c1.553,0.311,3.132,0.857,4.622,1.244c1.802,0.458,3.516,1.167,5.182,1.986
		c3.454,1.716,6.623,4.05,9.841,6.151c3.057,1.986,5.989,4.138,8.71,6.56c1.366,1.217,2.672,2.522,3.901,3.889
		c0.349,0.387,0.658,0.796,0.969,1.207C173.013,318.896,170.738,319.567,168.515,320.339L168.515,320.339z M209.196,316.274
		L209.196,316.274c-9.083-0.994-18.452-0.844-27.535,0.708c-1.877-2.769-4.586-5.193-7.059-7.279
		c-3.242-2.734-6.771-5.107-10.399-7.282c-3.592-2.149-7.295-4.237-11.208-5.777c-1.877-0.734-3.839-1.243-5.84-1.566
		c-0.808-0.124-1.641-0.186-2.474-0.174c1.329-1.168,2.709-2.274,4.113-3.316c1.354,0.633,2.733,1.204,4.125,1.726
		c3.927,1.466,8.065,2.485,12.152,3.405c3.753,0.845,7.518,1.689,11.382,1.764c1.802,0.052,3.604-0.062,5.406-0.049
		c1.328,0.011,2.683,0.148,4.025,0.162c2.273,5.739,8.735,7.565,14.389,7.392c5.206-0.173,12.039-2.286,14.202-7.469
		c3.355,0.361,6.573-0.31,9.929-0.968c4.162-0.82,8.374-1.031,12.587-1.616c1.169-0.161,2.334-0.347,3.504-0.546
		c-2.138,1.242-4.15,2.709-6.101,4.188c-3.854,2.92-7.754,5.628-11.084,9.182c-2.322,2.461-4.634,5.406-5.964,8.648
		C214.651,316.933,211.917,316.572,209.196,316.274L209.196,316.274z M284.245,354.099L284.245,354.099
		c-0.347-0.123,0.188,0.175,0.484,0.335c0.038,0.037,0.089,0.088,0.162,0.148c0.025,0.038,0.051,0.05,0.075,0.076
		c0.024,0.036,0.051,0.073,0.087,0.137c0.013,0.035,0.025,0.062,0.038,0.086c0.023,0.063,0.036,0.111,0.048,0.174
		c0,0.038,0.013,0.087,0.013,0.137c0,0.051,0,0.087,0,0.124c0,0.038-0.013,0.075-0.024,0.138c-0.036,0.149-0.086,0.285-0.137,0.435
		c-0.024,0.05-0.062,0.125-0.124,0.235c-0.285,0.561-0.349,0.599-0.795,1.094c-2.561,2.771-7.022,3.268-10.897,3.491
		c-2.324,0.126-4.648,0.014-6.971-0.149c-0.013,0-0.013,0-0.025,0c0.274-0.271,0.548-0.547,0.809-0.818
		c0.248-0.262,0.484-0.51,0.72-0.771c2.561-0.262,4.587-1.753,6.76-3.119c2.039-1.306,4.236-2.226,6.66-2.273
		C282.271,353.539,283.127,353.688,284.245,354.099L284.245,354.099z M270.702,338.803L270.702,338.803
		c-1.542,3.467-3.405,6.771-5.07,10.177c-0.584,1.205-1.192,2.397-1.802,3.578c-0.658-2.138-1.577-4.163-2.371-5.715
		c-3.257-6.288-7.368-11.892-12.862-16.415c-2.572-2.111-5.305-3.914-8.151-5.467c3.691-5.866,9.804-10.289,15.993-13.06
		c3.678-1.666,7.691-2.744,11.729-2.982c1.79-0.1,3.604-0.023,5.367,0.272c0.534,1.034,0.823,1.865,1.206,3.169
		c0.261,0.87,0.459,1.752,0.621,2.634c0.175,0.907,0.199,1.294,0.274,2.499C276.082,324.713,273.61,332.291,270.702,338.803
		L270.702,338.803z M267.894,301.391L267.894,301.391c0.56,0.57,1.081,1.179,1.604,1.788c0.261,0.311,0.51,0.609,0.759,0.921
		c0.037,0.048,0.063,0.085,0.099,0.123c0.038,0.049,0.099,0.138,0.212,0.298c0.036,0.037,0.074,0.088,0.099,0.136
		c-0.708-0.023-1.417-0.011-2.139,0.013c-4.658,0.187-9.231,1.455-13.468,3.368c-7.145,3.229-13.494,8.648-16.949,15.718
		c-5.418-2.635-11.208-4.422-17.146-5.666c1.541-2.298,3.106-4.547,5.12-6.561c3.182-3.156,6.933-5.554,10.486-8.251
		c3.765-2.857,7.679-5.579,12.363-6.634c2.61-0.598,5.417-0.523,8.077-0.523c1.342,0,3.094,0.25,4.71,0.138
		C264.067,297.688,265.831,299.239,267.894,301.391L267.894,301.391z M336.084,202.482L336.084,202.482
		c-6.646-3.579-13.755-5.331-21.296-5.193c-1.875,0.037-3.952,0.223-5.729,0.894c3.631-10.115,6.611-20.478,7.53-31.213
		c0.075-0.771-1.217-0.945-1.342-0.186c-2.896,17.457-11.468,33.4-18.898,49.229c-3.652,7.767-8.288,15.108-12.896,22.328
		c-4.562,7.157-9.355,14.153-13.918,21.31c-1.652,2.585-3.255,5.196-4.809,7.828c-1.318,2.212-2.461,4.535-3.701,6.797
		c-2.773,1.381-5.692,2.523-8.538,3.604c-4.212,1.615-8.598,2.819-12.984,3.84c-4.684,1.067-9.431,1.887-14.189,2.559
		c-2.399,0.336-4.811,0.634-7.219,0.771c-1.243,0.074-2.485,0.074-3.729,0.062c-1.229-0.012-2.249-0.124-3.379,0.323
		c-1.975-1.951-4.462-3.367-7.082-3.9c-2.398-0.486-4.934-0.111-7.258,0.558c-1.976,0.572-4.312,1.392-5.864,2.847
		c-0.36,0.123-0.722,0.298-1.081,0.533c-2.522,0.075-5.07-0.422-7.556-0.807c-2.771-0.411-5.541-0.56-8.287-1.105
		c-5.418-1.068-10.724-2.572-15.93-4.449c-5.144-1.865-10.251-3.877-15.383-5.79c-2.063-0.772-3.964-1.927-5.853-3.045
		c-1.019-1.279-2.024-2.546-3.031-3.827c-5.344-6.734-10.102-13.929-14.649-21.209c-4.623-7.395-9.245-14.911-13.122-22.727
		c-3.938-7.916-7.095-16.191-9.952-24.554c-2.747-8.027-5.555-16.042-8.227-24.092c-0.311-0.945-1.739-0.56-1.49,0.41
		c2.174,8.275,3.84,16.674,6.101,24.938c-0.721-0.236-1.453-0.459-2.187-0.671c-2.274-0.67-4.498-1.417-6.723-2.224
		c-4.262-1.541-8.648-2.759-12.91-4.337c-3.38-1.242-5.566-2.149-8.747-3.665c-3.082-1.455-6.09-3.07-9.009-4.821
		c-11.557-6.872-22.08-15.929-29.535-27.026c-7.605-11.333-11.395-24.143-10.239-37.812c0.249-2.982,0.732-5.964,1.404-8.921
		c0.782-0.56,1.528-1.181,2.248-1.827c1.79-1.627,3.853-2.82,6.103-3.74c4.484-1.826,9.492-2.56,14.252-3.33
		c4.447-0.708,9.107-1.118,13.593-0.497c2.199,0.298,4.361,0.883,6.449,1.652c1.056,0.386,2.124,0.982,3.218,1.479
		c3.145,5.815,8.201,10.003,14.886,11.619c8.412,2.038,17.222-0.224,25.187-2.982c6.362-2.199,12.612-4.734,18.924-7.045
		c3.243-1.194,6.549-2.286,9.816-3.43c1.728-0.596,3.43-1.217,5.145-1.852c0.832-0.311,1.628-0.596,2.398-0.931
		c0.571,0.943,1.254,1.813,2.038,2.608c0.062,0.051,0.11,0.099,0.173,0.149c-0.447,1.118-0.795,2.236-1.081,3.417
		c-0.634,2.647-0.931,5.369-0.956,8.078c-0.063,5.479,1.242,10.871,3.79,15.716c2.646,5.033,6.784,9.009,11.643,11.891
		c2.92,1.753,6.125,3.095,9.493,3.678c0.41,0.075,0.819,0.137,1.23,0.211c4.783,2.437,10.127,3.716,15.568,4.101
		c3.504,0.249,7.007-0.049,10.523,0.013c3.38,0.063,6.711-0.099,10.091-0.372c13.842-1.107,28.591-3.716,40.319-11.62
		c6.426-4.323,11.756-10.412,13.482-18.116c0.882-4.001,0.621-7.915-0.385-11.853c-0.534-2.063-1.329-4.026-2.087-6.015
		c-0.397-1.069-0.71-2.125-1.093-3.167c1.539-0.783,2.322-2.4,2.969-3.989c0.186-0.436,0.347-0.883,0.51-1.33
		c0.347,0.173,0.695,0.335,1.042,0.409c0.958,0.237,1.928,0.472,2.883,0.733c2.101,0.535,4.176,1.18,6.276,1.714
		c4.076,1.058,8.126,2.287,12.128,3.629c7.976,2.684,15.814,5.852,23.446,9.43c14.898,6.997,29.088,15.594,42.333,25.348
		c5.345,3.927,10.675,8.276,15.782,13.009c2.508,2.336,4.931,4.76,7.269,7.271c1.104,1.192,2.174,2.409,3.229,3.64
		c0.535,0.622,1.045,1.243,1.553,1.864c0.261,0.311,0.512,0.621,0.76,0.932c0.073,0.1,0.694,0.882,0.694,0.895
		c3.976,5.181,7.419,10.772,10.139,16.712c0.646,1.417,0.87,1.963,1.541,3.728c0.599,1.59,1.131,3.206,1.605,4.834
		c0.346,1.144,0.645,2.299,0.917,3.466c-0.77-0.087-1.528-0.124-2.197-0.174c-2.51-0.186-5.034,0-7.507,0.422
		c-4.349,0.733-8.574,2.398-12.426,4.486c-3.9,2.112-7.517,4.809-10.685,7.903c-1.554,1.527-2.907,3.317-4.139,5.119
		c-0.447,0.658-0.896,1.354-1.255,2.088C343.169,206.881,339.764,204.445,336.084,202.482L336.084,202.482z M358.29,245.809
		L358.29,245.809c0.063-0.359,0.126-0.707,0.188-1.067c2.608-0.336,5.43,0.423,7.664,1.604c1.505,0.782,2.907,1.801,4.176,2.919
		c1.131,0.996,2.002,2.388,3.194,3.292c-0.746,1.742-1.48,3.469-2.039,5.258c-1.479-1.404-3.18-2.572-4.883-3.666
		c-2.386-1.54-6.126-3.802-9.295-3.504c-0.024-0.101-0.037-0.199-0.063-0.286C357.754,248.892,357.992,247.338,358.29,245.809
		L358.29,245.809z M358.538,269.48L358.538,269.48c-5.081,2.349-10.909,3.305-16.042,1.777c-0.334-0.101-0.658-0.212-0.98-0.336
		c-0.063-0.025-0.111-0.037-0.149-0.049c-0.062-0.026-0.137-0.063-0.248-0.124c-0.609-0.287-1.205-0.634-1.765-1.007
		c-0.036-0.013-0.398-0.3-0.51-0.373c-0.198-0.174-0.397-0.359-0.583-0.548c-0.249-0.234-0.473-0.495-0.697-0.745
		c0.437,0.484-0.36-0.547-0.446-0.671c-0.187-0.299-0.35-0.621-0.51-0.934c-0.038-0.073-0.062-0.134-0.089-0.171
		c-0.022-0.063-0.048-0.163-0.111-0.323c-0.123-0.361-0.224-0.733-0.323-1.107c0.026,0.113-0.246-1.256-0.173-0.708
		c-0.236-1.888-0.036-2.907,0.56-4.685c0.286-0.845,1.305-2.598,1.914-3.342c1.118-1.366,2.323-2.397,3.603-3.229
		c2.472-1.616,5.082-2.412,7.915-2.238c0.437,0.024,1.306,0.237,1.938,0.598c0.521,0.286,1.055,0.771,1.527,1.267
		c-0.022,0.212-0.061,0.409-0.134,0.646c-0.289,1.043,0.793,1.591,1.563,1.192c0.46,0.235,1.031,0.336,1.503,0.483
		c0.883,0.3,1.753,0.66,2.61,1.021c1.565,0.67,3.019,1.589,4.461,2.473c1.59,0.98,3.167,2.012,4.609,3.204
		c0.299,0.25,0.583,0.523,0.858,0.809c-0.759,0.707-1.542,1.393-2.313,2.087C364.415,266.387,361.434,268.139,358.538,269.48
		L358.538,269.48z M386.023,209.962L386.023,209.962c-0.175,2.647-0.41,4.437-0.819,6.871c-0.522,3.07-1.231,6.103-2.025,9.108
		c-1.577,5.901-3.641,11.668-5.866,17.345c-0.722,1.865-1.479,3.717-2.234,5.556c-0.659-0.819-1.48-1.565-2.152-2.188
		c-1.576-1.466-3.367-2.684-5.305-3.628c-1.926-0.932-3.951-1.515-6.076-1.69c-0.943-0.074-1.801,0.014-2.609,0.236
		c0.224-1.987,0.336-4,0.285-6.014c-0.174-6.747-2.745-13.146-6.635-18.6c-1.291-1.815-2.708-3.53-4.235-5.133
		c0.495-0.621,0.969-1.268,1.453-1.926c1.205-1.628,2.66-3.095,4.149-4.462c3.043-2.808,6.336-5.192,9.99-7.143
		c3.491-1.876,7.221-3.27,11.107-4.052c2.013-0.409,4.039-0.484,6.09-0.434c1.268,0.025,2.521,0.173,3.777,0.409
		c0.136,0.025,0.261,0.05,0.398,0.075c0.086,0.533,0.172,1.068,0.247,1.59c0,0,0.138,1.031,0.149,1.143
		c0.063,0.535,0.112,1.081,0.161,1.616c0.124,1.23,0.2,2.472,0.248,3.703C386.236,204.881,386.185,207.429,386.023,209.962
		L386.023,209.962z"/>
	<path fill-rule="evenodd" clip-rule="evenodd" fill="#F9F6EA" d="M171.608,129.867L171.608,129.867
		c-0.819,0.274-1.665,0.559-2.498,0.882c0.672-1.354,1.256-2.796,1.902-4.075c1.191-2.386,2.323-4.797,3.192-7.319
		c0.087-0.248,0.174-0.509,0.249-0.77c0.745-0.111,1.467-0.36,2.187-0.547c1.268-0.31,2.51-0.633,3.79-0.856
		c2.56-0.436,5.393-0.163,7.827-1.094c0.696-0.261,0.709-1.157,0-1.417c-2.484-0.932-5.466-0.472-8.025-0.063
		c-1.504,0.237-3.468,0.572-5.082,1.305c0.335-1.54,0.57-3.118,0.721-4.684c0.198-1.964,0.521-4.325,0.148-6.387
		c1.963,1.093,4.002,1.578,6.338,1.702c2.856,0.162,5.776,0.1,8.646,0c3.243-0.099,6.475-0.497,9.68-0.956
		c1.666-0.237,3.318-0.473,4.983-0.684c0.981-0.111,2.025-0.261,2.982-0.596c-0.137,1.503,0.149,3.268,0.272,4.375
		c0.187,1.789,0.622,3.516,1.106,5.243c-3.517-0.087-7.021-0.299-10.536-0.163c-0.97,0.05-0.97,1.455,0,1.517
		c3.79,0.199,7.529,1.081,11.319,1.404c0.657,2.25,1.478,4.424,2.609,6.486c0.497,0.919,1.217,1.739,1.813,2.584
		c0.226,0.324,0.423,0.646,0.608,0.982c-0.62-0.101-1.242-0.212-1.851-0.324c-2.272-0.385-4.523-0.485-6.821-0.56
		c-4.86-0.161-9.73-0.161-14.588,0.175c-4.809,0.335-9.617,1.118-14.34,2.049C175.982,128.513,173.782,129.135,171.608,129.867
		L171.608,129.867z"/>
	<path fill-rule="evenodd" clip-rule="evenodd" fill="#F9BF9B" d="M185.227,80.339L185.227,80.339
		c0.646-1.305,2.35-4.871,4.262-4.088c1.168,0.485,1.977,2.038,2.535,3.093c0.435,0.808,1.392,2.759,0.597,3.579
		c-0.671,0.685-2.41,0.548-3.268,0.585c-1.814,0.075-3.629-0.012-5.431,0.025C184.382,82.427,184.755,81.271,185.227,80.339
		L185.227,80.339z"/>
</g>
</svg>
