<?xml version="1.0" encoding="utf-8"?>
<!-- Generator: Adobe Illustrator 16.0.0, SVG Export Plug-In . SVG Version: 6.00 Build 0)  -->
<!DOCTYPE svg PUBLIC "-//W3C//DTD SVG 1.1//EN" "http://www.w3.org/Graphics/SVG/1.1/DTD/svg11.dtd">
<svg version="1.1" id="Layer_1" xmlns="http://www.w3.org/2000/svg" xmlns:xlink="http://www.w3.org/1999/xlink" x="0px" y="0px"
	 width="400px" height="400px" viewBox="0 0 400 400" enable-background="new 0 0 400 400" xml:space="preserve">
<g>
	<path fill-rule="evenodd" clip-rule="evenodd" fill="#E4D0AA" d="M158.11,391.453c71.008,0,128.916-8.099,128.916-18.033
		c0-9.925-57.907-18.036-128.916-18.036c-70.997,0-128.904,8.111-128.904,18.036C29.206,383.354,87.113,391.453,158.11,391.453
		L158.11,391.453z"/>
	<path fill-rule="evenodd" clip-rule="evenodd" fill="#321A1B" d="M391.038,129.127c-1.627-6.275-8.596-8.551-14.332-6.726
		c-6.506,2.066-10.506,8.396-11.726,14.783c-0.232,1.198-0.463,2.384-0.792,3.56c-0.143,0.516-0.318,1.022-0.484,1.539
		c-3.33,1.022-6.658,2.011-9.947,3.154c-3.658,1.275-7.351,2.451-11.076,3.495c-7.462,2.1-14.968,4.023-22.563,5.616
		c-7.749,1.638-15.606,2.771-23.41,4.034c-7.793,1.275-15.597,2.495-23.476,3.088c-3.803,0.286-7.604,0.319-11.418,0.296
		c-1.869-0.022-3.736,0.275-5.594,0.067c-1.859-0.22-3.714-0.627-5.507,0.066c-0.121,0.054-0.229,0.109-0.34,0.175
		c-0.463-0.692-0.969-1.363-1.518-2c-0.979-1.165-2.177-2.32-3.573-2.946c0.133-1.165,0.275-2.275,0.233-3.485
		c-0.067-1.604-0.177-3.242-0.475-4.835c-0.537-2.935-1.329-5.813-2.407-8.605c-2.207-5.748-5.405-11.1-9.9-15.387
		c-9.748-9.297-24.443-11.562-37.069-7.66c-6.804,2.099-12.74,5.824-17.86,10.737c-2.703,2.595-5.056,5.551-7.199,8.617
		c-2.197,3.154-4.527,6.66-5.582,10.386c-0.045,0.153-0.056,0.307-0.056,0.46c-0.505-0.055-1.154,0.088-1.604,0.209
		c-1.242,0.319-2.43,1.055-3.407,1.857c-2.098,1.704-3.407,4.199-4.287,6.716c-0.176,0.516-0.33,1.044-0.46,1.583
		c-0.298-0.209-0.628-0.374-0.979-0.484c-1.769-0.549-3.583-0.989-5.352-1.55c-2.176-0.681-4.517-0.879-6.77-1.144
		c-4.045-0.483-8.122-0.659-12.2-0.604c-7.924,0.088-15.837,1.231-23.596,2.835c-13.87,2.869-27.376,7.946-39.313,15.651
		c-10.022,6.472-18.849,15.156-23.31,26.256c-1.495-1.551-2.626-3.309-3.617-5.209c-2.065-3.957-2.57-8.321-4.142-12.419
		c-0.034-0.088-0.089-0.165-0.166-0.22c-0.44-1.043-0.846-1.846-1.771-2.616c-1.109-0.922-2.241-1.659-3.571-2.242
		c-2.648-1.154-5.428-1.758-8.331-1.957c-4.252-0.297-10.022,1.253-12.55,4.891c-1.714,2.483-1.054,5.495,0.726,7.715
		c1.714,2.121,4.913,2.626,7.451,2.758c2.396,0.132,4.835-0.208,7.209-0.473c1.813-0.198,3.627-0.462,5.407-0.879
		c0.517-0.109,1.088-0.264,1.682-0.462c-0.286,1.198-0.494,2.418-0.725,3.595c-0.692,3.494-1.265,7.033-1.539,10.594
		c-0.561,7.1-0.275,14.231,0.758,21.288c2.1,14.178,8.012,27.52,17.014,38.653c8.132,10.091,18.924,18.1,30.419,23.992
		c11.729,5.999,24.476,10.352,37.357,13.1c5.022,1.066,10.1,1.813,15.199,2.308c0.287,0.309,0.638,0.55,1.078,0.682
		c2.012,0.572,3.901,0.934,5.979,1.12c2.1,0.178,4.177,0.396,6.276,0.518c3.967,0.221,8.012-0.034,11.979-0.188
		c8.122-0.318,16.212-1.099,24.245-2.307c14.594-2.177,29.023-6.089,42.63-11.816c26.023-10.946,49.127-27.881,69.964-46.729
		c10.199-9.231,19.882-18.991,29.3-29.003c10.211-10.858,20.289-21.915,29.498-33.642c7.407-9.43,14.453-19.211,20.179-29.773
		c1.011,0.022,1.89-0.935,1.494-1.967c0.99-0.143,2.034-0.11,3.001-0.265c3.098-0.527,6.133-1.725,8.694-3.56
		C389.643,140.931,392.589,135.051,391.038,129.127L391.038,129.127z"/>
	<path fill-rule="evenodd" clip-rule="evenodd" fill="#F9BF9B" d="M244.021,261.264c-1.395,0.561-2.835,0.737-4.221,1.373
		c-1.406,0.639-2.748,1.473-4.065,2.265c-2.805,1.682-5.65,3.055-8.858,3.749c-3.407,0.735-6.935,0.735-10.398,0.34
		c-1.724-0.199-3.429-0.605-5.142-0.956c-1.738-0.352-3.32-0.474-5.079-0.407c-0.517,0.012-0.944,0.725-0.462,1.11
		c1.32,1.044,2.561,1.856,4.198,2.373c1.825,0.573,3.683,0.923,5.561,1.188c3.771,0.528,7.541,0.517,11.277-0.186
		c3.374-0.649,6.464-2.089,9.396-3.837c1.461-0.879,2.835-1.857,4.231-2.823c0.671-0.464,1.286-0.99,1.902-1.517
		c0.714-0.605,1.197-1.33,2.01-1.837C244.801,261.836,244.526,261.066,244.021,261.264L244.021,261.264z"/>
	<path fill-rule="evenodd" clip-rule="evenodd" fill="#F9BF9B" d="M159.979,285.388c-1.714,1.264-3.758,3.308-3.451,5.638
		c0.252,1.987,2.033,3.144,3.968,2.979c2.242-0.188,3.89-1.771,4.572-3.847c0.296-0.857-0.331-1.627-1.088-1.924
		c-1.043-0.396-1.89-0.342-2.77,0.341c-0.549,0.429-0.472,1.406,0,1.836c0.023,0.021,0.055,0.045,0.079,0.064
		c-0.276,0.222-0.605,0.375-1.012,0.463c-0.583,0.133-0.825-0.077-0.825-0.482c0.011-1.244,1.572-2.475,2.418-3.166
		c0.615-0.495,1.33-0.847,2.034-1.188c0.692-0.342,1.429-0.22,2.121-0.474c0.44-0.152,0.659-0.615,0.429-1.042
		C165.177,282.267,161.397,284.343,159.979,285.388L159.979,285.388z"/>
	<path fill-rule="evenodd" clip-rule="evenodd" fill="#F9BF9B" d="M385.939,135.326L385.939,135.326
		c-0.759,2.406-2.814,4.572-5.034,5.967c-2.475,1.573-5.32,2.199-8.023,3.232c-0.735,0.286-1.406,0.659-1.978,1.109
		c-0.462-0.406-0.936-0.802-1.343-1.176c-0.559-0.505-1.143-0.989-1.735-1.461c0.945-1.813,1.43-4,1.967-5.759
		c0.847-2.792,2.166-5.165,4.254-7.232c1.847-1.824,4.298-3.076,6.924-3.099c1.198-0.011,2.22,0.275,3.154,0.813
		c0.856,0.484,1.297,1.056,1.814,2.088c0.264,0.528,0.471,1.704,0.493,2.463C386.467,133.458,386.301,134.162,385.939,135.326
		L385.939,135.326z M313.084,212.697L313.084,212.697c-19.531,19.706-39.938,38.565-63.063,53.534
		c-5.802,3.77-11.792,7.253-17.935,10.429c-6.199,3.198-11.935,5.759-18.268,8.111c-14.033,5.209-29.023,8.551-43.729,10.111
		c-6.331,0.672-12.693,1.032-19.056,1.177c-2.32,0.055-4.649,0.055-6.98,0.088c-0.494-0.066-0.988-0.132-1.494-0.177
		c-1.956-0.177-3.967-0.241-5.913-0.539c-3.957-0.604-7.946-0.978-11.902-1.582c-7.022-1.088-13.903-2.779-20.706-4.824
		c-12.342-3.693-23.97-8.682-34.784-15.871c-2.055-1.362-4.033-2.825-5.946-4.353c-0.01-0.021-0.021-0.042-0.021-0.054
		c-0.473-1.055-0.814-2.176-1.144-3.275c-0.681-2.264-1.208-4.561-1.669-6.869c-0.407-2.033-0.835-4.065-1.1-6.122
		c-0.022-0.164-0.043-0.34-0.066-0.515c6.365,6.011,13.816,10.901,21.696,14.737c6.473,3.154,13.199,5.408,20.266,6.726
		c7.066,1.309,14.694,1.979,21.816,0.901c0.208-0.034,0.374-0.121,0.506-0.253c2.12,0.275,4.241,0.616,6.384,0.748
		c3.363,0.219,6.738,0.429,10.1,0.021c6.924-0.847,13.21-4.33,17.079-10.222c1.847-2.813,2.363-6.374,0.868-9.451
		c-1.572-3.254-4.935-5.099-8.265-6.089c-3.396-0.999-6.913-0.902-10.363-0.285c-3.297,0.604-6.132,1.956-8.759,4.001
		c-0.77,0.604-1.473,1.329-2.056,2.152c-0.615-0.097-1.219-0.219-1.802-0.472c-1.329-0.571-2.506-1.428-3.572-2.396
		c-1.099-0.999-2.066-2.131-2.957-3.317c-0.801-1.078-1.955-2.101-2.56-3.288c-0.055-0.12-0.252-0.043-0.208,0.089
		c0.472,1.527,0.593,2.967,1.374,4.417c0.781,1.452,1.824,2.805,2.978,3.979c1.287,1.32,3.309,2.891,5.397,3.628
		c-0.11,0.329-0.198,0.671-0.265,1.011c-1.56-1.011-3.099-2.065-4.538-3.241c-2.518-2.056-4.759-4.44-6.848-6.924
		c-3.638-4.341-6.582-9.222-8.494-14.552c-0.912-2.539-1.705-5.44-1.99-7.968c-0.319-2.814-0.231-4.924,0.637-7.374
		c-0.032,0.088,0.231-0.539,0.243-0.562c0.131-0.285,0.296-0.56,0.45-0.824c0.165-0.273,0.342-0.539,0.517-0.802
		c0.033-0.045,0.055-0.077,0.077-0.11c0.033-0.044,0.099-0.109,0.197-0.219c1.045-1.22,1.957-1.792,3.342-2.671
		c2.813-1.781,5.934-3.265,8.726-4.375c1.836-0.735,3.671-1.462,5.484-2.275c1.802-0.812,3.692-1.944,4.187-3.988
		c0.253-1.065-0.165-2.078-1.088-2.66c-1.648-1.055-3.736-0.693-5.517-0.121c-1.88,0.604-3.726,1.32-5.55,2.1
		c-3.177,1.342-6.297,2.803-9.2,4.681c-2.736,1.781-5.417,4.133-6.869,7.111c-1.318,2.726-1.769,5.738-1.626,8.749
		c0.033,0.483,0.078,0.966,0.122,1.45c-2.484-0.594-4.88-1.099-7.485-1.077c-2.879,0.022-5.879,0.769-8.605,1.671
		c-5.605,1.868-10.848,5.056-15.002,9.265c-2.989,3.011-5.484,6.616-6.879,10.606c-2.88-3.232-5.44-6.693-7.595-10.353
		c-3.231-5.475-5.495-11.596-5.923-17.694c-0.22-3.21,0.011-6.145,0.56-8.892c0.604-3.045,1.616-5.947,2.792-8.408
		c5.748-12.023,17.078-20.024,28.992-25.739c10.133-4.858,21.761-8.101,33.114-10.089c13.057-2.287,26.311-2.044,39.291,0.46
		c0.724,0.143,1.46,0.078,2.098-0.165c0.012,0.374,0.023,0.737,0.034,1.1c0.077,1.362,0.319,2.747,0.659,4.066
		c0.133,0.55,0.319,1.088,0.517,1.605c0.11,0.286,0.253,0.583,0.462,0.835c-1.242,1.857-2.188,4.023-3.089,5.991
		c-1.285,2.758-2.406,5.616-2.868,8.638c-0.451,2.934-0.286,6.089,0.957,8.836c1.417,3.122,4.176,5.352,6.869,7.342
		c2.781,2.043,5.879,3.549,8.87,5.252c3.516,2.001,7.144,3.759,10.881,5.298c3.648,1.494,7.396,2.771,11.155,3.924
		c0.955,0.286,1.922,0.571,2.89,0.836c2.308,1.428,5.55,1.846,7.991,2.297c3.921,0.725,7.932,1.087,11.912,1.153
		c5.616,0.099,11.232,0.374,16.848-0.021c5.957-0.418,12.145-1.517,17.31-4.671c5.836-3.561,9.365-9.42,10.188-16.156
		c0.494-4-0.056-8.033-1.012-11.924c-0.46-1.879-1.055-3.682-1.802-5.462c-0.462-1.089-0.988-2.297-1.671-3.353
		c0.331-0.054,0.637-0.219,0.87-0.505c0.384-0.484,0.779-0.846,0.998-1.451c0.232-0.67,0.273-1.384,0.341-2.088
		c0.109-1.121,0.033-2.209-0.088-3.319c-0.187-1.802-0.637-3.561-1.263-5.253c2.966,1.198,6.078,2.11,9.275,2.362
		c3.957,0.32,7.945,0.155,11.902-0.12c8.176-0.562,16.288-1.989,24.312-3.638c3.846-0.791,7.691-1.604,11.528-2.462
		c-0.792,3.847-0.396,7.979,0.252,11.816c0.715,4.286,2.33,8.308,3.803,12.375c1.451,4.034,3.044,8.078,5.286,11.748
		c0.901,1.474,2.154,3.232,3.671,4.485C319.415,206.334,316.237,209.521,313.084,212.697L313.084,212.697z M39.998,238.283
		L39.998,238.283c0.066-0.692,0.076-1.407,0.076-2.164c0.022-1.837,0.617-3.684,1.364-5.344c0.449-1.01,1.011-1.978,1.637-2.89
		c1.308,3.759,3.122,7.364,5.231,10.75c-0.396,0.428-0.736,0.967-1.055,1.429c-0.979,1.417-1.527,3.252-2,4.89
		c-0.242,0.835-0.406,1.683-0.539,2.539c-0.506-0.836-0.989-1.683-1.462-2.539C42.054,242.778,40.965,240.547,39.998,238.283
		L39.998,238.283z"/>
	<path fill-rule="evenodd" clip-rule="evenodd" fill="#F9F6EA" d="M61.286,185.661c0.111-0.066,49.126-26.618,94.736-14.781
		c-0.087-0.166-0.165-0.33-0.231-0.495c-0.198-0.517-0.384-1.055-0.517-1.605c-0.34-1.319-0.582-2.704-0.659-4.066
		c-0.011-0.362-0.021-0.726-0.034-1.1c-0.637,0.243-1.374,0.308-2.098,0.165c-12.98-2.505-26.234-2.748-39.291-0.46
		c-11.353,1.988-22.981,5.231-33.114,10.089C73.321,176.649,66.749,180.628,61.286,185.661L61.286,185.661z M305.391,163.637
		c-0.011,0-38.313,14.606-51.677,7.474l0,0c-0.22-1.549-0.637-3.066-1.175-4.528c2.966,1.198,6.078,2.11,9.275,2.362
		c3.957,0.32,7.945,0.155,11.902-0.12c8.176-0.562,16.288-1.989,24.312-3.638C300.479,164.681,302.939,164.164,305.391,163.637
		L305.391,163.637z"/>
	<path fill-rule="evenodd" clip-rule="evenodd" fill="#CB736F" d="M126.371,205.873c-2.121,9.923-4.572,30.498,6.892,45.159
		c-0.902,0.515-1.781,1.109-2.627,1.77c-0.77,0.604-1.473,1.329-2.056,2.152c-0.615-0.097-1.219-0.219-1.802-0.472
		c-1.329-0.571-2.506-1.428-3.572-2.396c-1.099-0.999-2.066-2.131-2.957-3.317c-0.801-1.078-1.955-2.101-2.56-3.288
		c-0.055-0.12-0.252-0.043-0.208,0.089c0.472,1.527,0.593,2.967,1.374,4.417c0.781,1.452,1.824,2.805,2.978,3.979
		c1.287,1.32,3.309,2.891,5.397,3.628c-0.11,0.329-0.198,0.671-0.265,1.011c-1.56-1.011-3.099-2.065-4.538-3.241
		c-2.518-2.056-4.759-4.44-6.848-6.924c-3.638-4.341-6.582-9.222-8.494-14.552c-0.912-2.539-1.705-5.44-1.99-7.968
		c-0.319-2.814-0.231-4.924,0.637-7.374c-0.032,0.088,0.231-0.539,0.243-0.562c0.131-0.285,0.296-0.56,0.45-0.824
		c0.165-0.273,0.342-0.539,0.517-0.802c0.033-0.045,0.055-0.077,0.077-0.11c0.033-0.044,0.099-0.109,0.197-0.219
		c1.045-1.22,1.957-1.792,3.342-2.671c2.813-1.781,5.934-3.265,8.726-4.375c1.836-0.735,3.671-1.462,5.484-2.275
		C125.305,206.466,125.854,206.19,126.371,205.873L126.371,205.873z"/>
	<path fill-rule="evenodd" clip-rule="evenodd" fill="#CB736F" d="M385.939,135.326L385.939,135.326
		c-0.759,2.406-2.814,4.572-5.034,5.967c-2.475,1.573-5.32,2.199-8.023,3.232c-0.735,0.286-1.406,0.659-1.978,1.109
		c-0.462-0.406-0.936-0.802-1.343-1.176c-0.295-0.263-0.581-0.516-0.89-0.769c3.87-4.375,6.321-6.957,7.113-7.122
		c4.075-0.879,10.154-6.76,10.154-6.76c0.264,0.528,0.471,1.704,0.493,2.463C386.467,133.458,386.301,134.162,385.939,135.326
		L385.939,135.326z M54.878,192.794c0,0-6.714,22.618,11.189,43.368c-2.056,2.494-3.76,5.308-4.814,8.331
		c-2.88-3.232-5.44-6.693-7.595-10.353c-3.231-5.475-5.495-11.596-5.923-17.694c-0.22-3.21,0.011-6.145,0.56-8.892
		c0.604-3.045,1.616-5.947,2.792-8.408C52.165,196.893,53.439,194.772,54.878,192.794L54.878,192.794z M135.021,275.078
		c0,0,66.896,19.102,128.529-27.729c20.377-15.485,39.103-32.75,55.194-48.95c0.044,0.088,0.099,0.175,0.153,0.263
		c0.901,1.474,2.154,3.232,3.671,4.485c-3.153,3.187-6.331,6.374-9.484,9.55l0,0c-19.531,19.706-39.938,38.565-63.063,53.534
		c-5.802,3.77-11.792,7.253-17.935,10.429c-6.199,3.198-11.935,5.759-18.268,8.111c-14.033,5.209-29.023,8.551-43.729,10.111
		c-6.331,0.672-12.693,1.032-19.056,1.177c-2.32,0.055-4.649,0.055-6.98,0.088c-0.494-0.066-0.988-0.132-1.494-0.177
		c-1.956-0.177-3.967-0.241-5.913-0.539c-3.957-0.604-7.946-0.978-11.902-1.582c-7.022-1.088-13.903-2.779-20.706-4.824
		c-12.342-3.693-23.97-8.682-34.784-15.871c-2.055-1.362-4.033-2.825-5.946-4.353c-0.01-0.021-0.021-0.042-0.021-0.054
		c-0.473-1.055-0.814-2.176-1.144-3.275c-0.681-2.264-1.208-4.561-1.669-6.869c-0.407-2.033-0.835-4.065-1.1-6.122
		c-0.022-0.164-0.043-0.34-0.066-0.515c6.365,6.011,13.816,10.901,21.696,14.737c6.473,3.154,13.199,5.408,20.266,6.726
		c7.066,1.309,14.694,1.979,21.816,0.901c0.208-0.034,0.374-0.121,0.506-0.253c2.12,0.275,4.241,0.616,6.384,0.748
		C131.657,274.935,133.339,275.045,135.021,275.078L135.021,275.078z M39.998,238.283L39.998,238.283
		c0.066-0.692,0.076-1.407,0.076-2.164c0.022-1.837,0.617-3.684,1.364-5.344c0.449-1.01,1.011-1.978,1.637-2.89
		c1.308,3.759,3.122,7.364,5.231,10.75c-0.396,0.428-0.736,0.967-1.055,1.429c-0.979,1.417-1.527,3.252-2,4.89
		c-0.242,0.835-0.406,1.683-0.539,2.539c-0.506-0.836-0.989-1.683-1.462-2.539C42.054,242.778,40.965,240.547,39.998,238.283
		L39.998,238.283z"/>
	<path fill-rule="evenodd" clip-rule="evenodd" fill="#EB5E2B" d="M127.569,262.121L127.569,262.121v0.011
		c-0.275,1.384-0.528,2.781-1.011,4.112c-0.451,1.229-1.132,2.384-1.781,3.515c-0.374,0.649-0.857,1.286-1.087,1.968
		c-0.637,0.077-1.274,0.165-1.923,0.266c-1.802-0.3-3.616-0.509-5.43-0.716c0.121-0.154,0.243-0.298,0.374-0.451
		c1.088-1.276,2.111-2.604,3.055-4c1.418-2.101,2.375-4.353,2.858-6.761C124.173,261.021,125.832,261.769,127.569,262.121
		L127.569,262.121z M30.085,182.43L30.085,182.43c-1.396,0.352-2.802,0.638-4.231,0.857c-1.999,0.297-4.066,0.484-6.089,0.572
		c-0.978,0.044-1.956,0.022-2.923-0.065c-0.352-0.034-0.385-0.044-0.1-0.011c-0.274-0.045-0.549-0.11-0.824-0.164
		c-0.208-0.056-0.419-0.122-0.617-0.188c0.221,0.066-0.339-0.153-0.417-0.186c-0.076-0.055-0.164-0.11-0.241-0.154
		c0.11,0.055-0.077-0.11-0.209-0.231c-0.021-0.033-0.044-0.067-0.076-0.11c-0.022-0.032-0.034-0.043-0.045-0.066
		c-0.011-0.043-0.021-0.11-0.054-0.198c0-0.032-0.011-0.043-0.011-0.066c0-0.01,0-0.01,0-0.022c0.011-0.01,0.011-0.01,0.022-0.021
		c0.022-0.043,0.032-0.077,0.054-0.109c0,0,0-0.011,0.012-0.011c0.736-0.857,2.154-1.461,3.583-1.901
		c0.759-0.242,1.528-0.417,2.309-0.55c0.066-0.011,0.11-0.021,0.153-0.032c0.033,0,0.099,0,0.208-0.012
		c0.507-0.043,1.001-0.066,1.506-0.087c2.154-0.077,4.177,0.176,6.254,0.604c1.043,0.209,2.065,0.529,3.066,0.858
		c0.407,0.131,0.769,0.353,1.132,0.561c0.044,0.033,0.088,0.043,0.132,0.065C31.799,181.903,30.941,182.211,30.085,182.43
		L30.085,182.43z M367.287,146.217L367.287,146.217c0.475,0.66,1.057,1.451,1.705,2.166c-0.144,0.516-0.209,1.066-0.188,1.67
		c0,0.021,0,0.055,0.011,0.077c-1.527,2.231-3.099,4.429-4.715,6.594c-0.319-0.209-0.648-0.43-0.9-0.726
		c-0.747-0.857-1.273-2-1.681-3.044c-0.803-2.055-1.319-4.308-1.583-6.507c1.109-0.549,2.21-1.121,3.308-1.715
		c0.199,0.935,1.154,1.595,2.132,1.023c0.385-0.22,0.728-0.484,1.032-0.781C366.695,145.393,366.981,145.8,367.287,146.217
		L367.287,146.217z M240.339,151.042L240.339,151.042c0.361,1.241,0.769,2.462,1.11,3.703c0.329,1.22,0.812,2.363,1.178,3.572
		c0.186,0.638,0.646,0.923,1.131,0.935c0.79,1.055,1.823,1.956,2.681,2.935c1.176,1.363,2.11,2.978,2.736,4.649
		c0.615,1.626,0.736,3.286,0.716,5c-0.023,0.923-0.154,1.835-0.286,2.737c-0.144,0.989-0.242,1.758-0.121,2.659
		c-0.406,0.077-0.76,0.451-0.824,0.946c-0.188,1.407,0.176,2.814,0.34,4.219c0.198,1.705,0.583,3.396,0.902,5.078
		c0.571,3.011,0.78,6.078,0.593,9.144c-0.177,2.803-1.022,5.55-2.417,7.968c-0.728,1.265-1.375,2.109-2.431,3.143
		c-1.099,1.077-1.439,1.309-2.898,2.188c-0.157,0.088-0.299,0.176-0.452,0.253c-1.022-5.265-1.747-10.605-3.232-15.771
		c0.464-1.319,0.594-2.737,0.835-4.111c0.243-1.439,0.507-2.878,0.715-4.33c0.43-2.902,0.736-5.792,0.891-8.715
		c0.309-5.923,0.264-11.88-0.529-17.76c-0.768-5.693-2.119-11.243-3.986-16.672c-0.529-1.561-1.09-3.099-1.682-4.617
		c1.032,1.858,1.935,3.792,2.682,5.715C238.9,146.261,239.636,148.635,240.339,151.042L240.339,151.042z M158.605,157.999
		L158.605,157.999c0.494-2.132,1.318-4.22,2.792-5.879c0.713-0.802,1.483-1.44,2.428-1.946c0.495-0.263,1.154-0.429,1.593-0.758
		c0.11-0.087,0.33-0.263,0.528-0.417c0.583,0.296,1.296,0.273,1.802-0.319c2.319-2.748,4.1-5.913,6.396-8.693
		c2.265-2.715,4.77-5.253,7.474-7.517c2.682-2.242,5.692-4.166,8.825-5.705c-2.639,3.496-4.858,7.375-6.957,11.144
		c-3.021,5.43-5.561,11.09-7.682,16.915c-4.693,12.858-8.857,25.837-12.343,39.07c-0.087,0.364,0.012,0.649,0.197,0.836
		c-0.054,0.055-0.098,0.121-0.142,0.175c-0.736,0.935-1.362,1.902-1.978,2.891c-3.923-2.198-7.583-5.111-7.825-9.759
		c-0.165-2.967,0.626-5.935,1.583-8.716c0.923-2.659,2.363-5.11,3.34-7.727c0.067-0.055,0.123-0.12,0.166-0.208
		c-0.043,0.087-0.043,0.109,0.033-0.034c-0.011,0.01-0.023,0.022-0.033,0.034c0.099-0.177,0.352-0.638,0.34-0.616
		c0.11-0.385,0.11-0.682,0.055-1.077c-0.088-0.539-0.34-1.077-0.483-1.604c-0.286-1.011-0.461-2.055-0.55-3.099
		C157.956,162.637,158.066,160.296,158.605,157.999L158.605,157.999z M219.337,124.138L219.337,124.138
		c-0.143,0.978-0.153,2.012-0.23,2.792c-0.221,2.153-0.615,4.286-1.342,6.33c-0.823,2.352-2.967,5.154-5.649,5.385
		c-3.252,0.287-5.045-3.561-5.989-6.066c-0.714-1.89-1.11-3.901-1.274-5.923c-0.088-0.967-0.12-1.957-0.133-2.924
		c0-0.418,0.033-0.857-0.065-1.23C209.621,121.973,214.689,122.478,219.337,124.138L219.337,124.138z"/>
	<path fill-rule="evenodd" clip-rule="evenodd" fill="#BE361A" d="M126.854,265.318c-0.089,0.309-0.187,0.627-0.297,0.926
		c-0.451,1.229-1.132,2.384-1.781,3.515c-0.374,0.649-0.857,1.286-1.087,1.968c-0.637,0.077-1.274,0.165-1.923,0.266
		c-1.802-0.3-3.616-0.509-5.43-0.716c0.121-0.154,0.243-0.298,0.374-0.451c1.088-1.276,2.111-2.604,3.055-4
		c0.572-0.847,1.066-1.726,1.494-2.627C123.074,264.593,124.941,264.967,126.854,265.318L126.854,265.318z M174.146,139.986
		c0,0-11.78,20.551-7.396,42.181c-1.154,3.891-2.253,7.791-3.287,11.726c-0.087,0.364,0.012,0.649,0.197,0.836
		c-0.054,0.055-0.098,0.121-0.142,0.175c-0.736,0.935-1.362,1.902-1.978,2.891c-3.923-2.198-7.583-5.111-7.825-9.759
		c-0.165-2.967,0.626-5.935,1.583-8.716c0.923-2.659,2.363-5.11,3.34-7.727c0.067-0.055,0.123-0.12,0.166-0.208
		c-0.043,0.087-0.043,0.109,0.033-0.034c-0.011,0.01-0.023,0.022-0.033,0.034c0.099-0.177,0.352-0.638,0.34-0.616
		c0.11-0.385,0.11-0.682,0.055-1.077c-0.088-0.539-0.34-1.077-0.483-1.604c-0.286-1.011-0.461-2.055-0.55-3.099
		c-0.208-2.352-0.098-4.693,0.441-6.99l0,0c0.494-2.132,1.318-4.22,2.792-5.879c0.713-0.802,1.483-1.44,2.428-1.946
		c0.495-0.263,1.154-0.429,1.593-0.758c0.11-0.087,0.33-0.263,0.528-0.417c0.583,0.296,1.296,0.273,1.802-0.319
		C170.068,145.932,171.85,142.767,174.146,139.986L174.146,139.986z M361.245,152.207c2.098-2.418,3.987-4.594,5.669-6.506
		c0.121,0.165,0.241,0.34,0.373,0.516l0,0c0.475,0.66,1.057,1.451,1.705,2.166c-0.144,0.516-0.209,1.066-0.188,1.67
		c0,0.021,0,0.055,0.011,0.077c-1.527,2.231-3.099,4.429-4.715,6.594c-0.319-0.209-0.648-0.43-0.9-0.726
		c-0.747-0.857-1.273-2-1.681-3.044C361.418,152.702,361.331,152.459,361.245,152.207L361.245,152.207z M30.085,182.43
		L30.085,182.43c-1.396,0.352-2.802,0.638-4.231,0.857c-1.999,0.297-4.066,0.484-6.089,0.572c-0.978,0.044-1.956,0.022-2.923-0.065
		c-0.352-0.034-0.385-0.044-0.1-0.011c-0.274-0.045-0.549-0.11-0.824-0.164c-0.208-0.056-0.419-0.122-0.617-0.188
		c0.221,0.066-0.339-0.153-0.417-0.186c-0.076-0.055-0.164-0.11-0.241-0.154c0.11,0.055-0.077-0.11-0.209-0.231
		c-0.021-0.033-0.044-0.067-0.076-0.11c-0.022-0.032-0.034-0.043-0.045-0.066c-0.011-0.043-0.021-0.11-0.054-0.198
		c0-0.032-0.011-0.043-0.011-0.066c0-0.01,0-0.01,0-0.022c0.011-0.01,0.011-0.01,0.022-0.021c0.022-0.043,0.032-0.077,0.054-0.109
		c0,0,0-0.011,0.012-0.011c0.736-0.857,2.154-1.461,3.583-1.901c0.759-0.242,1.528-0.417,2.309-0.55
		c0.066-0.011,0.11-0.021,0.153-0.032c0.033,0,0.099,0,0.208-0.012c0.507-0.043,1.001-0.066,1.506-0.087
		c2.154-0.077,4.177,0.176,6.254,0.604c1.043,0.209,2.065,0.529,3.066,0.858c0.407,0.131,0.769,0.353,1.132,0.561
		c0.044,0.033,0.088,0.043,0.132,0.065C31.799,181.903,30.941,182.211,30.085,182.43L30.085,182.43z"/>
	<path fill-rule="evenodd" clip-rule="evenodd" fill="#F9BF9B" d="M139.933,255.515L139.933,255.515
		c0,0.013,0.769-0.098,0.736-0.087c0.374-0.044,0.748-0.055,1.121-0.077c0.758-0.032,1.506-0.011,2.264,0.022
		c1.594,0.065,1.923,0.076,3.462,0.462c0.352,0.087,0.693,0.196,1.043,0.309c0.012,0,0.638,0.252,0.66,0.252
		c0.582,0.263,1.121,0.592,1.66,0.934c0.187,0.12,0.263,0.166,0.296,0.176c0.044,0.044,0.122,0.109,0.231,0.198
		c0,0,0.571,0.626,0.505,0.494c0.143,0.221,0.264,0.451,0.385,0.693c-0.22-0.451-0.11-0.134-0.022,0.12
		c0.011,0.132,0.066,0.418,0.066,0.506c0,0.098,0,0.164,0.011,0.207c-0.011,0.034-0.022,0.079-0.034,0.132
		c-0.121,0.66-0.296,1.1-0.406,1.331c-2.319,4.979-8.396,7.672-13.683,8.958c-2.967,0.724-6.034,0.957-9.089,1.077
		c-0.682,0.031-1.363,0.076-2.044,0.131c0.033-0.065,0.066-0.121,0.11-0.187c0.626-1.088,1.22-2.198,1.704-3.362
		c0.56-1.319,0.846-2.617,1.054-4.034c0.122-0.868,0.352-1.824,0.429-2.76c0.078-0.086,0.167-0.186,0.231-0.307
		c0.561-0.912,1.066-1.924,1.957-2.583c1.11-0.834,2.065-1.265,3.33-1.637C137.229,256.098,138.571,255.745,139.933,255.515
		L139.933,255.515z"/>
	<path fill-rule="evenodd" clip-rule="evenodd" fill="#4C62AB" d="M197.851,123.851L197.851,123.851
		c0.935-0.286,1.88-0.516,2.836-0.725c-1.067,1.363-1.923,2.638-2.659,4.242c-0.826,1.803-1.693,3.595-2.572,5.375
		c-0.814,1.66-1.649,3.286-1.441,5.187c0.056,0.583,0.814,0.869,1.154,0.308c0.781-1.264,1.375-2.605,2.067-3.923
		c0.792-1.484,1.627-2.934,2.341-4.462c0.626-1.319,1.131-2.748,1.988-3.935c0.505-0.692,1.132-1.329,1.627-2.033
		c0,0.012,0,0.033-0.013,0.044c-0.143,1.055-0.196,2.088-0.164,3.154c0.043,2.331,0.474,4.671,1.199,6.891
		c1.187,3.594,3.604,7.045,7.638,7.452c3.581,0.374,6.551-2.55,8.167-5.408c1.229-2.165,1.79-4.726,2.13-7.177
		c0.11,0.219,0.221,0.429,0.343,0.638c1.536,2.956,2.669,6.044,3.284,9.32c0.101,0.495,0.923,0.385,0.88-0.11
		c-0.342-3.286-0.968-6.54-2-9.683c-0.33-1-0.692-1.989-1.088-2.967c2.572,1.417,4.956,3.253,7.045,5.539
		c0.196,0.208,0.384,0.429,0.582,0.648c1.362,3.683,2.715,7.386,3.759,11.145c1.495,5.385,2.604,10.936,3.109,16.507
		c0.517,5.77,0.584,11.573,0.298,17.365c-0.133,2.781-0.286,5.562-0.527,8.341c-0.122,1.408-0.231,2.814-0.341,4.221
		c-2.023-4.88-5.11-9.342-8.705-13.188c-0.56-0.604-1.154-1.199-1.746-1.769c0.174-0.594,0.273-1.22,0.405-1.781
		c0.273-1.252,0.508-2.527,0.66-3.802c0.177-1.331,0.221-2.649,0.164-3.99c-0.066-1.221-0.352-1.934-0.924-2.99
		c-0.142-0.274-0.549-0.143-0.549,0.144c0,0.462-0.121,0.913-0.175,1.374c-0.067,0.583,0.064,1.264,0.064,1.857
		c0,1.209-0.142,2.407-0.284,3.605c-0.144,1.252-0.384,2.505-0.648,3.737c-0.034,0.187-0.078,0.363-0.121,0.549
		c-3.473-3.034-7.44-5.518-11.771-7.1c-5.781-2.121-11.87-1.912-17.528,0.439c-3.693,1.528-7.112,3.67-10.354,6.089
		c0.133-0.583,0.265-1.164,0.43-1.736c0.462-1.615,0.979-3.21,1.505-4.803c0.912-2.803,2.375-5.946,2.056-8.935
		c-0.056-0.506-0.671-0.726-0.968-0.264c-0.781,1.231-1.165,2.483-1.638,3.868c-0.538,1.573-1.11,3.144-1.658,4.715
		c-0.561,1.583-1.111,3.177-1.572,4.791c-0.43,1.463-0.935,3.045-1.001,4.583c-2.307,1.869-4.527,3.826-6.725,5.737
		c-3.209,2.802-6.111,5.979-8.924,9.166c-0.452,0.517-0.891,1.021-1.32,1.539c1.868-5.407,3.286-10.957,4.958-16.431
		c1.944-6.363,4.131-12.649,6.396-18.915c2.1-5.834,4.473-11.55,7.308-17.066c2.504-4.857,5.585-9.299,8.595-13.815
		C194.896,124.808,196.379,124.281,197.851,123.851L197.851,123.851z M325.172,200.52L325.172,200.52
		c-0.229-0.154-0.471-0.34-0.735-0.571c-1.253-1.132-2.187-2.572-3.045-4c-2-3.331-3.461-6.968-4.835-10.583
		c-1.362-3.594-2.813-7.122-3.615-10.891c-0.847-3.946-1.132-8.232-0.716-12.354c10.541-2.407,20.994-5.209,31.137-8.947
		c3.802-1.395,7.583-2.834,11.33-4.352c1.275-0.517,2.528-1.077,3.771-1.66c-0.21,2.242,0.164,4.572,0.791,6.716
		c0.395,1.374,0.966,2.725,1.856,3.857c0.307,0.396,0.748,0.901,1.264,1.297C351.132,173.824,338.263,187.288,325.172,200.52
		L325.172,200.52z M33.865,193.015L33.865,193.015c0.155-1.727,0.374-3.452,0.616-5.167c0.384,2.439,1.263,4.858,2.165,6.968
		c1.363,3.188,3.133,6.232,5.474,8.771c-0.032,0.099-0.055,0.197-0.087,0.296c-1.737,6.572-1.671,13.508-0.1,20.112
		c0.055,0.221,0.121,0.45,0.175,0.682c-0.01,0.022-0.032,0.034-0.043,0.056c-1.188,1.428-2.188,3-2.979,4.67
		c-0.517,1.076-0.923,2.188-1.208,3.342c-3.089-9.058-4.528-18.651-4.518-28.234C33.36,200.674,33.536,196.828,33.865,193.015
		L33.865,193.015z M47.713,252.142L47.713,252.142c0.033-0.505,0.044-1.001,0.077-1.483c0.099-1.506,0.276-2.989,0.561-4.475
		c0.297-1.504,0.649-2.978,1.198-4.416c0.099-0.254,0.197-0.517,0.296-0.803c0.287,0.417,0.573,0.835,0.869,1.243
		c1.857,2.581,3.901,5.01,6.088,7.284c-0.088,0.858-0.154,1.703-0.187,2.562c-0.11,2.318,0.23,4.704,0.451,7.011
		c0.164,1.639,0.429,3.299,0.769,4.924C54.099,260.385,50.703,256.428,47.713,252.142L47.713,252.142z M104.543,239.195
		L104.543,239.195c2.825,5.285,6.65,10.177,10.771,14.519c1.649,1.747,3.528,3.627,5.605,5.186
		c-0.737,2.376-1.924,4.595-3.308,6.673c-0.891,1.331-1.903,2.562-2.945,3.779c-0.451,0.528-0.946,1.034-1.429,1.562
		c-0.396-0.055-0.802-0.109-1.199-0.165c-3.638-0.528-7.275-1.132-10.858-1.957c-7.044-1.637-13.65-4.384-19.881-8.033
		c-6.253-3.659-12.199-8.176-17.353-13.386c0.647-2.672,2.033-5.122,3.605-7.364c3.505-5.032,8.694-8.836,14.254-11.298
		c2.835-1.252,5.923-2.087,8.979-2.582c2.792-0.451,5.781-0.99,8.628-0.737C100.192,230.249,102.258,234.909,104.543,239.195
		L104.543,239.195z"/>
	<path fill-rule="evenodd" clip-rule="evenodd" fill="#353485" d="M168.639,188.815c-0.384,0.429-0.769,0.857-1.153,1.286
		c-0.452,0.517-0.891,1.021-1.32,1.539c0.594-1.715,1.144-3.451,1.67-5.188C168.079,187.233,168.343,188.024,168.639,188.815
		L168.639,188.815z M68.463,238.767c9.627,9.868,25.256,19.068,50.346,24.869c-0.374,0.662-0.78,1.299-1.197,1.937
		c-0.891,1.331-1.903,2.562-2.945,3.779c-0.451,0.528-0.946,1.034-1.429,1.562c-0.396-0.055-0.802-0.109-1.199-0.165
		c-3.638-0.528-7.275-1.132-10.858-1.957c-7.044-1.637-13.65-4.384-19.881-8.033c-6.253-3.659-12.199-8.176-17.353-13.386
		c0.647-2.672,2.033-5.122,3.605-7.364C67.836,239.591,68.145,239.173,68.463,238.767L68.463,238.767z M321.305,195.806
		c15.661-15.936,28.674-30.685,38.092-41.478c0.385,1.22,0.924,2.407,1.715,3.407c0.307,0.396,0.748,0.901,1.264,1.297
		c-11.243,14.792-24.112,28.256-37.203,41.487l0,0c-0.229-0.154-0.471-0.34-0.735-0.571c-1.253-1.132-2.187-2.572-3.045-4
		L321.305,195.806z M33.865,193.015L33.865,193.015c0.155-1.727,0.374-3.452,0.616-5.167c0.384,2.439,1.263,4.858,2.165,6.968
		c1.363,3.188,3.133,6.232,5.474,8.771c-0.032,0.099-0.055,0.197-0.087,0.296c-1.737,6.572-1.671,13.508-0.1,20.112
		c0.055,0.221,0.121,0.45,0.175,0.682c-0.01,0.022-0.032,0.034-0.043,0.056c-1.188,1.428-2.188,3-2.979,4.67
		c-0.517,1.076-0.923,2.188-1.208,3.342c-3.089-9.058-4.528-18.651-4.518-28.234C33.36,200.674,33.536,196.828,33.865,193.015
		L33.865,193.015z M47.713,252.142L47.713,252.142c0.033-0.505,0.044-1.001,0.077-1.483c0.099-1.506,0.276-2.989,0.561-4.475
		c0.297-1.504,0.649-2.978,1.198-4.416c0.099-0.254,0.197-0.517,0.296-0.803c0.287,0.417,0.573,0.835,0.869,1.243
		c1.857,2.581,3.901,5.01,6.088,7.284c-0.088,0.858-0.154,1.703-0.187,2.562c-0.11,2.318,0.23,4.704,0.451,7.011
		c0.164,1.639,0.429,3.299,0.769,4.924C54.099,260.385,50.703,256.428,47.713,252.142L47.713,252.142z"/>
	<path fill-rule="evenodd" clip-rule="evenodd" fill="#F9BF9B" d="M240.01,211.302L240.01,211.302
		c-0.057,0.021-0.132,0.056-0.243,0.099c-1.35,0.539-2.747,0.935-4.154,1.287c-1.253,0.308-2.527,0.526-3.813,0.713
		c0.022-0.011-0.659,0.078-0.691,0.088c-0.341,0.033-0.693,0.077-1.044,0.11c-0.814,0.077-1.638,0.132-2.451,0.176
		c-5.606,0.342-11.255,0.077-16.87-0.077c-3.33-0.088-6.615-0.472-9.89-1c-1.539-0.252-3.068-0.571-4.617-0.813
		c-3.219-0.835-6.407-1.769-9.561-2.824c-3.638-1.221-7.21-2.582-10.716-4.132c-3.386-1.494-6.638-3.252-9.957-4.869
		c-1.022-0.505-2.121-1.033-3.232-1.605c0.473-0.539,0.945-1.077,1.408-1.626c1.23-1.484,2.44-2.989,3.714-4.44
		c2.429-2.781,5.033-5.362,7.792-7.814c5.363-4.747,10.858-9.616,17.035-13.276c2.923-1.736,6.088-3.144,9.45-3.748
		c2.893-0.528,5.88-0.242,8.704,0.472c5.936,1.495,11.156,5.22,15.41,9.518c4.065,4.099,7.473,9.078,9.494,14.506
		c1.32,3.54,2.101,7.32,2.902,11.013c0.583,2.66,1.219,5.318,1.956,7.958c-0.165,0.076-0.33,0.153-0.494,0.229
		C240.086,211.27,240.041,211.292,240.01,211.302L240.01,211.302z"/>
	<path fill-rule="evenodd" clip-rule="evenodd" fill="#F9BF9B" d="M161.089,163.802c0.593-1.703,1.638-3.231,2.55-4.781
		c0.813-1.374,1.824-2.946,1.835-4.594c0.011-0.352-0.429-0.517-0.681-0.275c-1.22,1.176-1.956,2.946-2.692,4.462
		c-0.78,1.605-1.309,3.253-1.78,4.968C160.177,164.087,160.914,164.274,161.089,163.802L161.089,163.802z"/>
	<path fill-rule="evenodd" clip-rule="evenodd" fill="#F9BF9B" d="M229.844,158.175c2.166-0.879,3.43-2.726,3.418-4.879
		c0.23-0.605,0.373-1.265,0.439-1.924c0.131-1.264-0.405-2.319-1.273-3.022c-0.881-1.385-2.343-2.417-4.013-2.813
		c-2.639-0.626-5.484,0.693-6.595,3.197c-1.154,2.638-0.934,5.342,0.847,7.628C224.195,158.329,227.558,159.098,229.844,158.175
		L229.844,158.175z"/>
	<path fill-rule="evenodd" clip-rule="evenodd" fill="#F9BF9B" d="M192.962,140.261c-0.276,0.021-0.528,0.065-0.782,0.121
		c-1.725-0.23-3.484,0.583-4.669,1.934c-1.913,2.198-2.341,5.188-1.199,7.836c1.353,3.133,5.056,4.462,8.221,3.792
		c3.693-0.78,5.892-4.649,5.363-8.199C199.412,142.491,196.258,139.919,192.962,140.261L192.962,140.261z"/>
	<path fill="#321A1B" d="M158.836,171.352c-0.011,0.01-0.023,0.022-0.033,0.034C158.76,171.473,158.76,171.495,158.836,171.352
		L158.836,171.352z"/>
	<path fill="#321A1B" d="M216.469,181.002c-1.022-2.111-2.538-3.968-4.563-5.177c-2.438-1.462-5.419-1.275-8.044-0.473
		c-2.66,0.813-5.088,2.342-7.396,3.858c-2.418,1.594-4.748,3.329-6.979,5.188c-2.167,1.802-4.154,3.759-5.979,5.912
		c-1.758,2.067-3.758,4.254-4.771,6.814c-0.055,0.121-0.055,0.242-0.021,0.351c-0.2,0.991,0.032,2.089,0.626,3.044
		c1.253,1.99,4.099,2.979,6.219,3.66c5.177,1.672,11.09,1.22,16.397,0.561c5.065-0.636,13.99-0.857,16.134-6.44
		c0.144-0.121,0.265-0.285,0.329-0.461c0.506-1.396,0.406-3.055,0.452-4.528c0.031-1.55-0.034-3.088-0.199-4.638
		C218.392,185.97,217.665,183.441,216.469,181.002L216.469,181.002z M210.138,177.44L210.138,177.44
		c1.99,0.891,3.265,2.934,4.21,4.804c0.176,0.351,0.342,0.713,0.493,1.076c-0.988-0.594-1.944-1.231-2.944-1.802
		c-2.418-1.373-5.364-1.703-8.09-1.946c-1.209-0.099-2.438-0.164-3.658-0.131c0.704-0.385,1.417-0.758,2.142-1.11
		C204.62,177.199,207.644,176.319,210.138,177.44L210.138,177.44z M189.708,202.289L189.708,202.289
		c-1.671-0.23-3.332-0.67-4.881-1.329c3.396-2.704,7.198-5.397,11.717-4.782c2.484,0.341,4.735,1.682,6.857,2.945
		c1.076,0.638,2.153,1.274,3.099,2.088c0.011,0.012,0.011,0.012,0.022,0.022c-1.317,0.154-2.639,0.264-3.945,0.406
		C198.303,202.103,194.016,202.872,189.708,202.289L189.708,202.289z"/>
	<path fill="#321A1B" d="M192.962,140.261c-0.276,0.021-0.528,0.065-0.782,0.121c-1.725-0.23-3.484,0.583-4.669,1.934
		c-1.913,2.198-2.341,5.188-1.199,7.836c1.353,3.133,5.056,4.462,8.221,3.792c3.693-0.78,5.892-4.649,5.363-8.199
		C199.412,142.491,196.258,139.919,192.962,140.261L192.962,140.261z"/>
	<path fill="#321A1B" d="M229.844,158.175c2.166-0.879,3.43-2.726,3.418-4.879c0.23-0.605,0.373-1.265,0.439-1.924
		c0.131-1.264-0.405-2.319-1.273-3.022c-0.881-1.385-2.343-2.417-4.024-2.813c-2.627-0.626-5.473,0.693-6.583,3.197
		c-1.154,2.638-0.934,5.342,0.847,7.628C224.195,158.329,227.558,159.098,229.844,158.175L229.844,158.175z M227.425,151.723
		L227.425,151.723c-0.009-0.011-0.021-0.022-0.032-0.033l0,0C227.403,151.701,227.416,151.712,227.425,151.723L227.425,151.723z
		 M227.964,151.811L227.964,151.811c0-0.011,0-0.011-0.009-0.011l0,0C227.964,151.8,227.964,151.811,227.964,151.811
		L227.964,151.811z"/>
	<path fill="#321A1B" d="M161.089,163.802c0.593-1.703,1.638-3.231,2.55-4.781c0.813-1.374,1.824-2.946,1.835-4.594
		c0.011-0.352-0.429-0.517-0.681-0.275c-1.22,1.176-1.956,2.946-2.692,4.462c-0.78,1.605-1.309,3.253-1.78,4.968
		C160.177,164.087,160.914,164.274,161.089,163.802L161.089,163.802z"/>
	<path fill="#321A1B" d="M245.449,166.835c0.484,1.56,0.583,4.231,1.923,5.34c0.188,0.155,0.463,0.099,0.539-0.142
		c0.287-0.935-0.022-2.143-0.24-3.067c-0.299-1.274-0.605-2.571-1.068-3.813c-0.384-1.001-0.913-2.043-1.67-2.814
		c-0.208-0.197-1.197-0.735-1.362-0.208c-0.188,0.56,0.461,1.264,0.725,1.703C244.846,164.747,245.142,165.824,245.449,166.835
		L245.449,166.835z"/>
	<path fill="#321A1B" d="M391.038,129.127c-1.627-6.275-8.596-8.551-14.332-6.726c-6.506,2.066-10.506,8.396-11.726,14.783
		c-0.232,1.198-0.463,2.384-0.792,3.56c-0.143,0.516-0.318,1.022-0.484,1.539c-3.33,1.022-6.658,2.011-9.947,3.154
		c-3.658,1.275-7.351,2.451-11.076,3.495c-7.462,2.1-14.968,4.023-22.563,5.616c-7.749,1.638-15.606,2.771-23.41,4.034
		c-7.793,1.275-15.597,2.495-23.476,3.088c-3.803,0.286-7.604,0.319-11.418,0.296c-1.869-0.022-3.736,0.275-5.594,0.067
		c-1.859-0.22-3.714-0.627-5.507,0.066c-0.121,0.054-0.229,0.109-0.34,0.175c-0.463-0.692-0.969-1.363-1.518-2
		c-0.979-1.165-2.177-2.32-3.573-2.946c0.133-1.165,0.275-2.275,0.233-3.485c-0.067-1.604-0.177-3.242-0.475-4.835
		c-0.537-2.935-1.329-5.813-2.407-8.605c-2.207-5.748-5.405-11.1-9.9-15.387c-9.748-9.297-24.443-11.562-37.069-7.66
		c-6.804,2.099-12.74,5.824-17.86,10.737c-2.703,2.595-5.056,5.551-7.199,8.617c-2.197,3.154-4.527,6.66-5.582,10.386
		c-0.045,0.153-0.056,0.307-0.056,0.46c-0.505-0.055-1.154,0.088-1.604,0.209c-1.242,0.319-2.43,1.055-3.407,1.857
		c-2.098,1.704-3.407,4.199-4.287,6.716c-0.176,0.516-0.33,1.044-0.46,1.583c-0.298-0.209-0.628-0.374-0.979-0.484
		c-1.769-0.549-3.583-0.989-5.352-1.55c-2.176-0.681-4.517-0.879-6.77-1.144c-4.045-0.483-8.122-0.659-12.2-0.604
		c-7.924,0.088-15.837,1.231-23.596,2.835c-13.87,2.869-27.376,7.946-39.313,15.651c-10.022,6.472-18.849,15.156-23.31,26.256
		c-1.495-1.551-2.626-3.309-3.617-5.209c-2.065-3.957-2.57-8.321-4.142-12.419c-0.034-0.088-0.089-0.165-0.166-0.22
		c-0.44-1.043-0.846-1.846-1.771-2.616c-1.109-0.922-2.241-1.659-3.571-2.242c-2.648-1.154-5.428-1.758-8.331-1.957
		c-4.252-0.297-10.022,1.253-12.55,4.891c-1.714,2.483-1.054,5.495,0.726,7.715c1.714,2.121,4.913,2.626,7.451,2.758
		c2.396,0.132,4.835-0.208,7.209-0.473c1.813-0.198,3.627-0.462,5.407-0.879c0.517-0.109,1.088-0.264,1.682-0.462
		c-0.286,1.198-0.494,2.418-0.725,3.595c-0.692,3.494-1.265,7.033-1.539,10.594c-0.561,7.1-0.275,14.231,0.758,21.288
		c2.1,14.178,8.012,27.52,17.014,38.653c8.132,10.091,18.924,18.1,30.419,23.992c11.729,5.999,24.476,10.352,37.357,13.1
		c5.022,1.066,10.1,1.813,15.199,2.308c0.287,0.309,0.638,0.55,1.078,0.682c2.012,0.572,3.901,0.934,5.979,1.12
		c2.1,0.178,4.177,0.396,6.276,0.518c3.967,0.221,8.012-0.034,11.979-0.188c8.122-0.318,16.212-1.099,24.245-2.307
		c14.594-2.177,29.023-6.089,42.63-11.816c26.023-10.946,49.127-27.881,69.964-46.729c10.199-9.231,19.882-18.991,29.3-29.003
		c10.211-10.858,20.289-21.915,29.498-33.642c7.407-9.43,14.453-19.211,20.179-29.773c1.011,0.022,1.89-0.935,1.494-1.967
		c0.99-0.143,2.034-0.11,3.001-0.265c3.098-0.527,6.133-1.725,8.694-3.56C389.643,140.931,392.589,135.051,391.038,129.127
		L391.038,129.127z M367.287,146.217L367.287,146.217c0.475,0.66,1.057,1.451,1.705,2.166c-0.144,0.516-0.209,1.066-0.188,1.67
		c0,0.021,0,0.055,0.011,0.077c-1.527,2.231-3.099,4.429-4.715,6.594c-0.319-0.209-0.648-0.43-0.9-0.726
		c-0.747-0.857-1.273-2-1.681-3.044c-0.803-2.055-1.319-4.308-1.583-6.507c1.109-0.549,2.21-1.121,3.308-1.715
		c0.199,0.935,1.154,1.595,2.132,1.023c0.385-0.22,0.728-0.484,1.032-0.781C366.695,145.393,366.981,145.8,367.287,146.217
		L367.287,146.217z M240.339,151.042L240.339,151.042c0.361,1.241,0.769,2.462,1.11,3.703c0.329,1.22,0.812,2.363,1.178,3.572
		c0.186,0.638,0.646,0.923,1.131,0.935c0.79,1.055,1.823,1.956,2.681,2.935c1.176,1.363,2.11,2.978,2.736,4.649
		c0.615,1.626,0.736,3.286,0.716,5c-0.023,0.923-0.154,1.835-0.286,2.737c-0.144,0.989-0.242,1.758-0.121,2.659
		c-0.406,0.077-0.76,0.451-0.824,0.946c-0.188,1.407,0.176,2.814,0.34,4.219c0.198,1.705,0.583,3.396,0.902,5.078
		c0.571,3.011,0.78,6.078,0.593,9.144c-0.177,2.803-1.022,5.55-2.417,7.968c-0.728,1.265-1.375,2.109-2.431,3.143
		c-1.099,1.077-1.439,1.309-2.898,2.188c-0.157,0.088-0.299,0.176-0.452,0.253c-1.022-5.265-1.747-10.605-3.232-15.771
		c0.464-1.319,0.594-2.737,0.835-4.111c0.243-1.439,0.507-2.878,0.715-4.33c0.43-2.902,0.736-5.792,0.891-8.715
		c0.309-5.923,0.264-11.88-0.529-17.76c-0.768-5.693-2.119-11.243-3.986-16.672c-0.529-1.561-1.09-3.099-1.682-4.617
		c1.032,1.858,1.935,3.792,2.682,5.715C238.9,146.261,239.636,148.635,240.339,151.042L240.339,151.042z M240.01,211.302
		L240.01,211.302c-0.057,0.021-0.132,0.056-0.243,0.099c-1.35,0.539-2.747,0.935-4.154,1.287c-1.253,0.308-2.527,0.526-3.813,0.713
		c0.022-0.011-0.659,0.078-0.691,0.088c-0.341,0.033-0.693,0.077-1.044,0.11c-0.814,0.077-1.638,0.132-2.451,0.176
		c-5.606,0.342-11.255,0.077-16.87-0.077c-3.33-0.088-6.615-0.472-9.89-1c-1.539-0.252-3.068-0.571-4.617-0.813
		c-3.219-0.835-6.407-1.769-9.561-2.824c-3.638-1.221-7.21-2.582-10.716-4.132c-3.386-1.494-6.638-3.252-9.957-4.869
		c-1.022-0.505-2.121-1.033-3.232-1.605c0.473-0.539,0.945-1.077,1.408-1.626c1.23-1.484,2.44-2.989,3.714-4.44
		c2.429-2.781,5.033-5.362,7.792-7.814c5.363-4.747,10.858-9.616,17.035-13.276c2.923-1.736,6.088-3.144,9.45-3.748
		c2.893-0.528,5.88-0.242,8.704,0.472c5.936,1.495,11.156,5.22,15.41,9.518c4.065,4.099,7.473,9.078,9.494,14.506
		c1.32,3.54,2.101,7.32,2.902,11.013c0.583,2.66,1.219,5.318,1.956,7.958c-0.165,0.076-0.33,0.153-0.494,0.229
		C240.086,211.27,240.041,211.292,240.01,211.302L240.01,211.302z M219.337,124.138L219.337,124.138
		c-0.143,0.978-0.153,2.012-0.23,2.792c-0.221,2.153-0.615,4.286-1.342,6.33c-0.823,2.352-2.967,5.154-5.649,5.385
		c-3.252,0.287-5.045-3.561-5.989-6.066c-0.714-1.89-1.11-3.901-1.274-5.923c-0.088-0.967-0.12-1.957-0.133-2.924
		c0-0.418,0.033-0.857-0.065-1.23C209.621,121.973,214.689,122.478,219.337,124.138L219.337,124.138z M197.851,123.851
		L197.851,123.851c0.935-0.286,1.88-0.516,2.836-0.725c-1.067,1.363-1.923,2.638-2.659,4.242c-0.826,1.803-1.693,3.595-2.572,5.375
		c-0.814,1.66-1.649,3.286-1.441,5.187c0.056,0.583,0.814,0.869,1.154,0.308c0.781-1.264,1.375-2.605,2.067-3.923
		c0.792-1.484,1.627-2.934,2.341-4.462c0.626-1.319,1.131-2.748,1.988-3.935c0.505-0.692,1.132-1.329,1.627-2.033
		c0,0.012,0,0.033-0.013,0.044c-0.143,1.055-0.196,2.088-0.164,3.154c0.043,2.331,0.474,4.671,1.199,6.891
		c1.187,3.594,3.604,7.045,7.638,7.452c3.581,0.374,6.551-2.55,8.167-5.408c1.229-2.165,1.79-4.726,2.13-7.177
		c0.11,0.219,0.221,0.429,0.343,0.638c1.536,2.956,2.669,6.044,3.284,9.32c0.101,0.495,0.923,0.385,0.88-0.11
		c-0.342-3.286-0.968-6.54-2-9.683c-0.33-1-0.692-1.989-1.088-2.967c2.572,1.417,4.956,3.253,7.045,5.539
		c0.196,0.208,0.384,0.429,0.582,0.648c1.362,3.683,2.715,7.386,3.759,11.145c1.495,5.385,2.604,10.936,3.109,16.507
		c0.517,5.77,0.584,11.573,0.298,17.365c-0.133,2.781-0.286,5.562-0.527,8.341c-0.122,1.408-0.231,2.814-0.341,4.221
		c-2.023-4.88-5.11-9.342-8.705-13.188c-0.56-0.604-1.154-1.199-1.746-1.769c0.174-0.594,0.273-1.22,0.405-1.781
		c0.273-1.252,0.508-2.527,0.66-3.802c0.177-1.331,0.221-2.649,0.164-3.99c-0.066-1.221-0.352-1.934-0.924-2.99
		c-0.142-0.274-0.549-0.143-0.549,0.144c0,0.462-0.121,0.913-0.175,1.374c-0.067,0.583,0.064,1.264,0.064,1.857
		c0,1.209-0.142,2.407-0.284,3.605c-0.144,1.252-0.384,2.505-0.648,3.737c-0.034,0.187-0.078,0.363-0.121,0.549
		c-3.473-3.034-7.44-5.518-11.771-7.1c-5.781-2.121-11.87-1.912-17.528,0.439c-3.693,1.528-7.112,3.67-10.354,6.089
		c0.133-0.583,0.265-1.164,0.43-1.736c0.462-1.615,0.979-3.21,1.505-4.803c0.912-2.803,2.375-5.946,2.056-8.935
		c-0.056-0.506-0.671-0.726-0.968-0.264c-0.781,1.231-1.165,2.483-1.638,3.868c-0.538,1.573-1.11,3.144-1.658,4.715
		c-0.561,1.583-1.111,3.177-1.572,4.791c-0.43,1.463-0.935,3.045-1.001,4.583c-2.307,1.869-4.527,3.826-6.725,5.737
		c-3.209,2.802-6.111,5.979-8.924,9.166c-0.452,0.517-0.891,1.021-1.32,1.539c1.868-5.407,3.286-10.957,4.958-16.431
		c1.944-6.363,4.131-12.649,6.396-18.915c2.1-5.834,4.473-11.55,7.308-17.066c2.504-4.857,5.585-9.299,8.595-13.815
		C194.896,124.808,196.379,124.281,197.851,123.851L197.851,123.851z M158.605,157.999L158.605,157.999
		c0.494-2.132,1.318-4.22,2.792-5.879c0.713-0.802,1.483-1.44,2.428-1.946c0.495-0.263,1.154-0.429,1.593-0.758
		c0.11-0.087,0.33-0.263,0.528-0.417c0.583,0.296,1.296,0.273,1.802-0.319c2.319-2.748,4.1-5.913,6.396-8.693
		c2.265-2.715,4.77-5.253,7.474-7.517c2.682-2.242,5.692-4.166,8.825-5.705c-2.639,3.496-4.858,7.375-6.957,11.144
		c-3.021,5.43-5.561,11.09-7.682,16.915c-4.693,12.858-8.857,25.837-12.343,39.07c-0.087,0.364,0.012,0.649,0.197,0.836
		c-0.054,0.055-0.098,0.121-0.142,0.175c-0.736,0.935-1.362,1.902-1.978,2.891c-3.923-2.198-7.583-5.111-7.825-9.759
		c-0.165-2.967,0.626-5.935,1.583-8.716c0.923-2.659,2.363-5.11,3.34-7.727c0.067-0.055,0.123-0.12,0.166-0.208
		c0.099-0.177,0.352-0.638,0.34-0.616c0.11-0.385,0.11-0.682,0.055-1.077c-0.088-0.539-0.34-1.077-0.483-1.604
		c-0.286-1.011-0.461-2.055-0.55-3.099C157.956,162.637,158.066,160.296,158.605,157.999L158.605,157.999z M30.085,182.43
		L30.085,182.43c-1.396,0.352-2.802,0.638-4.231,0.857c-1.999,0.297-4.066,0.484-6.089,0.572c-0.978,0.044-1.956,0.022-2.923-0.065
		c-0.352-0.034-0.385-0.044-0.1-0.011c-0.274-0.045-0.549-0.11-0.824-0.164c-0.208-0.056-0.419-0.122-0.617-0.188
		c0.221,0.066-0.339-0.153-0.417-0.186c-0.076-0.055-0.164-0.11-0.241-0.154c0.11,0.055-0.077-0.11-0.209-0.231
		c-0.021-0.033-0.044-0.067-0.076-0.11c-0.022-0.032-0.034-0.043-0.045-0.066c-0.011-0.043-0.021-0.11-0.054-0.198
		c0-0.032-0.011-0.043-0.011-0.066c0-0.01,0-0.01,0-0.022c0.011-0.01,0.011-0.01,0.022-0.021c0.022-0.043,0.032-0.077,0.054-0.109
		c0,0,0-0.011,0.012-0.011c0.736-0.857,2.154-1.461,3.583-1.901c0.759-0.242,1.528-0.417,2.309-0.55
		c0.066-0.011,0.11-0.021,0.153-0.032c0.033,0,0.099,0,0.208-0.012c0.507-0.043,1.001-0.066,1.506-0.087
		c2.154-0.077,4.177,0.176,6.254,0.604c1.043,0.209,2.065,0.529,3.066,0.858c0.407,0.131,0.769,0.353,1.132,0.561
		c0.044,0.033,0.088,0.043,0.132,0.065C31.799,181.903,30.941,182.211,30.085,182.43L30.085,182.43z M33.865,193.015L33.865,193.015
		c0.155-1.727,0.374-3.452,0.616-5.167c0.384,2.439,1.263,4.858,2.165,6.968c1.363,3.188,3.133,6.232,5.474,8.771
		c-0.032,0.099-0.055,0.197-0.087,0.296c-1.737,6.572-1.671,13.508-0.1,20.112c0.055,0.221,0.121,0.45,0.175,0.682
		c-0.01,0.012-0.032,0.034-0.043,0.056c-1.188,1.428-2.188,3-2.979,4.67c-0.517,1.076-0.923,2.188-1.208,3.342
		c-3.089-9.058-4.528-18.651-4.518-28.234C33.36,200.674,33.536,196.828,33.865,193.015L33.865,193.015z M39.998,238.283
		L39.998,238.283c0.066-0.692,0.076-1.407,0.076-2.164c0.022-1.837,0.617-3.684,1.364-5.344c0.449-1.01,1.011-1.978,1.637-2.89
		c1.308,3.759,3.122,7.364,5.231,10.75c-0.396,0.428-0.736,0.967-1.055,1.429c-0.979,1.417-1.527,3.252-2,4.89
		c-0.242,0.835-0.406,1.683-0.539,2.539c-0.506-0.836-0.989-1.683-1.462-2.539C42.054,242.778,40.965,240.547,39.998,238.283
		L39.998,238.283z M47.713,252.142L47.713,252.142c0.033-0.505,0.044-1.001,0.077-1.483c0.099-1.506,0.276-2.989,0.561-4.475
		c0.297-1.504,0.649-2.978,1.198-4.416c0.099-0.254,0.197-0.517,0.296-0.803c0.287,0.417,0.573,0.835,0.869,1.243
		c1.857,2.581,3.901,5.01,6.088,7.284c-0.088,0.858-0.154,1.703-0.187,2.562c-0.11,2.318,0.23,4.704,0.451,7.011
		c0.164,1.639,0.429,3.299,0.769,4.924C54.099,260.385,50.703,256.428,47.713,252.142L47.713,252.142z M313.084,212.697
		L313.084,212.697c-19.531,19.706-39.938,38.565-63.063,53.534c-5.802,3.77-11.792,7.253-17.935,10.429
		c-6.199,3.198-11.935,5.759-18.268,8.111c-14.033,5.209-29.023,8.551-43.729,10.111c-6.331,0.672-12.693,1.032-19.056,1.177
		c-2.32,0.055-4.649,0.055-6.98,0.088c-0.494-0.066-0.988-0.132-1.494-0.177c-1.956-0.177-3.967-0.241-5.913-0.539
		c-3.957-0.604-7.946-0.978-11.902-1.582c-7.022-1.088-13.903-2.779-20.706-4.824c-12.342-3.693-23.97-8.682-34.784-15.871
		c-2.055-1.362-4.033-2.825-5.946-4.353c-0.01-0.021-0.021-0.042-0.021-0.064c-0.473-1.044-0.814-2.165-1.144-3.265
		c-0.681-2.264-1.208-4.561-1.669-6.869c-0.407-2.033-0.835-4.065-1.1-6.122c-0.022-0.164-0.043-0.34-0.066-0.515
		c6.365,6.011,13.816,10.901,21.696,14.737c6.473,3.154,13.199,5.408,20.266,6.726c7.066,1.309,14.694,1.979,21.816,0.901
		c0.208-0.034,0.374-0.121,0.506-0.253c2.12,0.275,4.241,0.616,6.384,0.748c3.363,0.219,6.738,0.429,10.1,0.021
		c6.924-0.847,13.21-4.33,17.079-10.222c1.847-2.813,2.353-6.374,0.868-9.451c-1.572-3.254-4.935-5.099-8.265-6.089
		c-3.396-0.999-6.913-0.902-10.363-0.285c-3.297,0.604-6.132,1.956-8.759,4.001c-0.77,0.604-1.473,1.329-2.056,2.152
		c-0.615-0.097-1.219-0.219-1.802-0.472c-1.329-0.571-2.506-1.428-3.572-2.396c-1.099-0.999-2.066-2.131-2.957-3.317
		c-0.801-1.078-1.955-2.101-2.56-3.288c-0.055-0.12-0.252-0.043-0.208,0.089c0.472,1.527,0.593,2.967,1.374,4.417
		c0.781,1.452,1.824,2.805,2.978,3.979c1.287,1.32,3.309,2.891,5.397,3.628c-0.11,0.329-0.198,0.671-0.265,1.011
		c-1.56-1.011-3.099-2.065-4.538-3.241c-2.518-2.056-4.759-4.44-6.848-6.924c-3.638-4.341-6.582-9.222-8.494-14.552
		c-0.912-2.539-1.705-5.44-1.99-7.968c-0.319-2.814-0.231-4.924,0.637-7.374c-0.032,0.088,0.231-0.539,0.243-0.562
		c0.131-0.285,0.296-0.56,0.45-0.824c0.165-0.273,0.342-0.539,0.517-0.802c0.033-0.045,0.055-0.077,0.077-0.11
		c0.033-0.044,0.099-0.109,0.197-0.219c1.045-1.22,1.957-1.792,3.342-2.671c2.813-1.781,5.934-3.265,8.726-4.375
		c1.836-0.735,3.671-1.462,5.484-2.275c1.802-0.812,3.692-1.944,4.187-3.988c0.253-1.065-0.165-2.078-1.088-2.66
		c-1.648-1.055-3.736-0.693-5.517-0.121c-1.88,0.604-3.726,1.32-5.55,2.1c-3.177,1.342-6.297,2.803-9.2,4.681
		c-2.736,1.781-5.417,4.133-6.869,7.111c-1.318,2.726-1.769,5.738-1.626,8.749c0.033,0.483,0.078,0.966,0.122,1.45
		c-2.484-0.594-4.88-1.099-7.485-1.077c-2.879,0.022-5.879,0.769-8.605,1.671c-5.605,1.868-10.848,5.056-15.002,9.265
		c-2.989,3.011-5.484,6.616-6.879,10.606c-2.88-3.232-5.44-6.693-7.595-10.353c-3.231-5.475-5.495-11.596-5.923-17.694
		c-0.22-3.21,0.011-6.145,0.56-8.892c0.604-3.045,1.616-5.947,2.792-8.408c5.748-12.023,17.078-20.024,28.992-25.739
		c10.133-4.858,21.761-8.101,33.114-10.089c13.057-2.287,26.311-2.044,39.291,0.46c0.724,0.143,1.46,0.078,2.098-0.165
		c0.012,0.374,0.023,0.737,0.034,1.1c0.077,1.362,0.319,2.747,0.659,4.066c0.133,0.55,0.319,1.088,0.517,1.605
		c0.11,0.286,0.253,0.583,0.462,0.835c-1.242,1.857-2.188,4.023-3.089,5.991c-1.285,2.758-2.406,5.616-2.868,8.638
		c-0.451,2.934-0.286,6.089,0.957,8.836c1.417,3.122,4.176,5.352,6.869,7.342c2.781,2.043,5.879,3.549,8.87,5.252
		c3.516,2.001,7.144,3.759,10.881,5.298c3.648,1.494,7.396,2.771,11.155,3.924c0.955,0.286,1.922,0.571,2.89,0.836
		c2.308,1.428,5.55,1.846,7.991,2.297c3.921,0.725,7.932,1.087,11.912,1.153c5.616,0.099,11.232,0.374,16.848-0.021
		c5.957-0.418,12.145-1.517,17.31-4.671c5.836-3.561,9.365-9.42,10.188-16.156c0.494-4-0.056-8.033-1.012-11.924
		c-0.46-1.879-1.055-3.682-1.802-5.462c-0.462-1.089-0.988-2.297-1.671-3.353c0.331-0.054,0.637-0.219,0.87-0.505
		c0.384-0.484,0.779-0.846,0.998-1.451c0.232-0.67,0.273-1.384,0.341-2.088c0.109-1.121,0.033-2.209-0.088-3.319
		c-0.187-1.802-0.637-3.561-1.263-5.253c2.966,1.198,6.078,2.11,9.275,2.362c3.957,0.32,7.945,0.155,11.902-0.12
		c8.176-0.562,16.288-1.989,24.312-3.638c3.846-0.791,7.691-1.604,11.528-2.462c-0.792,3.847-0.396,7.979,0.252,11.816
		c0.715,4.286,2.33,8.308,3.803,12.375c1.451,4.034,3.044,8.078,5.286,11.748c0.901,1.474,2.154,3.232,3.671,4.485
		C319.415,206.334,316.237,209.521,313.084,212.697L313.084,212.697z M104.543,239.195L104.543,239.195
		c2.825,5.285,6.65,10.177,10.771,14.519c1.649,1.747,3.528,3.627,5.605,5.186c-0.737,2.376-1.924,4.595-3.308,6.673
		c-0.891,1.331-1.903,2.562-2.945,3.779c-0.451,0.528-0.946,1.034-1.429,1.562c-0.396-0.055-0.802-0.109-1.199-0.165
		c-3.638-0.528-7.275-1.132-10.858-1.957c-7.044-1.637-13.65-4.384-19.881-8.033c-6.253-3.659-12.199-8.176-17.353-13.386
		c0.647-2.672,2.033-5.122,3.605-7.364c3.505-5.032,8.694-8.836,14.254-11.298c2.835-1.252,5.923-2.087,8.979-2.582
		c2.792-0.451,5.781-0.99,8.628-0.737C100.192,230.249,102.258,234.909,104.543,239.195L104.543,239.195z M139.933,255.515
		L139.933,255.515c0,0.013,0.769-0.098,0.736-0.087c0.374-0.044,0.748-0.055,1.121-0.077c0.758-0.032,1.506-0.011,2.264,0.022
		c1.594,0.065,1.923,0.076,3.462,0.462c0.352,0.087,0.693,0.196,1.043,0.309c0.012,0,0.638,0.252,0.66,0.252
		c0.582,0.263,1.121,0.592,1.66,0.934c0.187,0.12,0.263,0.166,0.296,0.176c0.044,0.044,0.122,0.109,0.231,0.198
		c0,0,0.571,0.626,0.505,0.494c0.143,0.221,0.264,0.451,0.385,0.693c-0.22-0.451-0.11-0.134-0.022,0.12
		c0.011,0.132,0.066,0.418,0.066,0.506c0,0.098,0,0.164,0.011,0.207c-0.011,0.034-0.022,0.079-0.034,0.132
		c-0.121,0.66-0.296,1.1-0.406,1.331c-2.319,4.979-8.396,7.672-13.683,8.958c-2.967,0.724-6.034,0.957-9.089,1.077
		c-0.682,0.031-1.363,0.076-2.044,0.131c0.033-0.065,0.066-0.121,0.11-0.187c0.626-1.088,1.22-2.198,1.704-3.362
		c0.56-1.319,0.846-2.617,1.054-4.034c0.122-0.868,0.352-1.824,0.429-2.76c0.078-0.086,0.167-0.186,0.231-0.307
		c0.561-0.912,1.066-1.924,1.957-2.583c1.11-0.834,2.065-1.265,3.33-1.637C137.229,256.098,138.571,255.745,139.933,255.515
		L139.933,255.515z M127.569,262.121L127.569,262.121v0.011c-0.275,1.384-0.528,2.781-1.011,4.112
		c-0.451,1.229-1.132,2.384-1.781,3.515c-0.374,0.649-0.857,1.286-1.087,1.968c-0.637,0.077-1.274,0.165-1.923,0.266
		c-1.802-0.3-3.616-0.509-5.43-0.716c0.121-0.154,0.243-0.298,0.374-0.451c1.088-1.276,2.111-2.604,3.055-4
		c1.418-2.101,2.375-4.353,2.858-6.761C124.173,261.021,125.832,261.769,127.569,262.121L127.569,262.121z M325.172,200.52
		L325.172,200.52c-0.229-0.154-0.471-0.34-0.735-0.571c-1.253-1.132-2.187-2.572-3.045-4c-2-3.331-3.461-6.968-4.835-10.583
		c-1.362-3.594-2.813-7.122-3.615-10.891c-0.847-3.946-1.132-8.232-0.716-12.354c10.541-2.407,20.994-5.209,31.137-8.947
		c3.802-1.395,7.583-2.834,11.33-4.352c1.275-0.517,2.528-1.077,3.771-1.66c-0.21,2.242,0.164,4.572,0.791,6.716
		c0.395,1.374,0.966,2.725,1.856,3.857c0.307,0.396,0.748,0.901,1.264,1.297C351.132,173.824,338.263,187.288,325.172,200.52
		L325.172,200.52z M385.939,135.326L385.939,135.326c-0.759,2.406-2.814,4.572-5.034,5.967c-2.475,1.573-5.32,2.199-8.023,3.232
		c-0.735,0.286-1.406,0.659-1.978,1.109c-0.462-0.406-0.936-0.802-1.343-1.176c-0.559-0.505-1.143-0.989-1.735-1.461
		c0.945-1.813,1.43-4,1.967-5.759c0.847-2.792,2.166-5.165,4.254-7.232c1.847-1.824,4.298-3.076,6.924-3.099
		c1.198-0.011,2.22,0.275,3.154,0.813c0.856,0.484,1.297,1.056,1.814,2.088c0.264,0.528,0.471,1.704,0.493,2.463
		C386.467,133.458,386.301,134.162,385.939,135.326L385.939,135.326z"/>
	<path fill="#321A1B" d="M159.979,285.388c-1.714,1.264-3.758,3.308-3.451,5.638c0.252,1.987,2.033,3.144,3.968,2.979
		c2.242-0.188,3.89-1.771,4.572-3.847c0.296-0.857-0.331-1.627-1.088-1.924c-1.043-0.396-1.89-0.342-2.77,0.341
		c-0.549,0.429-0.472,1.406,0,1.836c0.023,0.021,0.055,0.045,0.079,0.064c-0.276,0.222-0.605,0.375-1.012,0.463
		c-0.583,0.133-0.825-0.077-0.825-0.482c0.011-1.244,1.572-2.475,2.418-3.166c0.615-0.495,1.33-0.847,2.034-1.188
		c0.692-0.342,1.429-0.22,2.121-0.474c0.44-0.152,0.659-0.615,0.429-1.042C165.177,282.267,161.397,284.343,159.979,285.388
		L159.979,285.388z"/>
	<path fill="#321A1B" d="M244.021,261.264c-1.395,0.561-2.835,0.737-4.221,1.373c-1.406,0.639-2.748,1.473-4.065,2.265
		c-2.805,1.682-5.65,3.055-8.858,3.749c-3.407,0.735-6.935,0.735-10.398,0.34c-1.724-0.199-3.429-0.605-5.142-0.956
		c-1.738-0.352-3.32-0.474-5.079-0.407c-0.517,0.012-0.944,0.725-0.462,1.11c1.32,1.044,2.561,1.856,4.198,2.373
		c1.825,0.573,3.683,0.923,5.561,1.188c3.771,0.528,7.541,0.517,11.277-0.186c3.374-0.649,6.464-2.089,9.396-3.837
		c1.461-0.879,2.835-1.857,4.231-2.823c0.671-0.464,1.286-0.99,1.902-1.517c0.714-0.605,1.197-1.33,2.01-1.837
		C244.801,261.836,244.526,261.066,244.021,261.264L244.021,261.264z"/>
	<path fill-rule="evenodd" clip-rule="evenodd" fill="#F9BF9B" d="M227.964,151.811L227.964,151.811c0-0.011,0-0.011-0.009-0.011
		l0,0C227.964,151.8,227.964,151.811,227.964,151.811L227.964,151.811z"/>
	<path fill-rule="evenodd" clip-rule="evenodd" fill="#F9BF9B" d="M227.425,151.723L227.425,151.723
		c-0.009-0.011-0.021-0.022-0.032-0.033l0,0C227.403,151.701,227.416,151.712,227.425,151.723L227.425,151.723z"/>
	<path fill-rule="evenodd" clip-rule="evenodd" fill="#C7564A" d="M189.708,202.289L189.708,202.289
		c-1.671-0.23-3.332-0.67-4.881-1.329c3.396-2.704,7.198-5.397,11.717-4.782c2.484,0.341,4.735,1.682,6.857,2.945
		c1.076,0.638,2.153,1.274,3.099,2.088c0.011,0.012,0.011,0.012,0.022,0.022c-1.317,0.154-2.639,0.264-3.945,0.406
		C198.303,202.103,194.016,202.872,189.708,202.289L189.708,202.289z"/>
	<path fill-rule="evenodd" clip-rule="evenodd" fill="#FFFFFF" d="M210.138,177.44L210.138,177.44
		c1.99,0.891,3.265,2.934,4.21,4.804c0.176,0.351,0.342,0.713,0.493,1.076c-0.988-0.594-1.944-1.231-2.944-1.802
		c-2.418-1.373-5.364-1.703-8.09-1.946c-1.209-0.099-2.438-0.164-3.658-0.131c0.704-0.385,1.417-0.758,2.142-1.11
		C204.62,177.199,207.644,176.319,210.138,177.44L210.138,177.44z"/>
</g>
</svg>
