<?xml version="1.0" encoding="utf-8"?>
<!-- Generator: Adobe Illustrator 16.0.0, SVG Export Plug-In . SVG Version: 6.00 Build 0)  -->
<!DOCTYPE svg PUBLIC "-//W3C//DTD SVG 1.1//EN" "http://www.w3.org/Graphics/SVG/1.1/DTD/svg11.dtd">
<svg version="1.1" id="Layer_1" xmlns="http://www.w3.org/2000/svg" xmlns:xlink="http://www.w3.org/1999/xlink" x="0px" y="0px"
	 width="400px" height="400px" viewBox="0 0 400 400" enable-background="new 0 0 400 400" xml:space="preserve">
<g>
	<path fill-rule="evenodd" clip-rule="evenodd" fill="#E4D0AA" d="M200.002,385.054c68.76,0,124.842-7.848,124.842-17.467
		c0-9.621-56.082-17.469-124.842-17.469c-68.758,0-124.841,7.848-124.841,17.469C75.162,377.206,131.245,385.054,200.002,385.054
		L200.002,385.054z"/>
	<path fill-rule="evenodd" clip-rule="evenodd" fill="#321A1B" d="M387.393,116.706c-2.613-7.506-6.685-14.522-10.73-21.331
		c-3.718-6.259-7.776-12.346-12.457-17.933c-3.74-4.474-7.933-8.569-12.604-12.064c-0.939-0.697-1.882-1.37-2.858-2.005
		c0.085-0.305,0.036-0.648-0.258-0.904c-2.751-2.458-5.452-5.061-8.787-6.724c-3.743-1.846-7.788-3.447-11.772-4.681
		c-7.567-2.335-15.537-3.68-23.127-0.735c-6.909,2.678-12.444,8.313-13.336,15.879c-0.882,7.457,4.974,12.847,11.476,15.048
		c5.392,1.834,15.732,2.469,19.633-2.787c0.708,0.538,1.43,1.063,2.103,1.65c1.101,0.966,1.834,2.212,2.641,3.68
		c1.309,2.396,2.004,5.708,2.052,8.496c0.122,6.185-2.896,12.602-7.126,17.174c-2.517,2.738-4.693,4.302-8.214,5.941
		c-3.483,1.613-7.126,1.833-10.903,1.466c-7.629-0.733-15.121-5.341-22.138-8.581c-5.451-2.518-11.024-4.706-16.845-6.234
		c-2.945-0.771-5.965-1.381-8.997-1.674c-1-0.098-2.151-0.195-3.312-0.195c0.807-1.284,1.479-2.641,2.041-4.034
		c1.382-3.448,1.65-7.078,0.979-10.708c-0.636-3.387-2.457-6.625-4.449-9.4c-1.54-2.114-3.729-4.682-6.247-5.941
		c0-0.048,0-0.098-0.012-0.146c-0.28-1.858-0.905-3.741-0.989-5.624c-0.087-2.005-1.139-4.144-1.773-6.038
		c-1.308-3.839-3.509-7.712-5.99-10.904c-4.411-5.708-9.938-10.512-16.342-13.862c-13.03-6.797-28.128-6.845-41.586-1.296
		c-7.933,3.264-15.121,8.337-20.73,14.827c-5.208,6.027-9.327,13.875-10.269,21.857c-0.159,0.012-0.318,0.037-0.44,0.086
		c-1.565,0.525-2.872,1.479-4.156,2.494c-2.604,2.077-4.657,4.987-5.892,8.042c-1.625,4.047-1.907,8.814-1.405,13.104
		c0.256,2.262,0.782,4.437,1.699,6.515c0.257,0.611,0.586,1.345,0.99,2.079c-6.173,0.428-12.126,3.056-17.773,5.512
		c-6.295,2.738-12.53,5.231-19.327,6.393c-0.306,0.049-0.598,0.098-0.904,0.134c-0.074,0.012-0.342,0.049-0.501,0.074
		c-0.501,0.061-1.003,0.122-1.516,0.171c-1.344,0.146-2.69,0.232-4.046,0.269c-2.617,0.098-5.232-0.012-7.836-0.306
		c-0.195-0.023-0.391-0.048-0.586-0.073c0.464,0.049-0.318-0.061-0.489-0.085c-0.599-0.085-1.198-0.208-1.797-0.331
		c-1.271-0.256-2.529-0.587-3.751-0.99c-0.563-0.184-1.113-0.379-1.651-0.599c-0.049-0.012-0.073-0.024-0.098-0.036
		c-0.012,0-0.012,0-0.012,0c-0.27-0.123-0.526-0.245-0.783-0.367c-0.049-0.025-0.098-0.049-0.146-0.073
		c0.061-0.306,0.012-0.612-0.184-0.88c-1.112-1.479-3.031-2.004-4.73-2.579c-0.012,0-0.024,0-0.024,0
		c-0.122-0.135-0.257-0.257-0.379-0.379c-0.183-0.208-0.366-0.417-0.538-0.625c-0.049-0.061-0.099-0.11-0.146-0.171
		c-0.025-0.036-0.049-0.073-0.085-0.122c-0.379-0.525-0.721-1.088-1.039-1.65c-0.146-0.257-0.269-0.514-0.403-0.77
		c-0.049-0.098-0.245-0.538-0.318-0.709c-0.195-0.551-0.378-1.1-0.538-1.663c-0.208-0.709-0.391-1.43-0.538-2.152
		c-0.024-0.122-0.146-0.879-0.159-0.928c-0.036-0.355-0.072-0.721-0.098-1.075c-0.366-4.072,0.171-8.313,1.785-12.103
		c0.367-0.843,0.758-1.674,1.173-2.505c2.066,2.542,5.354,4.229,8.336,5.293c3.937,1.394,8.19,1.491,12.274,0.868
		c6.673-1.015,13.617-4.597,17.919-9.853c2.445-2.995,3.851-6.429,4.046-10.305c0.196-3.729-1.271-7.224-3.544-10.097
		c-3.851-4.865-10.354-7.835-16.295-9.167c-6.93-1.552-14.717-0.746-21.073,2.444c-2.262,1.137-4.511,2.323-6.688,3.607
		c-0.232,0.023-0.465,0.072-0.709,0.133c-0.219,0.074-0.402,0.183-0.537,0.331c-1.295,0.538-2.628,1.063-3.826,1.772
		c-1.565,0.94-3.117,1.907-4.658,2.884c-2.934,1.883-5.793,3.875-8.581,5.978c-5.55,4.168-10.745,8.752-15.402,13.911
		c-9.449,10.475-16.526,22.943-19.998,36.646c-3.398,13.385-2.604,27.809,2.126,40.766c4.67,12.799,12.872,24.155,23.274,32.907
		c7.823,6.601,16.637,11.613,26.27,15.035c10.708,3.814,22.21,5.757,33.529,6.565c1.907,5.391,4.022,10.719,6.294,15.975
		c6.418,14.828,14.755,28.617,24.631,41.378c3.301,4.267,6.748,8.473,10.415,12.444c1.871,2.018,3.79,3.985,5.685,5.989
		c0.831,0.88,1.625,1.834,2.48,2.726c-1.32,0.612-2.53,1.442-3.691,2.312c-2.934,2.199-5.477,4.875-7.896,7.629
		c-2.348,2.662-4.572,5.426-6.247,8.567c-1.784,3.312-3.006,6.943-3.728,10.623c-1.479,7.529-0.966,15.267,0.55,22.748
		c0.659,3.276,1.613,6.44,2.824,9.534c-0.33-0.11-0.661-0.221-0.978-0.329c-3.704-1.285-7.566-1.921-11.454-1.225
		c-5.659,1.016-13.995,7.774-9.962,14.083c2.236,3.508,6.65,4.646,10.5,5.134c3.264,0.416,6.625,0.124,9.89-0.061
		c2.396-0.124,4.766-0.049,7.15-0.343c2.86-0.343,6.515-0.99,7.493-4.182c0.269-0.892,0.171-1.575-0.085-2.198
		c0.097-0.501,0.256-1.003,0.402-1.479c0.501-1.676,1.271-3.252,2.079-4.79c1.601-3.046,3.631-5.882,5.66-8.658
		c4.021-5.513,8.397-10.84,13.899-14.765c5.842-4.181,12.125-6.492,19.276-7.113c8.521-0.746,17.126,0.123,25.633,0.634
		c5.207,0.306,10.586,1.491,15.806,3.215c4.987,1.664,9.729,4.109,14.278,7.238c2.346,1.613,3.886,2.834,5.939,4.56
		c2.018,1.712,3.936,3.543,5.721,5.486c1.785,1.944,2.97,3.535,4.364,5.807c0.782,1.285,1.441,2.616,2.175,3.9
		c0.147,0.758,0.245,1.527,0.392,2.297c0.417,2.165,1.051,5.391,3.8,5.439c0.405,0,0.857-0.132,1.236-0.365
		c0.942,0.316,1.968,0.465,2.849,0.61c2.113,0.354,4.206,0.733,6.332,0.931c4.069,0.366,8.116,0.804,12.21,0.513
		c3.19-0.22,6.405-0.941,9.096-2.752c3.116-2.089,4.694-5.514,3.092-9.094c-1.38-3.131-4.656-5.06-7.712-6.234
		c-3.216-1.234-6.871-1.295-10.244-0.783c-0.794,0.112-1.564,0.295-2.31,0.515c0.366-0.709,0.733-1.417,1.074-2.15
		c3.215-6.809,4.963-14.155,4.706-21.712c-0.268-7.602-2.615-14.961-6.454-21.489c-1.832-3.104-4.058-5.951-6.61-8.47
		c-1.64-1.612-3.327-3.056-5.258-3.948c1.663-1.809,3.167-3.68,4.632-5.635c2.678-3.559,5.233-7.188,7.691-10.88
		c4.753-7.138,9.251-14.485,13.506-21.929c4.277-7.493,8.018-15.231,10.988-23.349c1.479-4.068,2.679-8.25,3.949-12.394
		c0.537-1.725,1.063-3.448,1.589-5.184c0.502,0.209,1.013,0.392,1.539,0.465c1.197,0.16,2.348,0.147,3.559,0.11
		c2.285-0.073,4.571-0.354,6.845-0.673c3.899-0.537,7.713-1.564,11.43-2.86c7.639-2.664,14.839-6.54,21.55-11.001
		c12.872-8.557,24.889-18.935,33.272-32.063c4.571-7.15,7.567-14.913,8.557-23.359C391.685,133.33,390.169,124.663,387.393,116.706
		L387.393,116.706z"/>
	<path fill-rule="evenodd" clip-rule="evenodd" fill="#F9BF9B" d="M279.066,203.91c-1.943,2.627-5.11,4.375-8.044,5.684
		c-3.702,1.662-7.748,2.542-11.734,3.228c-4.046,0.696-8.152,1.025-12.26,1.063c-3.289,0.023-6.638-0.343-9.914-0.109
		c-0.77,0.061-1.246,1.185-0.426,1.602c3.079,1.514,6.967,1.574,10.34,1.587c4.389,0,8.777-0.39,13.091-1.099
		c7.603-1.247,16.589-3.949,21.025-10.745C282.013,203.8,279.97,202.688,279.066,203.91L279.066,203.91z"/>
	<path fill-rule="evenodd" clip-rule="evenodd" fill="#F9BF9B" d="M150.498,218.15c-3.032-1.272-6.821-0.979-10.061-1.187
		c-4.12-0.244-8.263-0.623-12.322-1.381c-7.493-1.382-15.768-4.486-18.177-12.468c-0.207-0.673-1.112-0.38-1.014,0.281
		c1.308,8.495,9.853,12.37,17.334,14.216c4.351,1.088,8.824,1.603,13.287,1.933c3.521,0.268,7.494,0.866,10.953,0
		C151.267,219.348,151.108,218.395,150.498,218.15L150.498,218.15z"/>
	<path fill-rule="evenodd" clip-rule="evenodd" fill="#F9BF9B" d="M202.985,260.432c-1.969-1.393-5.927-1.82-7.115,0.782
		c-0.439,0.966,0.086,1.908,1.149,2.005c1.346,0.135,2.788-0.732,3.987,0.271c1.111,0.952,0.842,2.663,0.183,3.788
		c-1.199,2.042-4.266,1.455-6.101,0.819c-2.334-0.819-4.449-2.64-4.204-5.269c0.232-2.519,2.834-7.224,5.756-7.126
		c0.82,0.023,1.039-1.334,0.196-1.455c-4.865-0.734-8.423,4.059-9.021,8.472c-0.599,4.497,3.215,7.688,7.127,9.007
		c4.083,1.382,8.728,0.149,10.17-4.228C205.944,264.968,205.199,261.997,202.985,260.432L202.985,260.432z"/>
	<path fill-rule="evenodd" clip-rule="evenodd" fill="#4C62AB" d="M209.966,319.326L209.966,319.326
		c-4.131-0.502-8.336-0.636-12.493-0.856c-4.315-0.244-8.629-0.341-12.945-0.109c-2.689,0.136-5.318,0.441-7.885,0.941
		c-0.501-0.844-1.039-1.663-1.601-2.457c-1.785-2.556-3.887-4.877-6.124-7.042c-2.812-2.712-5.929-5.097-9.045-7.444
		c-2.959-2.236-5.966-4.412-9.107-6.38c-0.025-0.012-0.062-0.036-0.098-0.061c0.832-0.391,1.552-0.673,2.456-1.603
		c0.257-0.268,0.453-0.574,0.576-0.893c0.084,0.063,0.171,0.11,0.268,0.171c3.326,2.078,7.065,3.596,10.757,4.891
		c3.717,1.308,7.554,2.263,11.43,2.982c2.041,0.379,4.107,0.637,6.148,1.026c1.272,0.244,2.885,0.733,4.339,0.674
		c4.047,3.605,10.146,4.864,15.367,4.742c4.327-0.098,9.068-1.698,12.15-4.865c1.81,0.552,4.082,0.123,5.854,0.024
		c2.457-0.11,4.901-0.049,7.359-0.221c4.607-0.341,9.193-1.197,13.63-2.529c4.426-1.321,8.703-3.179,12.688-5.488
		c0.318-0.185,0.624-0.367,0.93-0.562c0.463,0.377,1.125,0.499,1.797,0.194c0.673,0.843,1.551,1.406,2.409,2.055
		c0.134,0.097,0.293,0.23,0.438,0.353c-0.561,0.135-1.124,0.293-1.675,0.451c-4.254,1.285-8.348,3.242-12.063,5.676
		c-4.399,2.882-8.423,6.367-12.053,10.182c-1.81,1.893-3.497,3.898-5.013,6.024c-0.794,1.102-1.748,2.37-2.372,3.74
		C220.883,321.136,215.479,319.999,209.966,319.326L209.966,319.326z M351.871,72.528L351.871,72.528
		c4.902,4.926,8.973,10.586,12.628,16.478c3.802,6.136,6.98,12.578,10.182,19.02c1.026,2.054,1.933,4.034,2.774,6.063
		c-1.527-1.357-3.117-2.555-4.963-3.594c-4.668-2.652-9.924-4.119-15.192-5.024c-6.271-1.075-12.627-2.103-18.983-1.198
		c-1.272,0.184-2.604,0.453-3.9,0.856c2.579-5.794,3.74-12.603,2.028-18.776c-0.904-3.276-2.628-6.209-4.95-8.679
		c-0.219-0.22-0.441-0.428-0.673-0.635c0.392-1.223,0.845-2.384,1.761-3.496c1.467-1.748,3.423-2.982,5.463-3.948
		c1.909-0.904,4.012-1.479,6.076-1.809c0.722-0.11,1.589-0.024,2.31-0.257C348.327,69.105,350.135,70.78,351.871,72.528
		L351.871,72.528z M46.448,71.893L46.448,71.893c2.775-2.457,5.66-4.767,8.63-6.979c0.783,0.611,1.588,1.186,2.347,1.833
		c1.394,1.187,2.641,2.568,3.667,4.096c1.015,1.504,1.748,3.166,2.31,4.901c0.391,1.21,0.415,2.848,1.088,3.985
		c-0.11,0.208-0.232,0.416-0.342,0.625c-1.919,3.496-3.509,7.211-4.266,11.135c-0.831,4.353-0.795,8.923,0.501,13.116
		c-1.883-0.379-3.776-0.684-5.684-0.917c-5.782-0.696-11.698-0.342-17.394,0.832c-7.017,1.455-13.58,4.474-18.739,9.094
		c2.53-8.837,6.736-17.31,12.114-24.729C35.214,82.637,40.691,77.014,46.448,71.893L46.448,71.893z M219.624,41.553L219.624,41.553
		c0.061,0.208,0.108,0.416,0.17,0.624c0.514,1.845,1.063,3.679,1.649,5.513c1.101,3.496,2.348,6.955,3.521,10.439
		c2.371,6.968,4.597,14.033,5.832,21.293c1.22,7.298,1.905,14.681,2.433,22.064c0.451,6.405,0.659,12.909,0.108,19.327
		c-1.295-1.896-2.7-3.717-4.24-5.441c-3.216-3.617-7.09-6.832-11.295-9.411c0.085-1.32-0.147-2.653-0.16-3.986
		c-0.023-1.601-0.085-3.202-0.195-4.803c-0.183-2.983-0.464-6.063-1.637-8.851c-0.184-0.415-0.917-0.427-0.881,0.123
		c0.22,2.909,0.538,5.806,0.622,8.728c0.038,1.454,0.024,2.896-0.012,4.339c-0.011,1.002-0.158,1.992-0.256,2.995
		c-1.32-0.71-2.666-1.369-4.021-1.943c-6.637-2.813-14.155-4.121-21.319-3.057c-7.016,1.026-13.348,3.753-19.043,7.982
		c-1.455,1.076-2.836,2.225-4.169,3.423c0-0.465-0.012-0.916-0.024-1.357c-0.049-1.919-0.245-3.814-0.282-5.733
		c-0.049-2.005,0.208-4.009,0.44-6.001c0.123-1.04,0.281-2.078,0.293-3.13c0.025-1.222-0.159-2.408-0.195-3.63
		c-0.037-0.843-1.271-0.843-1.32,0c-0.11,1.967-0.746,3.96-1.052,5.928c-0.293,1.968-0.599,3.948-0.697,5.94
		c-0.085,1.882,0.098,3.777,0.171,5.648c0.074,1.699-0.196,3.398-0.184,5.072c-4.681,4.767-8.654,10.183-12.408,15.745
		c-0.048-0.708-0.11-1.418-0.134-2.126c-0.086-1.943-0.11-3.899-0.086-5.855c0.038-3.851,0.22-7.688,0.477-11.526
		c0.514-7.702,1.492-15.366,2.849-22.97c1.357-7.529,3.24-14.925,5.281-22.295c1.016-3.68,2.139-7.322,3.326-10.94
		c0.866-2.677,1.613-5.391,2.432-8.08c2.053-1.529,4.218-2.91,6.466-4.181c-0.048,0.097-0.097,0.182-0.133,0.269
		c-1.113,2.139-1.577,4.572-2.14,6.894c-1.209,4.975-0.917,10.219-2.408,15.108c-0.317,1.002,1.223,1.406,1.553,0.428
		c1.577-4.694,1.76-9.682,3.202-14.388c0.746-2.384,1.357-4.779,2.518-7.004c0.466-0.916,0.978-1.784,1.516-2.652
		c0.22-0.354,0.464-0.709,0.685-1.089c1.051-0.476,2.115-0.928,3.203-1.356c-0.135,1.198,0.037,2.506,0.171,3.544
		c0.317,2.507,1.063,4.877,2.09,7.176c1.809,4.083,5.392,8.349,10.33,7.702c4.535-0.6,8.02-4.597,10.073-8.398
		c1.308-2.42,1.883-5.073,2.225-7.787c0.182-1.503,0.294-3.019,0.354-4.534c0.428,0.098,0.855,0.195,1.282,0.305
		c0.049,0.11,0.087,0.208,0.123,0.318c0.44,1.259,0.929,2.493,1.404,3.74c0.955,2.482,1.86,4.976,2.531,7.555
		c0.649,2.457,1.26,4.914,1.687,7.432c0.404,2.298,0.355,4.779,1.235,6.968c0.33,0.806,1.612,0.514,1.332-0.367
		c-0.672-2.139-0.342-4.414-0.721-6.613c-0.452-2.665-1.149-5.281-1.639-7.946c-0.464-2.628-1.431-5.123-2.357-7.603
		c-0.355-0.918-0.697-1.822-1.028-2.738c0.979,0.305,1.944,0.66,2.91,1.05C214.721,38.497,217.251,39.903,219.624,41.553
		L219.624,41.553z M252.027,339.324L252.027,339.324c-3.253-3.215-6.894-6.186-10.77-8.777c1.443-1.724,3.021-3.349,4.609-4.828
		c2.555-2.36,5.537-4.374,8.678-5.88c3.144-1.513,6.639-2.322,10.121-2.493c1.846-0.084,3.682,0.086,5.514,0.244
		c0.232,0.024,0.476,0.061,0.709,0.097c0.563,2.546,0.881,5.125,0.93,7.653c0.109,5.991-1.406,12.101-3.886,17.641
		c-1.481,3.3-3.278,6.44-5.186,9.509c-0.561,0.892-1.11,1.797-1.637,2.702c-0.039-0.344-0.085-0.697-0.147-1.064
		c-0.354-1.968-1.162-3.897-2.065-5.66C257.161,345.083,254.716,341.99,252.027,339.324L252.027,339.324z M150.778,334.546
		L150.778,334.546c-4.009,4.386-7.334,9.411-10.438,14.46c-1.259,2.04-2.421,4.266-3.301,6.538
		c-0.562-1.136-1.137-2.249-1.601-3.361c-1.43-3.422-2.567-6.941-3.361-10.56c-1.357-6.162-1.846-13.177-0.771-19.24
		c0.855-4.878,2.641-8.825,5.231-12.58c1.932,0.43,3.753,1.198,5.575,2.115c2.603,1.31,5.194,2.801,7.627,4.401
		c2.531,1.664,4.743,3.753,6.661,6.087c0.905,1.112,1.7,2.322,2.421,3.557c0.171,0.28,0.33,0.577,0.476,0.868
		C156.193,329.094,153.333,331.733,150.778,334.546L150.778,334.546z"/>
	<path fill-rule="evenodd" clip-rule="evenodd" fill="#353485" d="M204.258,318.824c-2.263-0.134-4.523-0.233-6.785-0.354
		c-4.315-0.244-8.629-0.341-12.945-0.109c-2.689,0.136-5.318,0.441-7.885,0.941c-0.501-0.844-1.039-1.663-1.601-2.457
		c-0.843-1.21-1.761-2.359-2.726-3.483C191.288,310.109,204.258,318.824,204.258,318.824L204.258,318.824z M241.002,300.318
		c4.426-1.321,8.703-3.179,12.688-5.488c0.318-0.185,0.624-0.367,0.93-0.562c0.463,0.377,1.125,0.499,1.797,0.194
		c0.673,0.843,1.551,1.406,2.409,2.055c0.134,0.097,0.293,0.23,0.438,0.353c-0.561,0.135-1.124,0.293-1.675,0.451
		c-4.106,1.249-8.056,3.104-11.673,5.416C243.056,301.016,241.002,300.318,241.002,300.318L241.002,300.318z M204.258,318.824
		L204.258,318.824 M154.139,319.914c-1.613,0.89-3.226,1.87-4.877,2.958c-13.788,9.143-14.802,21.097-11.735,31.487
		c0.794-1.858,1.773-3.668,2.812-5.354c3.104-5.049,6.429-10.074,10.438-14.46l0,0c2.556-2.813,5.415-5.452,8.52-7.715
		c-0.146-0.291-0.305-0.588-0.476-0.868c-0.721-1.234-1.516-2.444-2.421-3.557C155.68,321.539,154.935,320.708,154.139,319.914
		L154.139,319.914z M62.266,72.883c-8.629,7.64-8.52,21.697-4.156,31.293c0.757,0.134,1.516,0.281,2.273,0.427
		c-1.296-4.193-1.332-8.764-0.501-13.116c0.757-3.924,2.347-7.639,4.266-11.135c0.11-0.208,0.232-0.416,0.342-0.625
		c-0.673-1.137-0.697-2.774-1.088-3.985C63.085,74.753,62.706,73.8,62.266,72.883L62.266,72.883z M233.631,115.067
		c-0.465,1.357-0.966,2.702-1.503,4.046c0.415,0.563,0.818,1.125,1.209,1.7C233.496,118.906,233.595,116.986,233.631,115.067
		L233.631,115.067z M333.034,73.042c4.609,5.354,7.065,13.336,3.876,23.799h-0.013c0.562-3.508,0.489-7.089-0.453-10.488
		c-0.904-3.276-2.628-6.209-4.95-8.679c-0.219-0.22-0.441-0.428-0.673-0.635c0.392-1.223,0.845-2.384,1.761-3.496
		C332.729,73.372,332.889,73.2,333.034,73.042L333.034,73.042z M370.758,100.227c0,0,1.54,4.292,2.652,10.806
		c1.465,0.904,2.773,1.919,4.045,3.056c-0.842-2.029-1.748-4.009-2.774-6.063C373.386,105.423,372.089,102.807,370.758,100.227
		L370.758,100.227z M259.875,317.993c4.058,8.385,5.903,20.365,1.235,37.198c0.526-0.905,1.076-1.811,1.637-2.702
		c1.907-3.068,3.704-6.209,5.186-9.509c2.479-5.54,3.995-11.649,3.886-17.641c-0.049-2.528-0.366-5.107-0.93-7.653
		c-0.233-0.036-0.477-0.072-0.709-0.097c-1.832-0.158-3.668-0.328-5.514-0.244C263.065,317.42,261.453,317.639,259.875,317.993
		L259.875,317.993z M23.553,100.717c0,0.012-1.21,4.033-1.748,10.328c-1.125,0.795-2.213,1.65-3.24,2.568
		C19.837,109.199,21.512,104.873,23.553,100.717L23.553,100.717z"/>
	<path fill-rule="evenodd" clip-rule="evenodd" fill="#F9BF9B" d="M162.306,324.826L162.306,324.826
		c-0.061-0.098-0.123-0.194-0.184-0.293c-0.868-1.503-1.907-2.898-3.007-4.24c-2.164-2.679-4.84-4.928-7.726-6.798
		c-2.677-1.724-5.623-3.299-8.532-4.598c-1.394-0.622-2.897-1.231-4.449-1.599c0.342-0.43,0.685-0.845,1.039-1.26
		c2.09-2.47,4.339-4.743,6.711-6.932c0.721-0.671,1.295-1.147,1.956-1.625c0.954,0.636,1.883,1.309,2.8,1.991
		c2.615,1.933,5.194,3.913,7.737,5.941c2.703,2.163,5.367,4.388,7.812,6.832c1.992,1.994,3.802,4.145,5.378,6.468
		c0.343,0.502,0.648,1.002,0.953,1.518c-2.639,0.758-5.231,1.758-7.761,3.055C164.103,323.764,163.199,324.276,162.306,324.826
		L162.306,324.826z M75.994,55.696L75.994,55.696c6.588-1.932,13.874-1.54,19.863,1.259c1.344,0.623,2.64,1.369,3.863,2.2
		c0.159,0.111,0.929,0.807,1.295,1.148c0.269,0.258,0.513,0.515,0.758,0.783c0.085,0.073,0.708,0.831,0.672,0.758
		c0.403,0.537,0.746,1.1,1.063,1.687c0.024,0.036,0.281,0.586,0.318,0.635c0.085,0.244,0.171,0.502,0.256,0.746
		c0.111,0.342,0.185,0.697,0.257,1.039c0.012,0.061,0.098,0.6,0.123,0.697c0.024,0.282,0.036,0.55,0.036,0.831
		c0,0.135-0.073,1.149-0.049,1.088c-0.11,0.636-0.293,1.259-0.501,1.871c-0.012,0.061-0.037,0.098-0.048,0.146
		c-0.025,0.049-0.061,0.123-0.11,0.22c-0.159,0.33-0.342,0.648-0.525,0.954c-0.184,0.318-0.392,0.624-0.587,0.929
		c-0.037,0.062-0.392,0.539-0.428,0.6c-0.488,0.587-1.014,1.149-1.577,1.675c-0.269,0.269-0.55,0.513-0.843,0.758
		c-0.037,0.035-0.416,0.341-0.55,0.439c-0.55,0.404-1.112,0.783-1.688,1.149c-0.647,0.404-1.307,0.771-1.979,1.112
		c-0.33,0.184-0.66,0.343-1.002,0.502c-0.208,0.097-0.403,0.182-0.611,0.28c-0.024,0.013-0.049,0.013-0.06,0.025
		c-0.807,0.317-1.626,0.599-2.458,0.843c-0.465,0.135-0.941,0.245-1.406,0.343c-0.17,0.036-1.417,0.269-1.283,0.256
		c-1.014,0.135-2.054,0.184-3.081,0.171c-0.439,0-0.879-0.025-1.32-0.049c-0.281-0.024-0.563-0.049-0.843-0.073
		c-0.061-0.012-0.135-0.024-0.22-0.037c-2.029-0.329-4.021-0.832-5.953-1.503c-1.564-0.538-3.105-1.271-4.706-1.688
		c0.917-1.515,1.735-3.018,1.87-4.877c0.037-0.611-0.184-1.112-0.55-1.479c0.379-1.137,0.684-2.31,0.807-3.459
		c0.306-2.909-0.709-5.818-2.531-8.055c-0.587-0.721-1.333-1.492-2.176-2.176c0.111-0.049,0.221-0.098,0.332-0.134
		C72.24,56.613,74.135,56.247,75.994,55.696L75.994,55.696z M216.945,144.918L216.945,144.918c-4.192,1.001-8.886,1.221-12.822,3.08
		c-0.159,0.073-0.306,0.171-0.439,0.269c-3.154,0.391-6.455,0.525-9.671,0.586c-3.849,0.074-7.713-0.133-11.563-0.476
		c-1.748-0.16-3.496-0.354-5.23-0.587c-0.368-0.049-0.722-0.098-1.077-0.134c0.929,0.123-0.184-0.037-0.318-0.049
		c-0.782-0.11-1.577-0.245-2.359-0.391c-2.958-0.514-5.867-1.222-8.728-2.103c-1.406-0.44-2.787-0.93-4.156-1.467
		c-0.025-0.012-0.501-0.208-0.636-0.269c-0.269-0.11-0.538-0.232-0.807-0.354c-0.783-0.354-1.553-0.697-2.322-1.063
		c-1.309-0.611-2.568-1.296-3.802-2.042c-1.345-0.818-2.372-1.552-3.313-2.323c-0.44-0.366-0.867-0.745-1.271-1.125
		c0.515-0.721,1.028-1.454,1.552-2.188c0.625,0.184,1.456-0.257,1.529-1.076c0.049-0.391,0.061-0.782,0.061-1.173
		c4.144-5.795,8.483-11.588,13.508-16.601c0.416,0.049,0.831-0.109,1.051-0.599c0.098-0.22,0.171-0.44,0.244-0.672
		c2.482-2.347,5.123-4.51,7.983-6.381c6.063-3.986,13.03-6.258,20.315-6.001c7.481,0.257,14.461,2.823,20.83,6.662
		c5.158,3.104,9.73,7.199,13.482,11.893c3.778,4.755,6.552,10.269,9.241,15.708c-1.087,0.783-2.224,1.491-3.373,2.152
		c-1.296,0.746-2.616,1.418-3.962,2.042c-1.601,0.757-2.041,0.917-3.861,1.613C223.742,143.084,220.355,144.086,216.945,144.918
		L216.945,144.918z M309.517,74.655L309.517,74.655c-0.231-0.024-0.452-0.049-0.686-0.073c0.185,0.013-0.587-0.097-0.673-0.109
		c-0.83-0.147-1.637-0.367-2.432-0.612c-0.355-0.11-0.684-0.232-1.026-0.354c-0.071-0.025-0.122-0.049-0.171-0.062
		c-0.05-0.024-0.111-0.048-0.196-0.085c-0.637-0.294-1.246-0.637-1.846-1.003c-0.294-0.183-0.573-0.367-0.855-0.562
		c-0.036-0.025-0.049-0.037-0.072-0.048c-0.05-0.038-0.098-0.086-0.185-0.159c-0.257-0.221-0.49-0.453-0.733-0.697
		c-0.135-0.147-0.28-0.306-0.415-0.452c0-0.012,0-0.012,0-0.012c-0.195-0.27-0.355-0.551-0.514-0.832
		c-0.036-0.074-0.16-0.342-0.221-0.501c-0.085-0.232-0.146-0.477-0.206-0.721c-0.026-0.073-0.062-0.392-0.088-0.563
		c-0.022-0.281-0.022-0.562-0.012-0.843c0-0.036,0.062-0.771,0.05-0.758c0.135-0.794,0.367-1.577,0.635-2.347
		c0.024-0.049,0.036-0.097,0.049-0.134c0.038-0.049,0.087-0.16,0.172-0.331c0.158-0.329,0.353-0.647,0.537-0.977
		c0.183-0.318,0.403-0.625,0.609-0.93c0.039-0.049,0.076-0.098,0.101-0.147c0.048-0.036,0.108-0.122,0.244-0.269
		c1.149-1.356,1.992-2.017,3.251-2.86c1.211-0.807,2.578-1.479,3.594-1.858c0.71-0.27,1.431-0.477,2.176-0.661
		c0.354-0.086,0.722-0.159,1.088-0.231c0.197-0.025,0.379-0.062,0.574-0.087c-0.049,0.013,0.075,0,0.354-0.036
		c4.083-0.416,8.142,0.44,12.066,1.479c2.052,0.538,4.131,1.027,6.195,1.527c-0.28,0.171-0.549,0.318-0.794,0.453
		c-1.968,1.125-3.691,2.689-5.071,4.474c-1.346,1.761-2.349,3.802-2.85,5.965c-0.208,0.954-0.379,2.09-0.392,3.227
		c-0.366-0.012-0.757,0.11-1.136,0.367c-1.969,1.357-4.791,1.883-7.077,1.956C312.217,74.839,310.861,74.778,309.517,74.655
		L309.517,74.655z M382.284,142.131L382.284,142.131c-0.563,3.997-1.821,8.142-3.275,11.306c-1.566,3.387-3.473,6.613-5.587,9.693
		c-2.04,2.983-4.07,5.453-6.688,8.313c-5.035,5.501-10.925,10.524-16.574,14.645c-6.257,4.583-12.858,8.715-19.923,11.955
		c-3.766,1.723-8.398,3.276-12.849,4.254c-2.48,0.537-4.008,0.745-6.43,0.928c-1.124,0.099-2.249,0.122-3.386,0.148
		c-0.539,0-1.038,0.048-1.539,0.108c1.148-4.707,2.188-9.424,2.676-14.253c0.501-5.024,0.489-10.084,0.942-15.096
		c0.073-0.733-1.005-0.794-1.224-0.159c-1.527,4.303-2.555,8.642-3.495,13.116c-0.918,4.425-2.127,8.704-3.546,12.993
		c-2.762,8.35-5.538,16.723-8.716,24.937c-3.006,7.786-6.931,15.218-11.05,22.456c-4.241,7.431-8.787,14.729-13.458,21.904
		c-1.673,2.556-3.409,5.061-5.171,7.566c-0.085,0.074-0.172,0.148-0.257,0.219c-1.724,1.396-3.704,2.495-5.659,3.521
		c-4.315,2.263-8.789,4.327-13.373,6.015c-4.376,1.613-8.983,2.737-13.556,3.728c-4.658,1.004-9.768,1.749-14.521,0.882
		c-0.063-0.015-0.135-0.015-0.195-0.015c-0.234-0.366-0.49-0.733-0.758-1.062c-1.884-2.36-5.012-3.631-7.873-4.268
		c-2.408-0.525-4.877-0.609-7.334-0.487c-1.737,0.084-3.483,0.452-5.182,0.77c-1.701,0.317-3.485,0.378-5.121,0.916
		c-0.698,0.245-1.027,0.881-0.966,1.479c-0.771,0.427-1.517,0.893-2.201,1.419c-1.638-0.319-3.374-0.319-5.012-0.49
		c-2.139-0.208-4.29-0.415-6.429-0.708c-4.461-0.624-8.862-1.64-13.166-2.983c-4.29-1.332-8.447-3.006-12.419-5.109
		c-1.675-0.892-3.313-1.858-4.89-2.908c-2.163-2.373-4.278-4.768-6.369-7.2c-5.097-5.954-9.705-12.225-14.143-18.69
		c-8.972-13.067-16.661-27.187-22.882-41.77c-0.148-0.342-0.282-0.696-0.429-1.039c0.025-0.158,0.038-0.317,0.038-0.477
		c0-1.234-0.551-2.175-1.382-2.787c-1.247-3.116-2.433-6.258-3.594-9.4c-1.785-4.791-3.851-9.498-5.257-14.424
		c-0.269-0.965-1.698-0.562-1.491,0.416c0.843,3.912,1.467,7.86,2.273,11.771c0.733,3.496,1.772,6.956,2.848,10.366
		c-15.011-2.041-29.8-5.012-42.979-12.957c-11.172-6.723-20.487-16.222-26.819-27.699c-3.104-5.66-5.171-11.332-6.625-17.859
		c-1.394-6.259-1.736-12.762-1.148-19.461c0.256-2.896,0.708-5.782,1.332-8.641c5.524-5.501,13.079-8.936,20.683-10.464
		c5.317-1.076,10.83-1.149,16.208-0.477c2.653,0.33,5.268,0.979,7.848,1.699c0.184,0.331,0.379,0.648,0.587,0.965
		c6.075,9.34,18.054,12.114,28.519,11.992c8.043-0.097,15.768-1.845,23.139-4.986c4.78-2.042,9.388-4.45,14.082-6.662
		c3.508-1.651,7.188-2.959,10.928-3.997c-0.794,3.324-0.869,6.93-0.783,10.219c0.025,0.831,0,1.674-0.011,2.518
		c-0.257,1.883-0.514,3.753-0.635,5.646c-0.22,3.827,0.452,7.201,2.078,10.636c2.689,5.646,7.322,9.938,12.627,13.141
		c5.304,3.215,11.625,4.987,17.675,6.173c3.753,0.734,6.333,1.015,9.84,1.406c3.79,0.428,7.604,0.648,11.429,0.661
		c4.705,0.012,9.375-0.453,13.997-1.37c2.053-0.415,4.071-1.002,6.051-1.686c2.273-0.147,4.511-0.538,6.747-1.003
		c3.619-0.77,7.15-1.87,10.61-3.166c6.136-2.298,12.017-5.317,16.917-9.718c5.036-4.522,8.008-10.548,8.459-17.296
		c0.208-3.117-0.341-6.417-0.843-9.473c-0.44-2.677-1.137-5.343-2.285-7.811c0.243,0.036,0.488,0.084,0.721,0.121
		c2.09,0.366,4.193,0.855,6.248,1.393c3.935,1.028,7.723,2.519,11.403,4.242c7.713,3.606,15.095,8.056,23.017,11.209
		c3.936,1.553,8.081,2.531,12.31,2.774c4.499,0.258,8.849-0.794,12.958-2.542c5.903-2.518,10.817-7.297,14.191-12.773
		c2.042-1.027,4.325-1.577,6.589-1.834c5.842-0.66,11.819,0.49,17.553,1.516c4.828,0.868,9.621,2.176,13.946,4.511
		c1.003,0.538,1.957,1.136,2.898,1.772c1.026,0.697,2.175,1.381,3.117,2.188c0.928,0.782,1.783,1.65,2.652,2.518
		c0.366,0.366,0.758,0.77,1.162,1.149c0.354,1.137,0.684,2.298,0.99,3.447c0.463,1.784,0.964,4.303,1.148,5.684
		c0.256,1.967,0.377,3.935,0.389,5.917C382.639,138.146,382.504,140.615,382.284,142.131L382.284,142.131z M269.801,313.716
		L269.801,313.716c-1.564-0.172-3.165-0.221-4.719-0.172c-4.057,0.134-7.981,1.16-11.673,2.812
		c-3.618,1.615-6.773,3.999-9.498,6.845c-1.368,1.443-2.615,2.995-3.717,4.646c-0.305,0.476-0.598,0.954-0.867,1.441
		c-2.004-1.247-4.059-2.395-6.148-3.409c-1.039-0.502-2.078-0.979-3.117-1.42c0.488-0.781,0.93-1.601,1.442-2.347
		c1.357-2.004,2.995-3.813,4.656-5.563c3.265-3.422,6.896-6.502,10.819-9.13c3.399-2.273,7.028-4.157,10.77-5.793
		c1.454-0.638,2.994-1.185,4.56-1.541c1.712,2.066,3.179,4.363,4.474,6.711C268.003,309.009,269.007,311.331,269.801,313.716
		L269.801,313.716z"/>
	<path fill-rule="evenodd" clip-rule="evenodd" fill="#F9F6EA" d="M75.431,119.296L75.431,119.296c0,0,1.871,7.419,22.565,5.807
		c16.074-1.26,33.615-8.459,40.644-11.626c0.036-2.457,0.244-4.999,0.807-7.394c-3.741,1.038-7.42,2.346-10.928,3.997
		c-4.693,2.212-9.302,4.62-14.082,6.662c-7.371,3.141-15.096,4.89-23.139,4.986C86.078,121.79,80.479,121.13,75.431,119.296
		L75.431,119.296z M253.701,113.393c3.388,0.097,9.743,1.076,19.914,5.562c16.502,7.273,42.845,13.153,49.641,0.196l0,0
		c-1.652,1.198-3.41,2.212-5.28,3.006c-4.109,1.749-8.459,2.8-12.958,2.542c-4.229-0.244-8.374-1.222-12.31-2.774
		c-7.922-3.153-15.304-7.603-23.017-11.209c-3.681-1.723-7.469-3.214-11.403-4.242c-2.055-0.538-4.158-1.027-6.248-1.393
		c-0.232-0.037-0.478-0.085-0.721-0.121c1.148,2.468,1.845,5.133,2.285,7.811L253.701,113.393z"/>
	<path fill-rule="evenodd" clip-rule="evenodd" fill="#CB736F" d="M162.306,324.826L162.306,324.826
		c-0.061-0.098-0.123-0.194-0.184-0.293c-0.868-1.503-1.907-2.898-3.007-4.24c-0.563-0.71-1.173-1.382-1.809-2.028
		c3.813-1.847,7.505-3.168,11.014-4.048c1.271,1.418,2.444,2.921,3.52,4.498c0.343,0.502,0.648,1.002,0.953,1.518
		c-2.639,0.758-5.231,1.758-7.761,3.055C164.103,323.764,163.199,324.276,162.306,324.826L162.306,324.826z M101.493,74.142
		c0,0,0.403-9.608-26.697-6.466c-0.123,1.149-0.428,2.322-0.807,3.459c0.366,0.367,0.587,0.868,0.55,1.479
		c-0.135,1.859-0.953,3.362-1.87,4.877c1.601,0.417,3.142,1.15,4.706,1.688c1.932,0.672,3.924,1.174,5.953,1.503
		c0.085,0.013,0.159,0.025,0.22,0.037c0.281,0.024,0.562,0.049,0.843,0.073c0.44,0.024,0.88,0.049,1.32,0.049
		c1.027,0.012,2.066-0.037,3.081-0.171c-0.134,0.012,1.113-0.221,1.283-0.256c0.465-0.098,0.941-0.208,1.406-0.343
		c0.831-0.244,1.65-0.526,2.458-0.843c0.011-0.013,0.036-0.013,0.06-0.025c0.208-0.098,0.404-0.183,0.611-0.28
		c0.343-0.159,0.673-0.319,1.002-0.502c0.672-0.342,1.332-0.708,1.979-1.112c0.576-0.366,1.138-0.745,1.688-1.149
		c0.134-0.098,0.513-0.404,0.55-0.439c0.293-0.245,0.575-0.489,0.843-0.758C100.955,74.692,101.224,74.423,101.493,74.142
		L101.493,74.142z M60.433,108.295c1.467,2.09,3.166,3.766,5.048,4.804l0,0c-0.99-1.014-1.895-2.127-2.702-3.362
		c-0.208-0.317-0.403-0.634-0.587-0.965C61.606,108.613,61.019,108.454,60.433,108.295L60.433,108.295z M230.637,122.536
		c-4.194,8.996-10.367,17.309-19.399,23.458l0,0c1.931-0.342,3.862-0.636,5.708-1.075l0,0c3.41-0.832,6.797-1.834,10.085-3.069
		c1.82-0.697,2.261-0.856,3.861-1.613c1.346-0.624,2.666-1.296,3.962-2.042c1.149-0.661,2.286-1.369,3.373-2.152
		C235.954,131.435,233.605,126.753,230.637,122.536L230.637,122.536z M305.727,73.861c0,0,0.379-9.205,11.148-8.875
		c2.004,0.062,4.168,0.489,6.33,1.271c-0.45,0.953-0.805,1.956-1.038,2.982c-0.208,0.954-0.379,2.09-0.392,3.227
		c-0.366-0.012-0.757,0.11-1.136,0.367c-1.969,1.357-4.791,1.883-7.077,1.956c-1.346,0.049-2.701-0.012-4.046-0.134l0,0
		c-0.231-0.024-0.452-0.049-0.686-0.073c0.185,0.013-0.587-0.097-0.673-0.109C307.328,74.325,306.521,74.105,305.727,73.861
		L305.727,73.861z M374.093,115.971c2.3,21.662-3.065,57.941-64.955,57.562l0,0c0.293,0.025,0.549,0.22,0.514,0.599
		c-0.453,5.012-0.441,10.072-0.942,15.096c-0.488,4.829-1.527,9.546-2.676,14.253c0.501-0.061,1-0.108,1.539-0.108
		c1.137-0.026,2.262-0.05,3.386-0.148c2.422-0.183,3.949-0.391,6.43-0.928c4.45-0.979,9.083-2.532,12.849-4.254
		c7.064-3.239,13.666-7.372,19.923-11.955c5.649-4.121,11.539-9.144,16.574-14.645c2.618-2.86,4.648-5.329,6.688-8.313
		c2.114-3.08,4.021-6.307,5.587-9.693c1.454-3.165,2.713-7.309,3.275-11.306l0,0c0.22-1.516,0.354-3.985,0.328-5.879
		c-0.012-1.981-0.133-3.949-0.389-5.917c-0.185-1.381-0.686-3.9-1.148-5.684c-0.307-1.149-0.636-2.311-0.99-3.447
		c-0.404-0.379-0.796-0.783-1.162-1.149c-0.869-0.868-1.725-1.736-2.652-2.518C375.61,116.974,374.841,116.461,374.093,115.971
		L374.093,115.971z M249.948,305.563c2.715,2.174,5.637,5.146,8.095,9.094c2.285-0.646,4.632-1.027,7.039-1.112
		c1.554-0.049,3.154,0,4.719,0.172l0,0c-0.794-2.385-1.798-4.707-3.019-6.919c-1.295-2.348-2.762-4.645-4.474-6.711
		c-1.565,0.356-3.105,0.903-4.56,1.541C255.082,302.787,252.468,304.083,249.948,305.563L249.948,305.563z M21.597,114.518
		c-0.72,20.242,6.821,56.693,67.536,67.047c-0.366,0.097-0.659,0.439-0.562,0.929c0.843,3.912,1.467,7.86,2.273,11.771
		c0.733,3.496,1.772,6.956,2.848,10.366c-15.011-2.041-29.8-5.012-42.979-12.957c-11.172-6.723-20.487-16.222-26.819-27.699
		c-3.104-5.66-5.171-11.332-6.625-17.859c-1.394-6.259-1.736-12.762-1.148-19.461c0.256-2.896,0.708-5.782,1.332-8.641
		C18.737,116.742,20.118,115.581,21.597,114.518L21.597,114.518z M305.494,184.474c-0.185,0.867-0.379,1.736-0.562,2.615
		c-0.918,4.425-2.127,8.704-3.546,12.993c-2.762,8.35-5.538,16.723-8.716,24.937c-3.006,7.786-6.931,15.218-11.05,22.456
		c-4.241,7.431-8.787,14.729-13.458,21.904c-1.673,2.556-3.409,5.061-5.171,7.566c-0.085,0.074-0.172,0.148-0.257,0.219
		c-1.724,1.396-3.704,2.495-5.659,3.521c-4.315,2.263-8.789,4.327-13.373,6.015c-4.376,1.613-8.983,2.737-13.556,3.728
		c-4.658,1.004-9.768,1.749-14.521,0.882c-0.063-0.015-0.135-0.015-0.195-0.015c-0.234-0.366-0.49-0.733-0.758-1.062
		c-1.884-2.36-5.012-3.631-7.873-4.268c-0.515-0.109-1.026-0.194-1.539-0.28"/>
	<path fill-rule="evenodd" clip-rule="evenodd" fill="#F9F6EA" d="M190.775,290.136L190.775,290.136
		c1.501,0.184,3.067,0.05,4.56,0.05c2.065,0,4.119-0.111,6.185-0.136c2.517-0.024,5.171,0.354,7.444,1.491
		c1.98,0.992,3.983,3.165,3.642,5.563c-0.379,2.653-2.944,4.363-5.134,5.479c-4.974,2.526-11.428,1.783-16.208-0.833
		c-2.225-1.21-4.938-3.473-4.853-6.248c0.036-1.172,1.088-2.347,1.833-3.153C189.039,291.505,189.869,290.795,190.775,290.136
		L190.775,290.136z"/>
	<path fill-rule="evenodd" clip-rule="evenodd" fill="#EB5E2B" d="M228.742,49.731L228.742,49.731
		c2.615,2.97,4.742,6.162,6.941,9.425c1.127,1.687,2.043,3.471,2.776,5.366c0.415,1.088,1.014,1.981,1.354,3.117
		c0.333,1.088,0.539,2.201,0.735,3.313c0.231,1.271,1.332,1.564,2.272,1.21c0.477,0.672,1.015,1.308,1.493,1.918
		c0.892,1.15,1.723,2.323,2.505,3.558c1.662,2.628,2.982,5.5,3.582,8.557c0.549,2.787-0.074,5.647-1.064,8.263
		c-0.502,1.308-1.271,2.542-2.029,3.704c-0.501,0.77-1.014,1.479-1.344,2.237c-0.636,0.305-1.088,0.99-0.794,1.761
		c2.077,5.548,2.505,11.379,2.358,17.271c-0.024,0.673-0.05,1.344-0.109,2.03c-0.074,0.831-0.062,0.732-0.245,1.711
		c-0.134,0.721-0.342,1.442-0.55,2.139c-0.111,0.342-0.233,0.685-0.354,1.027c-0.037,0.097-0.062,0.171-0.086,0.219
		c-0.025,0.049-0.048,0.123-0.097,0.208c-1.334,2.983-2.617,4.585-4.707,6.65c-0.255,0.244-0.5,0.477-0.771,0.709
		c-1.517-3.362-3.153-6.674-5.049-9.828c1.748-7.212,1.419-14.913,1.102-22.272c-0.332-7.517-1.308-15.023-2.752-22.395
		c-1.467-7.407-3.936-14.545-6.404-21.66c-1.197-3.472-2.433-6.931-3.606-10.415c-0.428-1.247-0.856-2.493-1.281-3.741
		C224.829,45.624,226.884,47.616,228.742,49.731L228.742,49.731z M183.513,299.033L183.513,299.033
		c-0.085-0.012-0.159-0.023-0.244-0.036c-1.895-0.366-3.814-0.609-5.721-0.928c-3.728-0.636-7.408-1.54-11.013-2.715
		c-3.644-1.174-7.042-2.76-10.439-4.509c-0.794-0.405-1.552-0.856-2.298-1.334c-0.44-1.111-1.076-2.102-1.821-3.056
		c2.42,1.076,4.914,2.03,7.419,2.872c4.437,1.479,9.046,2.458,13.654,3.119c2.297,0.33,4.62,0.635,6.943,0.685
		c1.076,0.022,2.213,0.072,3.35,0.061C182.425,295.148,182.67,297.189,183.513,299.033L183.513,299.033z M216.579,293.594
		L216.579,293.594c4.242,1.126,8.617,0.796,12.933,0.014c5.073-0.892,10.182-2.175,15.035-3.875
		c4.719-1.662,9.265-3.851,13.69-6.161c0.061-0.024,0.11-0.061,0.172-0.098c-0.575,0.869-1.149,1.736-1.699,2.628
		c-0.552,0.917-1.125,1.833-1.649,2.775c-0.05,0.085-0.088,0.172-0.136,0.268c-1.124,0.674-2.273,1.334-3.386,1.981
		c-3.704,2.139-7.603,3.803-11.686,5.049c-4.059,1.234-8.251,2.017-12.481,2.347c-2.274,0.171-4.561,0.121-6.834,0.197
		c-1.233,0.034-2.456,0.12-3.69,0.168c-0.023,0-0.048,0-0.062,0C217.373,297.129,217.203,295.293,216.579,293.594L216.579,293.594z
		 M324.907,73.555L324.907,73.555c0.048-1.039,0.061-2.078,0.292-3.092c0.451-1.869,1.26-3.642,2.457-5.159
		c1.149-1.442,2.58-2.603,4.168-3.532c1.21-0.697,3.143-1.015,4.376-1.858c2.311,1.382,4.411,3.116,6.554,4.768
		c-0.809,0.159-1.604,0.378-2.397,0.611c-2.21,0.685-4.34,1.749-6.234,3.092c-2.149,1.528-4.695,4.121-5.635,6.956
		c-0.245-0.158-0.488-0.329-0.733-0.477C326.838,74.264,325.896,73.837,324.907,73.555L324.907,73.555z M131.794,362.83
		L131.794,362.83c-1.173,0.05-2.347,0.013-3.508,0.024c-5.257,0.062-10.855,1.076-15.683-0.745c0.22,0.073,0.134,0.025-0.257-0.146
		c-0.366-0.184-0.708-0.403-1.051-0.611c-0.172-0.109-0.269-0.171-0.318-0.196c-0.024-0.024-0.086-0.085-0.208-0.207
		c0,0,0,0,0-0.012c0.245,0.244,0.11,0.012,0.013-0.073c0-0.014,0-0.025,0.013-0.037c0.024-0.038,0.048-0.087,0.085-0.171
		c0.012-0.013,0.44-0.588,0.355-0.501c0.807-0.954,1.479-1.406,2.494-2.028c0.512-0.333,1.075-0.613,1.625-0.87
		c-0.391,0.196,0.697-0.22,0.697-0.22c0.404-0.121,0.807-0.195,1.223-0.268c2.713-0.503,5.953,0.648,8.532,1.552
		c1.81,0.635,3.618,1.479,5.488,1.93c0.525,0.895,1.112,1.738,1.76,2.496C132.638,362.782,132.21,362.807,131.794,362.83
		L131.794,362.83z M276.45,354.714L276.45,354.714c1.821-0.452,4.377-0.44,6.161-0.085c1.247,0.244,2.299,0.587,3.129,1.003
		c0.99,0.5,1.651,0.914,2.225,1.674c0.074,0.097,0.135,0.194,0.195,0.306c-0.011,0.036-0.024,0.071-0.024,0.1
		c-0.122,0.121-0.243,0.242-0.377,0.364c-0.051,0.024-0.1,0.063-0.16,0.111c-0.281,0.183-0.573,0.353-0.868,0.511
		c-0.695,0.393-0.341,0.211-1.099,0.503c-0.515,0.196-1.052,0.354-1.602,0.489c-1.457,0.392-2.97,0.499-4.474,0.587
		c-3.546,0.184-7.067-0.088-10.611,0.17c-1.175,0.087-2.347,0.172-3.52,0.245c0.062-0.062,0.109-0.122,0.158-0.185
		c0.415-0.513,0.845-1.026,1.261-1.538c0.671-0.367,1.343-0.721,2.002-1.102C271.256,356.511,273.773,355.374,276.45,354.714
		L276.45,354.714z M66.887,74.778L66.887,74.778c-0.6-2.042-1.639-3.936-2.874-5.647c-1.552-2.127-3.764-4.511-6.271-5.978
		c2.665-1.026,5.244-2.286,7.774-3.606c0.099-0.062,0.196-0.098,0.293-0.147c0.954,0.563,1.957,1.101,2.775,1.857
		c1.491,1.406,2.444,3.387,2.628,5.428c0.11,1.309-0.097,2.714-0.367,3.985c-0.012,0.109-0.036,0.22-0.061,0.317
		c-1.565,1.015-2.469,2.58-3.497,4.144c-0.072,0.11-0.134,0.22-0.208,0.33C67.009,75.217,66.948,74.985,66.887,74.778L66.887,74.778
		z M139.447,81.317L139.447,81.317c0.746-2.493,2.25-4.511,3.985-6.405c0.941-1.026,1.906-2.102,3.055-2.897
		c0.428-0.282,0.906-0.526,1.37-0.758c0.146-0.073,0.354-0.22,0.476-0.342c0.123-0.123,0.208-0.281,0.257-0.453
		c-0.086,0.208-0.086,0.208,0.012-0.012c0.025-0.086,0.036-0.184,0.049-0.269c0.024-0.049,0.049-0.097,0.061-0.159
		c2.065-6.333,4.694-12.346,9.168-17.383c1.894-2.139,3.96-4.07,6.148-5.818c-0.94,1.907-1.846,3.838-2.615,5.83
		c-1.443,3.729-2.75,7.494-3.961,11.295c-2.359,7.445-4.095,15.121-5.513,22.785c-1.405,7.652-2.358,15.39-2.872,23.152
		c-0.257,3.838-0.391,7.676-0.439,11.526c-0.025,1.956,0.011,3.912,0.098,5.855c0.072,1.858,0.049,3.802,0.427,5.635
		c-0.575,0.868-1.137,1.724-1.711,2.591c-1.161-1.234-2.152-2.591-2.97-4.156c-1.161-2.2-1.943-4.645-2.481-7.09
		c0.073-0.953,0.195-1.906,0.232-2.786c0.073-1.724,0.293-3.436,0.391-5.159c0.11-2.017,0.269-3.998,0.562-6.002
		c0.307-2.09,0.953-4.058,1.418-6.112c0.281-1.259-0.624-2.334-1.663-2.665c-0.22-0.404-0.526-0.771-0.844-1.173
		c-0.636-0.807-1.186-1.663-1.662-2.567c-0.881-1.639-1.345-3.484-1.663-5.305C138.114,88.822,138.396,84.863,139.447,81.317
		L139.447,81.317z M202.069,34.745L202.069,34.745c-0.013,1.002,0.012,2.005-0.036,2.995c-0.135,2.53-0.453,5.121-1.382,7.493
		c-1.319,3.362-4.119,7.016-7.688,8.093c-4.145,1.234-6.979-3.057-8.484-6.235c-0.917-1.956-1.515-4.095-1.882-6.234
		c-0.22-1.333-0.012-2.738-0.135-4.083c3.204-1.076,6.503-1.834,9.828-2.176C195.579,34.244,198.855,34.305,202.069,34.745
		L202.069,34.745z"/>
	<path fill-rule="evenodd" clip-rule="evenodd" fill="#BE361A" d="M238.117,63.69c0.123,0.27,0.232,0.55,0.343,0.832
		c0.415,1.088,1.014,1.981,1.354,3.117c0.333,1.088,0.539,2.201,0.735,3.313c0.231,1.271,1.332,1.564,2.272,1.21
		c0.477,0.672,1.015,1.308,1.493,1.918c0.892,1.15,1.723,2.323,2.505,3.558c1.662,2.628,2.982,5.5,3.582,8.557
		c0.549,2.787-0.074,5.647-1.064,8.263c-0.502,1.308-1.271,2.542-2.029,3.704c-0.501,0.77-1.014,1.479-1.344,2.237
		c-0.636,0.305-1.088,0.99-0.794,1.761c2.077,5.548,2.505,11.379,2.358,17.271c-0.024,0.673-0.05,1.344-0.109,2.03
		c-0.074,0.831-0.062,0.732-0.245,1.711c-0.134,0.721-0.342,1.442-0.55,2.139c-0.111,0.342-0.233,0.685-0.354,1.027
		c-0.037,0.097-0.062,0.171-0.086,0.219c-0.025,0.049-0.048,0.123-0.097,0.208c-1.334,2.983-2.617,4.585-4.707,6.65
		c-0.255,0.244-0.5,0.477-0.771,0.709c-1.517-3.362-3.153-6.674-5.049-9.828c1.628-6.687,1.454-13.813,1.162-20.683
		C240.99,82.771,238.117,63.703,238.117,63.69L238.117,63.69z M71.202,68.312c-2.311,0.586-4.327,1.43-6.087,2.481
		c0.746,1.247,1.356,2.579,1.773,3.985l0,0c0.061,0.208,0.122,0.439,0.195,0.684c0.074-0.11,0.135-0.22,0.208-0.33
		c1.027-1.564,1.932-3.129,3.497-4.144c0.024-0.098,0.049-0.208,0.061-0.317C71.007,69.913,71.14,69.118,71.202,68.312
		L71.202,68.312z M326.214,67.615c1.722,0.904,3.386,2.065,4.901,3.447c-1.137,1.271-2.113,2.739-2.628,4.278
		c-0.245-0.158-0.488-0.329-0.733-0.477c-0.916-0.599-1.858-1.026-2.847-1.308l0,0c0.048-1.039,0.061-2.078,0.292-3.092
		C325.432,69.472,325.774,68.519,326.214,67.615L326.214,67.615z M216.579,293.594L216.579,293.594
		c4.242,1.126,8.617,0.796,12.933,0.014c5.073-0.892,10.182-2.175,15.035-3.875c4.719-1.662,9.265-3.851,13.69-6.161
		c0.061-0.024,0.11-0.061,0.172-0.098c-0.575,0.869-1.149,1.736-1.699,2.628c-0.552,0.917-1.125,1.833-1.649,2.775
		c-0.05,0.085-0.088,0.172-0.136,0.268c-1.124,0.674-2.273,1.334-3.386,1.981c-3.704,2.139-7.603,3.803-11.686,5.049
		c-4.059,1.234-8.251,2.017-12.481,2.347c-2.274,0.171-4.561,0.121-6.834,0.197c-1.233,0.034-2.456,0.12-3.69,0.168
		c-0.023,0-0.048,0-0.062,0C217.373,297.129,217.203,295.293,216.579,293.594L216.579,293.594z"/>
	<path fill-rule="evenodd" clip-rule="evenodd" fill="#F9BF9B" d="M242.481,86.072c0.22,0.88,0.696,3.361,2.139,2.959
		c1.552-0.429,1.002-2.69,0.686-3.741c-0.552-1.87-1.614-3.607-2.751-5.159c-0.563-0.782-1.932-0.343-1.625,0.684
		C241.454,82.564,242.029,84.299,242.481,86.072L242.481,86.072z"/>
	<path fill-rule="evenodd" clip-rule="evenodd" fill="#F9BF9B" d="M145.84,89.374c0.586-1.81,0.39-3.9,0.757-5.77
		c0.196-0.99,0.476-1.981,0.917-2.897c0.281-0.587,0.159-1.541,0.269-1.895c0.11-0.379-0.294-0.6-0.611-0.465
		c-0.538,0.245-1.418,0.33-1.821,1.101c-0.501,0.99-0.881,2.017-1.163,3.08c-0.549,2.042-1.124,4.78-0.5,6.846
		C144.019,90.46,145.498,90.424,145.84,89.374L145.84,89.374z"/>
	<path fill-rule="evenodd" clip-rule="evenodd" fill="#F9BF9B" d="M203.829,108.063c-7.713-2.665-15.389,0-21.526,4.865
		c-6.308,4.999-11.429,13.067-7.97,21.171c2.653,6.222,10.622,9.584,17.138,10.097c1.332,0.624,2.603,1.051,4.084,1.1
		c1.625,0.049,3.336-0.269,4.913-0.647c3.215-0.782,6.356-3.081,8.85-5.159c5.134-4.241,9.437-9.987,8.483-16.979
		C216.835,115.275,210.308,110.3,203.829,108.063L203.829,108.063z"/>
	<path fill-rule="evenodd" clip-rule="evenodd" fill="#F9BF9B" d="M193.77,91.01L193.77,91.01c-1.382,0.453-3.032,0.086-4.425-0.085
		c-0.807-0.086-1.7-0.245-2.579-0.269c0.44-0.818,0.818-1.674,1.258-2.543c0.417-0.819,0.868-1.735,1.503-2.407
		c0.441-0.465,0.906-0.331,1.577,0.232c1.051,0.879,1.784,2.09,2.384,3.299C193.744,89.74,194.319,90.827,193.77,91.01L193.77,91.01
		z"/>
	<path fill-rule="evenodd" clip-rule="evenodd" fill="#F9BF9B" d="M189.76,81.599c-1.712,0.183-2.898,1.247-3.803,2.64
		c-0.818,1.271-1.222,2.86-1.552,4.315c-0.17,0.745-0.329,1.479-0.513,2.224c-0.024,0.086-0.061,0.514-0.074,0.722
		c-0.085,0.085-0.183,0.183-0.269,0.281c-0.464,0.562-0.636,1.503,0,2.028c1.002,0.831,1.881,0.929,3.153,0.966
		c1.419,0.024,2.824,0.257,4.23,0.391c1.908,0.196,4.255,0.11,5.769-1.246c3.156-2.8,0.025-7.971-2.235-10.28
		C193.268,82.405,191.52,81.402,189.76,81.599L189.76,81.599z"/>
	<path fill-rule="evenodd" clip-rule="evenodd" fill="#F9BF9B" d="M209.696,67.786c-0.11,0.073-0.219,0.159-0.33,0.232
		c-0.514,0.146-1.014,0.378-1.404,0.66c-1.528,1.063-2.679,2.701-3.057,4.522c-0.807,3.803,1.234,8.08,4.729,9.816
		c3.876,1.919,8.179,0.245,10.354-3.325c1.688-2.787,1.735-6.991-0.195-9.668C217.543,66.918,213.07,65.512,209.696,67.786
		L209.696,67.786z"/>
	<path fill-rule="evenodd" clip-rule="evenodd" fill="#F9BF9B" d="M172.451,69.167c-3.056-1.198-6.882-0.367-9.156,1.993
		c-0.404,0.416-0.722,0.868-0.978,1.333c-2.151,2.615-2.285,6.967-0.379,9.924c1.76,2.738,4.804,3.619,7.872,3.068
		c3.508-0.611,6.247-3.63,7.311-6.882C178.417,74.679,176.167,70.61,172.451,69.167L172.451,69.167z"/>
	<path fill="#321A1B" d="M172.451,69.167c-3.056-1.198-6.882-0.367-9.156,1.993c-0.404,0.416-0.722,0.868-0.99,1.333
		c-2.14,2.615-2.273,6.967-0.367,9.924c1.76,2.738,4.804,3.619,7.872,3.068c3.508-0.611,6.247-3.63,7.311-6.882
		C178.417,74.679,176.167,70.61,172.451,69.167L172.451,69.167z"/>
	<path fill="#321A1B" d="M209.696,67.786c-0.11,0.073-0.219,0.159-0.33,0.232c-0.514,0.146-1.014,0.378-1.404,0.66
		c-1.528,1.063-2.679,2.701-3.057,4.522c-0.807,3.803,1.234,8.08,4.729,9.816c3.876,1.919,8.179,0.245,10.354-3.325
		c1.688-2.787,1.735-6.991-0.195-9.668C217.543,66.918,213.07,65.512,209.696,67.786L209.696,67.786z"/>
	<path fill="#321A1B" d="M189.76,81.599c-1.712,0.183-2.898,1.247-3.803,2.64c-0.818,1.271-1.222,2.86-1.552,4.315
		c-0.17,0.745-0.329,1.479-0.513,2.224c-0.024,0.086-0.061,0.514-0.074,0.722c-0.085,0.085-0.183,0.183-0.269,0.281
		c-0.464,0.562-0.636,1.503,0,2.028c1.002,0.831,1.881,0.929,3.153,0.966c1.419,0.024,2.824,0.257,4.23,0.391
		c1.908,0.196,4.255,0.11,5.769-1.246c3.156-2.8,0.025-7.971-2.235-10.28C193.268,82.405,191.52,81.402,189.76,81.599L189.76,81.599
		z M193.77,91.01L193.77,91.01c-1.382,0.453-3.032,0.086-4.425-0.085c-0.807-0.086-1.7-0.245-2.579-0.269
		c0.44-0.818,0.818-1.674,1.258-2.543c0.417-0.819,0.868-1.735,1.503-2.407c0.441-0.465,0.906-0.331,1.577,0.232
		c1.051,0.879,1.784,2.09,2.384,3.299C193.744,89.74,194.319,90.827,193.77,91.01L193.77,91.01z"/>
	<path fill="#321A1B" d="M203.829,108.063c-7.713-2.665-15.389,0-21.526,4.865c-6.308,4.999-11.429,13.067-7.97,21.171
		c2.653,6.222,10.622,9.584,17.138,10.097c1.332,0.624,2.603,1.051,4.084,1.1c1.625,0.049,3.336-0.269,4.913-0.647
		c3.215-0.782,6.356-3.081,8.85-5.159c5.134-4.241,9.437-9.987,8.483-16.979C216.835,115.275,210.308,110.3,203.829,108.063
		L203.829,108.063z M204.942,112.414L204.942,112.414c-0.893,0.281-1.785,0.648-2.579,0.807c-2.41,0.502-4.853,0.966-7.274,1.394
		c-2.419,0.416-5.047,0.074-7.493,0.048c-0.416-0.011-0.965-0.061-1.565-0.084c2.813-2.017,6.002-3.509,9.46-3.9
		C198.792,110.324,201.995,111.045,204.942,112.414L204.942,112.414z M192.339,141.898L192.339,141.898
		c-0.293-0.061-0.574-0.012-0.819,0.11c-2.358-0.795-4.755-1.467-7.004-2.555c1.272-0.832,2.47-1.797,3.813-2.543
		c1.907-1.051,3.986-1.503,6.149-1.308c3.213,0.293,6.063,1.748,8.886,3.178C200.199,140.884,196.165,142.754,192.339,141.898
		L192.339,141.898z"/>
	<path fill="#321A1B" d="M145.84,89.374c0.586-1.81,0.39-3.9,0.757-5.77c0.196-0.99,0.476-1.981,0.917-2.897
		c0.281-0.587,0.159-1.541,0.269-1.895c0.11-0.379-0.294-0.6-0.611-0.465c-0.538,0.245-1.418,0.33-1.821,1.101
		c-0.501,0.99-0.881,2.017-1.163,3.08c-0.549,2.042-1.124,4.78-0.5,6.846C144.019,90.46,145.498,90.424,145.84,89.374L145.84,89.374
		z"/>
	<path fill="#321A1B" d="M242.481,86.072c0.22,0.88,0.696,3.361,2.139,2.959c1.552-0.429,1.002-2.69,0.686-3.741
		c-0.552-1.87-1.614-3.607-2.751-5.159c-0.563-0.782-1.932-0.343-1.625,0.684C241.454,82.564,242.029,84.299,242.481,86.072
		L242.481,86.072z"/>
	<path fill="#321A1B" d="M387.393,116.706c-2.613-7.506-6.685-14.522-10.73-21.331c-3.718-6.259-7.776-12.346-12.457-17.933
		c-3.74-4.474-7.933-8.569-12.604-12.064c-0.939-0.697-1.882-1.37-2.858-2.005c0.085-0.305,0.036-0.648-0.258-0.904
		c-2.751-2.458-5.452-5.061-8.787-6.724c-3.743-1.846-7.788-3.447-11.772-4.681c-7.567-2.335-15.537-3.68-23.127-0.735
		c-6.909,2.678-12.444,8.313-13.336,15.879c-0.882,7.457,4.974,12.847,11.476,15.048c5.392,1.834,15.732,2.469,19.633-2.787
		c0.708,0.538,1.43,1.063,2.103,1.65c1.101,0.966,1.834,2.212,2.641,3.68c1.309,2.396,2.004,5.708,2.052,8.496
		c0.122,6.185-2.896,12.602-7.126,17.174c-2.517,2.738-4.693,4.302-8.214,5.941c-3.483,1.613-7.126,1.833-10.903,1.466
		c-7.629-0.733-15.121-5.341-22.138-8.581c-5.451-2.518-11.024-4.706-16.845-6.234c-2.945-0.771-5.965-1.381-8.997-1.674
		c-1-0.098-2.151-0.195-3.312-0.195c0.807-1.284,1.479-2.641,2.041-4.034c1.382-3.448,1.65-7.078,0.979-10.708
		c-0.636-3.387-2.457-6.625-4.449-9.4c-1.54-2.114-3.729-4.682-6.247-5.941c0-0.048,0-0.098-0.012-0.146
		c-0.28-1.858-0.905-3.741-0.989-5.624c-0.087-2.005-1.139-4.144-1.773-6.038c-1.308-3.839-3.509-7.712-5.99-10.904
		c-4.411-5.708-9.938-10.512-16.342-13.862c-13.03-6.797-28.128-6.845-41.586-1.296c-7.933,3.264-15.121,8.337-20.73,14.827
		c-5.208,6.027-9.327,13.875-10.269,21.857c-0.159,0.012-0.318,0.037-0.44,0.086c-1.565,0.525-2.872,1.479-4.156,2.494
		c-2.604,2.077-4.657,4.987-5.892,8.042c-1.625,4.047-1.907,8.814-1.405,13.104c0.256,2.262,0.782,4.437,1.699,6.515
		c0.257,0.611,0.586,1.345,0.99,2.079c-6.173,0.428-12.126,3.056-17.773,5.512c-6.295,2.738-12.53,5.231-19.327,6.393
		c-0.306,0.049-0.598,0.098-0.904,0.134c-0.074,0.012-0.342,0.049-0.501,0.074c-0.501,0.061-1.003,0.122-1.516,0.171
		c-1.344,0.146-2.69,0.232-4.046,0.269c-2.617,0.098-5.232-0.012-7.836-0.306c-0.195-0.023-0.391-0.048-0.586-0.073
		c0.464,0.049-0.318-0.061-0.489-0.085c-0.599-0.085-1.198-0.208-1.797-0.331c-1.271-0.256-2.529-0.587-3.751-0.99
		c-0.563-0.184-1.113-0.379-1.651-0.599c-0.049-0.012-0.073-0.024-0.098-0.036c-0.012,0-0.012,0-0.012,0
		c-0.27-0.123-0.526-0.245-0.783-0.367c-0.049-0.025-0.098-0.049-0.146-0.073c0.061-0.306,0.012-0.612-0.184-0.88
		c-1.112-1.479-3.031-2.004-4.73-2.579c-0.012,0-0.024,0-0.024,0c-0.122-0.135-0.257-0.257-0.379-0.379
		c-0.183-0.208-0.366-0.417-0.538-0.625c-0.049-0.061-0.099-0.11-0.146-0.171c-0.025-0.036-0.049-0.073-0.085-0.122
		c-0.379-0.525-0.721-1.088-1.039-1.65c-0.146-0.257-0.269-0.514-0.403-0.77c-0.049-0.098-0.245-0.538-0.318-0.709
		c-0.195-0.551-0.378-1.1-0.538-1.663c-0.208-0.709-0.391-1.43-0.538-2.152c-0.024-0.122-0.146-0.879-0.159-0.928
		c-0.036-0.355-0.072-0.721-0.098-1.075c-0.366-4.072,0.171-8.313,1.785-12.103c0.367-0.843,0.758-1.674,1.173-2.505
		c2.066,2.542,5.354,4.229,8.336,5.293c3.937,1.394,8.19,1.491,12.274,0.868c6.673-1.015,13.617-4.597,17.919-9.853
		c2.445-2.995,3.851-6.429,4.046-10.305c0.196-3.729-1.271-7.224-3.544-10.097c-3.851-4.865-10.354-7.835-16.295-9.167
		c-6.93-1.552-14.717-0.746-21.073,2.444c-2.262,1.137-4.511,2.323-6.688,3.607c-0.232,0.023-0.465,0.072-0.709,0.133
		c-0.219,0.074-0.402,0.183-0.537,0.331c-1.295,0.538-2.628,1.063-3.826,1.772c-1.565,0.94-3.117,1.907-4.658,2.884
		c-2.934,1.883-5.793,3.875-8.581,5.978c-5.55,4.168-10.745,8.752-15.402,13.911c-9.449,10.475-16.526,22.943-19.998,36.646
		c-3.398,13.385-2.604,27.809,2.126,40.766c4.67,12.799,12.872,24.155,23.274,32.907c7.823,6.601,16.637,11.613,26.27,15.035
		c10.708,3.814,22.21,5.757,33.529,6.565c1.907,5.391,4.022,10.719,6.294,15.975c6.418,14.828,14.755,28.617,24.631,41.378
		c3.301,4.267,6.748,8.473,10.415,12.444c1.871,2.018,3.79,3.985,5.685,5.989c0.831,0.88,1.625,1.834,2.48,2.726
		c-1.32,0.612-2.53,1.442-3.691,2.312c-2.934,2.199-5.477,4.875-7.896,7.629c-2.348,2.662-4.572,5.426-6.247,8.567
		c-1.784,3.312-3.006,6.943-3.728,10.623c-1.479,7.529-0.966,15.267,0.55,22.748c0.659,3.276,1.613,6.44,2.824,9.534
		c-0.33-0.11-0.661-0.221-0.978-0.329c-3.704-1.285-7.566-1.921-11.454-1.225c-5.659,1.016-13.995,7.774-9.962,14.083
		c2.236,3.508,6.65,4.646,10.5,5.134c3.264,0.416,6.625,0.124,9.89-0.061c2.396-0.124,4.766-0.049,7.15-0.343
		c2.86-0.343,6.515-0.99,7.493-4.182c0.269-0.892,0.171-1.575-0.085-2.198c0.097-0.501,0.256-1.003,0.402-1.479
		c0.501-1.676,1.271-3.252,2.079-4.79c1.601-3.046,3.631-5.882,5.66-8.658c4.021-5.513,8.397-10.84,13.899-14.765
		c5.842-4.181,12.125-6.492,19.276-7.113c8.521-0.746,17.126,0.123,25.633,0.634c5.207,0.306,10.586,1.491,15.806,3.215
		c4.987,1.664,9.729,4.109,14.278,7.238c2.346,1.613,3.886,2.834,5.939,4.56c2.018,1.712,3.936,3.543,5.721,5.486
		c1.785,1.944,2.97,3.535,4.364,5.807c0.782,1.285,1.441,2.616,2.175,3.9c0.147,0.758,0.245,1.527,0.392,2.297
		c0.417,2.165,1.051,5.391,3.8,5.439c0.405,0,0.857-0.132,1.236-0.365c0.942,0.316,1.968,0.465,2.849,0.61
		c2.113,0.354,4.206,0.733,6.332,0.931c4.069,0.366,8.116,0.804,12.21,0.513c3.19-0.22,6.405-0.941,9.096-2.752
		c3.116-2.089,4.694-5.514,3.092-9.094c-1.38-3.131-4.656-5.06-7.712-6.234c-3.216-1.234-6.871-1.295-10.244-0.783
		c-0.794,0.112-1.564,0.295-2.31,0.515c0.366-0.709,0.733-1.417,1.074-2.15c3.215-6.809,4.963-14.155,4.706-21.712
		c-0.268-7.602-2.615-14.961-6.454-21.489c-1.832-3.104-4.058-5.951-6.61-8.47c-1.64-1.612-3.327-3.056-5.258-3.948
		c1.663-1.809,3.167-3.68,4.632-5.635c2.678-3.559,5.233-7.188,7.691-10.88c4.753-7.138,9.251-14.485,13.506-21.929
		c4.277-7.493,8.018-15.231,10.988-23.349c1.479-4.068,2.679-8.25,3.949-12.394c0.537-1.725,1.063-3.448,1.589-5.184
		c0.502,0.209,1.013,0.392,1.539,0.465c1.197,0.16,2.348,0.147,3.559,0.11c2.285-0.073,4.571-0.354,6.845-0.673
		c3.899-0.537,7.713-1.564,11.43-2.86c7.639-2.664,14.839-6.54,21.55-11.001c12.872-8.557,24.889-18.935,33.272-32.063
		c4.571-7.15,7.567-14.913,8.557-23.359C391.685,133.33,390.169,124.663,387.393,116.706L387.393,116.706z M351.871,72.528
		L351.871,72.528c4.902,4.926,8.973,10.586,12.628,16.478c3.802,6.136,6.98,12.578,10.182,19.02
		c1.026,2.054,1.933,4.034,2.774,6.063c-1.527-1.357-3.117-2.555-4.963-3.594c-4.668-2.652-9.924-4.119-15.192-5.024
		c-6.271-1.075-12.627-2.103-18.983-1.198c-1.272,0.184-2.604,0.453-3.9,0.856c2.579-5.794,3.74-12.603,2.028-18.776
		c-0.904-3.276-2.628-6.209-4.95-8.679c-0.219-0.22-0.441-0.428-0.673-0.635c0.392-1.223,0.845-2.384,1.761-3.496
		c1.467-1.748,3.423-2.982,5.463-3.948c1.909-0.904,4.012-1.479,6.076-1.809c0.722-0.11,1.589-0.024,2.31-0.257
		C348.327,69.105,350.135,70.78,351.871,72.528L351.871,72.528z M309.517,74.655L309.517,74.655
		c-0.231-0.024-0.452-0.049-0.686-0.073c0.185,0.013-0.587-0.097-0.673-0.109c-0.83-0.147-1.637-0.367-2.432-0.612
		c-0.355-0.11-0.684-0.232-1.026-0.354c-0.071-0.025-0.122-0.049-0.171-0.062c-0.05-0.024-0.111-0.048-0.196-0.085
		c-0.637-0.294-1.246-0.637-1.846-1.003c-0.294-0.183-0.573-0.367-0.855-0.562c-0.036-0.025-0.049-0.037-0.072-0.048
		c-0.05-0.038-0.098-0.086-0.185-0.159c-0.257-0.221-0.49-0.453-0.733-0.697c-0.135-0.147-0.28-0.306-0.415-0.452
		c0-0.012,0-0.012,0-0.012c-0.195-0.27-0.355-0.551-0.514-0.832c-0.036-0.074-0.16-0.342-0.221-0.501
		c-0.085-0.232-0.146-0.477-0.206-0.721c-0.026-0.073-0.062-0.392-0.088-0.563c-0.022-0.281-0.022-0.562-0.012-0.843
		c0-0.036,0.062-0.771,0.05-0.758c0.135-0.794,0.367-1.577,0.635-2.347c0.024-0.049,0.036-0.097,0.049-0.134
		c0.038-0.049,0.087-0.16,0.172-0.331c0.158-0.329,0.353-0.647,0.537-0.977c0.183-0.318,0.403-0.625,0.609-0.93
		c0.039-0.049,0.076-0.098,0.101-0.147c0.048-0.036,0.108-0.122,0.244-0.269c1.149-1.356,1.992-2.017,3.251-2.86
		c1.211-0.807,2.578-1.479,3.594-1.858c0.71-0.27,1.431-0.477,2.176-0.661c0.354-0.086,0.722-0.159,1.088-0.231
		c0.197-0.025,0.379-0.062,0.574-0.087c-0.049,0.013,0.075,0,0.354-0.036c4.083-0.416,8.142,0.44,12.066,1.479
		c2.052,0.538,4.131,1.027,6.195,1.527c-0.28,0.171-0.549,0.318-0.794,0.453c-1.968,1.125-3.691,2.689-5.071,4.474
		c-1.346,1.761-2.349,3.802-2.85,5.965c-0.208,0.954-0.379,2.09-0.392,3.227c-0.366-0.012-0.757,0.11-1.136,0.367
		c-1.969,1.357-4.791,1.883-7.077,1.956C312.217,74.839,310.861,74.778,309.517,74.655L309.517,74.655z M324.907,73.555
		L324.907,73.555c0.048-1.039,0.061-2.078,0.292-3.092c0.451-1.869,1.26-3.642,2.457-5.159c1.149-1.442,2.58-2.603,4.168-3.532
		c1.21-0.697,3.143-1.015,4.376-1.858c2.311,1.382,4.411,3.116,6.554,4.768c-0.809,0.159-1.604,0.378-2.397,0.611
		c-2.21,0.685-4.34,1.749-6.234,3.092c-2.149,1.528-4.695,4.121-5.635,6.956c-0.245-0.158-0.488-0.329-0.733-0.489
		C326.838,74.264,325.896,73.837,324.907,73.555L324.907,73.555z M228.742,49.731L228.742,49.731
		c2.615,2.97,4.742,6.162,6.941,9.425c1.127,1.687,2.043,3.471,2.776,5.366c0.415,1.088,1.014,1.981,1.354,3.117
		c0.333,1.088,0.539,2.201,0.735,3.313c0.231,1.271,1.332,1.564,2.272,1.21c0.477,0.672,1.015,1.308,1.493,1.918
		c0.892,1.15,1.723,2.323,2.505,3.558c1.662,2.628,2.982,5.5,3.582,8.557c0.549,2.787-0.074,5.647-1.064,8.263
		c-0.502,1.308-1.271,2.542-2.029,3.704c-0.501,0.77-1.014,1.479-1.344,2.237c-0.636,0.305-1.088,0.99-0.794,1.761
		c2.077,5.548,2.505,11.379,2.358,17.271c-0.024,0.673-0.05,1.344-0.109,2.03c-0.074,0.831-0.062,0.732-0.245,1.711
		c-0.134,0.721-0.342,1.442-0.55,2.139c-0.111,0.342-0.233,0.685-0.354,1.027c-0.037,0.097-0.062,0.171-0.086,0.219
		c-0.025,0.049-0.048,0.123-0.097,0.208c-1.334,2.983-2.617,4.585-4.707,6.65c-0.255,0.244-0.5,0.477-0.771,0.709
		c-1.517-3.362-3.153-6.674-5.049-9.828c1.748-7.212,1.419-14.913,1.102-22.272c-0.332-7.517-1.308-15.023-2.752-22.395
		c-1.467-7.407-3.936-14.545-6.404-21.66c-1.197-3.472-2.433-6.931-3.606-10.415c-0.428-1.247-0.856-2.493-1.281-3.741
		C224.829,45.624,226.884,47.616,228.742,49.731L228.742,49.731z M216.945,144.918L216.945,144.918
		c-4.192,1.001-8.886,1.221-12.822,3.08c-0.159,0.073-0.306,0.171-0.439,0.269c-3.154,0.391-6.455,0.525-9.671,0.586
		c-3.849,0.074-7.713-0.133-11.563-0.476c-1.748-0.16-3.496-0.354-5.23-0.587c-0.368-0.049-0.722-0.098-1.077-0.134
		c0.929,0.123-0.184-0.037-0.318-0.049c-0.782-0.11-1.577-0.245-2.359-0.391c-2.958-0.514-5.867-1.222-8.728-2.103
		c-1.406-0.44-2.787-0.93-4.156-1.467c-0.025-0.012-0.501-0.208-0.636-0.269c-0.269-0.11-0.538-0.232-0.807-0.354
		c-0.783-0.354-1.553-0.697-2.322-1.063c-1.309-0.611-2.568-1.296-3.802-2.042c-1.345-0.818-2.372-1.552-3.313-2.323
		c-0.44-0.366-0.867-0.745-1.271-1.125c0.515-0.721,1.028-1.454,1.552-2.188c0.625,0.184,1.456-0.257,1.529-1.076
		c0.049-0.391,0.061-0.782,0.061-1.173c4.144-5.795,8.483-11.588,13.508-16.601c0.416,0.049,0.831-0.109,1.051-0.599
		c0.098-0.22,0.171-0.44,0.244-0.672c2.482-2.347,5.123-4.51,7.983-6.381c6.063-3.986,13.03-6.258,20.315-6.001
		c7.481,0.257,14.461,2.823,20.83,6.662c5.158,3.104,9.73,7.199,13.482,11.893c3.778,4.755,6.552,10.269,9.241,15.708
		c-1.087,0.783-2.224,1.491-3.373,2.152c-1.296,0.746-2.616,1.418-3.962,2.042c-1.601,0.757-2.041,0.917-3.861,1.613
		C223.742,143.084,220.355,144.086,216.945,144.918L216.945,144.918z M219.624,41.553L219.624,41.553
		c0.061,0.208,0.108,0.416,0.17,0.624c0.514,1.845,1.063,3.679,1.649,5.513c1.101,3.496,2.348,6.955,3.521,10.439
		c2.371,6.968,4.597,14.033,5.832,21.293c1.22,7.298,1.905,14.681,2.433,22.064c0.451,6.405,0.659,12.909,0.108,19.327
		c-1.295-1.896-2.7-3.717-4.24-5.441c-3.216-3.617-7.09-6.832-11.295-9.411c0.085-1.32-0.147-2.653-0.16-3.986
		c-0.023-1.601-0.085-3.202-0.195-4.803c-0.183-2.983-0.464-6.063-1.637-8.851c-0.184-0.415-0.917-0.427-0.881,0.123
		c0.22,2.909,0.538,5.806,0.622,8.728c0.038,1.454,0.024,2.896-0.012,4.339c-0.011,1.002-0.158,1.992-0.256,2.995
		c-1.32-0.71-2.666-1.369-4.021-1.943c-6.637-2.813-14.155-4.121-21.319-3.057c-7.016,1.026-13.348,3.753-19.043,7.982
		c-1.455,1.076-2.836,2.225-4.169,3.423c0-0.465-0.012-0.916-0.024-1.357c-0.049-1.919-0.245-3.814-0.282-5.733
		c-0.049-2.005,0.208-4.009,0.44-6.001c0.123-1.04,0.281-2.078,0.293-3.13c0.025-1.222-0.159-2.408-0.195-3.63
		c-0.037-0.843-1.271-0.843-1.32,0c-0.11,1.967-0.746,3.96-1.052,5.928c-0.293,1.968-0.599,3.948-0.697,5.94
		c-0.085,1.882,0.098,3.777,0.171,5.648c0.074,1.699-0.196,3.398-0.184,5.072c-4.681,4.767-8.654,10.183-12.408,15.745
		c-0.048-0.708-0.11-1.418-0.134-2.126c-0.086-1.943-0.11-3.899-0.086-5.855c0.038-3.851,0.22-7.688,0.477-11.526
		c0.514-7.702,1.492-15.366,2.849-22.97c1.357-7.529,3.24-14.925,5.281-22.295c1.016-3.68,2.139-7.322,3.326-10.94
		c0.866-2.677,1.613-5.391,2.432-8.08c2.053-1.529,4.218-2.91,6.466-4.181c-0.048,0.097-0.097,0.182-0.133,0.269
		c-1.113,2.139-1.577,4.572-2.14,6.894c-1.209,4.975-0.917,10.219-2.408,15.108c-0.317,1.002,1.223,1.406,1.553,0.428
		c1.577-4.694,1.76-9.682,3.202-14.388c0.746-2.384,1.357-4.779,2.518-7.004c0.466-0.916,0.978-1.784,1.516-2.652
		c0.22-0.354,0.464-0.709,0.685-1.089c1.051-0.476,2.115-0.928,3.203-1.356c-0.135,1.198,0.037,2.506,0.171,3.544
		c0.317,2.507,1.063,4.877,2.09,7.176c1.809,4.083,5.392,8.349,10.33,7.702c4.535-0.6,8.02-4.597,10.073-8.398
		c1.308-2.42,1.883-5.073,2.225-7.787c0.182-1.503,0.294-3.019,0.354-4.534c0.428,0.098,0.855,0.195,1.282,0.305
		c0.049,0.11,0.087,0.208,0.123,0.318c0.44,1.259,0.929,2.493,1.404,3.74c0.955,2.482,1.86,4.976,2.531,7.555
		c0.649,2.457,1.26,4.914,1.687,7.432c0.404,2.298,0.355,4.779,1.235,6.968c0.33,0.806,1.612,0.514,1.332-0.367
		c-0.672-2.139-0.342-4.414-0.721-6.613c-0.452-2.665-1.149-5.281-1.639-7.946c-0.464-2.628-1.431-5.123-2.357-7.603
		c-0.355-0.918-0.697-1.822-1.028-2.738c0.979,0.305,1.944,0.66,2.91,1.05C214.721,38.497,217.251,39.903,219.624,41.553
		L219.624,41.553z M202.069,34.745L202.069,34.745c-0.013,1.002,0.012,2.005-0.036,2.995c-0.135,2.53-0.453,5.121-1.382,7.493
		c-1.319,3.362-4.119,7.016-7.688,8.093c-4.145,1.234-6.979-3.057-8.484-6.235c-0.917-1.956-1.515-4.095-1.882-6.234
		c-0.22-1.333-0.012-2.738-0.135-4.083c3.204-1.076,6.503-1.834,9.828-2.176C195.579,34.244,198.855,34.305,202.069,34.745
		L202.069,34.745z M139.447,81.317L139.447,81.317c0.746-2.493,2.25-4.511,3.985-6.405c0.941-1.026,1.906-2.102,3.055-2.897
		c0.428-0.282,0.906-0.526,1.37-0.758c0.146-0.073,0.354-0.22,0.476-0.342c0.123-0.123,0.208-0.281,0.257-0.453
		c-0.086,0.208-0.086,0.208,0.012-0.012c0.025-0.086,0.036-0.184,0.049-0.269c0.024-0.049,0.049-0.097,0.061-0.159
		c2.065-6.333,4.694-12.346,9.168-17.383c1.894-2.139,3.96-4.07,6.148-5.818c-0.94,1.907-1.846,3.838-2.615,5.83
		c-1.443,3.729-2.75,7.494-3.961,11.295c-2.359,7.445-4.095,15.121-5.513,22.785c-1.405,7.652-2.358,15.39-2.872,23.152
		c-0.257,3.838-0.391,7.676-0.439,11.526c-0.025,1.956,0.011,3.912,0.098,5.855c0.072,1.858,0.049,3.802,0.427,5.635
		c-0.575,0.868-1.137,1.724-1.711,2.591c-1.161-1.247-2.152-2.591-2.97-4.156c-1.161-2.2-1.943-4.645-2.481-7.09
		c0.073-0.953,0.195-1.906,0.232-2.786c0.073-1.724,0.293-3.436,0.391-5.159c0.11-2.017,0.269-3.998,0.562-6.002
		c0.307-2.09,0.953-4.058,1.418-6.112c0.281-1.259-0.624-2.334-1.663-2.665c-0.22-0.404-0.526-0.771-0.844-1.173
		c-0.636-0.807-1.186-1.663-1.662-2.567c-0.881-1.639-1.345-3.484-1.663-5.305C138.114,88.822,138.396,84.863,139.447,81.317
		L139.447,81.317z M66.887,74.778L66.887,74.778c-0.6-2.042-1.639-3.936-2.874-5.647c-1.552-2.127-3.764-4.511-6.271-5.978
		c2.665-1.026,5.244-2.286,7.774-3.606c0.099-0.062,0.196-0.098,0.293-0.147c0.954,0.563,1.957,1.101,2.775,1.857
		c1.491,1.406,2.444,3.387,2.628,5.428c0.11,1.309-0.097,2.714-0.367,3.985c-0.012,0.109-0.036,0.22-0.061,0.317
		c-1.565,1.015-2.469,2.58-3.497,4.144c-0.072,0.11-0.134,0.22-0.208,0.33C67.009,75.217,66.948,74.985,66.887,74.778L66.887,74.778
		z M75.994,55.696L75.994,55.696c6.588-1.932,13.874-1.54,19.863,1.259c1.344,0.623,2.64,1.369,3.863,2.2
		c0.159,0.111,0.929,0.807,1.295,1.148c0.269,0.258,0.513,0.515,0.758,0.783c0.085,0.073,0.708,0.831,0.672,0.758
		c0.403,0.537,0.746,1.1,1.063,1.687c0.024,0.036,0.281,0.586,0.318,0.635c0.085,0.244,0.171,0.502,0.256,0.746
		c0.111,0.342,0.185,0.697,0.257,1.039c0.012,0.061,0.098,0.6,0.123,0.697c0.024,0.282,0.036,0.55,0.036,0.831
		c0,0.135-0.073,1.149-0.049,1.088c-0.11,0.636-0.293,1.259-0.501,1.871c-0.012,0.061-0.037,0.098-0.048,0.146
		c-0.025,0.049-0.061,0.123-0.11,0.22c-0.159,0.33-0.342,0.648-0.525,0.954c-0.184,0.318-0.392,0.624-0.587,0.929
		c-0.037,0.062-0.392,0.539-0.428,0.6c-0.488,0.587-1.014,1.149-1.577,1.675c-0.269,0.269-0.55,0.513-0.843,0.758
		c-0.037,0.035-0.416,0.341-0.55,0.439c-0.55,0.404-1.112,0.783-1.688,1.149c-0.647,0.404-1.307,0.771-1.979,1.112
		c-0.33,0.184-0.66,0.343-1.002,0.502c-0.208,0.097-0.403,0.182-0.611,0.28c-0.024,0.013-0.049,0.013-0.06,0.025
		c-0.807,0.317-1.626,0.599-2.458,0.843c-0.465,0.135-0.941,0.245-1.406,0.343c-0.17,0.036-1.417,0.269-1.283,0.256
		c-1.014,0.135-2.054,0.184-3.081,0.171c-0.439,0-0.879-0.025-1.32-0.049c-0.281-0.024-0.563-0.049-0.843-0.073
		c-0.061-0.012-0.135-0.024-0.22-0.037c-2.029-0.329-4.021-0.832-5.953-1.503c-1.564-0.538-3.105-1.271-4.706-1.688
		c0.917-1.515,1.735-3.018,1.87-4.877c0.037-0.611-0.184-1.112-0.55-1.479c0.379-1.137,0.684-2.31,0.807-3.459
		c0.306-2.909-0.709-5.818-2.531-8.055c-0.587-0.721-1.333-1.492-2.176-2.176c0.111-0.049,0.221-0.098,0.332-0.134
		C72.24,56.613,74.135,56.247,75.994,55.696L75.994,55.696z M46.448,71.893L46.448,71.893c2.775-2.457,5.66-4.767,8.63-6.979
		c0.783,0.611,1.588,1.186,2.347,1.833c1.394,1.187,2.641,2.568,3.667,4.096c1.015,1.504,1.748,3.166,2.31,4.901
		c0.391,1.21,0.415,2.848,1.088,3.985c-0.11,0.208-0.232,0.416-0.342,0.625c-1.919,3.496-3.509,7.211-4.266,11.135
		c-0.831,4.353-0.795,8.923,0.501,13.116c-1.883-0.379-3.776-0.684-5.684-0.917c-5.782-0.696-11.698-0.342-17.394,0.832
		c-7.017,1.455-13.58,4.474-18.739,9.094c2.53-8.837,6.736-17.31,12.114-24.729C35.214,82.637,40.691,77.014,46.448,71.893
		L46.448,71.893z M190.775,290.136L190.775,290.136c1.501,0.184,3.067,0.05,4.56,0.05c2.065,0,4.119-0.111,6.185-0.136
		c2.517-0.024,5.171,0.354,7.444,1.491c1.98,0.992,3.983,3.165,3.642,5.563c-0.379,2.653-2.944,4.363-5.134,5.479
		c-4.974,2.526-11.428,1.783-16.208-0.833c-2.225-1.21-4.938-3.473-4.853-6.248c0.036-1.172,1.088-2.347,1.833-3.153
		C189.039,291.505,189.869,290.795,190.775,290.136L190.775,290.136z M216.579,293.594L216.579,293.594
		c4.242,1.126,8.617,0.796,12.933,0.014c5.073-0.892,10.182-2.175,15.035-3.875c4.719-1.662,9.265-3.851,13.69-6.161
		c0.061-0.024,0.11-0.061,0.172-0.098c-0.575,0.869-1.149,1.736-1.699,2.628c-0.552,0.917-1.125,1.833-1.649,2.775
		c-0.05,0.085-0.088,0.172-0.136,0.268c-1.124,0.674-2.273,1.334-3.386,1.981c-3.704,2.139-7.603,3.803-11.686,5.049
		c-4.059,1.234-8.251,2.017-12.481,2.347c-2.274,0.171-4.561,0.121-6.834,0.197c-1.233,0.034-2.456,0.12-3.69,0.168
		c-0.023,0-0.048,0-0.062,0C217.373,297.129,217.203,295.293,216.579,293.594L216.579,293.594z M183.513,299.033L183.513,299.033
		c-0.085-0.012-0.159-0.023-0.244-0.036c-1.895-0.366-3.814-0.609-5.721-0.928c-3.728-0.636-7.408-1.54-11.013-2.715
		c-3.644-1.174-7.042-2.76-10.439-4.509c-0.794-0.405-1.552-0.856-2.298-1.334c-0.44-1.111-1.076-2.102-1.821-3.056
		c2.42,1.076,4.914,2.03,7.419,2.872c4.437,1.479,9.046,2.458,13.654,3.119c2.297,0.33,4.62,0.635,6.943,0.685
		c1.076,0.022,2.213,0.072,3.35,0.061C182.425,295.148,182.67,297.189,183.513,299.033L183.513,299.033z M131.794,362.83
		L131.794,362.83c-1.173,0.05-2.347,0.013-3.508,0.024c-5.257,0.062-10.855,1.076-15.683-0.745c0.22,0.073,0.134,0.025-0.257-0.146
		c-0.366-0.184-0.708-0.403-1.051-0.611c-0.172-0.109-0.269-0.171-0.318-0.196c-0.024-0.024-0.086-0.085-0.208-0.207
		c0,0,0,0,0-0.012c0.245,0.244,0.11,0.012,0.013-0.073c0-0.014,0-0.025,0.013-0.037c0.024-0.038,0.048-0.087,0.085-0.171
		c0.012-0.013,0.44-0.588,0.355-0.501c0.807-0.954,1.479-1.406,2.494-2.028c0.512-0.333,1.075-0.613,1.625-0.87
		c-0.391,0.196,0.697-0.22,0.697-0.22c0.404-0.121,0.807-0.195,1.223-0.268c2.713-0.503,5.953,0.648,8.532,1.552
		c1.81,0.635,3.618,1.479,5.488,1.93c0.525,0.895,1.112,1.738,1.76,2.496C132.638,362.782,132.21,362.807,131.794,362.83
		L131.794,362.83z M150.778,334.546L150.778,334.546c-4.009,4.386-7.334,9.411-10.438,14.46c-1.259,2.04-2.421,4.266-3.301,6.538
		c-0.562-1.136-1.137-2.249-1.601-3.361c-1.43-3.422-2.567-6.941-3.361-10.56c-1.357-6.162-1.846-13.177-0.771-19.24
		c0.855-4.878,2.641-8.825,5.231-12.58c1.932,0.43,3.753,1.198,5.575,2.115c2.603,1.31,5.194,2.801,7.627,4.401
		c2.531,1.664,4.743,3.753,6.661,6.087c0.905,1.112,1.7,2.322,2.421,3.557c0.171,0.28,0.33,0.577,0.476,0.868
		C156.193,329.094,153.333,331.733,150.778,334.546L150.778,334.546z M162.306,324.826L162.306,324.826
		c-0.061-0.098-0.123-0.194-0.184-0.293c-0.868-1.503-1.907-2.898-3.007-4.24c-2.164-2.679-4.84-4.928-7.726-6.798
		c-2.677-1.724-5.623-3.299-8.532-4.598c-1.394-0.622-2.897-1.231-4.449-1.599c0.342-0.43,0.685-0.845,1.039-1.26
		c2.09-2.47,4.339-4.743,6.711-6.932c0.721-0.671,1.295-1.147,1.956-1.625c0.954,0.636,1.883,1.309,2.8,1.991
		c2.615,1.933,5.194,3.913,7.737,5.941c2.703,2.163,5.367,4.388,7.812,6.832c1.992,1.994,3.802,4.145,5.378,6.468
		c0.343,0.502,0.648,1.002,0.953,1.518c-2.639,0.758-5.231,1.758-7.761,3.055C164.103,323.764,163.199,324.276,162.306,324.826
		L162.306,324.826z M209.966,319.326L209.966,319.326c-4.131-0.502-8.336-0.636-12.493-0.856c-4.315-0.244-8.629-0.341-12.945-0.109
		c-2.689,0.136-5.318,0.441-7.885,0.941c-0.501-0.844-1.039-1.663-1.601-2.457c-1.785-2.556-3.887-4.877-6.124-7.042
		c-2.812-2.712-5.929-5.097-9.045-7.444c-2.959-2.236-5.966-4.412-9.107-6.38c-0.025-0.012-0.062-0.036-0.098-0.061
		c0.832-0.391,1.552-0.673,2.456-1.603c0.257-0.268,0.453-0.574,0.576-0.893c0.084,0.063,0.171,0.11,0.268,0.171
		c3.326,2.078,7.065,3.596,10.757,4.891c3.717,1.308,7.554,2.263,11.43,2.982c2.041,0.379,4.107,0.637,6.148,1.026
		c1.272,0.244,2.885,0.733,4.339,0.674c4.047,3.605,10.146,4.864,15.367,4.742c4.327-0.098,9.068-1.698,12.15-4.865
		c1.81,0.552,4.082,0.123,5.854,0.024c2.457-0.11,4.901-0.049,7.359-0.221c4.607-0.341,9.193-1.197,13.63-2.529
		c4.426-1.321,8.703-3.179,12.688-5.488c0.318-0.185,0.624-0.367,0.93-0.562c0.463,0.377,1.125,0.499,1.797,0.194
		c0.673,0.843,1.551,1.406,2.409,2.055c0.134,0.097,0.293,0.23,0.438,0.353c-0.561,0.135-1.124,0.293-1.675,0.451
		c-4.254,1.285-8.348,3.242-12.063,5.676c-4.399,2.882-8.423,6.367-12.053,10.182c-1.81,1.893-3.497,3.898-5.013,6.024
		c-0.794,1.102-1.748,2.37-2.372,3.74C220.883,321.136,215.479,319.999,209.966,319.326L209.966,319.326z M252.027,339.324
		L252.027,339.324c-3.253-3.215-6.894-6.186-10.77-8.777c1.443-1.724,3.021-3.349,4.609-4.828c2.555-2.36,5.537-4.374,8.678-5.88
		c3.144-1.513,6.639-2.322,10.121-2.493c1.846-0.084,3.682,0.086,5.514,0.244c0.232,0.024,0.476,0.061,0.709,0.097
		c0.563,2.546,0.881,5.125,0.93,7.653c0.109,5.991-1.406,12.101-3.886,17.641c-1.481,3.3-3.278,6.44-5.186,9.509
		c-0.561,0.892-1.11,1.797-1.637,2.702c-0.039-0.344-0.085-0.697-0.147-1.064c-0.354-1.968-1.162-3.897-2.065-5.66
		C257.161,345.083,254.716,341.99,252.027,339.324L252.027,339.324z M276.45,354.714L276.45,354.714
		c1.821-0.452,4.377-0.44,6.161-0.085c1.247,0.244,2.299,0.587,3.129,1.003c0.99,0.5,1.651,0.914,2.225,1.674
		c0.074,0.097,0.135,0.194,0.195,0.306c-0.011,0.036-0.024,0.071-0.024,0.1c-0.122,0.121-0.243,0.242-0.377,0.364
		c-0.051,0.024-0.1,0.063-0.16,0.111c-0.281,0.183-0.573,0.353-0.868,0.511c-0.695,0.393-0.341,0.211-1.099,0.503
		c-0.515,0.196-1.052,0.354-1.602,0.489c-1.457,0.392-2.97,0.499-4.474,0.587c-3.546,0.184-7.067-0.088-10.611,0.17
		c-1.175,0.087-2.347,0.172-3.52,0.245c0.062-0.062,0.109-0.122,0.158-0.185c0.415-0.513,0.845-1.026,1.261-1.538
		c0.671-0.367,1.343-0.721,2.002-1.102C271.256,356.511,273.773,355.374,276.45,354.714L276.45,354.714z M269.801,313.716
		L269.801,313.716c-1.564-0.172-3.165-0.221-4.719-0.172c-4.057,0.134-7.981,1.16-11.673,2.812
		c-3.618,1.615-6.773,3.999-9.498,6.845c-1.368,1.443-2.615,2.995-3.717,4.646c-0.305,0.476-0.598,0.954-0.867,1.441
		c-2.004-1.247-4.059-2.395-6.148-3.409c-1.039-0.502-2.078-0.979-3.117-1.42c0.488-0.781,0.93-1.601,1.442-2.347
		c1.357-2.004,2.995-3.813,4.656-5.563c3.265-3.422,6.896-6.502,10.819-9.13c3.399-2.273,7.028-4.157,10.77-5.793
		c1.454-0.638,2.994-1.185,4.56-1.541c1.712,2.066,3.179,4.363,4.474,6.711C268.003,309.009,269.007,311.331,269.801,313.716
		L269.801,313.716z M382.284,142.131L382.284,142.131c-0.563,3.997-1.821,8.142-3.275,11.306c-1.566,3.387-3.473,6.613-5.587,9.693
		c-2.04,2.983-4.07,5.453-6.688,8.313c-5.035,5.501-10.925,10.524-16.574,14.645c-6.257,4.583-12.858,8.715-19.923,11.955
		c-3.766,1.723-8.398,3.276-12.849,4.254c-2.48,0.537-4.008,0.745-6.43,0.928c-1.124,0.099-2.249,0.122-3.386,0.148
		c-0.539,0-1.038,0.048-1.539,0.108c1.148-4.707,2.188-9.424,2.676-14.253c0.501-5.024,0.489-10.084,0.942-15.096
		c0.073-0.733-1.005-0.794-1.224-0.159c-1.527,4.303-2.555,8.642-3.495,13.116c-0.918,4.425-2.127,8.704-3.546,12.993
		c-2.762,8.35-5.538,16.723-8.716,24.937c-3.006,7.786-6.931,15.218-11.05,22.456c-4.241,7.431-8.787,14.729-13.458,21.904
		c-1.673,2.556-3.409,5.061-5.171,7.566c-0.085,0.074-0.172,0.148-0.257,0.219c-1.724,1.396-3.704,2.495-5.659,3.521
		c-4.315,2.263-8.789,4.327-13.373,6.015c-4.376,1.613-8.983,2.737-13.556,3.728c-4.658,1.004-9.768,1.749-14.521,0.882
		c-0.063-0.015-0.135-0.015-0.195-0.015c-0.234-0.366-0.49-0.733-0.758-1.062c-1.884-2.36-5.012-3.631-7.873-4.268
		c-2.408-0.525-4.877-0.609-7.334-0.487c-1.737,0.084-3.483,0.452-5.182,0.77c-1.701,0.317-3.485,0.378-5.121,0.916
		c-0.698,0.245-1.027,0.881-0.966,1.479c-0.771,0.427-1.517,0.893-2.201,1.419c-1.638-0.319-3.374-0.319-5.012-0.49
		c-2.139-0.208-4.29-0.415-6.429-0.708c-4.461-0.624-8.862-1.64-13.166-2.983c-4.29-1.332-8.447-3.006-12.419-5.109
		c-1.675-0.892-3.313-1.858-4.89-2.908c-2.163-2.373-4.278-4.768-6.369-7.2c-5.097-5.954-9.705-12.225-14.143-18.69
		c-8.972-13.067-16.661-27.187-22.882-41.77c-0.148-0.342-0.282-0.696-0.429-1.039c0.025-0.158,0.038-0.317,0.038-0.477
		c0-1.234-0.551-2.175-1.382-2.787c-1.247-3.116-2.433-6.258-3.594-9.4c-1.785-4.791-3.851-9.498-5.257-14.424
		c-0.269-0.965-1.698-0.562-1.491,0.416c0.843,3.912,1.467,7.86,2.273,11.771c0.733,3.496,1.772,6.956,2.848,10.366
		c-15.011-2.041-29.8-5.012-42.979-12.957c-11.172-6.723-20.487-16.222-26.819-27.699c-3.104-5.66-5.171-11.332-6.625-17.859
		c-1.394-6.259-1.736-12.762-1.148-19.461c0.256-2.896,0.708-5.782,1.332-8.641c5.524-5.501,13.079-8.936,20.683-10.464
		c5.317-1.076,10.83-1.149,16.208-0.477c2.653,0.33,5.268,0.979,7.848,1.699c0.184,0.331,0.379,0.648,0.587,0.965
		c6.075,9.34,18.054,12.114,28.519,11.992c8.043-0.097,15.768-1.845,23.139-4.986c4.78-2.042,9.388-4.45,14.082-6.662
		c3.508-1.651,7.188-2.959,10.928-3.997c-0.794,3.324-0.869,6.93-0.783,10.219c0.025,0.831,0,1.674-0.011,2.518
		c-0.257,1.883-0.514,3.753-0.635,5.646c-0.22,3.827,0.452,7.201,2.078,10.636c2.689,5.646,7.322,9.938,12.627,13.141
		c5.304,3.215,11.625,4.987,17.675,6.173c3.753,0.734,6.333,1.015,9.84,1.406c3.79,0.428,7.604,0.648,11.429,0.661
		c4.705,0.012,9.375-0.453,13.997-1.37c2.053-0.415,4.071-1.002,6.051-1.686c2.273-0.147,4.511-0.538,6.747-1.003
		c3.619-0.77,7.15-1.87,10.61-3.166c6.136-2.298,12.017-5.317,16.917-9.718c5.036-4.522,8.008-10.548,8.459-17.296
		c0.208-3.117-0.341-6.417-0.843-9.473c-0.44-2.677-1.137-5.343-2.285-7.811c0.243,0.036,0.488,0.084,0.721,0.121
		c2.09,0.366,4.193,0.855,6.248,1.393c3.935,1.028,7.723,2.519,11.403,4.242c7.713,3.606,15.095,8.056,23.017,11.209
		c3.936,1.553,8.081,2.531,12.31,2.774c4.499,0.258,8.849-0.794,12.958-2.542c5.903-2.518,10.817-7.297,14.191-12.773
		c2.042-1.027,4.325-1.577,6.589-1.834c5.842-0.66,11.819,0.49,17.553,1.516c4.828,0.868,9.621,2.176,13.946,4.511
		c1.003,0.538,1.957,1.136,2.898,1.772c1.026,0.697,2.175,1.381,3.117,2.188c0.928,0.782,1.783,1.65,2.652,2.518
		c0.366,0.366,0.758,0.77,1.162,1.149c0.354,1.137,0.684,2.298,0.99,3.447c0.463,1.784,0.964,4.303,1.148,5.684
		c0.256,1.967,0.377,3.935,0.389,5.917C382.639,138.146,382.504,140.615,382.284,142.131L382.284,142.131z"/>
	<path fill="#321A1B" d="M202.985,260.432c-1.969-1.393-5.927-1.82-7.115,0.782c-0.439,0.966,0.086,1.908,1.149,2.005
		c1.346,0.135,2.788-0.732,3.987,0.271c1.111,0.952,0.842,2.663,0.183,3.788c-1.199,2.042-4.266,1.455-6.101,0.819
		c-2.334-0.819-4.449-2.64-4.204-5.269c0.232-2.519,2.834-7.224,5.756-7.126c0.82,0.023,1.039-1.334,0.196-1.455
		c-4.865-0.734-8.423,4.059-9.021,8.472c-0.599,4.497,3.215,7.688,7.127,9.007c4.083,1.382,8.728,0.149,10.17-4.228
		C205.944,264.968,205.199,261.997,202.985,260.432L202.985,260.432z"/>
	<path fill="#321A1B" d="M150.498,218.15c-3.032-1.272-6.821-0.979-10.061-1.187c-4.12-0.244-8.263-0.623-12.322-1.381
		c-7.493-1.382-15.768-4.486-18.177-12.468c-0.207-0.673-1.112-0.38-1.014,0.281c1.308,8.495,9.853,12.37,17.334,14.216
		c4.351,1.088,8.824,1.603,13.287,1.933c3.521,0.268,7.494,0.866,10.953,0C151.267,219.348,151.108,218.395,150.498,218.15
		L150.498,218.15z"/>
	<path fill="#321A1B" d="M279.066,203.91c-1.943,2.627-5.11,4.375-8.044,5.684c-3.702,1.662-7.748,2.542-11.734,3.228
		c-4.046,0.696-8.152,1.025-12.26,1.063c-3.289,0.023-6.638-0.343-9.914-0.109c-0.77,0.061-1.246,1.185-0.426,1.602
		c3.079,1.514,6.967,1.574,10.34,1.587c4.389,0,8.777-0.39,13.091-1.099c7.603-1.247,16.589-3.949,21.025-10.745
		C282.013,203.8,279.97,202.688,279.066,203.91L279.066,203.91z"/>
	<path fill-rule="evenodd" clip-rule="evenodd" fill="#C7564A" d="M192.339,141.898L192.339,141.898
		c-0.293-0.061-0.574-0.012-0.819,0.11c-2.358-0.795-4.755-1.467-7.004-2.555c1.272-0.832,2.47-1.797,3.813-2.543
		c1.907-1.051,3.986-1.503,6.149-1.308c3.213,0.293,6.063,1.748,8.886,3.178C200.199,140.884,196.165,142.754,192.339,141.898
		L192.339,141.898z"/>
	<path fill-rule="evenodd" clip-rule="evenodd" fill="#FFFFFF" d="M204.942,112.414L204.942,112.414
		c-0.893,0.281-1.785,0.648-2.579,0.807c-2.41,0.502-4.853,0.966-7.274,1.394c-2.419,0.416-5.047,0.074-7.493,0.048
		c-0.416-0.011-0.965-0.061-1.565-0.084c2.813-2.017,6.002-3.509,9.46-3.9C198.792,110.324,201.995,111.045,204.942,112.414
		L204.942,112.414z"/>
</g>
</svg>
