<?xml version="1.0" encoding="utf-8"?>
<!-- Generator: Adobe Illustrator 16.0.0, SVG Export Plug-In . SVG Version: 6.00 Build 0)  -->
<!DOCTYPE svg PUBLIC "-//W3C//DTD SVG 1.1//EN" "http://www.w3.org/Graphics/SVG/1.1/DTD/svg11.dtd">
<svg version="1.1" id="Layer_1" xmlns="http://www.w3.org/2000/svg" xmlns:xlink="http://www.w3.org/1999/xlink" x="0px" y="0px"
	 width="400px" height="400px" viewBox="0 0 400 400" enable-background="new 0 0 400 400" xml:space="preserve">
<g>
	<path fill-rule="evenodd" clip-rule="evenodd" fill="#E4D0AA" d="M199.995,392.26c72.919,0,132.371-8.319,132.371-18.521
		c0-10.2-59.452-18.521-132.371-18.521c-72.908,0-132.359,8.321-132.359,18.521C67.636,383.94,127.087,392.26,199.995,392.26
		L199.995,392.26z"/>
	<path fill-rule="evenodd" clip-rule="evenodd" fill="#321A1B" d="M359.027,152.143c-8.58-13.7-19.986-24.989-32.908-34.606
		c-13.791-10.292-29.084-18.729-45.52-23.966c-7.544-2.41-15.5-4.354-23.475-4.704c0.857-1.945,1.298-4.174,1.519-5.833
		c0.534-4.146-0.466-8.502-1.776-12.43c-1.075-3.188-2.516-6.247-4.563-8.93c-1.255-1.647-3.057-3.642-5.144-4.303
		c-0.882-4.199-2.348-8.256-4.211-12.118c-0.909-1.867-1.958-3.654-3.075-5.393c-1.125-1.75-2.487-3.564-3.55-5.197
		c-2.073-3.188-5.003-5.807-7.958-8.14c-3.007-2.397-6.196-4.509-9.604-6.299c-13.259-6.921-29.836-8.826-43.873-3.045
		c-4.744,1.944-8.957,4.718-12.819,8.087c-3.746,3.279-6.688,7.336-9.513,11.419c-2.813,4.044-5.133,8.425-7.077,12.935
		c-1.451,3.383-3.189,7.296-3.279,11.122c-0.078,0.039-0.169,0.09-0.247,0.155c-1.154,0.895-2.424,1.724-3.435,2.787
		c-1.023,1.049-1.854,2.268-2.58,3.525c-1.594,2.748-2.501,5.871-2.941,8.982c-0.881,6.157,0.634,12.948,4.108,18.172
		c-6.545-1.439-13.247,0.325-19.571,2.644c-7.479,2.747-14.633,6.649-21.476,10.732c-14.167,8.438-27.037,19.402-37.795,31.883
		c-21.542,24.99-34.011,58.027-35.644,90.897c-0.803,16.279,1.529,32.546,7.233,47.826c5.962,15.981,13.738,31.418,24.496,44.74
		c2.657,3.293,5.482,6.456,8.567,9.347c0.519,0.828,1.102,1.62,1.828,2.347c1.478,1.502,3.124,2.812,4.795,4.095
		c3.202,2.449,7.22,4.174,11.083,5.249c7.323,2.047,15.125,1.141,21.347-3.423c6.286-4.601,10.032-12.7,6.921-20.322
		c-1.594-3.876-4.42-7.31-8.269-9.11c-4.316-2.022-8.788-1.621-12.91,0.687c-1.128,0.622-2.036,1.555-2.93,2.488
		c-0.635-1.698-1.01-3.563-1.244-5.366c-0.415-3.085-0.635-6.207-0.842-9.318c-0.467-7.582,0.427-15.179,2.191-22.552
		c1.697-7.143,4.251-13.896,7.906-20.259c1.723-3.007,3.59-5.911,5.495-8.814c0.908-1.387,1.828-2.761,2.657-4.2
		c0.596-1.035,1.101-2.123,1.646-3.2c6.455,15.464,16.616,29.097,26.647,42.41c2.178,2.888,4.472,5.688,6.844,8.423
		c0.972,1.114,1.931,2.308,2.968,3.409c-4.329,2.294-7.958,6.078-10.81,9.89c-3.811,5.08-6.285,11.51-7.349,17.745
		c-1.167,6.726-1.024,13.503,0.194,20.206c1.05,5.793,3.344,11.223,6.079,16.409c-1.88-0.781-3.836-1.376-5.793-1.869
		c-5.172-1.295-11.16,0.105-13.623,5.314c-1.05,2.217-1.375,4.887-0.402,7.194c1.206,2.892,3.357,4.613,6.221,5.766
		c3.578,1.441,7.985,1.077,11.68,0.417c2.086-0.362,4.095-1.038,6.051-1.828c2.204-0.882,4.213-1.866,5.172-4.084
		c0.661-0.31,1.179-0.958,1.103-1.696c-0.065-0.687-0.117-1.323-0.247-1.944c0.311-1.076,0.596-2.165,0.946-3.24
		c0.648-1.957,1.556-3.812,2.567-5.6c1.97-3.486,4.484-6.597,7.179-9.538c5.237-5.73,10.861-11.005,17.459-15.141
		c6.481-4.07,13.065-6.635,20.725-7.854c0.985-0.156,3.332-0.349,4.965-0.441c1.918-0.103,3.85-0.154,5.767-0.22
		c3.721-0.117,7.441-0.063,11.146,0.117c1.635,0.09,3.255,0.208,4.873,0.363c0.739,0.063,1.466,0.155,2.204,0.232
		c0.338,0.038,0.688,0.092,1.026,0.13c-0.08-0.013,0.828,0.116,0.867,0.116c3.317,0.491,6.608,1.167,9.849,2.023
		c3.048,0.802,6.042,1.827,8.957,3.02c0.052,0.012,0.119,0.038,0.181,0.078c0.391,0.166,0.792,0.336,1.182,0.518
		c0.775,0.363,1.555,0.738,2.318,1.127c1.543,0.776,3.046,1.633,4.511,2.528c1.362,0.829,2.67,1.736,3.954,2.668
		c0.182,0.145,0.362,0.286,0.544,0.417c-0.298-0.22,0.623,0.492,0.623,0.505c0.685,0.558,1.36,1.127,2.021,1.712
		c2.604,2.318,5.016,4.898,7.258,7.567c1.711,2.035,3.914,5.043,5.068,7.803c0.634,1.53,1.088,3.073,1.4,4.68
		c0.167,0.92,0.309,1.841,0.439,2.747c0.13,0.829,0.491,1.557,0.854,2.281c-0.011,0.791,0.403,1.622,1.051,2.088
		c1.502,1.102,4.005,1.321,5.817,1.581c1.971,0.271,3.903,0.607,5.836,1.048c3.926,0.896,8.358,1.025,12.338,0.493
		c3.836-0.518,7.971-1.644,10.679-4.615c2.566-2.824,3.214-6.933,1.114-10.225c-2.072-3.241-6.026-4.899-9.68-5.443
		c-3.851-0.559-7.738-0.194-11.367,1.206c-0.728,0.272-1.452,0.581-2.179,0.919c1.103-2.384,2.074-4.848,2.878-7.322
		c2.372-7.311,2.487-15.309,1.724-22.889c-0.647-6.598-1.634-13.286-4.213-19.43c-1.646-3.929-4.275-8.529-7.97-11.25
		c1.839-1.97,3.329-4.421,4.743-6.521c2.438-3.627,4.55-7.451,6.792-11.198c4.614-7.672,8.902-15.539,12.882-23.562
		c1.984-3.992,3.812-8.102,5.522-12.249c0.129,0.13,0.258,0.261,0.388,0.389c1.104,1.152,1.738,2.112,2.646,3.539
		c1.931,3.031,3.564,6.299,5.263,9.46c3.603,6.689,6.775,13.506,9.085,20.738c2.464,7.712,3.565,15.488,2.969,23.564
		c-0.233,3.202-0.544,6.413-0.883,9.603c-0.141,1.323-0.413,2.54-0.764,3.746c-0.468,0.531-0.893,1.129-1.284,1.737
		c-0.401-0.286-0.814-0.545-1.243-0.804c-0.221-0.35-0.505-0.648-0.791-0.919c-1.282-1.259-2.786-2.088-4.473-2.657
		c-2.397-0.806-5.17-0.531-7.517,0.285c-4.705,1.618-8.398,5.39-10.655,9.745c-2.318,4.46-3.289,9.618-2.201,14.555
		c1.153,5.264,5.302,9.049,10.368,10.485c7.245,2.063,14.894-0.256,20.88-4.471c3.125-2.215,5.808-5.003,8.19-7.972
		c0.935-1.151,1.763-2.346,2.478-3.628c0.415-0.077,0.815-0.233,1.18-0.492c6.986-5.094,12.353-12.094,17.161-19.222
		c4.535-6.727,8.319-13.959,11.521-21.411c6.313-14.736,10.11-30.304,11.99-46.208C379.96,208.252,374.942,177.561,359.027,152.143
		L359.027,152.143z"/>
	<path fill-rule="evenodd" clip-rule="evenodd" fill="#F9BF9B" d="M200.901,262.807L200.901,262.807L200.901,262.807
		c0.039,0.012,0.079,0.012,0.104,0.024c0.014,0,0.025,0.013,0.039,0.013C201.019,262.831,200.98,262.818,200.901,262.807
		L200.901,262.807z"/>
	<path fill-rule="evenodd" clip-rule="evenodd" fill="#F9BF9B" d="M200.889,262.807L200.889,262.807L200.889,262.807
		c-0.013,0-0.026,0-0.04-0.014C200.862,262.807,200.876,262.807,200.889,262.807L200.889,262.807z"/>
	<path fill-rule="evenodd" clip-rule="evenodd" fill="#F9BF9B" d="M201.952,258.813c-1.971-0.532-4.979,0.544-4.809,2.981
		c0.064,0.896,0.647,1.412,1.516,1.516c0.727,0.076,1.4-0.142,2.048-0.467c-0.285,0.13-0.077,0.052,0.117-0.013
		c-0.052,0.052,0.283,0.064,0.233,0.027c0.014,0,0.014,0,0.026,0.012c0.078,0.039,0.128,0.067,0.155,0.079
		c0.012,0.012,0.025,0.037,0.078,0.063c0.037,0.054,0.271,0.313,0.311,0.352c0.141,0.193,0.26,0.415,0.361,0.622
		c-0.18-0.363,0.208,0.959,0.222,0.764c0.013,0.22,0.013,0.441,0.013,0.662c-0.013,0.026-0.013,0.039-0.013,0.064
		c-0.025,0.155-0.077,0.31-0.116,0.467c-0.064,0.181-0.221,0.4-0.506,0.673c-0.271,0.259-0.855,0.481-1.426,0.611
		c-3.007,0.75-5.432-0.443-6.065-3.463c-0.571-2.721,0.803-6.324,3.317-7.608c1.075-0.545,0.324-2.345-0.816-1.943
		c-4.551,1.581-6.506,6.222-5.871,10.757c0.738,5.263,6.416,7.065,10.99,5.871c4.096-1.062,5.418-5.327,3.812-8.914
		C204.881,260.446,203.507,259.227,201.952,258.813L201.952,258.813z"/>
	<path fill-rule="evenodd" clip-rule="evenodd" fill="#F9BF9B" d="M287.767,205.012c-1.179,0.453-2.034,1.438-2.928,2.309
		c-0.985,0.945-2.075,1.762-3.201,2.525c-2.281,1.53-4.771,2.785-7.312,3.811c-6.636,2.645-13.816,2.152-20.842,2.294
		c-1.113,0.025-1.103,1.672,0,1.712c4.018,0.13,7.972,0.935,12.003,1.023c3.473,0.092,6.921-0.389,10.162-1.646
		c2.876-1.114,5.65-2.502,8.229-4.184c2.072-1.364,5.663-3.671,5.677-6.482C289.556,205.516,288.635,204.687,287.767,205.012
		L287.767,205.012z"/>
	<path fill-rule="evenodd" clip-rule="evenodd" fill="#F9BF9B" d="M150.172,215.187c-2.93,0.271-5.756,1.181-8.71,1.387
		c-3.136,0.219-6.351-0.026-9.449-0.545c-6.117-1.035-12.132-3.409-17.069-7.206c-0.908-0.7-2.127,0.868-1.232,1.582
		c5.094,4.122,11.264,6.713,17.64,8.01c3.331,0.674,6.727,0.92,10.109,0.699c3.046-0.195,6.61-0.608,9.099-2.502
		C151.092,216.21,151.027,215.109,150.172,215.187L150.172,215.187z"/>
	<path fill-rule="evenodd" clip-rule="evenodd" fill="#F9BF9B" d="M367.451,239.579L367.451,239.579
		c-0.013,0.09-0.024,0.155-0.024,0.22c-0.013,0.091-0.039,0.207-0.066,0.39c-0.051,0.453-0.116,0.894-0.181,1.349
		c-0.143,0.896-0.285,1.788-0.429,2.669c-0.311,1.944-0.674,3.888-1.062,5.807c-0.739,3.746-1.62,7.453-2.606,11.133
		c-0.284,1.052-0.569,2.114-0.88,3.163c-1.491-1.114-3.073-2.085-4.719-2.956c-4.017-2.149-8.41-3.706-12.87-4.665
		c-4.432-0.945-9.034-1.361-13.558-0.919c-3.122,0.297-5.938,1.179-8.478,2.747c-1.62-3.863-3.473-7.635-5.352-11.342
		c-1.697-3.355-3.409-6.728-5.443-9.89c-1.581-2.45-3.783-5.678-6.584-7.179c0.711-1.88,1.398-3.76,2.074-5.64
		c3.07-8.502,5.56-17.2,7.53-26.012c1.088-4.938,1.971-9.89,2.605-14.893c0.661-5.093,0.57-10.2,0.595-15.319
		c0-0.843-1.374-1.076-1.518-0.195c-0.698,4.317-1.774,8.619-2.839,12.858c-1.086,4.328-1.979,8.697-3.136,13.013
		c-2.333,8.735-5.327,17.277-8.644,25.688c-6.557,16.604-14.944,32.648-24.109,47.957c-2.345,3.9-4.652,7.829-7.075,11.664
		c-0.195,0.298-0.388,0.596-0.583,0.909c-0.156,0.09-0.298,0.18-0.454,0.271c-2.217,1.283-4.472,2.502-6.896,3.357
		c-2.607,0.92-5.365,1.517-8.009,2.281c-2.917,0.856-5.819,1.71-8.748,2.488c-5.549,1.479-11.097,2.644-16.839,2.969
		c-4.925,0.283-9.837,0.077-14.71,0.751c-0.532-0.829-1.206-1.568-1.997-2.19c-4.757-3.681-11.521-3.9-17.069-2.072
		c-1.179,0.388-2.332,0.867-3.395,1.45c-0.972,0.064-1.958,0.441-2.749,0.868c-0.44,0.22-0.83,0.518-1.18,0.844
		c-1.879-0.145-3.758-0.532-5.599-0.818c-2.54-0.388-5.119-0.505-7.672-0.712c-5.223-0.44-10.356-1.285-15.553-1.918
		c-4.874-0.596-9.683-1.387-14.323-3.073c-2.138-0.777-4.225-1.671-6.338-2.515c-2.28-2.799-4.406-5.702-6.558-8.594
		c-5.353-7.219-10.745-14.424-15.566-22.007c-9.734-15.269-16.033-32.572-21.477-49.756c-0.946-2.995-1.75-6.028-2.708-9.009
		c-0.947-2.942-1.919-5.884-2.515-8.905c-0.168-0.803-1.555-0.635-1.451,0.194c0.582,4.459,0.79,8.93,1.581,13.364
		c0.802,4.588,1.828,9.111,2.98,13.611c2.307,8.927,5.159,17.704,8.4,26.335c0.129,0.363,0.271,0.725,0.414,1.088
		c-1.049,1.387-2.359,2.671-3.486,3.995c-1.179,1.371-2.242,2.823-3.344,4.263c-2.229,2.876-4.433,5.793-6.428,8.839
		c-3.461,5.289-6.028,11.043-8.023,17.018c-4.317-1.335-8.905-2.112-13.325-2.697c-4.575-0.594-9.215-0.984-13.804-0.438
		c-3.849,0.438-7.802,1.386-11.418,2.772c-1.801,0.686-3.551,1.529-5.119,2.655c-0.013,0.014-0.013,0.014-0.013,0.014
		c-1.024-2.851-1.945-5.742-2.748-8.645c-2.113-7.687-3.214-15.189-3.629-23.071c-0.83-16.266,1.581-32.272,6.325-47.813
		c4.692-15.346,11.781-29.966,21.282-42.965c9.461-12.962,21.281-24.303,34.412-33.543c6.479-4.576,13.284-8.632,20.284-12.352
		c6.986-3.708,13.984-6.74,21.904-7.648c0.7-0.078,1.412-0.117,2.125-0.117c-0.232,1.97-0.48,3.927-0.662,5.897
		c-0.388,4.484-0.363,8.904,0.441,13.337c1.361,7.57,5.807,13.764,11.821,18.366c5.391,4.146,12.041,6.558,18.573,8.191
		c4.187,1.049,8.476,1.607,12.753,2.177c2.282,0.311,4.938,0.907,7.466,0.907c1.607,0.22,3.214,0.402,4.834,0.544
		c4.588,0.441,9.099,0.312,13.674-0.194c7.35-0.829,14.725-1.75,21.879-3.667c7.167-1.932,13.921-5.016,19.662-9.734
		c6.273-5.146,11.314-12.611,11.626-20.907c0.155-3.914-0.815-7.841-1.867-11.6c-0.558-1.983-1.152-3.953-1.67-5.949
		c-0.247-0.947-0.454-1.893-0.676-2.838c7.245,1.541,14.464,3.135,21.49,5.547c7.958,2.721,15.566,6.324,22.954,10.355
		c14.398,7.868,28.216,17.899,39.506,29.836c2.41,2.567,5.198,5.832,7.024,8.217c2.256,2.943,4.354,6.014,6.299,9.177
		c3.848,6.221,6.947,12.688,9.279,18.986c2.528,6.78,4.383,13.805,5.69,20.908c0.311,1.711,0.584,3.435,0.829,5.159
		c0.014,0.078,0.014,0.143,0.026,0.193c0.012,0.079,0.025,0.209,0.041,0.377c0.064,0.44,0.114,0.867,0.165,1.309
		c0.118,1.012,0.222,2.021,0.326,3.045c0.338,3.644,0.532,7.311,0.596,10.98C368.867,224.751,368.399,232.205,367.451,239.579
		L367.451,239.579z"/>
	<path fill-rule="evenodd" clip-rule="evenodd" fill="#FFFFFF" d="M257.502,104.382c-0.207-0.791-0.428-1.582-0.635-2.359
		c-0.558-1.983-1.152-3.953-1.67-5.949c-0.247-0.947-0.454-1.893-0.676-2.838c7.245,1.541,14.464,3.135,21.49,5.547
		c7.958,2.721,15.566,6.324,22.954,10.355c14.398,7.868,28.216,17.899,39.506,29.836c2.41,2.567,5.198,5.832,7.024,8.217
		c2.256,2.943,4.354,6.014,6.299,9.177c3.848,6.221,6.947,12.688,9.279,18.986c0.247,0.675,0.494,1.336,0.727,2.01
		C334.66,119.209,257.502,104.382,257.502,104.382L257.502,104.382z"/>
	<path fill-rule="evenodd" clip-rule="evenodd" fill="#C7564A" d="M88.36,184.442c0.544,4.329,0.752,8.658,1.517,12.961
		c0.802,4.588,1.828,9.111,2.98,13.611c2.307,8.927,5.159,17.704,8.4,26.335c0.129,0.363,0.271,0.725,0.414,1.088
		c-1.049,1.387-2.359,2.671-3.486,3.995c-1.179,1.371-2.242,2.823-3.344,4.263c-2.229,2.876-4.433,5.793-6.428,8.839
		c-3.461,5.289-6.028,11.043-8.023,17.018c-4.317-1.335-8.905-2.112-13.325-2.697c-0.803-0.103-1.594-0.191-2.384-0.284
		C66.534,229.379,84.874,191.337,88.36,184.442L88.36,184.442z M88.93,183.328L88.93,183.328L88.93,183.328z"/>
	<path fill-rule="evenodd" clip-rule="evenodd" fill="#C7564A" d="M335.348,255.599c-1.428-0.026-2.865,0.024-4.291,0.17
		c-3.122,0.297-5.938,1.179-8.478,2.747c-1.62-3.863-3.473-7.635-5.352-11.342c-1.697-3.355-3.409-6.728-5.443-9.89
		c-1.581-2.45-3.783-5.678-6.584-7.179c0.711-1.88,1.398-3.76,2.074-5.64c3.07-8.502,5.56-17.2,7.53-26.012
		c1.088-4.938,1.971-9.89,2.605-14.893c0.661-5.093,0.57-10.2,0.595-15.319c0-0.026-0.012-0.065-0.012-0.104l0,0
		C328.322,188.278,334.167,226.035,335.348,255.599L335.348,255.599z M314.648,176.873c-0.325,1.348-0.661,2.696-1,4.032
		c-1.086,4.328-1.979,8.697-3.136,13.013c-2.333,8.735-5.327,17.277-8.644,25.688c-6.557,16.604-14.944,32.648-24.109,47.957
		c-2.345,3.9-4.652,7.829-7.075,11.664c-0.195,0.298-0.388,0.596-0.583,0.909c-0.156,0.09-0.298,0.18-0.454,0.271
		c-2.217,1.283-4.472,2.502-6.896,3.357c-2.607,0.92-5.365,1.517-8.009,2.281c-2.917,0.856-5.819,1.71-8.748,2.488
		c-5.549,1.479-11.097,2.644-16.839,2.969c-4.925,0.283-9.837,0.077-14.71,0.751C273.226,266.874,304.875,200.708,314.648,176.873
		L314.648,176.873z"/>
	<path fill-rule="evenodd" clip-rule="evenodd" fill="#4C62AB" d="M343.111,304.152L343.111,304.152
		c-1.957,2.722-4.213,5.402-6.521,8.111c-1.553-0.298-3.084-0.71-4.601-1.256c-2.553-0.907-5.442-2.307-6.985-4.666
		c0.712-3.228,1.271-6.519,1.931-9.772c0.907-4.367,1.544-8.853,1.362-13.324c-0.183-4.33-0.728-8.58-1.714-12.792
		c-0.776-3.293-1.852-6.52-3.082-9.684c2.655-0.831,5.609-1.167,8.293-1.334c4.084-0.261,8.18,0.272,12.146,1.22
		c3.978,0.944,7.854,2.331,11.47,4.238c1.672,0.879,3.267,1.89,4.771,3.019c0.246,0.182,0.492,0.389,0.725,0.61
		c-1.658,5.08-3.563,10.03-5.65,14.579C351.886,290.49,347.841,297.554,343.111,304.152L343.111,304.152z M204.519,315.622
		L204.519,315.622c-7.752-0.182-15.723,0.115-23.305,1.892c-1.166,0.286-2.319,0.597-3.473,0.959
		c-0.688-0.608-1.414-1.206-2.035-1.866c-1.283-1.36-2.502-2.774-3.875-4.042c-3.124-2.879-7.076-5.057-10.875-6.922
		c-3.421-1.686-6.649-3.747-10.097-5.394c-1.296-0.62-2.618-1.138-4.005-1.478c0.298-0.141,0.557-0.323,0.791-0.557
		c0.311,0.116,0.622,0.233,0.946,0.35c4.588,1.697,9.526,2.646,14.295,3.76c5.327,1.27,10.654,2.503,16.084,3.251
		c2.813,0.391,5.665,0.651,8.503,0.96c1.491,0.156,2.981,0.3,4.485,0.391c0.44,0.038,0.907,0.076,1.386,0.102
		c5.056,2.451,11.133,2.685,16.112-0.166c0.375-0.222,0.738-0.454,1.101-0.7c1.788,0.258,3.759,0.037,5.406-0.092
		c2.798-0.232,5.599-0.466,8.385-0.753c5.677-0.594,11.328-1.567,16.939-2.591c0.596-0.103,1.192-0.207,1.788-0.313
		c-3.5,2.398-6.815,5.107-9.85,8.063c-1.828,1.774-3.551,3.629-5.041,5.69c-0.441,0.609-0.934,1.333-1.336,2.125
		C219.527,316.581,211.959,315.805,204.519,315.622L204.519,315.622z M142.965,344.837L142.965,344.837
		c-2.424,3.252-4.562,6.713-6.221,10.42c-0.804,1.787-1.49,3.629-2.021,5.509c-0.713-1.362-1.413-2.735-2.087-4.123
		c-1.789-3.693-3.202-7.567-4.07-11.573c-0.7-3.214-0.985-5.508-1.114-8.879c-0.064-1.529-0.039-3.06,0.026-4.586
		c0.039-0.767,0.103-1.531,0.167-2.296c0.039-0.389,0.078-0.766,0.117-1.142c0.025-0.22,0.051-0.336,0.051-0.375
		c0.027-0.168,0.052-0.337,0.078-0.505c0.466-3.111,1.219-6.208,2.256-9.177c0.064-0.194,0.142-0.39,0.207-0.572
		c1.633,0.429,3.254,0.909,4.848,1.506c2.618,0.973,4.834,2.655,6.973,4.419c2.165,1.775,4.29,3.616,6.143,5.729
		c0.765,0.882,1.413,1.854,1.983,2.865c0.493,0.88,0.907,1.789,1.517,2.527C148.604,337.759,145.661,341.208,142.965,344.837
		L142.965,344.837z M265.1,342.45L265.1,342.45c-3.514-4.952-7.819-9.203-12.689-12.778c1.164-1.492,2.281-3.021,3.733-4.316
		c2.214-2.01,4.782-3.591,7.516-4.808c2.542-1.129,5.433-1.736,8.165-1.959c1.102-0.077,2.479-0.077,3.501,0.026
		c0.169,1.478,0.297,2.969,0.413,4.446c0.533,6.829,0.233,13.479-1.32,20.075c-0.805,3.384-2.088,6.612-3.305,9.852
		c-0.274,0.739-0.533,1.464-0.792,2.203c-0.155-0.687-0.312-1.36-0.467-1.996C268.96,349.321,267.406,345.703,265.1,342.45
		L265.1,342.45z M42.452,288.792L42.452,288.792c-1.556-3.369-3.033-6.804-4.38-10.29c0.336-0.285,0.7-0.547,1.075-0.792
		c1.478-0.972,3.11-1.66,4.782-2.218c3.357-1.151,6.792-1.631,10.318-1.89c4.432-0.313,8.929-0.053,13.35,0.401
		c3.939,0.403,7.84,1.231,11.768,1.802c-0.091,0.31-0.181,0.622-0.272,0.933c-2.255,7.815-3.292,16.007-3.021,24.147
		c0.143,3.797,0.195,7.919,0.933,11.82c-1.671,1.074-3.435,2.034-5.236,2.916c-1.983,0.959-4.043,1.71-6.117,2.462
		c-1.063,0.374-2.139,0.714-3.215,1.023c-0.375,0.117-0.739,0.261-1.102,0.401c-2.332-2.798-4.549-5.701-6.622-8.748
		C49.983,303.828,45.977,296.414,42.452,288.792L42.452,288.792z"/>
	<path fill-rule="evenodd" clip-rule="evenodd" fill="#353485" d="M64.538,273.731c-0.246,14.244,1.711,28.631,7.232,41.891
		c1.801-0.882,3.564-1.842,5.236-2.916c-0.738-3.901-0.79-8.023-0.933-11.82c-0.272-8.141,0.765-16.332,3.021-24.147
		c0.091-0.311,0.181-0.623,0.272-0.933c-3.928-0.57-7.829-1.398-11.768-1.802C66.573,273.899,65.562,273.81,64.538,273.731
		L64.538,273.731z"/>
	<path fill-rule="evenodd" clip-rule="evenodd" fill="#353485" d="M201.459,315.583L201.459,315.583c0,0-14.218-4.963-29.552-2.943
		c1.349,1.245,2.541,2.632,3.798,3.967c0.622,0.66,1.347,1.258,2.035,1.866c1.153-0.362,2.307-0.673,3.473-0.959
		C187.798,315.971,194.681,315.547,201.459,315.583L201.459,315.583z M145.792,326.6c-5.911,7.387-10.149,18.274-11.069,34.166
		c0.532-1.88,1.218-3.722,2.021-5.509c1.659-3.707,3.797-7.168,6.221-10.42l0,0c2.696-3.629,5.638-7.078,8.853-10.253
		c-0.609-0.738-1.023-1.647-1.517-2.527c-0.57-1.011-1.218-1.983-1.983-2.865C147.515,328.285,146.673,327.429,145.792,326.6
		L145.792,326.6z"/>
	<path fill-rule="evenodd" clip-rule="evenodd" fill="#353485" d="M328.71,309.568c-1.464-0.816-2.81-1.865-3.705-3.227
		c0.712-3.228,1.271-6.519,1.931-9.772c0.907-4.367,1.544-8.853,1.362-13.324c-0.183-4.33-0.728-8.58-1.714-12.792
		c-0.776-3.293-1.852-6.52-3.082-9.684c2.655-0.831,5.609-1.167,8.293-1.334c1.22-0.078,2.451-0.078,3.683-0.027
		c0.299,11.137-0.104,20.868-1.219,27.725C332.678,296.881,330.889,304.152,328.71,309.568L328.71,309.568z M269.077,318.94
		c2.838,8.645,3.797,20.052,1.814,34.631c0.077-0.194,0.142-0.39,0.222-0.583c1.217-3.239,2.5-6.468,3.305-9.852
		c1.554-6.596,1.854-13.246,1.32-20.075c-0.116-1.478-0.244-2.969-0.413-4.446c-1.022-0.104-2.399-0.104-3.501-0.026
		C270.918,318.669,269.997,318.783,269.077,318.94L269.077,318.94z"/>
	<path fill-rule="evenodd" clip-rule="evenodd" fill="#F9BF9B" d="M327.481,324.695L327.481,324.695
		c-2.464,2.526-5.198,4.705-8.206,6.557c-2.772,1.699-5.95,2.841-8.814,3.048c-1.723,0.114-3.083-0.029-4.431-0.325
		c-0.585-0.143-1.155-0.323-1.725-0.519c-0.012-0.012-0.025-0.012-0.053-0.026c-0.012,0-0.026-0.013-0.051-0.013
		c-0.325-0.156-0.635-0.337-0.944-0.505c-0.223-0.13-0.43-0.285-0.649-0.429l0,0c-0.378-0.311-0.714-0.647-1.038-1.012
		c-0.027-0.024-0.066-0.065-0.104-0.114c-0.091-0.131-0.18-0.273-0.271-0.417c-0.13-0.207-0.504-1.009-0.582-1.14
		c-0.104-0.312-0.195-0.623-0.284-0.946c-0.055-0.193-0.171-0.895-0.209-1.076c-0.078-0.907-0.064-1.828,0.014-2.749
		c0.013-0.024,0.013-0.076,0.024-0.128c0.025-0.193,0.065-0.388,0.091-0.582c0.104-0.52,0.233-1.011,0.364-1.518
		c0.142-0.491,0.31-0.997,0.492-1.478c0.026-0.104,0.063-0.194,0.103-0.284c0.026-0.025,0.259-0.571,0.326-0.712
		c0.452-0.936,0.999-1.829,1.593-2.683c0.039-0.066,0.115-0.171,0.183-0.261c0.103-0.131,0.205-0.247,0.311-0.376
		c0.388-0.454,0.803-0.868,1.231-1.283c0.181-0.168,0.362-0.337,0.557-0.493c0.05-0.039,0.09-0.077,0.117-0.115
		c0.025-0.014,0.038-0.027,0.065-0.04c0.466-0.337,0.944-0.623,1.45-0.894c0.181-0.104,0.377-0.194,0.559-0.285
		c0.063-0.026,0.14-0.052,0.257-0.091c0.417-0.144,0.83-0.247,1.246-0.338c-0.416,0.091,0.922-0.077,1.257-0.064
		c0.583,0,1.154-0.013,1.736,0.037c0.078,0.015,0.247,0.027,0.375,0.054c0.326,0.053,0.636,0.143,0.96,0.259
		c-0.284-0.104,1.283,0.597,1.311,0.608c0.49,0.131,0.97,0.104,1.437,0.039c0.545,0.105,1.091,0.222,1.659,0.247
		c0.13,0,0.272-0.013,0.404-0.038c0.168,0.153,0.334,0.31,0.504,0.479c0.415,0.403,0.881,0.584,1.336,0.611
		c0.906,2.163,2.644,4.004,4.548,5.429c1.167,0.868,2.605,1.687,4.124,2.295C328.322,323.839,327.906,324.268,327.481,324.695
		L327.481,324.695z"/>
	<path fill-rule="evenodd" clip-rule="evenodd" fill="#C7564A" d="M305.121,315.479c0.092-0.09,0.196-0.167,0.286-0.246
		c0.05-0.039,0.09-0.077,0.117-0.115c0.025-0.014,0.038-0.027,0.065-0.04c0.466-0.337,0.944-0.623,1.45-0.894
		c0.181-0.104,0.377-0.194,0.559-0.285c0.063-0.026,0.14-0.052,0.257-0.091c0.417-0.144,0.83-0.247,1.246-0.338
		c-0.416,0.091,0.922-0.077,1.257-0.064c0.583,0,1.154-0.013,1.736,0.037c0.078,0.015,0.247,0.027,0.375,0.054
		c0.326,0.053,0.636,0.143,0.96,0.259c-0.284-0.104,1.283,0.597,1.311,0.608c0.49,0.131,0.97,0.104,1.437,0.039
		c0.545,0.105,1.091,0.222,1.659,0.247c0.13,0,0.272-0.013,0.404-0.038c0.168,0.153,0.334,0.31,0.504,0.479
		c0.415,0.403,0.881,0.584,1.336,0.611c0.57,1.359,1.465,2.576,2.514,3.652c-2.347,2.269-5.043,3.667-8.18,4.512
		C304.189,326.614,305.121,315.479,305.121,315.479L305.121,315.479z"/>
	<path fill-rule="evenodd" clip-rule="evenodd" fill="#F9BF9B" d="M301.286,331.11L301.286,331.11
		C301.233,331.059,301.222,331.046,301.286,331.11L301.286,331.11z"/>
	<path fill-rule="evenodd" clip-rule="evenodd" fill="#F9BF9B" d="M274.391,312.551L274.391,312.551
		c-0.855-0.027-1.71-0.015-2.566,0.064c-3.706,0.298-7.192,1.49-10.483,3.175c-3.112,1.595-6.028,3.81-8.284,6.481
		c-1.308,1.541-2.695,3.408-3.498,5.429c-0.584-0.375-1.167-0.751-1.764-1.113c-4.873-2.969-10.121-5.21-15.565-6.856
		c0.168-0.323,0.337-0.623,0.518-0.895c1.18-1.71,2.748-3.176,4.199-4.628c3.356-3.329,7.089-6.247,11.057-8.8
		c3.436-2.229,7.036-4.227,10.887-5.599c1.867-0.674,3.811-1.373,5.769-1.724c1.218-0.221,2.604-0.026,3.862-0.221
		c0.219,0.271,0.426,0.571,0.637,0.854c0.723,1.063,1.344,2.217,1.902,3.371c0.325,0.646,0.61,1.321,0.896,1.997
		c-0.131-0.313-0.105-0.235,0.077,0.22c0.169,0.415,0.31,0.829,0.465,1.243C273.302,307.832,273.911,310.178,274.391,312.551
		L274.391,312.551z"/>
	<path fill-rule="evenodd" clip-rule="evenodd" fill="#C7564A" d="M274.391,312.551L274.391,312.551
		c-0.855-0.027-1.71-0.015-2.566,0.064c-1.683,0.143-3.317,0.453-4.925,0.919c-2.773-5.688-6.519-9.835-10.756-12.624
		c0.907-0.401,1.812-0.764,2.746-1.101c1.867-0.674,3.811-1.373,5.769-1.724c1.218-0.221,2.604-0.026,3.862-0.221
		c0.219,0.271,0.426,0.571,0.637,0.854c0.723,1.063,1.344,2.217,1.902,3.371c0.325,0.646,0.61,1.321,0.896,1.997
		c-0.131-0.313-0.105-0.235,0.077,0.22c0.169,0.415,0.31,0.829,0.465,1.243C273.302,307.832,273.911,310.178,274.391,312.551
		L274.391,312.551z"/>
	<path fill-rule="evenodd" clip-rule="evenodd" fill="#F9BF9B" d="M160.139,327.468L160.139,327.468
		c-1.167,0.856-2.294,1.751-3.409,2.669c-0.751-1.813-2.177-3.511-3.305-4.819c-2.086-2.426-4.679-4.446-7.31-6.259
		c-2.734-1.896-5.469-3.565-8.723-4.422c-1.788-0.466-3.629-0.647-5.457-0.66c0.623-1.232,1.322-2.438,2.086-3.59
		c0.999-1.543,1.297-1.907,2.27-3.047c1.037-1.23,2.203-2.372,3.409-3.435c0.958-0.844,1.867-1.557,2.787-2.229
		c0.116,0.025,0.233,0.052,0.35,0.079c2.086,0.491,4.018,1.061,5.922,2.086c3.357,1.815,6.391,4.185,9.722,6.053
		c3.447,1.915,6.985,4.056,9.772,6.883c1.154,1.166,2.203,2.631,3.33,4.004C167.54,322.582,163.703,324.851,160.139,327.468
		L160.139,327.468z"/>
	<path fill-rule="evenodd" clip-rule="evenodd" fill="#C7564A" d="M160.139,327.468L160.139,327.468
		c-1.167,0.856-2.294,1.751-3.409,2.669c-0.751-1.813-2.177-3.511-3.305-4.819c-1.012-1.167-2.125-2.243-3.318-3.255
		c4.537-4.017,9.708-6.544,14.971-8.036c1.127,0.845,2.203,1.75,3.175,2.75c1.154,1.166,2.203,2.631,3.33,4.004
		C167.54,322.582,163.703,324.851,160.139,327.468L160.139,327.468z"/>
	<path fill-rule="evenodd" clip-rule="evenodd" fill="#F9F6EA" d="M202.495,292.059L202.495,292.059
		c2.139,0.232,4.266,0.776,5.938,1.828c0.687,0.415,1.191,0.973,1.567,1.657c0.519,0.934,0.454,2.022,0.052,2.893
		c-1.036,2.216-3.383,3.575-5.664,4.212c-2.346,0.659-5.339,0.207-7.945-0.531c-2.396-0.688-5.145-2.166-5.741-4.77
		c-0.571-2.437,2.76-3.616,3.77-5.316C197.196,291.593,200.163,291.785,202.495,292.059L202.495,292.059z"/>
	<path fill-rule="evenodd" clip-rule="evenodd" fill="#F9BF9B" d="M87.854,321.751L87.854,321.751
		c0.752-0.336,1.465-0.75,2.178-1.139c-0.453,0.259,2.346-1.155,1.386-0.584c0.376-0.219,0.766-0.454,1.154-0.675
		c0.13-0.065,0.221-0.116,0.285-0.168c0.079-0.014,0.181-0.052,0.337-0.104c0.298-0.104,0.596-0.194,0.894-0.271
		c-0.116,0.037,0.648-0.093,0.778-0.093c0.104,0,0.597,0.064,0.752,0.093c0.285,0.064,0.557,0.154,0.842,0.247
		c-0.882-0.288,0.311,0.154,0.428,0.219c0.311,0.167,0.609,0.361,0.894,0.557c-0.389-0.246,0.505,0.402,0.557,0.452
		c0.208,0.194,0.402,0.39,0.596,0.6c0.027,0.024,0.533,0.619,0.558,0.619c0.363,0.531,0.687,1.104,0.985,1.673
		c-0.143-0.233,0.233,0.622,0.259,0.712c0.091,0.261,0.143,0.531,0.208,0.791c-0.053-0.208,0.09,0.675,0.104,0.804
		c0.025,0.401,0.025,0.805,0.012,1.205c0,0.105-0.051,0.598-0.064,0.754c-0.052,0.244-0.104,0.504-0.168,0.749
		c-0.091,0.365-0.207,0.728-0.337,1.078c0,0.025-0.014,0.038-0.014,0.064c-0.038,0.052-0.078,0.129-0.129,0.245
		c-0.285,0.571-0.623,1.115-0.985,1.632c0.129-0.207-0.388,0.455-0.467,0.547c-0.245,0.284-0.518,0.545-0.79,0.816
		c-0.156,0.143-1.166,0.973-1.063,0.906c-0.558,0.415-1.154,0.776-1.762,1.128c-0.337,0.194-0.688,0.376-1.037,0.544
		c-0.065,0.039-0.661,0.311-0.7,0.337c-0.609,0.233-1.244,0.44-1.866,0.622c-2.981,0.883-5.366,0.935-8.464,0.351
		c-4.043-0.766-7.945-2.216-11.691-3.992c0.025-0.273,0.013-0.557-0.026-0.829c1.892-0.596,3.693-1.594,5.288-2.709
		c2.087-1.465,4.122-3.294,5.457-5.508c0.13-0.207,0.246-0.415,0.35-0.635C84.42,323.165,86.184,322.527,87.854,321.751
		L87.854,321.751z"/>
	<path fill-rule="evenodd" clip-rule="evenodd" fill="#C7564A" d="M87.854,321.751L87.854,321.751
		c0.752-0.336,1.465-0.75,2.178-1.139c-0.453,0.259,2.346-1.155,1.386-0.584c0.376-0.219,0.766-0.454,1.154-0.675
		c0.13-0.065,0.221-0.116,0.285-0.168c0.079-0.014,0.181-0.052,0.337-0.104c0.298-0.104,0.596-0.194,0.894-0.271
		c-0.116,0.037,0.648-0.093,0.778-0.093c0.104,0,0.597,0.064,0.752,0.093c0.285,0.064,0.557,0.154,0.842,0.247
		c-0.882-0.288,0.311,0.154,0.428,0.219c0.311,0.167,0.609,0.361,0.894,0.557c-0.389-0.246,0.505,0.402,0.557,0.452
		c1.478,5.121-4.044,8.775-12.055,7.492c-1.957-0.311-3.809-1.191-5.521-2.346c0.558-0.635,1.05-1.296,1.478-2.008
		c0.13-0.207,0.246-0.415,0.35-0.635C84.42,323.165,86.184,322.527,87.854,321.751L87.854,321.751z"/>
	<path fill-rule="evenodd" clip-rule="evenodd" fill="#EB5E2B" d="M69.333,326.937L69.333,326.937
		c-0.376,0.104-0.79,0.168-1.204,0.195c-1.829-1.92-3.617-3.89-5.341-5.899c1.023-0.192,2.035-0.412,3.046-0.673
		c2.178-0.543,4.29-1.399,6.351-2.268c1.892-0.804,3.733-1.749,5.509-2.789c0.415,1.402,0.958,2.749,1.659,4.033
		c-0.35,0.48-0.713,0.92-1.024,1.284c-1.218,1.436-2.514,2.722-4.069,3.783C72.742,325.639,71.096,326.457,69.333,326.937
		L69.333,326.937z M186.982,301.857L186.982,301.857c-2.282-0.221-4.575-0.439-6.857-0.688c-5.236-0.597-10.408-1.763-15.553-2.903
		c-4.537-1.013-9.125-1.893-13.623-3.123c-0.908-0.247-1.801-0.506-2.696-0.793c-0.648-1.93-1.879-3.381-3.279-4.91
		c4.458,1.452,9.046,2.152,13.712,2.735c5.159,0.649,10.331,1.36,15.527,1.333c2.605,0,5.223-0.154,7.829-0.051
		c1.49,0.065,2.89,0.129,4.303,0.092c-0.169,0.337-0.324,0.673-0.455,1.022C184.895,297.036,185.568,299.705,186.982,301.857
		L186.982,301.857z M215.522,294.533L215.522,294.533c4.73,0.156,9.474,0.339,14.205,0.259c5.832-0.103,11.651-1.074,17.315-2.475
		c2.747-0.687,5.483-1.449,8.23-2.202c2.853-0.792,5.769-1.427,8.581-2.348c0.322-0.103,0.646-0.219,0.971-0.35
		c-0.609,0.935-1.127,1.919-1.465,3.098c-2.281,1.18-4.757,2.101-7.192,2.942c-5.105,1.763-10.446,2.903-15.722,4.085
		c-5.328,1.19-10.668,2.188-16.098,2.798c-2.786,0.312-5.587,0.545-8.385,0.792c-0.326,0.037-0.662,0.063-1.001,0.09
		c0.353-0.739,0.624-1.504,0.793-2.308C216.054,297.45,215.964,295.946,215.522,294.533L215.522,294.533z M129.5,367.245
		L129.5,367.245c-1.491,0.647-3.034,1.141-4.602,1.556c-1.595,0.416-3.175,0.609-4.809,0.634c-0.855,0.014-1.698-0.052-2.553-0.128
		c0.324,0.051,0.272,0.051-0.156-0.026c-0.337-0.052-0.674-0.143-1.011-0.221c-0.116-0.037-0.895-0.323-0.868-0.284
		c-0.26-0.131-0.52-0.285-0.766-0.454c0.26,0.169-0.09-0.116-0.363-0.351c-0.078-0.117-0.284-0.375-0.388-0.543
		c-0.039-0.144-0.078-0.286-0.117-0.428c0-0.143,0-0.272,0-0.416c0-0.05,0-0.09,0-0.128c0.013-0.054,0.027-0.119,0.052-0.222
		c0.039-0.155,0.208-0.595,0.26-0.752c0.09-0.154,0.193-0.324,0.285-0.479c0.026-0.012,0.04-0.038,0.052-0.052
		c0.09-0.117,0.193-0.232,0.311-0.336c0.104-0.116,0.233-0.233,0.35-0.338l0,0c0.026-0.014,0.064-0.038,0.104-0.065
		c0.143-0.104,0.973-0.519,0.829-0.479c0.351-0.13,0.713-0.246,1.076-0.337c0.195-0.054,0.389-0.103,0.57-0.131
		c0.052-0.012,0.09-0.024,0.13-0.036c0.052,0,0.117,0,0.221-0.014c1.036-0.08,2.074,0.05,3.097,0.181
		c1.724,0.207,4.498,0.843,6.559,1.45c1.036,0.312,2.138,0.676,3.215,1.114c0.128,0.196,0.258,0.391,0.388,0.585
		C130.743,366.728,130.121,366.973,129.5,367.245L129.5,367.245z M282.699,358.91L282.699,358.91
		c2.709-0.854,4.679-1.164,7.362-1.05c0.26,0.026,0.518,0.04,0.777,0.065c0.077,0.016,0.181,0.04,0.323,0.066
		c0.74,0.115,1.451,0.322,2.165,0.558c0.962,0.31,1.738,0.699,2.332,1.229c-0.012,0.025-0.025,0.04-0.05,0.064
		c-0.065,0.064-0.118,0.119-0.144,0.156c-0.039,0.026-0.063,0.038-0.104,0.065c-0.116,0.09-1.181,0.621-0.908,0.53
		c-0.752,0.286-1.516,0.519-2.28,0.727c-1.671,0.467-2.865,0.519-4.653,0.569c-3.214,0.079-6.39-0.285-9.617-0.063
		c-0.608,0.037-1.219,0.091-1.827,0.155C278.176,360.766,280.354,359.675,282.699,358.91L282.699,358.91z M331.253,318.705
		L331.253,318.705c-0.326,0.416-0.599,0.857-0.793,1.312c-1.18-0.364-2.307-0.87-3.433-1.428c-1.984-0.971-3.695-2.371-4.94-4.146
		c0.039-0.091,0.092-0.17,0.117-0.271c0.662-1.606,2.021-3.099,2.321-4.809c1.594,1.632,3.692,2.823,5.729,3.744
		c1.347,0.609,2.787,1.179,4.25,1.621C333.403,316.037,332.314,317.358,331.253,318.705L331.253,318.705z"/>
	<path fill-rule="evenodd" clip-rule="evenodd" fill="#BE361A" d="M73.26,317.812c1.517-0.686,2.995-1.464,4.434-2.309
		c0.415,1.402,0.958,2.749,1.659,4.033c-0.35,0.48-0.713,0.92-1.024,1.284c-0.428,0.504-0.855,0.984-1.309,1.436
		C75.451,320.688,74.168,319.07,73.26,317.812L73.26,317.812z"/>
	<path fill-rule="evenodd" clip-rule="evenodd" fill="#BE361A" d="M324.615,317.088c1.128-1.478,2.165-3.216,3.125-5.279
		c-1.168-0.685-2.28-1.486-3.215-2.446c-0.3,1.71-1.659,3.202-2.321,4.809c-0.025,0.102-0.078,0.181-0.117,0.271
		C322.787,315.453,323.643,316.334,324.615,317.088L324.615,317.088z M230.726,294.768c4.068,0.583,8.735,1.219,13.79,1.866
		c3.927-0.894,7.855-1.866,11.652-3.176c2.436-0.842,4.911-1.763,7.192-2.942c0.338-1.179,0.855-2.163,1.465-3.098
		c-0.324,0.131-0.648,0.247-0.971,0.35c-2.813,0.921-5.729,1.556-8.581,2.348c-2.747,0.753-5.483,1.516-8.23,2.202
		C241.702,293.627,236.221,294.572,230.726,294.768L230.726,294.768z"/>
	<path fill-rule="evenodd" clip-rule="evenodd" fill="#EB5E2B" d="M138.092,77.396L138.092,77.396
		c0.053-2.527,0.57-5.172,1.568-7.504c1.024-2.397,2.567-5.055,4.498-6.804c0.376-0.35,0.532-0.726,0.505-1.102
		c1.478-2.268,2.333-4.886,3.514-7.336c1.567-3.253,3.07-6.481,4.95-9.578c1.776-2.929,3.799-5.677,6.041-8.218
		c-1.011,2.917-1.957,5.859-2.8,8.814c-2.423,8.425-4.342,17.07-5.689,25.715c-1.335,8.646-1.97,17.381-2.541,26.091
		c-0.286,4.394-0.623,8.787-0.882,13.18c-0.234,4.057-0.804,8.374-0.246,12.418c-0.221,0.454-0.415,0.908-0.61,1.374
		c-1.66-2.437-2.864-5.21-3.577-8.269c-0.92-3.941-0.816-8.089-0.647-12.119c0.089-1.996,0.182-3.992,0.246-5.988
		c0.026-0.868,0.091-1.919,0.013-2.955c0.415-0.608,0.57-1.361,0.258-2.125c-1.049-2.605-2.578-4.965-3.512-7.621
		C138.273,82.762,138.027,80.145,138.092,77.396L138.092,77.396z"/>
	<path fill-rule="evenodd" clip-rule="evenodd" fill="#4C62AB" d="M173.204,25.643L173.204,25.643
		c-0.389,0.998-0.765,2.022-1.063,3.071c-0.816,2.878-1.569,5.781-2.19,8.71c-0.609,2.839-1.076,5.689-1.413,8.567
		c-0.168,1.49-0.285,2.98-0.362,4.471c-0.066,1.231-0.338,2.631,0.375,3.693c0.259,0.403,0.791,0.39,1.049,0
		c0.622-0.933,0.479-2.047,0.532-3.124c0.077-1.503,0.22-2.993,0.389-4.484c0.337-2.877,0.894-5.728,1.529-8.541
		c0.609-2.749,1.335-5.458,2.074-8.167c0.466-1.722,0.816-3.447,1.141-5.183c1.05-0.455,2.113-0.869,3.175-1.232
		c-0.013,0.117-0.026,0.234,0,0.351c0.259,1.867,1.18,3.771,1.957,5.47c0.751,1.671,1.724,3.214,2.904,4.626
		c2.32,2.787,5.768,4.135,9.358,3.733c4.314-0.493,8.151-2.735,11.066-5.886c1.531-1.646,2.762-3.576,3.721-5.598
		c0.299-0.622,0.623-1.335,0.895-2.074c0.351,0.116,0.7,0.246,1.051,0.375c0.935,2.527,1.542,5.25,2.282,7.712
		c0.945,3.163,1.58,6.416,2.099,9.668c0.285,1.711,0.505,3.435,0.714,5.146c0.181,1.387,0.114,3.175,0.956,4.329
		c0.313,0.416,1.13,0.609,1.388,0c0.597-1.359,0.208-2.876,0.065-4.329c-0.168-1.75-0.428-3.512-0.686-5.249
		c-0.532-3.628-1.271-7.232-2.308-10.744c-0.531-1.775-0.998-3.552-1.557-5.314c4.629,2.072,8.97,4.822,12.805,8.126
		c0.495,2.696,1.388,5.25,2.309,7.867c1.335,3.824,1.894,7.906,2.502,11.912c1.219,8.179,1.658,16.422,3.099,24.575
		c1.387,7.894,2.644,15.799,3.861,23.706c0.621,4.043,1.205,8.087,1.878,12.118c0.313,1.918,0.558,3.836,0.777,5.768
		c0.092,0.726,0.145,1.478,0.221,2.217c-0.233-0.454-0.466-0.92-0.686-1.387c-0.493-1.011-0.453-2.242-0.998-3.188
		c-0.532-0.945-1.089-1.879-1.658-2.799c-1.181-1.918-2.464-3.745-3.825-5.547c-3.319-4.395-7.153-8.425-11.47-11.859
		c0-0.039,0.012-0.064,0.012-0.104c0.144-7.323,0.041-14.944-2.436-21.917c-0.271-0.765-1.349-0.454-1.219,0.337
		c1.089,6.545,1.321,13.232,1.206,19.856c-0.779-0.546-1.568-1.076-2.372-1.595c-6.144-3.927-13.194-6.26-20.479-6.637
		c-7.673-0.401-15.19,1.803-21.903,5.418c-2.099,1.14-4.097,2.424-6.001,3.837c0-0.234,0-0.467,0-0.674
		c0.078-1.918,0.22-3.823,0.376-5.742c0.311-3.991,0.738-8.049,0.428-12.053c-0.091-1.141-1.686-1.141-1.776,0
		c-0.336,3.836-0.621,7.659-0.958,11.483c-0.169,1.905-0.325,3.823-0.429,5.729c-0.051,0.934-0.311,2.191-0.117,3.214
		c-3.551,2.968-6.739,6.376-9.578,10.071c-2.489,3.228-4.653,6.688-6.61,10.266c-0.194,0.348-0.39,0.711-0.583,1.075
		c-0.012-0.947-0.026-1.893,0-2.826c0.052-2.086,0.181-4.16,0.402-6.235c0.441-4.199,0.79-8.385,1.063-12.598
		c0.571-8.736,1.206-17.457,2.516-26.116c2.008-13.168,5.223-26.454,10.186-38.897c1.309-1.231,2.671-2.384,4.109-3.486
		C168.979,28.04,171.065,26.732,173.204,25.643L173.204,25.643z"/>
	<path fill-rule="evenodd" clip-rule="evenodd" fill="#353485" d="M237.827,107.83c0.312,2.034,0.623,4.082,0.972,6.117
		c0.313,1.918,0.558,3.836,0.777,5.768c0.092,0.726,0.145,1.478,0.221,2.217c-0.233-0.454-0.466-0.92-0.686-1.387
		c-0.493-1.011-0.453-2.242-0.998-3.188c-0.532-0.945-1.089-1.879-1.658-2.799c-0.364-0.596-0.738-1.193-1.13-1.775
		C236.261,111.16,237.089,109.501,237.827,107.83L237.827,107.83z"/>
	<path fill-rule="evenodd" clip-rule="evenodd" fill="#EB5E2B" d="M205.257,23.063L205.257,23.063
		c-0.143,0.519-0.299,1.011-0.492,1.491c-0.805,1.815-1.906,3.5-3.202,5.002c-2.358,2.761-5.663,4.77-9.306,5.237
		c-3.098,0.401-5.586-1.037-7.505-3.37c-2.073-2.553-2.682-5.703-4.108-8.568c-0.025-0.038-0.038-0.064-0.051-0.09
		C188.55,20.537,197.091,20.77,205.257,23.063L205.257,23.063z"/>
	<path fill-rule="evenodd" clip-rule="evenodd" fill="#F9BF9B" d="M189.017,140.31L189.017,140.31
		c-0.519-0.039-1.049-0.078-1.569-0.118c-2.035-0.414-4.198-0.504-6.13-0.75c-3.914-0.506-7.842-1.05-11.678-1.945
		c-6.118-1.438-11.6-3.304-16.759-6.687c-1.71-1.128-3.253-2.45-4.588-3.953c1.076-1.97,2.009-4.031,3.072-6
		c1.736-3.202,3.694-6.286,5.832-9.241c4.264-5.846,9.579-10.952,15.761-14.738c6.454-3.953,13.999-6.402,21.592-6.376
		c7.298,0.04,14.323,2.579,20.505,6.338c6.065,3.694,11.277,8.761,15.526,14.425c1.285,1.698,2.49,3.447,3.645,5.224
		c0.518,0.817,0.959,1.931,1.645,2.604c0.87,0.843,1.622,1.608,2.243,2.657c1.038,1.75,1.906,3.59,2.722,5.444
		c0.089,0.7,0.271,1.439,0.635,1.892c-0.363,0.259-0.726,0.518-1.115,0.79c-5.856,4.083-11.718,6.092-18.741,7.674
		c-7.374,1.659-14.037,2.618-21.659,2.955C196.313,140.66,192.659,140.569,189.017,140.31L189.017,140.31z"/>
	<path fill-rule="evenodd" clip-rule="evenodd" fill="#C7564A" d="M233.602,115.554c0.209,0.311,0.417,0.623,0.624,0.933
		c0.518,0.817,0.959,1.931,1.645,2.604c0.87,0.843,1.622,1.608,2.243,2.657c1.038,1.75,1.906,3.59,2.722,5.444
		c0.089,0.7,0.271,1.439,0.635,1.892c-0.363,0.259-0.726,0.518-1.115,0.79c-5.856,4.083-11.718,6.092-18.741,7.674
		c-7.374,1.659-14.037,2.618-21.659,2.955c-1.826,0.077-3.654,0.091-5.469,0.052C214.291,135.566,226.421,126.35,233.602,115.554
		L233.602,115.554z"/>
	<path fill-rule="evenodd" clip-rule="evenodd" fill="#EB5E2B" d="M236.117,45.642L236.117,45.642
		c2.761,3.979,5.159,8.166,7.464,12.404c-0.167,0.427-0.038,0.946,0.429,1.27c2.035,1.413,3.849,3.046,5.212,5.132
		c1.606,2.45,2.436,5.081,3.11,7.918c0.765,3.176,1.191,6.431,0.933,9.709c-0.116,1.425-0.544,2.929-1.179,4.212
		c-0.779,1.568-1.997,3.032-1.698,4.822v0.012c-0.364,3.63,0.506,7.362,1.063,10.927c0.568,3.693,0.971,7.4,0.582,11.133
		c-0.363,3.604-2.229,7.103-4.342,9.747c-1.088,1.361-2.28,2.645-3.538,3.85c-0.247,0.234-0.48,0.454-0.713,0.661
		c-0.016-0.22-0.038-0.427-0.079-0.583c-0.129-0.661-0.313-1.321-0.4-1.983c-0.052-0.453,0.064-0.869,0.088-1.296
		c0-0.013,0-0.013,0-0.013c0.235-0.376,0.08-0.804-0.229-1.037c-0.065-2.63-0.558-5.353-0.896-7.854
		c-0.519-3.979-1.219-7.933-1.84-11.898c-1.271-8.101-2.58-16.201-4.021-24.263c-1.438-8.114-2.862-16.176-4.056-24.314
		c-0.868-5.911-1.931-11.666-3.537-17.33C231.257,39.602,233.875,42.402,236.117,45.642L236.117,45.642z"/>
	<path fill-rule="evenodd" clip-rule="evenodd" fill="#BE361A" d="M236.117,45.642L236.117,45.642c0,0,12.301,29.643,3.862,56.472
		l0.104,0.661c0.621,3.966,1.321,7.92,1.84,11.898c0.338,2.501,0.83,5.224,0.896,7.854c0.31,0.233,0.465,0.661,0.229,1.037
		c0,0,0,0,0,0.013c-0.023,0.427-0.14,0.843-0.088,1.296c0.088,0.662,0.271,1.322,0.4,1.983c0.041,0.156,0.063,0.363,0.079,0.583
		c0.232-0.207,0.466-0.427,0.713-0.661c1.258-1.205,2.45-2.488,3.538-3.85c2.112-2.644,3.979-6.143,4.342-9.747
		c0.389-3.733-0.014-7.439-0.582-11.133c-0.558-3.565-1.428-7.297-1.063-10.927V91.11c-0.299-1.79,0.919-3.254,1.698-4.822
		c0.635-1.283,1.063-2.787,1.179-4.212c0.259-3.278-0.168-6.533-0.933-9.709c-0.675-2.837-1.504-5.469-3.11-7.918
		c-1.363-2.086-3.177-3.72-5.212-5.132c-0.467-0.324-0.596-0.843-0.429-1.27C241.276,53.807,238.878,49.621,236.117,45.642
		L236.117,45.642z"/>
	<path fill-rule="evenodd" clip-rule="evenodd" fill="#F9BF9B" d="M248.081,79.276c0.104,0.777,1.281,0.829,1.255,0
		c-0.037-1.633-0.154-3.267-0.387-4.873c-0.247-1.596-0.48-3.461-1.607-4.693c-0.377-0.402-0.971-0.065-1.012,0.428
		c-0.104,1.399,0.505,2.851,0.83,4.199C247.562,75.971,247.886,77.604,248.081,79.276L248.081,79.276z"/>
	<path fill-rule="evenodd" clip-rule="evenodd" fill="#F9BF9B" d="M142.175,83.476c0.908-2.853,1.84-5.975,1.944-8.971
		c0.012-0.389-0.532-0.647-0.803-0.336c-2.125,2.527-2.295,6.222-1.375,9.307C141.98,83.591,142.149,83.591,142.175,83.476
		L142.175,83.476z"/>
	<path fill-rule="evenodd" clip-rule="evenodd" fill="#F9BF9B" d="M211.271,129.046c2.929-0.803,5.483-2.942,6.779-5.702
		c1.191-2.554,1.115-5.34,0.557-8.049c-1.141-5.47-4.432-10.602-7.827-14.944c-0.339-0.441-0.662-0.778-1.077-1.127
		c-0.713-0.584-1.633-0.117-1.684,0.635c-2.399,3.551-7.13,5.417-10.967,6.908c-2.58,1.011-5.211,1.854-7.84,2.696
		c-1.103,0.35-2.217,0.662-3.357,0.88c-1.012-0.064-2.035-0.064-3.046-0.129c-2.255-0.168-4.562-0.531-6.623-1.503
		c-1.582-0.739-2.941,1.193-1.88,2.307c0.079,1.27,0.312,2.553,0.688,3.772c0.427,1.451,1.231,3.292,2.19,4.458
		c2.618,3.175,6.584,4.82,10.369,6.183c3.849,1.399,7.906,2.422,11.898,3.344C203.325,129.669,207.395,130.122,211.271,129.046
		L211.271,129.046z"/>
	<path fill-rule="evenodd" clip-rule="evenodd" fill="#F9BF9B" d="M187.021,74.235L187.021,74.235
		c0.751-1.686,2.086-4.913,4.264-3.046c1.153,0.984,1.854,2.527,2.373,3.914c0.479,1.309,1.074,2.993,0.764,4.395
		c-0.232,1.011-2.242,0.621-2.916,0.544c-2.047-0.22-3.94-1.193-5.963-1.582C186.113,77.06,186.462,75.479,187.021,74.235
		L187.021,74.235z"/>
	<path fill-rule="evenodd" clip-rule="evenodd" fill="#F9BF9B" d="M183.47,81.583c2.436,1.284,5.689,1.971,8.411,2.217
		c2.151,0.182,4.16-0.324,5.483-2.087c1.256-1.685,0.674-4.316,0.141-6.144c-0.634-2.19-1.711-4.264-3.175-6.013
		c-2.733-3.28-6.559-2.244-8.658,1.01c-1.049,1.607-1.659,3.5-2.202,5.327c-0.324,1.127-0.674,2.281-0.674,3.435
		C182.458,80.118,182.614,81.129,183.47,81.583L183.47,81.583z"/>
	<path fill-rule="evenodd" clip-rule="evenodd" fill="#F9BF9B" d="M213.201,60.314L213.201,60.314c0.015,0,0.026-0.013,0.039-0.026
		C213.254,60.274,213.24,60.288,213.201,60.314L213.201,60.314z"/>
	<path fill-rule="evenodd" clip-rule="evenodd" fill="#F9BF9B" d="M208.019,69.957c3.264,2.838,7.84,2.722,11.195,0.104
		c2.956-2.307,4.409-7.143,3.062-10.694c-1.361-3.551-4.99-6.208-8.867-6.066c-1.865,0.064-3.538,0.869-4.78,2.113
		C203.507,58.084,203.883,66.354,208.019,69.957L208.019,69.957z"/>
	<path fill-rule="evenodd" clip-rule="evenodd" fill="#F9BF9B" d="M169.769,63.139L169.769,63.139
		c-0.039-0.064-0.065-0.129-0.091-0.207c0.039,0.078,0.066,0.129,0.091,0.181C169.769,63.126,169.769,63.126,169.769,63.139
		L169.769,63.139z"/>
	<path fill-rule="evenodd" clip-rule="evenodd" fill="#F9BF9B" d="M161.254,59.497c-2.424,3.007-2.825,6.96-1.102,10.408
		c1.36,2.709,4.744,4.718,7.75,4.666c2.852-0.038,5.275-1.892,6.623-4.315c2.244-4.044,2.244-11.263-2.708-13.428
		c-2.151-0.946-4.536-0.908-6.494,0.026C163.756,57.229,162.25,58.252,161.254,59.497L161.254,59.497z"/>
	<path fill-rule="evenodd" clip-rule="evenodd" fill="#C7564A" d="M215.263,119.948L215.263,119.948
		c-0.505,2.41-2.035,3.784-4.29,4.666c-3.099,1.231-6.728,0.7-9.901,0.052c-0.299-0.064-0.61-0.129-0.921-0.194
		c0.738-0.803,1.45-1.62,2.165-2.45c1.178-1.413,2.592-2.865,4.328-3.589c2.605-1.102,6.117-1.607,8.827-0.635
		C215.471,118.509,215.405,119.235,215.263,119.948L215.263,119.948z"/>
	<path fill-rule="evenodd" clip-rule="evenodd" fill="#F9F6EA" d="M198.505,109.722L198.505,109.722
		c2.682-1.102,5.301-2.347,7.672-4.045c0.154-0.103,0.311-0.219,0.467-0.348c-0.648,1.114-1.361,2.203-2.217,3.162
		c-1.75,1.983-4.043,3.448-6.508,4.343c-2.384,0.867-4.858,1.179-7.399,0.998c-0.998-0.079-1.958-0.168-2.917-0.35
		c0.674-0.169,1.349-0.364,2.009-0.569C192.606,111.99,195.601,110.914,198.505,109.722L198.505,109.722z"/>
	<path fill-rule="evenodd" clip-rule="evenodd" fill="#FFFFFF" d="M112.637,116.41c6.986-3.708,13.984-6.74,21.904-7.648
		c0.401-0.038,0.816-0.077,1.244-0.089c0.026-1.349,0.104-2.708,0.22-4.07c0.181-1.97,0.429-3.928,0.662-5.897
		c-0.713,0-1.425,0.039-2.125,0.117c-7.92,0.908-14.918,3.94-21.904,7.648c-7,3.719-13.804,7.775-20.284,12.352
		c-13.131,9.241-24.951,20.582-34.412,33.543c-9.501,13-16.59,27.62-21.282,42.965c-4.602,15.086-7.013,30.601-6.39,46.364
		c0.493-12.354,2.76-24.524,6.39-36.424c4.692-15.344,11.781-29.965,21.282-42.964c9.461-12.961,21.281-24.303,34.412-33.544
		C98.833,124.199,105.637,120.129,112.637,116.41L112.637,116.41z"/>
	<path fill="#321A1B" d="M161.254,59.497c-2.424,3.007-2.825,6.96-1.102,10.408c1.36,2.709,4.744,4.718,7.75,4.666
		c2.852-0.038,5.275-1.892,6.623-4.315c2.244-4.044,2.244-11.263-2.708-13.428c-2.151-0.946-4.536-0.908-6.494,0.026
		C163.756,57.229,162.25,58.252,161.254,59.497L161.254,59.497z M169.769,63.139L169.769,63.139
		c-0.039-0.064-0.065-0.129-0.091-0.207c0.039,0.078,0.066,0.129,0.091,0.181C169.769,63.126,169.769,63.126,169.769,63.139
		L169.769,63.139z"/>
	<path fill="#321A1B" d="M208.019,69.957c3.264,2.838,7.84,2.722,11.195,0.104c2.956-2.307,4.409-7.143,3.062-10.694
		c-1.361-3.551-4.99-6.208-8.867-6.066c-1.865,0.064-3.538,0.869-4.78,2.113C203.507,58.084,203.883,66.354,208.019,69.957
		L208.019,69.957z M213.201,60.314L213.201,60.314c0.015,0,0.026-0.013,0.039-0.026C213.254,60.274,213.24,60.288,213.201,60.314
		L213.201,60.314z"/>
	<path fill="#321A1B" d="M183.47,81.583c2.436,1.284,5.689,1.971,8.411,2.217c2.151,0.182,4.16-0.324,5.483-2.087
		c1.256-1.685,0.674-4.316,0.141-6.144c-0.634-2.19-1.711-4.264-3.175-6.013c-2.733-3.28-6.559-2.244-8.658,1.01
		c-1.049,1.607-1.659,3.5-2.202,5.327c-0.324,1.127-0.674,2.281-0.674,3.435C182.458,80.118,182.614,81.129,183.47,81.583
		L183.47,81.583z M187.021,74.235L187.021,74.235c0.738-1.686,2.086-4.913,4.264-3.046c1.153,0.984,1.854,2.527,2.373,3.914
		c0.479,1.309,1.074,2.993,0.764,4.395c-0.232,1.011-2.242,0.621-2.916,0.544c-2.047-0.22-3.94-1.193-5.963-1.582
		C186.113,77.06,186.462,75.479,187.021,74.235L187.021,74.235z"/>
	<path fill="#321A1B" d="M211.271,129.046c2.929-0.803,5.483-2.942,6.779-5.702c1.191-2.554,1.115-5.34,0.557-8.049
		c-1.141-5.47-4.432-10.602-7.827-14.944c-0.339-0.441-0.662-0.778-1.077-1.127c-0.713-0.584-1.633-0.117-1.684,0.635
		c-2.399,3.551-7.13,5.417-10.967,6.908c-2.58,1.011-5.211,1.854-7.84,2.696c-1.103,0.35-2.217,0.662-3.357,0.88
		c-1.012-0.064-2.035-0.064-3.046-0.129c-2.255-0.168-4.562-0.531-6.623-1.503c-1.582-0.739-2.941,1.193-1.88,2.307
		c0.079,1.27,0.312,2.553,0.688,3.772c0.427,1.451,1.231,3.292,2.19,4.458c2.618,3.175,6.584,4.82,10.369,6.183
		c3.849,1.399,7.906,2.422,11.898,3.344C203.325,129.669,207.395,130.122,211.271,129.046L211.271,129.046z M215.263,119.948
		L215.263,119.948c-0.505,2.41-2.035,3.784-4.29,4.666c-3.099,1.231-6.728,0.7-9.901,0.052c-0.299-0.064-0.61-0.129-0.921-0.194
		c0.738-0.803,1.45-1.62,2.165-2.45c1.178-1.413,2.592-2.865,4.328-3.589c2.605-1.102,6.117-1.607,8.827-0.635
		C215.471,118.509,215.405,119.235,215.263,119.948L215.263,119.948z M198.505,109.722L198.505,109.722
		c2.682-1.102,5.301-2.347,7.672-4.045c0.154-0.103,0.311-0.219,0.467-0.348c-0.648,1.114-1.361,2.203-2.217,3.162
		c-1.75,1.983-4.043,3.448-6.508,4.343c-2.384,0.867-4.858,1.179-7.399,0.998c-0.998-0.079-1.958-0.168-2.917-0.35
		c0.674-0.169,1.349-0.364,2.009-0.569C192.606,111.99,195.601,110.914,198.505,109.722L198.505,109.722z"/>
	<path fill="#321A1B" d="M142.175,83.476c0.908-2.853,1.84-5.975,1.944-8.971c0.012-0.389-0.532-0.647-0.803-0.336
		c-2.125,2.527-2.295,6.222-1.375,9.307C141.98,83.591,142.149,83.591,142.175,83.476L142.175,83.476z"/>
	<path fill="#321A1B" d="M248.081,79.276c0.104,0.777,1.281,0.829,1.255,0c-0.037-1.633-0.154-3.267-0.387-4.873
		c-0.247-1.596-0.48-3.461-1.607-4.693c-0.377-0.402-0.971-0.065-1.012,0.428c-0.104,1.399,0.505,2.851,0.83,4.199
		C247.562,75.971,247.886,77.604,248.081,79.276L248.081,79.276z"/>
	<path fill="#321A1B" d="M359.027,152.143c-8.58-13.7-19.986-24.989-32.908-34.606c-13.791-10.292-29.084-18.729-45.52-23.966
		c-7.544-2.41-15.5-4.354-23.475-4.704c0.857-1.945,1.298-4.174,1.519-5.833c0.534-4.146-0.466-8.502-1.776-12.43
		c-1.075-3.188-2.516-6.247-4.563-8.93c-1.255-1.647-3.057-3.642-5.144-4.303c-0.882-4.199-2.348-8.256-4.211-12.118
		c-0.909-1.867-1.958-3.654-3.075-5.393c-1.125-1.75-2.487-3.564-3.55-5.197c-2.073-3.188-5.003-5.807-7.958-8.14
		c-3.007-2.397-6.196-4.509-9.604-6.299c-13.259-6.921-29.836-8.826-43.873-3.045c-4.744,1.944-8.957,4.718-12.819,8.087
		c-3.746,3.279-6.688,7.336-9.513,11.419c-2.813,4.044-5.133,8.425-7.077,12.935c-1.451,3.383-3.189,7.296-3.279,11.122
		c-0.078,0.039-0.169,0.09-0.247,0.155c-1.154,0.895-2.424,1.724-3.435,2.787c-1.023,1.049-1.854,2.268-2.58,3.525
		c-1.594,2.748-2.501,5.859-2.941,8.982c-0.881,6.157,0.634,12.948,4.108,18.172c-6.545-1.439-13.247,0.325-19.571,2.644
		c-7.479,2.747-14.633,6.649-21.476,10.732c-14.167,8.438-27.037,19.402-37.795,31.883c-21.542,24.99-34.011,58.027-35.644,90.897
		c-0.803,16.279,1.529,32.546,7.233,47.826c5.962,15.981,13.738,31.418,24.496,44.74c2.657,3.293,5.482,6.456,8.567,9.347
		c0.519,0.828,1.102,1.62,1.828,2.347c1.478,1.502,3.124,2.812,4.795,4.095c3.202,2.449,7.22,4.174,11.083,5.249
		c7.323,2.047,15.125,1.141,21.347-3.423c6.286-4.601,10.032-12.7,6.921-20.322c-1.594-3.876-4.42-7.31-8.269-9.11
		c-4.316-2.022-8.788-1.621-12.91,0.687c-1.128,0.622-2.036,1.555-2.93,2.488c-0.635-1.698-1.01-3.563-1.244-5.366
		c-0.415-3.085-0.635-6.207-0.842-9.318c-0.467-7.582,0.427-15.179,2.191-22.552c1.697-7.143,4.251-13.896,7.906-20.259
		c1.723-3.007,3.59-5.911,5.495-8.814c0.908-1.387,1.828-2.761,2.657-4.2c0.596-1.035,1.101-2.123,1.646-3.2
		c6.455,15.464,16.616,29.097,26.647,42.41c2.178,2.888,4.472,5.688,6.844,8.423c0.972,1.114,1.931,2.308,2.968,3.409
		c-4.329,2.294-7.958,6.078-10.81,9.89c-3.811,5.08-6.285,11.51-7.349,17.745c-1.167,6.726-1.024,13.503,0.194,20.206
		c1.05,5.793,3.344,11.223,6.079,16.409c-1.88-0.781-3.836-1.376-5.793-1.869c-5.172-1.295-11.16,0.105-13.623,5.314
		c-1.05,2.217-1.375,4.887-0.402,7.194c1.206,2.892,3.357,4.613,6.221,5.766c3.578,1.441,7.985,1.077,11.68,0.417
		c2.086-0.362,4.095-1.038,6.051-1.828c2.204-0.882,4.213-1.866,5.172-4.084c0.661-0.31,1.179-0.958,1.103-1.696
		c-0.065-0.687-0.117-1.323-0.247-1.944c0.311-1.076,0.596-2.165,0.946-3.24c0.648-1.957,1.556-3.812,2.567-5.6
		c1.97-3.486,4.484-6.597,7.179-9.538c5.237-5.73,10.861-11.005,17.459-15.141c6.481-4.07,13.065-6.635,20.725-7.854
		c0.985-0.156,3.332-0.349,4.965-0.441c1.918-0.103,3.85-0.154,5.767-0.22c3.721-0.117,7.441-0.063,11.146,0.117
		c1.635,0.09,3.255,0.208,4.873,0.363c0.739,0.063,1.466,0.155,2.204,0.232c0.338,0.038,0.688,0.092,1.026,0.13
		c-0.08-0.013,0.828,0.116,0.867,0.116c3.317,0.491,6.608,1.167,9.849,2.023c3.048,0.802,6.042,1.827,8.957,3.02
		c0.052,0.012,0.119,0.038,0.181,0.078c0.391,0.166,0.792,0.336,1.182,0.518c0.775,0.363,1.555,0.738,2.318,1.127
		c1.543,0.776,3.046,1.633,4.511,2.528c1.362,0.829,2.67,1.736,3.954,2.668c0.182,0.145,0.362,0.286,0.544,0.417
		c-0.298-0.22,0.623,0.492,0.623,0.505c0.685,0.558,1.36,1.127,2.021,1.712c2.604,2.318,5.016,4.898,7.258,7.567
		c1.711,2.035,3.914,5.043,5.068,7.803c0.634,1.53,1.088,3.073,1.4,4.68c0.167,0.92,0.309,1.841,0.439,2.747
		c0.13,0.829,0.491,1.557,0.854,2.281c-0.011,0.791,0.403,1.622,1.051,2.088c1.502,1.102,4.005,1.321,5.817,1.581
		c1.971,0.271,3.903,0.607,5.836,1.048c3.926,0.896,8.358,1.025,12.338,0.493c3.836-0.518,7.971-1.644,10.679-4.615
		c2.566-2.824,3.214-6.933,1.114-10.225c-2.072-3.241-6.026-4.899-9.68-5.443c-3.851-0.559-7.738-0.194-11.367,1.206
		c-0.728,0.272-1.452,0.581-2.179,0.919c1.103-2.384,2.074-4.848,2.878-7.322c2.372-7.311,2.487-15.309,1.724-22.889
		c-0.647-6.598-1.634-13.286-4.213-19.43c-1.646-3.929-4.275-8.529-7.97-11.25c1.839-1.97,3.329-4.421,4.743-6.521
		c2.438-3.627,4.55-7.451,6.792-11.198c4.614-7.672,8.902-15.539,12.882-23.562c1.984-3.992,3.812-8.102,5.522-12.249
		c0.129,0.13,0.258,0.261,0.388,0.389c1.104,1.152,1.738,2.112,2.646,3.539c1.931,3.031,3.564,6.299,5.263,9.46
		c3.603,6.689,6.775,13.506,9.085,20.738c2.464,7.712,3.565,15.488,2.969,23.564c-0.233,3.202-0.544,6.413-0.883,9.603
		c-0.141,1.323-0.413,2.54-0.764,3.746c-0.468,0.531-0.893,1.129-1.284,1.737c-0.401-0.286-0.814-0.545-1.243-0.804
		c-0.221-0.35-0.505-0.648-0.791-0.919c-1.282-1.259-2.786-2.088-4.473-2.657c-2.397-0.806-5.17-0.531-7.517,0.285
		c-4.705,1.618-8.398,5.39-10.655,9.745c-2.318,4.46-3.289,9.618-2.201,14.555c1.153,5.264,5.302,9.049,10.368,10.485
		c7.245,2.063,14.894-0.256,20.88-4.471c3.125-2.215,5.808-5.003,8.19-7.972c0.935-1.151,1.763-2.346,2.478-3.628
		c0.415-0.077,0.815-0.233,1.18-0.492c6.986-5.094,12.353-12.094,17.161-19.222c4.535-6.727,8.319-13.959,11.521-21.411
		c6.313-14.736,10.11-30.304,11.99-46.208C379.96,208.252,374.942,177.561,359.027,152.143L359.027,152.143z M236.117,45.642
		L236.117,45.642c2.761,3.979,5.159,8.166,7.464,12.404c-0.167,0.427-0.038,0.946,0.429,1.27c2.035,1.413,3.849,3.046,5.212,5.132
		c1.606,2.45,2.436,5.081,3.11,7.918c0.765,3.176,1.191,6.431,0.933,9.709c-0.116,1.425-0.544,2.929-1.179,4.212
		c-0.779,1.568-1.997,3.032-1.698,4.822v0.012c-0.364,3.63,0.506,7.362,1.063,10.927c0.568,3.693,0.971,7.4,0.582,11.133
		c-0.363,3.604-2.229,7.103-4.342,9.747c-1.088,1.361-2.28,2.645-3.538,3.85c-0.247,0.234-0.48,0.454-0.713,0.661
		c-0.016-0.22-0.038-0.427-0.079-0.583c-0.129-0.661-0.313-1.321-0.4-1.983c-0.052-0.453,0.064-0.869,0.088-1.296
		c0-0.013,0-0.013,0-0.013c0.235-0.376,0.08-0.804-0.229-1.037c-0.065-2.63-0.558-5.353-0.896-7.854
		c-0.519-3.979-1.219-7.933-1.84-11.898c-1.271-8.101-2.58-16.201-4.021-24.263c-1.438-8.114-2.862-16.176-4.056-24.314
		c-0.868-5.911-1.931-11.666-3.537-17.33C231.257,39.602,233.875,42.402,236.117,45.642L236.117,45.642z M189.017,140.31
		L189.017,140.31c-0.519-0.039-1.049-0.078-1.569-0.118c-2.035-0.414-4.198-0.504-6.13-0.75c-3.914-0.506-7.842-1.05-11.678-1.945
		c-6.118-1.438-11.6-3.304-16.759-6.687c-1.71-1.128-3.253-2.45-4.588-3.953c1.076-1.97,2.009-4.031,3.072-6
		c1.736-3.202,3.694-6.286,5.832-9.241c4.264-5.846,9.579-10.952,15.761-14.738c6.454-3.953,13.999-6.402,21.592-6.376
		c7.298,0.04,14.323,2.579,20.505,6.338c6.065,3.694,11.277,8.761,15.526,14.425c1.285,1.698,2.49,3.447,3.645,5.224
		c0.518,0.817,0.959,1.931,1.645,2.604c0.87,0.843,1.622,1.608,2.243,2.657c1.038,1.75,1.906,3.59,2.722,5.444
		c0.089,0.7,0.271,1.439,0.635,1.892c-0.363,0.259-0.726,0.518-1.115,0.79c-5.856,4.083-11.718,6.092-18.741,7.674
		c-7.374,1.659-14.037,2.618-21.659,2.955C196.313,140.66,192.659,140.569,189.017,140.31L189.017,140.31z M205.257,23.063
		L205.257,23.063c-0.143,0.519-0.299,1.011-0.492,1.491c-0.805,1.815-1.906,3.5-3.202,5.002c-2.358,2.761-5.663,4.77-9.306,5.237
		c-3.098,0.401-5.586-1.037-7.505-3.37c-2.073-2.553-2.682-5.703-4.108-8.568c-0.025-0.038-0.038-0.064-0.051-0.09
		C188.55,20.537,197.091,20.77,205.257,23.063L205.257,23.063z M173.204,25.643L173.204,25.643
		c-0.389,0.998-0.765,2.022-1.063,3.071c-0.816,2.878-1.569,5.781-2.19,8.71c-0.609,2.839-1.076,5.689-1.413,8.567
		c-0.168,1.49-0.285,2.98-0.362,4.471c-0.066,1.231-0.338,2.631,0.375,3.693c0.259,0.403,0.791,0.39,1.049,0
		c0.622-0.933,0.479-2.047,0.532-3.124c0.077-1.503,0.22-2.993,0.389-4.484c0.337-2.877,0.894-5.728,1.529-8.541
		c0.609-2.749,1.335-5.458,2.074-8.167c0.466-1.722,0.816-3.447,1.141-5.183c1.05-0.455,2.113-0.869,3.175-1.232
		c-0.013,0.117-0.026,0.234,0,0.351c0.259,1.867,1.18,3.771,1.957,5.47c0.751,1.671,1.724,3.214,2.904,4.626
		c2.32,2.787,5.768,4.135,9.358,3.733c4.314-0.493,8.151-2.735,11.066-5.886c1.531-1.646,2.762-3.576,3.721-5.598
		c0.299-0.622,0.623-1.335,0.895-2.074c0.351,0.116,0.7,0.246,1.051,0.375c0.935,2.527,1.542,5.25,2.282,7.712
		c0.945,3.163,1.58,6.416,2.099,9.668c0.285,1.711,0.505,3.435,0.714,5.146c0.181,1.387,0.114,3.175,0.956,4.329
		c0.313,0.416,1.13,0.609,1.388,0c0.597-1.359,0.208-2.876,0.065-4.329c-0.168-1.75-0.428-3.512-0.686-5.249
		c-0.532-3.628-1.271-7.232-2.308-10.744c-0.531-1.775-0.998-3.552-1.557-5.314c4.629,2.072,8.97,4.822,12.805,8.126
		c0.495,2.696,1.388,5.25,2.309,7.867c1.335,3.824,1.894,7.906,2.502,11.912c1.219,8.179,1.658,16.422,3.099,24.575
		c1.387,7.894,2.644,15.799,3.861,23.706c0.621,4.043,1.205,8.087,1.878,12.118c0.313,1.918,0.558,3.836,0.777,5.768
		c0.092,0.726,0.145,1.478,0.221,2.217c-0.233-0.454-0.466-0.92-0.686-1.387c-0.493-1.011-0.453-2.242-0.998-3.188
		c-0.532-0.945-1.089-1.879-1.658-2.799c-1.181-1.918-2.464-3.745-3.825-5.547c-3.319-4.395-7.153-8.425-11.47-11.859
		c0-0.039,0.012-0.064,0.012-0.104c0.144-7.323,0.041-14.944-2.436-21.917c-0.271-0.765-1.349-0.454-1.219,0.337
		c1.089,6.545,1.321,13.232,1.206,19.856c-0.779-0.546-1.568-1.076-2.372-1.595c-6.144-3.927-13.194-6.26-20.479-6.637
		c-7.673-0.401-15.19,1.803-21.903,5.418c-2.099,1.14-4.097,2.424-6.001,3.837c0-0.234,0-0.467,0-0.674
		c0.078-1.918,0.22-3.823,0.376-5.742c0.311-3.991,0.738-8.049,0.428-12.053c-0.091-1.141-1.686-1.141-1.776,0
		c-0.336,3.836-0.621,7.659-0.958,11.483c-0.169,1.905-0.325,3.823-0.429,5.729c-0.051,0.934-0.311,2.191-0.117,3.214
		c-3.551,2.968-6.739,6.376-9.578,10.071c-2.489,3.228-4.653,6.688-6.61,10.266c-0.194,0.348-0.39,0.711-0.583,1.075
		c-0.012-0.947-0.026-1.893,0-2.826c0.052-2.086,0.181-4.16,0.402-6.235c0.441-4.199,0.79-8.385,1.063-12.598
		c0.571-8.736,1.206-17.457,2.516-26.116c2.008-13.168,5.223-26.454,10.186-38.897c1.309-1.231,2.671-2.384,4.109-3.486
		C168.979,28.04,171.065,26.732,173.204,25.643L173.204,25.643z M138.092,77.396L138.092,77.396c0.053-2.527,0.57-5.172,1.568-7.504
		c1.024-2.397,2.567-5.055,4.498-6.804c0.376-0.35,0.532-0.726,0.505-1.102c1.478-2.268,2.333-4.886,3.514-7.336
		c1.567-3.253,3.07-6.481,4.95-9.578c1.776-2.929,3.799-5.677,6.041-8.218c-1.011,2.917-1.957,5.859-2.8,8.814
		c-2.423,8.425-4.342,17.07-5.689,25.715c-1.335,8.646-1.97,17.381-2.541,26.091c-0.286,4.394-0.623,8.787-0.882,13.18
		c-0.234,4.057-0.804,8.374-0.246,12.418c-0.221,0.454-0.415,0.908-0.61,1.374c-1.66-2.437-2.864-5.21-3.577-8.269
		c-0.92-3.941-0.816-8.089-0.647-12.119c0.089-1.996,0.182-3.992,0.246-5.988c0.026-0.868,0.091-1.919,0.013-2.955
		c0.415-0.608,0.57-1.361,0.258-2.125c-1.049-2.605-2.578-4.965-3.512-7.621C138.273,82.762,138.027,80.145,138.092,77.396
		L138.092,77.396z M42.452,288.792L42.452,288.792c-1.556-3.369-3.033-6.804-4.38-10.29c0.336-0.285,0.7-0.547,1.075-0.792
		c1.478-0.972,3.11-1.66,4.782-2.218c3.357-1.151,6.792-1.631,10.318-1.89c4.432-0.313,8.929-0.053,13.35,0.401
		c3.939,0.403,7.84,1.231,11.768,1.802c-0.091,0.31-0.181,0.622-0.272,0.933c-2.255,7.815-3.292,16.007-3.021,24.147
		c0.143,3.797,0.195,7.919,0.933,11.82c-1.671,1.074-3.435,2.034-5.236,2.916c-1.983,0.959-4.043,1.71-6.117,2.462
		c-1.063,0.374-2.139,0.714-3.215,1.023c-0.375,0.117-0.739,0.261-1.102,0.401c-2.332-2.798-4.549-5.701-6.622-8.748
		C49.983,303.828,45.977,296.414,42.452,288.792L42.452,288.792z M69.333,326.937L69.333,326.937
		c-0.376,0.104-0.79,0.168-1.204,0.195c-1.829-1.92-3.617-3.89-5.341-5.899c1.023-0.192,2.035-0.412,3.046-0.673
		c2.178-0.543,4.29-1.399,6.351-2.268c1.892-0.804,3.733-1.749,5.509-2.789c0.415,1.402,0.958,2.749,1.659,4.033
		c-0.35,0.48-0.713,0.92-1.024,1.284c-1.218,1.436-2.514,2.722-4.069,3.783C72.742,325.639,71.096,326.457,69.333,326.937
		L69.333,326.937z M87.854,321.751L87.854,321.751c0.752-0.336,1.465-0.75,2.178-1.139c-0.453,0.259,2.346-1.155,1.386-0.584
		c0.376-0.219,0.766-0.454,1.154-0.675c0.13-0.065,0.221-0.116,0.285-0.168c0.079-0.014,0.181-0.052,0.337-0.104
		c0.298-0.104,0.596-0.194,0.894-0.271c-0.116,0.037,0.648-0.093,0.778-0.093c0.104,0,0.597,0.064,0.752,0.093
		c0.285,0.064,0.557,0.154,0.842,0.247c-0.882-0.288,0.311,0.154,0.428,0.219c0.311,0.167,0.609,0.361,0.894,0.557
		c-0.389-0.246,0.505,0.402,0.557,0.452c0.208,0.194,0.402,0.39,0.596,0.6c0.027,0.024,0.533,0.619,0.558,0.619
		c0.363,0.531,0.687,1.104,0.985,1.673c-0.143-0.233,0.233,0.622,0.259,0.712c0.091,0.261,0.143,0.531,0.208,0.791
		c-0.053-0.208,0.09,0.675,0.104,0.804c0.025,0.401,0.025,0.805,0.012,1.205c0,0.105-0.051,0.598-0.064,0.754
		c-0.052,0.244-0.104,0.504-0.168,0.749c-0.091,0.365-0.207,0.728-0.337,1.078c0,0.025-0.014,0.038-0.014,0.064
		c-0.038,0.052-0.078,0.129-0.129,0.245c-0.285,0.571-0.623,1.115-0.985,1.632c0.129-0.207-0.388,0.455-0.467,0.547
		c-0.245,0.284-0.518,0.545-0.79,0.816c-0.156,0.143-1.166,0.973-1.063,0.906c-0.558,0.415-1.154,0.776-1.762,1.128
		c-0.337,0.194-0.688,0.376-1.037,0.544c-0.065,0.039-0.661,0.311-0.7,0.337c-0.609,0.233-1.244,0.44-1.866,0.622
		c-2.981,0.883-5.366,0.935-8.464,0.351c-4.043-0.766-7.945-2.216-11.691-3.992c0.025-0.273,0.013-0.557-0.026-0.829
		c1.892-0.596,3.693-1.594,5.288-2.709c2.087-1.465,4.122-3.294,5.457-5.508c0.13-0.207,0.246-0.415,0.35-0.635
		C84.42,323.165,86.184,322.527,87.854,321.751L87.854,321.751z M202.495,292.059L202.495,292.059
		c2.139,0.232,4.266,0.776,5.938,1.828c0.687,0.415,1.191,0.973,1.567,1.657c0.519,0.934,0.454,2.022,0.052,2.893
		c-1.036,2.216-3.383,3.575-5.664,4.212c-2.346,0.659-5.339,0.207-7.945-0.531c-2.396-0.688-5.145-2.166-5.741-4.77
		c-0.571-2.437,2.76-3.616,3.77-5.316C197.196,291.593,200.163,291.785,202.495,292.059L202.495,292.059z M215.522,294.533
		L215.522,294.533c4.73,0.156,9.474,0.339,14.205,0.259c5.832-0.103,11.651-1.074,17.315-2.475c2.747-0.687,5.483-1.449,8.23-2.202
		c2.853-0.792,5.769-1.427,8.581-2.348c0.322-0.103,0.646-0.219,0.971-0.35c-0.609,0.935-1.127,1.919-1.465,3.098
		c-2.281,1.18-4.757,2.101-7.192,2.942c-5.105,1.763-10.446,2.903-15.722,4.085c-5.328,1.19-10.668,2.188-16.098,2.798
		c-2.786,0.312-5.587,0.545-8.385,0.792c-0.326,0.037-0.662,0.063-1.001,0.09c0.353-0.739,0.624-1.504,0.793-2.308
		C216.054,297.45,215.964,295.946,215.522,294.533L215.522,294.533z M186.982,301.857L186.982,301.857
		c-2.282-0.221-4.575-0.439-6.857-0.688c-5.236-0.597-10.408-1.763-15.553-2.903c-4.537-1.013-9.125-1.893-13.623-3.123
		c-0.908-0.247-1.801-0.506-2.696-0.793c-0.648-1.93-1.879-3.381-3.279-4.91c4.458,1.452,9.046,2.152,13.712,2.735
		c5.159,0.649,10.331,1.36,15.527,1.333c2.605,0,5.223-0.154,7.829-0.051c1.49,0.065,2.89,0.129,4.303,0.092
		c-0.169,0.337-0.324,0.673-0.455,1.022C184.895,297.036,185.568,299.705,186.982,301.857L186.982,301.857z M129.5,367.245
		L129.5,367.245c-1.491,0.647-3.034,1.141-4.602,1.556c-1.595,0.416-3.175,0.609-4.809,0.634c-0.855,0.014-1.698-0.052-2.553-0.128
		c0.324,0.051,0.272,0.051-0.156-0.026c-0.337-0.052-0.674-0.143-1.011-0.221c-0.116-0.037-0.895-0.323-0.868-0.284
		c-0.26-0.131-0.52-0.285-0.766-0.454c0.26,0.169-0.09-0.116-0.363-0.351c-0.078-0.117-0.284-0.375-0.388-0.543
		c-0.039-0.144-0.078-0.286-0.117-0.428c0-0.143,0-0.272,0-0.416c0-0.05,0-0.09,0-0.128c0.013-0.054,0.027-0.119,0.052-0.222
		c0.039-0.155,0.208-0.595,0.26-0.752c0.09-0.154,0.193-0.324,0.285-0.479c0.026-0.012,0.04-0.038,0.052-0.052
		c0.09-0.117,0.193-0.232,0.311-0.336c0.104-0.116,0.233-0.233,0.35-0.338l0,0c0.026-0.014,0.064-0.038,0.104-0.065
		c0.143-0.104,0.973-0.519,0.829-0.479c0.351-0.13,0.713-0.246,1.076-0.337c0.195-0.054,0.389-0.103,0.57-0.131
		c0.052-0.012,0.09-0.024,0.13-0.036c0.052,0,0.117,0,0.221-0.014c1.036-0.08,2.074,0.05,3.097,0.181
		c1.724,0.207,4.498,0.843,6.559,1.45c1.036,0.312,2.138,0.676,3.215,1.114c0.128,0.196,0.258,0.391,0.388,0.585
		C130.743,366.728,130.121,366.973,129.5,367.245L129.5,367.245z M142.965,344.837L142.965,344.837
		c-2.424,3.252-4.562,6.713-6.221,10.42c-0.804,1.787-1.49,3.629-2.021,5.509c-0.713-1.362-1.413-2.735-2.087-4.123
		c-1.789-3.693-3.202-7.567-4.07-11.573c-0.7-3.214-0.985-5.508-1.114-8.879c-0.064-1.529-0.039-3.06,0.026-4.586
		c0.039-0.767,0.103-1.531,0.167-2.296c0.039-0.389,0.078-0.766,0.117-1.142c0.025-0.22,0.051-0.336,0.051-0.375
		c0.027-0.168,0.052-0.337,0.078-0.505c0.466-3.111,1.219-6.208,2.256-9.177c0.064-0.194,0.142-0.39,0.207-0.572
		c1.633,0.429,3.254,0.909,4.848,1.506c2.618,0.973,4.834,2.655,6.973,4.419c2.165,1.775,4.29,3.616,6.143,5.729
		c0.765,0.882,1.413,1.854,1.983,2.865c0.493,0.88,0.907,1.789,1.517,2.527C148.604,337.759,145.661,341.208,142.965,344.837
		L142.965,344.837z M160.139,327.468L160.139,327.468c-1.167,0.856-2.294,1.751-3.409,2.669c-0.751-1.813-2.177-3.511-3.305-4.819
		c-2.086-2.426-4.679-4.446-7.31-6.259c-2.734-1.896-5.469-3.565-8.723-4.422c-1.788-0.466-3.629-0.647-5.457-0.66
		c0.623-1.232,1.322-2.438,2.086-3.59c0.999-1.543,1.297-1.907,2.27-3.047c1.037-1.23,2.203-2.372,3.409-3.435
		c0.958-0.844,1.867-1.557,2.787-2.229c0.116,0.025,0.233,0.052,0.35,0.079c2.086,0.491,4.018,1.061,5.922,2.086
		c3.357,1.815,6.391,4.185,9.722,6.053c3.447,1.915,6.985,4.056,9.772,6.883c1.154,1.166,2.203,2.631,3.33,4.004
		C167.54,322.582,163.703,324.851,160.139,327.468L160.139,327.468z M204.519,315.622L204.519,315.622
		c-7.752-0.182-15.723,0.115-23.305,1.892c-1.166,0.286-2.319,0.597-3.473,0.959c-0.688-0.608-1.414-1.206-2.035-1.866
		c-1.283-1.36-2.502-2.774-3.875-4.042c-3.124-2.879-7.076-5.057-10.875-6.922c-3.421-1.686-6.649-3.747-10.097-5.394
		c-1.296-0.62-2.618-1.138-4.005-1.478c0.298-0.141,0.557-0.323,0.791-0.557c0.311,0.116,0.622,0.233,0.946,0.35
		c4.588,1.697,9.526,2.646,14.295,3.76c5.327,1.27,10.654,2.503,16.084,3.251c2.813,0.391,5.665,0.651,8.503,0.96
		c1.491,0.156,2.981,0.3,4.485,0.391c0.44,0.038,0.907,0.076,1.386,0.102c5.056,2.451,11.133,2.685,16.112-0.166
		c0.375-0.222,0.738-0.454,1.101-0.7c1.788,0.258,3.759,0.037,5.406-0.092c2.798-0.232,5.599-0.466,8.385-0.753
		c5.677-0.594,11.328-1.567,16.939-2.591c0.596-0.103,1.192-0.207,1.788-0.313c-3.5,2.398-6.815,5.107-9.85,8.063
		c-1.828,1.774-3.551,3.629-5.041,5.69c-0.441,0.609-0.934,1.333-1.336,2.125C219.527,316.581,211.959,315.805,204.519,315.622
		L204.519,315.622z M265.1,342.45L265.1,342.45c-3.514-4.952-7.819-9.203-12.689-12.778c1.164-1.492,2.281-3.021,3.733-4.316
		c2.214-2.01,4.782-3.591,7.516-4.808c2.542-1.129,5.433-1.736,8.165-1.959c1.102-0.077,2.479-0.077,3.501,0.026
		c0.169,1.478,0.297,2.969,0.413,4.446c0.533,6.829,0.233,13.479-1.32,20.075c-0.805,3.384-2.088,6.612-3.305,9.852
		c-0.274,0.739-0.533,1.464-0.792,2.203c-0.155-0.687-0.312-1.36-0.467-1.996C268.96,349.321,267.406,345.703,265.1,342.45
		L265.1,342.45z M282.699,358.91L282.699,358.91c2.709-0.854,4.679-1.164,7.362-1.05c0.26,0.026,0.518,0.04,0.777,0.065
		c0.077,0.016,0.181,0.04,0.323,0.066c0.74,0.115,1.451,0.322,2.165,0.558c0.962,0.31,1.738,0.699,2.332,1.229
		c-0.012,0.025-0.025,0.04-0.05,0.064c-0.065,0.064-0.118,0.119-0.144,0.156c-0.039,0.026-0.063,0.038-0.104,0.065
		c-0.116,0.09-1.181,0.621-0.908,0.53c-0.752,0.286-1.516,0.519-2.28,0.727c-1.671,0.467-2.865,0.519-4.653,0.569
		c-3.214,0.079-6.39-0.285-9.617-0.063c-0.608,0.037-1.219,0.091-1.827,0.155C278.176,360.766,280.354,359.675,282.699,358.91
		L282.699,358.91z M274.391,312.551L274.391,312.551c-0.855-0.027-1.71-0.015-2.566,0.064c-3.706,0.298-7.192,1.49-10.483,3.175
		c-3.112,1.595-6.028,3.81-8.284,6.481c-1.308,1.541-2.695,3.408-3.498,5.429c-0.584-0.375-1.167-0.751-1.764-1.113
		c-4.873-2.969-10.121-5.21-15.565-6.856c0.168-0.323,0.337-0.623,0.518-0.895c1.18-1.71,2.748-3.176,4.199-4.628
		c3.356-3.329,7.089-6.247,11.057-8.8c3.436-2.229,7.036-4.227,10.887-5.599c1.867-0.674,3.811-1.373,5.769-1.724
		c1.218-0.221,2.604-0.026,3.862-0.221c0.219,0.271,0.426,0.571,0.637,0.854c0.723,1.063,1.344,2.217,1.902,3.371
		c0.325,0.646,0.61,1.321,0.896,1.997c-0.131-0.313-0.105-0.235,0.077,0.22c0.169,0.415,0.31,0.829,0.465,1.243
		C273.302,307.832,273.911,310.178,274.391,312.551L274.391,312.551z M331.253,318.705L331.253,318.705
		c-0.326,0.416-0.599,0.857-0.793,1.312c-1.18-0.364-2.307-0.87-3.433-1.428c-1.984-0.971-3.695-2.371-4.94-4.146
		c0.039-0.091,0.092-0.17,0.117-0.271c0.662-1.606,2.021-3.099,2.321-4.809c1.594,1.632,3.692,2.823,5.729,3.744
		c1.347,0.609,2.787,1.179,4.25,1.621C333.403,316.037,332.314,317.358,331.253,318.705L331.253,318.705z M301.286,331.11
		L301.286,331.11C301.233,331.059,301.222,331.046,301.286,331.11L301.286,331.11z M327.481,324.695L327.481,324.695
		c-2.464,2.526-5.198,4.705-8.206,6.557c-2.772,1.699-5.95,2.841-8.814,3.048c-1.723,0.114-3.083-0.029-4.431-0.325
		c-0.585-0.143-1.155-0.323-1.725-0.519c-0.012-0.012-0.025-0.012-0.053-0.026c-0.012,0-0.026-0.013-0.051-0.013
		c-0.325-0.156-0.635-0.337-0.944-0.505c-0.223-0.13-0.43-0.285-0.649-0.429l0,0c-0.378-0.311-0.714-0.647-1.038-1.012
		c-0.027-0.024-0.066-0.065-0.104-0.114c-0.091-0.131-0.18-0.273-0.271-0.417c-0.13-0.207-0.504-1.009-0.582-1.14
		c-0.104-0.312-0.195-0.623-0.284-0.946c-0.055-0.193-0.171-0.895-0.209-1.076c-0.078-0.907-0.064-1.828,0.014-2.749
		c0.013-0.024,0.013-0.076,0.024-0.128c0.025-0.193,0.065-0.388,0.091-0.582c0.104-0.52,0.233-1.011,0.364-1.518
		c0.142-0.491,0.31-0.997,0.492-1.478c0.026-0.104,0.063-0.194,0.103-0.284c0.026-0.025,0.259-0.571,0.326-0.712
		c0.452-0.936,0.999-1.829,1.593-2.683c0.039-0.066,0.115-0.171,0.183-0.261c0.103-0.131,0.205-0.247,0.311-0.376
		c0.388-0.454,0.803-0.868,1.231-1.283c0.181-0.168,0.362-0.337,0.557-0.493c0.05-0.039,0.09-0.077,0.117-0.115
		c0.025-0.014,0.038-0.027,0.065-0.04c0.466-0.337,0.944-0.623,1.45-0.894c0.181-0.104,0.377-0.194,0.559-0.285
		c0.063-0.026,0.14-0.052,0.257-0.091c0.417-0.144,0.83-0.247,1.246-0.338c-0.416,0.091,0.922-0.077,1.257-0.064
		c0.583,0,1.154-0.013,1.736,0.037c0.078,0.015,0.247,0.027,0.375,0.054c0.326,0.053,0.636,0.143,0.96,0.259
		c-0.284-0.104,1.283,0.597,1.311,0.608c0.49,0.131,0.97,0.104,1.437,0.039c0.545,0.105,1.091,0.222,1.659,0.247
		c0.13,0,0.272-0.013,0.404-0.038c0.168,0.153,0.334,0.31,0.504,0.479c0.415,0.403,0.881,0.584,1.336,0.611
		c0.906,2.163,2.644,4.004,4.548,5.429c1.167,0.868,2.605,1.687,4.124,2.295C328.322,323.839,327.906,324.268,327.481,324.695
		L327.481,324.695z M343.111,304.152L343.111,304.152c-1.957,2.722-4.213,5.402-6.521,8.111c-1.553-0.298-3.084-0.71-4.601-1.256
		c-2.553-0.907-5.442-2.307-6.985-4.666c0.712-3.228,1.271-6.519,1.931-9.772c0.907-4.367,1.544-8.853,1.362-13.324
		c-0.183-4.33-0.728-8.58-1.714-12.792c-0.776-3.293-1.852-6.52-3.082-9.684c2.655-0.831,5.609-1.167,8.293-1.334
		c4.084-0.261,8.18,0.272,12.146,1.22c3.978,0.944,7.854,2.331,11.47,4.238c1.672,0.879,3.267,1.89,4.771,3.019
		c0.246,0.182,0.492,0.389,0.725,0.61c-1.658,5.08-3.563,10.03-5.65,14.579C351.886,290.49,347.841,297.554,343.111,304.152
		L343.111,304.152z M367.451,239.579L367.451,239.579c-0.013,0.09-0.024,0.155-0.024,0.22c-0.013,0.091-0.039,0.207-0.066,0.39
		c-0.051,0.453-0.116,0.894-0.181,1.349c-0.143,0.896-0.285,1.788-0.429,2.669c-0.311,1.944-0.674,3.888-1.062,5.807
		c-0.739,3.746-1.62,7.453-2.606,11.133c-0.284,1.052-0.569,2.114-0.88,3.163c-1.491-1.114-3.073-2.085-4.719-2.956
		c-4.017-2.149-8.41-3.706-12.87-4.665c-4.432-0.945-9.034-1.361-13.558-0.919c-3.122,0.297-5.938,1.179-8.478,2.747
		c-1.62-3.863-3.473-7.635-5.352-11.342c-1.697-3.355-3.409-6.728-5.443-9.89c-1.581-2.45-3.783-5.678-6.584-7.179
		c0.711-1.88,1.398-3.76,2.074-5.64c3.07-8.502,5.56-17.2,7.53-26.012c1.088-4.938,1.971-9.89,2.605-14.893
		c0.661-5.093,0.57-10.2,0.595-15.319c0-0.843-1.374-1.076-1.518-0.195c-0.698,4.317-1.774,8.619-2.839,12.858
		c-1.086,4.328-1.979,8.697-3.136,13.013c-2.333,8.735-5.327,17.277-8.644,25.688c-6.557,16.604-14.944,32.648-24.109,47.957
		c-2.345,3.9-4.652,7.829-7.075,11.664c-0.195,0.298-0.388,0.596-0.583,0.909c-0.156,0.09-0.298,0.18-0.454,0.271
		c-2.217,1.283-4.472,2.502-6.896,3.357c-2.607,0.92-5.365,1.517-8.009,2.281c-2.917,0.856-5.819,1.71-8.748,2.488
		c-5.549,1.479-11.097,2.644-16.839,2.969c-4.925,0.283-9.837,0.077-14.71,0.751c-0.532-0.829-1.206-1.568-1.997-2.19
		c-4.757-3.681-11.521-3.9-17.069-2.072c-1.179,0.388-2.332,0.867-3.395,1.45c-0.972,0.064-1.958,0.441-2.749,0.868
		c-0.44,0.22-0.83,0.518-1.18,0.844c-1.879-0.145-3.758-0.532-5.599-0.818c-2.54-0.388-5.119-0.505-7.672-0.712
		c-5.223-0.44-10.356-1.285-15.553-1.918c-4.874-0.596-9.683-1.387-14.323-3.073c-2.138-0.777-4.225-1.671-6.338-2.515
		c-2.28-2.799-4.406-5.702-6.558-8.594c-5.353-7.219-10.745-14.424-15.566-22.007c-9.734-15.269-16.033-32.572-21.477-49.756
		c-0.946-2.995-1.75-6.028-2.708-9.009c-0.947-2.942-1.919-5.884-2.515-8.905c-0.168-0.803-1.555-0.635-1.451,0.194
		c0.582,4.459,0.79,8.93,1.581,13.364c0.802,4.588,1.828,9.111,2.98,13.611c2.307,8.927,5.159,17.704,8.4,26.335
		c0.129,0.363,0.271,0.725,0.414,1.088c-1.049,1.387-2.359,2.671-3.486,3.995c-1.179,1.371-2.242,2.823-3.344,4.263
		c-2.229,2.876-4.433,5.793-6.428,8.839c-3.461,5.289-6.028,11.043-8.023,17.018c-4.317-1.335-8.905-2.112-13.325-2.697
		c-4.575-0.594-9.215-0.984-13.804-0.438c-3.849,0.438-7.802,1.386-11.418,2.772c-1.801,0.686-3.551,1.529-5.119,2.655
		c-0.013,0.014-0.013,0.014-0.013,0.014c-1.024-2.851-1.945-5.742-2.748-8.645c-2.113-7.687-3.214-15.189-3.629-23.071
		c-0.83-16.266,1.581-32.272,6.325-47.813c4.692-15.346,11.781-29.966,21.282-42.965c9.461-12.962,21.281-24.303,34.412-33.543
		c6.479-4.576,13.284-8.632,20.284-12.352c6.986-3.708,13.984-6.74,21.904-7.648c0.7-0.078,1.412-0.117,2.125-0.117
		c-0.232,1.97-0.48,3.927-0.662,5.897c-0.388,4.484-0.363,8.904,0.441,13.337c1.361,7.57,5.807,13.764,11.821,18.366
		c5.391,4.146,12.041,6.558,18.573,8.191c4.187,1.049,8.476,1.607,12.753,2.177c2.282,0.311,4.938,0.907,7.466,0.907
		c1.607,0.22,3.214,0.402,4.834,0.544c4.588,0.441,9.099,0.312,13.674-0.194c7.35-0.829,14.725-1.75,21.879-3.667
		c7.167-1.932,13.921-5.016,19.662-9.734c6.273-5.146,11.314-12.611,11.626-20.907c0.155-3.914-0.815-7.841-1.867-11.6
		c-0.558-1.983-1.152-3.953-1.67-5.949c-0.247-0.947-0.454-1.893-0.676-2.838c7.245,1.541,14.464,3.135,21.49,5.547
		c7.958,2.721,15.566,6.324,22.954,10.355c14.398,7.868,28.216,17.899,39.506,29.836c2.41,2.567,5.198,5.832,7.024,8.217
		c2.256,2.943,4.354,6.014,6.299,9.177c3.848,6.221,6.947,12.688,9.279,18.986c2.528,6.78,4.383,13.805,5.69,20.908
		c0.311,1.711,0.584,3.435,0.829,5.159c0.014,0.078,0.014,0.143,0.026,0.193c0.012,0.079,0.025,0.209,0.041,0.377
		c0.064,0.44,0.114,0.867,0.165,1.309c0.118,1.012,0.222,2.021,0.326,3.045c0.338,3.644,0.532,7.311,0.596,10.98
		C368.867,224.751,368.399,232.205,367.451,239.579L367.451,239.579z"/>
	<path fill="#321A1B" d="M150.172,215.187c-2.93,0.271-5.756,1.181-8.71,1.387c-3.136,0.219-6.351-0.026-9.449-0.545
		c-6.117-1.035-12.132-3.409-17.069-7.206c-0.908-0.7-2.127,0.868-1.232,1.582c5.094,4.122,11.264,6.713,17.64,8.01
		c3.331,0.674,6.727,0.92,10.109,0.699c3.046-0.195,6.61-0.608,9.099-2.502C151.092,216.21,151.027,215.109,150.172,215.187
		L150.172,215.187z"/>
	<path fill="#321A1B" d="M287.767,205.012c-1.179,0.453-2.034,1.438-2.928,2.309c-0.985,0.945-2.075,1.762-3.201,2.525
		c-2.281,1.53-4.771,2.785-7.312,3.811c-6.636,2.645-13.816,2.152-20.842,2.294c-1.113,0.025-1.103,1.672,0,1.712
		c4.018,0.13,7.972,0.935,12.003,1.023c3.473,0.092,6.921-0.389,10.162-1.646c2.876-1.114,5.65-2.502,8.229-4.184
		c2.072-1.364,5.663-3.671,5.677-6.482C289.556,205.516,288.635,204.687,287.767,205.012L287.767,205.012z"/>
	<path fill="#321A1B" d="M201.952,258.813c-1.971-0.532-4.979,0.544-4.809,2.981c0.064,0.896,0.647,1.412,1.516,1.516
		c0.727,0.076,1.4-0.142,2.048-0.467c-0.285,0.13-0.077,0.052,0.117-0.013c-0.052,0.052,0.283,0.064,0.233,0.027
		c0.014,0,0.014,0,0.026,0.012c0.078,0.039,0.128,0.067,0.155,0.079c0.012,0.012,0.025,0.037,0.078,0.063
		c0.037,0.054,0.271,0.313,0.311,0.352c0.141,0.193,0.26,0.415,0.361,0.622c-0.18-0.363,0.208,0.959,0.222,0.764
		c0.013,0.22,0.013,0.441,0.013,0.662c-0.013,0.026-0.013,0.039-0.013,0.064c-0.025,0.155-0.077,0.31-0.116,0.467
		c-0.064,0.181-0.221,0.4-0.506,0.673c-0.271,0.259-0.855,0.481-1.426,0.611c-3.007,0.75-5.432-0.443-6.065-3.463
		c-0.571-2.721,0.803-6.324,3.317-7.608c1.075-0.545,0.324-2.345-0.816-1.943c-4.551,1.581-6.506,6.222-5.871,10.757
		c0.738,5.263,6.416,7.065,10.99,5.871c4.096-1.062,5.418-5.327,3.812-8.914C204.881,260.446,203.507,259.227,201.952,258.813
		L201.952,258.813z M200.889,262.807L200.889,262.807L200.889,262.807c-0.013,0-0.026,0-0.04-0.014
		C200.862,262.807,200.876,262.807,200.889,262.807L200.889,262.807z M200.901,262.807L200.901,262.807L200.901,262.807
		c0.039,0.012,0.079,0.012,0.104,0.024c0.014,0,0.025,0.013,0.039,0.013C201.019,262.831,200.98,262.818,200.901,262.807
		L200.901,262.807z"/>
</g>
</svg>
