<?xml version="1.0" encoding="utf-8"?>
<!-- Generator: Adobe Illustrator 16.0.0, SVG Export Plug-In . SVG Version: 6.00 Build 0)  -->
<!DOCTYPE svg PUBLIC "-//W3C//DTD SVG 1.1//EN" "http://www.w3.org/Graphics/SVG/1.1/DTD/svg11.dtd">
<svg version="1.1" id="Layer_1" xmlns="http://www.w3.org/2000/svg" xmlns:xlink="http://www.w3.org/1999/xlink" x="0px" y="0px"
	 width="400px" height="400px" viewBox="0 0 400 400" enable-background="new 0 0 400 400" xml:space="preserve">
<g>
	<path fill-rule="evenodd" clip-rule="evenodd" fill="#E4D0AA" d="M200.006,389.639c71.122,0,129.133-8.114,129.133-18.067
		s-58.011-18.067-129.133-18.067c-71.134,0-129.145,8.114-129.145,18.067S128.872,389.639,200.006,389.639L200.006,389.639z"/>
	<path fill-rule="evenodd" clip-rule="evenodd" fill="#321A1B" d="M278.209,285.696c4.557-7.234,8.785-14.666,12.726-22.252
		c7.974-15.369,14.799-31.4,19.949-47.936c5.109-16.383,8.414-33.371,9.414-50.513c0.98-16.713-0.605-33.459-4.26-49.786
		c-3.448-15.381-8.896-30.322-15.931-44.414c-7.035-14.071-15.723-27.349-26.413-38.919c-1.586-1.717-3.215-3.369-4.922-4.933
		c-0.165-0.264-0.396-0.483-0.693-0.638c-0.637-0.562-1.277-1.123-1.928-1.662c-2.19-4.019-3.974-8.28-7.179-11.683
		c-4.093-4.337-10.038-6.759-15.951-7.068c-5.208-0.274-10.966,1.663-13.477,6.54c-3.115,6.067-0.759,13.63,3.171,18.717
		c3.138,4.063,7.255,7.332,12.089,9.126c0.902,0.331,1.839,0.529,2.774,0.694c0.617,0.099,1.234,0.165,1.851,0.199
		c0.782,0.043,0.33-0.034,1.111,0.087c0.934,0.144,1.893,0.364,2.796,0.617c0.815,0.231,1.509,0.869,2.413,1.101
		c0.196,0.044,0.396,0.055,0.582,0.044c0.064,1.123,0.12,2.246,0.132,3.368c0.044,3.667-0.187,7.323-0.55,10.956
		c-0.705,7.178-1.3,14.28-3.293,21.227c-2.137,7.498-5.098,14.698-8.104,21.866c-1.396,3.325-2.553,6.804-4.139,10.04
		c-1.442,2.963-3.249,5.528-5.329,7.917c-0.573,0.649-1.179,1.266-1.783,1.894c-0.043-0.133-0.077-0.265-0.12-0.396
		c-1.004-2.962-2.28-5.88-3.634-8.699c-0.683-1.419-1.476-2.752-2.434-4.007c-0.814-1.08-1.839-2.378-3.095-3.028
		c-0.34-1.254-0.99-2.455-1.431-3.666c-0.529-1.42-0.969-2.841-1.53-4.239c-1.245-3.038-2.542-5.99-4.37-8.731
		c-3.469-5.197-8.433-9.589-14.015-12.386c-5.363-2.675-11.121-3.831-17.045-4.327c-3.677-0.296-7.333,0.078-10.921,0.859
		c-1.42,0.308-2.818,0.737-4.206,1.189c-1.255,0.198-2.51,0.44-3.743,0.759c-7.399,1.917-14.225,5.913-19.112,11.825
		c-2.5,3.017-4.272,6.396-5.946,9.909c-1.574,3.314-3.147,6.892-3.71,10.547l0,0c-0.308-1.222-0.87-2.278-1.376-3.49
		c-0.54-1.309-0.969-2.664-1.344-4.019c-0.836-3.039-1.387-6.187-1.903-9.292c-1.047-6.23-1.619-12.518-1.972-18.837
		c-0.363-6.451-0.341-12.848-0.088-19.3c0.11-2.73,0.254-5.449,0.254-8.191c0-0.583-0.012-1.2,0-1.827
		c0.241,0.01,0.495-0.011,0.77-0.1c0.44-0.121,0.495-0.088,1.101,0.11c0.21,0.077,0.903,0.617,1.278,0.871
		c1.408,0.979,3.191,1.794,4.942,1.662c3.149-0.231,6.078-1.409,8.753-3.039c5.296-3.248,9.974-8.466,11.869-14.445
		c1.694-5.34,0.077-11.164-4.725-14.224c-4.019-2.565-9.533-2.554-13.971-1.288c-2.423,0.704-4.558,1.894-6.528,3.435
		c-2.421,1.872-3.887,4.756-5.197,7.443c-1.354,2.797-2.773,5.373-4.777,7.762c-0.914,1.09-1.971,2.19-2.896,3.347
		c-0.154,0.066-0.309,0.121-0.451,0.187c-0.342,0.154-0.408,0.506-0.309,0.815c-0.386,0.55-0.727,1.112-1.013,1.707
		c-8.489,7.42-13.939,18.353-18.959,28.196c-7.277,14.269-14.181,28.646-18.034,44.269c-3.886,15.766-4.107,32.325-3.909,48.488
		c0.198,16.117,1.63,32.236,4.823,48.045c3.192,15.777,8.334,31.147,15.646,45.504c7.43,14.566,16.756,28.284,26.929,41.066
		c2.444,3.061,4.966,6.066,7.553,9.007c1.706,1.959,3.413,3.874,5.263,5.658c-0.076,0.012-0.154,0.032-0.231,0.056
		c-2.642,0.692-5.118,2.268-7.287,3.875c-4.141,3.082-7.852,6.749-11.021,10.823c-4.493,5.779-7.213,12.616-8.169,19.86
		c-0.805,6.1-0.431,12.705,2.003,18.429c-4.371-1.572-9.27-2.454-13.85-1.353c-2.677,0.638-5.219,2.19-6.243,4.845
		c-1.035,2.686,0.055,5.58,1.895,7.595c1.772,1.95,4.436,3.073,6.88,3.875c2.279,0.75,4.69,1.157,7.069,1.365
		c2.652,0.243,5.208,0.09,7.839-0.374c1.198-0.208,2.389-0.528,3.567-0.868c1.408-0.409,2.982-0.815,4.205-1.652
		c0.011,0,0.011-0.01,0.022-0.021c0.562-0.056,1.079-0.418,1.255-1.102c0.661-2.686,0.748-5.426,1.32-8.124
		c0.495-2.4,1.234-4.515,2.379-6.563c2.301-4.117,5.691-6.869,9.964-9.039c1.232-0.628,1.816-0.869,3.182-1.376
		c1.465-0.539,2.961-1.001,4.459-1.453c3.589-1.078,7.311-1.816,11.021-2.278c7.838-0.97,15.732-0.947,23.615-0.926
		c8.235,0.033,16.46,0.298,24.695,0.408c8.225,0.098,16.459,0.011,24.693,0.165c7.575,0.153,15.15,0.605,22.593,2.037
		c3.831,0.749,7.598,1.749,11.296,3.016c1.388,0.474,2.763,1.024,4.129,1.552c0.518,0.199,1.034,0.409,1.552,0.618
		c0.033,0.01,0.376,0.153,0.495,0.208c0.309,0.133,0.617,0.265,0.924,0.397c1.862,0.824,3.689,1.751,5.439,2.797
		c1.806,1.089,2.896,1.871,4.351,3.335c1.09,1.113,2.048,2.478,2.574,3.843c0.65,1.695,0.628,3.622,0.541,5.404
		c-0.033,0.585,0.275,0.947,0.682,1.092c0.078,0.087,0.166,0.153,0.265,0.208c0.1,0.331,0.265,0.629,0.474,0.87
		c1.289,1.563,3.457,1.838,5.328,2.137c1.973,0.318,3.954,0.518,5.946,0.539c1.806,0.022,3.59-0.264,5.362-0.628
		c3.38-0.683,7.807-1.872,9.855-4.879c1.099-1.606,0.593-3.808-0.873-4.985c-2.169-1.74-5.207-2.631-7.916-2.94
		c-2.498-0.285-4.953-0.044-7.276,0.604c1.111-2.013,1.982-4.161,2.708-6.352c1.862-5.614,1.827-11.825,0.164-17.472
		c-3.347-11.373-12.606-20.28-22.789-25.797c-2.994-1.63-6.199-3.093-9.491-4.017c-0.88-0.254-1.762-0.463-2.653-0.641
		c1.542-1.959,3.029-3.952,4.46-6.022C273.539,292.95,275.908,289.352,278.209,285.696L278.209,285.696z"/>
	<path fill-rule="evenodd" clip-rule="evenodd" fill="#F9BF9B" d="M181.532,294.15c4.184-0.297,6.462-6.044,6.507-9.566
		c0.064-5.064-4.404-8.753-8.963-9.854c-0.968-0.23-1.365,1.211-0.407,1.486c3.645,1.057,6.573,3.766,6.826,7.706
		c0.132,1.939-0.638,3.743-1.696,5.318c-0.374,0.572-0.847,1.079-1.364,1.519c-0.231,0.188-0.771,0.396-0.761,0.396
		c-0.561,0.068-0.858-0.164-1.111-0.516c-0.483-0.661-0.616-1.233-0.639-1.905c-0.021-0.605-0.032-0.475,0.11-0.98
		c0.077-0.297,0.198-0.451,0.342-0.594c0.144-0.155,0.362-0.275,0.714-0.409c0.64-0.241,1.168-0.461,1.665-0.945
		c0.45-0.43,0.483-1.267,0-1.695c-1.455-1.288-3.359-0.617-4.669,0.54c-1.078,0.957-1.52,2.521-1.52,3.93
		C176.587,291.211,178.614,294.36,181.532,294.15L181.532,294.15z"/>
	<path fill-rule="evenodd" clip-rule="evenodd" fill="#F9BF9B" d="M208.308,232.044c8.005,2.688,16.438,4.053,24.905,3.381
		c8.179-0.651,16.932-3.654,22.403-9.986c0.461-0.539-0.122-1.354-0.771-1.001c-3.566,1.927-7.177,4.029-10.943,5.548
		c-3.545,1.432-7.29,2.246-11.087,2.665c-8.06,0.892-16.239-0.506-24.178-1.806C207.856,230.713,207.537,231.78,208.308,232.044
		L208.308,232.044z"/>
	<path fill-rule="evenodd" clip-rule="evenodd" fill="#F9BF9B" d="M133.705,234.863c-2.488-0.045-4.955,0.606-7.442,0.771
		c-3.082,0.199-6.242,0.076-9.304-0.363c-2.917-0.419-5.834-1.156-8.478-2.455c-1.209-0.584-2.313-1.321-3.347-2.158
		c-0.527-0.416-1.001-0.902-1.452-1.409c-0.452-0.505-1.091-0.892-1.466-1.453c-0.274-0.418-1.023-0.165-0.847,0.353
		c0.474,1.354,0.781,2.323,1.751,3.445c0.979,1.123,2.224,2.005,3.5,2.753c2.775,1.618,5.956,2.544,9.095,3.126
		c3.291,0.607,6.638,0.806,9.975,0.651c2.741-0.122,6.088-0.221,8.39-1.852C134.675,235.844,134.498,234.875,133.705,234.863
		L133.705,234.863z"/>
	<path fill-rule="evenodd" clip-rule="evenodd" fill="#F9BF9B" d="M279.65,315.025L279.65,315.025
		c-0.616,0.165-1.232,0.353-1.839,0.551c-4.041,1.354-7.586,3.742-10.559,6.77c-2.554,2.61-5.021,5.308-7.123,8.29
		c-1.287,1.828-2.641,4.163-3.083,6.519c-5.69-1.243-11.493-1.981-17.328-2.378c0.077-0.252,0.153-0.496,0.232-0.716
		c0.703-1.993,1.628-3.876,2.641-5.713c1.827-3.325,4.03-6.431,6.573-9.249c2.498-2.741,5.35-5.118,8.586-6.925
		c3.162-1.75,7.015-3.259,10.668-3.183c0.035,0,0.067-0.011,0.102-0.011c1.837,0.771,3.688,1.619,5.636,2.665
		C276.127,312.702,277.933,313.815,279.65,315.025L279.65,315.025z M251.531,35.225L251.531,35.225
		c-1.232-0.385-2.467-0.749-3.688-1.134c-0.043-0.012-0.605-0.231-0.585-0.209c-0.263-0.121-0.528-0.252-0.792-0.374
		c-0.78-0.386-1.563-0.793-2.313-1.246c-2.422-1.441-4.768-3.654-6.317-5.9c-0.838-1.2-1.544-2.565-1.907-3.568
		c-0.254-0.704-0.439-1.431-0.605-2.157c0,0-0.109-0.771-0.12-0.727c-0.045-0.44-0.055-0.87-0.055-1.299
		c-0.012-0.341,0.01-0.672,0.031-1.013c0.013-0.033,0.013-0.066,0.013-0.1c0.011-0.044,0.021-0.109,0.044-0.208
		c0.055-0.286,0.132-0.571,0.209-0.859c0.032-0.077,0.154-0.407,0.188-0.505c0.131-0.254,0.273-0.496,0.428-0.738
		c0,0.011,0.242-0.309,0.331-0.408c0.144-0.154,0.299-0.297,0.463-0.439c0.065-0.056,0.296-0.242,0.385-0.297
		c0.209-0.144,0.44-0.276,0.66-0.396c0.132-0.077,0.264-0.143,0.407-0.198c-0.251,0.11,0.319-0.122,0.441-0.176
		c0.518-0.177,1.046-0.297,1.563-0.408c0.219-0.043,0.429-0.077,0.648-0.109c-0.562,0.087,0.484-0.034,0.65-0.044
		c1.134-0.078,2.278-0.011,3.402,0.11c0.021,0,0.021,0,0.031,0.011c0.056,0,0.122,0.011,0.21,0.033
		c0.287,0.044,0.562,0.099,0.836,0.154c0.684,0.133,1.355,0.32,2.028,0.507c2.586,0.728,4.997,2.136,6.89,3.864
		c1.927,1.751,3.634,3.732,5.342,5.681c1.133,1.299,2.32,2.522,3.556,3.7c-2.17,0.87-4.195,2.444-5.615,4.052
		c-1.068,1.21-1.871,2.587-2.4,4.117c-0.275,0.771-0.363,1.52-0.353,2.269C254.371,36.215,252.985,35.676,251.531,35.225
		L251.531,35.225z M96.823,222.93L96.823,222.93c-10.009-30.299-11.341-62.569-10.25-94.233c0.505-14.455,4.205-28.592,9.5-42.002
		c0.343-0.22,0.695-0.429,1.047-0.639c2.577-1.465,5.384-2.478,8.213-3.303c3.436-1.002,7.179-1.508,10.757-1.3
		c1.894,0.123,3.578,1.19,5.142,2.18c1.596,1.002,3.412,2.774,5.384,2.742c0.065,0,0.132-0.011,0.188-0.011
		c0.144,1.299,0.308,2.599,0.495,3.897c0.474,3.281,1.046,6.584,1.85,9.799c0.341,1.376,0.781,2.719,1.288,4.041
		c0.648,1.695,1.322,3.677,2.72,4.888c0.032,0.022,0.055,0.044,0.088,0.066c-2.399,2.521-4.02,5.736-5.008,9.05
		c-0.928,3.126-1.335,6.495-1.081,9.754c0.167,2.092,0.64,4.083,1.421,6.021c0.462,1.145,0.991,2.246,1.574,3.326
		c0.407,0.749,0.848,1.188,1.42,1.454c-0.078,0.362-0.154,0.725-0.22,1.089c-1.938-0.573-4.195-0.419-6.044-0.144
		c-2.644,0.386-5.263,1.509-7.146,3.424c-0.761,0.771,0.021,1.927,1.013,1.729c1.971-0.386,4.018-0.573,6.022-0.661
		c1.046-0.044,2.169-0.077,3.215,0.066c0.704,0.099,1.364,0.341,2.036,0.551c-0.054,0.309-0.11,0.616-0.154,0.936
		c-0.562,3.271-0.969,6.573-0.539,9.886c0.914,7.102,5.703,12.86,11.285,17.033c5.075,3.797,11.164,6.165,17.263,7.728
		c6.605,1.686,13.608,2.687,20.424,2.236c1.365-0.1,2.719-0.265,4.073-0.474c1.453,0.165,2.905,0.297,4.359,0.286
		c3.987-0.055,7.928-0.595,11.836-1.387c6.001-1.222,11.935-3.083,17.362-5.956c5.516-2.928,10.305-7.189,13.399-12.649
		c3.864-6.859,4.393-15.095,2.345-22.603c-0.1-0.397-0.209-0.804-0.319-1.212c0.22-0.153,0.417-0.363,0.595-0.616
		c0.737-1.089,2.543-1.398,4.019-1.531c1.948-0.165,3.92,0.043,5.857-0.264c1.034-0.165,0.715-1.706-0.242-1.75
		c-2.248-0.111-4.394-1.035-6.618-1.376c-0.826-0.122-1.628-0.155-2.398-0.066c0.571-1.266,0.945-2.609,1.166-3.644
		c0.109-0.551,0.177-1.112,0.221-1.674c0.275-0.066,0.549-0.176,0.825-0.342c1.575-0.936,2.741-2.29,3.963-3.622
		c1.256-1.386,2.424-2.84,3.546-4.338c2.191-2.94,3.723-6.143,5.063-9.534c2.854-7.178,5.991-14.236,8.566-21.523
		c0.519-1.477,1.002-2.962,1.443-4.449c5.954-3.148,12.385-5.504,19.112-6.188c4.403-0.451,9.182-0.385,13.41,1.013
		c2.092,0.683,3.888,2.069,5.668,3.313c0.805,0.562,1.586,1.145,2.401,1.618c2.874,7.146,5.351,14.456,7.475,21.888
		c4.383,15.381,6.949,31.3,7.169,47.309c0.231,16.843-2.138,33.601-6.332,49.905c-7.86,30.575-21.854,59.729-39.381,85.987
		c-1.598,1.255-3.149,2.598-4.79,3.777c-2.706,1.948-5.505,3.818-8.322,5.593c-5.747,3.599-12.287,5.614-18.872,7.057
		c-6.848,1.497-13.806,2.455-20.729,3.478c-2.929,0.442-5.869,0.641-8.808,0.937c-0.507,0.056-1.068,0.11-1.642,0.198
		c-1.894-5.187-7.597-7.53-12.881-8.036c-3.094-0.31-6.343,0.098-9.216,1.31c-1.387,0.583-2.587,1.354-3.656,2.422
		c-0.967,0.242-1.782,0.804-2.433,1.553c-2.189-0.759-4.359-1.585-6.571-2.268c-2.479-0.771-4.967-1.465-7.433-2.257
		c-4.755-1.53-9.436-3.271-13.949-5.407c-3.875-1.827-7.762-3.854-11.405-6.144c-1.619-1.903-3.205-3.831-4.757-5.779
		c-4.965-6.231-9.566-12.737-13.905-19.422C109.22,252.238,101.854,238.155,96.823,222.93L96.823,222.93z M133.87,23.731
		L133.87,23.731c1.486-2.334,3.062-4.581,5.495-6.012c0.439-0.276,0.913-0.506,1.387-0.726c0.011-0.012,0.021-0.012,0.043-0.023
		c0.034-0.011,0.089-0.032,0.166-0.065c0.231-0.088,0.462-0.166,0.704-0.241c0.474-0.167,0.97-0.288,1.465-0.409
		c0.252-0.055,0.506-0.11,0.76-0.153c0.088-0.023,0.583-0.089,0.716-0.11c0.957-0.11,1.927-0.121,2.896-0.077
		c0.252,0.011,0.517,0.043,0.77,0.065c0.01,0,0.021,0,0.032,0c0.033,0.011,0.089,0.022,0.154,0.033
		c0.572,0.089,1.145,0.242,1.707,0.408c0.23,0.065,0.462,0.143,0.693,0.231c0.033,0.012,0.055,0.012,0.077,0.023
		c0.022,0.01,0.032,0.01,0.056,0.021c0.429,0.199,0.836,0.441,1.233,0.705c0.043,0.022,0.132,0.088,0.208,0.144
		c0.133,0.121,0.265,0.242,0.396,0.374c0.101,0.088,0.188,0.198,0.287,0.297c-0.221-0.242,0.254,0.353,0.341,0.496
		c0.055,0.099,0.111,0.198,0.166,0.296c0.021,0.055,0.165,0.364,0.198,0.463c0.066,0.22,0.253,1.255,0.265,1.156
		c0.044,0.506,0.031,1.023,0,1.53c0,0.023,0,0.045,0,0.067c-0.012,0.044-0.023,0.099-0.034,0.176
		c-0.066,0.396-0.176,0.782-0.286,1.178c-0.077,0.297-0.188,0.584-0.285,0.882c-0.023,0.044-0.198,0.484-0.231,0.572
		c-0.242,0.54-0.518,1.057-0.805,1.563c-0.329,0.594-0.715,1.178-1.102,1.74c-0.417,0.605-0.55,0.759-1.21,1.52
		c-0.628,0.727-1.31,1.409-2.015,2.07c-0.353,0.33-0.726,0.639-1.09,0.946c-0.628,0.528-0.353,0.297-1.002,0.76
		c-0.859,0.605-1.761,1.144-2.687,1.629c-0.33,0.176-0.672,0.331-1.013,0.484c-0.022,0.011-0.121,0.045-0.297,0.122
		c-0.298,0.111-0.606,0.22-0.914,0.33c-0.396,0.132-0.804,0.242-1.21,0.342c-0.122,0.033-1.003,0.187-0.839,0.176
		c-0.385,0.043-0.604,0.078-0.671,0.088c-0.109,0-0.21,0-0.308-0.01c-0.056-0.011-0.121-0.022-0.222-0.034
		c-0.318-0.066-0.638-0.165-0.946-0.264c-0.869-0.252-1.718-0.484-2.554-0.605c-0.286-1.244-1.365-2.488-2.192-3.237
		c-0.957-0.88-2.102-1.31-3.39-1.453c-0.276-0.021-0.539-0.021-0.804-0.011c0-0.022,0.011-0.033,0.011-0.055
		c0.033-0.032,0.065-0.055,0.088-0.088C130.358,28.883,132.187,26.362,133.87,23.731L133.87,23.731z M158.62,335.239L158.62,335.239
		c-0.276-0.561-0.595-1.102-0.869-1.606c-0.893-1.62-1.905-3.161-2.983-4.658c-1.971-2.721-4.229-5.339-6.903-7.376
		c-3.59-2.731-7.256-6.342-11.582-7.938c0.164-0.123,0.329-0.243,0.496-0.364c1.033-0.737,2.09-1.431,3.213-2.025
		c0.518-0.286,1.058-0.518,1.586-0.761c-0.439,0.198,0.396-0.143,0.396-0.143c0.341-0.121,0.682-0.199,1.024-0.343
		c0.627-0.263,1.519-0.527,1.882-0.647c0.155-0.045,0.309-0.111,0.452-0.188c0.528,0.298,1.034,0.618,1.498,0.86
		c1.65,0.868,3.225,1.771,4.744,2.873c3.105,2.256,5.979,4.832,9.038,7.145c2.996,2.257,5.936,4.57,8.566,7.255
		c1.421,1.442,2.709,3.018,3.963,4.603c0.528,0.661,1.013,1.376,1.531,2.069C169.354,334.127,163.938,334.436,158.62,335.239
		L158.62,335.239z"/>
	<path fill-rule="evenodd" clip-rule="evenodd" fill="#CB736F" d="M279.65,315.025L279.65,315.025
		c-0.616,0.165-1.232,0.353-1.839,0.551c-4.041,1.354-7.586,3.742-10.559,6.77c-0.33,0.342-0.671,0.694-1.003,1.035
		c-5.635-1.694-11.712-2.796-17.779-3.489c0.232-0.265,0.464-0.528,0.694-0.793c2.498-2.741,5.35-5.118,8.586-6.925
		c3.162-1.75,7.015-3.259,10.668-3.183c0.035,0,0.067-0.011,0.102-0.011c1.837,0.771,3.688,1.619,5.636,2.665
		C276.127,312.702,277.933,313.815,279.65,315.025L279.65,315.025z M152.895,326.541c4.944-0.572,10.162-0.562,15.326-0.177
		c0.319,0.32,0.649,0.64,0.958,0.958c1.421,1.442,2.709,3.018,3.963,4.603c0.528,0.661,1.013,1.376,1.531,2.069
		c-5.318,0.133-10.734,0.441-16.053,1.245l0,0c-0.276-0.561-0.595-1.102-0.869-1.606c-0.893-1.62-1.905-3.161-2.983-4.658
		C154.173,328.147,153.546,327.333,152.895,326.541L152.895,326.541z M304.556,101.063c0,0.01,5.471,155.732-105.959,202.656l0,0
		c2.499,1.31,4.546,3.248,5.549,5.978c0.573-0.088,1.135-0.143,1.642-0.198c2.938-0.296,5.879-0.494,8.808-0.937
		c6.924-1.022,13.882-1.98,20.729-3.478c6.585-1.442,13.125-3.458,18.872-7.057c2.817-1.774,5.616-3.645,8.322-5.593
		c1.641-1.18,3.192-2.522,4.79-3.777c17.527-26.259,31.521-55.412,39.381-85.987c4.194-16.304,6.563-33.062,6.332-49.905
		c-0.22-16.009-2.786-31.928-7.169-47.309C305.436,103.979,304.996,102.516,304.556,101.063L304.556,101.063z M149.151,30.919
		c0-0.011-9.92-5.45-18.364,0.804c0.495,0.231,0.958,0.528,1.387,0.924c0.827,0.749,1.906,1.993,2.192,3.237
		c0.836,0.121,1.685,0.353,2.554,0.605c0.309,0.1,0.628,0.198,0.946,0.264c0.101,0.012,0.166,0.023,0.222,0.034
		c0.098,0.01,0.198,0.01,0.308,0.01c0.066-0.01,0.286-0.044,0.671-0.088c-0.164,0.011,0.717-0.143,0.839-0.176
		c0.406-0.1,0.813-0.209,1.21-0.342c0.308-0.11,0.616-0.219,0.914-0.33c0.176-0.077,0.274-0.111,0.297-0.122
		c0.341-0.153,0.683-0.308,1.013-0.484c0.926-0.485,1.827-1.023,2.687-1.629c0.649-0.463,0.374-0.232,1.002-0.76
		c0.364-0.308,0.737-0.617,1.09-0.946C148.469,31.591,148.812,31.261,149.151,30.919L149.151,30.919z M118.854,82.246
		c-0.155,27.933,2.599,58.496,2.599,58.496c1.221-0.562,2.531-0.947,3.854-1.135c1.849-0.275,4.106-0.429,6.044,0.144
		c0.065-0.365,0.142-0.727,0.22-1.089c-0.572-0.265-1.013-0.705-1.42-1.454c-0.583-1.08-1.112-2.181-1.574-3.326
		c-0.781-1.938-1.254-3.93-1.421-6.021c-0.254-3.259,0.153-6.628,1.081-9.754c0.988-3.314,2.608-6.529,5.008-9.05
		c-0.033-0.022-0.056-0.044-0.088-0.066c-1.397-1.211-2.071-3.193-2.72-4.888c-0.507-1.321-0.947-2.665-1.288-4.041
		c-0.804-3.215-1.376-6.518-1.85-9.799c-0.188-1.298-0.352-2.598-0.495-3.897c-0.056,0-0.122,0.011-0.188,0.011
		c-1.972,0.032-3.788-1.739-5.384-2.742C120.472,83.148,119.679,82.654,118.854,82.246L118.854,82.246z M242.834,135.049
		L242.834,135.049c0,0,17.562-7.331,24.21-55.247c-3.193,1.069-6.286,2.433-9.258,4.008c-0.441,1.487-0.925,2.972-1.443,4.449
		c-2.575,7.287-5.713,14.345-8.566,21.523c-1.341,3.391-2.872,6.594-5.063,9.534c-1.122,1.498-2.29,2.952-3.546,4.338
		c-1.222,1.333-2.388,2.687-3.963,3.622c-0.276,0.166-0.55,0.275-0.825,0.342c-0.044,0.562-0.111,1.123-0.221,1.674
		c-0.221,1.035-0.595,2.378-1.166,3.644c0.771-0.088,1.572-0.055,2.398,0.066c2.225,0.341,4.37,1.266,6.618,1.376
		C242.426,134.399,242.723,134.698,242.834,135.049L242.834,135.049z M257.874,31.315c-6.914-8.092-15.403-8.994-18.86-3.423
		c1.454,1.684,3.269,3.258,5.141,4.369c0.75,0.453,1.532,0.859,2.313,1.246c0.264,0.121,0.529,0.252,0.792,0.374
		c-0.021-0.021,0.542,0.198,0.585,0.209c1.221,0.385,2.455,0.749,3.688,1.134l0,0c1.454,0.452,2.84,0.991,4.008,1.982
		c-0.011-0.75,0.077-1.499,0.353-2.269C256.343,33.617,257.003,32.406,257.874,31.315L257.874,31.315z"/>
	<path fill-rule="evenodd" clip-rule="evenodd" fill="#F9F6EA" d="M98.959,85.099c-9.228,37.597-14.126,96.565,12.056,169.217
		c-5.703-9.985-10.559-20.389-14.191-31.387l0,0c-10.009-30.299-11.341-62.569-10.25-94.233c0.505-14.455,4.205-28.592,9.5-42.002
		c0.343-0.22,0.695-0.429,1.047-0.639C97.726,85.715,98.342,85.395,98.959,85.099L98.959,85.099z"/>
	<path fill-rule="evenodd" clip-rule="evenodd" fill="#F9BF9B" d="M310.62,362.212L310.62,362.212c0,0.012,0.012,0.035,0.034,0.067
		c-0.013-0.022-0.034-0.045-0.045-0.077C310.62,362.202,310.62,362.202,310.62,362.212L310.62,362.212z"/>
	<path fill-rule="evenodd" clip-rule="evenodd" fill="#4C62AB" d="M137.724,342.198L137.724,342.198
		c-4.624,2.762-8.564,6.694-10.888,11.591c-1.146,2.424-1.949,4.967-2.39,7.608c-0.022,0.133-0.044,0.265-0.065,0.386
		c-0.728-0.936-1.487-1.838-2.114-2.764c-1.763-2.608-2.599-5.218-3.116-8.356c-1.067-6.473-0.021-13.255,2.444-19.311
		c2.025-4.976,5.548-9.05,9.249-12.848c0.99-1.014,2.048-2.026,3.115-2.963c2.269,0.76,4.349,2.126,6.231,3.545
		c2.499,1.872,5.021,3.931,7.299,6.078c2.555,2.4,4.657,5.262,6.452,8.257c0.473,0.781,0.88,1.598,1.299,2.411
		C149.064,337.034,143.097,338.993,137.724,342.198L137.724,342.198z M288.358,62.407L288.358,62.407
		c2.764,4.999,5.275,10.107,7.563,15.314c-1.475-0.979-2.972-1.849-4.679-2.477c-4.48-1.64-9.679-1.563-14.345-1.024
		c-4.405,0.507-8.731,1.596-12.795,3.358c-1.903,0.826-3.697,1.817-5.415,2.907c1.177-4.745,1.915-9.568,2.202-14.555
		c0.363-6.529,0.681-13.058-0.144-19.554c0.431-0.594,1.088-1.089,1.552-1.497c1.201-1.057,2.565-1.905,3.997-2.62
		c1.332-0.672,2.653-1.244,4.117-1.585c0.981-0.22,2.664,0.11,3.731-0.605h0.012c0.595,0.804,1.178,1.618,1.762,2.444
		C280.433,48.887,284.583,55.56,288.358,62.407L288.358,62.407z M107.469,61.571L107.469,61.571
		c2.786-5.979,5.813-11.88,9.48-17.374c1.584-1.057,4.271-0.737,5.846-0.418c1.421,0.297,2.818,0.704,4.161,1.245
		c0.133,0.055,0.265,0.12,0.396,0.175c-0.154,1.443-0.275,2.884-0.452,4.316c-0.824,6.76-1.244,13.443-1.111,20.257
		c0.088,4.338,0.275,8.677,0.65,13.002c-0.265-0.175-0.551-0.351-0.849-0.529c-0.991-0.615-1.959-1.266-2.95-1.882
		c-1.904-1.178-3.908-2.113-6.155-2.333c-3.93-0.385-8.278,0.375-12.044,1.486c-2.202,0.649-4.382,1.486-6.452,2.51
		C100.93,75.112,104.287,68.385,107.469,61.571L107.469,61.571z M200.402,81.421L200.402,81.421
		c2.158,5.561,4.261,11.098,5.847,16.867c1.694,6.221,2.796,12.542,3.545,18.937c0.836,7.08,1.707,14.137,2.068,21.26
		c0.177,3.634,0.188,7.277,0.057,10.911c-0.077,1.75-0.121,3.501-0.198,5.263c-0.022,0.45-0.033,0.891-0.033,1.342
		c-1.375-2.411-2.83-4.789-4.425-7.035c-2.775-3.875-5.913-7.52-9.349-10.844c-0.065-0.661-0.166-1.311-0.209-1.883
		c-0.145-1.784-0.297-3.577-0.484-5.362c-0.188-1.794-0.387-3.589-0.605-5.372c-0.209-1.74-0.617-3.325-1.111-4.998
		c-0.111-0.354-0.585-0.253-0.617,0.087c-0.154,1.662-0.275,3.237-0.188,4.911c0.099,1.783,0.176,3.578,0.242,5.372
		c0.055,1.542,0.088,3.083,0.123,4.625c-0.42-0.364-0.849-0.738-1.279-1.09c-6.837-5.714-15.909-10.801-25.069-11.164
		c0.826-0.066,1.686,0.032,2.488,0.066c1.74,0.087,4.228,0.242,5.253-1.53c1.661-2.884-1.223-7.09-3.425-8.863
		c-2.346-1.894-4.668-0.682-6.021,1.64c-1.267,2.159-2.269,4.779-2.853,7.19c-0.121,0.528,0.319,0.935,0.793,0.87
		c-0.022,0.254,0.154,0.495,0.363,0.617c0.043,0.032,0.087,0.066,0.143,0.087c-2.257,0.199-4.491,0.716-6.694,1.608
		c-2.729,1.111-5.063,2.697-7.079,4.602c0.154-2.477,0.287-4.955,0.694-7.398c0.143-0.924-1.079-1.278-1.41-0.385
		c-1.265,3.39-2.234,7.178-2.102,10.866c-1.993,2.532-3.645,5.384-5.109,8.345c-1.706,3.457-3.083,7.079-4.326,10.723
		c-0.893,2.632-1.542,5.329-2.269,8.004c-0.362-0.583-0.682-1.189-0.958-1.795c0.332-3.137,0.1-6.363,0.286-9.5
		c0.231-3.908,0.694-7.828,1.233-11.704c1.058-7.507,2.852-14.907,4.955-22.184c1.783-6.199,3.754-12.386,6.198-18.364
		c1.21-2.983,2.619-5.891,4.25-8.665c0.539-0.925,1.123-1.805,1.729-2.686c2.531-1.795,5.36-3.159,8.323-4.162
		c0,0-0.012,0-0.012,0.011c-0.869,1.453-1.618,3.083-2.125,4.712c-0.99,3.226-1.992,6.44-3.038,9.644
		c-0.177,0.541,0.649,0.75,0.836,0.231c1.08-3.016,2.114-6.011,3.777-8.774c0.759-1.288,1.476-2.61,2.278-3.865
		c0.671-1.057,1.553-2.037,2.256-3.072c0.11-0.033,0.222-0.055,0.331-0.077c0.221-0.055,0.431-0.088,0.65-0.132
		c-0.133,1.959-0.341,3.896-0.341,5.868c-0.012,2.488,0.132,4.999,0.693,7.432c1.033,4.502,4.866,8.456,9.765,7.553
		c4.217-0.771,7.135-5.373,8.831-8.907c0.849-1.761,1.552-3.623,1.926-5.538c0.309-1.641,0.507-3.303,0.772-4.954
		c0.043-0.319,0.108-0.638,0.175-0.97c0.165,0.386,0.318,0.771,0.462,1.157c0.617,1.629,1.244,3.269,1.806,4.921
		c1.101,3.27,2.368,6.617,2.456,10.085c0.021,0.672,1.035,0.672,1.035,0c0.043-3.512,0.064-6.947-0.881-10.36
		c-0.463-1.673-1.014-3.325-1.631-4.955c-0.207-0.583-0.406-1.211-0.616-1.849c2.454,0.518,5.132,1.375,7.013,2.245
		C199.874,81.156,200.138,81.289,200.402,81.421L200.402,81.421z M230.14,334.413L230.14,334.413c-8.29-0.1-16.593-0.1-24.894-0.23
		c-8.18-0.133-16.349-0.32-24.54-0.276c-0.584,0.012-1.188,0.012-1.783,0.022c-0.771-1.508-1.972-2.829-2.984-4.129
		c-1.343-1.718-2.763-3.38-4.283-4.953c-2.917-2.995-6.309-5.506-9.655-8.004c-1.662-1.234-3.303-2.5-4.976-3.734
		c5.142,2.27,10.668,3.811,16.063,5c1.123,0.253,2.873,0.902,4.041,0.386c0.099,0.109,0.198,0.219,0.309,0.318
		c2.763,2.797,7.133,3.633,10.899,3.864c2.654,0.154,5.967-0.143,8.918-1.102c0.979,0.177,1.938,0.265,2.984,0.298
		c1.805,0.044,3.601,0.132,5.395,0.153c3.512,0.044,6.958-0.473,10.392-1.199c3.127-0.672,6.221-1.486,9.37-2.091
		c3.357-0.651,6.728-1.257,10.084-1.873c5.264-0.957,10.372-2.586,15.315-4.591c-1.452,1.189-2.818,2.478-4.095,3.831
		c-2.832,2.995-5.241,6.396-7.29,9.965c-1.123,1.971-2.08,4.007-2.905,6.11c-0.276,0.693-0.616,1.509-0.903,2.378
		C233.783,334.479,231.967,334.436,230.14,334.413L230.14,334.413z M292.168,328.117L292.168,328.117
		c1.542,2.564,2.246,4.171,3.039,6.957c0.329,1.156,0.573,2.345,0.761,3.545c-0.013-0.045,0.075,0.595,0.075,0.638
		c0.034,0.331,0.056,0.65,0.078,0.979c0.056,0.761,0.056,1.531,0.032,2.29c-0.011,0.673-0.055,1.333-0.12,1.994
		c-0.011,0.121-0.021,0.209-0.021,0.264c-0.014,0.056-0.023,0.121-0.036,0.209c-0.055,0.342-0.109,0.672-0.175,1.014
		c-0.286,1.552-0.737,3.06-1.233,4.569c-0.827,2.51-2.202,4.832-3.687,7.002c-0.045,0.066-0.101,0.131-0.145,0.197
		c-0.429-2.488-1.871-4.669-3.533-6.517c-3.424-3.8-8.215-6.287-12.793-8.39c-4.735-2.181-9.624-3.832-14.612-5.076
		c0.597-2.136,1.918-4.063,3.228-5.857c1.927-2.619,4.262-4.954,6.584-7.233c2.641-2.609,5.658-4.359,9.203-5.482
		c1.607-0.507,3.259-0.825,4.933-0.946c1.256,1.101,2.477,2.29,3.678,3.566c0.473,0.496,0.924,1.002,1.365,1.52
		c0.219,0.264,0.43,0.519,0.649,0.782c-0.011-0.011,0.341,0.45,0.406,0.517C290.684,325.771,291.452,326.926,292.168,328.117
		L292.168,328.117z"/>
	<path fill-rule="evenodd" clip-rule="evenodd" fill="#353485" d="M137.724,342.198L137.724,342.198
		c-4.624,2.762-8.564,6.694-10.888,11.591c-1.146,2.424-1.949,4.967-2.39,7.608c-0.022,0.133-0.044,0.265-0.065,0.386
		c0,0-4.449-25.278,19.078-33.206c1.883-0.626,3.854-1.123,5.891-1.497c1.741,1.949,3.249,4.106,4.592,6.342
		c0.473,0.781,0.88,1.598,1.299,2.411C149.064,337.034,143.097,338.993,137.724,342.198L137.724,342.198z M173.538,326.895
		c16.878,2.047,31.708,7.288,31.708,7.288c-8.18-0.133-16.349-0.32-24.54-0.276c-0.584,0.012-1.188,0.012-1.783,0.022
		c-0.771-1.508-1.972-2.829-2.984-4.129C175.168,328.81,174.364,327.841,173.538,326.895L173.538,326.895z M224.513,318.911
		c5.826-0.132,12.486-0.044,19.334,0.518c0.903-1.155,1.85-2.268,2.853-3.325c1.276-1.354,2.643-2.642,4.095-3.831
		c-4.943,2.005-10.052,3.634-15.315,4.591c-3.356,0.616-6.727,1.222-10.084,1.873C225.098,318.79,224.812,318.846,224.513,318.911
		L224.513,318.911z M269.764,324.549c13.705,4.933,23.936,13.872,23.207,29.66l0,0c0.64-1.166,1.19-2.379,1.598-3.633
		c0.496-1.51,0.947-3.018,1.233-4.569c0.065-0.342,0.12-0.672,0.175-1.014c0.013-0.088,0.022-0.153,0.036-0.209
		c0-0.055,0.01-0.143,0.021-0.264c0.065-0.661,0.109-1.321,0.12-1.994c0.023-0.759,0.023-1.529-0.032-2.29
		c-0.022-0.329-0.044-0.648-0.078-0.979c0-0.043-0.088-0.683-0.075-0.638c-0.188-1.2-0.432-2.389-0.761-3.545
		c-0.793-2.786-1.497-4.393-3.039-6.957l0,0c-0.716-1.191-1.484-2.347-2.323-3.459c-0.065-0.066-0.417-0.527-0.406-0.517
		c-0.22-0.264-0.431-0.519-0.649-0.782c-0.441-0.518-0.893-1.023-1.365-1.52c-1.201-1.276-2.422-2.466-3.678-3.566
		c-1.674,0.121-3.325,0.439-4.933,0.946C275.346,320.321,272.385,322.026,269.764,324.549L269.764,324.549z M122.795,43.779
		c-2.642,7.541-3.688,20.621-3.908,34.768c1.32,0.43,2.554,1.08,3.754,1.817c0.991,0.617,1.959,1.267,2.95,1.882
		c0.298,0.178,0.584,0.354,0.849,0.529c-0.375-4.326-0.563-8.664-0.65-13.002c-0.133-6.814,0.287-13.498,1.111-20.257
		c0.177-1.432,0.298-2.873,0.452-4.316c-0.132-0.055-0.264-0.12-0.396-0.175C125.613,44.483,124.216,44.077,122.795,43.779
		L122.795,43.779z M267.475,76.291c1.483-13.884,0.021-24.85-2.931-33.062c-0.79,0.495-1.539,1.034-2.245,1.651
		c-0.464,0.408-1.121,0.903-1.552,1.497c0.824,6.496,0.507,13.025,0.144,19.554c-0.287,4.986-1.025,9.81-2.202,14.555
		c1.718-1.09,3.512-2.081,5.415-2.907C265.206,77.105,266.33,76.676,267.475,76.291L267.475,76.291z"/>
	<path fill-rule="evenodd" clip-rule="evenodd" fill="#F9F6EA" d="M102.68,71.688c-0.913,2.951-1.827,6.1-2.697,9.424
		c-0.672,0.287-1.343,0.595-1.993,0.914C99.476,78.547,101.062,75.112,102.68,71.688L102.68,71.688z"/>
	<path fill-rule="evenodd" clip-rule="evenodd" fill="#EB5E2B" d="M153.798,308.056L153.798,308.056
		c-1.96-1.045-3.82-2.245-5.647-3.5c-0.066-0.133-0.144-0.266-0.231-0.386c-1.574-2.136-3.292-4.141-5.043-6.122
		c1.289,0.684,2.588,1.345,3.888,1.971c4.48,2.169,9.148,3.942,13.86,5.537c2.445,0.826,4.911,1.586,7.388,2.303
		c2.169,0.627,4.271,1.441,6.385,2.202c-0.11,0.462-0.187,0.925-0.22,1.386c-0.099,1.268,0.188,2.522,0.705,3.689
		c-3.578-0.726-7.123-1.674-10.613-2.808C160.689,311.171,157.122,309.84,153.798,308.056L153.798,308.056z M144.429,97.451
		L144.429,97.451c1.09-2.19,2.412-4.271,3.908-6.221c-0.439,0.937-0.869,1.883-1.278,2.83c-2.63,6.111-4.678,12.485-6.57,18.849
		c-2.259,7.574-4.131,15.27-5.286,23.087c-0.133,0.958-0.273,1.904-0.396,2.862c-0.043-0.737-0.132-1.476-0.264-2.224
		c-0.023-0.253-0.067-0.507-0.155-0.76c-0.01-0.022-0.01-0.044-0.021-0.066c-0.023-0.143-0.089-0.264-0.155-0.363
		c-0.076-0.154-0.153-0.309-0.241-0.474c-0.485-0.858-0.924-1.751-1.3-2.665c-0.627-1.563-0.99-3.138-1.123-4.733
		c-0.209-2.808,0.056-5.627,0.738-8.357c0.705-2.785,1.816-5.472,3.545-7.784c0.804-1.079,1.783-2.036,2.808-2.906
		c0.483-0.417,2.61-1.607,2.081-2.477c-0.033-0.044-0.066-0.088-0.1-0.121C142.084,103.209,143.063,100.215,144.429,97.451
		L144.429,97.451z M271.459,36.424L271.459,36.424c-0.582,0.023-1.166,0.1-1.663,0.199c-1.994,0.374-4.051,1.266-5.745,2.367
		c-1.444,0.924-2.931,2.092-3.986,3.479c-0.484-1.926-1.2-3.699-2.07-5.472c0.596-1.497,1.782-2.807,3.026-3.754
		c1.86-1.409,3.909-1.927,6.034-2.664C268.521,32.527,269.996,34.476,271.459,36.424L271.459,36.424z M124.567,34.597
		L124.567,34.597c1.376-0.023,2.797-0.319,3.975-0.165c0.749,0.098,1.276,0.516,1.728,1.068c-1.354,1.596-2.024,3.6-2.389,5.67
		c-0.044,0.241-0.087,0.495-0.121,0.737c-1.651-0.65-3.336-1.068-5.098-1.288c-1.013-0.132-2.092-0.177-3.138-0.045
		C121.088,38.495,122.773,36.49,124.567,34.597L124.567,34.597z M212.172,91.12L212.172,91.12c1.707,2.324,3.183,4.856,4.625,7.366
		c0.758,1.321,1.607,2.565,2.432,3.843c0.771,1.179,1.486,2.509,2.522,3.479c0.022,0.043,0.056,0.087,0.076,0.131
		c0.715,1.036,1.717,1.894,2.542,2.852c0.916,1.08,1.687,2.323,2.401,3.546c1.399,2.366,2.313,4.964,3.304,7.519
		c0.406,1.067,0.737,2.159,0.935,3.259c-0.66,1.167-0.439,2.41,0.242,3.303c-0.033,0.54-0.1,1.079-0.198,1.617
		c-0.231,1.279-0.604,2.478-1.188,3.634c-0.418,0.825-0.97,1.53-1.355,2.323c-0.263,0.122-0.483,0.353-0.581,0.661
		c-0.563,1.673-0.256,3.5-0.189,5.229c0.079,1.794,0.045,3.6,0.013,5.395c-0.079,3.511-0.552,7.056-1.972,10.315
		c-0.65,1.509-1.42,2.963-2.311,4.349c-0.849,1.333-1.399,1.982-2.555,3.204c-1.311,1.388-2.455,2.401-3.754,3.337
		c-0.959-2.103-2.016-4.163-3.106-6.199c0.485-1.563,0.871-3.006,1.035-4.679c0.165-1.75,0.298-3.491,0.385-5.251
		c0.178-3.789,0.222-7.575,0.077-11.374c-0.274-7.432-1.221-14.874-2.575-22.185c-1.189-6.43-2.576-12.871-4.447-19.135
		c-1.597-5.372-3.646-10.855-6.794-15.545C205.787,84.339,209.43,87.399,212.172,91.12L212.172,91.12z M186.144,78.162
		L186.144,78.162c-0.032,0.188-0.065,0.385-0.098,0.583c-0.265,1.586-0.484,3.17-0.727,4.757c-0.265,1.717-0.716,3.324-1.321,4.954
		c-1.068,2.841-3.018,6.826-6.045,8.026c-3.667,1.464-6.109-2.94-7.023-5.847c-1.156-3.709-1.179-7.685-1.85-11.504
		c2.939-0.496,5.9-0.639,8.906-0.694c1.948-0.032,3.909-0.077,5.867-0.077C184.504,78.35,185.33,78.306,186.144,78.162
		L186.144,78.162z M113.7,369.017L113.7,369.017c-1.364,0.066-2.741-0.045-4.095-0.177c-0.165-0.01-0.32-0.032-0.484-0.055
		c0.033,0-0.485-0.078-0.54-0.087c-0.661-0.099-1.321-0.243-1.972-0.386c-1.122-0.253-2.212-0.596-3.291-1.014
		c0.09,0.022-0.528-0.253-0.518-0.241c-0.252-0.122-0.506-0.265-0.748-0.408c-0.242-0.132-0.474-0.286-0.705-0.439
		c-0.076-0.056-0.133-0.088-0.165-0.122c-0.109-0.087-0.22-0.176-0.319-0.264c-0.154-0.145-0.298-0.308-0.44-0.463
		c0.199,0.209-0.187-0.286-0.231-0.342c-0.021-0.043-0.121-0.286-0.165-0.395c-0.055-0.177-0.099-0.376-0.143-0.563
		c0.065,0.31,0.044,0,0.032-0.219c0.023-0.034,0.044-0.166,0.066-0.286c0.022-0.021,0.099-0.154,0.153-0.265
		c0,0.077,0.573-0.551,0.21-0.275c3.039-2.345,7.739-1.851,11.461-1.08c1.928,0.397,4.096,0.904,6.144,1.687
		c1.047,1.354,2.279,2.63,3.667,3.534c-0.969,0.351-1.928,0.747-2.885,1.012C117.081,368.631,115.406,368.929,113.7,369.017
		L113.7,369.017z M304.378,360.033L304.378,360.033c1.794,0.077,4.107,0.649,5.551,1.619c-0.068,0.032-0.133,0.064-0.199,0.099
		c-0.11,0.055-0.231,0.109-0.34,0.165c-0.014,0-0.014,0.011-0.014,0.011c-0.031,0.01-0.064,0.022-0.109,0.044
		c-0.693,0.264-1.409,0.484-2.125,0.683c-1.496,0.418-3.039,0.703-4.568,0.979c-0.299,0.057-0.607,0.11-0.904,0.154
		c-0.021,0-0.032,0.012-0.055,0.012c-0.023,0-0.043,0-0.076,0.01c-0.99,0.11-1.983,0.077-2.96,0.034
		c-1.477-0.044-2.92-0.244-4.361-0.495c-0.056-0.012-0.122-0.022-0.178-0.033c0.464-0.518,0.903-1.047,1.311-1.574
		C298.235,360.572,301.307,359.89,304.378,360.033L304.378,360.033z M204.707,312.009L204.707,312.009
		c0.969,0,1.938,0.054,2.917,0.088c3.228,0.088,6.574-0.297,9.767-0.706c6.881-0.891,13.785-1.926,20.544-3.479
		c6.506-1.496,13.102-3.721,18.694-7.442c1.598-1.057,3.205-2.103,4.789-3.169c-1.288,1.937-2.532,3.887-3.81,5.834
		c-0.119,0.165-0.208,0.342-0.275,0.517c-0.286,0.364-0.562,0.728-0.825,1.025c-0.362,0.407-0.728,0.781-1.102,1.154
		c-1.528,0.816-3.115,1.565-4.744,2.225c-5.395,2.203-10.999,3.942-16.713,4.999c-6.221,1.146-12.374,2.424-18.541,3.809
		c-3.248,0.726-6.45,1.233-9.775,1.245c-0.88,0.012-1.762-0.012-2.645-0.032C204.323,316.522,205.026,314.53,204.707,312.009
		L204.707,312.009z"/>
	<path fill-rule="evenodd" clip-rule="evenodd" fill="#BE361A" d="M127.937,34.388c-1.432,1.663-2.786,3.776-3.963,6.429
		c1.287,0.243,2.542,0.606,3.786,1.09c0.034-0.242,0.077-0.496,0.121-0.737c0.364-2.071,1.035-4.074,2.389-5.67
		c-0.451-0.552-0.979-0.97-1.728-1.068C128.344,34.41,128.146,34.399,127.937,34.388L127.937,34.388z M263.081,39.64
		c-0.937-2.048-1.972-3.888-3.083-5.516c-0.837,0.814-1.574,1.794-2.004,2.873c0.87,1.773,1.586,3.546,2.07,5.472
		C260.891,41.39,261.969,40.443,263.081,39.64L263.081,39.64z M204.707,312.009L204.707,312.009c0.969,0,1.938,0.054,2.917,0.088
		c3.228,0.088,6.574-0.297,9.767-0.706c6.881-0.891,13.785-1.926,20.544-3.479c6.506-1.496,13.102-3.721,18.694-7.442
		c1.598-1.057,3.205-2.103,4.789-3.169c-1.288,1.937-2.532,3.887-3.81,5.834c-0.119,0.165-0.208,0.342-0.275,0.517
		c-0.286,0.364-0.562,0.728-0.825,1.025c-0.362,0.407-0.728,0.781-1.102,1.154c-1.528,0.816-3.115,1.565-4.744,2.225
		c-5.395,2.203-10.999,3.942-16.713,4.999c-6.221,1.146-12.374,2.424-18.541,3.809c-3.248,0.726-6.45,1.233-9.775,1.245
		c-0.88,0.012-1.762-0.012-2.645-0.032C204.323,316.522,205.026,314.53,204.707,312.009L204.707,312.009z"/>
	<path fill-rule="evenodd" clip-rule="evenodd" fill="#BE361A" d="M217.422,99.532c1.817,9.192,4.56,29.462-1.825,47.155
		c-0.023,1.221-0.067,2.443-0.123,3.666c-0.087,1.761-0.22,3.501-0.385,5.251c-0.164,1.673-0.55,3.115-1.035,4.679
		c1.091,2.036,2.147,4.096,3.106,6.199c1.299-0.936,2.443-1.949,3.754-3.337c1.155-1.221,1.706-1.871,2.555-3.204
		c0.891-1.386,1.66-2.84,2.311-4.349c1.42-3.259,1.893-6.804,1.972-10.315c0.032-1.795,0.066-3.601-0.013-5.395
		c-0.066-1.729-0.373-3.556,0.189-5.229c0.098-0.309,0.318-0.54,0.581-0.661c0.386-0.792,0.938-1.498,1.355-2.323
		c0.585-1.156,0.957-2.355,1.188-3.634c0.099-0.539,0.165-1.078,0.198-1.617c-0.682-0.893-0.902-2.136-0.242-3.303
		c-0.197-1.1-0.528-2.191-0.935-3.259c-0.991-2.554-1.904-5.153-3.304-7.519c-0.715-1.223-1.485-2.466-2.401-3.546
		c-0.825-0.958-1.827-1.816-2.542-2.852c-0.021-0.044-0.054-0.088-0.076-0.131c-1.036-0.97-1.751-2.3-2.522-3.479
		C218.623,101.393,218.007,100.479,217.422,99.532L217.422,99.532z"/>
	<path fill-rule="evenodd" clip-rule="evenodd" fill="#F9F6EA" d="M180.871,316.291L180.871,316.291
		c-0.022-0.021-0.033-0.021-0.056-0.033c-0.044-0.044-0.098-0.099-0.187-0.175c-0.342-0.298-0.694-0.64-0.969-1.003
		c-0.65-0.837-1.079-1.751-1.3-2.774c-0.462-2.092,1.465-3.071,2.455-4.581c0.121-0.186,0.188-0.373,0.209-0.572
		c0.451-0.252,0.914-0.474,1.398-0.704c1.872-0.893,4.041-1.112,6.077-1.177c2.214-0.078,4.395,0.242,6.485,0.935
		c1.618,0.528,3.413,1.541,4.294,2.719c0.727,0.97,1.234,2.049,1.465,3.105c0,0.021-0.012,0.032-0.012,0.045
		c-0.032,0.109,0.012,0.208,0.078,0.274c0.066,0.419,0.088,0.826,0.066,1.233c0,0.023,0,0.044,0,0.065
		c-0.012,0.034-0.012,0.066-0.023,0.122c-0.033,0.175-0.088,0.34-0.132,0.517c-0.011,0.033-0.098,0.232-0.12,0.299
		c-0.056,0.12-0.11,0.22-0.178,0.329c-0.066,0.12-0.143,0.23-0.221,0.342c0.101-0.144-0.164,0.208-0.197,0.241
		c-0.121,0.134-0.252,0.265-0.373,0.386c-0.045,0.043-0.398,0.33-0.398,0.341c-2.752,2.037-6.482,2.434-9.952,2.335
		c-2.818-0.065-5.835-0.639-8.114-2.07C181.069,316.423,180.97,316.357,180.871,316.291L180.871,316.291z"/>
	<path fill-rule="evenodd" clip-rule="evenodd" fill="#F9BF9B" d="M170.556,114.758L170.556,114.758
		C170.588,114.747,170.576,114.747,170.556,114.758L170.556,114.758z"/>
	<path fill-rule="evenodd" clip-rule="evenodd" fill="#F9BF9B" d="M170.433,114.792L170.433,114.792
		c0.023-0.012,0.034-0.012,0.057-0.012c0.143,0.023,0.22,0.078,0.407,0.188c1.002,0.605,1.717,1.971,2.256,2.973
		c0.299,0.54,0.485,1.101,0.618,1.695c0.031,0.165,0.01,0.363,0.01,0.528l0,0c-1.452,0.594-4.503-0.176-6.615,0.221
		c0.461-0.859,0.813-1.817,1.21-2.642c0.407-0.859,0.848-1.773,1.475-2.489C170.104,114.968,170.269,114.847,170.433,114.792
		L170.433,114.792z"/>
	<path fill-rule="evenodd" clip-rule="evenodd" fill="#F9BF9B" d="M192.597,175.267L192.597,175.267
		c-0.309-0.197-0.683-0.329-1.112-0.384c-1.838-0.221-3.656,0.044-5.483,0.275c-1.959,0.253-3.919,0.484-5.9,0.605
		c-3.755,0.231-7.41-0.021-11.131-0.473c0,0-0.584-0.077-0.694-0.087c-0.298-0.044-0.594-0.088-0.892-0.122
		c-0.726-0.109-1.453-0.231-2.168-0.351c-1.587-0.276-3.16-0.606-4.724-0.979c-3.018-0.727-5.979-1.686-8.852-2.842
		c-4.735-1.915-9.799-5.196-13.268-9.523c1.563-4.162,3.27-8.301,5.021-12.375c1.971-4.613,4.25-9.313,7.652-13.046
		c3.204-3.523,6.672-6.528,11.361-7.805c5.759-1.574,12.078-0.177,17.385,2.246c7.816,3.578,14.39,9.512,19.938,15.964
		c2.908,3.37,5.604,6.98,7.927,10.779c2.269,3.71,4.141,7.618,6.177,11.45c-2.422,1.386-4.524,2.256-7.001,3.148
		c-2.808,1.002-5.704,1.772-8.601,2.455C196.352,174.64,194.479,175.003,192.597,175.267L192.597,175.267z"/>
	<path fill-rule="evenodd" clip-rule="evenodd" fill="#CB736F" d="M192.597,175.267L192.597,175.267
		c-0.309-0.197-0.683-0.329-1.112-0.384c-1.838-0.221-3.656,0.044-5.483,0.275c10.472-3.347,17.825-9.028,22.923-15.865
		c1.729,3.062,3.26,6.21,4.91,9.304c-2.422,1.386-4.524,2.256-7.001,3.148c-2.808,1.002-5.704,1.772-8.601,2.455
		C196.352,174.64,194.479,175.003,192.597,175.267L192.597,175.267z"/>
	<path fill-rule="evenodd" clip-rule="evenodd" fill="#F9BF9B" d="M222.917,119.283c0.199,0.683,0.539,1.344,0.782,2.015
		c0.362,1.002,0.562,2.587,1.43,3.259c0.287,0.22,0.773,0.275,0.959-0.122c0.529-1.09-0.12-2.4-0.561-3.446
		c-0.344-0.792-0.716-1.563-1.124-2.333c-0.396-0.772-1.101-1.322-1.584-2.038c-0.243-0.374-0.761-0.055-0.584,0.341
		C222.542,117.687,222.687,118.525,222.917,119.283L222.917,119.283z"/>
	<path fill-rule="evenodd" clip-rule="evenodd" fill="#F9BF9B" d="M137.107,117.412c-1.046,1.046-1.497,2.73-1.827,4.128
		c-0.407,1.673-0.419,3.138,0.187,4.756c0.242,0.649,1.135,0.396,1.034-0.287c-0.209-1.409,0.21-3.06,0.606-4.414
		c0.353-1.223,0.99-2.5,0.958-3.788C138.054,117.323,137.46,117.049,137.107,117.412L137.107,117.412z"/>
	<path fill-rule="evenodd" clip-rule="evenodd" fill="#F9BF9B" d="M183.822,149.792c-2.423-4.018-5.186-7.982-8.512-11.318
		c-2.994-3.016-6.991-6.121-11.471-5.967c-4.967,0.155-8.17,4.668-9.921,8.819c-1.442,3.446-2.025,7.223-2.455,10.921
		c-0.373,3.281-0.947,6.935-0.22,10.173c0.033,0.187,0.132,0.308,0.242,0.374c0.352,0.474,0.957,0.77,1.596,0.584
		c1.178-0.342,2.4-0.32,3.602-0.386c1.573-0.088,3.125-0.265,4.7-0.33c3.127-0.143,6.275-0.099,9.391,0.197
		c6.078,0.573,11.969,2.544,17.22,5.649c1.244,0.727,2.588-0.463,2.301-1.773C189.007,160.713,187.014,155.064,183.822,149.792
		L183.822,149.792z"/>
	<path fill-rule="evenodd" clip-rule="evenodd" fill="#F9BF9B" d="M192.233,103.308c-1.651,1.035-2.6,2.6-3.227,4.404
		c-1.519,4.449,1.179,9.161,5.901,9.678c2.434,0.254,4.822-1.023,6.473-2.708c2.037-2.081,2.776-4.766,2.368-7.585
		c-0.44-2.973-3.247-4.955-6.011-5.296c-1.398-0.176-2.95,0.254-4.151,1.091C193.092,102.934,192.607,103.078,192.233,103.308
		L192.233,103.308z"/>
	<path fill-rule="evenodd" clip-rule="evenodd" fill="#F9BF9B" d="M152.189,109.76L152.189,109.76c0-0.055-0.011-0.109-0.011-0.198
		c0,0.065,0.011,0.121,0.011,0.155C152.189,109.726,152.189,109.738,152.189,109.76L152.189,109.76z"/>
	<path fill-rule="evenodd" clip-rule="evenodd" fill="#F9BF9B" d="M153.05,107.811L153.05,107.811
		c0.022-0.055,0.043-0.1,0.065-0.143C153.115,107.679,153.093,107.724,153.05,107.811L153.05,107.811z"/>
	<path fill-rule="evenodd" clip-rule="evenodd" fill="#F9BF9B" d="M156.198,104.123c-2.511-1.773-5.912-0.914-8.125,0.815
		c-2.048,1.585-3.148,4.283-2.565,6.771c0.055,0.87,0.265,1.729,0.649,2.566c1.266,2.697,4.624,3.478,7.267,2.83
		c2.729-0.661,4.91-3.028,5.615-5.693C159.799,108.516,158.576,105.796,156.198,104.123L156.198,104.123z"/>
	<path fill="#321A1B" d="M156.198,104.123c-2.511-1.773-5.912-0.914-8.125,0.815c-2.048,1.585-3.148,4.283-2.565,6.771
		c0.055,0.87,0.265,1.729,0.649,2.566c1.266,2.697,4.624,3.478,7.267,2.83c2.729-0.661,4.91-3.028,5.615-5.693
		C159.799,108.516,158.576,105.796,156.198,104.123L156.198,104.123z M153.05,107.811L153.05,107.811
		c0.022-0.055,0.043-0.1,0.065-0.143C153.115,107.679,153.093,107.724,153.05,107.811L153.05,107.811z M152.189,109.76
		L152.189,109.76c0-0.055-0.011-0.109-0.011-0.198c0,0.065,0.011,0.121,0.011,0.155C152.189,109.726,152.189,109.738,152.189,109.76
		L152.189,109.76z"/>
	<path fill="#321A1B" d="M192.233,103.308c-1.651,1.035-2.6,2.6-3.227,4.404c-1.519,4.449,1.179,9.161,5.901,9.678
		c2.434,0.254,4.822-1.023,6.473-2.708c2.037-2.081,2.776-4.766,2.368-7.585c-0.44-2.973-3.247-4.955-6.011-5.296
		c-1.398-0.176-2.95,0.254-4.151,1.091C193.092,102.934,192.607,103.078,192.233,103.308L192.233,103.308z"/>
	<path fill="#321A1B" d="M183.822,149.792c-2.423-4.018-5.186-7.982-8.512-11.318c-2.994-3.016-6.991-6.121-11.471-5.967
		c-4.967,0.155-8.17,4.668-9.921,8.819c-1.442,3.446-2.025,7.223-2.455,10.921c-0.373,3.281-0.947,6.935-0.22,10.173
		c0.033,0.187,0.132,0.308,0.242,0.374c0.352,0.474,0.957,0.77,1.596,0.584c1.178-0.342,2.4-0.32,3.602-0.386
		c1.573-0.088,3.125-0.265,4.7-0.33c3.127-0.143,6.275-0.099,9.391,0.197c6.078,0.573,11.969,2.544,17.22,5.649
		c1.244,0.727,2.588-0.463,2.301-1.773C189.007,160.713,187.014,155.064,183.822,149.792L183.822,149.792z M164.168,142.668
		L164.168,142.668c-0.021-0.011-0.043-0.022-0.064-0.043c0.033,0,0.064-0.011,0.1-0.022
		C164.19,142.625,164.18,142.646,164.168,142.668L164.168,142.668z M159.655,154.052L159.655,154.052
		c0.077-0.043,0.153-0.1,0.23-0.154c0.045,0,0.089,0,0.133,0c-0.133,0.077-0.253,0.154-0.385,0.231
		C159.644,154.107,159.644,154.084,159.655,154.052L159.655,154.052z M162.705,135.743L162.705,135.743
		c2.632-0.749,5.263,0.662,7.464,2.434c-0.957-0.012-1.894,0.088-2.598,0.187c-2.466,0.343-4.855,1.123-7.255,1.773
		c-0.936,0.252-2.137,0.606-3.271,1.101C158.278,138.716,160.063,136.502,162.705,135.743L162.705,135.743z M160.943,158.985
		L160.943,158.985c-0.991,0.044-1.982,0.122-2.973,0.197c0.055-0.075,0.11-0.152,0.176-0.231c0.717-0.869,1.695-1.497,2.665-2.036
		c1.827-1.035,4.063-1.74,6.176-1.717c2.665,0.021,5.296,1.916,7.201,3.6c0.528,0.463,1.046,0.947,1.541,1.454
		c-1.629-0.374-3.28-0.671-4.955-0.891C167.506,158.919,164.225,158.853,160.943,158.985L160.943,158.985z"/>
	<path fill="#321A1B" d="M137.107,117.412c-1.046,1.046-1.497,2.73-1.827,4.128c-0.407,1.673-0.419,3.138,0.187,4.756
		c0.242,0.649,1.135,0.396,1.034-0.287c-0.209-1.409,0.21-3.06,0.606-4.414c0.353-1.223,0.99-2.5,0.958-3.788
		C138.054,117.323,137.46,117.049,137.107,117.412L137.107,117.412z"/>
	<path fill="#321A1B" d="M222.917,119.283c0.199,0.683,0.539,1.344,0.782,2.015c0.362,1.002,0.562,2.587,1.43,3.259
		c0.287,0.22,0.773,0.275,0.959-0.122c0.529-1.09-0.12-2.4-0.561-3.446c-0.344-0.792-0.716-1.563-1.124-2.333
		c-0.396-0.772-1.101-1.322-1.584-2.038c-0.243-0.374-0.761-0.055-0.584,0.341C222.542,117.687,222.687,118.525,222.917,119.283
		L222.917,119.283z"/>
	<path fill="#321A1B" d="M278.209,285.696c4.557-7.234,8.785-14.666,12.726-22.252c7.974-15.369,14.799-31.4,19.949-47.936
		c5.109-16.383,8.414-33.371,9.414-50.513c0.98-16.713-0.605-33.459-4.26-49.786c-3.448-15.381-8.896-30.322-15.931-44.414
		c-7.035-14.071-15.723-27.349-26.413-38.919c-1.586-1.717-3.215-3.369-4.922-4.933c-0.165-0.264-0.396-0.483-0.693-0.638
		c-0.637-0.562-1.277-1.123-1.928-1.662c-2.19-4.019-3.974-8.28-7.179-11.683c-4.093-4.337-10.038-6.759-15.951-7.068
		c-5.208-0.274-10.966,1.663-13.477,6.54c-3.115,6.067-0.759,13.63,3.171,18.717c3.138,4.063,7.255,7.332,12.089,9.126
		c0.902,0.331,1.839,0.529,2.774,0.694c0.617,0.099,1.234,0.165,1.851,0.199c0.782,0.043,0.33-0.034,1.111,0.087
		c0.934,0.144,1.893,0.364,2.796,0.617c0.815,0.231,1.509,0.869,2.413,1.101c0.196,0.044,0.396,0.055,0.582,0.044
		c0.064,1.123,0.12,2.246,0.132,3.368c0.044,3.667-0.187,7.323-0.55,10.956c-0.705,7.178-1.3,14.28-3.293,21.227
		c-2.137,7.498-5.098,14.698-8.104,21.866c-1.396,3.325-2.553,6.804-4.139,10.04c-1.442,2.963-3.249,5.528-5.329,7.917
		c-0.573,0.649-1.179,1.266-1.783,1.894c-0.043-0.133-0.077-0.265-0.12-0.396c-1.004-2.962-2.28-5.88-3.634-8.699
		c-0.683-1.419-1.476-2.752-2.434-4.007c-0.814-1.08-1.839-2.378-3.095-3.028c-0.34-1.254-0.99-2.455-1.431-3.666
		c-0.529-1.42-0.969-2.841-1.53-4.239c-1.245-3.038-2.542-5.99-4.37-8.731c-3.469-5.197-8.433-9.589-14.015-12.386
		c-5.363-2.675-11.121-3.831-17.045-4.327c-3.677-0.296-7.333,0.078-10.921,0.859c-1.42,0.308-2.818,0.737-4.206,1.189
		c-1.255,0.198-2.51,0.44-3.743,0.759c-7.399,1.917-14.225,5.913-19.112,11.825c-2.5,3.017-4.272,6.396-5.946,9.909
		c-1.574,3.314-3.147,6.892-3.71,10.547l0,0c-0.308-1.222-0.87-2.278-1.376-3.49c-0.54-1.309-0.969-2.664-1.344-4.019
		c-0.836-3.039-1.387-6.187-1.903-9.292c-1.047-6.23-1.619-12.518-1.972-18.837c-0.363-6.451-0.341-12.848-0.088-19.3
		c0.11-2.73,0.254-5.449,0.254-8.191c0-0.583-0.012-1.2,0-1.827c0.241,0.01,0.495-0.011,0.77-0.1c0.44-0.121,0.495-0.088,1.101,0.11
		c0.21,0.077,0.903,0.617,1.278,0.871c1.408,0.979,3.191,1.794,4.942,1.662c3.149-0.231,6.078-1.409,8.753-3.039
		c5.296-3.248,9.974-8.466,11.869-14.445c1.694-5.34,0.077-11.164-4.725-14.224c-4.019-2.565-9.533-2.554-13.971-1.288
		c-2.423,0.704-4.558,1.894-6.528,3.435c-2.421,1.872-3.887,4.756-5.197,7.443c-1.354,2.797-2.773,5.373-4.777,7.762
		c-0.914,1.09-1.971,2.19-2.896,3.347c-0.154,0.066-0.309,0.121-0.451,0.187c-0.342,0.154-0.408,0.506-0.309,0.815
		c-0.386,0.55-0.727,1.112-1.013,1.707c-8.489,7.42-13.949,18.353-18.959,28.196c-7.277,14.269-14.181,28.646-18.034,44.269
		c-3.886,15.766-4.107,32.325-3.909,48.488c0.198,16.117,1.63,32.236,4.823,48.045c3.192,15.777,8.334,31.147,15.646,45.504
		c7.43,14.566,16.756,28.284,26.929,41.066c2.444,3.061,4.966,6.066,7.553,9.007c1.706,1.959,3.413,3.874,5.263,5.658
		c-0.076,0.012-0.154,0.032-0.231,0.056c-2.642,0.692-5.118,2.268-7.287,3.875c-4.141,3.082-7.852,6.749-11.021,10.823
		c-4.493,5.779-7.213,12.616-8.169,19.86c-0.805,6.1-0.431,12.705,2.003,18.429c-4.371-1.572-9.27-2.454-13.85-1.353
		c-2.677,0.638-5.219,2.19-6.243,4.845c-1.035,2.686,0.055,5.58,1.895,7.595c1.772,1.95,4.436,3.073,6.88,3.875
		c2.279,0.75,4.69,1.157,7.069,1.365c2.652,0.243,5.208,0.09,7.839-0.374c1.198-0.208,2.389-0.528,3.567-0.868
		c1.408-0.409,2.982-0.815,4.205-1.652c0.011,0,0.011-0.01,0.022-0.021c0.562-0.056,1.079-0.418,1.255-1.102
		c0.661-2.686,0.748-5.426,1.32-8.124c0.495-2.4,1.234-4.515,2.379-6.563c2.301-4.117,5.691-6.869,9.964-9.039
		c1.232-0.628,1.816-0.869,3.182-1.376c1.465-0.539,2.961-1.001,4.459-1.453c3.589-1.078,7.311-1.816,11.021-2.278
		c7.838-0.97,15.732-0.947,23.615-0.926c8.235,0.033,16.46,0.298,24.695,0.408c8.225,0.098,16.459,0.011,24.693,0.165
		c7.575,0.153,15.15,0.605,22.593,2.037c3.831,0.749,7.598,1.749,11.285,3.016c1.398,0.474,2.773,1.024,4.14,1.552
		c0.518,0.199,1.034,0.409,1.552,0.618c0.033,0.01,0.376,0.153,0.495,0.208c0.309,0.133,0.617,0.265,0.924,0.397
		c1.862,0.824,3.689,1.751,5.439,2.797c1.806,1.089,2.896,1.871,4.351,3.335c1.09,1.113,2.048,2.478,2.574,3.843
		c0.65,1.695,0.628,3.622,0.541,5.404c-0.033,0.585,0.275,0.947,0.682,1.092c0.078,0.087,0.166,0.153,0.265,0.208
		c0.1,0.331,0.265,0.629,0.474,0.87c1.289,1.563,3.457,1.838,5.328,2.137c1.973,0.318,3.954,0.518,5.946,0.539
		c1.806,0.022,3.59-0.264,5.362-0.628c3.38-0.683,7.807-1.872,9.855-4.879c1.099-1.606,0.593-3.808-0.873-4.985
		c-2.169-1.74-5.207-2.631-7.916-2.94c-2.498-0.285-4.953-0.044-7.276,0.604c1.111-2.013,1.982-4.161,2.708-6.352
		c1.862-5.614,1.827-11.825,0.164-17.472c-3.347-11.373-12.606-20.28-22.789-25.797c-2.994-1.63-6.199-3.093-9.491-4.017
		c-0.88-0.254-1.762-0.463-2.653-0.641c1.542-1.959,3.029-3.952,4.46-6.022C273.539,292.95,275.908,289.352,278.209,285.696
		L278.209,285.696z M288.358,62.407L288.358,62.407c2.764,4.999,5.275,10.107,7.563,15.314c-1.475-0.979-2.972-1.849-4.679-2.477
		c-4.48-1.64-9.679-1.563-14.345-1.024c-4.405,0.507-8.731,1.596-12.795,3.358c-1.903,0.826-3.697,1.817-5.415,2.907
		c1.177-4.745,1.915-9.568,2.202-14.555c0.363-6.529,0.681-13.058-0.144-19.554c0.431-0.594,1.088-1.089,1.552-1.497
		c1.201-1.057,2.565-1.905,3.997-2.62c1.332-0.672,2.653-1.244,4.117-1.585c0.981-0.22,2.664,0.11,3.731-0.605h0.012
		c0.595,0.804,1.178,1.618,1.762,2.444C280.433,48.887,284.583,55.56,288.358,62.407L288.358,62.407z M271.459,36.424
		L271.459,36.424c-0.582,0.023-1.166,0.1-1.663,0.199c-1.994,0.374-4.051,1.266-5.745,2.367c-1.444,0.924-2.931,2.092-3.986,3.479
		c-0.484-1.926-1.2-3.699-2.07-5.472c0.596-1.497,1.782-2.807,3.026-3.754c1.86-1.409,3.909-1.927,6.034-2.664
		C268.521,32.527,269.996,34.476,271.459,36.424L271.459,36.424z M251.531,35.225L251.531,35.225
		c-1.232-0.385-2.467-0.749-3.688-1.134c-0.043-0.012-0.605-0.231-0.585-0.209c-0.263-0.121-0.528-0.252-0.792-0.374
		c-0.78-0.386-1.563-0.793-2.313-1.246c-2.422-1.441-4.768-3.654-6.317-5.9c-0.838-1.2-1.544-2.565-1.907-3.568
		c-0.254-0.704-0.439-1.431-0.605-2.157c0,0-0.109-0.771-0.12-0.727c-0.045-0.44-0.055-0.87-0.055-1.299
		c-0.012-0.341,0.01-0.672,0.031-1.013c0.013-0.033,0.013-0.066,0.013-0.1c0.011-0.044,0.021-0.109,0.044-0.208
		c0.055-0.286,0.132-0.571,0.209-0.859c0.032-0.077,0.154-0.407,0.188-0.505c0.131-0.254,0.273-0.496,0.428-0.738
		c0,0.011,0.242-0.309,0.331-0.408c0.144-0.154,0.299-0.297,0.463-0.439c0.065-0.056,0.296-0.242,0.385-0.297
		c0.209-0.144,0.44-0.276,0.66-0.396c0.132-0.077,0.264-0.143,0.407-0.198c-0.251,0.11,0.319-0.122,0.441-0.176
		c0.518-0.177,1.046-0.297,1.563-0.408c0.219-0.043,0.429-0.077,0.648-0.109c-0.562,0.087,0.484-0.034,0.65-0.044
		c1.134-0.078,2.278-0.011,3.402,0.11c0.021,0,0.021,0,0.031,0.011c0.056,0,0.122,0.011,0.21,0.033
		c0.287,0.044,0.562,0.099,0.836,0.154c0.684,0.133,1.355,0.32,2.028,0.507c2.586,0.728,4.997,2.136,6.89,3.864
		c1.927,1.751,3.634,3.732,5.342,5.681c1.133,1.299,2.32,2.522,3.556,3.7c-2.17,0.87-4.195,2.444-5.615,4.052
		c-1.068,1.199-1.871,2.587-2.4,4.117c-0.275,0.771-0.363,1.52-0.353,2.269C254.371,36.215,252.985,35.676,251.531,35.225
		L251.531,35.225z M212.172,91.12L212.172,91.12c1.707,2.324,3.183,4.856,4.625,7.366c0.758,1.321,1.607,2.565,2.432,3.843
		c0.771,1.179,1.486,2.509,2.522,3.479c0.022,0.043,0.056,0.087,0.076,0.131c0.715,1.036,1.717,1.894,2.542,2.852
		c0.916,1.08,1.687,2.323,2.401,3.546c1.399,2.366,2.313,4.964,3.304,7.519c0.406,1.067,0.737,2.159,0.935,3.259
		c-0.66,1.167-0.439,2.41,0.242,3.303c-0.033,0.54-0.1,1.079-0.198,1.617c-0.231,1.279-0.604,2.478-1.188,3.634
		c-0.418,0.825-0.97,1.53-1.355,2.323c-0.263,0.122-0.483,0.353-0.581,0.661c-0.563,1.673-0.256,3.5-0.189,5.229
		c0.079,1.794,0.045,3.6,0.013,5.395c-0.079,3.511-0.552,7.056-1.972,10.315c-0.65,1.509-1.42,2.963-2.311,4.349
		c-0.849,1.333-1.399,1.982-2.555,3.204c-1.311,1.388-2.455,2.401-3.754,3.337c-0.959-2.103-2.016-4.163-3.106-6.199
		c0.485-1.563,0.871-3.006,1.035-4.679c0.165-1.75,0.298-3.491,0.385-5.251c0.178-3.789,0.222-7.575,0.077-11.374
		c-0.274-7.432-1.221-14.874-2.575-22.185c-1.189-6.43-2.576-12.871-4.447-19.135c-1.597-5.372-3.646-10.855-6.794-15.545
		C205.787,84.339,209.43,87.399,212.172,91.12L212.172,91.12z M192.597,175.267L192.597,175.267
		c-0.309-0.197-0.683-0.329-1.112-0.384c-1.838-0.221-3.656,0.044-5.483,0.275c-1.959,0.253-3.919,0.484-5.9,0.605
		c-3.755,0.231-7.41-0.021-11.131-0.473c0,0-0.584-0.077-0.694-0.087c-0.298-0.044-0.594-0.088-0.892-0.122
		c-0.726-0.109-1.453-0.231-2.168-0.351c-1.587-0.276-3.16-0.606-4.724-0.979c-3.018-0.727-5.979-1.686-8.852-2.842
		c-4.735-1.915-9.799-5.196-13.268-9.523c1.563-4.162,3.27-8.301,5.021-12.375c1.971-4.613,4.25-9.313,7.652-13.046
		c3.204-3.523,6.672-6.528,11.361-7.805c5.759-1.574,12.078-0.177,17.385,2.246c7.816,3.578,14.39,9.512,19.938,15.964
		c2.908,3.37,5.604,6.98,7.927,10.779c2.269,3.71,4.141,7.618,6.177,11.45c-2.422,1.386-4.524,2.256-7.001,3.148
		c-2.808,1.002-5.704,1.772-8.601,2.455C196.352,174.64,194.479,175.003,192.597,175.267L192.597,175.267z M170.433,114.792
		L170.433,114.792c0.023-0.012,0.034-0.012,0.057-0.012c0.143,0.023,0.22,0.078,0.407,0.188c1.002,0.605,1.717,1.971,2.256,2.973
		c0.299,0.54,0.485,1.101,0.618,1.695c0.031,0.165,0.01,0.363,0.01,0.528l0,0c-1.452,0.594-4.503-0.176-6.615,0.221
		c0.461-0.859,0.803-1.817,1.21-2.642c0.407-0.859,0.848-1.773,1.475-2.489C170.104,114.968,170.269,114.847,170.433,114.792
		L170.433,114.792z M170.556,114.758L170.556,114.758C170.588,114.747,170.576,114.747,170.556,114.758L170.556,114.758z
		 M200.402,81.421L200.402,81.421c2.158,5.561,4.261,11.098,5.847,16.867c1.694,6.221,2.796,12.542,3.545,18.937
		c0.836,7.08,1.707,14.137,2.068,21.26c0.177,3.634,0.188,7.277,0.057,10.911c-0.077,1.75-0.121,3.501-0.198,5.263
		c-0.022,0.45-0.033,0.891-0.033,1.342c-1.375-2.411-2.83-4.789-4.425-7.035c-2.775-3.875-5.913-7.52-9.349-10.844
		c-0.065-0.661-0.166-1.311-0.209-1.883c-0.145-1.784-0.297-3.577-0.484-5.362c-0.188-1.794-0.387-3.589-0.605-5.372
		c-0.209-1.74-0.617-3.325-1.111-4.998c-0.111-0.354-0.585-0.253-0.617,0.087c-0.154,1.662-0.275,3.237-0.188,4.911
		c0.099,1.783,0.176,3.578,0.242,5.372c0.055,1.542,0.088,3.083,0.123,4.625c-0.42-0.364-0.849-0.738-1.279-1.09
		c-6.837-5.714-15.909-10.801-25.069-11.164c0.826-0.066,1.686,0.032,2.488,0.066c1.74,0.087,4.228,0.242,5.253-1.53
		c1.661-2.884-1.223-7.09-3.425-8.863c-2.346-1.894-4.668-0.682-6.021,1.64c-1.267,2.159-2.269,4.779-2.853,7.19
		c-0.121,0.528,0.319,0.935,0.793,0.87c-0.022,0.254,0.154,0.495,0.363,0.617c0.043,0.032,0.087,0.066,0.143,0.087
		c-2.257,0.199-4.491,0.716-6.694,1.608c-2.729,1.111-5.063,2.697-7.079,4.602c0.154-2.477,0.287-4.955,0.694-7.398
		c0.143-0.924-1.079-1.278-1.41-0.385c-1.265,3.39-2.234,7.178-2.102,10.866c-1.993,2.532-3.645,5.384-5.109,8.345
		c-1.706,3.457-3.083,7.079-4.326,10.723c-0.893,2.632-1.542,5.329-2.269,8.004c-0.362-0.583-0.682-1.189-0.958-1.795
		c0.332-3.137,0.1-6.363,0.286-9.5c0.231-3.908,0.694-7.828,1.233-11.704c1.058-7.507,2.852-14.907,4.955-22.184
		c1.783-6.199,3.754-12.386,6.198-18.364c1.21-2.983,2.619-5.891,4.25-8.665c0.539-0.925,1.123-1.805,1.729-2.686
		c2.531-1.795,5.36-3.159,8.323-4.162c0,0-0.012,0-0.012,0.011c-0.869,1.453-1.618,3.083-2.125,4.712
		c-0.99,3.226-1.992,6.44-3.038,9.644c-0.177,0.541,0.649,0.75,0.836,0.231c1.08-3.016,2.114-6.011,3.777-8.774
		c0.759-1.288,1.476-2.61,2.278-3.865c0.671-1.057,1.553-2.037,2.256-3.072c0.11-0.033,0.222-0.055,0.331-0.077
		c0.221-0.055,0.431-0.088,0.65-0.132c-0.133,1.959-0.341,3.896-0.341,5.868c-0.012,2.488,0.132,4.999,0.693,7.432
		c1.033,4.502,4.866,8.456,9.765,7.553c4.217-0.771,7.135-5.373,8.831-8.907c0.849-1.761,1.552-3.623,1.926-5.538
		c0.309-1.641,0.507-3.303,0.772-4.954c0.043-0.319,0.108-0.638,0.175-0.97c0.165,0.386,0.318,0.771,0.462,1.157
		c0.617,1.629,1.244,3.269,1.806,4.921c1.101,3.27,2.368,6.617,2.456,10.085c0.021,0.672,1.035,0.672,1.035,0
		c0.043-3.512,0.064-6.947-0.881-10.36c-0.463-1.673-1.014-3.325-1.631-4.955c-0.207-0.583-0.406-1.211-0.616-1.849
		c2.454,0.518,5.132,1.375,7.013,2.245C199.874,81.156,200.138,81.289,200.402,81.421L200.402,81.421z M186.144,78.162
		L186.144,78.162c-0.032,0.188-0.065,0.385-0.098,0.583c-0.265,1.586-0.484,3.17-0.727,4.757c-0.265,1.717-0.716,3.324-1.321,4.954
		c-1.068,2.841-3.018,6.826-6.045,8.026c-3.667,1.464-6.109-2.94-7.023-5.847c-1.156-3.709-1.179-7.685-1.85-11.504
		c2.939-0.496,5.9-0.639,8.906-0.694c1.948-0.032,3.909-0.077,5.867-0.077C184.504,78.35,185.33,78.306,186.144,78.162
		L186.144,78.162z M144.429,97.451L144.429,97.451c1.09-2.19,2.412-4.271,3.908-6.221c-0.439,0.937-0.869,1.883-1.278,2.83
		c-2.63,6.111-4.678,12.485-6.57,18.849c-2.259,7.574-4.131,15.27-5.286,23.087c-0.133,0.958-0.273,1.904-0.396,2.862
		c-0.043-0.737-0.132-1.476-0.264-2.224c-0.023-0.253-0.067-0.507-0.155-0.76c-0.01-0.022-0.01-0.044-0.021-0.066
		c-0.023-0.143-0.089-0.264-0.155-0.363c-0.076-0.154-0.153-0.309-0.241-0.474c-0.485-0.858-0.924-1.751-1.3-2.665
		c-0.627-1.563-0.99-3.138-1.123-4.733c-0.209-2.808,0.056-5.627,0.738-8.357c0.705-2.785,1.816-5.472,3.545-7.784
		c0.804-1.079,1.783-2.036,2.808-2.906c0.483-0.417,2.61-1.607,2.081-2.477c-0.033-0.044-0.066-0.088-0.1-0.121
		C142.084,103.209,143.063,100.215,144.429,97.451L144.429,97.451z M124.567,34.597L124.567,34.597
		c1.376-0.023,2.797-0.319,3.975-0.165c0.749,0.098,1.276,0.516,1.728,1.068c-1.354,1.596-2.024,3.6-2.389,5.67
		c-0.044,0.241-0.087,0.495-0.121,0.737c-1.651-0.65-3.336-1.068-5.098-1.288c-1.013-0.132-2.092-0.177-3.138-0.045
		C121.088,38.495,122.773,36.49,124.567,34.597L124.567,34.597z M133.87,23.731L133.87,23.731c1.486-2.334,3.062-4.581,5.495-6.012
		c0.439-0.276,0.913-0.506,1.387-0.726c0.011-0.012,0.021-0.012,0.043-0.023c0.034-0.011,0.089-0.032,0.166-0.065
		c0.231-0.088,0.462-0.166,0.704-0.241c0.474-0.167,0.97-0.288,1.465-0.409c0.252-0.055,0.506-0.11,0.76-0.153
		c0.088-0.023,0.583-0.089,0.716-0.11c0.957-0.11,1.927-0.121,2.896-0.077c0.252,0.011,0.517,0.043,0.77,0.065
		c0.01,0,0.021,0,0.032,0c0.033,0.011,0.089,0.022,0.154,0.033c0.572,0.089,1.145,0.242,1.707,0.408
		c0.23,0.065,0.462,0.143,0.693,0.231c0.033,0.012,0.055,0.012,0.077,0.023c0.022,0.01,0.032,0.01,0.056,0.021
		c0.429,0.199,0.836,0.441,1.233,0.705c0.043,0.022,0.132,0.088,0.208,0.144c0.133,0.121,0.265,0.242,0.396,0.374
		c0.101,0.088,0.188,0.198,0.287,0.297c-0.221-0.242,0.254,0.353,0.341,0.496c0.055,0.099,0.111,0.198,0.166,0.296
		c0.021,0.055,0.165,0.364,0.198,0.463c0.066,0.22,0.253,1.255,0.265,1.156c0.044,0.506,0.031,1.023,0,1.53c0,0.023,0,0.045,0,0.067
		c-0.012,0.044-0.023,0.099-0.034,0.176c-0.066,0.396-0.176,0.782-0.286,1.178c-0.077,0.297-0.188,0.584-0.285,0.882
		c-0.023,0.044-0.198,0.484-0.231,0.572c-0.242,0.54-0.518,1.057-0.805,1.563c-0.329,0.594-0.715,1.178-1.102,1.74
		c-0.417,0.605-0.55,0.759-1.21,1.52c-0.628,0.727-1.31,1.409-2.015,2.07c-0.353,0.33-0.726,0.639-1.09,0.946
		c-0.628,0.528-0.353,0.297-1.002,0.76c-0.859,0.605-1.761,1.144-2.687,1.629c-0.33,0.176-0.672,0.331-1.013,0.484
		c-0.022,0.011-0.121,0.045-0.297,0.122c-0.298,0.111-0.606,0.22-0.914,0.33c-0.396,0.132-0.804,0.242-1.21,0.342
		c-0.122,0.033-1.003,0.187-0.839,0.176c-0.385,0.043-0.604,0.078-0.671,0.088c-0.109,0-0.21,0-0.308-0.01
		c-0.056-0.011-0.121-0.022-0.222-0.034c-0.318-0.066-0.638-0.165-0.946-0.264c-0.869-0.252-1.718-0.484-2.554-0.605
		c-0.286-1.244-1.365-2.488-2.192-3.237c-0.957-0.88-2.102-1.31-3.39-1.453c-0.276-0.021-0.539-0.021-0.804-0.011
		c0-0.022,0.011-0.033,0.011-0.055c0.033-0.032,0.065-0.055,0.088-0.088C130.358,28.883,132.187,26.362,133.87,23.731L133.87,23.731
		z M107.469,61.571L107.469,61.571c2.786-5.979,5.813-11.88,9.48-17.374c1.584-1.057,4.271-0.737,5.846-0.418
		c1.421,0.297,2.818,0.704,4.161,1.245c0.133,0.055,0.265,0.12,0.396,0.175c-0.154,1.443-0.275,2.884-0.452,4.316
		c-0.824,6.76-1.244,13.443-1.111,20.257c0.088,4.338,0.275,8.677,0.65,13.002c-0.265-0.175-0.551-0.351-0.849-0.529
		c-0.991-0.615-1.959-1.266-2.95-1.882c-1.904-1.178-3.908-2.113-6.155-2.333c-3.93-0.385-8.278,0.375-12.044,1.486
		c-2.202,0.649-4.382,1.486-6.452,2.51C100.93,75.112,104.287,68.385,107.469,61.571L107.469,61.571z M96.823,222.93L96.823,222.93
		c-10.009-30.299-11.341-62.569-10.25-94.233c0.505-14.455,4.205-28.592,9.5-42.002c0.343-0.22,0.695-0.429,1.047-0.639
		c2.577-1.465,5.384-2.478,8.213-3.303c3.436-1.002,7.179-1.508,10.757-1.3c1.894,0.123,3.578,1.19,5.142,2.18
		c1.596,1.002,3.412,2.774,5.384,2.742c0.065,0,0.132-0.011,0.188-0.011c0.144,1.299,0.308,2.599,0.495,3.897
		c0.474,3.281,1.046,6.584,1.85,9.799c0.341,1.376,0.781,2.719,1.288,4.041c0.648,1.695,1.322,3.677,2.72,4.888
		c0.032,0.022,0.055,0.044,0.088,0.066c-2.399,2.521-4.02,5.736-5.008,9.05c-0.928,3.126-1.335,6.495-1.081,9.754
		c0.167,2.092,0.64,4.083,1.421,6.021c0.462,1.145,0.991,2.246,1.574,3.326c0.407,0.749,0.848,1.188,1.42,1.454
		c-0.078,0.362-0.154,0.725-0.22,1.089c-1.938-0.573-4.195-0.419-6.044-0.144c-2.644,0.386-5.263,1.509-7.146,3.424
		c-0.761,0.771,0.021,1.927,1.013,1.729c1.971-0.386,4.018-0.573,6.022-0.661c1.046-0.044,2.169-0.077,3.215,0.066
		c0.704,0.099,1.364,0.341,2.036,0.551c-0.054,0.309-0.11,0.616-0.154,0.936c-0.562,3.271-0.969,6.573-0.539,9.886
		c0.914,7.102,5.703,12.86,11.285,17.033c5.075,3.797,11.164,6.165,17.263,7.728c6.605,1.686,13.608,2.687,20.424,2.236
		c1.365-0.1,2.719-0.265,4.073-0.474c1.453,0.165,2.905,0.297,4.359,0.286c3.987-0.055,7.928-0.595,11.836-1.387
		c6.001-1.222,11.935-3.083,17.362-5.956c5.516-2.928,10.305-7.189,13.399-12.649c3.864-6.859,4.393-15.095,2.345-22.603
		c-0.1-0.397-0.209-0.804-0.319-1.212c0.22-0.153,0.417-0.363,0.595-0.616c0.737-1.089,2.543-1.398,4.019-1.531
		c1.948-0.165,3.92,0.043,5.857-0.264c1.034-0.165,0.715-1.706-0.242-1.75c-2.248-0.111-4.394-1.035-6.618-1.376
		c-0.826-0.122-1.628-0.155-2.398-0.066c0.571-1.266,0.945-2.609,1.166-3.644c0.109-0.551,0.177-1.112,0.221-1.674
		c0.275-0.066,0.549-0.176,0.825-0.342c1.575-0.936,2.741-2.29,3.963-3.622c1.256-1.386,2.424-2.84,3.546-4.338
		c2.191-2.94,3.723-6.143,5.063-9.534c2.854-7.178,5.991-14.236,8.566-21.523c0.519-1.477,1.002-2.962,1.443-4.449
		c5.954-3.148,12.385-5.504,19.112-6.188c4.403-0.451,9.182-0.385,13.41,1.013c2.092,0.683,3.888,2.069,5.668,3.313
		c0.805,0.562,1.586,1.145,2.401,1.618c2.874,7.146,5.351,14.456,7.475,21.888c4.383,15.381,6.949,31.3,7.169,47.309
		c0.231,16.843-2.138,33.601-6.332,49.905c-7.86,30.575-21.854,59.729-39.381,85.987c-1.598,1.255-3.149,2.598-4.79,3.777
		c-2.706,1.948-5.505,3.818-8.322,5.593c-5.747,3.599-12.287,5.614-18.872,7.057c-6.848,1.497-13.806,2.455-20.729,3.478
		c-2.929,0.442-5.869,0.641-8.808,0.937c-0.507,0.056-1.068,0.11-1.642,0.198c-1.894-5.187-7.597-7.53-12.881-8.036
		c-3.094-0.31-6.343,0.098-9.216,1.31c-1.387,0.583-2.587,1.354-3.656,2.422c-0.967,0.242-1.782,0.804-2.433,1.553
		c-2.189-0.759-4.359-1.585-6.571-2.268c-2.479-0.771-4.967-1.465-7.433-2.257c-4.755-1.53-9.436-3.271-13.949-5.407
		c-3.875-1.827-7.762-3.854-11.405-6.144c-1.619-1.903-3.205-3.831-4.757-5.779c-4.965-6.231-9.566-12.737-13.905-19.422
		C109.22,252.238,101.854,238.155,96.823,222.93L96.823,222.93z M180.871,316.291L180.871,316.291
		c-0.022-0.021-0.033-0.021-0.056-0.033c-0.044-0.044-0.098-0.099-0.187-0.175c-0.342-0.298-0.694-0.64-0.969-1.003
		c-0.65-0.837-1.079-1.751-1.3-2.774c-0.462-2.092,1.465-3.071,2.455-4.581c0.121-0.186,0.188-0.373,0.209-0.572
		c0.451-0.252,0.914-0.474,1.398-0.704c1.872-0.893,4.041-1.112,6.077-1.177c2.214-0.078,4.395,0.242,6.485,0.935
		c1.618,0.528,3.413,1.541,4.294,2.719c0.727,0.97,1.234,2.049,1.465,3.105c0,0.021-0.012,0.032-0.012,0.045
		c-0.032,0.109,0.012,0.208,0.078,0.274c0.066,0.419,0.088,0.826,0.066,1.233c0,0.023,0,0.044,0,0.065
		c-0.012,0.034-0.012,0.066-0.023,0.122c-0.033,0.175-0.088,0.34-0.132,0.517c-0.011,0.033-0.098,0.232-0.12,0.299
		c-0.056,0.12-0.11,0.22-0.178,0.329c-0.066,0.12-0.143,0.23-0.221,0.342c0.101-0.144-0.164,0.208-0.197,0.241
		c-0.121,0.134-0.252,0.265-0.373,0.386c-0.045,0.043-0.398,0.33-0.398,0.341c-2.752,2.037-6.482,2.434-9.952,2.335
		c-2.818-0.065-5.835-0.639-8.114-2.07C181.069,316.423,180.97,316.357,180.871,316.291L180.871,316.291z M153.798,308.056
		L153.798,308.056c-1.96-1.045-3.82-2.245-5.647-3.5c-0.066-0.133-0.144-0.266-0.231-0.386c-1.574-2.136-3.292-4.141-5.043-6.122
		c1.289,0.684,2.588,1.345,3.888,1.971c4.48,2.169,9.148,3.942,13.86,5.537c2.445,0.826,4.911,1.586,7.388,2.303
		c2.169,0.627,4.271,1.441,6.385,2.202c-0.11,0.462-0.187,0.925-0.22,1.386c-0.099,1.256,0.188,2.522,0.705,3.689
		c-3.578-0.726-7.123-1.674-10.613-2.808C160.689,311.171,157.122,309.84,153.798,308.056L153.798,308.056z M204.707,312.009
		L204.707,312.009c0.969,0,1.938,0.054,2.917,0.088c3.228,0.088,6.574-0.297,9.767-0.706c6.881-0.891,13.785-1.926,20.544-3.479
		c6.506-1.496,13.102-3.721,18.694-7.442c1.598-1.057,3.205-2.103,4.789-3.169c-1.288,1.937-2.532,3.887-3.81,5.834
		c-0.119,0.165-0.208,0.342-0.275,0.517c-0.286,0.364-0.562,0.728-0.825,1.025c-0.362,0.407-0.728,0.781-1.102,1.154
		c-1.528,0.816-3.115,1.565-4.744,2.225c-5.395,2.203-10.999,3.942-16.713,4.999c-6.221,1.146-12.374,2.424-18.541,3.809
		c-3.248,0.726-6.45,1.233-9.775,1.245c-0.88,0.012-1.762-0.012-2.645-0.032C204.323,316.522,205.026,314.53,204.707,312.009
		L204.707,312.009z M113.7,369.017L113.7,369.017c-1.364,0.066-2.741-0.045-4.095-0.177c-0.165-0.01-0.32-0.032-0.484-0.055
		c0.033,0-0.485-0.078-0.54-0.087c-0.661-0.099-1.321-0.243-1.972-0.386c-1.122-0.253-2.212-0.596-3.291-1.014
		c0.09,0.022-0.528-0.253-0.518-0.241c-0.252-0.122-0.506-0.265-0.748-0.408c-0.242-0.132-0.474-0.286-0.705-0.439
		c-0.076-0.056-0.133-0.088-0.165-0.122c-0.109-0.087-0.22-0.176-0.319-0.264c-0.154-0.145-0.298-0.308-0.44-0.463
		c0.199,0.209-0.187-0.286-0.231-0.342c-0.021-0.043-0.121-0.286-0.165-0.395c-0.055-0.177-0.099-0.376-0.143-0.563
		c0.065,0.31,0.044,0,0.032-0.219c0.023-0.034,0.044-0.166,0.066-0.286c0.022-0.021,0.099-0.154,0.153-0.265
		c0,0.077,0.573-0.551,0.21-0.275c3.039-2.345,7.739-1.851,11.461-1.08c1.928,0.397,4.096,0.904,6.144,1.687
		c1.047,1.354,2.279,2.63,3.667,3.534c-0.969,0.351-1.928,0.747-2.885,1.012C117.081,368.631,115.406,368.929,113.7,369.017
		L113.7,369.017z M137.724,342.198L137.724,342.198c-4.624,2.762-8.564,6.694-10.888,11.591c-1.146,2.424-1.949,4.967-2.39,7.608
		c-0.022,0.133-0.044,0.265-0.065,0.386c-0.728-0.936-1.487-1.838-2.114-2.764c-1.763-2.608-2.599-5.218-3.116-8.356
		c-1.067-6.473-0.021-13.255,2.444-19.311c2.025-4.976,5.548-9.05,9.249-12.848c0.99-1.014,2.048-2.026,3.115-2.963
		c2.269,0.76,4.349,2.126,6.231,3.545c2.499,1.872,5.021,3.931,7.299,6.078c2.555,2.4,4.657,5.262,6.452,8.257
		c0.473,0.781,0.88,1.598,1.299,2.411C149.064,337.034,143.097,338.993,137.724,342.198L137.724,342.198z M158.62,335.239
		L158.62,335.239c-0.276-0.561-0.595-1.102-0.869-1.606c-0.893-1.62-1.905-3.161-2.983-4.658c-1.971-2.721-4.229-5.339-6.903-7.376
		c-3.59-2.731-7.256-6.342-11.582-7.938c0.164-0.123,0.329-0.243,0.496-0.364c1.033-0.737,2.09-1.431,3.213-2.025
		c0.518-0.286,1.058-0.518,1.586-0.761c-0.439,0.198,0.396-0.143,0.396-0.143c0.341-0.121,0.682-0.199,1.024-0.343
		c0.627-0.263,1.519-0.527,1.882-0.647c0.155-0.045,0.309-0.111,0.452-0.188c0.528,0.298,1.034,0.618,1.498,0.86
		c1.65,0.868,3.225,1.771,4.744,2.873c3.105,2.256,5.979,4.832,9.038,7.145c2.996,2.257,5.936,4.57,8.566,7.255
		c1.421,1.442,2.709,3.018,3.963,4.603c0.528,0.661,1.013,1.376,1.531,2.069C169.354,334.127,163.938,334.436,158.62,335.239
		L158.62,335.239z M230.14,334.413L230.14,334.413c-8.29-0.1-16.593-0.1-24.894-0.23c-8.18-0.133-16.349-0.32-24.54-0.276
		c-0.584,0.012-1.188,0.012-1.783,0.022c-0.771-1.508-1.972-2.829-2.984-4.129c-1.343-1.718-2.763-3.38-4.283-4.953
		c-2.917-2.995-6.309-5.506-9.655-8.004c-1.662-1.234-3.303-2.5-4.976-3.734c5.142,2.27,10.668,3.811,16.063,5
		c1.123,0.253,2.873,0.902,4.041,0.386c0.099,0.109,0.198,0.219,0.309,0.318c2.763,2.797,7.133,3.633,10.899,3.864
		c2.654,0.154,5.967-0.143,8.918-1.102c0.979,0.177,1.938,0.265,2.984,0.298c1.805,0.044,3.601,0.132,5.395,0.153
		c3.512,0.044,6.958-0.473,10.392-1.199c3.127-0.672,6.221-1.486,9.37-2.091c3.357-0.651,6.728-1.257,10.084-1.873
		c5.264-0.957,10.372-2.586,15.315-4.591c-1.452,1.189-2.818,2.478-4.095,3.831c-2.832,2.995-5.241,6.396-7.29,9.965
		c-1.123,1.971-2.08,4.007-2.905,6.11c-0.276,0.693-0.616,1.509-0.903,2.378C233.783,334.479,231.967,334.436,230.14,334.413
		L230.14,334.413z M310.62,362.212L310.62,362.212c0,0.012,0.012,0.035,0.034,0.067c-0.013-0.022-0.034-0.045-0.045-0.077
		C310.62,362.202,310.62,362.202,310.62,362.212L310.62,362.212z M304.378,360.033L304.378,360.033
		c1.794,0.077,4.107,0.649,5.551,1.619c-0.068,0.032-0.133,0.064-0.199,0.099c-0.11,0.055-0.231,0.109-0.34,0.165
		c-0.014,0-0.014,0.011-0.014,0.011c-0.031,0.01-0.064,0.022-0.109,0.033c-0.693,0.274-1.409,0.495-2.125,0.693
		c-1.496,0.418-3.039,0.703-4.568,0.979c-0.299,0.057-0.607,0.11-0.904,0.154c-0.021,0-0.032,0.012-0.055,0.012
		c-0.023,0-0.043,0-0.076,0.01c-0.99,0.11-1.983,0.077-2.96,0.034c-1.477-0.044-2.92-0.244-4.361-0.495
		c-0.056-0.012-0.122-0.022-0.178-0.033c0.464-0.518,0.903-1.047,1.311-1.574C298.235,360.572,301.307,359.89,304.378,360.033
		L304.378,360.033z M292.168,328.117L292.168,328.117c1.542,2.564,2.246,4.171,3.039,6.957c0.329,1.156,0.573,2.345,0.761,3.545
		c-0.013-0.045,0.075,0.595,0.075,0.638c0.034,0.331,0.056,0.65,0.078,0.979c0.056,0.761,0.056,1.531,0.032,2.29
		c-0.011,0.673-0.055,1.333-0.12,1.994c-0.011,0.121-0.021,0.209-0.021,0.264c-0.014,0.056-0.023,0.121-0.036,0.209
		c-0.055,0.342-0.109,0.672-0.175,1.014c-0.286,1.552-0.737,3.06-1.233,4.569c-0.827,2.51-2.202,4.832-3.687,7.002
		c-0.045,0.066-0.101,0.131-0.145,0.197c-0.429-2.488-1.871-4.669-3.533-6.517c-3.424-3.8-8.215-6.287-12.793-8.39
		c-4.735-2.181-9.624-3.832-14.612-5.076c0.597-2.136,1.918-4.063,3.228-5.857c1.927-2.619,4.262-4.954,6.584-7.233
		c2.641-2.609,5.658-4.359,9.203-5.482c1.607-0.507,3.259-0.825,4.933-0.946c1.256,1.101,2.477,2.29,3.678,3.566
		c0.473,0.496,0.924,1.002,1.365,1.52c0.219,0.264,0.43,0.519,0.649,0.782c-0.011-0.011,0.341,0.45,0.406,0.517
		C290.684,325.771,291.452,326.926,292.168,328.117L292.168,328.117z M279.65,315.025L279.65,315.025
		c-0.616,0.165-1.232,0.353-1.839,0.551c-4.041,1.354-7.586,3.742-10.559,6.77c-2.554,2.61-5.021,5.308-7.123,8.29
		c-1.287,1.828-2.641,4.163-3.083,6.519c-5.69-1.243-11.493-1.981-17.328-2.378c0.077-0.252,0.153-0.496,0.232-0.716
		c0.703-1.993,1.628-3.876,2.641-5.713c1.827-3.325,4.03-6.431,6.573-9.249c2.498-2.741,5.35-5.118,8.586-6.925
		c3.162-1.75,7.015-3.259,10.668-3.183c0.035,0,0.067-0.011,0.102-0.011c1.837,0.771,3.688,1.619,5.636,2.665
		C276.127,312.702,277.933,313.815,279.65,315.025L279.65,315.025z"/>
	<path fill="#321A1B" d="M133.705,234.863c-2.488-0.045-4.955,0.606-7.442,0.771c-3.082,0.199-6.242,0.076-9.304-0.363
		c-2.917-0.419-5.834-1.156-8.478-2.455c-1.209-0.584-2.313-1.321-3.347-2.158c-0.527-0.416-1.001-0.902-1.452-1.409
		c-0.452-0.505-1.091-0.892-1.466-1.453c-0.274-0.418-1.023-0.165-0.847,0.353c0.474,1.354,0.781,2.323,1.751,3.445
		c0.979,1.123,2.224,2.005,3.5,2.753c2.775,1.618,5.956,2.544,9.095,3.126c3.291,0.607,6.638,0.806,9.975,0.651
		c2.741-0.122,6.088-0.221,8.39-1.852C134.675,235.844,134.498,234.875,133.705,234.863L133.705,234.863z"/>
	<path fill="#321A1B" d="M208.308,232.044c8.005,2.688,16.438,4.053,24.905,3.381c8.179-0.651,16.932-3.654,22.403-9.986
		c0.461-0.539-0.122-1.354-0.771-1.001c-3.566,1.927-7.177,4.029-10.943,5.548c-3.545,1.432-7.29,2.246-11.087,2.665
		c-8.06,0.892-16.239-0.506-24.178-1.806C207.856,230.713,207.537,231.78,208.308,232.044L208.308,232.044z"/>
	<path fill="#321A1B" d="M181.532,294.15c4.184-0.297,6.462-6.044,6.507-9.566c0.064-5.064-4.404-8.753-8.963-9.854
		c-0.968-0.23-1.365,1.211-0.407,1.486c3.645,1.057,6.573,3.766,6.826,7.706c0.132,1.939-0.638,3.743-1.696,5.318
		c-0.374,0.572-0.847,1.079-1.364,1.519c-0.231,0.188-0.771,0.396-0.761,0.396c-0.561,0.068-0.858-0.164-1.111-0.516
		c-0.483-0.661-0.616-1.233-0.639-1.905c-0.021-0.605-0.032-0.475,0.11-0.98c0.077-0.297,0.198-0.451,0.342-0.594
		c0.144-0.155,0.362-0.275,0.714-0.409c0.64-0.241,1.168-0.461,1.665-0.945c0.45-0.43,0.483-1.267,0-1.695
		c-1.455-1.288-3.359-0.617-4.669,0.54c-1.078,0.957-1.52,2.521-1.52,3.93C176.587,291.211,178.614,294.36,181.532,294.15
		L181.532,294.15z"/>
	<path fill-rule="evenodd" clip-rule="evenodd" fill="#C7564A" d="M160.943,158.985L160.943,158.985
		c-0.991,0.044-1.982,0.122-2.973,0.197c0.055-0.075,0.11-0.152,0.176-0.231c0.717-0.869,1.695-1.497,2.665-2.036
		c1.827-1.035,4.063-1.74,6.176-1.717c2.665,0.021,5.296,1.916,7.201,3.6c0.528,0.463,1.046,0.947,1.541,1.454
		c-1.629-0.374-3.28-0.671-4.955-0.891C167.506,158.919,164.225,158.853,160.943,158.985L160.943,158.985z"/>
	<path fill-rule="evenodd" clip-rule="evenodd" fill="#FFFFFF" d="M162.705,135.743L162.705,135.743
		c2.632-0.749,5.263,0.662,7.464,2.434c-0.957-0.012-1.894,0.088-2.598,0.187c-2.466,0.343-4.855,1.123-7.255,1.773
		c-0.936,0.252-2.137,0.606-3.271,1.101C158.278,138.716,160.063,136.502,162.705,135.743L162.705,135.743z"/>
	<path fill-rule="evenodd" clip-rule="evenodd" fill="#F9BF9B" d="M159.655,154.052L159.655,154.052
		c0.077-0.043,0.153-0.1,0.23-0.154c0.045,0,0.089,0,0.133,0c-0.133,0.077-0.253,0.154-0.385,0.231
		C159.644,154.107,159.644,154.084,159.655,154.052L159.655,154.052z"/>
	<path fill-rule="evenodd" clip-rule="evenodd" fill="#F9BF9B" d="M164.168,142.668L164.168,142.668
		c-0.021-0.011-0.043-0.022-0.064-0.043c0.033,0,0.064-0.011,0.1-0.022C164.19,142.625,164.18,142.646,164.168,142.668
		L164.168,142.668z"/>
</g>
</svg>
