<?xml version="1.0" encoding="utf-8"?>
<!-- Generator: Adobe Illustrator 16.0.0, SVG Export Plug-In . SVG Version: 6.00 Build 0)  -->
<!DOCTYPE svg PUBLIC "-//W3C//DTD SVG 1.1//EN" "http://www.w3.org/Graphics/SVG/1.1/DTD/svg11.dtd">
<svg version="1.1" id="Layer_1" xmlns="http://www.w3.org/2000/svg" xmlns:xlink="http://www.w3.org/1999/xlink" x="0px" y="0px"
	 width="400px" height="400px" viewBox="0 0 400 400" enable-background="new 0 0 400 400" xml:space="preserve">
<g>
	<path fill-rule="evenodd" clip-rule="evenodd" fill="#E4D0AA" d="M200.004,388.805c78.845,0,143.153-9.921,143.153-22.088
		s-64.309-22.087-143.153-22.087c-78.857,0-143.166,9.92-143.166,22.087S121.146,388.805,200.004,388.805L200.004,388.805z"/>
	<path fill-rule="evenodd" clip-rule="evenodd" fill="#321A1B" d="M370.398,168.468c-3.051-5.154-9.911-4.361-14.646-3.539
		c-2.441,0.43-4.92,0.916-7.226,1.911c-2.454,1.077-7.056,3.392-6.664,6.958c0.049,0.376,0.133,0.793,0.293,1.158
		c-0.769,2.234-1.196,4.563-1.831,6.877c-0.793,2.961-1.929,5.895-3.039,8.735c-1.051,2.665-2.246,5.182-3.686,7.604
		c-1.258,2.1-2.259,3.446-4.028,5.491c-0.793,0.903-1.647,1.764-2.527,2.558c0.124-0.121-0.718,0.579-0.816,0.646
		c-0.439,0.337-0.903,0.62-1.367,0.889c0.342-0.202-0.562,0.215-0.733,0.269c-0.011,0-0.011,0-0.024,0
		c-0.316,0.027-0.646-0.039-0.963-0.054c0.305,0.015,0.354-0.014,0.158-0.081c0-0.027-0.586-0.336-0.599-0.349
		c-0.536-0.337-0.792-0.579-1.085-0.836c-0.892-0.808-1.697-1.695-2.515-2.584c0.024-0.565-0.171-1.171-0.658-1.695
		c-1.491-1.643-3.211-4.401-5.347-5.357c1.514-4.509,2.758-9.113,3.587-13.825c3.248-18.344,2.466-37.337-0.487-55.655
		c-2.232-13.917-5.956-27.405-11.021-40.38c-2.598-6.689-5.516-13.23-8.653-19.637c-1.086-2.234-2.208-4.456-3.32-6.69
		c-0.353-1.09-0.78-2.167-1.195-3.23c-0.671-1.709-1.551-3.284-2.402-4.886c-0.112-0.201-0.209-0.39-0.308-0.592
		c0.308-1.077,0.538-2.18,0.771-3.23c0.549-2.424,0.878-4.967,1.293-7.43c0.757-4.455,1.538-8.937,2.014-13.446
		c0.707-6.582-0.672-14.738-6.542-18.009c-7.323-4.092-14.012,1.924-17.845,8.506c-2.171,3.715-3.307,7.848-3.66,12.222
		c-0.354,4.321,0.719,8.79,1.146,13.069c0.135,1.252,0.379,2.491,0.5,3.757c0.099,1.009,0.172,1.91,0.513,2.798
		c0.025,1.226,0.025,2.45,0.099,3.688c0.146,2.571,0.146,5.142,0.073,7.713c-0.159,4.872-0.708,9.731-1.379,14.55
		c-0.696,4.953-1.673,9.84-2.723,14.711c-0.928,4.281-1.855,8.521-3.234,12.652c-4.918,14.739-14.4,26.664-25.167,36.773
		c-1.575,1.495-3.161,2.96-4.784,4.388c-1.624,1.426-3.014,2.84-4.454,3.984c-0.893,0.701-1.819,1.346-2.759,1.966
		c-0.403,0.255-0.817,0.497-1.22,0.726c-0.282,0.163-0.55,0.311-0.831,0.444c0.294-0.121,0.209-0.08-0.268,0.121
		c-0.488,0.215-0.978,0.404-1.451,0.593c-0.05-3.823-1.161-7.591-2.76-10.943c-1.71-3.567-4.31-6.501-7.202-8.911
		c-1.39-1.17-3.075-2.033-4.735-2.611c-0.927-0.322-2.075-0.699-3.124-0.673c-1.537-3.216-3.71-6.138-5.736-8.977
		c-2.16-3.056-4.588-5.896-7.176-8.506c-5.346-5.371-11.802-9.799-18.601-12.504c-7.127-2.84-15.182-2.854-22.592-1.629
		c-7.115,1.184-14.231,4.631-19.418,10.217c-1.464,1.575-2.575,3.444-3.82,5.235c-1.172,1.669-2.294,3.487-2.844,5.518
		c-4.443,6.784-7.64,14.443-10.252,22.276c-1.367,4.119-2.784,8.25-4.077,12.423c-7.495-0.727-15.135-2.544-21.725-6.083
		c-5.956-3.191-10.913-7.564-15.269-13.016c-8.897-11.118-12.62-27.672-10.875-42.169c0.756-6.286,2.477-12.262,4.724-18.09
		c0.598-1.521,1.232-3.014,1.879-4.509c0.11-0.054,0.208-0.149,0.293-0.256c1.184-1.588,2.282-3.23,3.295-4.953
		c1.135-1.911,1.916-4.159,2.916-6.164c0.904-1.804,1.88-3.541,3.051-5.142c1.257-1.709,2.563-3.446,3.395-5.465
		c1.781-4.334,1.72-9.436-1.172-13.205c-2.209-2.867-5.565-3.406-8.75-2.718c-6.592,1.399-11.876,8.209-14.281,14.738
		c-1.269,3.445-1.77,7.119-2.137,10.808c-0.365,3.661-0.487,7.417-0.279,11.078c0.023,0.633,0.109,1.25,0.023,1.884
		c-0.072,0.525,0.062,0.969,0.305,1.292C32.746,96.727,25.79,131.75,29.536,164.147c3.759,32.627,16.685,63.155,35.577,88.444
		c18.125,24.256,41.534,43.57,67.153,57.191c13.512,7.175,27.62,12.651,42.168,16.582c7.432,2.006,14.939,3.634,22.481,5.061
		c0.574,0.107,1.135,0.202,1.709,0.31c0.548,0.162,1.109,0.284,1.683,0.377c2.453,0.418,4.919,0.861,7.396,1.105
		c0.33,0.04,0.658,0.094,0.989,0.146c1.892,0.27,3.77,0.578,5.675,0.754c1.928,0.177,3.747,0.055,5.675-0.134
		c0.415-0.042,0.77-0.175,1.062-0.363c0.135,0,0.257,0,0.391,0c8.703-0.108,17.295-1.239,25.862-2.881
		c14.062-2.679,27.998-6.514,41.267-12.383c13.524-5.977,26.485-14.039,37.005-25.277c11.046-11.791,19.199-26.759,23.898-42.856
		c3.441-11.804,4.82-24.173,4.771-36.543c-0.012-6.205-0.464-12.383-1.221-18.521c-0.39-3.136-0.867-6.272-1.392-9.381
		c-0.293-1.736-0.695-3.431-1.099-5.128c0.122-0.309,0.195-0.632,0.244-0.968c0.427,0.162,0.854,0.309,1.27,0.458
		c2.88,1.036,6.091,1.251,9.081,0.727C366.077,179.99,374.353,175.145,370.398,168.468L370.398,168.468z"/>
	<path fill-rule="evenodd" clip-rule="evenodd" fill="#F9BF9B" d="M263.042,281.14c-0.83-0.095-1.549,0.565-2.283,0.916
		c-0.792,0.39-1.573,1.144-2.293,1.695c-1.515,1.158-3.076,2.221-4.711,3.149c-3.26,1.857-6.859,2.881-10.448,3.567
		c-7.385,1.386-15.599,0.443-22.652-2.288c-1.171-0.459-1.623,1.534-0.501,2.032c7.689,3.378,15.731,5.101,24.021,4.091
		c4.027-0.498,7.896-1.762,11.559-3.66c1.806-0.943,3.538-2.126,5.088-3.525c1.307-1.185,3.295-3.272,3.053-5.291
		C263.812,281.396,263.385,281.181,263.042,281.14L263.042,281.14z"/>
	<path fill-rule="evenodd" clip-rule="evenodd" fill="#F9BF9B" d="M340.203,254.462L340.203,254.462
		c-0.196-0.255-0.378-0.51-0.537-0.78c-1.062-1.642-1.989-3.392-2.869-5.168c-1.903-3.903-3.355-8.021-4.601-12.235
		c-1.208-4.118-2.111-8.345-2.747-12.611c-0.291-1.992-0.488-3.997-0.621-6.016c-0.073-1.023-0.244-2.021-0.415-3.017
		c1.929-0.981,3.648-2.504,5.199-4.051c1.146-1.157,2.22-2.396,3.247-3.715c2.025-0.242,3.733,0.053,5.639,0.861
		c1.685,0.712,3.246,1.911,4.576,3.229c0.672,0.673,1.222,1.494,1.794,2.274c-0.231,4.429-0.658,8.845-1.306,13.219
		C346.11,236.252,343.718,245.606,340.203,254.462L340.203,254.462z M272.623,27.491L272.623,27.491
		c0.904-3.042,2.649-5.788,4.395-7.82c1.135-1.333,1.671-1.789,3.063-2.585c0.05-0.04,0.099-0.066,0.136-0.08
		c0.062-0.013,0.146-0.054,0.292-0.107c0.281-0.094,0.562-0.162,0.843-0.229c-0.428,0.107,0.463-0.014,0.562-0.014
		c0.072,0,0.12,0,0.17,0c0.062,0.027,0.147,0.04,0.258,0.068c0.366,0.094,0.707,0.242,1.048,0.39
		c-0.682-0.296,0.282,0.215,0.344,0.255c0.072,0.041,0.121,0.083,0.169,0.108c0.024,0.028,0.073,0.068,0.109,0.108
		c0.185,0.174,0.342,0.363,0.489,0.551c-0.184-0.215,0.269,0.391,0.329,0.5c0.172,0.295,0.318,0.604,0.464,0.915
		c0,0.025,0.013,0.04,0.013,0.053c0.023,0.067,0.048,0.148,0.097,0.283c0.109,0.35,0.184,0.686,0.27,1.036
		c0.085,0.349,0.158,0.712,0.22,1.077c0.011,0.066,0.073,0.511,0.084,0.672c0.063,0.62,0.087,1.252,0.111,1.885
		c0.012,0.713-0.013,1.426-0.049,2.14c-0.013,0.35-0.049,0.687-0.073,1.037c-0.013,0.12-0.063,0.606-0.063,0.673
		c-0.549,4.24-1.354,8.438-1.916,12.679c-0.085,0.619-0.17,1.251-0.267,1.898c-1.343-1.198-2.905-2.087-4.639-2.437
		c-2.137-0.431-4.357-0.135-6.444,0.417c-0.378,0.108-0.769,0.216-1.147,0.336c0-0.538-0.013-1.089-0.013-1.642
		C271.414,35.541,271.464,31.448,272.623,27.491L272.623,27.491z M300.512,302.057L300.512,302.057
		c-6.444,3.97-12.314,6.783-18.942,9.447c-6.761,2.707-13.682,4.913-20.675,6.771c-9.521,2.529-19.271,4.63-29.024,5.572
		c-4.406,0.417-8.812,0.593-13.229,0.565c0.109-0.565,0.097-1.225-0.073-1.979c-0.487-2.261-4.602-4.536-5.847-1.883
		c-0.707,1.547,0.721,2.542,1.879,2.838c0.111,0.028,0.185,0.056,0.245,0.097c-0.122,0.025-0.256,0.053-0.306,0.08
		c-1.451,0.417-4.076,0.026-5.199-1.158c-1.524-1.574-0.831-5.343,0.83-6.433c0.782-0.513,0.244-2.101-0.647-1.684
		c-2.063,0.943-3.722,2.787-4.003,5.316c-0.171,1.508,0.134,3.069,0.83,4.361c-1.952-0.08-3.904-0.121-5.857-0.041
		c-1.734-0.376-3.467-0.766-5.187-1.171c-8.496-1.952-16.942-4.158-25.278-6.81c-15.281-4.859-29.902-11.267-43.852-19.705
		c-0.185-0.122-0.379-0.242-0.575-0.364c3.186,0.162,6.383-0.08,9.533-0.498c3.979-0.524,8.324-1.145,11.911-3.217
		c0.782-0.457,0.367-1.682-0.426-1.723c-3.784-0.229-7.653,0.955-11.388,1.575c-3.931,0.646-7.946,0.875-11.912,0.538
		c-1.343-0.12-2.673-0.351-3.979-0.659c-3.82-2.53-7.567-5.196-11.229-7.995c-1.403-1.063-2.795-2.154-4.162-3.258
		c-0.684-0.552-1.368-1.116-2.051-1.67c-0.342-0.281-0.684-0.564-1.013-0.847c-0.122-0.107-1.27-1.077-0.867-0.727
		c-0.27-0.243-0.549-0.472-0.817-0.701c0.256,0.217,0.194,0.163-0.184-0.16c-0.342-0.298-0.671-0.58-1.001-0.876
		c-0.672-0.578-1.331-1.171-1.989-1.763c-1.428-1.278-2.844-2.584-4.236-3.903c-5.357-5.073-10.446-10.498-15.243-16.205
		c-2.393-2.854-4.711-5.788-6.945-8.776c-2.294-3.082-3.942-5.452-6.102-8.721c-4.162-6.272-7.934-12.856-11.327-19.665
		c-3.405-6.839-6.285-13.797-8.738-20.755c-4.053-11.495-7.055-23.46-8.592-35.669c0.183-0.391,0.366-0.78,0.548-1.157
		c0.941-1.993,1.929-4.038,3.199-5.801c2.392-3.312,5.737-5.545,8.971-7.712c3.234-2.167,6.566-4.267,9.983-6.084
		c2.172-1.158,4.602-2.194,7.042-2.462c1.916,3.068,4.088,5.935,6.53,8.519c9.044,9.557,21.31,14.86,33.747,15.937
		c-0.647,2.61-1.196,5.262-1.611,7.928c-0.781,4.994-1.208,10.054-1.537,15.101c-0.282,4.28-0.611,8.588-0.233,12.854
		c0.416,4.549,1.575,8.991,3.967,12.774c1.111,1.735,2.405,3.322,3.845,4.723c1.464,1.641,3.259,2.988,4.992,4.011
		c3.234,1.939,6.676,3.325,10.239,4.361c6.97,2.019,14.317,2.8,21.519,2.841c16.77,0.106,33.698-2.504,49.223-9.732
		c5.322-2.477,10.495-5.532,14.865-9.729c2.099-2.02,3.882-4.322,5.564-6.745c0.55-0.794,0.929-1.628,1.307-2.489
		c0.891-1.159,1.696-2.41,2.429-3.675c2.039-3.513,3.112-7.577,3.309-11.736c0.206-4.55-0.697-9.086-2.125-13.326
		c-0.428-1.251-1.379-4.428-2.696-6.796c3.111,0.593,7.017-1.507,9.445-3.043c3.503-2.193,6.458-5.236,9.569-8.021
		c5.688-5.075,10.949-10.728,15.61-16.946c4.578-6.098,8.508-12.692,11.412-19.934c0.621-0.229,1.244-0.444,1.867-0.646
		c1.977-0.633,4.016-1.051,6.065-1.334c4.43-0.578,8.947-0.524,13.378-0.04c7.504,0.849,15.451,3.109,21.871,7.699
		c2.185,12.087,3.477,24.309,3.612,36.719c0.134,13.096-1.196,25.385-5.236,37.754c-1.928,5.896-4.454,11.562-7.226,17.188
		c-1.428,2.88-2.843,5.787-4.308,8.641c-1.501,2.908-3.002,6.11-3.466,9.422c-0.281,2.032,1.599,4.469,3.526,2.99
		c3.601-2.747,5.834-6.934,8.153-10.932c1.721-2.946,3.271-6.028,4.724-9.152c1.514,1.845,3.137,3.594,4.527,5.559
		c2.002,2.802,3.65,5.923,5.066,9.126c2.867,6.502,4.516,13.675,5.431,20.796c0.915,7.12,1.037,14.375,0.452,21.535
		c-0.537,6.366-1.637,12.854-3.918,18.775c-0.391,0.392-0.782,0.781-1.185,1.172c-2.82,2.774-4.76,4.415-7.774,6.743
		C306.614,298.112,303.601,300.146,300.512,302.057L300.512,302.057z M124.406,215.282L124.406,215.282
		c-0.428-2.343-1.195-4.658-1.599-6.946c-0.659-3.741-0.622-7.415,0.11-11.144c0.672-3.447,2.062-6.69,3.344-9.907
		c1.306-3.271,2.49-6.609,3.797-9.88c1.976-4.938,4.563-9.366,7.688-13.526c1.417-1.885,2.992-3.648,4.687-5.236
		c0.294-0.283,0.61-0.553,0.952-0.795c0.159,0.054,0.33,0.054,0.489-0.026c2.575-1.251,5.883-1.386,8.653-1.077
		c3.051,0.362,6.213,1.75,9.02,3.056c5.859,2.759,11.754,5.612,17.259,9.166c2.917,1.884,5.882,3.876,8.298,6.515
		c2.515,2.746,4.529,6.002,6.348,9.327c1.818,3.325,3.503,6.73,4.809,10.337c0.634,1.764,1.183,3.553,1.61,5.384
		c0.244,0.983,0.439,2.045,0.854,2.948c-0.108,0.08-0.231,0.161-0.354,0.242c-6.7,4.59-14.182,7.524-21.823,9.664
		c-7.994,2.233-15.854,3.297-24.08,3.78c-7.274,0.419-14.561,0.621-21.823-0.229c-1.819-0.215-3.809-0.578-5.847-1.049
		C125.992,215.712,125.2,215.497,124.406,215.282L124.406,215.282z M57.498,61.692L57.498,61.692c0.55-3.109,0.831-6.245,1.599-9.3
		c0.72-2.828,1.819-5.519,3.528-7.807c0.476-0.633,0.989-1.224,1.514-1.804c0.341-0.363,0.696-0.7,1.049-1.05
		c-0.084,0.094,0.623-0.538,0.598-0.524c0.452-0.35,0.916-0.673,1.392-0.982c0.281-0.175,0.562-0.337,0.854-0.499
		c0.012-0.013,0.562-0.269,0.586-0.296c0.439-0.175,0.877-0.323,1.33-0.458c0.061-0.012,0.525-0.107,0.598-0.135
		c0.208-0.014,0.414-0.027,0.623-0.027c0.097,0,0.194,0.013,0.292,0.013c-0.171,0,0.391,0.083,0.512,0.108
		c0.037,0.014,0.049,0.014,0.074,0.028c0.049,0.025,0.085,0.054,0.159,0.094c0.048,0.026,0.084,0.053,0.109,0.067
		c0.037,0.04,0.073,0.08,0.134,0.147c0.085,0.108,0.147,0.189,0.184,0.216c0.158,0.269,0.28,0.538,0.415,0.82
		c0.098,0.23,0.257,1.306,0.244,1.926c0,1.454-0.878,3.028-1.55,4.36c-1.685,3.379-3.479,6.609-4.882,10.162
		c-0.745,1.871-1.404,3.769-1.977,5.72c-0.343,1.131-0.501,2.397-0.599,3.648c-0.28,0.538-0.549,1.077-0.818,1.629
		c-0.244,0.511-0.476,1.022-0.708,1.547c0.049-1.104-0.769-2.329-2.026-1.993c-1.696,0.458-3.307,1.023-4.821,1.966
		c-0.159,0.094-0.33,0.202-0.5,0.309c0.414-1.023,0.866-2.033,1.135-3.123C56.937,64.883,57.217,63.294,57.498,61.692L57.498,61.692
		z"/>
	<path fill-rule="evenodd" clip-rule="evenodd" fill="#CB736F" d="M330.316,228.62c-0.329-1.644-0.622-3.298-0.867-4.953
		c-0.291-1.992-0.488-3.997-0.621-6.016c-0.073-1.023-0.244-2.021-0.415-3.017c1.929-0.981,3.648-2.504,5.199-4.051
		c1.146-1.157,2.22-2.396,3.247-3.715c1.72-0.202,3.221-0.014,4.808,0.538C338.714,215.511,334.784,222.644,330.316,228.62
		L330.316,228.62z M193.706,185.28c-5.895,11.535-16.11,22.316-33.222,29.69l3.478,1.334c4.883-0.632,9.716-1.562,14.585-2.92
		c7.641-2.14,15.123-5.074,21.823-9.664c0.123-0.081,0.246-0.162,0.354-0.242c-0.415-0.902-0.61-1.965-0.854-2.948
		c-0.427-1.832-0.976-3.621-1.61-5.384C197.013,191.7,195.428,188.456,193.706,185.28L193.706,185.28z M68.665,243.748l1.587-0.523
		c0,0,30.879,41.32,82.214,42.034c0,0,5.492,0,2.099,4.806c-3.38,4.805-1.611,11.925,4.846,15.665
		c6.456,3.743,83.372,18.131,128.067,1.766c2.855-1.05,5.432-1.817,7.737-2.355c-4.492,2.448-8.873,4.44-13.646,6.364
		c-6.761,2.707-13.682,4.913-20.675,6.771c-9.521,2.529-19.271,4.63-29.024,5.572c-4.406,0.417-8.812,0.593-13.229,0.565
		c0.109-0.565,0.097-1.225-0.073-1.979c-0.487-2.261-4.602-4.536-5.847-1.883c-0.707,1.547,0.721,2.542,1.879,2.838
		c0.111,0.028,0.185,0.056,0.245,0.097c-0.122,0.025-0.256,0.053-0.306,0.08c-1.451,0.417-4.076,0.026-5.199-1.158
		c-1.524-1.574-0.831-5.343,0.83-6.433c0.782-0.513,0.244-2.101-0.647-1.684c-2.063,0.943-3.722,2.787-4.003,5.316
		c-0.171,1.508,0.134,3.069,0.83,4.361c-1.952-0.08-3.904-0.121-5.857-0.041c-1.734-0.376-3.467-0.766-5.187-1.171
		c-8.496-1.952-16.942-4.158-25.278-6.81c-15.281-4.859-29.902-11.267-43.852-19.705c-0.185-0.122-0.379-0.242-0.575-0.364
		c3.186,0.162,6.383-0.08,9.533-0.498c3.979-0.524,8.324-1.145,11.911-3.217c0.782-0.457,0.367-1.682-0.426-1.723
		c-3.784-0.229-7.653,0.955-11.388,1.575c-3.931,0.646-7.946,0.875-11.912,0.538c-1.343-0.12-2.673-0.351-3.979-0.659
		c-3.82-2.53-7.567-5.196-11.229-7.995c-1.403-1.063-2.795-2.154-4.162-3.258c-0.684-0.552-1.368-1.116-2.051-1.67
		c-0.342-0.281-0.684-0.564-1.013-0.847c-0.122-0.107-1.27-1.077-0.867-0.727c-0.27-0.243-0.549-0.472-0.817-0.701
		c0.256,0.217,0.194,0.163-0.184-0.16c-0.342-0.298-0.671-0.58-1.001-0.876c-0.672-0.578-1.331-1.171-1.989-1.763
		c-1.428-1.278-2.844-2.584-4.236-3.903c-5.357-5.073-10.446-10.498-15.243-16.205c-2.393-2.854-4.711-5.788-6.945-8.776
		C69.288,244.569,68.971,244.153,68.665,243.748L68.665,243.748z M56.521,140.001c6.774,13.877,20.395,27.376,45.769,37.135
		c0.256-2.598,0.563-5.195,0.964-7.766c0.416-2.666,0.964-5.317,1.611-7.928c-12.438-1.077-24.703-6.38-33.747-15.937
		c-2.441-2.584-4.614-5.451-6.53-8.519c-2.44,0.268-4.871,1.304-7.042,2.462C57.205,139.638,56.863,139.813,56.521,140.001
		L56.521,140.001z M299.134,115.222c2.16,36.677-0.44,81.62-19.749,113.762c0,0-6.139,16.03,13.878,20.298
		c7.981,1.708,18.003-1.993,27.229-10.002c-0.94-4.279-2.234-8.479-3.979-12.423c-1.416-3.203-3.064-6.324-5.066-9.126
		c-1.391-1.965-3.014-3.714-4.527-5.559c-1.452,3.124-3.003,6.206-4.724,9.152c-2.319,3.998-4.553,8.185-8.153,10.932
		c-1.928,1.479-3.808-0.958-3.526-2.99c0.464-3.312,1.965-6.514,3.466-9.422c1.465-2.854,2.88-5.761,4.308-8.641
		c2.771-5.627,5.298-11.293,7.226-17.188c4.04-12.369,5.37-24.658,5.236-37.754c-0.136-12.41-1.428-24.631-3.612-36.719
		C304.662,117.766,301.952,116.353,299.134,115.222L299.134,115.222z"/>
	<path fill-rule="evenodd" clip-rule="evenodd" fill="#F9F6EA" d="M63.356,43.656L63.356,43.656c0,0-2.185,4.954-3.002,12.976
		c-0.439,4.36-0.28,7.268-1.281,11.171c-1.086,0.376-2.148,0.834-3.162,1.467c-0.159,0.094-0.33,0.202-0.5,0.309
		c0.414-1.023,0.866-2.033,1.135-3.123c0.391-1.574,0.67-3.163,0.951-4.765l0,0c0.55-3.109,0.831-6.245,1.599-9.3
		c0.72-2.828,1.819-5.519,3.528-7.807C62.855,44.261,63.112,43.965,63.356,43.656L63.356,43.656z M38.104,153.946
		c2.453,21.374,9.739,48.348,25.399,82.347c-4.162-6.272-7.934-12.856-11.327-19.665c-3.405-6.839-6.285-13.797-8.738-20.755
		c-4.053-11.495-7.055-23.46-8.592-35.669c0.183-0.391,0.366-0.78,0.548-1.157C36.212,157.311,37.067,155.533,38.104,153.946
		L38.104,153.946z M271.476,39.658c0,0,0.184,0.525,0.477,1.507c-0.158,0.042-0.306,0.082-0.464,0.135
		C271.488,40.762,271.476,40.211,271.476,39.658L271.476,39.658z M271.427,111.951c-9.313,24.711-28.448,53.031-51.576,54.377l0,0
		c-0.491-1.413-1.149-3.109-1.93-4.522c3.111,0.593,7.017-1.507,9.445-3.043c3.503-2.193,6.458-5.236,9.569-8.021
		c5.688-5.075,10.949-10.728,15.61-16.946c4.578-6.098,8.508-12.692,11.412-19.934c0.621-0.229,1.244-0.444,1.867-0.646
		C267.656,112.638,269.535,112.234,271.427,111.951L271.427,111.951z"/>
	<path fill-rule="evenodd" clip-rule="evenodd" fill="#EB5E2B" d="M271.367,56.012L271.367,56.012
		c-0.209-1.587-0.452-3.19-0.758-4.764c-0.073-0.391-0.232-0.795-0.391-1.186c0.354-0.727,0.561-1.534,0.72-2.368
		c0.685-0.189,1.38-0.485,2.148-0.768c1.537-0.579,3.346-1.05,4.992-0.794c2.086,0.336,3.675,1.898,5.041,3.593
		c0.012,0.849,0.062,1.697,0.183,2.531c-0.134,0.014-0.269,0.014-0.39,0.027c-1.66,0.095-3.31,0.35-4.942,0.7
		C275.504,53.521,273.319,54.491,271.367,56.012L271.367,56.012z M57.546,80.401L57.546,80.401c-2.88,0.148-6.211,1.077-8.982,2.652
		c1.732-3.189,3.588-6.312,5.517-9.368c0.903-0.27,1.831-0.848,2.49-1.238c1.563-0.929,3.296-1.292,5.027-1.682
		c0.258-0.068,0.465-0.175,0.635-0.323c-1.378,3.108-2.624,6.299-3.723,9.542c-0.072,0.201-0.134,0.404-0.207,0.605
		C58.059,80.455,57.804,80.388,57.546,80.401L57.546,80.401z M154.357,104.401L154.357,104.401c-0.11,0.874-0.135,1.789-0.219,2.691
		c-0.196,1.897-0.623,3.876-1.307,5.625c-1.098,2.773-2.65,5.666-5.103,7.201c-2.721,1.683-5.357-0.471-7.274-2.543
		c-1.929-2.074-3.587-4.713-4.881-7.417c0.391-0.431,0.805-0.848,1.233-1.226c0.512-0.255,1.025-0.511,1.538-0.74
		C143.348,105.746,148.877,104.589,154.357,104.401L154.357,104.401z M365.32,173.313L365.32,173.313
		c-1.816,1.521-4.076,2.355-6.297,2.826c-2.233,0.486-4.626,0.163-6.835-0.322c-0.721-0.161-1.416-0.377-2.124-0.605
		c-0.294-0.513-0.659-1.01-1.085-1.455c0.207-0.134,0.414-0.282,0.621-0.403c1.77-1.077,3.735-1.414,5.688-1.912
		c2.893-0.728,7.054-1.656,9.666-0.39C366.346,171.738,366.541,172.291,365.32,173.313L365.32,173.313z M195.416,125.72
		L195.416,125.72c1.489,2.005,2.733,4.199,4.162,6.259c0.377,0.552,0.89,0.74,1.354,0.673c0.622,0.484,1.33,0.888,1.94,1.332
		c1.171,0.862,2.257,1.83,3.319,2.84c2.221,2.1,3.942,4.469,5.37,7.281c1.306,2.585,2.026,5.492,2.159,8.318
		c0.074,1.535-0.047,2.854-0.354,4.281c-0.184,0.929-0.329,1.817-0.427,2.76c-0.025,0.188-0.025,0.363-0.025,0.524
		c-1.072,1.495-0.182,3.824,0.208,5.465c0.452,1.844,1.196,3.621,1.697,5.451c0.987,3.594,1.488,7.282,1.342,11.024
		c-0.109,2.987-1.219,5.854-2.684,8.426c-0.099,0.161-0.196,0.322-0.295,0.484c-0.585,0.579-1.108,1.266-1.721,1.938
		c-1.268,1.372-2.33,2.961-3.563,4.387c-1.537,1.75-2.892,3.057-4.417,4.281c-0.025-0.242-0.061-0.471-0.085-0.715
		c0.341-0.106,0.646-0.389,0.768-0.753c0.66-2.045,0.549-4.104,0.439-6.245c-0.122-2.153-0.304-4.306-0.562-6.447
		c-0.5-4.307-1.415-8.494-2.416-12.68c-1.939-8.129-4.441-16.057-7.249-23.876c-5.432-15.17-12.608-29.531-21.482-42.574
		c2.112,0.943,4.162,2.033,6.176,3.218C185.224,114.979,190.984,119.744,195.416,125.72L195.416,125.72z M124.65,125.303
		L124.65,125.303c-0.147,0.673-0.292,1.333-0.427,2.005c-0.77,3.796-1.526,7.551-2.478,11.306
		c-2.063,8.103-2.819,16.462-3.845,24.779c-2.063,16.73-2.759,33.65,1.049,50.111c-0.256-0.094-0.5-0.188-0.744-0.283
		c-0.233-0.484-0.537-0.928-0.927-1.332c-0.416-0.417-0.866-0.808-1.319-1.186c0.037,0.041-0.561-0.471-0.622-0.511
		c-1.172-1.037-2.271-2.153-3.272-3.406c-0.011-0.025-0.378-0.51-0.414-0.564c-0.147-0.229-0.293-0.444-0.44-0.673
		c-0.365-0.605-0.683-1.225-0.989-1.87c-0.134-0.256-0.243-0.512-0.353-0.78c0.146,0.323-0.196-0.539-0.22-0.592
		c-0.281-0.821-0.501-1.657-0.683-2.505c-0.159-0.699-0.281-1.413-0.391-2.141c0.049,0.325-0.073-0.74-0.073-0.752
		c-0.048-0.418-0.074-0.834-0.098-1.267c-0.134-2.166-0.036-4.32,0.063-6.486c0.207-4.899,0.438-9.813,0.928-14.698
		c0.962-9.678,3.893-18.871,6.773-28.023C118.475,139.086,121.013,131.952,124.65,125.303L124.65,125.303z"/>
	<path fill-rule="evenodd" clip-rule="evenodd" fill="#BE361A" d="M198.478,130.336c1.686,7.175,4.088,21.55,1.245,36.961
		c0.684,2.422,1.319,4.859,1.904,7.308c1.001,4.186,1.916,8.373,2.416,12.68c0.258,2.141,0.439,4.294,0.562,6.447
		c0.109,2.141,0.221,4.2-0.439,6.245c-0.122,0.364-0.427,0.647-0.768,0.753c0.024,0.244,0.06,0.473,0.085,0.715
		c1.525-1.225,2.88-2.531,4.417-4.281c1.233-1.426,2.296-3.015,3.563-4.387c0.612-0.673,1.136-1.359,1.721-1.938
		c0.099-0.162,0.196-0.323,0.295-0.484c1.465-2.572,2.574-5.438,2.684-8.426c0.146-3.743-0.354-7.43-1.342-11.024
		c-0.501-1.83-1.245-3.607-1.697-5.451c-0.39-1.641-1.28-3.97-0.208-5.465c0-0.161,0-0.336,0.025-0.524
		c0.098-0.943,0.243-1.831,0.427-2.76c0.307-1.426,0.428-2.746,0.354-4.281c-0.133-2.826-0.854-5.733-2.159-8.318
		c-1.428-2.813-3.149-5.181-5.37-7.281c-1.063-1.01-2.148-1.978-3.319-2.84c-0.61-0.444-1.318-0.848-1.94-1.332
		c-0.464,0.067-0.977-0.121-1.354-0.673C199.199,131.441,198.833,130.889,198.478,130.336L198.478,130.336z M58.828,79.055
		c-0.147,0.27-0.39,0.754-0.708,1.453c0.061,0.014,0.122,0.054,0.183,0.081c0.073-0.201,0.134-0.404,0.207-0.605
		C58.608,79.675,58.718,79.364,58.828,79.055L58.828,79.055z"/>
	<path fill-rule="evenodd" clip-rule="evenodd" fill="#F9F6EA" d="M271.367,56.012L271.367,56.012
		c-0.209-1.587-0.452-3.19-0.758-4.764c-0.073-0.391-0.232-0.795-0.391-1.186c0.354-0.727,0.561-1.534,0.72-2.368
		c0.685-0.189,1.38-0.485,2.148-0.768c0.147-0.054,0.293-0.108,0.44-0.161c0.523,2.019,1.085,4.401,1.623,7.079
		C273.808,54.383,272.551,55.096,271.367,56.012L271.367,56.012z M57.755,71.854c-0.978,2.49-2.417,5.478-4.553,9.288l0,0
		c-1.611,0.443-3.198,1.09-4.638,1.911c1.732-3.189,3.588-6.312,5.517-9.368c0.903-0.27,1.831-0.848,2.49-1.238
		C56.949,72.217,57.352,72.029,57.755,71.854L57.755,71.854z"/>
	<path fill-rule="evenodd" clip-rule="evenodd" fill="#4C62AB" d="M343.121,195.603L343.121,195.603
		c1.207-3.19,1.915-6.689,2.588-10.067c0.414-2.1,0.548-4.335,0.938-6.474c0.051,0.053,0.099,0.12,0.147,0.161
		c0.584,0.62,0.915,1.454,1.416,2.127c0.219,2.799,0.317,5.625,0.5,8.412c0.27,4.16,0.354,8.333,0.392,12.504
		c0.023,1.521,0.011,3.041,0,4.563c-1.454-1.226-3.053-2.234-4.736-2.988c-1.55-0.7-3.076-1.104-4.664-1.171
		C341.045,200.421,342.193,198.054,343.121,195.603L343.121,195.603z M171.579,107.576L171.579,107.576
		c0.012,0.041,0.024,0.094,0.048,0.134c7.494,14.053,13.597,29.006,18.991,44.163c2.723,7.644,5.09,15.464,7.312,23.297
		c1.122,3.971,2.172,7.916,2.745,12.021c0.282,2.005,0.452,4.051,0.586,6.084c-1.367-3.607-3.124-6.986-4.967-10.296
		c-4.015-7.188-8.811-13.5-15.475-17.821c-0.086-0.068-0.184-0.122-0.282-0.189c-0.5-3.499-1.806-6.811-2.587-10.23
		c-0.732-3.19-1.477-6.069-3.124-8.815c-0.17-0.283-0.5-0.202-0.61,0.093c-0.489,1.28,0.012,2.222,0.426,3.46
		c0.562,1.723,0.878,3.554,1.221,5.357c0.512,2.718,0.94,5.479,1.439,8.196c-2.111-1.184-4.259-2.288-6.395-3.378
		c-2.978-1.535-5.98-3.082-9.105-4.213c-3.283-1.198-6.651-1.884-10.105-1.952c-1.612-0.027-3.234,0.215-4.784,0.659
		c-0.317,0.095-0.635,0.229-0.94,0.377c-1.256-0.565-3.063,0.377-4.15,0.982c-2.159,1.225-3.905,3.149-5.528,5.102
		c-1.233,1.494-2.405,3.055-3.503,4.67c-0.171-1.548-0.354-3.096-0.415-4.658c-0.049-1.358-0.134-2.705-0.184-4.065
		c-0.037-0.78-0.072-1.561-0.097-2.341c-0.037-0.821-0.392-1.576-0.452-2.382c-0.062-0.916-1.208-0.903-1.282,0
		c-0.109,1.399-0.476,2.705-0.536,4.145c-0.062,1.535-0.147,3.096-0.111,4.643c0.049,2.706,0.037,5.789,0.696,8.467
		c-1.111,1.911-2.111,3.903-3.003,5.949c-1.464,3.405-2.722,6.905-4.125,10.337c-1.281,3.163-2.624,6.298-3.502,9.637
		c-0.111-1.709-0.185-3.405-0.208-5.115c-0.111-8.493,0.598-16.986,1.464-25.425c1.551-14.98,3.479-29.948,6.92-44.565
		c1.331-1.938,2.759-3.823,4.211-5.653c0.084-0.107,0.171-0.216,0.256-0.337c-0.122,0.431-0.231,0.861-0.341,1.292
		c-0.952,3.837-1.526,7.888-1.38,11.873c0.037,0.955,1.355,0.968,1.355,0c0-3.877,0.745-7.646,1.709-11.361
		c0.208-0.822,0.451-1.642,0.695-2.449c1.05,2.476,2.33,4.792,4.077,6.891c2.526,3.028,6.285,5.384,10.069,3.917
		c3.417-1.319,5.908-4.9,7.469-8.358c0.916-2.02,1.514-4.159,1.892-6.38c0.122-0.714,0.257-1.48,0.366-2.248
		c2.735,4.118,5.297,8.277,7.189,13.015c0.256,0.633,1.074,0.162,0.964-0.443c-0.293-1.548-0.488-3.15-0.964-4.631
		c-0.512-1.602-1.086-3.189-1.685-4.75c-0.743-1.965-1.598-3.823-2.612-5.586C164.792,105.167,168.246,106.177,171.579,107.576
		L171.579,107.576z M270.28,87.468L270.28,87.468c1.013-6.918,1.94-13.904,1.843-20.93c-0.023-2.517-0.171-5.047-0.415-7.551
		c2.196-1.252,4.76-1.911,7.178-2.18c1.487-0.161,2.99-0.174,4.478-0.215c0.635-0.013,1.296,0.026,1.941,0.041
		c0.392,0.121,0.818,0.107,1.232-0.015c0.464-0.026,0.928-0.081,1.379-0.188c0.122,0.175,0.244,0.35,0.354,0.511
		c0.635,1.844,1.282,3.676,1.965,5.478c1.673,4.416,3.296,8.831,4.906,13.271c3.234,8.911,6.163,17.929,8.446,27.203
		c0.916,3.769,1.77,7.551,2.54,11.36c-6.372-3.769-13.756-5.587-20.859-6.354c-4.737-0.511-9.497-0.376-14.195,0.431
		c-1.708,0.283-3.661,0.66-5.554,1.266C267.875,102.436,269.17,95.046,270.28,87.468L270.28,87.468z M38.141,107.927L38.141,107.927
		c2.147-7.47,5.102-14.59,8.568-21.388c1.843-0.228,3.576-0.807,5.37-1.25c1.708-0.432,3.405-0.755,5.113-1.064
		c-1.989,7.106-2.966,14.415-2.367,21.925c0.769,9.745,3.479,19.477,8.067,27.903c-1.782,0.403-3.54,1.089-5.224,1.87
		c-3.722,1.751-7.322,4.106-10.765,6.46c-3.454,2.343-6.969,4.698-9.69,8.076c-1.171,1.44-2.087,3.042-2.918,4.725
		c-0.256-2.827-0.438-5.666-0.536-8.521C33.307,133.621,34.577,120.402,38.141,107.927L38.141,107.927z M325.923,279.538
		L325.923,279.538c0.05-0.283,0.109-0.566,0.159-0.861c1.246-7.12,1.709-14.401,1.44-21.644
		c-0.55-14.698-4.762-29.207-13.023-40.862c-1.745-2.466-3.783-5.155-6.2-6.986c0.61-1.36,1.208-2.746,1.781-4.133
		c1.087,0.769,2.223,1.454,3.04,2.343c1.892,2.032,3.49,4.293,5.627,6.07c1.988,1.643,4.283,2.503,6.7,2.152
		c-0.061,0.538-0.098,1.063-0.11,1.603c-0.023,2.194,0.293,4.441,0.563,6.609c0.572,4.588,1.477,9.111,2.696,13.539
		c1.221,4.429,2.843,8.749,4.784,12.841c0.903,1.926,1.928,3.782,3.053,5.559c0.549,0.889,1.182,2.046,1.929,3.029
		c-1.929,4.293-4.139,8.479-6.653,12.518C329.95,274.154,328.01,276.9,325.923,279.538L325.923,279.538z"/>
	<path fill-rule="evenodd" clip-rule="evenodd" fill="#353485" d="M343.121,195.603L343.121,195.603
		c1.207-3.19,1.915-6.689,2.588-10.067c0.414-2.1,0.548-4.335,0.938-6.474c0.051,0.053,0.099,0.12,0.147,0.161
		c0.146,0.161,0.28,0.336,0.403,0.512c-0.429,8.479-1.893,16.38-4.14,23.581c-1.109-0.376-2.207-0.604-3.356-0.646
		C341.045,200.421,342.193,198.054,343.121,195.603L343.121,195.603z M197.869,174.943c-0.67,2.193-1.465,4.401-2.405,6.582
		c0.282,0.485,0.549,0.969,0.83,1.454c1.843,3.311,3.6,6.689,4.967,10.296c-0.134-2.033-0.304-4.079-0.586-6.084
		c-0.573-4.105-1.623-8.05-2.745-12.021L197.869,174.943z M56.473,84.359c-3.918,9.879-10.204,31.508-1.233,52.802
		c0.806-0.444,1.611-0.848,2.429-1.239c1.685-0.781,3.442-1.467,5.224-1.87c-4.589-8.426-7.299-18.158-8.067-27.903
		c-0.599-7.51,0.378-14.819,2.367-21.925L56.473,84.359z M294.69,74.439c1.574,9.974,3.185,22.532,4.161,36.435
		c2.515,0.902,4.955,2.006,7.276,3.379c-0.771-3.81-1.624-7.591-2.54-11.36c-2.283-9.274-5.212-18.292-8.446-27.203L294.69,74.439z
		 M324.055,235.941c1.111-1.144,2.224-2.341,3.296-3.606c-0.61-2.814-1.099-5.64-1.451-8.506c-0.27-2.168-0.586-4.415-0.563-6.609
		c0.013-0.539,0.05-1.064,0.11-1.603c-2.417,0.351-4.712-0.51-6.7-2.152c-2.137-1.777-3.735-4.038-5.627-6.07
		c-0.817-0.889-1.953-1.574-3.04-2.343c-0.573,1.387-1.171,2.772-1.781,4.133c2.417,1.831,4.455,4.521,6.2,6.986
		C318.722,222.133,321.896,228.848,324.055,235.941L324.055,235.941z"/>
	<path fill-rule="evenodd" clip-rule="evenodd" fill="#F9F6EA" d="M50.529,85.691c-6.017,10.283-15.928,29.436-12.828,64.188
		c-0.169,0.189-0.33,0.377-0.488,0.579c-1.171,1.44-2.087,3.042-2.918,4.725c-0.256-2.827-0.438-5.666-0.536-8.521
		c-0.452-13.042,0.818-26.261,4.382-38.736l0,0c2.147-7.47,5.102-14.59,8.568-21.388C48.014,86.378,49.259,86.04,50.529,85.691
		L50.529,85.691z M275.82,57.358c1.928,10.808,3.199,25.062,0.416,38.44c-0.794,3.809-1.941,7.955-3.418,12.263
		c-0.573,0.08-1.159,0.161-1.745,0.269c-1.708,0.283-3.661,0.66-5.554,1.266c2.355-7.16,3.65-14.55,4.761-22.128l0,0
		c1.013-6.918,1.94-13.904,1.843-20.93c-0.023-2.517-0.171-5.047-0.415-7.551C272.99,58.26,274.393,57.722,275.82,57.358
		L275.82,57.358z"/>
	<path fill-rule="evenodd" clip-rule="evenodd" fill="#F9BF9B" d="M205.923,145.803c0.562,1.103,1.231,2.14,1.807,3.244
		c0.524,1.022,1.025,2.166,1.94,2.839c0.378,0.283,0.916,0,1.036-0.471c0.55-2.275-1.428-4.711-2.524-6.435
		c-1.306-2.058-2.638-4.427-4.37-6.096c-0.438-0.418-1.245,0.148-0.854,0.726C204.252,141.468,204.898,143.769,205.923,145.803
		L205.923,145.803z"/>
	<path fill-rule="evenodd" clip-rule="evenodd" fill="#F9BF9B" d="M164.256,127.698c-0.526,0.794-0.783,1.657-0.843,2.532
		c-0.182,0.35-0.354,0.7-0.488,1.063c-1.343,3.54,0.183,7.618,3.186,9.381c2.319,1.359,5.504,1.845,7.787,0.122
		c2.087-1.576,3.015-4.158,3.051-6.892c0.061-5.303-3.552-10.324-8.641-9.274C166.685,124.966,165.195,126.258,164.256,127.698
		L164.256,127.698z"/>
	<path fill-rule="evenodd" clip-rule="evenodd" fill="#F9BF9B" d="M133.768,131.616c-1.49,0.014-3.125,0.809-4.37,2.032
		c-1.257,0.512-2.404,1.615-3.234,2.841c-1.709,2.557-1.439,6.554,0.488,8.856c4.552,5.425,14.804,1.279,14.39-6.366
		C140.822,134.846,137.477,131.589,133.768,131.616L133.768,131.616z"/>
	<path fill="#321A1B" d="M133.768,131.616c-1.49,0.014-3.125,0.809-4.37,2.032c-1.257,0.512-2.404,1.615-3.234,2.841
		c-1.709,2.557-1.439,6.554,0.488,8.856c4.552,5.425,14.804,1.279,14.39-6.366C140.822,134.846,137.477,131.589,133.768,131.616
		L133.768,131.616z M134.182,139.018L134.182,139.018L134.182,139.018L134.182,139.018L134.182,139.018L134.182,139.018
		L134.182,139.018z M133.926,138.938L133.926,138.938v0.014c-0.049,0-0.098,0-0.158,0.012
		C133.841,138.952,133.889,138.952,133.926,138.938L133.926,138.938z"/>
	<path fill="#321A1B" d="M164.256,127.698c-0.526,0.794-0.783,1.657-0.843,2.532c-0.182,0.35-0.354,0.7-0.488,1.063
		c-1.343,3.54,0.183,7.618,3.186,9.381c2.319,1.359,5.504,1.845,7.787,0.122c2.087-1.576,3.015-4.158,3.051-6.892
		c0.061-5.303-3.552-10.324-8.641-9.274C166.685,124.966,165.195,126.258,164.256,127.698L164.256,127.698z"/>
	<path fill="#321A1B" d="M205.923,145.803c0.562,1.103,1.231,2.14,1.807,3.244c0.524,1.022,1.025,2.166,1.94,2.839
		c0.378,0.283,0.916,0,1.036-0.471c0.55-2.275-1.428-4.711-2.524-6.435c-1.306-2.058-2.638-4.427-4.37-6.096
		c-0.438-0.418-1.245,0.148-0.854,0.726C204.252,141.468,204.898,143.769,205.923,145.803L205.923,145.803z"/>
	<path fill="#321A1B" d="M370.398,168.468c-3.051-5.154-9.911-4.361-14.646-3.539c-2.441,0.43-4.92,0.916-7.226,1.911
		c-2.454,1.077-7.056,3.392-6.664,6.958c0.049,0.376,0.133,0.793,0.293,1.158c-0.769,2.234-1.196,4.563-1.831,6.877
		c-0.793,2.961-1.929,5.895-3.039,8.735c-1.051,2.665-2.246,5.182-3.686,7.604c-1.258,2.1-2.259,3.446-4.028,5.491
		c-0.793,0.903-1.647,1.764-2.527,2.558c0.124-0.121-0.718,0.579-0.816,0.646c-0.439,0.337-0.903,0.62-1.367,0.889
		c0.342-0.202-0.562,0.215-0.733,0.269c-0.011,0-0.011,0-0.024,0c-0.316,0.027-0.646-0.039-0.963-0.054
		c0.305,0.015,0.354-0.014,0.158-0.081c0-0.027-0.586-0.336-0.599-0.349c-0.536-0.337-0.792-0.579-1.085-0.836
		c-0.892-0.808-1.697-1.695-2.515-2.584c0.024-0.565-0.171-1.171-0.658-1.695c-1.491-1.643-3.211-4.401-5.347-5.357
		c1.514-4.509,2.758-9.113,3.587-13.825c3.248-18.344,2.466-37.337-0.487-55.655c-2.232-13.917-5.956-27.405-11.021-40.38
		c-2.598-6.689-5.516-13.23-8.653-19.637c-1.086-2.234-2.208-4.456-3.32-6.69c-0.353-1.09-0.78-2.167-1.195-3.23
		c-0.671-1.709-1.551-3.284-2.402-4.886c-0.112-0.201-0.209-0.39-0.308-0.592c0.308-1.077,0.538-2.18,0.771-3.23
		c0.549-2.424,0.878-4.967,1.293-7.43c0.757-4.455,1.538-8.937,2.014-13.446c0.707-6.582-0.672-14.738-6.542-18.009
		c-7.323-4.092-14.012,1.924-17.845,8.506c-2.171,3.715-3.307,7.848-3.66,12.222c-0.354,4.321,0.719,8.79,1.146,13.069
		c0.135,1.252,0.379,2.491,0.5,3.757c0.099,1.009,0.172,1.91,0.513,2.798c0.025,1.226,0.025,2.45,0.099,3.688
		c0.146,2.571,0.146,5.142,0.073,7.713c-0.159,4.872-0.708,9.731-1.379,14.55c-0.696,4.953-1.673,9.84-2.723,14.711
		c-0.928,4.281-1.855,8.521-3.234,12.652c-4.918,14.739-14.4,26.664-25.167,36.773c-1.575,1.495-3.161,2.96-4.784,4.388
		c-1.624,1.426-3.014,2.84-4.454,3.984c-0.893,0.701-1.819,1.346-2.759,1.966c-0.403,0.255-0.817,0.497-1.22,0.726
		c-0.282,0.163-0.55,0.311-0.831,0.444c0.294-0.121,0.209-0.08-0.268,0.121c-0.488,0.215-0.978,0.404-1.451,0.593
		c-0.05-3.823-1.161-7.591-2.76-10.943c-1.71-3.567-4.31-6.501-7.202-8.911c-1.39-1.17-3.075-2.033-4.735-2.611
		c-0.927-0.322-2.075-0.699-3.124-0.673c-1.537-3.216-3.71-6.138-5.736-8.977c-2.16-3.056-4.588-5.896-7.176-8.506
		c-5.346-5.371-11.802-9.799-18.601-12.504c-7.127-2.84-15.182-2.854-22.592-1.629c-7.115,1.184-14.231,4.631-19.418,10.217
		c-1.464,1.575-2.575,3.444-3.82,5.235c-1.172,1.669-2.294,3.472-2.844,5.518c-4.443,6.784-7.64,14.443-10.252,22.276
		c-1.367,4.119-2.784,8.25-4.077,12.423c-7.495-0.727-15.135-2.544-21.725-6.083c-5.956-3.191-10.913-7.564-15.269-13.016
		c-8.897-11.118-12.62-27.672-10.875-42.169c0.756-6.286,2.477-12.262,4.724-18.09c0.598-1.521,1.232-3.014,1.879-4.509
		c0.11-0.054,0.208-0.149,0.293-0.256c1.184-1.588,2.282-3.23,3.295-4.953c1.135-1.911,1.916-4.159,2.916-6.164
		c0.904-1.804,1.88-3.541,3.051-5.142c1.257-1.709,2.563-3.446,3.395-5.465c1.781-4.334,1.72-9.436-1.172-13.205
		c-2.209-2.867-5.565-3.406-8.75-2.718c-6.592,1.399-11.876,8.209-14.281,14.738c-1.269,3.445-1.77,7.119-2.137,10.808
		c-0.365,3.661-0.487,7.417-0.279,11.078c0.023,0.633,0.109,1.25,0.023,1.884c-0.072,0.525,0.062,0.969,0.305,1.292
		C32.746,96.727,25.79,131.75,29.536,164.147c3.759,32.627,16.685,63.155,35.577,88.444c18.125,24.256,41.534,43.57,67.153,57.191
		c13.512,7.175,27.62,12.651,42.168,16.582c7.432,2.006,14.939,3.634,22.481,5.061c0.574,0.107,1.135,0.202,1.709,0.31
		c0.548,0.162,1.109,0.284,1.683,0.377c2.453,0.418,4.919,0.861,7.396,1.105c0.33,0.04,0.658,0.094,0.989,0.146
		c1.892,0.27,3.77,0.578,5.675,0.754c1.928,0.177,3.747,0.055,5.675-0.134c0.415-0.042,0.77-0.175,1.062-0.363
		c0.135,0,0.257,0,0.391,0c8.703-0.108,17.295-1.239,25.862-2.881c14.062-2.679,27.998-6.514,41.267-12.383
		c13.524-5.977,26.485-14.039,37.005-25.277c11.046-11.791,19.199-26.759,23.898-42.856c3.441-11.804,4.82-24.173,4.771-36.543
		c-0.012-6.205-0.464-12.383-1.221-18.521c-0.39-3.136-0.867-6.272-1.392-9.381c-0.293-1.736-0.695-3.431-1.099-5.128
		c0.122-0.309,0.195-0.632,0.244-0.968c0.427,0.162,0.854,0.309,1.27,0.458c2.88,1.036,6.091,1.251,9.081,0.727
		C366.077,179.99,374.353,175.145,370.398,168.468L370.398,168.468z M343.121,195.603L343.121,195.603
		c1.207-3.19,1.915-6.689,2.588-10.067c0.414-2.1,0.548-4.335,0.938-6.474c0.051,0.053,0.099,0.12,0.147,0.161
		c0.584,0.62,0.915,1.454,1.416,2.127c0.219,2.799,0.317,5.625,0.5,8.412c0.27,4.16,0.354,8.333,0.392,12.504
		c0.023,1.521,0.011,3.041,0,4.563c-1.454-1.226-3.053-2.234-4.736-2.988c-1.55-0.7-3.076-1.104-4.664-1.171
		C341.045,200.421,342.193,198.054,343.121,195.603L343.121,195.603z M271.367,56.012L271.367,56.012
		c-0.209-1.587-0.452-3.19-0.758-4.764c-0.073-0.391-0.232-0.795-0.391-1.186c0.354-0.727,0.561-1.534,0.72-2.368
		c0.685-0.189,1.38-0.485,2.148-0.768c1.537-0.579,3.346-1.05,4.992-0.794c2.086,0.336,3.675,1.898,5.041,3.593
		c0.012,0.849,0.062,1.697,0.183,2.531c-0.134,0.014-0.269,0.014-0.39,0.027c-1.66,0.095-3.31,0.35-4.942,0.7
		C275.504,53.521,273.319,54.491,271.367,56.012L271.367,56.012z M272.623,27.491L272.623,27.491
		c0.904-3.042,2.649-5.788,4.395-7.82c1.135-1.333,1.671-1.789,3.063-2.585c0.05-0.04,0.099-0.066,0.136-0.08
		c0.062-0.013,0.146-0.054,0.292-0.107c0.281-0.094,0.562-0.162,0.843-0.229c-0.428,0.107,0.463-0.014,0.562-0.014
		c0.072,0,0.12,0,0.17,0c0.062,0.027,0.147,0.04,0.258,0.068c0.366,0.094,0.707,0.242,1.048,0.39
		c-0.682-0.296,0.282,0.215,0.344,0.255c0.072,0.041,0.121,0.083,0.169,0.108c0.024,0.028,0.073,0.068,0.109,0.108
		c0.185,0.174,0.342,0.363,0.489,0.551c-0.184-0.215,0.269,0.391,0.329,0.5c0.172,0.295,0.318,0.604,0.464,0.915
		c0,0.025,0.013,0.04,0.013,0.053c0.023,0.067,0.048,0.148,0.097,0.283c0.109,0.35,0.184,0.686,0.27,1.036
		c0.085,0.349,0.158,0.712,0.22,1.077c0.011,0.066,0.073,0.511,0.084,0.672c0.063,0.62,0.087,1.252,0.111,1.885
		c0.012,0.713-0.013,1.426-0.049,2.14c-0.013,0.35-0.049,0.687-0.073,1.037c-0.013,0.12-0.063,0.606-0.063,0.673
		c-0.549,4.24-1.354,8.438-1.916,12.679c-0.085,0.619-0.17,1.251-0.267,1.898c-1.343-1.198-2.905-2.087-4.639-2.437
		c-2.137-0.431-4.357-0.135-6.444,0.417c-0.378,0.108-0.769,0.216-1.147,0.336c0-0.538-0.013-1.089-0.013-1.642
		C271.414,35.541,271.464,31.448,272.623,27.491L272.623,27.491z M270.28,87.468L270.28,87.468c1.013-6.918,1.94-13.904,1.843-20.93
		c-0.023-2.517-0.171-5.047-0.415-7.551c2.196-1.252,4.76-1.911,7.178-2.18c1.487-0.161,2.99-0.174,4.478-0.215
		c0.635-0.013,1.296,0.026,1.941,0.041c0.392,0.121,0.818,0.107,1.232-0.015c0.464-0.026,0.928-0.081,1.379-0.188
		c0.122,0.175,0.244,0.35,0.354,0.511c0.635,1.844,1.282,3.676,1.965,5.478c1.673,4.416,3.296,8.831,4.906,13.271
		c3.234,8.911,6.163,17.929,8.446,27.203c0.916,3.769,1.77,7.551,2.54,11.36c-6.372-3.769-13.756-5.587-20.859-6.354
		c-4.737-0.511-9.497-0.376-14.195,0.431c-1.708,0.283-3.661,0.66-5.554,1.266C267.875,102.436,269.17,95.046,270.28,87.468
		L270.28,87.468z M195.416,125.72L195.416,125.72c1.489,2.005,2.733,4.199,4.162,6.259c0.377,0.552,0.89,0.74,1.354,0.673
		c0.622,0.484,1.33,0.888,1.94,1.332c1.171,0.862,2.257,1.83,3.319,2.84c2.221,2.1,3.942,4.469,5.37,7.281
		c1.306,2.585,2.026,5.492,2.159,8.318c0.074,1.535-0.047,2.854-0.354,4.281c-0.184,0.929-0.329,1.817-0.427,2.76
		c-0.025,0.188-0.025,0.363-0.025,0.524c-1.072,1.495-0.182,3.824,0.208,5.465c0.452,1.844,1.196,3.621,1.697,5.451
		c0.987,3.594,1.488,7.282,1.342,11.024c-0.109,2.987-1.219,5.854-2.684,8.426c-0.099,0.161-0.196,0.322-0.295,0.484
		c-0.585,0.579-1.108,1.266-1.721,1.938c-1.268,1.372-2.33,2.961-3.563,4.387c-1.537,1.75-2.892,3.057-4.417,4.281
		c-0.025-0.242-0.061-0.471-0.085-0.715c0.341-0.106,0.646-0.389,0.768-0.753c0.66-2.045,0.549-4.104,0.439-6.245
		c-0.122-2.153-0.304-4.306-0.562-6.447c-0.5-4.307-1.415-8.494-2.416-12.68c-1.939-8.129-4.441-16.057-7.249-23.876
		c-5.432-15.17-12.608-29.531-21.482-42.574c2.112,0.943,4.162,2.033,6.176,3.218C185.224,114.979,190.984,119.744,195.416,125.72
		L195.416,125.72z M124.406,215.282L124.406,215.282c-0.428-2.343-1.195-4.658-1.599-6.946c-0.659-3.741-0.622-7.415,0.11-11.144
		c0.672-3.447,2.062-6.69,3.344-9.907c1.306-3.271,2.49-6.609,3.797-9.88c1.976-4.938,4.563-9.366,7.688-13.526
		c1.417-1.885,2.992-3.648,4.687-5.236c0.294-0.283,0.61-0.553,0.952-0.795c0.159,0.054,0.33,0.054,0.489-0.026
		c2.575-1.251,5.883-1.386,8.653-1.077c3.051,0.362,6.213,1.75,9.02,3.056c5.859,2.759,11.754,5.612,17.259,9.166
		c2.917,1.884,5.882,3.876,8.298,6.515c2.515,2.746,4.529,6.002,6.348,9.327c1.818,3.325,3.503,6.73,4.809,10.337
		c0.634,1.764,1.183,3.553,1.61,5.384c0.244,0.983,0.439,2.045,0.854,2.948c-0.108,0.08-0.231,0.161-0.354,0.242
		c-6.7,4.59-14.182,7.524-21.823,9.664c-7.994,2.233-15.854,3.297-24.08,3.78c-7.274,0.419-14.561,0.621-21.823-0.229
		c-1.819-0.215-3.809-0.578-5.847-1.049C125.992,215.712,125.2,215.497,124.406,215.282L124.406,215.282z M171.579,107.576
		L171.579,107.576c0.012,0.041,0.024,0.094,0.048,0.134c7.494,14.053,13.597,29.006,18.991,44.163
		c2.723,7.644,5.09,15.464,7.312,23.297c1.122,3.971,2.172,7.916,2.745,12.021c0.282,2.005,0.452,4.051,0.586,6.084
		c-1.367-3.607-3.124-6.986-4.967-10.296c-4.015-7.188-8.811-13.5-15.475-17.821c-0.086-0.068-0.184-0.122-0.282-0.189
		c-0.5-3.499-1.806-6.811-2.587-10.23c-0.732-3.19-1.477-6.069-3.124-8.815c-0.17-0.283-0.5-0.202-0.61,0.093
		c-0.489,1.28,0.012,2.222,0.426,3.46c0.562,1.723,0.878,3.554,1.221,5.357c0.512,2.718,0.94,5.479,1.439,8.196
		c-2.111-1.184-4.259-2.288-6.395-3.378c-2.978-1.535-5.98-3.082-9.105-4.213c-3.283-1.198-6.651-1.884-10.105-1.952
		c-1.612-0.027-3.234,0.215-4.784,0.659c-0.317,0.095-0.635,0.229-0.94,0.377c-1.256-0.565-3.063,0.377-4.15,0.982
		c-2.159,1.225-3.905,3.149-5.528,5.102c-1.233,1.494-2.405,3.055-3.503,4.67c-0.171-1.548-0.354-3.096-0.415-4.658
		c-0.049-1.358-0.134-2.705-0.184-4.065c-0.037-0.78-0.072-1.561-0.097-2.341c-0.037-0.821-0.392-1.576-0.452-2.382
		c-0.062-0.916-1.208-0.903-1.282,0c-0.109,1.399-0.476,2.705-0.536,4.145c-0.062,1.535-0.147,3.096-0.111,4.643
		c0.049,2.706,0.037,5.789,0.696,8.467c-1.111,1.911-2.111,3.903-3.003,5.949c-1.464,3.405-2.722,6.905-4.125,10.337
		c-1.281,3.163-2.624,6.298-3.502,9.637c-0.111-1.709-0.185-3.405-0.208-5.115c-0.111-8.493,0.598-16.986,1.464-25.425
		c1.551-14.98,3.479-29.948,6.92-44.565c1.331-1.938,2.759-3.823,4.211-5.653c0.084-0.107,0.171-0.216,0.256-0.337
		c-0.122,0.431-0.231,0.861-0.341,1.292c-0.952,3.837-1.526,7.888-1.38,11.873c0.037,0.955,1.355,0.968,1.355,0
		c0-3.877,0.745-7.646,1.709-11.361c0.208-0.822,0.451-1.642,0.695-2.449c1.05,2.476,2.33,4.792,4.077,6.891
		c2.526,3.028,6.285,5.384,10.069,3.917c3.417-1.319,5.908-4.9,7.469-8.358c0.916-2.02,1.514-4.159,1.892-6.38
		c0.122-0.714,0.257-1.48,0.366-2.248c2.735,4.118,5.297,8.277,7.189,13.015c0.256,0.633,1.074,0.162,0.964-0.443
		c-0.293-1.548-0.488-3.15-0.964-4.631c-0.512-1.602-1.086-3.189-1.685-4.75c-0.743-1.965-1.598-3.823-2.612-5.586
		C164.792,105.167,168.246,106.177,171.579,107.576L171.579,107.576z M154.357,104.401L154.357,104.401
		c-0.11,0.874-0.135,1.789-0.219,2.691c-0.196,1.897-0.623,3.876-1.307,5.625c-1.098,2.773-2.65,5.666-5.103,7.201
		c-2.721,1.683-5.357-0.471-7.274-2.543c-1.929-2.074-3.587-4.713-4.881-7.417c0.391-0.431,0.805-0.848,1.233-1.226
		c0.512-0.255,1.025-0.511,1.538-0.74C143.348,105.746,148.877,104.589,154.357,104.401L154.357,104.401z M124.65,125.303
		L124.65,125.303c-0.147,0.673-0.292,1.333-0.427,2.005c-0.77,3.796-1.526,7.551-2.478,11.306
		c-2.063,8.103-2.819,16.462-3.845,24.779c-2.063,16.73-2.759,33.65,1.049,50.111c-0.256-0.094-0.5-0.188-0.744-0.283
		c-0.233-0.484-0.537-0.928-0.927-1.332c-0.416-0.417-0.866-0.808-1.319-1.186c0.037,0.041-0.561-0.471-0.622-0.511
		c-1.172-1.037-2.271-2.153-3.272-3.406c-0.011-0.025-0.378-0.51-0.414-0.564c-0.147-0.229-0.293-0.444-0.44-0.673
		c-0.365-0.605-0.683-1.225-0.989-1.87c-0.134-0.256-0.243-0.512-0.353-0.78c0.146,0.323-0.196-0.539-0.22-0.592
		c-0.281-0.821-0.501-1.657-0.683-2.505c-0.159-0.699-0.281-1.413-0.391-2.141c0.049,0.325-0.073-0.74-0.073-0.752
		c-0.048-0.418-0.074-0.834-0.098-1.267c-0.134-2.166-0.036-4.32,0.063-6.486c0.207-4.899,0.438-9.813,0.928-14.698
		c0.962-9.678,3.893-18.871,6.773-28.023C118.475,139.086,121.013,131.952,124.65,125.303L124.65,125.303z M57.546,80.401
		L57.546,80.401c-2.88,0.148-6.211,1.077-8.982,2.652c1.732-3.189,3.588-6.312,5.517-9.368c0.903-0.27,1.831-0.848,2.49-1.238
		c1.563-0.929,3.296-1.292,5.027-1.682c0.258-0.068,0.465-0.175,0.635-0.323c-1.378,3.108-2.624,6.299-3.723,9.542
		c-0.072,0.201-0.134,0.404-0.207,0.605C58.059,80.455,57.804,80.388,57.546,80.401L57.546,80.401z M57.498,61.692L57.498,61.692
		c0.55-3.109,0.831-6.245,1.599-9.3c0.72-2.828,1.819-5.519,3.528-7.807c0.476-0.633,0.989-1.224,1.514-1.804
		c0.341-0.363,0.696-0.7,1.049-1.05c-0.084,0.094,0.623-0.538,0.598-0.524c0.452-0.35,0.916-0.673,1.392-0.982
		c0.281-0.175,0.562-0.337,0.854-0.499c0.012-0.013,0.562-0.269,0.586-0.296c0.439-0.175,0.877-0.323,1.33-0.458
		c0.061-0.012,0.525-0.107,0.598-0.135c0.208-0.014,0.414-0.027,0.623-0.027c0.097,0,0.194,0.013,0.292,0.013
		c-0.171,0,0.391,0.083,0.512,0.108c0.037,0.014,0.049,0.014,0.074,0.028c0.049,0.025,0.085,0.054,0.159,0.094
		c0.048,0.026,0.084,0.053,0.109,0.067c0.037,0.04,0.073,0.08,0.134,0.147c0.085,0.108,0.147,0.189,0.184,0.216
		c0.158,0.269,0.28,0.538,0.415,0.82c0.098,0.23,0.257,1.306,0.244,1.926c0,1.454-0.878,3.028-1.55,4.36
		c-1.685,3.379-3.479,6.609-4.882,10.162c-0.745,1.871-1.404,3.769-1.977,5.72c-0.343,1.131-0.501,2.397-0.599,3.648
		c-0.28,0.538-0.549,1.077-0.818,1.629c-0.244,0.511-0.476,1.022-0.708,1.547c0.049-1.104-0.769-2.329-2.026-1.993
		c-1.696,0.458-3.307,1.023-4.821,1.966c-0.159,0.094-0.33,0.202-0.5,0.309c0.414-1.023,0.866-2.033,1.135-3.123
		C56.937,64.883,57.217,63.294,57.498,61.692L57.498,61.692z M38.141,107.927L38.141,107.927c2.147-7.47,5.102-14.59,8.568-21.388
		c1.843-0.228,3.576-0.807,5.37-1.25c1.708-0.432,3.405-0.755,5.113-1.064c-1.989,7.106-2.966,14.415-2.367,21.925
		c0.769,9.745,3.479,19.477,8.067,27.903c-1.782,0.403-3.54,1.089-5.224,1.87c-3.722,1.751-7.322,4.106-10.765,6.46
		c-3.454,2.343-6.969,4.698-9.69,8.076c-1.171,1.44-2.087,3.042-2.918,4.725c-0.256-2.827-0.438-5.666-0.536-8.521
		C33.307,133.621,34.577,120.402,38.141,107.927L38.141,107.927z M300.512,302.057L300.512,302.057
		c-6.444,3.97-12.314,6.783-18.942,9.447c-6.761,2.707-13.682,4.913-20.675,6.771c-9.521,2.529-19.271,4.63-29.024,5.572
		c-4.406,0.417-8.812,0.593-13.229,0.565c0.109-0.565,0.097-1.225-0.073-1.979c-0.487-2.261-4.602-4.536-5.847-1.883
		c-0.707,1.547,0.721,2.542,1.879,2.838c0.111,0.028,0.185,0.056,0.245,0.097c-0.122,0.025-0.256,0.053-0.306,0.08
		c-1.451,0.417-4.076,0.026-5.199-1.158c-1.524-1.574-0.831-5.343,0.83-6.433c0.782-0.513,0.244-2.101-0.647-1.684
		c-2.063,0.943-3.722,2.787-4.003,5.316c-0.171,1.508,0.134,3.069,0.83,4.361c-1.952-0.08-3.904-0.121-5.857-0.041
		c-1.734-0.376-3.467-0.766-5.187-1.171c-8.496-1.952-16.942-4.158-25.278-6.81c-15.281-4.859-29.902-11.267-43.852-19.705
		c-0.185-0.122-0.379-0.242-0.575-0.364c3.186,0.162,6.383-0.08,9.533-0.498c3.979-0.524,8.324-1.145,11.911-3.217
		c0.782-0.457,0.367-1.682-0.426-1.723c-3.784-0.229-7.653,0.955-11.388,1.575c-3.931,0.646-7.946,0.875-11.912,0.538
		c-1.343-0.12-2.673-0.351-3.979-0.659c-3.82-2.53-7.567-5.196-11.229-7.995c-1.403-1.063-2.795-2.154-4.162-3.258
		c-0.684-0.552-1.368-1.116-2.051-1.67c-0.342-0.281-0.684-0.564-1.013-0.847c-0.122-0.107-1.27-1.077-0.867-0.727
		c-0.27-0.243-0.549-0.472-0.817-0.701c0.256,0.217,0.194,0.163-0.184-0.16c-0.342-0.298-0.671-0.58-1.001-0.876
		c-0.672-0.578-1.331-1.171-1.989-1.763c-1.428-1.278-2.844-2.584-4.236-3.903c-5.357-5.073-10.446-10.498-15.243-16.205
		c-2.393-2.854-4.711-5.788-6.945-8.776c-2.294-3.082-3.942-5.452-6.102-8.721c-4.162-6.272-7.934-12.856-11.327-19.665
		c-3.405-6.839-6.285-13.797-8.738-20.755c-4.053-11.495-7.055-23.46-8.592-35.669c0.183-0.391,0.366-0.78,0.548-1.157
		c0.941-1.993,1.929-4.038,3.199-5.801c2.392-3.312,5.724-5.545,8.971-7.712c3.234-2.167,6.566-4.267,9.983-6.084
		c2.172-1.158,4.602-2.194,7.042-2.462c1.916,3.068,4.088,5.935,6.53,8.519c9.044,9.557,21.31,14.86,33.747,15.937
		c-0.647,2.61-1.196,5.262-1.611,7.928c-0.781,4.994-1.208,10.054-1.537,15.101c-0.282,4.28-0.611,8.588-0.233,12.854
		c0.416,4.549,1.575,8.991,3.967,12.774c1.111,1.735,2.405,3.322,3.845,4.723c1.464,1.641,3.259,2.988,4.992,4.011
		c3.234,1.939,6.676,3.325,10.239,4.361c6.97,2.019,14.317,2.8,21.519,2.841c16.77,0.106,33.698-2.504,49.223-9.732
		c5.322-2.477,10.495-5.532,14.865-9.729c2.099-2.02,3.882-4.322,5.564-6.745c0.55-0.794,0.929-1.628,1.307-2.489
		c0.891-1.159,1.696-2.41,2.429-3.675c2.039-3.513,3.112-7.577,3.309-11.736c0.206-4.55-0.697-9.086-2.125-13.326
		c-0.428-1.251-1.379-4.428-2.696-6.796c3.111,0.593,7.017-1.507,9.445-3.043c3.503-2.193,6.458-5.236,9.569-8.021
		c5.688-5.075,10.949-10.728,15.61-16.946c4.578-6.098,8.508-12.692,11.412-19.934c0.621-0.229,1.244-0.444,1.867-0.646
		c1.977-0.633,4.016-1.051,6.065-1.334c4.43-0.578,8.947-0.524,13.378-0.04c7.504,0.849,15.451,3.109,21.871,7.699
		c2.185,12.087,3.477,24.309,3.612,36.719c0.134,13.096-1.196,25.385-5.236,37.754c-1.928,5.896-4.454,11.562-7.226,17.188
		c-1.428,2.88-2.843,5.787-4.308,8.641c-1.501,2.908-3.002,6.11-3.466,9.422c-0.281,2.032,1.599,4.469,3.526,2.99
		c3.601-2.747,5.834-6.934,8.153-10.932c1.721-2.946,3.271-6.028,4.724-9.152c1.514,1.845,3.137,3.594,4.527,5.559
		c2.002,2.802,3.65,5.923,5.066,9.126c2.867,6.502,4.516,13.675,5.431,20.796c0.915,7.12,1.037,14.375,0.452,21.535
		c-0.537,6.366-1.637,12.854-3.918,18.775c-0.391,0.392-0.782,0.781-1.185,1.172c-2.82,2.774-4.76,4.415-7.774,6.743
		C306.614,298.112,303.601,300.146,300.512,302.057L300.512,302.057z M325.923,279.538L325.923,279.538
		c0.05-0.283,0.109-0.566,0.159-0.861c1.246-7.12,1.709-14.401,1.44-21.644c-0.55-14.698-4.762-29.207-13.023-40.862
		c-1.745-2.466-3.783-5.155-6.2-6.986c0.61-1.36,1.208-2.746,1.781-4.133c1.087,0.769,2.223,1.454,3.04,2.343
		c1.892,2.032,3.49,4.293,5.627,6.07c1.988,1.643,4.283,2.503,6.7,2.152c-0.061,0.538-0.098,1.063-0.11,1.603
		c-0.023,2.194,0.293,4.441,0.563,6.609c0.572,4.588,1.477,9.111,2.696,13.539c1.221,4.429,2.843,8.749,4.784,12.841
		c0.903,1.926,1.928,3.782,3.053,5.559c0.549,0.889,1.182,2.046,1.929,3.029c-1.929,4.293-4.139,8.479-6.653,12.518
		C329.95,274.154,328.01,276.9,325.923,279.538L325.923,279.538z M340.203,254.462L340.203,254.462
		c-0.196-0.255-0.378-0.51-0.537-0.78c-1.062-1.642-1.989-3.392-2.869-5.168c-1.903-3.903-3.355-8.021-4.601-12.235
		c-1.208-4.118-2.111-8.345-2.747-12.611c-0.291-1.992-0.488-3.997-0.621-6.016c-0.073-1.023-0.244-2.021-0.415-3.017
		c1.929-0.981,3.648-2.504,5.199-4.051c1.146-1.157,2.22-2.396,3.247-3.715c2.025-0.242,3.733,0.053,5.639,0.861
		c1.685,0.712,3.246,1.911,4.576,3.229c0.672,0.673,1.222,1.494,1.794,2.274c-0.231,4.429-0.658,8.845-1.306,13.219
		C346.11,236.252,343.718,245.606,340.203,254.462L340.203,254.462z M365.32,173.313L365.32,173.313
		c-1.816,1.521-4.076,2.355-6.297,2.826c-2.233,0.486-4.626,0.163-6.835-0.322c-0.721-0.161-1.416-0.377-2.124-0.605
		c-0.294-0.513-0.659-1.01-1.085-1.455c0.207-0.134,0.414-0.282,0.621-0.403c1.77-1.077,3.735-1.414,5.688-1.912
		c2.893-0.728,7.054-1.656,9.666-0.39C366.346,171.738,366.541,172.291,365.32,173.313L365.32,173.313z"/>
	<path fill="#321A1B" d="M263.042,281.14c-0.83-0.095-1.549,0.565-2.283,0.916c-0.792,0.39-1.573,1.144-2.293,1.695
		c-1.515,1.158-3.076,2.221-4.711,3.149c-3.26,1.857-6.859,2.881-10.448,3.567c-7.385,1.386-15.599,0.443-22.652-2.288
		c-1.171-0.459-1.623,1.534-0.501,2.032c7.689,3.378,15.731,5.101,24.021,4.091c4.027-0.498,7.896-1.762,11.559-3.66
		c1.806-0.943,3.538-2.126,5.088-3.525c1.307-1.185,3.295-3.272,3.053-5.291C263.812,281.396,263.385,281.181,263.042,281.14
		L263.042,281.14z"/>
	<path fill="#321A1B" d="M146.718,204.81c5.906,2.908,12.607,0.295,16.952-4.589c0.647-0.728,1.209-1.495,1.696-2.302
		c0.208-0.135,0.415-0.311,0.599-0.512c0.622-0.686,0.989-1.75,0.939-2.759c2.039-6.03,0.61-13.083-2.319-18.857
		c-1.929-3.796-4.858-7.794-8.47-9.731c-2.418-1.305-4.895-1.104-7.08,0.04c-0.183-0.335-0.634-0.471-0.988-0.295
		c-1.832,0.888-2.795,3.029-3.712,4.872c-1.122,2.287-2.025,4.711-2.782,7.162c-1.526,5.02-2.405,10.538-1.721,15.828
		C140.443,198.43,142.591,202.791,146.718,204.81L146.718,204.81z M144.202,198.201L144.202,198.201
		c-0.036,0.068-0.085,0.121-0.122,0.174c-0.109-0.174-0.207-0.363-0.304-0.552C143.91,197.958,144.057,198.094,144.202,198.201
		L144.202,198.201z M145.228,199.963L145.228,199.963c0.22-0.243,0.464-0.458,0.708-0.658c1.379,0.362,2.869-0.417,3.552-1.926
		c0.782-0.296,1.563-0.551,2.271-0.793c1.416-0.485,2.759-0.835,4.234-0.524c1.575,0.321,2.955,1.345,4.224,2.354
		c0.159,0.122,0.317,0.203,0.476,0.244c-0.721,0.7-1.5,1.332-2.282,1.871C154.443,203.247,148.67,203.759,145.228,199.963
		L145.228,199.963z M156.225,170.313L156.225,170.313c0.793,0.686,1.538,1.466,2.233,2.301c-0.72-0.283-1.55-0.376-2.258-0.484
		c-1.574-0.242-3.209,0.014-4.759,0.336c-2.209,0.457-4.285,1.291-6.225,2.449c0.025-0.054,0.048-0.121,0.061-0.175
		c0.441-1.104,0.917-2.181,1.453-3.217c0.159-0.04,0.317-0.121,0.476-0.254c1.379-1.145,2.82-2.356,4.577-2.598
		C153.43,168.441,154.943,169.222,156.225,170.313L156.225,170.313z"/>
	<path fill-rule="evenodd" clip-rule="evenodd" fill="#F9F6EA" d="M156.225,170.313L156.225,170.313
		c0.793,0.686,1.538,1.466,2.233,2.301c-0.72-0.283-1.55-0.376-2.258-0.484c-1.574-0.242-3.209,0.014-4.759,0.336
		c-2.209,0.457-4.285,1.291-6.225,2.449c0.025-0.054,0.048-0.121,0.061-0.175c0.441-1.104,0.917-2.181,1.453-3.217
		c0.159-0.04,0.317-0.121,0.476-0.254c1.379-1.145,2.82-2.356,4.577-2.598C153.43,168.441,154.943,169.222,156.225,170.313
		L156.225,170.313z"/>
	<path fill-rule="evenodd" clip-rule="evenodd" fill="#C7564A" d="M145.228,199.963L145.228,199.963
		c0.22-0.243,0.464-0.458,0.708-0.658c1.379,0.362,2.869-0.417,3.552-1.926c0.782-0.296,1.563-0.551,2.271-0.793
		c1.416-0.485,2.759-0.835,4.234-0.524c1.575,0.321,2.955,1.345,4.224,2.354c0.159,0.122,0.317,0.203,0.476,0.244
		c-0.721,0.7-1.5,1.332-2.282,1.871C154.443,203.247,148.67,203.759,145.228,199.963L145.228,199.963z"/>
	<path fill-rule="evenodd" clip-rule="evenodd" fill="#F9BF9B" d="M144.202,198.201L144.202,198.201
		c-0.036,0.068-0.085,0.121-0.122,0.174c-0.109-0.174-0.207-0.363-0.304-0.552C143.91,197.958,144.057,198.094,144.202,198.201
		L144.202,198.201z"/>
	<path fill-rule="evenodd" clip-rule="evenodd" fill="#F9BF9B" d="M133.926,138.938L133.926,138.938v0.014
		c-0.049,0-0.098,0-0.158,0.012C133.841,138.952,133.889,138.952,133.926,138.938L133.926,138.938z"/>
	<polygon fill-rule="evenodd" clip-rule="evenodd" fill="#F9BF9B" points="134.182,139.018 134.182,139.018 134.182,139.018 
		134.182,139.018 134.182,139.018 134.182,139.018 	"/>
</g>
</svg>
